<svg width="112" height="56" viewBox="0 0 112 56" fill="none" xmlns="http://www.w3.org/2000/svg">
<g clip-path="url(#clip0_41_7069)">
<rect width="56" height="56" rx="28" fill="#8FA7DF"/>
<path fill-rule="evenodd" clip-rule="evenodd" d="M6.98574 55.7684L47.3504 58.9728L47.3926 59.2471C48.069 63.6522 48.4107 66.6407 48.4176 68.2127L48.4177 68.2609C48.4177 69.8195 48.8962 72.2985 49.8531 75.6977L49.9123 75.907L6.92941 75.9819L6.42236 65.7502L6.98574 55.7684ZM30.8826 33.8132C32.5239 33.8942 34.178 34.5978 34.3057 35.0475C34.5903 36.049 35.0478 40.3361 36.5526 40.9948C38.0574 41.6534 41.2698 41.053 42.1883 42.6259C43.1068 44.1988 46.1232 50.6108 46.1232 52.1049C46.1232 53.1009 36.2932 53.4467 16.6333 53.1421C16.8842 45.1195 17.9306 40.9022 19.7723 40.4904L19.9367 40.4541C22.6001 39.8723 24.1919 39.8535 25.1005 38.9156C26.0276 37.9586 26.1959 36.3159 26.5805 35.0475C26.7924 34.3486 28.8686 33.7138 30.8826 33.8132Z" fill="#D08B5B"/>
<path fill-rule="evenodd" clip-rule="evenodd" d="M34.482 36.3204C34.4882 36.3157 34.4944 36.3142 34.5011 36.3176C34.629 36.379 34.6555 36.5018 34.6994 36.6297C34.7637 36.8168 34.838 36.9993 34.9068 37.1846C35.0437 37.5565 35.1744 37.9277 35.327 38.2934C35.4837 38.6697 35.6459 39.0393 35.8318 39.4027C35.9214 39.5784 36.0178 39.7508 36.1158 39.9221C36.1834 40.041 36.2465 40.2044 36.3355 40.3159C36.3423 40.2804 36.3518 40.2466 36.3631 40.2151C36.3513 40.2207 36.34 40.2269 36.3293 40.2337C36.3068 40.2477 36.2797 40.2196 36.2932 40.1976C36.3417 40.1176 36.4048 40.0635 36.4769 40.0269C36.6763 39.8055 41.0723 40.8621 42.2741 42.0489C44.4506 44.1982 45.9197 46.8556 46.8859 49.6827C47.4194 51.2427 47.9107 52.8179 48.4183 54.3863C48.9547 56.0449 49.5147 57.6962 50.0521 59.3537C50.1699 59.7182 49.913 60.0494 49.5885 60.1694C48.9839 60.3925 48.3749 60.6027 47.7608 60.797C48.0589 61.9413 48.2673 63.1097 48.4172 64.2816C48.7265 66.6979 48.7654 69.1632 49.2527 71.5542C49.3646 72.103 49.5062 72.644 49.6558 73.1835L49.6904 73.308C49.7794 73.6247 49.8606 73.9441 49.9699 74.254C50.0639 74.5204 50.1856 74.7892 50.2516 75.0641C50.3287 75.3875 50.2149 75.7407 49.9124 75.9069C49.6696 76.0404 49.322 75.9852 49.1755 75.7345C49.1456 75.6833 49.1276 75.6275 49.1203 75.5711C49.0983 75.5244 49.078 75.4765 49.06 75.4275C49.053 75.4086 49.0468 75.389 49.0409 75.3694L49.0234 75.3109C48.9806 75.1711 48.9411 75.0303 48.9017 74.8894C48.8375 74.6634 48.7728 74.4383 48.7014 74.2143L48.6651 74.1024C48.4882 73.5638 48.3299 73.0207 48.1918 72.4709C47.6979 70.4992 47.5931 68.4579 47.4575 66.4373L47.4504 66.3328C47.3276 64.5221 47.2544 62.7154 47.4048 60.9086L47.3842 60.9153L47.3637 60.9216C47.1682 60.9813 46.9721 61.0399 46.7755 61.0968C46.7693 61.099 46.7637 61.1013 46.7575 61.103C46.6316 61.1419 46.5023 61.1789 46.3707 61.2133L46.2916 61.2337L46.2358 61.2489L46.1771 61.2656C45.9908 61.3196 45.8008 61.3818 45.6076 61.3756C45.2876 61.4269 44.962 61.4579 44.642 61.459C44.7406 63.0709 44.8544 64.6816 44.9901 66.2906C45.1265 67.908 45.3073 69.5193 45.4949 71.1306C45.5873 71.9266 45.6865 72.721 45.7958 73.5142C45.851 73.9165 45.9085 74.3165 45.9817 74.7154C46.0572 75.1232 46.1907 75.5593 46.1101 75.9717C46.1085 75.9711 46.1068 75.9706 46.1051 75.9706C46.078 76.09 46.0059 76.197 45.8803 76.2709C45.6499 76.4055 45.3276 76.3266 45.1952 76.0911C45.1839 76.0714 45.1732 76.0511 45.1631 76.0303C45.0274 76.0883 44.8786 76.1109 44.6961 76.1125L42.2206 76.1373C41.0955 76.1486 39.9704 76.1604 38.8448 76.1768C35.3108 76.2289 31.7768 76.2889 28.2427 76.3317L26.9175 76.3469C24.9299 76.3678 22.9411 76.4089 20.9535 76.4083C19.9592 76.4083 18.9659 76.4049 17.9716 76.3807C17.4899 76.3689 17.0093 76.3503 16.5282 76.3306L16.4432 76.3267C16.0591 76.3077 15.6513 76.2722 15.2758 76.3582C15.1721 76.5599 14.9073 76.6016 14.7687 76.3954C14.452 75.9236 14.3656 75.2653 14.3071 74.6887L14.2865 74.481C14.2217 73.8348 14.1648 73.1886 14.1225 72.5413C13.9727 70.2478 13.918 67.952 13.9868 65.6539C14.0217 64.4827 14.1293 63.3182 14.2566 62.1537C14.2966 61.7903 14.3383 61.4275 14.3834 61.0652L14.3842 60.9364C14.3842 60.8952 14.384 60.8559 14.3828 60.819L14.3716 60.4695C14.3623 60.1781 14.3536 59.8866 14.35 59.5951L14.3485 59.4201L14.3468 59.0945C14.0685 59.068 13.7716 58.9756 13.5316 58.9311C13.1423 58.8585 12.7541 58.7801 12.3671 58.6973C11.5918 58.5306 10.8251 58.3334 10.0634 58.1154L9.90139 58.0688C9.19856 57.8663 8.48604 57.6504 7.82114 57.3475C7.56085 57.2286 7.30114 57.0945 7.07297 56.9187C7.05945 57.1035 7.0386 57.2878 7.02621 57.4708C7.00147 57.8331 6.97212 58.1942 6.9479 58.5565L6.92473 58.9012C6.88668 59.4755 6.8524 60.0492 6.83691 60.6252C6.76818 63.1379 6.75635 65.6613 6.8893 68.1723C6.95522 69.4292 7.0493 70.6861 7.18508 71.9379C7.25156 72.5537 7.32198 73.1711 7.40874 73.7847C7.49832 74.4151 7.66001 75.0416 7.70959 75.6765C7.75691 76.2889 6.82057 76.3779 6.66677 75.8179C6.4826 75.1464 6.43569 74.422 6.33862 73.7316L6.32761 73.6551C6.22001 72.9216 6.13381 72.1852 6.05945 71.4478C5.8027 68.9041 5.73607 66.3475 5.87071 63.7942C5.93473 62.5714 6.08651 61.3533 6.27022 60.1434L6.29156 60.0038C6.37519 59.462 6.45348 58.9201 6.54819 58.3806L6.58452 58.1785C6.66959 57.7148 6.73494 57.2106 6.87297 56.7469L6.83194 56.7091C6.75523 56.6376 6.6721 56.5549 6.61156 56.4658C6.40311 56.4376 6.22564 56.2878 6.24761 56.0156C6.31916 55.1216 6.64592 54.2123 6.93719 53.3683C7.22959 52.5199 7.56874 51.6872 7.95297 50.8759C9.30452 48.0246 11.251 45.4359 13.6313 43.3621C14.8938 42.2618 16.2775 41.2861 17.8065 40.5914C18.5603 40.2483 19.34 39.983 20.1569 39.8399C20.5614 39.7689 20.9699 39.7137 21.3811 39.7018C21.7148 39.5048 22.1109 39.5877 22.434 39.8037L22.4516 39.8156H22.4522L22.5349 39.832C22.5552 39.8359 22.5547 39.868 22.5349 39.8725C22.5338 39.8725 22.5321 39.8731 22.531 39.8737C22.584 39.9154 22.6341 39.9599 22.6809 40.0077C22.8352 40.1655 22.8347 40.3559 22.7552 40.5097C23.2279 40.948 23.5265 41.5108 23.8392 42.0782C24.1744 42.6855 24.6132 43.2106 25.1473 43.6534C27.1051 45.277 29.9845 45.9954 32.4375 45.2286C34.2414 44.6652 35.7823 43.1401 36.2082 41.3041C36.1073 41.3401 35.998 41.3458 35.8944 41.3086C35.4076 41.1351 35.222 40.603 35.0358 40.1582L35.0268 40.1368C34.8448 39.7058 34.6921 39.268 34.5716 38.8162C34.4499 38.3599 34.3783 37.8782 34.3485 37.4072C34.3369 37.221 34.342 37.0347 34.3516 36.8485L34.3602 36.6945C34.3668 36.555 34.3647 36.4124 34.482 36.3204ZM26.5614 35.0646C26.5682 35.0477 26.5947 35.0387 26.6048 35.059C27.0358 35.948 26.753 37.1661 26.3456 38.0139C25.9192 38.9007 25.2769 39.5734 24.5158 40.1554C24.411 40.2354 24.3034 40.3142 24.1941 40.3914C23.5591 40.8399 22.9935 39.6308 23.7265 39.3999C24.4905 39.0117 25.1113 38.3199 25.5428 37.5931C25.7761 37.2004 25.9829 36.7914 26.1412 36.3621C26.2989 35.9339 26.3936 35.4883 26.5614 35.0646Z" fill="#1A1A1A"/>
<path fill-rule="evenodd" clip-rule="evenodd" d="M39.8989 24.3418C39.6903 22.673 39.0347 20.9012 38.3453 19.3454C36.7951 16.0561 33.2462 15.6032 30.0647 14.925C26.9252 14.467 23.6007 14.0534 20.5085 14.9673C18.7702 15.394 18.0912 17.4687 18.3655 19.106C18.5221 20.1262 18.9855 21.0918 19.3807 22.0373C20.1661 23.979 20.6645 26.0578 20.6653 28.1602C20.6114 29.534 20.4179 31.1021 21.9934 31.684C23.4926 32.4311 23.6192 34.4564 25.4964 35.6055C26.2555 37.1462 28.3232 37.2818 29.8114 37.6393C30.752 37.8197 31.7032 37.9524 32.657 38.0382C35.4188 38.3928 37.6283 37.5909 39.074 35.1254C40.0415 33.6249 40.7619 31.8924 40.5839 30.074C40.4067 28.159 40.1113 26.2541 39.8989 24.3418Z" fill="#D08B5B"/>
<path fill-rule="evenodd" clip-rule="evenodd" d="M30.0886 10.9272C30.2462 10.7482 30.4891 10.8096 30.6365 10.9512C30.7325 10.9795 30.8254 11.0217 30.9133 11.0774C31.1117 11.0519 31.3198 11.0519 31.5144 11.0591C31.5616 11.0325 31.6122 11.0089 31.6673 10.9886C32.0609 10.8445 32.4094 10.9177 32.6968 11.1107C32.8353 10.9795 33.01 10.8971 33.2333 10.9096C33.4326 10.9207 33.5746 11.0147 33.6963 11.1385C33.8177 10.9631 34.0139 10.8379 34.2583 10.8205C34.5999 10.7962 34.9284 10.9335 35.2006 11.1461C35.3592 10.9637 35.5754 10.859 35.8164 10.8579C35.9749 10.8291 36.1422 10.8405 36.2934 10.8862C36.5129 10.9526 36.7056 11.0771 36.8591 11.2386C37.1019 11.0056 37.3991 10.8379 37.7418 10.8624C38.1854 10.8945 38.5531 11.2213 38.724 11.6236C39.0242 11.7441 39.3013 11.916 39.533 12.161C39.5453 12.1739 39.5571 12.1875 39.5695 12.201C39.6943 12.2472 39.8118 12.3126 39.9152 12.3987C40.243 12.672 40.3161 13.0675 40.2076 13.4551C40.2228 13.5171 40.2357 13.5802 40.2475 13.6432C40.5545 13.69 40.8333 13.8675 40.9918 14.1565C41.2088 14.5532 41.1661 15.0759 40.9311 15.4546C40.8301 15.6174 40.7019 15.7547 40.5578 15.8747C40.7207 16.2454 40.6425 16.6877 40.3799 16.9876C40.316 17.091 40.2374 17.1843 40.1491 17.2687C40.2466 17.652 40.0731 18.0474 39.7268 18.2522L39.6972 18.3265C39.6922 18.3388 39.6871 18.3511 39.6819 18.3633C39.6781 18.3791 39.6734 18.3943 39.6687 18.4097C39.6605 18.5457 39.6158 18.6792 39.527 18.8049C39.3454 19.0626 39.1203 19.2307 39.0009 19.5315L38.989 19.5631C38.9376 19.7055 38.7719 19.8059 38.6307 19.762C39.4148 21.3756 39.8259 23.171 40.1081 24.9306C40.2488 25.8084 40.3574 26.6892 40.4455 27.5735L40.5319 28.454C40.6078 29.2367 40.6755 30.0219 40.6759 30.8072C40.677 32.5836 40.1699 34.2923 39.0815 35.7058C38.0521 37.0421 36.5955 38.0106 34.95 38.392C33.251 38.7852 31.2581 38.6303 29.7345 37.73C29.2853 37.4653 29.6789 36.8286 30.1359 37.0416C31.0011 37.445 31.8804 37.7447 32.8395 37.8118C33.7744 37.8776 34.7116 37.7604 35.5982 37.454C37.0649 36.9464 38.313 35.8833 39.1152 34.5594C39.5105 33.9069 39.7966 33.1988 39.949 32.4506C40.1386 31.518 40.11 30.5541 40.0404 29.6096L40.0355 29.5453C39.8978 27.7255 39.7162 25.8945 39.4228 24.0929C39.1634 22.4997 38.7645 20.9388 38.2467 19.4124C38.0438 19.2335 37.8169 19.0854 37.5741 18.973C35.7961 18.8986 34.0148 18.9203 32.2391 19.0432C30.7246 19.1488 29.2176 19.3273 27.7219 19.5875L27.5616 19.6157C27.2305 19.6748 26.8628 19.7086 26.5508 19.8422C26.2832 19.9571 26.1747 20.1779 26.1073 20.4494C25.9375 21.1362 25.9116 21.8878 25.8829 22.592C25.8548 23.2804 25.9184 23.9746 25.8633 24.6607C25.8166 25.2348 25.6699 25.8224 25.2454 26.2377C25.0233 26.4551 24.7501 26.5739 24.4938 26.739C24.3279 26.8456 24.2576 26.9554 24.279 27.1525C24.3251 27.5841 24.672 28.1278 24.2824 28.4973C24.2138 28.5621 24.0952 28.5706 24.0277 28.4973C23.8669 28.3222 23.6449 28.1886 23.4543 28.0472C23.3744 27.9887 23.4408 27.8749 23.5313 27.9154C23.6505 27.9689 23.7719 28.032 23.8962 28.0872C23.6218 27.8608 23.2316 27.7497 22.9067 27.6838C22.7431 27.6511 22.5711 27.6416 22.4007 27.6568C22.2748 27.717 22.146 27.7729 22.0173 27.8275C21.8537 27.8963 21.6884 27.9587 21.522 28.018C20.9446 28.4894 20.6692 29.2563 20.7895 30.0061C20.8553 30.4201 21.0458 30.8703 21.4051 31.112C21.8307 31.3982 22.4007 31.2754 22.8606 31.4878C23.2912 31.6866 23.5532 32.0884 23.7494 32.5041L23.8312 32.6773C24.0133 33.0605 24.2005 33.4336 24.4493 33.7824C24.7372 34.1863 25.0897 34.5492 25.4742 34.8608C25.6608 35.0116 25.8596 35.1472 26.0651 35.2708L26.1213 35.3041C26.3293 35.4264 26.4783 35.543 26.4924 35.8016C26.4969 35.8917 26.4401 35.974 26.367 36.0207C26.0522 36.2207 25.739 35.9706 25.477 35.7959C25.1943 35.6078 24.9238 35.396 24.6737 35.165C24.198 34.7267 23.7865 34.2061 23.47 33.641C23.2288 33.2106 23.0917 32.605 22.7105 32.2715C22.4777 32.068 22.1489 32.0664 21.8582 32.0292C21.5878 31.9943 21.332 31.938 21.0914 31.8044C20.1126 31.2596 19.836 29.9408 20.0682 28.9216C20.1075 28.7497 20.1626 28.5824 20.2307 28.4213C19.8664 28.4821 19.4571 28.1047 19.6049 27.7238C19.6162 27.6951 19.6291 27.6681 19.6415 27.6404C19.4014 27.4821 19.212 27.2422 19.122 26.9283C19.0759 26.7661 19.0692 26.6021 19.0933 26.4438C18.977 26.3656 18.8808 26.2579 18.819 26.1255C18.6256 26.0359 18.4541 25.9019 18.3518 25.7103C18.2101 25.4461 18.2281 25.2027 18.3361 24.9835C18.3209 24.956 18.3063 24.9278 18.2922 24.899C17.8959 24.6472 17.6193 24.2134 17.6508 23.7323C17.6609 23.5728 17.7002 23.4292 17.761 23.2996C17.7559 23.2833 17.7508 23.2663 17.7463 23.25C17.4146 23.081 17.1403 22.8033 17.0425 22.4326C16.9447 22.0596 17.0599 21.6878 17.2904 21.4016C16.9531 21.1543 16.7501 20.8089 16.8733 20.2866C16.9233 20.0743 17.0239 19.881 17.16 19.7182C17.1594 19.7132 17.1583 19.7081 17.1572 19.703L17.1256 19.6784C16.7092 19.3491 16.4698 18.9295 16.7254 18.4134C16.8401 18.1813 17.0037 18.0196 17.196 17.9131L17.2055 17.8827C17.0678 17.5869 17.0211 17.2585 17.1161 16.9131C17.1937 16.6287 17.3775 16.4021 17.6125 16.2517C17.5968 16.1244 17.599 15.9887 17.6243 15.8416C17.6665 15.5932 17.7896 15.3763 17.9695 15.2225C17.9763 15.1897 17.9847 15.1577 17.9943 15.1255C18.055 14.9289 18.1685 14.7154 18.3001 14.557C18.4086 14.4258 18.53 14.3779 18.6785 14.3728C18.6695 14.2517 18.6756 14.1289 18.7004 14.0044C18.7763 13.6202 19.0203 13.259 19.3818 13.0951C19.5302 13.028 19.6865 13.0084 19.8371 13.0246C19.9653 12.7542 20.2155 12.5582 20.523 12.516C20.6427 12.4991 20.7541 12.5001 20.8564 12.5154C20.9143 12.4883 20.9744 12.4641 21.0374 12.4421C21.079 12.4275 21.1212 12.4139 21.1633 12.4005C21.3056 12.2236 21.4928 12.0821 21.7115 11.9971C21.9639 11.8985 22.2208 11.9086 22.4485 11.9914L22.521 11.9762C22.6346 11.779 22.8156 11.6263 23.0939 11.557C23.4099 11.4787 23.7342 11.588 23.9827 11.787C23.9839 11.787 23.985 11.787 23.9867 11.7863C24.1165 11.4951 24.3386 11.2923 24.7113 11.3063C24.9435 11.3154 25.1532 11.4309 25.3151 11.5954C25.4051 11.5841 25.495 11.5739 25.5855 11.5639C25.6811 11.4517 25.7874 11.347 25.9049 11.2529C26.0971 11.0985 26.3473 11.1109 26.489 11.3283C26.5199 11.3756 26.5486 11.4235 26.5772 11.4714L26.7071 11.4624C26.86 11.2556 27.0686 11.1159 27.3542 11.1047C27.6162 11.0939 27.8028 11.2225 27.9451 11.4021C28.0609 11.3993 28.1772 11.3971 28.2936 11.3954C28.4291 11.2382 28.5888 11.0996 28.7709 10.9846C28.9103 10.8968 29.1161 10.9267 29.2291 11.0439C29.3054 11.1235 29.3765 11.2067 29.4426 11.2928C29.6129 11.1014 29.8428 10.9754 30.0886 10.9272ZM21.8144 28.8174C22.0769 28.6675 22.43 28.8298 22.6841 28.9571C22.9938 29.112 23.3014 29.3458 23.4908 29.6388C23.7489 30.0376 23.1423 30.3599 22.8707 30.0022C22.7037 29.7819 22.5705 29.5599 22.3681 29.3672C22.1832 29.1903 21.915 29.072 21.8087 28.8388C21.8048 28.8309 21.8059 28.8219 21.8144 28.8174ZM21.9988 19.1356L22.0037 19.1216C22.0784 18.9169 21.7525 18.8287 21.6785 19.0316C21.5663 19.3393 21.6956 19.6738 21.9989 19.8066C22.0829 19.8435 22.1789 19.8307 22.2296 19.746C22.2721 19.6747 22.2524 19.5512 22.1691 19.5148C21.9985 19.44 21.9413 19.3081 21.9988 19.1356ZM19.1917 18.5633C19.3548 18.4191 19.1154 18.1807 18.9531 18.3243C18.8017 18.4583 18.6894 18.6403 18.7185 18.8496C18.7483 19.0628 18.9088 19.2134 19.0845 19.3199C19.2707 19.4327 19.4404 19.1405 19.2547 19.028L19.2338 19.0152C19.1559 18.9667 19.0647 18.9 19.0515 18.8045C19.0375 18.7031 19.1231 18.624 19.1917 18.5633ZM20.1175 16.0184L20.129 16.0099C20.3042 15.8846 20.1359 15.5913 19.9587 15.718C19.7963 15.8342 19.6659 15.9852 19.6522 16.1934C19.6389 16.3958 19.7417 16.5712 19.876 16.7136C20.0255 16.872 20.2638 16.6326 20.1146 16.4746C19.9692 16.3206 19.9408 16.1525 20.1175 16.0184Z" fill="#1A1A1A"/>
<path fill-rule="evenodd" clip-rule="evenodd" d="M36.1542 32.6091C36.1933 32.5985 36.2278 32.651 36.1954 32.6797C36.0627 32.7974 35.9785 33.0167 35.8817 33.1661C35.7897 33.3083 35.7009 33.4491 35.62 33.5979C35.5292 33.7647 35.4416 33.9309 35.3709 34.1074L35.3569 34.143C35.3781 34.1934 35.3946 34.2431 35.4068 34.2756L35.4103 34.2849C35.531 34.5931 35.2777 34.9355 34.992 35.0217C34.5034 35.169 34.0841 34.7677 34.0724 34.2905C34.0633 33.915 34.3177 33.5805 34.5763 33.3323C34.8025 33.1153 35.0558 32.9305 35.3391 32.7951C35.4642 32.7354 35.594 32.6855 35.7297 32.6565C35.8685 32.627 36.0183 32.6458 36.1542 32.6091ZM35.2332 33.9696C35.2691 33.9865 35.2996 34.0278 35.3254 34.076C35.3125 34.0351 35.286 33.9945 35.2332 33.9696ZM35.539 28.7531C35.9644 29.0117 36.6126 29.6147 36.155 30.2558C35.6163 30.821 34.8406 30.1729 34.4584 29.8798C34.104 29.6526 33.7058 30.2369 34.0346 30.5022C36.7965 32.547 37.9174 28.8207 35.7542 28.4491C35.516 28.4081 35.4275 28.6731 35.539 28.7531ZM32.0419 26.27L32.1171 26.2637C32.4431 26.235 32.7732 26.1912 33.0947 26.2649C33.5267 26.3641 33.495 26.9925 33.0947 27.108C32.7419 27.2098 32.351 27.1658 31.9869 27.1693C31.9296 27.1698 31.8724 27.1713 31.8151 27.1723C31.8039 27.3084 31.7592 27.4258 31.6908 27.5431C31.6418 27.6273 31.5792 27.7072 31.5177 27.782C31.3715 27.9597 31.0265 27.9557 30.8789 27.782C30.7697 27.6534 30.6828 27.5056 30.6814 27.3315C30.681 27.287 30.6865 27.2396 30.6971 27.1931L30.4983 27.1966C30.0119 27.204 29.5217 27.2007 29.044 27.1234C28.8741 27.1586 28.735 26.852 28.9696 26.7602C29.6071 26.5109 30.3194 26.4374 30.996 26.3626C31.3436 26.324 31.6932 26.2975 32.0419 26.27ZM37.4735 26.0123L37.4909 26.0106C37.9128 25.9674 38.3779 25.8926 38.8006 25.9356C39.4318 25.9998 39.4308 26.8531 38.8006 26.9169C38.5693 26.9404 38.3256 26.929 38.0825 26.9065C38.2068 27.1701 38.0594 27.4849 37.7601 27.5251C37.4819 27.5624 37.1936 27.2921 37.2849 27.0022L37.2891 26.9894C37.3069 26.9391 37.3229 26.8829 37.3419 26.8274L37.2413 26.8189C36.9404 26.7923 36.5227 26.738 36.412 26.5004C36.3786 26.4288 36.3863 26.3623 36.4377 26.3011C36.6487 26.0501 37.1686 26.0418 37.4735 26.0123ZM32.987 24.0586C33.2924 23.9477 33.6097 24.2073 33.6493 24.4999C33.6949 24.837 33.4518 25.059 33.1435 25.0993L33.1281 25.1011C32.4477 25.176 31.7725 25.3131 31.0913 25.3905C30.7819 25.4257 30.4702 25.4488 30.1587 25.4571L29.9361 25.4621C29.6633 25.469 29.3708 25.4752 29.119 25.3813L29.1199 25.3796C29.053 25.3602 29.0223 25.2638 29.0967 25.211C29.3648 25.0215 29.7262 24.9498 30.0383 24.8597C30.3521 24.7691 30.6682 24.6855 30.9852 24.607C31.6508 24.4424 32.3422 24.2929 32.987 24.0586ZM35.8031 24.1374C35.8841 23.7109 36.4883 23.6652 36.7102 23.9755C36.8536 24.0248 37.0639 24.0762 37.1942 24.1148C37.4213 24.1821 37.6485 24.2491 37.8762 24.3139C38.3478 24.4482 38.8079 24.6185 39.2715 24.7772C39.3193 24.7936 39.3062 24.8542 39.2603 24.8602C38.6132 24.9444 37.977 24.9836 37.326 24.9566L37.1925 24.9506C36.6189 24.9282 35.6451 24.9709 35.8031 24.1374Z" fill="#1A1A1A"/>
<path fill-rule="evenodd" clip-rule="evenodd" d="M30.5196 34.5461C30.9757 33.4775 31.9712 32.6922 33.1174 32.405C33.9591 32.1947 34.8425 32.2014 35.7005 32.2849C36.15 32.3283 36.6322 32.3639 37.0559 32.5309C37.4176 32.6735 37.7125 32.9431 37.9341 33.2595C38.198 33.6345 38.3775 34.0637 38.5035 34.5036C38.5214 34.5662 38.5382 34.6292 38.5539 34.6925C38.4991 35.0244 38.3828 35.3069 38.0754 35.5156C37.7754 35.7193 37.4174 35.8027 37.0606 35.8323C37.0256 35.8155 36.9918 35.7982 36.9608 35.7805C36.4047 35.4622 36.0134 34.71 35.3115 34.8118C34.6852 34.9027 34.2729 35.6908 33.9004 36.1529C32.7049 36.2922 31.5102 35.9329 30.5374 35.2493C30.488 35.0153 30.4851 34.7793 30.5196 34.5461ZM39.3665 33.7355C39.2709 33.4671 39.1504 33.2071 39.0076 32.9623C38.5356 32.1524 37.8109 31.5072 36.9506 31.1383C34.9156 30.267 32.2825 30.8812 30.639 32.3103C30.0776 32.7988 29.51 33.5167 29.3383 34.2889C29.2871 34.2991 29.2387 34.3257 29.1989 34.3633C28.0115 33.6157 26.7887 32.8965 25.8319 31.8602C25.137 31.1073 24.6537 30.2163 24.3578 29.2372C24.3336 29.1566 24.2036 29.1683 24.2076 29.2575C24.2087 29.2784 24.2098 29.2992 24.211 29.3201C24.1986 29.2817 24.1401 29.3014 24.1356 29.3387C23.9763 30.5281 23.7772 31.7892 23.9606 32.9848C24.0703 33.6983 24.3944 34.2206 24.8276 34.7845C25.2918 35.3891 25.8173 35.9514 26.3546 36.4906C26.6955 36.8329 27.0517 37.2277 27.4692 37.4786C27.9547 37.7702 28.5055 37.9919 29.0237 38.2169C29.5509 38.4464 30.086 38.6585 30.6312 38.8423C31.721 39.2112 32.8474 39.4661 33.9935 39.5778C34.9111 39.6669 35.9599 39.764 36.8392 39.4187C37.5133 39.1542 38.0573 38.676 38.4889 38.1007C38.9587 37.4741 39.3301 36.7604 39.5354 36.0078C39.7487 35.226 39.4115 33.8615 39.3665 33.7355Z" fill="#1A1A1A"/>
<path fill-rule="evenodd" clip-rule="evenodd" d="M38.6369 24.5634C39.9593 24.5634 40.7139 24.8477 40.9905 24.8699L40.9988 24.8705C41.1138 24.8778 41.217 24.8874 41.3253 24.9293C41.7233 25.0826 41.7881 25.5001 41.5559 25.7632C41.5396 26.3076 41.6112 26.9438 41.4883 27.49C41.3368 29.7926 40.2539 30.1811 39.6383 30.323C39.3293 30.3942 38.9631 30.4225 38.6348 30.3473C38.0748 30.3265 37.5212 30.1512 37.0475 29.8459C36.3879 29.4204 35.8979 28.7665 35.7389 27.9904C35.6635 27.6205 35.6283 27.2354 35.6693 26.8594L35.6754 26.8076C35.461 26.705 35.2125 26.6856 34.9564 26.6765C34.834 26.6722 34.7134 26.6683 34.5963 26.6735C34.4817 26.6863 34.3686 26.7033 34.2551 26.7265C34.1312 26.7639 34.0141 26.8256 33.906 26.9234L33.8986 27.066C33.8783 27.4224 33.8315 27.7799 33.7593 28.1296C33.6528 28.6455 33.4814 29.1382 33.1166 29.5042C32.9931 29.6886 32.8403 29.8532 32.6548 29.9958C31.981 30.5146 31.0655 30.705 30.2253 30.6333C28.5196 30.4878 27.5336 29.1337 27.3064 28.5549L27.2928 28.5198C27.1287 28.0896 26.9979 27.5313 26.4792 27.4388L26.3689 27.419C26.1322 27.3746 25.9138 27.3127 25.775 27.0818C25.7142 26.981 25.6829 26.8683 25.6752 26.7533C25.5943 26.7595 25.5134 26.7655 25.4329 26.7712C24.7901 26.9072 20.9351 27.0224 20.6273 27.0224C20.6273 27.0224 20.0359 27.2714 19.7861 27.0785C19.613 26.9443 19.5561 26.7656 19.6514 26.5631C19.7951 26.2584 20.4584 26.0751 20.753 26.017C20.753 26.017 25.5059 26.0565 25.848 25.9916C26.0597 25.7734 26.4383 25.8033 26.7546 25.7688C27.0165 25.582 27.3829 25.4569 27.6723 25.3732C27.7313 25.3509 27.7897 25.3293 27.8465 25.3089C28.377 25.12 28.9285 25.0199 29.4884 24.9661C30.0657 24.9113 30.6448 24.9361 31.2187 25.0147C31.4606 25.0475 31.7002 25.09 31.9382 25.1455C32.3642 25.2016 32.7878 25.2941 33.214 25.4039L33.2992 25.4261C33.748 25.5437 34.2093 25.6455 34.6738 25.5657C35.0521 25.5012 35.4158 25.3557 35.7645 25.1982L35.8099 25.1777C36.5767 24.8275 37.7742 24.5634 38.6369 24.5634ZM31.8921 25.8435C31.6091 25.7813 31.4883 26.2175 31.7721 26.2799C31.9731 26.3241 32.1435 26.4254 32.2585 26.5971L32.2707 26.6158C32.4251 26.8615 32.8156 26.6347 32.6601 26.3874C32.4851 26.109 32.2133 25.9141 31.8921 25.8435ZM40.1786 25.573C40.0789 25.5028 39.9279 25.5549 39.87 25.6542C39.8063 25.7635 39.8481 25.8853 39.9415 25.9568L39.951 25.9638C40.0367 26.0241 40.1201 26.1324 40.1306 26.2433L40.1315 26.2572C40.1427 26.5475 40.5939 26.5489 40.5826 26.2572C40.5716 25.9718 40.4063 25.7333 40.1786 25.573Z" fill="#1A1A1A"/>
</g>
<rect x="0.5" y="0.5" width="55" height="55" rx="27.5" stroke="#1A1A1A"/>
<g clip-path="url(#clip1_41_7069)">
<rect x="28" width="56" height="56" rx="28" fill="#EC7495"/>
<path fill-rule="evenodd" clip-rule="evenodd" d="M76.8311 76.3123C77.9198 76.2597 77.4819 74.3552 77.4038 73.6558C76.5418 71.1012 76.7444 68.314 76.4054 65.6364C76.1942 63.1368 75.9228 60.6449 75.6945 58.1473C75.2462 53.0772 72.0266 42.7558 68.3525 41.0959C67.8897 39.0651 65.9781 37.1695 63.5595 37.1695C61.9099 35.2168 59.9244 33.8426 57.3778 34.1201C56.3254 34.168 55.3048 35.2842 54.2964 35.4997C53.7318 35.5776 48.721 35.3772 47.7173 35.9733C47.0182 36.3323 46.387 36.9956 46.5926 37.8402C46.9206 38.8634 45.9013 37.7563 43.7749 38.8484C39.4389 41.4525 42.0299 44.9362 42.1447 45.0442C39.4389 48.8089 37.0739 51.8631 35.9797 56.4646C35.2705 59.8809 35.3503 63.4076 34.7561 66.8414C34.5463 68.032 34.2245 69.182 33.8762 70.3382C33.4987 71.8514 33.3152 75.6228 33.1071 75.6565C32.7281 75.7507 33.3262 76.5288 33.7277 76.5295C44.8615 78.3763 56.1707 76.606 67.3642 76.3167C70.5188 76.207 73.6767 76.1817 76.8311 76.3123Z" fill="#EDB98A"/>
<path fill-rule="evenodd" clip-rule="evenodd" d="M54.3104 38.8147C54.3104 39.9996 58.4247 44.4025 59.8446 44.1121C60.7913 43.9184 62.2215 42.6555 64.1353 40.3234V38.8147L63.722 37.1723C66.0634 37.2549 67.9001 39.1108 68.3525 41.0959C71.9899 42.7392 75.1817 52.8716 75.6802 57.9936L75.6945 58.1473C75.9228 60.6449 76.1942 63.1368 76.4054 65.6364C76.7444 68.314 76.5418 71.1012 77.4038 73.6558L77.4089 73.6992C77.4988 74.4306 77.8981 76.2608 76.8311 76.3123C73.6767 76.1817 70.5188 76.207 67.3642 76.3167C56.1707 76.606 44.8615 78.3763 33.7277 76.5295C33.3262 76.5288 32.7281 75.7507 33.1071 75.6565C33.3152 75.6228 33.4987 71.8514 33.8762 70.3382L33.9478 70.099C34.2683 69.0232 34.5608 67.9499 34.7561 66.8414C35.3503 63.4076 35.2705 59.8809 35.9797 56.4646C37.0739 51.8631 39.4389 48.8089 42.1447 45.0442C42.0299 44.9362 39.4389 41.4525 43.7749 38.8484C45.9013 37.7563 46.9206 38.8634 46.5926 37.8402C46.387 36.9956 47.0182 36.3323 47.7173 35.9733C48.721 35.3772 53.7318 35.5776 54.2964 35.4997C54.5587 35.4436 54.8218 35.3266 55.0861 35.1833L55.0402 35.336C54.5536 36.9668 54.3104 38.1263 54.3104 38.8147Z" fill="#9DDADB"/>
<path fill-rule="evenodd" clip-rule="evenodd" d="M59.9562 45.3765C59.9614 45.3255 60.0301 45.3256 60.0354 45.3765L60.114 46.1353C60.2096 47.0621 60.3017 47.987 60.3685 48.9181C60.4517 50.0792 60.5073 51.24 60.5341 52.4036C60.6277 56.4564 60.6463 60.5114 60.6541 64.5652C61.2024 64.5272 61.7507 64.4906 62.2992 64.4552C62.6714 64.4312 63.0436 64.4082 63.4158 64.3855L64.365 64.3279L64.7557 64.3039C65.0198 64.2876 65.3198 64.2211 65.5044 64.455C65.5783 64.5487 65.6154 64.6703 65.5465 64.7815C65.3876 65.0379 65.1434 65.0289 64.8673 65.04C64.6068 65.0506 64.3463 65.0609 64.0858 65.0709C63.5276 65.0926 62.9694 65.1131 62.4109 65.1287C61.8249 65.1452 61.2392 65.1585 60.6534 65.1685C60.6474 66.8798 60.5766 68.5891 60.5001 70.2985L60.4654 71.0678C60.3717 73.1482 60.2709 75.2303 60.1278 77.3079C60.116 77.478 59.8754 77.4776 59.8637 77.3079C59.7025 74.9682 59.5961 72.6235 59.4907 70.2807C59.4141 68.5821 59.3696 66.883 59.3485 65.1836C59.271 65.1842 59.1936 65.1852 59.1162 65.1855C56.9175 65.1951 54.7193 65.2047 52.5206 65.184C52.5243 65.1884 52.5279 65.1927 52.5303 65.1985C52.6894 65.5741 52.7046 66.0534 52.7007 66.4565C52.6962 66.9188 52.634 67.3755 52.5275 67.8251C52.146 69.4357 51.162 70.8782 50.0413 72.0709L50.0047 72.1097C49.7404 72.389 49.4371 72.6696 49.2748 73.0254C49.109 73.3887 49.0515 73.8136 48.9697 74.2039L48.9601 74.2488L48.6402 75.7263C48.5386 76.1956 48.5098 76.88 48.1383 77.2186C47.7917 77.5346 47.3325 77.3696 47.1694 76.9628C47.042 76.6453 47.1689 76.2967 47.2443 75.9794L47.8354 73.4949C47.9325 73.0897 48.0386 72.6819 48.2482 72.3179C48.4629 71.9451 48.7777 71.6749 49.0989 71.3983C49.707 70.8747 50.2654 70.2753 50.7375 69.6263C51.2095 68.9775 51.6129 68.2623 51.8958 67.5103C52.0374 67.1339 52.1535 66.7428 52.2335 66.3485C52.3096 65.9744 52.309 65.5869 52.3904 65.2168C52.3959 65.1912 52.4175 65.1737 52.4423 65.1659C52.4364 65.1494 52.4454 65.1271 52.4685 65.1256L54.2666 65.0101C55.865 64.907 57.4634 64.8012 59.0603 64.6804L59.3425 64.66C59.3206 62.3927 59.3392 60.1249 59.3802 57.8567C59.4177 55.7768 59.4185 53.6963 59.4803 51.6166C59.5111 50.5844 59.5774 49.5547 59.6512 48.5247C59.7267 47.4712 59.8476 46.4267 59.9562 45.3765ZM43.0721 57.4365C43.053 57.321 43.1983 57.2495 43.2652 57.3551C44.0309 58.562 44.4001 59.8729 44.5557 61.2852C44.6932 62.5317 44.6527 63.7962 44.5842 65.0459C44.5112 66.3789 44.426 67.7115 44.3399 69.0437L44.2075 71.0867L43.8754 76.2083C43.8517 76.5747 43.7685 76.9078 43.4531 77.0781C43.4131 77.1115 43.3715 77.1414 43.323 77.1673C43.1526 77.2584 42.9265 77.2124 42.828 77.0375L42.8675 77.0635C42.9019 77.0852 42.8633 77.0549 42.7515 76.9728L42.6567 76.8501C42.5878 76.7466 42.5438 76.6448 42.5261 76.5217C42.4986 76.3304 42.5343 76.1206 42.5468 75.9284L42.7645 72.57C42.9337 69.9591 43.1314 67.3489 43.2805 64.7367C43.3499 63.5193 43.3985 62.3006 43.3656 61.081C43.3328 59.8682 43.271 58.6347 43.0721 57.4365ZM49.696 34.9545L49.7385 34.9474C51.2593 34.6947 52.9131 34.742 54.303 35.4751C54.3145 35.4812 54.3092 35.5003 54.2963 35.4997L53.849 35.4818C52.4327 35.4264 51.0208 35.3935 49.6282 35.7263L49.4857 35.7606C48.9842 35.883 48.4605 36.0327 48.0576 36.3639C47.6726 36.6806 47.4809 37.1689 47.2966 37.6186L47.2719 37.6779C47.0849 38.122 46.8481 38.5431 46.4382 38.8208C45.9072 39.1804 45.2686 39.1364 44.6598 39.1852C43.5878 39.2714 42.7113 40.0483 42.2753 40.999C42.0112 41.5746 41.8986 42.22 41.8763 42.8496C41.8648 43.1701 41.8632 43.5031 41.9059 43.8215C41.9195 43.9233 42.0454 44.2941 42.1096 44.2852C42.2522 44.2655 42.3825 44.3398 42.427 44.4538C42.7792 44.1135 43.1416 43.783 43.5156 43.4644C44.4479 42.6705 45.4522 41.9509 46.5097 41.3325C47.3169 40.8605 48.1683 40.3929 49.0499 40.0394C48.9801 40.0379 48.9112 40.0518 48.8445 40.0864C48.8153 40.1017 48.7863 40.0651 48.8094 40.0408C49.087 39.7487 49.4197 39.7071 49.755 39.785C49.8265 39.7622 49.8981 39.7402 49.97 39.7193C50.0058 39.7089 50.0236 39.7582 49.9944 39.7772L49.9121 39.8298C50.2779 39.9524 50.637 40.1932 50.9214 40.3833C51.7381 40.9292 52.4571 41.5965 53.1859 42.2513L53.3184 42.37C53.9599 42.9428 54.6177 43.4994 55.3465 43.9589C55.7281 44.1994 56.1288 44.4219 56.5491 44.5874C56.9096 44.7294 57.4966 44.8188 57.6655 45.1998C57.8155 45.3821 57.7528 45.6148 57.5771 45.7375C57.2806 46.0638 56.6876 45.853 56.3344 45.7171C55.9085 45.5533 55.4959 45.3564 55.1025 45.1255C54.3386 44.677 53.6343 44.1194 52.9781 43.5263C52.2929 42.9068 51.6465 42.2487 50.9801 41.6098C50.6913 41.3329 50.4092 41.0496 50.12 40.7732L49.9747 40.6356C49.8271 40.4972 49.6168 40.2814 49.3919 40.1508C48.9683 40.4035 48.5382 40.6457 48.1184 40.9049C47.5325 41.2667 46.9637 41.6546 46.4038 42.0553C45.3258 42.8266 44.3043 43.6905 43.3559 44.6165C41.6167 46.3146 40.1349 48.2538 38.8404 50.3071L38.7421 50.4636C38.0065 51.6388 37.3109 52.852 36.8176 54.1506C36.2749 55.5796 36.011 57.0823 35.8676 58.5992C35.7253 60.1052 35.6773 61.6189 35.5183 63.1235C35.3552 64.6666 35.0338 66.1757 34.6683 67.682L34.5811 68.0391C34.2504 69.3881 33.909 70.737 33.739 72.1179C33.6482 72.8554 33.5936 73.6031 33.606 74.3466C33.6184 75.0945 33.7359 75.8259 33.8307 76.5659C33.867 76.8493 33.5881 77.086 33.3384 77.1235C33.0513 77.1666 32.8047 76.9835 32.7154 76.7168C32.4372 75.8854 32.3867 74.9664 32.3954 74.0937C32.4042 73.2078 32.5173 72.3277 32.6764 71.4571C32.9893 69.7445 33.4722 68.0674 33.8761 66.3753C34.2321 64.8839 34.471 63.39 34.5998 61.8621C34.7335 60.277 34.8136 58.6866 35.0575 57.1129C35.2982 55.5593 35.7512 54.0754 36.4343 52.6588C37.0562 51.3689 37.8315 50.1549 38.6444 48.9782C39.6315 47.5493 40.7156 46.1896 41.9274 44.9507C41.8186 44.946 41.7068 44.9108 41.6042 44.8468C41.2901 44.6509 41.1439 44.2678 41.0989 43.9179C40.9937 43.0995 41.0191 42.2451 41.2296 41.4449C41.5691 40.1541 42.4504 39.0071 43.7275 38.5418C44.0563 38.4221 44.4057 38.3784 44.7541 38.3697C45.0847 38.3615 45.4458 38.4046 45.7648 38.2998C46.2725 38.1329 46.4902 37.5349 46.6808 37.0816L46.6896 37.0608C46.934 36.4832 47.2274 35.9881 47.7569 35.6274C48.3218 35.2425 49.0295 35.0675 49.696 34.9545ZM64.1466 37.2389C64.6036 37.0804 65.175 37.2242 65.6219 37.3627C66.1198 37.5171 66.5799 37.8014 66.9744 38.139C67.3906 38.4951 67.7345 38.9347 67.9775 39.4259L68.0007 39.4732C68.2227 39.9288 68.4754 40.5543 68.3635 41.0548C68.3603 41.069 68.3566 41.0827 68.3525 41.0959C69.2592 41.5423 70.0966 42.1014 70.8259 42.81C71.675 43.6351 72.394 44.5739 73.0024 45.5882C75.419 49.6168 75.8443 54.4551 76.1297 59.0494L76.2009 60.2144C76.3559 62.7298 76.5373 65.2393 77.0084 67.72L77.0427 67.8991C77.5463 70.4964 78.2672 73.1136 78.1942 75.778C78.1722 76.5763 76.9924 76.5709 76.9582 75.778C76.8294 72.7936 76.133 69.9121 75.6614 66.9744C74.8316 61.8059 75.2473 56.4774 74.0716 51.3607C73.6102 49.3527 72.8954 47.4049 71.8747 45.6125C71.3706 44.7271 70.7937 43.8715 70.118 43.1076C69.5366 42.4503 68.9324 41.8177 68.253 41.2651C68.0359 41.4826 67.6022 41.3718 67.4888 41.0548C67.411 40.8369 67.4337 40.5822 67.3837 40.354C67.3373 40.1422 67.2734 39.9322 67.1882 39.7328C67.0184 39.3353 66.7692 38.9537 66.4814 38.632C66.1706 38.2842 65.8134 37.9953 65.4137 37.7568C65.0112 37.5166 64.571 37.4449 64.1466 37.2694C64.1323 37.2635 64.1309 37.2444 64.1466 37.2389ZM65.9221 64.8611C65.9228 64.8402 65.9475 64.8303 65.9627 64.8443C66.123 64.9917 66.2198 65.2033 66.3377 65.3847C66.4737 65.5938 66.6166 65.7987 66.7663 65.9982C67.0664 66.398 67.4004 66.7748 67.7371 67.144C68.0502 67.4873 68.3839 67.8161 68.7301 68.1261C69.1052 68.462 69.5256 68.7617 69.8664 69.1337C70.5774 69.9098 70.6923 70.975 70.8424 71.9752L70.8588 72.0833C70.9503 72.6769 71.0323 73.2721 71.1062 73.8681C71.1421 74.158 71.178 74.4482 71.2073 74.7388L71.2162 74.8309C71.2423 75.1155 71.2494 75.4041 71.086 75.6528C70.911 75.9187 70.5133 76.012 70.2769 75.7569C69.8706 75.3188 69.9468 74.5405 69.894 73.9769C69.8503 73.5108 69.8008 73.0453 69.7453 72.5804L69.7171 72.3481C69.6518 71.8193 69.5987 71.28 69.4777 70.7604C69.3711 70.3028 69.1679 69.9574 68.8345 69.6259C68.4986 69.292 68.1496 68.9803 67.8395 68.6207C67.5107 68.2393 67.2141 67.8303 66.9468 67.4035C66.7182 67.0384 66.535 66.6412 66.3671 66.2443L66.3393 66.1782C66.177 65.7912 65.9095 65.2875 65.9221 64.8611ZM71.7876 48.2389C71.7912 48.1849 71.8709 48.1841 71.8721 48.2389C71.8822 48.7031 71.8919 49.1674 71.9015 49.6316C71.979 53.3726 71.9313 57.1224 72.3066 60.8505C72.4836 62.6083 72.8096 64.3403 73.1868 66.065C73.3798 66.9475 73.5823 67.828 73.7747 68.7106C73.9621 69.5709 74.1632 70.4353 74.3119 71.3035C74.4581 72.1568 74.589 73.0167 74.6477 73.881L74.655 73.9937C74.6803 74.4124 74.801 75.0282 74.5705 75.3993C74.3207 75.8013 73.8424 75.8085 73.5748 75.4247C73.3234 75.0644 73.3859 74.4235 73.3415 73.9937C73.2964 73.5558 73.2487 73.1176 73.1945 72.6807C73.0887 71.8284 72.9494 70.9781 72.8045 70.1317C72.5027 68.369 72.065 66.6285 71.7419 64.8686C71.4107 63.0653 71.1753 61.2491 71.1654 59.413C71.1556 57.5613 71.3516 55.7133 71.4505 53.8657C71.551 51.9892 71.6652 50.1141 71.7876 48.2389ZM54.1155 36.6032C54.2159 36.265 54.5704 36.0536 54.9162 36.1486C55.2331 36.2357 55.4947 36.6203 55.3709 36.9494C55.2356 37.3084 54.9994 37.6146 54.8002 37.941C54.6162 38.2426 54.3478 38.4801 54.1603 38.7763L54.3669 38.999C54.4702 39.11 54.5738 39.2205 54.6786 39.329L55.0389 39.7021C55.3195 39.9921 55.6018 40.2806 55.8921 40.5606C56.7457 41.3839 57.6129 42.1803 58.5689 42.8854C58.7865 43.0459 59.0058 43.2054 59.2313 43.3548L59.3154 43.4105C59.4701 43.5118 59.6426 43.6114 59.8295 43.5942C60.2836 43.5525 60.6938 43.0703 61.0059 42.7702L61.0222 42.7545C61.7954 42.0188 62.5114 41.2144 63.1374 40.3495C63.2764 40.1574 63.411 39.9619 63.542 39.7642C63.2394 39.4106 63.3116 38.7206 63.295 38.2918C63.2832 37.9904 63.2823 37.6888 63.2807 37.3872L63.2798 37.3263C63.2762 37.1311 63.2673 36.9438 63.3941 36.7831C63.4015 36.7738 63.4167 36.7741 63.4261 36.779C63.5997 36.8699 63.6532 37.0222 63.7272 37.193L63.735 37.2108C63.8251 37.4158 63.9114 37.6227 63.9987 37.8289C64.0902 38.0448 64.174 38.2638 64.259 38.4823C64.2985 38.5839 64.3363 38.686 64.3732 38.7886C64.3956 38.8541 64.4189 38.9193 64.4428 38.9843L64.4484 38.9894C64.48 39.0161 64.5067 39.0444 64.5298 39.0736C64.6266 39.122 64.7036 39.2103 64.7397 39.34C64.8183 39.6223 64.6557 39.8525 64.5106 40.0766C63.9213 40.987 63.2495 41.8545 62.5028 42.6415C62.1319 43.0325 61.7417 43.4059 61.3355 43.7601L61.2645 43.8216C60.8996 44.1352 60.5035 44.4322 60.0162 44.5056C59.4459 44.5914 58.9817 44.3078 58.5452 43.9811L58.5016 43.9483C58.0878 43.635 57.6822 43.3107 57.2893 42.9715C56.4883 42.2799 55.7262 41.5373 55.0498 40.7226C54.3919 39.9301 53.7416 39.0441 53.3361 38.0905C53.3114 38.0325 53.3764 37.9717 53.4273 38.0202C53.6254 38.2087 53.816 38.4075 54.0043 38.6089C54.0096 38.3125 53.9549 38.0136 53.9853 37.7153C54.0224 37.3528 54.0117 36.9523 54.1155 36.6032Z" fill="#1A1A1A"/>
<path fill-rule="evenodd" clip-rule="evenodd" d="M67.8874 18.2797C67.7625 17.9639 67.5417 17.567 67.1726 17.5512C66.8871 16.6765 66.1773 15.7857 65.19 15.8094C62.292 12.8396 58.6436 12.9796 54.8291 13.6083C52.8167 13.9823 50.7733 14.7147 49.2723 16.16C47.4747 17.8615 46.7747 20.8305 48.1824 22.9821C46.9658 23.6354 46.9422 25.1859 47.4625 26.3047C46.837 26.7381 46.799 27.79 47.5033 28.1206C47.4659 28.2743 47.4923 28.4332 47.5637 28.5698C47.2146 28.861 46.7601 29.0762 46.3844 29.2611C46.2183 29.3429 46.1225 29.4764 46.0827 29.6269C44.849 30.4379 41.7728 32.42 41.8095 33.9975C41.7914 34.8205 42.4006 35.3621 43.1409 35.5778C42.7004 36.4602 42.366 37.4909 42.7877 38.4428C42.9042 38.7304 43.7774 39.5757 43.8214 39.5913C43.8983 39.6573 45.151 39.081 45.7598 38.787C45.8779 39.5566 46.6991 39.9598 47.4069 39.6961C48.0781 39.4933 48.4907 38.9239 48.9141 38.4059C49.476 39.6343 51.1292 39.6484 52.1977 39.1188C53.1573 38.6746 53.8868 37.8604 54.2931 36.8793C56.4509 37.9378 58.9755 38.2464 61.3198 37.8236C61.4703 38.0904 61.8033 38.2696 62.1 38.1664C63.3466 37.7908 64.7249 37.7698 65.7816 36.9093C67.9842 35.325 68.1697 32.4042 68.0161 29.9145C67.8799 27.4321 67.9991 24.929 67.5488 22.4734C67.7442 21.7504 68.0693 21.1112 68.3701 20.432C68.6968 19.7198 68.6899 18.661 67.8874 18.2797Z" fill="#EDB98A"/>
<path fill-rule="evenodd" clip-rule="evenodd" d="M57.8877 13.3522L57.9733 13.3525C58.1148 13.3534 58.2562 13.3562 58.3971 13.3609C59.142 13.3855 59.9188 13.4823 60.7936 13.6481L60.9265 13.6737C61.1441 13.7164 61.339 13.7592 61.6498 13.8319L62.2667 13.9776C62.5808 14.051 62.812 14.1017 63.0253 14.1425L63.0532 14.1478C63.0532 14.1478 64.6972 14.9375 65.2281 15.4569L65.2811 15.5092L65.3036 15.5318L65.5345 15.5391L65.5367 15.5683L65.5387 15.5686C65.7679 15.6043 65.9752 15.7233 66.168 15.9085L66.1886 15.9286L66.2084 15.9485C66.3587 16.1016 66.4784 16.2647 66.6435 16.5233L66.6809 16.5824L66.748 16.6891L66.8023 16.7747C66.8376 16.8308 66.8716 16.8862 66.9041 16.9411L66.9363 16.9959L66.9594 17.0361L67.5554 17.3845C67.6413 17.4347 67.7194 17.4997 67.7909 17.5775L67.8102 17.599L67.8292 17.6212L67.9916 17.8148L67.9589 17.849L67.9747 17.8698L68.0031 17.9087L68.0307 17.9482L68.0577 17.9881L68.0693 18.0057L68.0868 18.0436L68.0953 18.0626L68.1021 18.0781L68.1224 18.0886L68.1638 18.1635C68.3787 18.552 68.4944 18.9932 68.5023 19.4465C68.5077 19.7593 68.4692 20.0433 68.3778 20.3172C68.3145 20.5067 68.2298 20.6555 68.0833 20.8605L67.9675 21.0196L67.9438 21.0524L67.9156 21.0924C67.9111 21.0988 67.9067 21.1051 67.9024 21.1114C67.7141 21.3846 66.105 21.9019 65.116 21.9269L65.0862 21.9275L65.0482 21.9279C64.9538 21.9283 64.8626 21.9249 64.7747 21.9175C64.3942 21.8856 64.0386 21.8054 63.6253 21.6742L63.5396 21.6465L63.0843 21.4932C63.0698 21.4884 63.0581 21.4845 63.05 21.4819L63.0085 21.4689C62.9082 21.4381 62.8353 21.4204 62.7857 21.414L62.7756 21.4127L62.7745 21.4316L62.7742 21.4494L62.7742 21.4639C62.7771 21.6738 62.6499 21.8269 62.4525 21.9245C62.3268 21.9866 62.1648 22.0309 61.9615 22.0642L61.929 22.0694C61.5967 22.1209 61.2004 22.1428 60.5375 22.1579C60.5122 22.1585 60.4868 22.1581 60.4611 22.157C60.3188 22.1504 60.2069 22.1261 59.999 22.0663L59.9006 22.038L59.8473 22.0233C59.7484 21.9965 59.6933 21.9858 59.6413 21.9829L59.6262 21.9822L59.6112 21.982C59.5487 21.9819 59.5036 21.9958 59.4591 22.0298L59.4364 22.048L59.1307 22.3046C59.0909 22.3378 59.0552 22.3673 59.0291 22.3882L59.0185 22.3966C58.599 22.7262 58.199 22.9145 57.7278 22.9324L57.6963 22.9333L57.6634 22.9337C57.6395 22.9337 57.6155 22.9333 57.5914 22.9324C57.393 22.9248 57.187 22.8511 56.9058 22.709L56.8474 22.6791L56.8067 22.6578C56.7858 22.6468 56.7641 22.6352 56.7406 22.6226L56.5307 22.5101L56.4235 22.4539C56.2954 22.3879 56.2239 22.3561 56.1759 22.3429L56.168 22.3409L56.1635 22.3452C56.0522 22.4541 55.9567 22.5911 55.854 22.7803L55.8385 22.809L55.816 22.8519L55.67 23.1431L55.6425 23.1972C55.5341 23.4074 55.4484 23.5417 55.3362 23.6596C55.1734 23.8306 54.9763 23.9299 54.7347 23.9458L54.7104 23.9471L54.6817 23.9478C54.5679 23.9489 54.4474 23.9314 54.3167 23.8951L54.2863 23.8863L54.2567 23.8772C54.062 23.8156 53.7542 23.854 53.5097 23.984C53.2442 24.1252 53.098 24.3407 53.1045 24.616C53.1077 24.7528 53.1234 24.8994 53.151 25.0584L53.1588 25.102C53.1951 25.2985 53.2442 25.4956 53.3199 25.7586L53.4826 26.3086L53.5009 26.3728L53.5193 26.4388C53.5457 26.535 53.5668 26.6188 53.5842 26.6977C53.6506 26.9994 53.6617 27.2259 53.5951 27.4189C53.3016 28.27 52.7923 28.7221 52.2126 28.7412L52.1925 28.7417L52.1677 28.7417C51.7223 28.7369 51.3187 28.4461 51.3236 28.0693C51.3241 28.0298 51.3316 27.993 51.3447 27.9598L51.3506 27.9457L51.3534 27.9397L51.3488 27.9285C51.212 27.6001 50.8954 27.3604 50.5236 27.3134L50.5025 27.3109L50.4817 27.3089C50.4613 27.3071 50.4409 27.3059 50.4216 27.3052L50.4027 27.3047L50.3801 27.3046C49.8847 27.3053 49.3944 27.6358 49.0088 28.1765C48.9284 28.2892 48.8537 28.4123 48.7867 28.5424L48.7646 28.586L48.6573 28.8058L48.5849 29.0184C48.1858 30.189 48.3879 31.414 49.1668 32.0473L49.1906 32.0664C49.4712 32.2869 49.8013 32.4209 50.1536 32.457C50.1941 32.4611 50.2349 32.4638 50.2742 32.4648L50.3033 32.4653L50.3368 32.4652C50.4516 32.4637 50.5614 32.4494 50.66 32.4227C50.7405 32.401 50.7965 32.3746 50.8355 32.3409C50.8457 32.332 50.8539 32.324 50.8611 32.316L50.867 32.3089L50.8693 32.3058L51.4016 32.3849C51.4922 32.9609 51.7538 33.5578 52.1793 34.2422L52.2061 34.2851L52.2529 34.3589L52.3005 34.4328C52.8011 35.2045 53.3596 35.8543 53.9734 36.353L54.0163 36.3876L54.0738 36.4333L54.1266 36.4747C54.2292 36.5545 54.3146 36.6166 54.4001 36.672L54.4215 36.6857L54.6234 36.8139L54.5297 37.0341C54.311 37.5481 54.0093 38.0153 53.6374 38.4131L53.6024 38.4502L53.3439 38.7173L53.1451 38.4637C53.1436 38.4618 53.1391 38.4593 53.1338 38.4583L53.1302 38.4579H53.1282L53.1255 38.4582L53.1223 38.459L53.1191 38.4605C52.9702 38.5414 52.8885 38.6032 52.7711 38.7241L52.754 38.7418L52.7342 38.7628L52.7069 38.7913C52.5849 38.9165 52.4545 39.0232 52.3124 39.112C51.9841 39.317 51.6198 39.431 51.2425 39.4412L51.2071 39.4419L51.1715 39.4419C51.1587 39.4418 51.1459 39.4416 51.133 39.4412C50.3459 39.4193 49.6405 38.914 49.2939 38.1733C49.2801 38.1439 49.2674 38.1343 49.2441 38.1324L49.2375 38.1321L49.2291 38.132C49.1713 38.1323 49.1005 38.1668 49.0609 38.2131L49.0539 38.222L48.9212 38.4006L48.8703 38.4681C48.397 39.0908 48.0083 39.4315 47.4863 39.5349C47.4452 39.543 47.4017 39.548 47.3556 39.5501L47.3276 39.5512H47.3112C47.0867 39.5518 46.828 39.4866 46.6263 39.3719C46.3596 39.2201 46.1947 38.9866 46.2156 38.6973L46.2172 38.6787L46.2209 38.6478C46.2383 38.4933 46.1149 38.4094 46.0205 38.4852L46.0141 38.4906L46.0063 38.4977C45.6174 38.8632 45.1701 39.1436 44.6883 39.3167L44.6457 39.3317L44.5823 39.3533C44.2785 39.4561 44.0642 39.507 43.8386 39.511C43.6434 39.5144 43.481 39.4438 43.3636 39.3081C43.2853 39.2177 43.2375 39.1171 43.1897 38.9703L43.1817 38.9455L43.1643 38.8884L43.1535 38.8513C43.0137 38.3584 43.0106 37.8314 43.1204 37.2499C43.2024 36.8155 43.3329 36.3959 43.5523 35.8078L43.5949 35.6944L43.6828 35.4631C43.6917 35.4399 43.6389 35.3589 43.6062 35.3497L43.6023 35.349L43.5725 35.3522C43.5516 35.3542 43.5305 35.3556 43.5089 35.3564L43.4761 35.3572H43.4545C42.7417 35.3499 42.1973 34.6494 42.2023 33.9074C42.2078 33.2122 42.5566 32.6145 43.2227 31.9051L43.2806 31.844L43.3432 31.779L43.405 31.7155C43.9969 31.1117 44.6019 30.5845 45.232 30.1324L45.2842 30.0952L45.3422 30.0541C45.5544 29.9049 45.7607 29.7697 46.0462 29.5919L46.2142 29.4879L46.8953 28.6825C46.9117 28.6732 46.9278 28.6639 46.9437 28.6547L46.9523 28.3753L47.6085 28.3888C47.442 28.3032 47.304 28.1994 47.192 28.0662C46.8195 27.6237 46.8663 27.0088 47.3191 26.7067L47.3351 26.6963L47.526 26.5781L47.6822 26.7155C47.8183 26.8351 47.9627 26.9144 48.1132 26.951L48.137 26.9565L48.2547 26.9815L48.2776 27.0187L48.2909 26.9994C48.2908 26.9975 48.2905 26.9956 48.2898 26.9937L48.2887 26.991L48.2862 26.9871L48.2713 26.9688L48.255 26.9492C48.2026 26.8875 48.1438 26.8276 48.037 26.7246L47.9621 26.6524L47.9037 26.5955C47.7507 26.4449 47.6692 26.3516 47.5825 26.222C47.3669 25.8996 47.2451 25.5361 47.24 25.1669C47.2294 24.3992 47.706 23.6733 48.4121 23.342C48.4368 23.3304 48.4551 23.2479 48.4254 23.1934C47.7417 21.9363 47.552 20.4293 47.8954 19.0275C48.2159 17.7196 49.0132 16.5652 50.1546 15.6808C52.1141 14.1626 54.8323 13.3797 57.7163 13.3528L57.8038 13.3522H57.8877Z" fill="#ECDCBF"/>
<path fill-rule="evenodd" clip-rule="evenodd" d="M47.4091 28.8166C47.5389 28.784 47.6086 28.9588 47.4984 29.029C46.7988 29.475 46.0761 29.8732 45.4003 30.3584C44.7575 30.8196 44.1638 31.345 43.6102 31.9099L43.5489 31.9728C43.0483 32.4888 42.494 33.1453 42.4884 33.9065C42.4841 34.4981 42.9393 35.1439 43.5744 35.0662C43.8136 35.0369 44.0336 35.3411 43.9501 35.5604L43.8623 35.7916C43.5089 36.7271 43.1493 37.787 43.4285 38.7712L43.4387 38.8063C43.5062 39.0317 43.5774 39.2309 43.8384 39.2263C44.0807 39.2221 44.3328 39.1402 44.5596 39.0621C45.0302 38.8999 45.4567 38.6294 45.8186 38.2892C46.1388 37.9884 46.5479 38.294 46.5048 38.6764L46.5033 38.6886C46.4443 39.1177 47.1264 39.3169 47.4365 39.2555C48.0488 39.1342 48.4853 38.5194 48.8331 38.0507C49.0002 37.8256 49.4062 37.7369 49.553 38.0507C49.844 38.6724 50.4438 39.1371 51.1455 39.1566C51.5099 39.1667 51.8596 39.0627 52.1683 38.8699C52.2943 38.7912 52.407 38.6976 52.5104 38.5915L52.536 38.5647C52.6889 38.4023 52.7944 38.3159 52.9897 38.2098C53.1822 38.1053 53.4311 38.2349 53.4299 38.4629C53.4284 38.7582 53.342 38.9546 53.1388 39.1688C52.9706 39.3462 52.7708 39.5019 52.5608 39.6263C52.1387 39.8763 51.6369 40.0169 51.1455 40.0006C50.3709 39.9749 49.6315 39.588 49.1523 38.9863C48.6629 39.5727 48.0559 40.1114 47.2671 40.0969C46.6766 40.0861 46.1263 39.778 45.8626 39.3007C45.4904 39.5579 45.0818 39.759 44.6448 39.8903L44.6058 39.9018C43.9872 40.0822 43.2753 40.1539 42.8771 39.5385C42.5032 38.9607 42.4754 38.1605 42.561 37.5001C42.6375 36.9101 42.8187 36.3498 43.0267 35.7972C42.4346 35.62 41.975 35.0627 41.8171 34.4619C41.5783 33.5534 42.0416 32.6723 42.6144 31.9973C43.2366 31.264 44.0196 30.6437 44.8086 30.1009C45.5954 29.5595 46.4769 29.0508 47.4091 28.8166ZM67.6407 21.7106C67.6421 21.6854 67.6834 21.6765 67.6872 21.7042C67.959 23.6805 68.1163 25.6527 68.2466 27.6425C68.3127 28.6505 68.3877 29.6576 68.4697 30.6644C68.5485 31.6299 68.6796 32.621 68.65 33.5904C68.6036 35.1084 67.868 36.3427 66.6619 37.2309C65.5062 38.0821 64.0725 38.5029 62.6658 38.6807C61.8489 38.784 61.0206 38.789 60.2028 38.692C59.7781 38.6416 59.3539 38.5745 58.9378 38.4738L58.758 38.4287C58.4303 38.3449 58.0645 38.231 58.0178 37.8422C57.9951 37.6538 58.095 37.5149 58.2562 37.4204C58.4664 37.2971 58.7074 37.3696 58.9241 37.4258C59.2891 37.5205 59.658 37.6017 60.0311 37.6579C60.8324 37.7787 61.6561 37.7858 62.4615 37.7022C63.8162 37.5615 65.2453 37.1211 66.2899 36.2117C66.7439 35.8166 67.1386 35.3351 67.3462 34.763C67.6131 34.0276 67.5736 33.2253 67.5647 32.4551C67.5439 30.6644 67.5622 28.8737 67.5373 27.0828C67.5124 25.2865 67.5341 23.5043 67.6407 21.7106ZM54.0169 13.3419C55.5999 12.9328 57.2065 12.8265 58.8325 12.9496C60.366 13.0657 62.1129 13.4095 63.3654 14.3547C63.4261 14.4005 63.3898 14.4874 63.3146 14.4754C62.4772 14.3416 61.661 14.0983 60.8273 13.9374C60.0254 13.7826 59.209 13.6663 58.3925 13.6394C55.6309 13.5482 52.558 14.1753 50.3312 15.9007C49.287 16.7096 48.4902 17.7974 48.173 19.0916C47.8478 20.4191 48.0238 21.8547 48.6769 23.0556C48.7709 23.2285 48.7321 23.502 48.5359 23.5941C47.9406 23.8734 47.5165 24.4922 47.5257 25.16C47.5302 25.4839 47.6416 25.7945 47.8207 26.0622C48.01 26.3453 48.2982 26.5434 48.51 26.8078C48.5934 26.9119 48.5966 27.0552 48.5305 27.1511C48.6544 27.2055 48.788 27.2347 48.9099 27.2989C49.0132 27.3534 49.0161 27.5235 48.9099 27.5771C48.6411 27.7127 48.3506 27.5688 48.1692 27.3501C48.1368 27.3111 48.1088 27.2705 48.0833 27.229C47.8661 27.1829 47.6715 27.0736 47.5015 26.9242C47.1777 27.1185 47.1333 27.5511 47.4115 27.8816C47.5536 28.0504 47.7554 28.1545 47.9594 28.2294L47.9839 28.2382C48.1824 28.3089 48.3642 28.3483 48.4932 28.5075C48.5782 28.3298 48.6759 28.1623 48.7847 28.0097C49.1804 27.4549 49.7887 26.9627 50.5105 27.0252C51.0759 27.0741 51.5658 27.4797 51.6816 28.0394C51.6902 28.0808 51.6279 28.1131 51.6093 28.0699C51.3381 27.436 50.4798 27.4128 49.9685 27.7431C49.3673 28.1316 49.0387 28.8637 48.9068 29.5456C48.7771 30.2172 48.8521 31.0341 49.3537 31.545C49.559 31.7541 49.8382 31.8986 50.1296 31.9367C50.2721 31.9554 50.3978 31.937 50.534 31.9095L50.6243 31.8906C50.6869 31.8777 50.7492 31.8672 50.8149 31.873L50.9128 31.8862L50.9684 31.9122C51.0166 31.934 51.0123 31.928 50.9553 31.8943C51.1216 31.8807 51.2076 32.0039 51.2167 32.1389C51.222 32.1423 51.2271 32.146 51.2314 32.1512C51.8625 32.9252 52.3311 33.8148 53.0008 34.5634L53.1969 34.7827C53.7009 35.3446 54.2763 35.9537 54.961 36.2452L55.0425 36.279C55.2417 36.3633 55.4417 36.4787 55.4671 36.7193C55.4899 36.9349 55.3203 37.0971 55.1248 37.1474C54.6797 37.2618 54.1722 36.8653 53.8462 36.6052C53.1452 36.0461 52.556 35.3333 52.0694 34.5833L52.0213 34.5086C51.6213 33.8826 51.2454 33.1687 51.1286 32.4257L51.1075 32.46C51.106 32.4624 51.1047 32.4642 51.1039 32.4653C51.0801 32.4978 51.0538 32.5252 51.0234 32.5514C50.9415 32.6222 50.8417 32.6636 50.7379 32.6916C50.5432 32.7443 50.3298 32.7547 50.1296 32.7342C49.7231 32.6925 49.3431 32.5375 49.0218 32.285C48.0433 31.516 47.9278 30.0852 48.3235 28.9243C47.9988 29.002 47.629 28.783 47.3754 28.5954C47.0846 28.38 46.8449 28.0692 46.7876 27.7036C46.7307 27.3408 46.9615 26.8603 47.3039 26.7203C46.9486 26.2929 46.7418 25.6863 46.7205 25.2006C46.6834 24.3558 47.1312 23.5572 47.8189 23.0963C47.1722 21.7075 47.0477 20.0963 47.4831 18.6217C48.3471 15.6955 51.2415 14.0592 54.0169 13.3419ZM51.5533 35.5742L51.5614 35.5485C51.6303 35.3222 51.7192 34.8721 52.0566 35.0434C52.3789 35.2071 52.1731 35.6916 52.0604 35.9274C51.9255 36.2096 51.6926 36.4358 51.3798 36.4965C51.1254 36.5458 50.8459 36.4824 50.668 36.2854C50.6161 36.228 50.5868 36.165 50.556 36.0955C50.544 36.0685 50.5386 36.0499 50.5364 36.0379C50.5335 36.0511 50.5252 36.0708 50.5039 36.094C50.3619 36.2495 50.2278 36.4305 50.1247 36.6145C50.1003 36.658 50.0234 36.6275 50.0429 36.5799C50.1629 36.2857 50.1427 35.8308 50.4102 35.618C50.6461 35.4304 50.8677 35.578 50.9924 35.7965L50.9987 35.8078C51.1811 36.1396 51.4716 35.8245 51.5533 35.5742ZM48.9881 34.5112L49.0127 34.4769C49.2648 34.1316 49.6901 33.7162 50.1156 34.0374C50.2509 34.1395 50.2559 34.31 50.1156 34.4113L50.0625 34.4493C49.8766 34.5814 49.6915 34.7061 49.555 34.8955C49.4066 35.1014 49.2734 35.3194 49.0739 35.481C48.7211 35.7666 48.151 35.8229 47.8449 35.4379L47.8148 35.3996C47.7892 35.3666 47.7598 35.3268 47.7359 35.2871L47.7174 35.3129C47.7155 35.3155 47.7138 35.3179 47.7123 35.3203L47.708 35.3268C47.5822 35.5283 47.4233 35.6942 47.2253 35.8251C46.8491 36.0739 46.4251 36.1085 45.9995 35.9768C45.9578 35.9638 45.969 35.9079 46.0093 35.9042C46.5137 35.857 47.0051 35.4979 47.2102 35.0356L47.2334 34.9837C47.3164 34.7997 47.4094 34.625 47.6145 34.5527C47.8141 34.4824 48.0237 34.5567 48.1606 34.708C48.2751 34.8345 48.3045 35.0859 48.511 35.0305C48.7372 34.9697 48.8644 34.686 48.9881 34.5112ZM47.5435 31.4395C47.6552 31.3544 47.8302 31.4457 47.8609 31.5689C48.0003 32.127 47.4215 32.7847 46.8652 32.802C46.722 32.8064 46.5843 32.7716 46.4575 32.7052C46.3591 32.6537 46.2427 32.5221 46.1347 32.5003C45.9952 32.4722 45.8716 32.6583 45.7734 32.7539C45.6516 32.8725 45.531 32.9826 45.3945 33.0836C45.34 33.124 45.2554 33.0562 45.2784 32.9942L45.3246 32.8709C45.4917 32.4319 45.7796 31.7911 46.3183 31.9732C46.5823 32.0625 46.781 32.3634 47.0589 32.1251C47.2815 31.9343 47.3022 31.6232 47.5435 31.4395ZM49.9204 29.1928C50.4226 28.6151 51.6031 28.9202 51.827 29.623C51.8765 29.7782 51.8249 29.98 51.7039 30.0898C51.5445 30.2346 51.3171 30.2784 51.1236 30.1649C50.9571 30.0672 50.8888 29.9075 50.7664 29.7704C50.5869 29.5696 50.3427 29.4581 50.0911 29.3782C50.0282 29.4113 49.9697 29.4548 49.9172 29.5074C49.8903 29.5342 49.8395 29.4974 49.8634 29.4657C49.8958 29.4227 49.9353 29.3822 49.9804 29.3448L49.9587 29.3385C49.8925 29.32 49.8782 29.2414 49.9204 29.1928ZM53.1843 22.8145C53.2969 22.8147 53.428 22.9206 53.4136 23.0442L53.4092 23.0786C53.3768 23.314 53.3014 23.4473 53.0662 23.5567C52.8667 23.6494 52.6571 23.7006 52.4384 23.7209C52.3556 23.7285 52.2681 23.729 52.1793 23.7224L52.1606 23.8305C52.1234 24.0466 52.0891 24.2629 52.0826 24.4832C52.0706 24.8916 52.2227 25.2281 52.3858 25.5927C52.6989 26.2931 52.7341 26.9923 52.3932 27.6917C52.3433 27.7939 52.2022 27.8773 52.0883 27.8669C51.9406 27.8535 51.8692 27.8107 51.7833 27.6917C51.7112 27.5917 51.7277 27.4504 51.7776 27.3459L51.7833 27.3344C51.9551 27.001 52.0092 26.6242 51.9215 26.2577C51.8391 25.9132 51.6524 25.6036 51.569 25.2601C51.4332 24.7007 51.5779 24.1458 51.8605 23.6658C51.6472 23.6042 51.4498 23.4945 51.3182 23.3271L51.3187 23.3269C51.2685 23.2731 51.2959 23.1607 51.3841 23.1674L51.4839 23.1755C51.7692 23.1994 52.0319 23.2243 52.3205 23.1446C52.4684 23.1037 52.5961 23.0355 52.723 22.9529L52.7502 22.935C52.9091 22.8292 52.9972 22.8143 53.1843 22.8145ZM53.8672 18.6797C54.5826 18.6389 55.1933 19.112 55.4902 19.7418C55.8127 20.4255 55.6773 21.2099 55.3927 21.8826L55.3118 22.0709C55.1703 22.397 54.9845 22.7849 54.6946 22.96C54.3689 23.1566 54.0874 22.9286 54.1835 22.5662C54.2407 22.3503 54.3956 22.1839 54.5209 22.0057C54.6378 21.8393 54.747 21.6672 54.8426 21.4876C55.0301 21.1353 55.17 20.7429 55.1685 20.3393C55.1658 19.6028 54.6802 18.7587 53.8672 18.7695C53.8092 18.7702 53.8101 18.6829 53.8672 18.6797ZM57.4851 17.4912C57.4405 17.4573 57.4804 17.3818 57.5302 17.4137C58.3598 17.9424 58.9791 18.9354 59.1038 19.911C59.173 20.4523 59.1202 21.0308 58.8901 21.5304C58.7582 21.817 58.5317 22.0906 58.2151 22.1692C57.924 22.2414 57.624 22.0748 57.5336 21.7901C57.4986 21.6796 57.5589 21.564 57.6499 21.5037C57.945 21.3082 58.1827 21.0614 58.3217 20.7295C58.4663 20.3843 58.524 20.0181 58.5258 19.6458C58.53 18.774 58.1828 18.0226 57.4851 17.4912ZM67.6181 17.8691C67.5797 17.8264 67.628 17.7635 67.6788 17.7902C68.2785 18.1063 68.6595 18.7117 68.7687 19.3748C68.8757 20.0239 68.7318 20.9076 68.2303 21.3771C67.9474 21.6421 67.4405 21.2896 67.6757 20.9483C67.8416 20.7075 68.0209 20.5093 68.1158 20.2248C68.2005 19.971 68.2305 19.7151 68.2259 19.4484C68.2158 18.8665 68.0083 18.3029 67.6181 17.8691ZM60.2861 17.0562C61.3107 17.0073 61.9316 18.1794 62.0739 19.0531C62.1617 19.5928 62.0957 20.1488 61.7983 20.6169L61.7807 20.6442C61.5353 21.0182 61.0892 21.4488 60.6085 21.2717C60.405 21.1968 60.3509 20.9784 60.4875 20.8127C60.6967 20.5591 61.0199 20.4557 61.2166 20.1849C61.4372 19.8812 61.5095 19.5007 61.4967 19.1313L61.495 19.0905C61.4608 18.4111 61.1374 17.1071 60.2861 17.1302C60.2384 17.1314 60.2389 17.0584 60.2861 17.0562ZM63.491 16.8615C64.482 16.7345 65.0855 17.9029 65.2717 18.7077C65.3879 19.2109 65.4133 19.7722 65.2646 20.2715L65.2536 20.3071C65.1325 20.6798 64.7754 21.3184 64.3092 21.1279C64.1815 21.0758 64.0511 20.9336 64.1123 20.7804C64.1903 20.5845 64.3031 20.5337 64.4533 20.4083C64.569 20.3118 64.6498 20.1733 64.7092 20.0368C64.8677 19.6732 64.903 19.2483 64.8813 18.8564L64.8784 18.8101C64.8224 18.0446 64.4082 16.9039 63.491 16.9248C63.4491 16.9258 63.452 16.8664 63.491 16.8615ZM65.3053 15.7631C65.8569 15.5526 66.3088 16.0811 66.6259 16.4583C67.0231 16.9309 67.3834 17.44 67.587 18.0284C67.7685 18.5526 67.8004 19.1355 67.637 19.6691C67.5561 19.9333 67.43 20.1783 67.258 20.394L67.236 20.4212C67.057 20.64 66.8841 20.7744 66.5908 20.6961C66.4715 20.6642 66.4211 20.5459 66.4417 20.4329C66.4859 20.1914 66.6101 20.1287 66.7709 19.9602C66.9128 19.8115 67.018 19.6284 67.0888 19.4359C67.2347 19.0387 67.2423 18.6085 67.1443 18.1994C67.0347 17.7414 66.8189 17.3184 66.5693 16.9221L66.5154 16.8372C66.2509 16.4182 65.8738 15.7729 65.3159 15.8409C65.2681 15.8467 65.2674 15.7775 65.3053 15.7631Z" fill="#1A1A1A"/>
<path fill-rule="evenodd" clip-rule="evenodd" d="M63.5519 34.1498C63.1369 34.27 62.6914 34.2808 62.2684 34.1566C61.8847 34.044 61.4907 33.7962 61.2083 33.4683C60.9574 33.177 60.7949 32.823 60.8013 32.4452C60.802 32.402 60.8175 32.366 60.8412 32.338C60.8668 32.3079 60.9025 32.2873 60.9407 32.2783C60.98 32.2691 61.0216 32.2723 61.057 32.2884C61.089 32.303 61.1165 32.3277 61.1336 32.3638C61.177 32.4208 61.2203 32.477 61.2637 32.5316C61.6126 32.9625 61.9506 33.2845 62.4753 33.4C62.76 33.4627 63.0443 33.4349 63.3052 33.3393C63.5845 33.2369 63.837 33.0569 64.0348 32.8266C64.1242 32.7225 64.2298 32.68 64.333 32.6793C64.4499 32.6785 64.5655 32.7328 64.6526 32.8197C64.7382 32.9051 64.7956 33.0211 64.8007 33.1425C64.8053 33.249 64.7706 33.3603 64.6781 33.4596C64.3736 33.7866 63.9789 34.0262 63.5519 34.1498ZM63.5391 28.7531C63.9645 29.0117 64.6127 29.6147 64.1551 30.2558C63.6164 30.8211 62.8407 30.1729 62.4585 29.8798C62.1041 29.6526 61.7059 30.2369 62.0347 30.5022C64.7966 32.547 65.9175 28.8207 63.7543 28.4491C63.5161 28.4081 63.4276 28.6731 63.5391 28.7531ZM59.5594 27.6152C59.4227 27.5278 59.2618 27.4978 59.0836 27.5789C58.9443 27.6422 58.6999 27.8534 58.5299 28.131C58.4136 28.321 58.3311 28.5438 58.3483 28.7759C58.3522 28.8298 58.3323 28.8695 58.3009 28.8989C58.2761 28.9221 58.2403 28.9391 58.1982 28.9445C58.1624 28.949 58.1224 28.9449 58.0899 28.9348C58.028 28.9155 57.9953 28.8753 57.983 28.8426C57.8639 28.5264 57.9152 28.1736 58.0486 27.8552C58.2287 27.4257 58.5557 27.0658 58.77 26.9498C59.1366 26.7512 59.5691 26.7421 59.9363 26.9444C60.2488 27.1166 60.4442 27.3946 60.6386 27.678C60.6799 27.7382 60.7209 27.798 60.7633 27.8568C60.8482 27.9745 60.8567 28.0912 60.8238 28.1913C60.7873 28.3022 60.6944 28.3958 60.5782 28.4448C60.4709 28.4901 60.3462 28.4965 60.2359 28.4499C60.1428 28.4107 60.0573 28.334 60.0032 28.2041C59.912 27.9852 59.7602 27.7437 59.5594 27.6152ZM66.504 28.1023C66.4103 28.151 66.3371 28.1658 66.2332 28.1346C66.1757 28.1174 66.119 28.0843 66.0745 28.0399C66.0304 27.9958 65.9987 27.941 65.9863 27.8802C65.9559 27.7303 65.8739 27.5899 65.7569 27.4983C65.657 27.4201 65.5308 27.3786 65.3908 27.402C65.2398 27.4272 65.096 27.5241 64.9969 27.6383C64.9638 27.6765 64.9378 27.7199 64.9117 27.763C64.8629 27.8436 64.8154 27.9185 64.7481 27.9777C64.7226 28.0002 64.6841 28.0158 64.6468 28.0158C64.6317 28.0158 64.6163 28.0133 64.6017 28.0088C64.4514 27.8579 64.4225 27.7435 64.4273 27.63C64.4324 27.5109 64.4793 27.3904 64.5552 27.278C64.7331 27.0142 65.0708 26.7979 65.2988 26.749C65.6109 26.6819 65.9209 26.7624 66.1694 26.9367C66.4252 27.1161 66.6147 27.3946 66.6737 27.7085C66.6879 27.7841 66.6819 27.8657 66.6531 27.9364C66.625 28.0055 66.576 28.0648 66.504 28.1023ZM60.2478 24.803C60.0605 24.9855 59.8388 25.0138 59.6145 25.0389C59.4899 25.053 59.3904 25.0644 59.2925 25.0865C59.0234 25.1472 58.7574 25.2387 58.5147 25.3705C58.2611 25.5082 57.9846 25.6743 57.7857 25.8871C57.7384 25.9377 57.6939 25.9909 57.6492 26.0441C57.6085 26.0927 57.5693 26.1394 57.528 26.1845C57.4805 26.2363 57.4354 26.2905 57.3906 26.3446C57.3629 26.3903 57.3574 26.4015 57.3518 26.4132C57.3434 26.4308 57.3337 26.4505 57.3225 26.4716C57.3072 26.5004 57.2893 26.5321 57.2706 26.5607C57.2394 26.6131 57.2226 26.6276 57.2082 26.634C57.1842 26.6447 57.1614 26.65 57.1393 26.6471C57.1186 26.6445 57.0991 26.6345 57.0798 26.6182C56.9837 26.537 56.9553 26.4036 56.9582 26.2621C56.9626 26.0473 57.0418 25.8094 57.1149 25.6632C57.2847 25.3235 57.5202 24.9704 57.8034 24.7169C58.1266 24.4275 58.4801 24.2084 58.8862 24.0574C59.1386 23.9635 59.4308 23.8774 59.7057 23.8883C59.9036 23.8961 60.0925 23.9549 60.2485 24.1018C60.3443 24.192 60.3903 24.3203 60.3903 24.4485C60.3903 24.5792 60.3426 24.7107 60.2478 24.803ZM66.8849 26.4743C66.873 26.4938 66.8565 26.5072 66.8382 26.5153C66.819 26.5238 66.7975 26.5262 66.7769 26.5228C66.7564 26.5193 66.7369 26.51 66.7214 26.4958C66.7066 26.4822 66.6953 26.4641 66.6902 26.442C66.5659 25.8958 66.3244 25.4894 65.809 25.2273C65.5554 25.0984 65.2638 25.0164 64.9878 24.9511C64.9076 24.9322 64.8229 24.9199 64.7375 24.9074C64.4701 24.8683 64.2006 24.8236 64.0263 24.6074C63.9212 24.4772 63.8771 24.3106 63.902 24.1583C63.9255 24.0149 64.0093 23.8833 64.1617 23.8045C64.541 23.6084 65.0123 23.8009 65.3953 23.9648C65.4238 23.9769 65.4516 23.9889 65.4789 24.0004C65.8535 24.1585 66.1951 24.3672 66.476 24.6657C66.6988 24.9025 66.9052 25.2525 66.9884 25.6126C67.0575 25.9122 67.0413 26.218 66.8849 26.4743Z" fill="#1A1A1A"/>
</g>
<rect x="28.5" y="0.5" width="55" height="55" rx="27.5" stroke="#1A1A1A"/>
<g clip-path="url(#clip2_41_7069)">
<rect x="56" width="56" height="56" rx="28" fill="#DB79E2"/>
<path fill-rule="evenodd" clip-rule="evenodd" d="M93.0689 40.0141C92.0254 39.2546 91.508 38.0111 91.1186 37.7994C90.8322 37.6437 90.8374 36.5691 90.2632 36.1888C89.4927 35.6784 87.0374 35.2989 86.144 35.228C85.2866 35.1598 83.7953 35.3029 82.9909 35.6169C81.6493 36.1405 81.1142 37.1392 80.5234 38.4259C80.5234 38.4259 93.7858 40.5359 93.0689 40.0141Z" fill="#EDB98A"/>
<path fill-rule="evenodd" clip-rule="evenodd" d="M73.6082 40.9014H94.8118L102.151 47.4304L105.409 74.8732L100.775 76.316L72.1468 76.7944L63.2058 74.2665L62.6479 55.1642L73.6082 40.9014Z" fill="#DB79E2"/>
<path fill-rule="evenodd" clip-rule="evenodd" d="M102.427 69.8879C102.279 69.8142 102.125 69.7298 101.957 69.724C101.667 69.7139 101.667 69.2631 101.957 69.2733C102.21 69.2821 102.432 69.3876 102.655 69.4987C102.914 69.6284 102.686 70.017 102.427 69.8879ZM101.957 57.2016C102.154 57.2018 102.354 57.2267 102.506 57.365C102.596 57.4472 102.589 57.6005 102.506 57.6837C102.417 57.7725 102.277 57.7656 102.187 57.6837C102.216 57.7103 102.187 57.6839 102.176 57.678C102.174 57.6766 102.172 57.6757 102.172 57.6751C102.17 57.6745 102.167 57.674 102.164 57.6731C102.14 57.6672 102.117 57.6614 102.093 57.6571C102.093 57.6582 102.043 57.6538 102.031 57.6533C102.006 57.6524 101.981 57.6523 101.957 57.6523C101.834 57.6522 101.731 57.5493 101.731 57.4269C101.731 57.3053 101.835 57.2015 101.957 57.2016ZM99.8376 62.2571C99.773 62.5402 99.3386 62.4197 99.403 62.1373C99.4966 61.7268 99.4795 61.3062 99.403 60.8942C99.3502 60.6102 99.7847 60.4896 99.8376 60.7744C99.9294 61.2686 99.95 61.7645 99.8376 62.2571ZM99.2683 46.0594C98.9327 45.9797 98.6007 45.9702 98.2573 45.9701C97.9669 45.97 97.9673 45.5193 98.2573 45.5194C98.6403 45.5195 99.0141 45.536 99.3882 45.6248C99.6706 45.6919 99.5503 46.1263 99.2683 46.0594ZM98.1436 57.0374C97.9489 56.9401 97.7542 56.8427 97.5595 56.7454C97.2997 56.6155 97.5283 56.2269 97.787 56.3562L98.3711 56.6483C98.6308 56.7782 98.4023 57.1668 98.1436 57.0374ZM98.0625 65.913C97.8156 66.269 97.4684 66.4902 97.0517 66.6006C96.7706 66.6752 96.6517 66.2403 96.9319 66.166C97.2299 66.0871 97.4946 65.9432 97.6733 65.6855C97.8377 65.4485 98.2282 65.6741 98.0625 65.913ZM96.5052 50.0446C96.4384 49.9197 96.3378 49.867 96.2129 49.8642C95.9229 49.8575 95.9229 49.4068 96.2129 49.4135C96.4975 49.4199 96.7584 49.5628 96.8943 49.8171C97.0311 50.0731 96.6419 50.3005 96.5052 50.0446ZM93.6465 53.1081C93.5657 53.1961 93.409 53.1939 93.3278 53.1081C93.278 53.0556 93.2362 52.997 93.2033 52.9327C93.1908 52.9083 93.179 52.8834 93.1653 52.8597C93.1591 52.8492 93.1523 52.8387 93.1453 52.8286C93.143 52.8265 93.1381 52.8214 93.133 52.8161C93.0464 52.7245 93.0486 52.5894 93.133 52.4974C93.2138 52.4094 93.3705 52.4116 93.4518 52.4974C93.5015 52.5499 93.5433 52.6085 93.5762 52.6728C93.5887 52.6972 93.6004 52.722 93.6142 52.7458C93.6204 52.7563 93.6272 52.7668 93.6342 52.7769C93.6366 52.779 93.6414 52.7841 93.6465 52.7894C93.7331 52.881 93.7309 53.0161 93.6465 53.1081ZM93.4061 59.7633C93.1126 59.8976 92.7907 59.8976 92.4972 59.7633C92.386 59.7124 92.3596 59.5519 92.4164 59.4549C92.4821 59.3426 92.6141 59.3235 92.7247 59.3741C92.8578 59.435 93.0457 59.4349 93.1787 59.3741C93.2898 59.3233 93.4205 59.3413 93.487 59.4549C93.544 59.5525 93.5168 59.7126 93.4061 59.7633ZM92.6055 64.474C92.5551 64.5934 92.4462 64.6568 92.3189 64.6616C92.1927 64.6664 92.0988 64.5546 92.0935 64.4363C92.0901 64.3599 92.1314 64.2946 92.1907 64.2542C92.1908 64.25 92.1909 64.2458 92.1909 64.2416C92.191 64.1153 92.2941 64.0217 92.4163 64.0162C92.5379 64.0108 92.6417 64.1237 92.6416 64.2416C92.6416 64.3211 92.6367 64.4001 92.6055 64.474ZM91.4427 71.9631C91.083 71.9689 90.7316 72.0546 90.3719 72.0604C90.0812 72.0651 90.0821 71.6144 90.3719 71.6097C90.7315 71.6038 91.083 71.5182 91.4427 71.5124C91.7333 71.5076 91.7324 71.9583 91.4427 71.9631ZM89.947 43.0809C89.7365 43.2814 89.4764 43.3802 89.22 43.5055C88.9602 43.6325 88.7319 43.2437 88.9925 43.1163C89.2097 43.0102 89.4502 42.9318 89.6284 42.7622C89.8385 42.562 90.1576 42.8804 89.947 43.0809ZM89.3819 48.2758C89.2342 48.202 89.0802 48.1177 88.9116 48.1118C88.6218 48.1017 88.6215 47.651 88.9116 47.6611C89.1646 47.6699 89.3867 47.7754 89.6094 47.8866C89.8693 48.0163 89.6407 48.4049 89.3819 48.2758ZM86.6726 69.1256C86.6058 69.0007 86.5053 68.948 86.3804 68.9451C86.0904 68.9385 86.0902 68.4878 86.3804 68.4944C86.6649 68.5009 86.9258 68.6438 87.0618 68.8981C87.1986 69.1541 86.8094 69.3815 86.6726 69.1256ZM85.7343 59.3386C85.6446 59.2563 85.6509 59.1034 85.7343 59.02C85.8316 58.9226 85.929 58.8253 86.0264 58.7279C86.1154 58.6388 86.2551 58.6453 86.3451 58.7279C86.4347 58.8102 86.4285 58.9631 86.3451 59.0466C86.2477 59.144 86.1504 59.2413 86.053 59.3386C85.9639 59.4277 85.8243 59.4212 85.7343 59.3386ZM84.628 74.5916C84.3029 74.584 83.9981 74.4907 83.692 74.3888C83.4177 74.2975 83.536 73.8624 83.8118 73.9542C84.0779 74.0427 84.3452 74.1343 84.628 74.1409C84.9181 74.1476 84.9182 74.5983 84.628 74.5916ZM83.1678 64.9537C82.874 64.9455 82.6304 64.796 82.4243 64.5956C82.2159 64.393 82.535 64.0746 82.743 64.277C82.8609 64.3916 82.997 64.4983 83.1678 64.503C83.4577 64.5111 83.458 64.9618 83.1678 64.9537ZM84.0746 52.5593C84.0781 52.6793 84.1288 52.8079 84.2033 52.8868C84.4025 53.0977 84.0842 53.4168 83.8846 53.2055C83.72 53.0312 83.6308 52.7979 83.6239 52.5593C83.6155 52.2687 84.0663 52.27 84.0746 52.5593ZM80.6368 42.7432C80.5425 42.5585 80.4189 42.342 80.2309 42.24C79.9755 42.1014 80.2033 41.7124 80.4584 41.8508C80.7139 41.9895 80.8968 42.2628 81.026 42.5157C81.1578 42.7738 80.7687 43.0016 80.6368 42.7432ZM80.0526 47.4304C79.948 47.4274 79.8442 47.4095 79.7434 47.3822C79.7003 47.3704 79.6577 47.357 79.6145 47.3453C79.596 47.3402 79.5176 47.3304 79.5658 47.333C79.4438 47.3265 79.3404 47.2351 79.3404 47.1077C79.3404 46.9905 79.4441 46.8758 79.5658 46.8823C79.7331 46.8913 79.8852 46.9749 80.0526 46.9797C80.3424 46.9878 80.3426 47.4385 80.0526 47.4304ZM78.5923 54.6344H78.1055C77.815 54.6344 77.8155 54.1837 78.1055 54.1837H78.5923C78.8827 54.1837 78.8822 54.6344 78.5923 54.6344ZM78.0245 74.5608C77.8769 74.6346 77.7029 74.7046 77.5834 74.8176C77.3726 75.0169 77.0535 74.6986 77.2647 74.4989C77.4169 74.3549 77.6117 74.2644 77.7971 74.1716C77.9063 74.117 78.0406 74.1417 78.1054 74.2525C78.1639 74.3526 78.1333 74.5063 78.0245 74.5608ZM76.9369 68.8661C76.918 68.8609 76.8981 68.8572 76.879 68.8546C76.8024 68.8442 76.7222 68.8478 76.6452 68.8478C76.3547 68.8476 76.3552 68.3969 76.6452 68.3971C76.8738 68.3972 77.1117 68.4004 77.2914 68.5605C77.3826 68.6417 77.3737 68.7967 77.2914 68.8791C77.2018 68.9687 77.0635 68.9601 76.9727 68.8791C76.9822 68.8877 76.9494 68.8696 76.9369 68.8661ZM76.6453 61.2073C76.7108 61.0723 76.7118 60.9843 76.7119 60.8343C76.7122 60.5438 77.1629 60.5442 77.1626 60.8343C77.1625 61.0521 77.1301 61.2375 77.0345 61.4348C76.9812 61.5447 76.825 61.5734 76.7262 61.5156C76.6155 61.4509 76.5923 61.3167 76.6453 61.2073ZM75.3422 50.6349C75.0808 50.7238 74.8474 50.8497 74.6172 51.0016C74.3742 51.162 74.1487 50.7715 74.3897 50.6125C74.6524 50.4391 74.9242 50.3018 75.2224 50.2003C75.4981 50.1065 75.6153 50.542 75.3422 50.6349ZM73.822 43.0495C73.6278 43.0549 73.4274 43.1294 73.2543 43.2135C72.9942 43.3398 72.766 42.951 73.0269 42.8243C73.2741 42.7042 73.5446 42.6066 73.822 42.5988C74.1127 42.5907 74.1114 43.0414 73.822 43.0495ZM73.1406 63.2987C73.0642 63.3022 72.9989 63.2609 72.9584 63.2015C72.9542 63.2015 72.95 63.2014 72.9458 63.2014C72.8195 63.2013 72.726 63.0982 72.7205 62.976C72.715 62.8544 72.828 62.7506 72.9458 62.7507C73.0254 62.7507 73.1043 62.7556 73.1782 62.7868C73.2976 62.8371 73.3611 62.946 73.3659 63.0734C73.3707 63.1996 73.2588 63.2934 73.1406 63.2987ZM72.0322 47.7144C71.7554 47.8048 71.6379 47.3695 71.9124 47.2798C72.2346 47.1745 72.5638 47.093 72.886 46.9877C73.1627 46.8972 73.2803 47.3326 73.0057 47.4223C72.6837 47.5276 72.3544 47.6091 72.0322 47.7144ZM71.0215 56.2213C70.9356 56.4979 70.5007 56.3792 70.5868 56.1015C70.67 55.8334 70.6759 55.5637 70.6761 55.2852C70.6763 54.9947 71.127 54.9952 71.1268 55.2852C71.1266 55.6022 71.116 55.9162 71.0215 56.2213ZM68.0081 66.4104C67.9917 66.5226 67.9027 66.6035 67.7862 66.6087C67.6676 66.614 67.5566 66.5013 67.5608 66.3833C67.5691 66.1565 67.7541 65.9716 67.9809 65.9633C68.1071 65.9587 68.2009 66.0702 68.2062 66.1886C68.2114 66.3037 68.1153 66.3936 68.0081 66.4104ZM66.4831 53.4582C66.245 53.5376 65.9905 53.6133 65.8038 53.7896C65.5928 53.9887 65.2737 53.6704 65.4851 53.4709C65.7313 53.2385 66.048 53.1288 66.3634 53.0235C66.6395 52.9313 66.7569 53.3668 66.4831 53.4582ZM65.4496 62.2136C65.3842 62.3255 65.2516 62.3457 65.1413 62.2944C64.9935 62.2257 64.8303 62.228 64.6709 62.2278C64.3805 62.2276 64.3809 61.7769 64.6709 61.7771C64.9168 61.7774 65.1436 61.8005 65.3688 61.9053C65.4797 61.9569 65.5066 62.1161 65.4496 62.2136ZM64.8656 72.8392C64.7394 72.8438 64.6456 72.7322 64.6403 72.6139C64.6351 72.4988 64.7311 72.4089 64.8385 72.3921C64.8548 72.2799 64.9439 72.199 65.0603 72.1938C65.179 72.1885 65.29 72.3012 65.2857 72.4192C65.2774 72.646 65.0926 72.8309 64.8656 72.8392ZM105.926 74.5433C105.85 74.2679 105.674 74.0453 105.542 73.7974C105.498 73.7139 105.482 73.6619 105.458 73.6008C105.426 73.6662 105.362 73.7153 105.267 73.7154C105.084 73.7155 104.87 73.7037 104.699 73.782C104.588 73.8329 104.457 73.8148 104.391 73.7011C104.334 73.6035 104.361 73.4435 104.471 73.3928C104.723 73.2775 104.994 73.2648 105.267 73.2646C105.334 73.2646 105.385 73.2895 105.421 73.3268C105.526 71.898 105.523 70.4683 105.424 69.0386C105.319 67.5107 105.077 66.0132 104.823 64.505C104.7 63.7738 104.541 63.0352 104.572 62.2904C104.603 61.5507 104.92 60.8611 104.695 60.1191C104.605 59.8216 104.451 59.549 104.351 59.2549C104.243 58.9383 104.252 58.6256 104.302 58.2977C104.402 57.6301 104.57 56.9704 104.302 56.3186C104.184 56.0295 103.992 55.7715 103.9 55.4729C103.785 55.1016 103.801 54.6909 103.782 54.3062C103.743 53.5298 103.732 52.7484 103.668 51.9738C103.64 51.6267 103.577 51.2977 103.434 50.9794C103.298 50.6729 103.094 50.394 103.003 50.069C102.913 49.749 102.905 49.4115 102.857 49.0842C102.806 48.7383 102.727 48.3974 102.62 48.065C102.206 46.7783 101.449 45.6222 100.553 44.62C99.6018 43.5546 98.4643 42.7523 97.257 42.0047C96.6221 41.6116 95.9873 41.2185 95.3529 40.8254C95.3394 40.8991 95.2923 40.9669 95.202 40.9971C94.9638 41.0766 94.7094 41.1522 94.5226 41.3285C94.3117 41.5276 93.9926 41.2094 94.2039 41.0099C94.4244 40.8016 94.7016 40.6921 94.9836 40.5958C94.6945 40.4136 94.4024 40.2249 94.0762 40.1197C93.7905 40.0273 93.3691 40.1078 93.1375 39.8983C92.9556 39.7332 92.8981 39.4273 92.8283 39.2031C92.7409 38.9247 92.6655 38.6312 92.5545 38.3608C92.479 38.176 92.3691 37.9985 92.2305 37.8554C92.1697 37.6211 92.0581 37.407 91.8609 37.2769C91.3449 36.9354 90.7111 37.2746 90.484 37.7614C90.2964 37.7608 90.0987 37.8019 89.9162 37.8132C89.5409 37.8369 89.1652 37.8476 88.7894 37.8464C88.0542 37.8442 87.3184 37.7963 86.5894 37.6988C85.2857 37.5242 84.0209 37.1721 82.7393 36.8977C82.7319 36.8808 82.7235 36.8639 82.7133 36.847C82.4373 36.3839 81.7494 36.4622 81.3161 36.6374C81.1302 36.7123 80.9409 36.807 80.8345 36.9828C80.7218 37.0588 80.6243 37.1512 80.5595 37.2487C80.4255 37.4498 80.3218 37.8554 80.0497 37.8892C79.8705 37.9112 79.6886 37.8769 79.5066 37.9028C79.279 37.9343 79.075 38.0143 78.8649 38.1056C77.2649 38.8002 75.6108 39.5726 73.8744 39.8419C73.4671 39.905 73.0525 39.9704 72.6987 40.1985C72.4114 40.3839 72.1893 40.6385 71.9522 40.8802C71.7212 41.1157 71.5308 41.22 71.2012 41.2622C70.8012 41.3135 70.4548 41.4239 70.1624 41.7146C69.9195 41.9563 69.7612 42.265 69.5708 42.5456C69.3769 42.8318 69.0925 42.9929 68.7973 43.1591C68.0993 43.5523 67.4491 44.0273 66.8829 44.5969C65.6902 45.798 64.968 47.3416 64.2401 48.8459C63.4531 50.4729 62.7173 52.1197 62.2069 53.8571C61.7066 55.5631 61.4091 57.318 61.2717 59.0893C61.1269 60.9478 61.1066 62.8138 60.986 64.6735C60.9257 65.6025 60.8801 66.5326 60.8339 67.4622C60.7888 68.3805 60.7229 69.3005 60.7336 70.22C60.7539 71.9974 61.1093 73.7805 61.7308 75.4448C61.8857 75.8588 62.0575 76.2673 62.2406 76.6695C62.4012 77.0228 62.9505 76.9833 63.1229 76.6695C63.1624 76.5974 63.1933 76.5231 63.2193 76.4476C63.67 76.4515 64.1252 76.4166 64.5731 76.4583C65.364 76.5321 66.1567 76.5732 66.9499 76.6222C68.5195 76.7197 70.0919 76.7845 71.6621 76.8741C71.8144 76.8827 71.9668 76.8915 72.119 76.9005C71.0001 73.4373 71.1452 69.6931 70.9682 66.0913C70.9539 65.8009 71.4047 65.8026 71.4189 66.0913C71.5967 69.7085 71.4453 73.4623 72.6038 76.9312C73.0532 76.9616 73.5021 76.9988 73.9494 77.0532C74.311 77.0966 74.6745 77.1479 75.0395 77.1298C75.4536 77.1101 75.8581 77.0155 76.2621 76.9332C76.9962 76.7839 77.7032 76.8515 78.4401 76.9433C79.2283 77.0419 80.0193 77.0966 80.8125 77.131C83.9888 77.2701 87.1866 77.3969 90.3618 77.1845C91.1302 77.1332 91.897 77.0611 92.6604 76.9631C93.4469 76.8622 94.2249 76.6926 95.0107 76.5963C95.7854 76.5017 96.4976 76.7614 97.2632 76.8093C98.044 76.8583 98.8457 76.6955 99.6193 76.6019C99.8716 76.5713 100.124 76.5416 100.377 76.5121C100.052 74.2825 99.8666 72.0361 99.687 69.7907C99.6638 69.501 100.115 69.5035 100.138 69.7907C100.316 72.0186 100.497 74.2482 100.822 76.4602C102.161 76.3044 103.502 76.1467 104.827 75.9039C105.205 75.8352 105.58 75.7231 105.806 75.3862C105.973 75.1366 106.007 74.8307 105.926 74.5433Z" fill="#1A1A1A"/>
<path fill-rule="evenodd" clip-rule="evenodd" d="M86.5646 14.3809C89.7568 14.3809 93.0585 16.8604 94.2287 18.4427C95.2125 19.773 95.7421 25.7885 95.7421 29.8538C95.7421 30.7041 96.2104 32.3069 96.0737 33.1201C95.573 36.1004 93.3916 38.5998 89.074 38.5998C84.7565 38.5998 81.6609 36.8848 78.4517 32.2802C76.8946 32.2802 76.14 31.0836 76.1291 29.1952C76.1181 27.3068 77.632 26.6198 77.632 26.6198C77.632 26.6198 77.0923 19.1674 78.4517 17.2272C79.8112 15.2869 83.3725 14.3809 86.5646 14.3809Z" fill="#EDB98A"/>
<path fill-rule="evenodd" clip-rule="evenodd" d="M85.2216 13.3271C87.2371 13.1226 89.212 13.2944 91.1983 13.6499C91.35 13.6775 91.4361 13.7773 91.4681 13.8972C92.4036 13.94 93.3402 14.0088 94.2745 14.0601C94.6136 14.0787 94.8058 14.4144 94.6512 14.7175C94.6203 14.7778 94.5882 14.8364 94.5556 14.895L94.5966 14.8814C94.8776 14.7911 95.1813 14.7465 95.4551 14.8899C95.8037 15.0725 95.9403 15.4752 95.8633 15.8459C95.8436 15.9406 95.8105 16.0313 95.7728 16.1198C95.8493 16.1147 95.9263 16.1164 96.0027 16.1266C96.4098 16.1806 96.7122 16.4933 96.7336 16.9097C96.7651 17.5383 96.3609 18.1761 95.8847 18.6262C95.9538 18.7688 95.9803 18.9367 95.9515 19.1068C95.8942 19.4432 95.6469 19.6446 95.3603 19.776C95.4799 20.1563 95.5364 20.5539 95.503 20.9603C95.4919 21.096 95.3735 21.208 95.2485 21.2355C95.7143 22.5208 95.9501 23.9008 96.1197 25.2454C96.2406 26.2021 96.3001 27.1643 96.3074 28.1282C96.3109 28.5634 96.3038 28.999 96.2856 29.4343L96.2782 29.5975C96.2557 30.068 96.2546 30.562 96.1703 31.0274C96.4581 31.5181 96.5739 32.1271 96.6228 32.6769C96.6836 33.3575 96.5874 34.0595 96.3732 34.7068C95.5647 37.153 93.1249 38.6966 90.6742 39.0978C88.4059 39.4691 85.781 38.9694 84.4553 36.9045C84.4345 36.8719 84.4789 36.8449 84.5048 36.8663C85.4532 37.6392 86.5534 37.984 87.7486 38.1519C89.8153 38.4415 92.1382 37.9502 93.7967 36.6477C94.5927 36.0223 95.1667 35.1119 95.4192 34.1321C95.5479 33.6314 95.5923 33.109 95.5417 32.5936C95.49 32.0708 95.259 31.6246 95.1134 31.1305C95.0644 30.9637 95.1162 30.8088 95.2179 30.6984C95.2465 30.2972 95.3141 29.8927 95.3399 29.4928C95.3685 29.0381 95.386 28.5834 95.3922 28.1282C95.404 27.184 95.3647 26.2381 95.2854 25.2978C95.1403 23.5761 94.7552 21.8961 94.5292 20.189C94.4456 20.2642 94.3256 20.2951 94.1999 20.2294L94.1869 20.2223L94.1183 20.1829C94.1143 20.1829 94.1098 20.1835 94.1059 20.184C93.6365 20.2297 93.1496 20.1643 92.6999 20.024C92.2293 19.8775 91.7925 19.6522 91.4023 19.3519C91.3281 19.7288 91.2971 20.1096 91.2966 20.4938C91.2961 20.7338 91.0425 20.8584 90.8413 20.7559C89.9491 20.3017 89.0968 19.7784 88.2878 19.1902C88.1933 19.6753 88.0989 20.1603 88.0038 20.6459C87.9673 20.833 87.7295 20.9085 87.5771 20.8195C86.9711 20.4662 86.4477 20.0037 86.0216 19.4538C85.9365 19.6169 85.8512 19.7799 85.7653 19.9425L85.6359 20.1862C85.5083 20.4257 85.3374 20.6905 85.058 20.7671C84.7623 20.8482 84.5154 20.6561 84.416 20.3879C84.3856 20.3046 84.3575 20.2189 84.3316 20.1327C84.0797 20.7091 83.7953 21.2725 83.4737 21.8099C82.9914 22.6161 82.4123 23.3344 81.835 24.0713C81.6596 24.295 81.3593 24.0814 81.3352 23.864C81.3211 23.7361 81.3093 23.6077 81.2991 23.4797C80.9627 24.1601 80.6117 24.8341 80.2292 25.4885L80.284 25.7035C80.4418 26.3389 80.5728 26.9788 80.7153 27.6175C80.7613 27.8236 80.652 28.1183 80.4117 28.1534C80.1247 28.1953 79.8531 28.3423 79.559 28.2412C79.2384 28.1308 79.1751 27.8532 79.0237 27.5899C78.9935 27.5375 78.9584 27.4893 78.9206 27.4436L78.911 27.4561C78.8874 27.4871 78.8312 27.4533 78.8452 27.4178L78.8617 27.3768C78.7317 27.2385 78.576 27.1231 78.433 26.999C78.093 26.9416 77.7105 27.0045 77.4762 27.1429C76.9427 27.4583 76.6976 28.1085 76.6926 28.7063C76.6864 29.406 76.9028 30.1925 77.2682 30.7908C77.4291 31.0539 77.6494 31.2916 77.9406 31.4083C78.2296 31.5243 78.5428 31.4883 78.8368 31.5975C79.0313 31.6702 79.1511 31.8866 79.0336 32.0826C79.0257 32.0961 79.0167 32.1085 79.0082 32.1215L79.0956 32.2378C79.1558 32.3184 79.2185 32.4046 79.277 32.4944C79.4265 32.6668 79.5839 32.833 79.7363 33.0026C80.0179 33.3152 80.2912 33.6364 80.5683 33.9535C80.8298 34.2528 81.1064 34.5338 81.3914 34.8104C81.6607 35.0725 81.9969 35.2927 82.2442 35.5722C82.4848 35.8449 82.5501 36.3209 82.1542 36.4787C81.7163 36.6537 81.3286 36.2435 81.0339 35.9701L81.0215 35.9586C80.4811 35.4603 79.9931 34.8908 79.6056 34.2639C79.2217 34.5257 78.6665 34.5507 78.2843 34.2889C78.0831 34.1512 77.9288 33.9197 77.8538 33.6679C77.7831 33.6837 77.7124 33.693 77.6435 33.692C77.608 33.7126 77.5724 33.7326 77.5364 33.7514C77.2514 33.9 76.9012 33.8336 76.7707 33.5175C76.652 33.2305 76.7744 32.9046 76.8813 32.6281L76.9034 32.571C76.9641 32.4133 77.031 32.2415 77.1142 32.0798C76.8826 31.9052 76.6847 31.6882 76.5172 31.4415C75.9544 30.6105 75.6733 29.3952 75.7976 28.4037C75.8724 27.8054 76.1528 27.1857 76.6121 26.7823L76.5953 26.7383C76.4666 26.4111 76.3496 26.0826 76.2738 25.7367C76.1849 25.3322 76.1416 24.913 76.1023 24.5012C76.0191 23.6313 76.0416 22.7418 76.1523 21.8753C76.3603 20.2443 76.8877 18.6432 77.8237 17.286C77.5583 16.9676 77.3481 16.593 77.4577 16.162C77.5078 15.9642 77.6218 15.7767 77.7939 15.6634C77.8889 15.6009 78.0019 15.5913 78.0969 15.5395L78.1255 15.5238C78.1672 15.4993 78.1353 15.5019 78.1104 15.3885C78.0121 14.9355 78.0936 14.4978 78.5911 14.3474C79.0594 14.206 79.5024 14.5063 79.7796 14.864C80.5048 14.3485 81.4605 14.0787 82.301 13.8494C83.2567 13.5896 84.2371 13.4274 85.2216 13.3271ZM77.388 28.5215C77.3846 28.1524 77.7337 27.9248 78.0773 27.9852C78.308 28.0254 78.5004 28.1634 78.6811 28.306L78.7692 28.3758C78.9893 28.5489 79.2419 28.7356 79.3731 28.9807C79.5654 29.3424 79.1589 29.8291 78.7795 29.5755C78.5192 29.4007 78.3523 29.1206 78.1815 28.8604L78.1639 28.8336C78.0863 28.7169 78.0183 28.593 77.9119 28.4995L77.889 28.4793C77.854 28.4495 77.8165 28.4222 77.7714 28.4093C77.6844 28.3843 77.5231 28.4194 77.4847 28.5232L77.4813 28.5338C77.4673 28.5863 77.3886 28.575 77.388 28.5215Z" fill="#1A1A1A"/>
<path fill-rule="evenodd" clip-rule="evenodd" d="M89.1147 34.517C89.1147 34.517 89.913 35.1333 91.4016 35.1333C92.8901 35.1333 93.7548 34.582 93.7548 34.582C93.7548 34.582 92.45 33.7894 91.4016 33.7252C90.3531 33.661 89.1147 34.517 89.1147 34.517Z" fill="#E78276"/>
<path fill-rule="evenodd" clip-rule="evenodd" d="M87.34 32.9505C87.3459 32.3298 87.8838 32.2227 88.3948 32.3055C89.2599 32.4454 90.1282 32.5439 91.0049 32.5617L91.156 32.5643C91.1804 32.5288 91.2211 32.5019 91.2763 32.496C91.7623 32.4435 92.2588 32.452 92.7475 32.4376C93.1738 32.4251 93.6119 32.3824 94.0381 32.4159L94.0721 32.4189C94.593 32.4693 95.1428 32.7352 95.0799 33.3466C95.022 33.9127 94.4808 34.4139 94.0487 34.7285C93.9613 34.7915 93.8719 34.8506 93.78 34.9045C93.7511 34.9413 93.7091 34.9669 93.6604 34.9721C93.2349 35.202 92.7653 35.338 92.2792 35.3833C91.2487 35.4792 90.0506 35.3754 89.0608 34.9288C88.739 34.7836 88.4389 34.6023 88.1735 34.3797C87.7643 34.0362 87.3354 33.5154 87.34 32.9505ZM91.4567 34.0687C91.0436 34.0562 90.6311 34.114 90.2377 34.2414C89.971 34.3275 89.728 34.4929 89.4725 34.6079C90.3336 34.9363 91.3339 35.0079 92.2173 34.9482C92.6048 34.9219 92.9806 34.8325 93.3306 34.6789C93.2761 34.6395 93.2209 34.5994 93.1631 34.5645C92.9884 34.4588 92.8058 34.3688 92.6153 34.2972C92.2443 34.158 91.8528 34.0812 91.4567 34.0687ZM91.5389 28.7532C91.4274 28.6732 91.5159 28.4082 91.754 28.4491C93.9172 28.8208 92.7964 32.547 90.0345 30.5022C89.7057 30.237 90.1039 29.6527 90.4583 29.8799L90.5841 29.9769C90.9933 30.2905 91.67 30.7646 92.1548 30.2558C92.6125 29.6148 91.9643 29.0118 91.5389 28.7532ZM93.0033 25.933C93.4632 25.5407 94.0399 25.8298 94.3784 26.2272L94.4381 26.2982C94.5058 26.3793 94.5808 26.4737 94.6259 26.5747C95.0011 26.2553 95.5098 26.0305 95.9966 26.1764C96.4687 26.3184 96.738 26.7691 96.6569 27.253C96.5649 27.8033 96.1486 28.1731 95.7012 28.4591L95.5743 28.5397C95.0367 28.8824 94.5337 29.2276 94.0913 29.6987C94.0191 29.7753 93.8631 29.7651 93.8158 29.6632L93.7777 29.5812L93.7391 29.4992C93.4253 28.83 93.089 28.1651 92.8129 27.4801C92.6084 26.9724 92.542 26.3262 93.0033 25.933ZM87.8315 26.2074C88.1684 25.8153 88.7391 25.5528 89.1893 25.933C89.6687 26.3381 89.5746 27.008 89.3611 27.5246C89.104 28.1477 88.8036 28.757 88.5151 29.3682L88.4535 29.4992C88.4276 29.5539 88.4022 29.6085 88.3769 29.6632C88.3295 29.7652 88.173 29.7753 88.1014 29.6987C87.6727 29.2423 87.1877 28.9047 86.6696 28.5728L86.5133 28.4733C86.0585 28.1849 85.6287 27.8125 85.5352 27.253C85.4552 26.7702 85.7228 26.3167 86.1955 26.1764C86.6833 26.0316 87.1909 26.2547 87.5667 26.5747C87.6115 26.4712 87.6886 26.3737 87.7615 26.2884L87.8315 26.2074ZM88.3779 23.4753C88.5425 23.689 88.3667 24.0381 88.1265 24.0933C87.8289 24.1618 87.5283 24.1201 87.2361 24.205C86.9684 24.2828 86.7119 24.4387 86.4825 24.5941C86.2208 24.7712 85.9798 24.969 85.7583 25.1943C85.6266 25.3283 85.4606 25.6458 85.2575 25.6517C85.0555 25.6576 85.3266 25.026 85.349 24.9714C85.5083 24.5824 85.732 24.2244 86.0118 23.9108C86.564 23.2921 87.7334 22.6392 88.3779 23.4753ZM94.5442 23.3043L94.682 23.3426C95.0231 23.4374 95.3872 23.554 95.6798 23.7584L95.7028 23.7747L95.7382 23.8006C96.1056 24.0745 96.6252 24.6209 96.365 25.0977C96.347 25.1305 96.309 25.1338 96.2783 25.1204C95.9322 24.9688 95.6756 24.666 95.3074 24.5394L95.2395 24.5162C94.8829 24.3961 94.4418 24.2699 94.058 24.2813C93.7881 24.369 93.4237 24.2964 93.3534 23.9679L93.3503 23.9518L93.3442 23.9178C93.3037 23.6933 93.3639 23.4072 93.5959 23.299C93.9139 23.1508 94.2241 23.2168 94.5442 23.3043Z" fill="#1A1A1A"/>
</g>
<rect x="56.5" y="0.5" width="55" height="55" rx="27.5" stroke="#1A1A1A"/>
<defs>
<clipPath id="clip0_41_7069">
<rect width="56" height="56" rx="28" fill="white"/>
</clipPath>
<clipPath id="clip1_41_7069">
<rect x="28" width="56" height="56" rx="28" fill="white"/>
</clipPath>
<clipPath id="clip2_41_7069">
<rect x="56" width="56" height="56" rx="28" fill="white"/>
</clipPath>
</defs>
</svg>
