<svg width="40" height="40" viewBox="0 0 40 40" fill="none" xmlns="http://www.w3.org/2000/svg">
<g opacity="0.4">
<path d="M30.95 36.6666H23.3333C19.5166 36.6666 17.6166 34.7666 17.6166 30.9499V19.0499C17.6166 15.2333 19.5166 13.3333 23.3333 13.3333H30.95C34.7666 13.3333 36.6666 15.2333 36.6666 19.0499V30.9499C36.6666 34.7666 34.7666 36.6666 30.95 36.6666Z" fill="#1A1A1A"/>
<path d="M30.95 36.6666H23.3333C19.5166 36.6666 17.6166 34.7666 17.6166 30.9499V19.0499C17.6166 15.2333 19.5166 13.3333 23.3333 13.3333H30.95C34.7666 13.3333 36.6666 15.2333 36.6666 19.0499V30.9499C36.6666 34.7666 34.7666 36.6666 30.95 36.6666Z" fill="#F2ECE7"/>
</g>
<path d="M22.3833 9.04992V11.2833C18.0166 11.6333 15.5333 14.4333 15.5333 19.0499V26.6666H9.04998C5.23331 26.6666 3.33331 24.7666 3.33331 20.9499V9.04992C3.33331 5.23325 5.23331 3.33325 9.04998 3.33325H16.6666C20.4833 3.33325 22.3833 5.23325 22.3833 9.04992Z" fill="#1A1A1A"/>
<path d="M22.3833 9.04992V11.2833C18.0166 11.6333 15.5333 14.4333 15.5333 19.0499V26.6666H9.04998C5.23331 26.6666 3.33331 24.7666 3.33331 20.9499V9.04992C3.33331 5.23325 5.23331 3.33325 9.04998 3.33325H16.6666C20.4833 3.33325 22.3833 5.23325 22.3833 9.04992Z" fill="#F2ECE7"/>
<path d="M30.2167 23.7501H28.75V22.2834C28.75 21.6001 28.1833 21.0334 27.5 21.0334C26.8167 21.0334 26.25 21.6001 26.25 22.2834V23.7501H24.7833C24.1 23.7501 23.5333 24.3168 23.5333 25.0001C23.5333 25.6834 24.1 26.2501 24.7833 26.2501H26.25V27.7168C26.25 28.4001 26.8167 28.9668 27.5 28.9668C28.1833 28.9668 28.75 28.4001 28.75 27.7168V26.2501H30.2167C30.9 26.2501 31.4667 25.6834 31.4667 25.0001C31.4667 24.3168 30.9 23.7501 30.2167 23.7501Z" fill="#1A1A1A"/>
<path d="M30.2167 23.7501H28.75V22.2834C28.75 21.6001 28.1833 21.0334 27.5 21.0334C26.8167 21.0334 26.25 21.6001 26.25 22.2834V23.7501H24.7833C24.1 23.7501 23.5333 24.3168 23.5333 25.0001C23.5333 25.6834 24.1 26.2501 24.7833 26.2501H26.25V27.7168C26.25 28.4001 26.8167 28.9668 27.5 28.9668C28.1833 28.9668 28.75 28.4001 28.75 27.7168V26.2501H30.2167C30.9 26.2501 31.4667 25.6834 31.4667 25.0001C31.4667 24.3168 30.9 23.7501 30.2167 23.7501Z" fill="#F2ECE7"/>
</svg>
