<svg width="270" height="80" viewBox="0 0 270 80" fill="none" xmlns="http://www.w3.org/2000/svg">
<g clip-path="url(#clip0_41_7042)">
<path d="M260 0H10C4.47715 0 0 4.47715 0 10V70C0 75.5229 4.47715 80 10 80H260C265.523 80 270 75.5229 270 70V10C270 4.47715 265.523 0 260 0Z" fill="black"/>
<path d="M260 1.6C264.64 1.6 268.4 5.36 268.4 10V70C268.4 74.64 264.64 78.4 260 78.4H10C5.36 78.4 1.6 74.64 1.6 70V10C1.6 5.36 5.36 1.6 10 1.6H260ZM260 0H10C4.5 0 0 4.5 0 10V70C0 75.5 4.5 80 10 80H260C265.5 80 270 75.5 270 70V10C270 4.5 265.5 0 260 0Z" fill="#A6A6A6"/>
<path d="M64.2385 38.5351C64.2601 36.8605 64.7057 35.2186 65.5337 33.762C66.3618 32.3055 67.5454 31.0818 68.9745 30.2046C68.0667 28.9102 66.869 27.845 65.4766 27.0935C64.0842 26.342 62.5355 25.925 60.9534 25.8756C57.5786 25.5219 54.3069 27.8916 52.5871 27.8916C50.8341 27.8916 48.1863 25.9107 45.335 25.9693C43.4908 26.0287 41.6934 26.5641 40.118 27.5233C38.5426 28.4824 37.243 29.8326 36.3457 31.4423C32.4589 38.1604 35.3581 48.0338 39.0813 53.4642C40.9442 56.1233 43.1213 59.0936 45.9699 58.9883C48.7575 58.8729 49.7987 57.2137 53.1635 57.2137C56.4972 57.2137 57.474 58.9883 60.3804 58.9213C63.3717 58.8728 65.2563 56.2504 67.0537 53.5661C68.3922 51.6714 69.4221 49.5773 70.1053 47.3614C68.3675 46.6276 66.8845 45.3994 65.8412 43.8298C64.7979 42.2603 64.2405 40.4188 64.2385 38.5351Z" fill="white"/>
<path d="M58.7488 22.3042C60.3797 20.3496 61.1832 17.8373 60.9887 15.3008C58.497 15.562 56.1953 16.7509 54.5423 18.6305C53.7341 19.5488 53.1151 20.617 52.7207 21.7742C52.3264 22.9314 52.1643 24.1549 52.2438 25.3747C53.4901 25.3875 54.7231 25.1178 55.8498 24.5859C56.9766 24.0541 57.9678 23.2739 58.7488 22.3042Z" fill="white"/>
<path d="M99.4755 52.2565H89.9627L87.6782 58.9907H83.6489L92.6593 34.0758H96.8456L105.856 58.9907H101.758L99.4755 52.2565ZM90.9479 49.149H98.4884L94.7712 38.2198H94.6671L90.9479 49.149Z" fill="white"/>
<path d="M125.315 49.9092C125.315 55.554 122.289 59.1807 117.722 59.1807C116.565 59.2411 115.415 58.9751 114.402 58.413C113.39 57.851 112.556 57.0156 111.997 56.0027H111.911V64.9999H108.176V40.8257H111.791V43.847H111.86C112.444 42.8389 113.292 42.0079 114.312 41.4424C115.332 40.8769 116.487 40.5981 117.653 40.6357C122.271 40.6357 125.315 44.28 125.315 49.9092ZM121.477 49.9092C121.477 46.2315 119.573 43.8137 116.668 43.8137C113.814 43.8137 111.895 46.2825 111.895 49.9092C111.895 53.5692 113.814 56.0203 116.668 56.0203C119.573 56.0203 121.477 53.6202 121.477 49.9092Z" fill="white"/>
<path d="M145.342 49.9092C145.342 55.554 142.316 59.1807 137.749 59.1807C136.592 59.2411 135.441 58.9751 134.429 58.413C133.416 57.851 132.583 57.0156 132.024 56.0026H131.938V64.9999H128.203V40.8257H131.818V43.847H131.886C132.471 42.8389 133.319 42.0079 134.339 41.4424C135.359 40.8769 136.514 40.5981 137.68 40.6357C142.298 40.6357 145.342 44.28 145.342 49.9092ZM141.503 49.9092C141.503 46.2315 139.6 43.8137 136.695 43.8137C133.841 43.8137 131.922 46.2825 131.922 49.9092C131.922 53.5692 133.841 56.0203 136.695 56.0203C139.6 56.0203 141.503 53.6201 141.503 49.9092Z" fill="white"/>
<path d="M158.578 52.0488C158.855 54.5195 161.259 56.1417 164.544 56.1417C167.693 56.1417 169.957 54.5194 169.957 52.2917C169.957 50.3578 168.591 49.1999 165.357 48.4063L162.123 47.6285C157.54 46.5234 155.412 44.3838 155.412 40.9119C155.412 36.6131 159.165 33.6604 164.493 33.6604C169.767 33.6604 173.382 36.6131 173.504 40.9119H169.734C169.508 38.4255 167.449 36.9247 164.44 36.9247C161.432 36.9247 159.373 38.4431 159.373 40.6533C159.373 42.4147 160.688 43.4512 163.905 44.2446L166.654 44.9186C171.775 46.1275 173.902 48.181 173.902 51.8253C173.902 56.4865 170.183 59.4059 164.268 59.4059C158.733 59.4059 154.996 56.5551 154.755 52.0486L158.578 52.0488Z" fill="white"/>
<path d="M181.963 36.5271V40.8259H185.423V43.7786H181.963V53.7927C181.963 55.3484 182.655 56.0734 184.176 56.0734C184.587 56.0662 184.997 56.0374 185.405 55.9871V58.9222C184.721 59.0497 184.026 59.1075 183.331 59.0946C179.647 59.0946 178.21 57.7132 178.21 54.1904V43.7786H175.564V40.8259H178.21V36.5271H181.963Z" fill="white"/>
<path d="M187.426 49.9092C187.426 44.1939 190.798 40.6024 196.056 40.6024C201.331 40.6024 204.688 44.1938 204.688 49.9092C204.688 55.6403 201.349 59.216 196.056 59.216C190.765 59.216 187.426 55.6402 187.426 49.9092ZM200.882 49.9092C200.882 45.9886 199.082 43.6746 196.056 43.6746C193.03 43.6746 191.232 46.0062 191.232 49.9092C191.232 53.8455 193.03 56.1418 196.056 56.1418C199.082 56.1418 200.882 53.8455 200.882 49.9092Z" fill="white"/>
<path d="M207.767 40.8258H211.329V43.9176H211.416C211.657 42.952 212.223 42.0986 213.02 41.5009C213.817 40.9033 214.796 40.5978 215.792 40.6357C216.223 40.6342 216.652 40.6809 217.072 40.7748V44.2624C216.529 44.0967 215.962 44.0206 215.394 44.0371C214.851 44.0152 214.31 44.1107 213.808 44.3171C213.306 44.5235 212.855 44.836 212.485 45.233C212.115 45.6301 211.836 46.1023 211.666 46.6172C211.497 47.1322 211.441 47.6777 211.502 48.2164V58.9907H207.767L207.767 40.8258Z" fill="white"/>
<path d="M234.292 53.6555C233.789 56.953 230.573 59.216 226.457 59.216C221.164 59.216 217.878 55.6755 217.878 49.9954C217.878 44.2977 221.181 40.6024 226.3 40.6024C231.334 40.6024 234.5 44.0547 234.5 49.5624V50.8399H221.649V51.0652C221.589 51.7337 221.673 52.4072 221.895 53.0409C222.116 53.6746 222.47 54.254 222.933 54.7406C223.396 55.2272 223.957 55.61 224.58 55.8634C225.202 56.1168 225.872 56.2351 226.543 56.2104C227.426 56.293 228.312 56.0889 229.069 55.6286C229.826 55.1682 230.414 54.4762 230.745 53.6554L234.292 53.6555ZM221.666 48.234H230.763C230.797 47.6329 230.705 47.0314 230.495 46.4672C230.285 45.903 229.96 45.3883 229.541 44.9554C229.121 44.5225 228.617 44.1807 228.06 43.9515C227.502 43.7224 226.903 43.6108 226.3 43.6237C225.692 43.6201 225.089 43.7367 224.526 43.9669C223.963 44.1972 223.452 44.5364 223.021 44.965C222.59 45.3936 222.249 45.9032 222.016 46.4643C221.784 47.0253 221.665 47.6268 221.666 48.234Z" fill="white"/>
<path d="M88.2938 20.3832H89.8972C90.1733 20.4175 90.4534 20.3944 90.72 20.3152C90.9867 20.2361 91.234 20.1027 91.4464 19.9234C91.6588 19.7441 91.8317 19.5228 91.9542 19.2735C92.0767 19.0242 92.1462 18.7522 92.1582 18.4748C92.1582 17.3707 91.326 16.6575 89.9149 16.6575C89.6321 16.6181 89.3443 16.6356 89.0684 16.7091C88.7925 16.7825 88.5341 16.9104 88.3085 17.0852C88.0829 17.26 87.8947 17.4781 87.755 17.7267C87.6153 17.9753 87.5269 18.2493 87.495 18.5326H85.7345C85.7648 18.0184 85.9008 17.5159 86.134 17.0564C86.3673 16.5969 86.6928 16.1903 87.0903 15.8619C87.4878 15.5334 87.9487 15.2902 88.4445 15.1473C88.9402 15.0044 89.4601 14.9649 89.9718 15.0313C92.3328 15.0313 93.9952 16.3509 93.9952 18.2505C94.0008 18.8868 93.7875 19.5058 93.391 20.0042C92.9945 20.5025 92.4388 20.85 91.8167 20.9886V21.1297C92.5543 21.1624 93.2489 21.4852 93.7487 22.0277C94.2485 22.5702 94.5128 23.2881 94.4839 24.0246C94.4293 24.5541 94.2694 25.0673 94.0136 25.5343C93.7577 26.0012 93.4111 26.4125 92.9939 26.744C92.5768 27.0755 92.0976 27.3205 91.5844 27.4647C91.0711 27.6089 90.5343 27.6494 90.0052 27.5837C89.475 27.6559 88.9357 27.6207 88.4194 27.4804C87.9031 27.34 87.4204 27.0973 87.0001 26.7667C86.5798 26.4362 86.2304 26.0245 85.9728 25.5562C85.7153 25.088 85.5548 24.5728 85.501 24.0413H87.2889C87.3969 25.1865 88.4508 25.9252 90.0052 25.9252C91.5596 25.9252 92.5743 25.0955 92.5743 23.9258C92.5743 22.7394 91.6185 22.0085 89.9483 22.0085H88.2938V20.3832Z" fill="white"/>
<path d="M96.5151 24.7388C96.5151 23.1126 97.73 22.175 99.881 22.0418L102.332 21.9007V21.1209C102.332 20.1667 101.702 19.6279 100.48 19.6279C99.4826 19.6279 98.7937 19.9933 98.5936 20.6321H96.8645C97.047 19.0803 98.5111 18.085 100.564 18.085C102.833 18.085 104.112 19.2125 104.112 21.1209V27.2938H102.391V26.0242H102.25C101.963 26.4796 101.56 26.8509 101.083 27.1001C100.605 27.3493 100.07 27.4675 99.5317 27.4426C99.1518 27.4821 98.7678 27.4416 98.4045 27.3239C98.0413 27.2061 97.7067 27.0136 97.4225 26.7589C97.1383 26.5041 96.9107 26.1928 96.7544 25.8448C96.5982 25.4969 96.5166 25.1201 96.5151 24.7388ZM102.332 23.9668V23.2115L100.122 23.3526C98.8761 23.4359 98.3108 23.8591 98.3108 24.6555C98.3108 25.4687 99.0174 25.9418 99.989 25.9418C100.274 25.9706 100.561 25.9419 100.835 25.8575C101.108 25.773 101.361 25.6346 101.58 25.4503C101.799 25.266 101.978 25.0397 102.107 24.7849C102.236 24.53 102.313 24.2518 102.332 23.9668Z" fill="white"/>
<path d="M108.852 19.7601V27.2937H107.066V18.2593H113.025V19.76L108.852 19.7601Z" fill="white"/>
<path d="M123.849 22.7725C123.849 25.6429 122.394 27.4426 120.11 27.4426C119.549 27.4808 118.989 27.3583 118.495 27.0894C118.002 26.8206 117.596 26.4166 117.325 25.9251H117.183V30.2973H115.397V18.2592H117.117V19.7523H117.25C117.526 19.2435 117.938 18.8209 118.439 18.5309C118.941 18.241 119.513 18.0951 120.092 18.1093C122.394 18.1093 123.849 19.9011 123.849 22.7725ZM122.012 22.7725C122.012 20.8641 121.107 19.711 119.594 19.711C118.09 19.711 117.15 20.8886 117.15 22.7803C117.15 24.6633 118.09 25.8418 119.586 25.8418C121.107 25.8418 122.012 24.6887 122.012 22.7725Z" fill="white"/>
<path d="M126.227 30.5296V28.9944C126.42 29.019 126.615 29.0301 126.81 29.0277C127.191 29.0559 127.568 28.9428 127.87 28.7101C128.172 28.4774 128.378 28.1415 128.447 27.7669L128.58 27.327L125.305 18.2593H127.25L129.519 25.4353H129.66L131.921 18.2593H133.815L130.441 27.667C129.668 29.8654 128.812 30.5707 126.967 30.5707C126.818 30.5707 126.394 30.5541 126.227 30.5296Z" fill="white"/>
<path d="M135.206 24.73H136.984C137.159 25.5265 137.907 25.9418 138.953 25.9418C140.142 25.9418 140.872 25.4187 140.872 24.6056C140.872 23.7346 140.217 23.3193 138.953 23.3193H137.598V21.934H138.929C140.009 21.934 140.558 21.5196 140.558 20.7643C140.558 20.1011 140.026 19.5946 138.929 19.5946C137.93 19.5946 137.2 20.0178 137.084 20.731H135.363C135.492 19.9115 135.937 19.1752 136.604 18.6803C137.271 18.1855 138.106 17.9717 138.929 18.085C141.08 18.085 142.311 19.0558 142.311 20.5821C142.321 21.0072 142.184 21.4228 141.924 21.7594C141.664 22.0961 141.296 22.3334 140.882 22.4317V22.5728C141.375 22.6363 141.828 22.8784 142.154 23.2531C142.481 23.6278 142.658 24.1091 142.652 24.6056C142.652 26.323 141.188 27.4594 138.953 27.4594C136.976 27.4593 135.371 26.5551 135.206 24.73Z" fill="white"/>
<path d="M145.225 27.2937V18.2593H146.995V24.4733H147.136L151.307 18.2593H153.077V27.2938H151.307V21.0465H151.173L146.995 27.2938L145.225 27.2937Z" fill="white"/>
<path d="M162.829 19.76H159.98V27.2936H158.192V19.76H155.342V18.2593H162.829V19.76Z" fill="white"/>
<path d="M172.45 24.8544C172.206 25.68 171.68 26.3941 170.963 26.8718C170.246 27.3495 169.384 27.5606 168.527 27.4681C167.93 27.4838 167.338 27.3698 166.79 27.134C166.243 26.8982 165.753 26.5462 165.355 26.1026C164.957 25.6589 164.661 25.1341 164.487 24.5646C164.313 23.9952 164.265 23.3947 164.346 22.8049C164.267 22.2132 164.316 21.6115 164.489 21.0403C164.663 20.4692 164.958 19.942 165.354 19.4944C165.749 19.0468 166.237 18.6894 166.783 18.4462C167.329 18.203 167.921 18.0798 168.519 18.0849C171.037 18.0849 172.558 19.8023 172.558 22.6393V23.2615H166.168V23.3614C166.139 23.693 166.181 24.0268 166.289 24.3415C166.398 24.6561 166.571 24.9446 166.798 25.1883C167.025 25.4321 167.301 25.6257 167.607 25.7568C167.914 25.8879 168.244 25.9536 168.578 25.9496C169.005 26.0005 169.437 25.9236 169.82 25.7286C170.203 25.5336 170.519 25.2292 170.729 24.8543L172.45 24.8544ZM166.167 21.9428H170.736C170.759 21.6397 170.718 21.3353 170.616 21.0491C170.513 20.7628 170.352 20.5011 170.143 20.2807C169.933 20.0603 169.68 19.8861 169.399 19.7693C169.118 19.6525 168.815 19.5956 168.511 19.6024C168.202 19.5982 167.895 19.6559 167.609 19.772C167.323 19.8882 167.063 20.0604 166.844 20.2786C166.626 20.4968 166.453 20.7565 166.337 21.0423C166.221 21.3281 166.163 21.6343 166.167 21.9428Z" fill="white"/>
<path d="M180.021 18.2593H184.102C185.872 18.2593 186.91 19.1547 186.91 20.5565C186.913 21.0014 186.763 21.4336 186.484 21.781C186.206 22.1284 185.817 22.3699 185.381 22.4649V22.606C185.91 22.6393 186.405 22.874 186.766 23.2616C187.126 23.6493 187.323 24.1601 187.317 24.6888C187.317 26.265 186.129 27.2937 184.143 27.2937H180.021V18.2593ZM181.792 19.6279V21.9673H183.562C184.642 21.9673 185.158 21.5529 185.158 20.7887C185.158 20.0844 184.708 19.6278 183.76 19.6278L181.792 19.6279ZM181.792 23.2781V25.9252H183.91C184.965 25.9252 185.531 25.4598 185.531 24.6056C185.531 23.7013 184.891 23.2781 183.686 23.2781L181.792 23.2781Z" fill="white"/>
</g>
<defs>
<clipPath id="clip0_41_7042">
<rect width="270" height="80" fill="white"/>
</clipPath>
</defs>
</svg>
