<svg width="401" height="120" viewBox="0 0 401 120" fill="none" xmlns="http://www.w3.org/2000/svg">
<g clip-path="url(#clip0_41_7105)">
<path d="M385.685 0.741211H15.3148C7.13282 0.741211 0.5 7.37403 0.5 15.556V104.445C0.5 112.627 7.13282 119.26 15.3148 119.26H385.685C393.867 119.26 400.5 112.627 400.5 104.445V15.556C400.5 7.37403 393.867 0.741211 385.685 0.741211Z" fill="#F2ECE7" fill-opacity="0.1"/>
<path d="M385.685 3.11158C392.559 3.11158 398.13 8.68195 398.13 15.556V104.445C398.13 111.319 392.559 116.889 385.685 116.889H15.3148C8.44074 116.889 2.87037 111.319 2.87037 104.445V15.556C2.87037 8.68195 8.44074 3.11158 15.3148 3.11158H385.685ZM385.685 0.741211H15.3148C7.16667 0.741211 0.5 7.40788 0.5 15.556V104.445C0.5 112.593 7.16667 119.26 15.3148 119.26H385.685C393.833 119.26 400.5 112.593 400.5 104.445V15.556C400.5 7.40788 393.833 0.741211 385.685 0.741211Z" fill="#A6A6A6"/>
<path d="M95.6684 57.8307C95.7004 55.3497 96.3605 52.9172 97.5872 50.7594C98.814 48.6016 100.568 46.7886 102.685 45.4892C101.34 43.5715 99.5653 41.9934 97.5026 40.8801C95.4398 39.7668 93.1453 39.149 90.8015 39.0758C85.8018 38.5519 80.9548 42.0625 78.4071 42.0625C75.81 42.0625 71.8873 39.1278 67.6632 39.2145C64.931 39.3027 62.2682 40.0959 59.9343 41.5168C57.6004 42.9378 55.675 44.9381 54.3457 47.3228C48.5875 57.2755 52.8826 71.9027 58.3985 79.9478C61.1582 83.8872 64.3836 88.2877 68.6038 88.1316C72.7336 87.9606 74.276 85.5026 79.261 85.5026C84.1997 85.5026 85.6468 88.1316 89.9527 88.0324C94.3842 87.9606 97.1762 84.0755 99.8391 80.0987C101.822 77.2917 103.348 74.1894 104.36 70.9066C101.785 69.8195 99.5884 67.9999 98.0428 65.6747C96.4971 63.3494 95.6714 60.6213 95.6684 57.8307Z" fill="white"/>
<path d="M87.5353 33.7846C89.9515 30.8889 91.1419 27.1669 90.8537 23.4092C87.1622 23.7962 83.7524 25.5575 81.3035 28.3422C80.1062 29.7025 79.1892 31.2851 78.6049 32.9995C78.0206 34.7139 77.7805 36.5264 77.8983 38.3335C79.7447 38.3524 81.5713 37.9529 83.2406 37.165C84.9099 36.377 86.3783 35.2212 87.5353 33.7846Z" fill="white"/>
<path d="M147.872 78.1579H133.779L130.394 88.1346H124.425L137.774 51.2236H143.975L157.324 88.1346H151.253L147.872 78.1579ZM135.238 73.5542H146.409L140.902 57.3629H140.748L135.238 73.5542Z" fill="white"/>
<path d="M186.153 74.681C186.153 83.0437 181.669 88.4166 174.903 88.4166C173.189 88.5061 171.485 88.112 169.985 87.2793C168.485 86.4466 167.25 85.2091 166.422 83.7084H166.294V97.0376H160.761V61.224H166.117V65.7H166.218C167.085 64.2065 168.34 62.9754 169.852 62.1376C171.363 61.2999 173.074 60.8868 174.802 60.9425C181.643 60.9425 186.153 66.3415 186.153 74.681ZM180.466 74.681C180.466 69.2326 177.645 65.6507 173.342 65.6507C169.114 65.6507 166.271 69.3081 166.271 74.681C166.271 80.1033 169.114 83.7346 173.342 83.7346C177.645 83.7346 180.466 80.1787 180.466 74.681Z" fill="white"/>
<path d="M215.822 74.681C215.822 83.0437 211.339 88.4166 204.573 88.4166C202.859 88.5061 201.154 88.1119 199.654 87.2793C198.154 86.4466 196.92 85.209 196.091 83.7083H195.963V97.0376H190.43V61.224H195.786V65.7H195.888C196.754 64.2065 198.01 62.9753 199.521 62.1376C201.032 61.2999 202.743 60.8868 204.471 60.9425C211.313 60.9425 215.822 66.3415 215.822 74.681ZM210.135 74.681C210.135 69.2326 207.315 65.6506 203.011 65.6506C198.784 65.6506 195.94 69.3081 195.94 74.681C195.94 80.1032 198.784 83.7345 203.011 83.7345C207.315 83.7345 210.135 80.1787 210.135 74.681Z" fill="white"/>
<path d="M235.431 77.8505C235.841 81.5108 239.402 83.9141 244.27 83.9141C248.933 83.9141 252.289 81.5107 252.289 78.2103C252.289 75.3453 250.265 73.6298 245.473 72.4542L240.682 71.3018C233.893 69.6647 230.741 66.4949 230.741 61.3513C230.741 54.9828 236.3 50.6084 244.194 50.6084C252.007 50.6084 257.363 54.9828 257.543 61.3513H251.957C251.623 57.6678 248.573 55.4443 244.116 55.4443C239.658 55.4443 236.608 57.6939 236.608 60.9682C236.608 63.5777 238.556 65.1132 243.322 66.2887L247.395 67.2873C254.981 69.0782 258.133 72.1203 258.133 77.5193C258.133 84.4248 252.623 88.7499 243.86 88.7499C235.66 88.7499 230.124 84.5264 229.767 77.8502L235.431 77.8505Z" fill="white"/>
<path d="M270.074 54.8555V61.224H275.2V65.5984H270.074V80.4341C270.074 82.7389 271.101 83.8129 273.354 83.8129C273.963 83.8023 274.57 83.7596 275.174 83.6851V88.0333C274.161 88.2223 273.131 88.3079 272.101 88.2888C266.643 88.2888 264.515 86.2424 264.515 81.0233V65.5984H260.596V61.224H264.515V54.8555H270.074Z" fill="white"/>
<path d="M278.169 74.6804C278.169 66.2132 283.164 60.8926 290.954 60.8926C298.769 60.8926 303.741 66.2131 303.741 74.6804C303.741 83.1709 298.795 88.4683 290.954 88.4683C283.115 88.4683 278.169 83.1708 278.169 74.6804ZM298.103 74.6804C298.103 68.8721 295.437 65.444 290.954 65.444C286.47 65.444 283.807 68.8982 283.807 74.6804C283.807 80.512 286.47 83.914 290.954 83.914C295.437 83.914 298.103 80.512 298.103 74.6804Z" fill="white"/>
<path d="M308.304 61.2238H313.581V65.8042H313.709C314.066 64.3736 314.906 63.1094 316.086 62.224C317.267 61.3386 318.717 60.8859 320.193 60.9422C320.831 60.94 321.466 61.0091 322.089 61.1483V66.3151C321.284 66.0695 320.444 65.9568 319.603 65.9813C318.799 65.9487 317.997 66.0902 317.254 66.3961C316.51 66.7019 315.841 67.1648 315.293 67.753C314.745 68.3412 314.332 69.0408 314.08 69.8037C313.829 70.5666 313.746 71.3748 313.837 72.1728V88.1348H308.304L308.304 61.2238Z" fill="white"/>
<path d="M347.599 80.2304C346.855 85.1157 342.089 88.4683 335.992 88.4683C328.15 88.4683 323.283 83.2231 323.283 74.8082C323.283 66.3671 328.177 60.8926 335.76 60.8926C343.218 60.8926 347.908 66.0071 347.908 74.1667V76.0592H328.869V76.393C328.781 77.3834 328.905 78.3811 329.233 79.3199C329.561 80.2587 330.085 81.1171 330.771 81.8381C331.457 82.559 332.289 83.126 333.211 83.5014C334.133 83.8769 335.125 84.0521 336.12 84.0155C337.428 84.1378 338.74 83.8355 339.862 83.1535C340.983 82.4715 341.854 81.4463 342.345 80.2304L347.599 80.2304ZM328.895 72.1986H342.371C342.421 71.3081 342.286 70.417 341.974 69.5811C341.663 68.7452 341.181 67.9827 340.56 67.3414C339.94 66.7 339.193 66.1937 338.366 65.8542C337.54 65.5148 336.653 65.3494 335.76 65.3686C334.859 65.3632 333.965 65.536 333.132 65.8771C332.298 66.2181 331.54 66.7207 330.902 67.3557C330.264 67.9907 329.758 68.7455 329.413 69.5768C329.069 70.408 328.893 71.2991 328.895 72.1986Z" fill="white"/>
<path d="M131.305 30.939H133.681C134.09 30.9898 134.505 30.9555 134.9 30.8383C135.295 30.721 135.661 30.5234 135.976 30.2578C136.291 29.9922 136.547 29.6643 136.728 29.295C136.91 28.9256 137.013 28.5228 137.03 28.1117C137.03 26.4761 135.798 25.4195 133.707 25.4195C133.288 25.361 132.862 25.387 132.453 25.4958C132.044 25.6046 131.661 25.7941 131.327 26.053C130.993 26.312 130.714 26.6351 130.507 27.0034C130.3 27.3717 130.169 27.7777 130.122 28.1974H127.514C127.559 27.4356 127.76 26.6911 128.106 26.0104C128.451 25.3297 128.934 24.7273 129.522 24.2407C130.111 23.7541 130.794 23.3938 131.529 23.1821C132.263 22.9704 133.033 22.9119 133.791 23.0102C137.289 23.0102 139.752 24.9652 139.752 27.7794C139.76 28.7221 139.444 29.6392 138.857 30.3775C138.27 31.1157 137.446 31.6305 136.525 31.8359V32.0449C137.617 32.0933 138.646 32.5716 139.387 33.3753C140.127 34.1789 140.519 35.2426 140.476 36.3337C140.395 37.118 140.158 37.8784 139.779 38.5702C139.4 39.262 138.887 39.8713 138.269 40.3624C137.651 40.8535 136.941 41.2165 136.18 41.4301C135.42 41.6437 134.625 41.7037 133.841 41.6064C133.055 41.7133 132.256 41.6613 131.492 41.4533C130.727 41.2454 130.012 40.8858 129.389 40.3961C128.766 39.9063 128.249 39.2964 127.867 38.6027C127.485 37.909 127.248 37.1457 127.168 36.3583H129.817C129.977 38.055 131.538 39.1494 133.841 39.1494C136.144 39.1494 137.647 37.9201 137.647 36.1872C137.647 34.4296 136.231 33.3469 133.757 33.3469H131.305V30.939Z" fill="white"/>
<path d="M143.485 37.3918C143.485 34.9825 145.285 33.5936 148.472 33.3962L152.103 33.1872V32.0319C152.103 30.6183 151.17 29.8201 149.359 29.8201C147.882 29.8201 146.861 30.3614 146.564 31.3077H144.003C144.273 29.0087 146.442 27.5342 149.484 27.5342C152.845 27.5342 154.741 29.2047 154.741 32.0319V41.1769H152.191V39.2959H151.981C151.556 39.9707 150.96 40.5207 150.252 40.8899C149.545 41.2591 148.752 41.4342 147.954 41.3974C147.391 41.4559 146.823 41.3959 146.284 41.2214C145.746 41.047 145.251 40.7618 144.83 40.3844C144.409 40.007 144.071 39.5457 143.84 39.0303C143.608 38.5148 143.488 37.9567 143.485 37.3918ZM152.103 36.2481V35.1291L148.829 35.3381C146.983 35.4614 146.146 36.0884 146.146 37.2684C146.146 38.473 147.192 39.174 148.632 39.174C149.053 39.2166 149.48 39.1741 149.884 39.049C150.289 38.9239 150.665 38.7188 150.989 38.4458C151.313 38.1728 151.578 37.8376 151.77 37.46C151.961 37.0824 152.075 36.6703 152.103 36.2481Z" fill="white"/>
<path d="M161.763 30.0155V41.1764H159.117V27.792H167.944V30.0153L161.763 30.0155Z" fill="white"/>
<path d="M183.979 34.4791C183.979 38.7316 181.825 41.3977 178.44 41.3977C177.609 41.4544 176.78 41.2729 176.049 40.8746C175.318 40.4763 174.716 39.8778 174.314 39.1496H174.105V45.627H171.459V27.7927H174.006V30.0047H174.204C174.613 29.251 175.222 28.6248 175.965 28.1953C176.708 27.7658 177.556 27.5496 178.414 27.5707C181.825 27.5707 183.979 30.2252 183.979 34.4791ZM181.258 34.4791C181.258 31.6519 179.917 29.9436 177.675 29.9436C175.448 29.9436 174.055 31.6881 174.055 34.4907C174.055 37.2802 175.448 39.0262 177.664 39.0262C179.917 39.0262 181.258 37.3179 181.258 34.4791Z" fill="white"/>
<path d="M187.503 45.9702V43.6959C187.79 43.7323 188.078 43.7487 188.367 43.7453C188.931 43.787 189.49 43.6194 189.937 43.2746C190.385 42.9299 190.689 42.4323 190.792 41.8774L190.989 41.2257L186.137 27.792H189.018L192.379 38.4232H192.589L195.938 27.792H198.744L193.746 41.7294C192.6 44.9862 191.333 46.0312 188.6 46.0312C188.379 46.0312 187.751 46.0065 187.503 45.9702Z" fill="white"/>
<path d="M200.805 37.3786H203.439C203.698 38.5586 204.806 39.1739 206.356 39.1739C208.118 39.1739 209.199 38.3989 209.199 37.1943C209.199 35.9041 208.228 35.2887 206.356 35.2887H204.35V33.2365H206.321C207.92 33.2365 208.734 32.6226 208.734 31.5036C208.734 30.521 207.946 29.7707 206.321 29.7707C204.841 29.7707 203.759 30.3977 203.588 31.4543H201.038C201.228 30.2402 201.889 29.1493 202.877 28.4162C203.865 27.6831 205.101 27.3664 206.321 27.5342C209.508 27.5342 211.331 28.9725 211.331 31.2337C211.346 31.8634 211.143 32.4791 210.758 32.9778C210.373 33.4766 209.828 33.8282 209.214 33.9738V34.1828C209.945 34.2769 210.615 34.6356 211.099 35.1907C211.582 35.7458 211.845 36.4588 211.837 37.1944C211.837 39.7387 209.667 41.4222 206.356 41.4222C203.428 41.4221 201.049 40.0825 200.805 37.3786Z" fill="white"/>
<path d="M215.647 41.1764V27.792H218.27V36.998H218.479L224.658 27.792H227.281V41.1764H224.658V31.9212H224.46L218.27 41.1764L215.647 41.1764Z" fill="white"/>
<path d="M241.728 30.0163H237.506V41.1772H234.858V30.0163H230.636V27.793H241.728V30.0163Z" fill="white"/>
<path d="M255.982 37.5633C255.621 38.7865 254.841 39.8443 253.779 40.5521C252.717 41.2599 251.439 41.5725 250.169 41.4355C249.286 41.4588 248.408 41.2899 247.597 40.9405C246.786 40.5912 246.06 40.0698 245.471 39.4125C244.882 38.7551 244.443 37.9777 244.185 37.1341C243.926 36.2904 243.855 35.4008 243.976 34.527C243.859 33.6505 243.931 32.759 244.188 31.9129C244.446 31.0667 244.882 30.2857 245.469 29.6226C246.055 28.9596 246.777 28.43 247.586 28.0697C248.395 27.7094 249.272 27.5269 250.158 27.5344C253.888 27.5344 256.141 30.0788 256.141 34.2817V35.2034H246.674V35.3514C246.632 35.8427 246.694 36.3373 246.855 36.8035C247.016 37.2696 247.273 37.6969 247.609 38.0581C247.945 38.4192 248.354 38.7061 248.807 38.9003C249.261 39.0945 249.751 39.1918 250.245 39.1858C250.877 39.2613 251.518 39.1473 252.085 38.8584C252.653 38.5695 253.121 38.1186 253.432 37.5632L255.982 37.5633ZM246.674 33.2499H253.443C253.477 32.8009 253.416 32.3499 253.264 31.9258C253.113 31.5018 252.874 31.114 252.563 30.7875C252.253 30.461 251.877 30.2029 251.461 30.0299C251.045 29.8568 250.597 29.7726 250.146 29.7826C249.688 29.7764 249.234 29.8618 248.81 30.0339C248.386 30.2059 248 30.4611 247.677 30.7844C247.353 31.1076 247.098 31.4923 246.926 31.9158C246.753 32.3393 246.668 32.7929 246.674 33.2499Z" fill="white"/>
<path d="M267.199 27.792H273.244C275.866 27.792 277.404 29.1185 277.404 31.1954C277.408 31.8544 277.186 32.4948 276.773 33.0094C276.361 33.5241 275.784 33.8817 275.139 34.0226V34.2316C275.922 34.281 276.656 34.6287 277.19 35.2029C277.723 35.7771 278.016 36.534 278.006 37.3172C278.006 39.6524 276.247 41.1763 273.305 41.1763H267.199V27.792ZM269.821 29.8195V33.2853H272.444C274.043 33.2853 274.808 32.6714 274.808 31.5394C274.808 30.4958 274.142 29.8195 272.738 29.8195L269.821 29.8195ZM269.821 35.2273V39.1489H272.959C274.523 39.1489 275.36 38.4595 275.36 37.1939C275.36 35.8543 274.413 35.2273 272.627 35.2273L269.821 35.2273Z" fill="white"/>
</g>
<defs>
<clipPath id="clip0_41_7105">
<rect width="400" height="118.519" fill="white" transform="translate(0.5 0.741211)"/>
</clipPath>
</defs>
</svg>
