<svg width="60" height="61" viewBox="0 0 60 61" fill="none" xmlns="http://www.w3.org/2000/svg">
<path opacity="0.4" d="M51.25 25.975H44.025C38.1 25.975 33.275 21.15 33.275 15.225V8C33.275 6.625 32.15 5.5 30.775 5.5H20.175C12.475 5.5 6.25 10.5 6.25 19.425V41.575C6.25 50.5 12.475 55.5 20.175 55.5H39.825C47.525 55.5 53.75 50.5 53.75 41.575V28.475C53.75 27.1 52.625 25.975 51.25 25.975Z" fill="#1A1A1A"/>
<path d="M39.5 6.02498C38.475 4.99998 36.7 5.69998 36.7 7.12498V15.85C36.7 19.5 39.8 22.525 43.575 22.525C45.95 22.55 49.25 22.55 52.075 22.55C53.5 22.55 54.25 20.875 53.25 19.875C49.65 16.25 43.2 9.72498 39.5 6.02498Z" fill="#1A1A1A"/>
<path d="M28.825 31.675L23.825 26.675C23.8 26.65 23.775 26.65 23.775 26.625C23.625 26.475 23.425 26.35 23.225 26.25C23.2 26.25 23.2 26.25 23.175 26.25C22.975 26.175 22.775 26.15 22.575 26.125C22.5 26.125 22.45 26.125 22.375 26.125C22.225 26.125 22.05 26.175 21.9 26.225C21.825 26.25 21.775 26.275 21.725 26.3C21.525 26.4 21.325 26.5 21.175 26.675L16.175 31.675C15.45 32.4 15.45 33.6 16.175 34.325C16.9 35.05 18.1 35.05 18.825 34.325L20.625 32.525V43C20.625 44.025 21.475 44.875 22.5 44.875C23.525 44.875 24.375 44.025 24.375 43V32.525L26.175 34.325C26.55 34.7 27.025 34.875 27.5 34.875C27.975 34.875 28.45 34.7 28.825 34.325C29.55 33.6 29.55 32.4 28.825 31.675Z" fill="#1A1A1A"/>
</svg>
