<svg width="20" height="20" viewBox="0 0 20 20" fill="none" xmlns="http://www.w3.org/2000/svg">
<path opacity="0.4" d="M17.5666 7.15011V12.8501C17.5666 13.7834 17.0666 14.6501 16.2583 15.1251L11.3083 17.9834C10.5 18.4501 9.49994 18.4501 8.68327 17.9834L3.73327 15.1251C2.92493 14.6584 2.42493 13.7917 2.42493 12.8501V7.15011C2.42493 6.21678 2.92493 5.35008 3.73327 4.87508L8.68327 2.01675C9.4916 1.55008 10.4916 1.55008 11.3083 2.01675L16.2583 4.87508C17.0666 5.35008 17.5666 6.20844 17.5666 7.15011Z" fill="#FF4D4F"/>
<path d="M10 11.4583C9.65833 11.4583 9.375 11.1749 9.375 10.8333V6.45825C9.375 6.11659 9.65833 5.83325 10 5.83325C10.3417 5.83325 10.625 6.11659 10.625 6.45825V10.8333C10.625 11.1749 10.3417 11.4583 10 11.4583Z" fill="#FF4D4F"/>
<path d="M9.99996 14.375C9.89163 14.375 9.78329 14.3499 9.68329 14.3083C9.57496 14.2666 9.49161 14.2083 9.40827 14.1333C9.33327 14.05 9.27497 13.9583 9.22497 13.8583C9.1833 13.7583 9.16663 13.65 9.16663 13.5416C9.16663 13.325 9.24994 13.1083 9.40827 12.9499C9.49161 12.8749 9.57496 12.8166 9.68329 12.775C9.99162 12.6416 10.3583 12.7166 10.5916 12.9499C10.6666 13.0333 10.7249 13.1166 10.7666 13.225C10.8083 13.325 10.8333 13.4333 10.8333 13.5416C10.8333 13.65 10.8083 13.7583 10.7666 13.8583C10.7249 13.9583 10.6666 14.05 10.5916 14.1333C10.4333 14.2916 10.225 14.375 9.99996 14.375Z" fill="#FF4D4F"/>
</svg>
