<svg width="319" height="415" viewBox="0 0 319 415" fill="none" xmlns="http://www.w3.org/2000/svg">
<path fill-rule="evenodd" clip-rule="evenodd" d="M16 69.835C7.16346 69.835 0 76.9984 0 85.835V405C0 413.837 7.16345 421 16 421H304C312.837 421 320 413.837 320 405V16C320 7.16344 312.837 0 304 0H176.988C169.331 0 162.748 5.42381 161.283 12.9385L152.714 56.8965C151.249 64.4112 144.666 69.835 137.009 69.835H16Z" fill="#1A1A1A"/>
<path fill-rule="evenodd" clip-rule="evenodd" d="M16 69.835C7.16346 69.835 0 76.9984 0 85.835V405C0 413.837 7.16345 421 16 421H304C312.837 421 320 413.837 320 405V16C320 7.16344 312.837 0 304 0H176.988C169.331 0 162.748 5.42381 161.283 12.9385L152.714 56.8965C151.249 64.4112 144.666 69.835 137.009 69.835H16Z" fill="#F2ECE7" fill-opacity="0.1"/>
</svg>
