<svg width="80" height="80" viewBox="0 0 80 80" fill="none" xmlns="http://www.w3.org/2000/svg">
<path d="M55.305 25.1C55.32 25.1 55.34 25.1 55.36 25.1C55.8825 25.1 56.3675 25.2625 56.765 25.5425L56.7575 25.5375C57.0475 25.79 57.2425 26.145 57.29 26.545V26.5525C57.34 26.8575 57.3675 27.2075 57.3675 27.565C57.3675 27.7275 57.3625 27.8875 57.35 28.0475V28.025C56.7875 33.9475 54.3475 48.31 53.1075 54.94C52.5825 57.7475 51.55 58.6875 50.55 58.7775C48.3775 58.98 46.7275 57.3425 44.6225 55.9625C41.3275 53.8 39.465 52.455 36.2675 50.3475C32.57 47.915 34.9675 46.5725 37.0725 44.3875C37.625 43.8125 47.2025 35.1 47.39 34.31C47.4 34.2625 47.405 34.21 47.405 34.155C47.405 33.96 47.3325 33.7825 47.215 33.6475C47.085 33.5625 46.9225 33.515 46.7525 33.515C46.64 33.515 46.5325 33.5375 46.4325 33.575L46.4375 33.5725C46.1075 33.6475 40.8441 37.1258 30.6475 44.0075C29.535 44.885 28.13 45.44 26.6 45.505H26.585C24.4175 45.2425 22.45 44.76 20.5825 44.0725L20.7675 44.1325C18.4225 43.3675 16.56 42.965 16.72 41.67C16.805 40.9967 17.7333 40.3075 19.505 39.6025C30.4183 34.8475 37.6958 31.7133 41.3375 30.2C45.355 28.0675 50.0125 26.3125 54.91 25.175L55.3025 25.0975L55.305 25.1ZM39.825 2.5625C19.07 2.6125 2.26245 19.45 2.26245 40.2125C2.26245 61.005 19.1175 77.8625 39.9125 77.8625C60.7075 77.8625 77.5625 61.0075 77.5625 40.2125C77.5625 19.45 60.755 2.6125 40.005 2.5625H40C39.9416 2.5625 39.8833 2.5625 39.825 2.5625Z" fill="#1A1A1A"/>
<path d="M55.305 25.1C55.32 25.1 55.34 25.1 55.36 25.1C55.8825 25.1 56.3675 25.2625 56.765 25.5425L56.7575 25.5375C57.0475 25.79 57.2425 26.145 57.29 26.545V26.5525C57.34 26.8575 57.3675 27.2075 57.3675 27.565C57.3675 27.7275 57.3625 27.8875 57.35 28.0475V28.025C56.7875 33.9475 54.3475 48.31 53.1075 54.94C52.5825 57.7475 51.55 58.6875 50.55 58.7775C48.3775 58.98 46.7275 57.3425 44.6225 55.9625C41.3275 53.8 39.465 52.455 36.2675 50.3475C32.57 47.915 34.9675 46.5725 37.0725 44.3875C37.625 43.8125 47.2025 35.1 47.39 34.31C47.4 34.2625 47.405 34.21 47.405 34.155C47.405 33.96 47.3325 33.7825 47.215 33.6475C47.085 33.5625 46.9225 33.515 46.7525 33.515C46.64 33.515 46.5325 33.5375 46.4325 33.575L46.4375 33.5725C46.1075 33.6475 40.8441 37.1258 30.6475 44.0075C29.535 44.885 28.13 45.44 26.6 45.505H26.585C24.4175 45.2425 22.45 44.76 20.5825 44.0725L20.7675 44.1325C18.4225 43.3675 16.56 42.965 16.72 41.67C16.805 40.9967 17.7333 40.3075 19.505 39.6025C30.4183 34.8475 37.6958 31.7133 41.3375 30.2C45.355 28.0675 50.0125 26.3125 54.91 25.175L55.3025 25.0975L55.305 25.1ZM39.825 2.5625C19.07 2.6125 2.26245 19.45 2.26245 40.2125C2.26245 61.005 19.1175 77.8625 39.9125 77.8625C60.7075 77.8625 77.5625 61.0075 77.5625 40.2125C77.5625 19.45 60.755 2.6125 40.005 2.5625H40C39.9416 2.5625 39.8833 2.5625 39.825 2.5625Z" fill="#F2ECE7"/>
</svg>
