<svg width="80" height="80" viewBox="0 0 80 80" fill="none" xmlns="http://www.w3.org/2000/svg">
<path d="M46.4121 39.3321L37.4281 35.1401C36.6441 34.7761 36.0001 35.1841 36.0001 36.0521V43.9481C36.0001 44.8161 36.6441 45.2241 37.4281 44.8601L46.4081 40.6681C47.1961 40.3001 47.1961 39.7001 46.4121 39.3321ZM40.0001 1.6001C18.7921 1.6001 1.6001 18.7921 1.6001 40.0001C1.6001 61.2081 18.7921 78.4001 40.0001 78.4001C61.2081 78.4001 78.4001 61.2081 78.4001 40.0001C78.4001 18.7921 61.2081 1.6001 40.0001 1.6001ZM40.0001 55.6001C20.3441 55.6001 20.0001 53.8281 20.0001 40.0001C20.0001 26.1721 20.3441 24.4001 40.0001 24.4001C59.6561 24.4001 60.0001 26.1721 60.0001 40.0001C60.0001 53.8281 59.6561 55.6001 40.0001 55.6001Z" fill="#1A1A1A"/>
<path d="M46.4121 39.3321L37.4281 35.1401C36.6441 34.7761 36.0001 35.1841 36.0001 36.0521V43.9481C36.0001 44.8161 36.6441 45.2241 37.4281 44.8601L46.4081 40.6681C47.1961 40.3001 47.1961 39.7001 46.4121 39.3321ZM40.0001 1.6001C18.7921 1.6001 1.6001 18.7921 1.6001 40.0001C1.6001 61.2081 18.7921 78.4001 40.0001 78.4001C61.2081 78.4001 78.4001 61.2081 78.4001 40.0001C78.4001 18.7921 61.2081 1.6001 40.0001 1.6001ZM40.0001 55.6001C20.3441 55.6001 20.0001 53.8281 20.0001 40.0001C20.0001 26.1721 20.3441 24.4001 40.0001 24.4001C59.6561 24.4001 60.0001 26.1721 60.0001 40.0001C60.0001 53.8281 59.6561 55.6001 40.0001 55.6001Z" fill="#F2ECE7"/>
</svg>
