<svg width="400" height="120" viewBox="0 0 400 120" fill="none" xmlns="http://www.w3.org/2000/svg">
<g clip-path="url(#clip0_41_7553)">
<path d="M385.185 0.740723H14.8148C6.63282 0.740723 0 7.37354 0 15.5555V104.444C0 112.626 6.63282 119.259 14.8148 119.259H385.185C393.367 119.259 400 112.626 400 104.444V15.5555C400 7.37354 393.367 0.740723 385.185 0.740723Z" fill="#1A1A1A"/>
<path d="M385.185 0.740723H14.8148C6.63282 0.740723 0 7.37354 0 15.5555V104.444C0 112.626 6.63282 119.259 14.8148 119.259H385.185C393.367 119.259 400 112.626 400 104.444V15.5555C400 7.37354 393.367 0.740723 385.185 0.740723Z" fill="#F2ECE7" fill-opacity="0.1"/>
<path d="M385.185 3.11109C392.059 3.11109 397.63 8.68146 397.63 15.5555V104.444C397.63 111.318 392.059 116.889 385.185 116.889H14.8148C7.94074 116.889 2.37037 111.318 2.37037 104.444V15.5555C2.37037 8.68146 7.94074 3.11109 14.8148 3.11109H385.185ZM385.185 0.740723H14.8148C6.66667 0.740723 0 7.40739 0 15.5555V104.444C0 112.593 6.66667 119.259 14.8148 119.259H385.185C393.333 119.259 400 112.593 400 104.444V15.5555C400 7.40739 393.333 0.740723 385.185 0.740723Z" fill="#A6A6A6"/>
<path d="M171.252 81.8213C176.618 80.4382 180.154 76.2998 180.154 70.8897C180.154 64.197 174.833 59.4897 167.37 59.4897H154.074V95.5084H160.209V82.2675H164.559L174.074 95.5084H181.281L171.252 81.8103V81.8213ZM167.37 65.1117C171.208 65.1117 173.863 67.4652 173.863 70.8897C173.863 74.3143 171.208 76.6678 167.37 76.6678H160.209V65.1229H167.37V65.1117Z" fill="white"/>
<path d="M195.095 96.0199C198.319 96.0199 201.287 94.3354 202.971 91.5245L204.142 95.5067H208.537V68.936H202.658V84.3186C202.658 88.0999 200.149 90.7547 196.724 90.7547C193.3 90.7547 191.002 88.0999 191.002 84.3186V68.936H185.123V84.9766C185.123 91.3683 189.418 96.0199 195.095 96.0199Z" fill="white"/>
<path d="M227.305 96.0189C234.109 96.0189 239.731 92.1371 239.731 85.7007C239.731 78.4947 233.853 76.3979 228.789 74.6577C224.851 73.3303 221.426 72.103 221.426 68.8793C221.426 66.0684 224.036 64.5848 227.104 64.5848C230.328 64.5848 232.626 66.2693 233.908 69.1359L239.743 68.1656C237.902 62.5436 233.25 58.9629 226.903 58.9629C220.557 58.9629 215.146 62.7442 215.146 69.1807C215.146 76.4423 221.025 78.4278 226.089 80.1122C229.971 81.3839 233.451 82.6109 233.451 85.8903C233.451 88.7573 230.841 90.3857 227.361 90.3857C223.367 90.3857 221.226 88.5007 219.329 85.0761L213.395 86.1024C215.135 92.1816 220.657 96.0189 227.305 96.0189Z" fill="white"/>
<path d="M255.727 90.3995C253.73 90.3995 252.76 89.4291 252.76 87.4323V74.0466H260.691V68.9378H252.76V61.2744H248.365L246.881 68.9378H242.531V74.0466H246.881V87.4323C246.881 92.6415 249.893 95.5085 255.727 95.5085H260.691L261.204 90.3995H255.727Z" fill="white"/>
<path d="M278.002 96.0211C286.335 96.0211 292.213 90.2987 292.213 82.2225C292.213 74.1467 286.335 68.4243 278.002 68.4243C269.67 68.4243 263.791 74.1467 263.791 82.2225C263.791 90.2987 269.67 96.0211 278.002 96.0211ZM278.002 90.6557C273.195 90.6557 269.926 87.2311 269.926 82.2225C269.926 77.2142 273.195 73.7897 278.002 73.7897C282.81 73.7897 286.078 77.2142 286.078 82.2225C286.078 87.2311 282.81 90.6557 278.002 90.6557Z" fill="white"/>
<path d="M303.212 95.5067V79.8231C303.212 76.4546 304.852 74.5583 308.433 74.5583H311.812L311.299 68.936H310.173C307.049 68.936 304.651 69.8063 302.855 72.7734L301.729 68.936H297.334V95.5067H303.212Z" fill="white"/>
<path d="M340.741 81.919C340.741 74.2559 335.019 68.4331 326.931 68.4331C318.844 68.4331 313.121 74.2112 313.121 82.2316C313.121 90.2518 318.844 96.0298 326.931 96.0298C332.453 96.0298 337.674 93.4198 339.659 88.3664L334.136 87.4408C332.853 89.3371 330.4 90.6645 327.288 90.6645C322.793 90.6645 319.825 87.9093 319.257 83.8153H340.628C340.684 83.2577 340.729 82.6441 340.729 81.919M326.92 73.5418C330.601 73.5418 333.369 75.8956 334.338 79.2085H319.614C320.584 75.7839 323.351 73.5418 326.931 73.5418" fill="white"/>
<path d="M64.261 90.5607C69.2628 95.5559 77.3031 95.5559 93.3953 95.5559H96.2344C112.327 95.5559 120.367 95.5559 125.369 90.5607C130.37 85.5654 130.37 77.5174 130.37 61.4214V58.5793C130.37 42.4833 130.37 34.4353 125.369 29.4401C120.367 24.4448 112.315 24.4448 96.2344 24.4448H93.3953C77.3031 24.4448 69.2516 24.4448 64.261 29.4401C59.2593 34.4466 59.2593 42.4946 59.2593 58.5793V61.4214C59.2593 77.5174 59.2593 85.5654 64.261 90.5607Z" fill="#0077FF"/>
<path fill-rule="evenodd" clip-rule="evenodd" d="M114.158 71.712L109.356 70.5132C108.779 70.3467 108.369 69.8249 108.347 69.2255L107.748 51.5419C107.57 49.1997 105.84 47.3348 104.021 46.7908C103.922 46.7576 103.811 46.7908 103.755 46.8907C103.689 46.9795 103.722 47.1016 103.8 47.1683C104.243 47.5123 105.485 48.6447 105.485 50.5985V73.7212C105.485 75.9523 103.367 77.5952 101.194 77.0512L96.3135 75.8302C95.7701 75.6415 95.3932 75.1419 95.382 74.5538L94.7831 56.8702C94.6057 54.528 92.8756 52.6631 91.0569 52.1191C90.9571 52.0859 90.8463 52.1191 90.7906 52.2189C90.7242 52.3078 90.7574 52.4299 90.835 52.4966C91.2786 52.8406 92.5206 53.973 92.5206 55.9268V75.1976V79.0495C92.5206 81.2806 90.4137 82.9235 88.24 82.3795L74.4658 78.9384C72.547 78.461 71.2051 76.7404 71.2051 74.7757V51.6195C71.2051 49.3884 73.3123 47.7455 75.486 48.2895L84.1698 50.4542V46.2803C84.1698 44.0489 86.2768 42.4059 88.4507 42.9499L97.1343 45.1147V40.9407C97.1343 38.7096 99.2415 37.0667 101.415 37.6107L115.189 41.0518C117.108 41.5292 118.45 43.2498 118.45 45.2145V68.3707C118.45 70.6018 116.343 72.2447 114.169 71.7007" fill="white"/>
<path d="M162.457 42.4776C160.773 42.4776 159.259 42.0865 157.916 41.304C156.572 40.5046 155.518 39.3991 154.752 37.9875C154.004 36.5757 153.63 34.9855 153.63 33.2166C153.63 31.4477 154.004 29.8659 154.752 28.4712C155.518 27.0595 156.564 25.9624 157.89 25.18C159.234 24.3807 160.748 23.981 162.431 23.981C164.251 23.981 165.867 24.4402 167.279 25.3586C168.708 26.2601 169.728 27.4847 170.34 29.0325L167.738 29.4407C167.262 28.4882 166.556 27.7483 165.62 27.2211C164.702 26.6768 163.665 26.4047 162.508 26.4047C161.317 26.4047 160.254 26.6938 159.319 27.2721C158.4 27.8504 157.678 28.6583 157.15 29.6958C156.64 30.7164 156.385 31.8898 156.385 33.2166C156.385 34.5603 156.64 35.7508 157.15 36.7884C157.678 37.8089 158.409 38.6083 159.344 39.1866C160.28 39.7647 161.351 40.0539 162.559 40.0539C163.75 40.0539 164.804 39.7819 165.723 39.2376C166.658 38.6764 167.372 37.8939 167.866 36.8904L170.468 37.2986C169.822 38.8803 168.776 40.1389 167.33 41.0744C165.884 42.0101 164.26 42.4776 162.457 42.4776Z" fill="white"/>
<path d="M184.054 42.2222H180.763L175.89 36.7627H175.099V42.2222H172.599V29.0322H175.099V34.3645H175.864L180.533 29.0322H183.544L177.88 35.4104L184.054 42.2222Z" fill="white"/>
<path d="M190.255 28.7773C191.887 28.7773 193.172 29.3131 194.107 30.3846C195.06 31.4391 195.536 32.9188 195.536 34.824V42.2225H193.75L193.163 40.1561C192.738 40.8192 192.168 41.3721 191.454 41.8145C190.74 42.2566 189.881 42.4776 188.877 42.4776C187.993 42.4776 187.202 42.2992 186.504 41.9419C185.807 41.5849 185.263 41.0915 184.871 40.4622C184.48 39.816 184.285 39.093 184.285 38.2936C184.285 37.0518 184.778 36.0569 185.764 35.3087C186.751 34.5603 188.18 34.1861 190.051 34.1861H193.036C192.967 33.1484 192.679 32.349 192.168 31.7878C191.658 31.2095 190.978 30.9203 190.127 30.9203C189.481 30.9203 188.911 31.0735 188.418 31.3795C187.924 31.6859 187.55 32.0856 187.295 32.5786L184.974 32.1961C185.314 31.1416 185.969 30.3081 186.938 29.6958C187.908 29.0835 189.013 28.7773 190.255 28.7773ZM189.413 40.3603C190.485 40.3603 191.352 40.0115 192.015 39.3141C192.695 38.5997 193.036 37.6219 193.036 36.3801V36.2269H190.127C187.916 36.2269 186.81 36.8904 186.81 38.2172C186.81 38.8634 187.049 39.3822 187.525 39.7733C188.001 40.1644 188.631 40.3603 189.413 40.3603Z" fill="white"/>
<path d="M205.589 37.4258C205.181 37.6131 204.696 37.7576 204.134 37.8596C203.573 37.9618 203.02 38.0128 202.476 38.0128C200.894 38.0128 199.678 37.5704 198.828 36.6859C197.977 35.8015 197.552 34.5514 197.552 32.9357V29.0322H200.052V32.9357C200.052 34.8237 200.963 35.7677 202.782 35.7677C203.888 35.7677 204.823 35.5719 205.589 35.1808V29.0322H208.089V42.2222H205.589V37.4258Z" fill="white"/>
<path d="M216.478 28.7773C218.111 28.7773 219.395 29.3131 220.33 30.3846C221.283 31.4391 221.759 32.9188 221.759 34.824V42.2225H219.973L219.386 40.1561C218.961 40.8192 218.391 41.3721 217.677 41.8145C216.963 42.2566 216.104 42.4776 215.1 42.4776C214.216 42.4776 213.425 42.2992 212.728 41.9419C212.03 41.5849 211.486 41.0915 211.095 40.4622C210.704 39.816 210.508 39.093 210.508 38.2936C210.508 37.0518 211.001 36.0569 211.988 35.3087C212.974 34.5603 214.403 34.1861 216.274 34.1861H219.259C219.191 33.1484 218.902 32.349 218.391 31.7878C217.881 31.2095 217.201 30.9203 216.351 30.9203C215.704 30.9203 215.134 31.0735 214.641 31.3795C214.148 31.6859 213.774 32.0856 213.519 32.5786L211.197 32.1961C211.537 31.1416 212.192 30.3081 213.162 29.6958C214.131 29.0835 215.236 28.7773 216.478 28.7773ZM215.636 40.3603C216.708 40.3603 217.575 40.0115 218.239 39.3141C218.919 38.5997 219.259 37.6219 219.259 36.3801V36.2269H216.351C214.139 36.2269 213.034 36.8904 213.034 38.2172C213.034 38.8634 213.272 39.3822 213.748 39.7733C214.224 40.1644 214.854 40.3603 215.636 40.3603Z" fill="white"/>
<path d="M228.495 42.2224H224.796V29.0324H227.22V39.4162H227.603L232.935 29.0324H236.634V42.2224H234.21V31.8642H233.828L228.495 42.2224ZM230.741 27.323C229.635 27.323 228.708 27.0339 227.96 26.4556C227.228 25.8603 226.795 24.9758 226.659 23.8022H228.7C228.785 24.3465 228.997 24.7632 229.337 25.0524C229.695 25.3245 230.162 25.4606 230.741 25.4606C231.319 25.4606 231.778 25.3245 232.118 25.0524C232.476 24.7632 232.688 24.3465 232.756 23.8022H234.823C234.67 24.9758 234.219 25.8603 233.471 26.4556C232.739 27.0339 231.829 27.323 230.741 27.323Z" fill="white"/>
<path d="M245.58 42.2222H243.08V31.3283H238.513V29.0322H250.147V31.3283H245.58V42.2222Z" fill="white"/>
<path d="M264.324 35.5383C264.324 35.8785 264.316 36.1419 264.298 36.3292H253.405C253.541 37.5028 254 38.4382 254.782 39.1354C255.565 39.8329 256.56 40.1816 257.767 40.1816C258.601 40.1816 259.341 40.0198 259.987 39.6969C260.65 39.3567 261.152 38.9143 261.492 38.3701L263.839 38.7529C263.329 39.9434 262.504 40.8619 261.365 41.5081C260.242 42.1546 258.992 42.4776 257.614 42.4776C256.305 42.4776 255.131 42.1884 254.093 41.6104C253.056 41.0151 252.248 40.1985 251.67 39.1612C251.091 38.1235 250.802 36.9499 250.802 35.6403C250.802 34.3138 251.091 33.1315 251.67 32.0939C252.248 31.0566 253.047 30.2486 254.068 29.6703C255.088 29.075 256.253 28.7773 257.563 28.7773C258.856 28.7773 260.013 29.075 261.033 29.6703C262.07 30.2486 262.878 31.0566 263.457 32.0939C264.035 33.1146 264.324 34.2625 264.324 35.5383ZM257.563 30.997C256.56 30.997 255.692 31.2945 254.961 31.8898C254.247 32.4853 253.77 33.2847 253.532 34.288H261.594C261.373 33.3016 260.897 32.5108 260.165 31.9155C259.451 31.3031 258.584 30.997 257.563 30.997Z" fill="white"/>
<path d="M275.561 42.2222H271.861V29.0322H274.285V39.416H274.668L280 29.0322H283.699V42.2222H281.275V31.864H280.893L275.561 42.2222Z" fill="white"/>
<path d="M294.074 35.4871C294.771 35.6912 295.35 36.0655 295.809 36.6098C296.268 37.1372 296.498 37.792 296.498 38.5742C296.498 39.3055 296.285 39.9689 295.86 40.5641C295.435 41.1425 294.823 41.6104 294.023 41.9674C293.241 42.3075 292.331 42.4776 291.293 42.4776C289.898 42.4776 288.699 42.1546 287.696 41.5081C286.692 40.845 286.029 39.9606 285.706 38.8548L288.028 38.4723C288.589 39.6969 289.669 40.309 291.268 40.309C292.152 40.309 292.824 40.1475 293.283 39.8243C293.759 39.4841 293.997 39.0166 293.997 38.421C293.997 37.8939 293.776 37.4687 293.334 37.1455C292.909 36.8225 292.22 36.6607 291.268 36.6607H289.533V34.4666H291.268C292.084 34.4666 292.705 34.3138 293.13 34.0074C293.572 33.7013 293.793 33.293 293.793 32.7828C293.793 32.2385 293.555 31.7964 293.079 31.4563C292.62 31.1161 292.05 30.9461 291.37 30.9461C290.706 30.9461 290.111 31.1075 289.584 31.4308C289.057 31.7538 288.657 32.1961 288.385 32.7573L286.063 32.349C286.454 31.2095 287.126 30.3336 288.079 29.7213C289.048 29.092 290.171 28.7773 291.446 28.7773C292.365 28.7773 293.19 28.9389 293.921 29.2621C294.669 29.5853 295.248 30.036 295.656 30.6142C296.081 31.1926 296.294 31.8388 296.294 32.5532C296.294 33.2847 296.089 33.9055 295.681 34.4157C295.273 34.9259 294.738 35.2832 294.074 35.4871Z" fill="white"/>
</g>
<defs>
<clipPath id="clip0_41_7553">
<rect width="400" height="118.519" fill="white" transform="translate(0 0.740723)"/>
</clipPath>
</defs>
</svg>
