<svg width="1440" height="664" viewBox="0 0 1440 664" fill="none" xmlns="http://www.w3.org/2000/svg">
<path fill-rule="evenodd" clip-rule="evenodd" d="M1440 100C1440 44.7715 1395.23 0 1340 0H880.33C837.164 0 798.87 27.6981 785.357 68.6944L771.311 111.306C757.797 152.302 719.504 180 676.337 180H99.9999C44.7715 180 0 224.772 0 280V564C0 619.228 44.7715 664 100 664H1340C1395.23 664 1440 619.228 1440 564V100Z" fill="#1A1A1A"/>
<path fill-rule="evenodd" clip-rule="evenodd" d="M1440 100C1440 44.7715 1395.23 0 1340 0H880.33C837.164 0 798.87 27.6981 785.357 68.6944L771.311 111.306C757.797 152.302 719.504 180 676.337 180H99.9999C44.7715 180 0 224.772 0 280V564C0 619.228 44.7715 664 100 664H1340C1395.23 664 1440 619.228 1440 564V100Z" fill="#F2ECE7" fill-opacity="0.1"/>
</svg>
