<svg width="401" height="118" viewBox="0 0 401 118" fill="none" xmlns="http://www.w3.org/2000/svg">
<g clip-path="url(#clip0_41_7551)">
<path d="M386.148 0H14.8519C6.6494 0 0 6.6038 0 14.75V103.25C0 111.396 6.6494 118 14.8519 118H386.148C394.351 118 401 111.396 401 103.25V14.75C401 6.6038 394.351 0 386.148 0Z" fill="#1A1A1A"/>
<path d="M386.148 0H14.8519C6.6494 0 0 6.6038 0 14.75V103.25C0 111.396 6.6494 118 14.8519 118H386.148C394.351 118 401 111.396 401 103.25V14.75C401 6.6038 394.351 0 386.148 0Z" fill="#F2ECE7" fill-opacity="0.1"/>
<path d="M201.658 64.1624C194.678 64.1624 188.975 69.4429 188.975 76.6999C188.975 83.9569 194.678 89.2374 201.658 89.2374C208.639 89.2374 214.342 83.9274 214.342 76.6999C214.342 69.4724 208.639 64.1624 201.658 64.1624ZM201.658 84.3109C197.827 84.3109 194.53 81.1839 194.53 76.6999C194.53 72.2159 197.827 69.0889 201.658 69.0889C205.49 69.0889 208.787 72.1864 208.787 76.6999C208.787 81.2134 205.49 84.3109 201.658 84.3109ZM173.975 64.1624C166.994 64.1624 161.291 69.4429 161.291 76.6999C161.291 83.9569 166.994 89.2374 173.975 89.2374C180.955 89.2374 186.658 83.9274 186.658 76.6999C186.658 69.4724 180.955 64.1624 173.975 64.1624ZM173.975 84.3109C170.143 84.3109 166.846 81.1839 166.846 76.6999C166.846 72.2159 170.143 69.0889 173.975 69.0889C177.806 69.0889 181.103 72.1864 181.103 76.6999C181.103 81.2134 177.806 84.3109 173.975 84.3109ZM141.063 68.0269V73.3369H153.895C153.509 76.3459 152.499 78.5289 150.984 80.0334C149.113 81.8919 146.202 83.9274 141.093 83.9274C133.191 83.9274 127.013 77.6144 127.013 69.7674C127.013 61.9204 133.191 55.6074 141.093 55.6074C145.34 55.6074 148.459 57.2594 150.746 59.4129L154.519 55.6664C151.311 52.6279 147.063 50.2974 141.063 50.2974C130.251 50.2974 121.161 59.0294 121.161 69.7969C121.161 80.5644 130.251 89.2964 141.063 89.2964C146.914 89.2964 151.311 87.4084 154.756 83.8389C158.291 80.3284 159.39 75.3724 159.39 71.3899C159.39 70.1509 159.301 69.0004 159.093 68.0564H141.063V68.0269ZM275.65 72.1569C274.611 69.3544 271.403 64.1624 264.838 64.1624C258.274 64.1624 252.927 69.2364 252.927 76.6999C252.927 83.7209 258.274 89.2374 265.462 89.2374C271.254 89.2374 274.611 85.7269 275.977 83.6914L271.67 80.8299C270.244 82.9244 268.284 84.3109 265.462 84.3109C262.64 84.3109 260.62 83.0129 259.343 80.5054L276.244 73.5729L275.68 72.1569H275.65ZM258.422 76.3459C258.274 71.5079 262.195 69.0299 265.016 69.0299C267.214 69.0299 269.086 70.1214 269.71 71.6849L258.422 76.3459ZM244.699 88.4999H250.254V51.6249H244.699V88.4999ZM235.61 66.9649H235.432C234.184 65.4899 231.808 64.1624 228.778 64.1624C222.451 64.1624 216.659 69.6789 216.659 76.7589C216.659 83.8389 222.451 89.2669 228.778 89.2669C231.808 89.2669 234.184 87.9394 235.432 86.4054H235.61V88.2049C235.61 93.0134 233.026 95.5799 228.867 95.5799C225.481 95.5799 223.372 93.1609 222.51 91.1254L217.669 93.1314C219.065 96.4649 222.748 100.536 228.867 100.536C235.372 100.536 240.867 96.7304 240.867 87.4674V64.9294H235.61V66.9649ZM229.223 84.3109C225.392 84.3109 222.184 81.1249 222.184 76.7589C222.184 72.3929 225.392 69.1184 229.223 69.1184C233.055 69.1184 235.966 72.3634 235.966 76.7589C235.966 81.1544 232.996 84.3109 229.223 84.3109ZM301.671 51.6249H288.393V88.4999H293.948V74.5169H301.7C307.849 74.5169 313.879 70.0919 313.879 63.0709C313.879 56.0499 307.849 51.6249 301.7 51.6249H301.671ZM301.79 69.3839H293.918V56.7284H301.79C305.948 56.7284 308.295 60.1504 308.295 63.0414C308.295 65.9324 305.948 69.3544 301.79 69.3544V69.3839ZM336.068 64.1034C332.058 64.1034 327.899 65.8734 326.176 69.7379L331.107 71.7734C332.147 69.7379 334.107 69.0594 336.157 69.0594C339.008 69.0594 341.949 70.7704 341.979 73.8089V74.1924C340.969 73.6319 338.83 72.7764 336.186 72.7764C330.87 72.7764 325.493 75.6674 325.493 81.0659C325.493 85.9924 329.83 89.1784 334.701 89.1784C338.414 89.1784 340.494 87.5264 341.771 85.5794H341.949V88.4409H347.296V74.3104C347.296 67.7614 342.365 64.1034 336.008 64.1034H336.068ZM335.384 84.3109C333.573 84.3109 331.048 83.3964 331.048 81.1839C331.048 78.3519 334.196 77.2604 336.929 77.2604C339.365 77.2604 340.523 77.7914 341.979 78.4994C341.563 81.9214 338.592 84.3404 335.384 84.3404V84.3109ZM366.811 64.8999L360.454 80.8889H360.276L353.682 64.8999H347.712L357.603 87.2609L351.959 99.6804H357.751L372.989 64.8999H366.841H366.811ZM316.909 88.4999H322.463V51.6249H316.909V88.4999Z" fill="white"/>
<path d="M60.8034 57.2888L29.1689 90.6238C30.1492 94.2523 33.476 96.9073 37.4266 96.9073C39.0009 96.9073 40.4861 96.4943 41.7633 95.7273L41.8524 95.6683L77.4375 75.2838L60.7737 57.2593L60.8034 57.2888Z" fill="#EA4335"/>
<path d="M92.7941 51.6251H92.7644L77.4076 42.7456L60.0903 58.0561L77.467 75.3136L92.7644 66.5521C95.4377 65.1066 97.2497 62.3041 97.2497 59.0886C97.2497 55.8731 95.4674 53.0706 92.7941 51.6546V51.6251Z" fill="#FBBC04"/>
<path d="M29.1689 27.376C28.9906 28.084 28.8718 28.792 28.8718 29.559V88.4705C28.8718 89.2375 28.9609 89.9455 29.1689 90.6535L61.8726 58.174L29.1689 27.376Z" fill="#4285F4"/>
<path d="M61.041 59L77.4078 42.7455L41.8524 22.2725C40.5752 21.5055 39.0603 21.063 37.4266 21.063C33.476 21.063 30.1492 23.7475 29.1689 27.3465L61.041 58.9705V59Z" fill="#34A853"/>
<path d="M124.34 42.0966H122.142V36.1671H123.894C125.439 34.8396 126.181 32.5976 126.152 29.3821V20.6206H138.063V36.1376H140.053V42.0671H137.855V38.3206H124.34V42.0671V42.0966ZM128.468 29.4116C128.498 32.2141 127.934 34.4561 126.775 36.1966H135.776V22.8331H128.468V29.4116Z" fill="white" stroke="white" stroke-width="0.2" stroke-miterlimit="10"/>
<path d="M157.905 36.0491C156.152 37.8486 153.984 38.7336 151.37 38.7336C148.756 38.7336 146.588 37.8486 144.835 36.0491C143.083 34.2496 142.221 32.0666 142.221 29.5001C142.221 26.9336 143.083 24.7211 144.835 22.9511C146.588 21.1516 148.756 20.2666 151.37 20.2666C153.984 20.2666 156.123 21.1516 157.905 22.9511C159.657 24.7506 160.548 26.9336 160.548 29.5001C160.548 32.0666 159.687 34.2791 157.934 36.0491H157.905ZM146.528 34.5741C147.835 35.9016 149.469 36.5506 151.37 36.5506C153.271 36.5506 154.905 35.9016 156.212 34.5741C157.519 33.2466 158.202 31.5651 158.202 29.5001C158.202 27.4351 157.548 25.7536 156.212 24.4261C154.905 23.0986 153.271 22.4496 151.37 22.4496C149.469 22.4496 147.835 23.0986 146.528 24.4261C145.221 25.7536 144.538 27.4351 144.538 29.5001C144.538 31.5651 145.192 33.2466 146.528 34.5741Z" fill="white" stroke="white" stroke-width="0.2" stroke-miterlimit="10"/>
<path d="M172.073 38.7335C169.46 38.7335 167.261 37.8485 165.479 36.0785C163.697 34.3085 162.806 32.1255 162.806 29.4705C162.806 26.8155 163.697 24.6325 165.479 22.8625C167.261 21.0925 169.46 20.2075 172.073 20.2075C174.687 20.2075 176.945 21.181 178.608 23.0985L177.004 24.6325C175.786 23.128 174.153 22.3905 172.044 22.3905C170.113 22.3905 168.45 23.0395 167.113 24.3375C165.776 25.6355 165.123 27.3465 165.123 29.441C165.123 31.5355 165.776 33.2465 167.113 34.5445C168.45 35.8425 170.083 36.4915 172.044 36.4915C174.182 36.4915 176.024 35.636 177.509 33.925L179.113 35.518C178.311 36.4915 177.272 37.2585 176.054 37.819C174.836 38.3795 173.499 38.6745 172.044 38.6745L172.073 38.7335Z" fill="white" stroke="white" stroke-width="0.2" stroke-miterlimit="10"/>
<path d="M188.41 38.3499H186.123V22.8329H181.133V20.6499H193.371V22.8329H188.381V38.3499H188.41Z" fill="white" stroke="white" stroke-width="0.2" stroke-miterlimit="10"/>
<path d="M209.114 20.6499L202.371 35.5769C201.451 37.6714 200.054 38.7334 198.213 38.7334C197.678 38.7334 197.084 38.6154 196.431 38.3499L197.025 36.2554C197.411 36.4619 197.797 36.5799 198.213 36.5799C198.747 36.5799 199.163 36.4914 199.431 36.2849C199.698 36.0784 199.995 35.6949 200.233 35.1639L200.886 33.7479L194.886 20.6794H197.589L201.985 30.8274H202.074L206.381 20.6794H209.084L209.114 20.6499Z" fill="white" stroke="white" stroke-width="0.2" stroke-miterlimit="10"/>
<path d="M211.698 38.3499V20.6499H224.59V38.3499H222.302V22.8329H213.985V38.3499H211.698Z" fill="white" stroke="white" stroke-width="0.2" stroke-miterlimit="10"/>
<path d="M228.659 38.3499V20.6499H230.946V28.2314H239.857V20.6499H242.145V38.3499H239.857V30.3554H230.946V38.3499H228.659Z" fill="white" stroke="white" stroke-width="0.2" stroke-miterlimit="10"/>
<path d="M260.828 36.0491C259.076 37.8486 256.907 38.7336 254.293 38.7336C251.679 38.7336 249.511 37.8486 247.758 36.0491C246.006 34.2496 245.145 32.0666 245.145 29.5001C245.145 26.9336 246.006 24.7211 247.758 22.9511C249.511 21.1516 251.679 20.2666 254.293 20.2666C256.907 20.2666 259.046 21.1516 260.828 22.9511C262.581 24.7506 263.472 26.9336 263.472 29.5001C263.472 32.0666 262.61 34.2791 260.858 36.0491H260.828ZM249.452 34.5741C250.759 35.9016 252.392 36.5506 254.293 36.5506C256.194 36.5506 257.828 35.9016 259.135 34.5741C260.442 33.2466 261.125 31.5651 261.125 29.5001C261.125 27.4351 260.472 25.7536 259.135 24.4261C257.828 23.0986 256.194 22.4496 254.293 22.4496C252.392 22.4496 250.759 23.0986 249.452 24.4261C248.145 25.7536 247.461 27.4351 247.461 29.5001C247.461 31.5651 248.115 33.2466 249.452 34.5741Z" fill="white" stroke="white" stroke-width="0.2" stroke-miterlimit="10"/>
<path d="M272.799 38.3499V20.6499H279.245C280.641 20.6499 281.858 21.1219 282.868 22.0069C283.878 22.9214 284.413 24.0719 284.413 25.4584C284.413 26.3139 284.205 27.0514 283.759 27.6709C283.314 28.3199 282.75 28.7919 282.007 29.1164V29.2049C282.898 29.4999 283.611 30.0014 284.175 30.7389C284.74 31.4764 285.037 32.3024 285.037 33.2759C285.037 34.7214 284.502 35.9309 283.433 36.8749C282.363 37.8189 281.086 38.3204 279.631 38.3204H272.829L272.799 38.3499ZM275.086 28.2314H279.245C280.106 28.2314 280.789 27.9364 281.324 27.3759C281.858 26.8154 282.096 26.1959 282.096 25.5174C282.096 24.8389 281.858 24.2194 281.324 23.6589C280.819 23.0984 280.165 22.8034 279.334 22.8034H275.086V28.2314ZM275.086 36.1669H279.69C280.581 36.1669 281.294 35.8719 281.829 35.2524C282.363 34.6329 282.66 33.9839 282.66 33.2464C282.66 32.5089 282.393 31.8599 281.799 31.2699C281.235 30.6799 280.492 30.3554 279.571 30.3554H275.056V36.1669H275.086Z" fill="white" stroke="white" stroke-width="0.2" stroke-miterlimit="10"/>
<path d="M386.148 2.36C393.039 2.36 398.624 7.906 398.624 14.75V103.25C398.624 110.094 393.039 115.64 386.148 115.64H14.8519C7.96059 115.64 2.3763 110.094 2.3763 103.25V14.75C2.3763 7.906 7.96059 2.36 14.8519 2.36H386.148ZM386.148 0H14.8519C6.68333 0 0 6.6375 0 14.75V103.25C0 111.363 6.68333 118 14.8519 118H386.148C394.317 118 401 111.363 401 103.25V14.75C401 6.6375 394.317 0 386.148 0Z" fill="#A6A6A6"/>
</g>
<defs>
<clipPath id="clip0_41_7551">
<rect width="401" height="118" fill="white"/>
</clipPath>
</defs>
</svg>
