<svg width="401" height="120" viewBox="0 0 401 120" fill="none" xmlns="http://www.w3.org/2000/svg">
<g clip-path="url(#clip0_41_7552)">
<path d="M385.685 0.740723H15.3148C7.13282 0.740723 0.5 7.37354 0.5 15.5555V104.444C0.5 112.626 7.13282 119.259 15.3148 119.259H385.685C393.867 119.259 400.5 112.626 400.5 104.444V15.5555C400.5 7.37354 393.867 0.740723 385.685 0.740723Z" fill="#1A1A1A"/>
<path d="M385.685 0.740723H15.3148C7.13282 0.740723 0.5 7.37354 0.5 15.5555V104.444C0.5 112.626 7.13282 119.259 15.3148 119.259H385.685C393.867 119.259 400.5 112.626 400.5 104.444V15.5555C400.5 7.37354 393.867 0.740723 385.685 0.740723Z" fill="#F2ECE7" fill-opacity="0.1"/>
<path d="M385.685 3.11109C392.559 3.11109 398.13 8.68146 398.13 15.5555V104.444C398.13 111.318 392.559 116.889 385.685 116.889H15.3148C8.44074 116.889 2.87037 111.318 2.87037 104.444V15.5555C2.87037 8.68146 8.44074 3.11109 15.3148 3.11109H385.685ZM385.685 0.740723H15.3148C7.16667 0.740723 0.5 7.40739 0.5 15.5555V104.444C0.5 112.593 7.16667 119.259 15.3148 119.259H385.685C393.833 119.259 400.5 112.593 400.5 104.444V15.5555C400.5 7.40739 393.833 0.740723 385.685 0.740723Z" fill="#A6A6A6"/>
<path d="M95.6681 57.8302C95.7001 55.3493 96.3602 52.9167 97.587 50.7589C98.8137 48.6011 100.567 46.7881 102.684 45.4887C101.339 43.5711 99.5651 41.9929 97.5023 40.8796C95.4395 39.7663 93.1451 39.1485 90.8013 39.0753C85.8016 38.5514 80.9546 42.062 78.4068 42.062C75.8098 42.062 71.8871 39.1273 67.663 39.2141C64.9307 39.3022 62.2679 40.0954 59.9341 41.5163C57.6002 42.9373 55.6748 44.9376 54.3455 47.3223C48.5872 57.2751 52.8824 71.9022 58.3983 79.9473C61.158 83.8867 64.3833 88.2872 68.6036 88.1311C72.7334 87.9601 74.2758 85.5021 79.2608 85.5021C84.1995 85.5021 85.6466 88.1311 89.9525 88.0319C94.3839 87.9601 97.176 84.075 99.8389 80.0982C101.822 77.2912 103.348 74.1889 104.36 70.9061C101.785 69.8191 99.5881 67.9994 98.0425 65.6742C96.4969 63.3489 95.6711 60.6208 95.6681 57.8302Z" fill="white"/>
<path d="M87.535 33.7841C89.9512 30.8884 91.1415 27.1665 90.8533 23.4087C87.1619 23.7958 83.752 25.5571 81.3032 28.3417C80.1058 29.702 79.1888 31.2846 78.6045 32.999C78.0202 34.7134 77.7801 36.5259 77.8979 38.333C79.7443 38.352 81.5709 37.9524 83.2402 37.1645C84.9095 36.3765 86.378 35.2207 87.535 33.7841Z" fill="white"/>
<path d="M147.871 78.1574H133.778L130.394 88.1341H124.425L137.773 51.2231H143.975L157.324 88.1341H151.253L147.871 78.1574ZM135.238 73.5537H146.409L140.902 57.3624H140.748L135.238 73.5537Z" fill="white"/>
<path d="M186.153 74.68C186.153 83.0427 181.669 88.4156 174.903 88.4156C173.189 88.5051 171.485 88.111 169.985 87.2783C168.485 86.4456 167.25 85.2081 166.422 83.7074H166.294V97.0366H160.761V61.2231H166.117V65.699H166.218C167.085 64.2055 168.34 62.9744 169.852 62.1366C171.363 61.2989 173.074 60.8859 174.802 60.9415C181.643 60.9415 186.153 66.3405 186.153 74.68ZM180.466 74.68C180.466 69.2317 177.645 65.6497 173.342 65.6497C169.114 65.6497 166.271 69.3071 166.271 74.68C166.271 80.1023 169.114 83.7336 173.342 83.7336C177.645 83.7336 180.466 80.1778 180.466 74.68Z" fill="white"/>
<path d="M215.822 74.6805C215.822 83.0432 211.338 88.4161 204.572 88.4161C202.858 88.5056 201.154 88.1114 199.654 87.2788C198.154 86.4461 196.919 85.2086 196.091 83.7079H195.963V97.0371H190.43V61.2235H195.786V65.6995H195.887C196.754 64.206 198.009 62.9749 199.521 62.1371C201.032 61.2994 202.743 60.8863 204.471 60.942C211.312 60.942 215.822 66.341 215.822 74.6805ZM210.135 74.6805C210.135 69.2321 207.314 65.6502 203.011 65.6502C198.783 65.6502 195.94 69.3076 195.94 74.6805C195.94 80.1028 198.783 83.734 203.011 83.734C207.314 83.734 210.135 80.1782 210.135 74.6805Z" fill="white"/>
<path d="M235.43 77.85C235.84 81.5103 239.402 83.9136 244.269 83.9136C248.933 83.9136 252.289 81.5102 252.289 78.2098C252.289 75.3448 250.265 73.6293 245.473 72.4537L240.682 71.3013C233.892 69.6642 230.74 66.4944 230.74 61.3508C230.74 54.9823 236.3 50.6079 244.194 50.6079C252.006 50.6079 257.362 54.9823 257.543 61.3508H251.957C251.623 57.6673 248.573 55.4438 244.115 55.4438C239.658 55.4438 236.608 57.6934 236.608 60.9677C236.608 63.5772 238.556 65.1128 243.322 66.2882L247.395 67.2868C254.981 69.0778 258.133 72.1199 258.133 77.5188C258.133 84.4244 252.623 88.7494 243.859 88.7494C235.66 88.7494 230.124 84.5259 229.766 77.8497L235.43 77.85Z" fill="white"/>
<path d="M270.074 54.855V61.2235H275.2V65.5979H270.074V80.4336C270.074 82.7384 271.101 83.8124 273.354 83.8124C273.963 83.8018 274.57 83.7591 275.174 83.6846V88.0328C274.161 88.2218 273.131 88.3074 272.101 88.2883C266.643 88.2883 264.515 86.2419 264.515 81.0228V65.5979H260.596V61.2235H264.515V54.855H270.074Z" fill="white"/>
<path d="M278.169 74.6804C278.169 66.2132 283.164 60.8926 290.954 60.8926C298.769 60.8926 303.741 66.2131 303.741 74.6804C303.741 83.1709 298.795 88.4683 290.954 88.4683C283.115 88.4683 278.169 83.1708 278.169 74.6804ZM298.103 74.6804C298.103 68.8721 295.437 65.444 290.954 65.444C286.47 65.444 283.807 68.8982 283.807 74.6804C283.807 80.512 286.47 83.914 290.954 83.914C295.437 83.914 298.103 80.512 298.103 74.6804Z" fill="white"/>
<path d="M308.303 61.2233H313.581V65.8037H313.709C314.066 64.3732 314.905 63.1089 316.086 62.2235C317.267 61.3381 318.717 60.8854 320.192 60.9417C320.83 60.9395 321.466 61.0086 322.088 61.1478V66.3146C321.283 66.069 320.443 65.9563 319.602 65.9808C318.798 65.9483 317.997 66.0897 317.253 66.3956C316.509 66.7014 315.84 67.1643 315.293 67.7525C314.745 68.3407 314.331 69.0403 314.08 69.8032C313.828 70.5661 313.745 71.3743 313.836 72.1723V88.1343H308.303L308.303 61.2233Z" fill="white"/>
<path d="M347.599 80.2304C346.855 85.1157 342.089 88.4683 335.992 88.4683C328.15 88.4683 323.283 83.2231 323.283 74.8082C323.283 66.3671 328.177 60.8926 335.76 60.8926C343.218 60.8926 347.908 66.0071 347.908 74.1667V76.0592H328.869V76.393C328.781 77.3834 328.905 78.3811 329.233 79.3199C329.561 80.2587 330.085 81.1171 330.771 81.8381C331.457 82.559 332.289 83.126 333.211 83.5014C334.133 83.8769 335.125 84.0521 336.12 84.0155C337.428 84.1378 338.74 83.8355 339.862 83.1535C340.983 82.4715 341.854 81.4463 342.345 80.2304L347.599 80.2304ZM328.895 72.1986H342.371C342.421 71.3081 342.286 70.417 341.974 69.5811C341.663 68.7452 341.181 67.9827 340.56 67.3414C339.94 66.7 339.193 66.1937 338.366 65.8542C337.54 65.5148 336.653 65.3494 335.76 65.3686C334.859 65.3632 333.965 65.536 333.132 65.8771C332.298 66.2181 331.54 66.7207 330.902 67.3557C330.264 67.9907 329.758 68.7455 329.413 69.5768C329.069 70.408 328.893 71.2991 328.895 72.1986Z" fill="white"/>
<path d="M131.305 30.938H133.681C134.09 30.9888 134.505 30.9546 134.9 30.8373C135.295 30.7201 135.661 30.5224 135.976 30.2568C136.291 29.9912 136.547 29.6634 136.728 29.294C136.91 28.9247 137.013 28.5218 137.03 28.1108C137.03 26.4751 135.798 25.4185 133.707 25.4185C133.288 25.3601 132.862 25.386 132.453 25.4948C132.044 25.6036 131.661 25.7931 131.327 26.0521C130.993 26.311 130.714 26.6342 130.507 27.0025C130.3 27.3708 130.169 27.7767 130.122 28.1964H127.514C127.559 27.4346 127.76 26.6901 128.106 26.0094C128.451 25.3287 128.934 24.7263 129.522 24.2397C130.111 23.7532 130.794 23.3928 131.529 23.1811C132.263 22.9694 133.033 22.9109 133.791 23.0093C137.289 23.0093 139.752 24.9642 139.752 27.7784C139.76 28.7212 139.444 29.6382 138.857 30.3765C138.269 31.1147 137.446 31.6295 136.524 31.8349V32.0439C137.617 32.0923 138.646 32.5706 139.387 33.3743C140.127 34.1779 140.519 35.2416 140.476 36.3327C140.395 37.1171 140.158 37.8774 139.779 38.5692C139.4 39.261 138.886 39.8703 138.269 40.3614C137.651 40.8525 136.941 41.2155 136.18 41.4291C135.42 41.6427 134.625 41.7027 133.841 41.6055C133.055 41.7124 132.256 41.6603 131.491 41.4523C130.727 41.2444 130.011 40.8848 129.389 40.3951C128.766 39.9053 128.248 39.2954 127.867 38.6018C127.485 37.9081 127.248 37.1448 127.168 36.3574H129.817C129.977 38.054 131.538 39.1484 133.841 39.1484C136.144 39.1484 137.647 37.9191 137.647 36.1862C137.647 34.4286 136.231 33.3459 133.756 33.3459H131.305V30.938Z" fill="white"/>
<path d="M143.485 37.3908C143.485 34.9815 145.285 33.5926 148.472 33.3952L152.103 33.1862V32.0309C152.103 30.6173 151.17 29.8191 149.359 29.8191C147.882 29.8191 146.861 30.3604 146.564 31.3067H144.003C144.273 29.0078 146.442 27.5332 149.484 27.5332C152.845 27.5332 154.741 29.2037 154.741 32.0309V41.1759H152.191V39.295H151.981C151.556 39.9697 150.96 40.5197 150.252 40.8889C149.545 41.2581 148.752 41.4333 147.954 41.3964C147.391 41.4549 146.823 41.3949 146.284 41.2205C145.746 41.046 145.251 40.7609 144.83 40.3835C144.409 40.0061 144.071 39.5448 143.84 39.0293C143.608 38.5139 143.488 37.9557 143.485 37.3908ZM152.103 36.2471V35.1281L148.829 35.3371C146.983 35.4605 146.146 36.0875 146.146 37.2674C146.146 38.472 147.192 39.173 148.632 39.173C149.053 39.2157 149.48 39.1732 149.884 39.0481C150.289 38.923 150.665 38.7178 150.989 38.4448C151.313 38.1718 151.578 37.8366 151.77 37.459C151.961 37.0815 152.075 36.6693 152.103 36.2471Z" fill="white"/>
<path d="M161.762 30.015V41.1759H159.116V27.7915H167.944V30.0148L161.762 30.015Z" fill="white"/>
<path d="M183.979 34.4776C183.979 38.7301 181.825 41.3963 178.44 41.3963C177.609 41.4529 176.78 41.2714 176.049 40.8731C175.318 40.4748 174.716 39.8763 174.314 39.1481H174.105V45.6255H171.459V27.7913H174.006V30.0032H174.204C174.613 29.2495 175.222 28.6234 175.965 28.1939C176.708 27.7643 177.556 27.5482 178.414 27.5693C181.825 27.5692 183.979 30.2237 183.979 34.4776ZM181.258 34.4776C181.258 31.6504 179.917 29.9422 177.675 29.9422C175.448 29.9422 174.055 31.6867 174.055 34.4893C174.055 37.2788 175.448 39.0247 177.664 39.0247C179.917 39.0247 181.258 37.3165 181.258 34.4776Z" fill="white"/>
<path d="M187.503 45.9697V43.6955C187.79 43.7318 188.078 43.7483 188.367 43.7448C188.93 43.7865 189.49 43.6189 189.937 43.2741C190.385 42.9294 190.689 42.4318 190.792 41.8769L190.989 41.2252L186.137 27.7915H189.018L192.379 38.4227H192.589L195.938 27.7915H198.744L193.746 41.7289C192.6 44.9857 191.333 46.0307 188.599 46.0307C188.378 46.0307 187.75 46.006 187.503 45.9697Z" fill="white"/>
<path d="M200.805 37.3776H203.44C203.698 38.5577 204.806 39.1729 206.356 39.1729C208.118 39.1729 209.2 38.3979 209.2 37.1933C209.2 35.9031 208.228 35.2877 206.356 35.2877H204.35V33.2355H206.321C207.92 33.2355 208.734 32.6216 208.734 31.5026C208.734 30.52 207.946 29.7697 206.321 29.7697C204.841 29.7697 203.759 30.3967 203.588 31.4533H201.038C201.229 30.2392 201.889 29.1483 202.877 28.4152C203.865 27.6821 205.102 27.3654 206.321 27.5332C209.508 27.5332 211.331 28.9715 211.331 31.2327C211.346 31.8624 211.144 32.4781 210.758 32.9768C210.373 33.4756 209.828 33.8272 209.214 33.9729V34.1819C209.945 34.276 210.616 34.6346 211.099 35.1897C211.582 35.7449 211.845 36.4579 211.837 37.1934C211.837 39.7378 209.668 41.4212 206.356 41.4212C203.428 41.4211 201.05 40.0815 200.805 37.3776Z" fill="white"/>
<path d="M215.647 41.1759V27.7915H218.27V36.9975H218.479L224.658 27.7915H227.28V41.1759H224.658V31.9207H224.46L218.27 41.1759L215.647 41.1759Z" fill="white"/>
<path d="M241.728 30.0148H237.506V41.1757H234.857V30.0148H230.635V27.7915H241.728V30.0148Z" fill="white"/>
<path d="M255.981 37.5618C255.621 38.785 254.841 39.8429 253.779 40.5506C252.717 41.2584 251.439 41.5711 250.169 41.434C249.286 41.4573 248.408 41.2884 247.597 40.9391C246.785 40.5897 246.06 40.0683 245.471 39.411C244.881 38.7537 244.442 37.9762 244.184 37.1326C243.926 36.289 243.855 35.3994 243.976 34.5256C243.858 33.6491 243.931 32.7575 244.188 31.9114C244.446 31.0652 244.882 30.2842 245.468 29.6211C246.055 28.9581 246.777 28.4285 247.586 28.0682C248.395 27.7079 249.272 27.5254 250.157 27.5329C253.888 27.5329 256.141 30.0773 256.141 34.2802V35.202H246.674V35.35C246.632 35.8413 246.694 36.3359 246.855 36.802C247.016 37.2681 247.272 37.6955 247.609 38.0566C247.945 38.4177 248.353 38.7046 248.807 38.8988C249.261 39.093 249.751 39.1903 250.245 39.1843C250.877 39.2598 251.518 39.1459 252.085 38.857C252.653 38.568 253.121 38.1172 253.431 37.5617L255.981 37.5618ZM246.674 33.2484H253.443C253.476 32.7994 253.415 32.3484 253.264 31.9244C253.112 31.5003 252.874 31.1126 252.563 30.7861C252.253 30.4596 251.877 30.2015 251.461 30.0284C251.045 29.8553 250.597 29.7711 250.146 29.7811C249.688 29.7749 249.234 29.8604 248.81 30.0324C248.385 30.2045 248 30.4597 247.677 30.7829C247.353 31.1061 247.097 31.4909 246.925 31.9143C246.753 32.3378 246.668 32.7914 246.674 33.2484Z" fill="white"/>
<path d="M267.198 27.7915H273.243C275.866 27.7915 277.404 29.118 277.404 31.1949C277.408 31.8539 277.185 32.4943 276.773 33.0089C276.361 33.5236 275.784 33.8813 275.139 34.0221V34.2311C275.922 34.2805 276.656 34.6282 277.19 35.2024C277.723 35.7766 278.015 36.5335 278.006 37.3167C278.006 39.6519 276.247 41.1758 273.304 41.1758H267.198V27.7915ZM269.821 29.819V33.2848H272.444C274.043 33.2848 274.808 32.6709 274.808 31.5389C274.808 30.4954 274.142 29.819 272.737 29.819L269.821 29.819ZM269.821 35.2268V39.1484H272.959C274.523 39.1484 275.36 38.459 275.36 37.1934C275.36 35.8538 274.412 35.2268 272.627 35.2268L269.821 35.2268Z" fill="white"/>
</g>
<defs>
<clipPath id="clip0_41_7552">
<rect width="400" height="118.519" fill="white" transform="translate(0.5 0.740723)"/>
</clipPath>
</defs>
</svg>
