<svg width="258" height="99" viewBox="0 0 258 99" fill="none" xmlns="http://www.w3.org/2000/svg">
<rect y="35.2108" width="253" height="64" rx="32" transform="rotate(-8 0 35.2108)" fill="#DDFF53"/>
<rect x="12.9967" y="41.4629" width="229" height="48" rx="24" transform="rotate(-8 12.9967 41.4629)" stroke="#1A1A1A" stroke-opacity="0.8" stroke-width="4" stroke-linecap="round" stroke-dasharray="40 40"/>
<path d="M28.1032 74.6838L24.9501 52.2483L40.731 50.0304L41.35 54.4351L30.9879 55.8914L31.5846 60.1377L35.0704 59.6478C37.5844 59.2945 39.7017 59.5678 41.4223 60.4678C43.1611 61.3436 44.1968 62.9646 44.5294 65.3307C44.853 67.6334 44.2937 69.4785 42.8514 70.8661C41.4273 72.2296 39.49 73.0835 37.0394 73.4279L28.1032 74.6838ZM32.9163 69.6126L35.8316 69.2029C38.2399 68.8644 39.3209 67.8185 39.0745 66.065C38.828 64.3116 37.5007 63.6041 35.0923 63.9426L32.177 64.3523L32.9163 69.6126ZM50.0748 71.5959L46.9217 49.1604L62.0054 47.0405L62.6512 51.6353L52.796 53.0204L53.3884 57.235L62.7048 55.9256L63.3149 60.267L53.9985 61.5763L54.6532 66.2345L65.0787 64.7693L65.7289 69.3959L50.0748 71.5959ZM81.4256 67.8038C77.9399 68.2937 74.9018 67.6004 72.3115 65.724C69.7181 63.8265 68.1765 61.1348 67.6866 57.6491C67.1908 54.1211 67.9428 51.1179 69.9427 48.6394C71.9607 46.1369 74.7126 44.6406 78.1983 44.1508C79.825 43.9221 81.4404 43.9967 83.0446 44.3745C84.667 44.7281 86.0051 45.3587 87.059 46.2662L83.8997 50.4587C83.3188 49.8509 82.5927 49.436 81.7213 49.2137C80.868 48.9674 79.9872 48.9081 79.0788 49.0358C77.1986 49.3 75.7379 50.1731 74.6967 51.6551C73.6736 53.113 73.3016 54.8349 73.5807 56.8207C73.8657 58.8488 74.6903 60.424 76.0545 61.5464C77.4157 62.6477 79.0363 63.0662 80.9165 62.802C83.008 62.508 84.4855 61.5248 85.3492 59.8524L89.6189 62.8715C87.8326 65.6431 85.1015 67.2872 81.4256 67.8038ZM93.368 65.5114L90.2149 43.0759L109.672 40.3414L112.825 62.777L107.406 63.5385L104.899 45.6978L96.2795 46.9092L98.7868 64.7499L93.368 65.5114ZM119.479 62.0679C118.191 62.249 117.139 62.2783 116.325 62.1558L116.136 57.5937C116.579 57.6822 117.034 57.6937 117.498 57.6284C118.364 57.5067 119.024 57.1447 119.478 56.5423C119.953 55.9369 120.243 54.8515 120.346 53.2859C120.467 51.6962 120.343 49.5916 119.975 46.972L118.862 39.0498L135.974 36.6449L139.127 59.0804L133.708 59.842L131.201 42.0013L124.705 42.9143L125.141 46.0198C125.898 51.4068 125.826 55.3378 124.924 57.8127C124.02 60.2665 122.205 61.6849 119.479 62.0679ZM141.981 58.6793L148.24 34.9211L153.5 34.1818L165.97 55.308L159.949 56.1541L157.587 51.9944L148.904 53.2146L147.875 57.8509L141.981 58.6793ZM149.847 48.6551L155.487 47.8623L151.617 40.5539L149.847 48.6551ZM171.109 54.5856L168.606 36.7766L162.269 37.6673L161.618 33.0408L179.713 30.4978L180.363 35.1244L174.025 36.0151L176.528 53.8241L171.109 54.5856ZM186.329 52.4466L183.176 30.011L188.595 29.2495L189.789 37.742L198.535 36.5128L197.341 28.0203L202.76 27.2588L205.913 49.6943L200.494 50.4558L199.176 41.076L190.43 42.3052L191.748 51.685L186.329 52.4466ZM222.758 47.9408C219.23 48.4366 216.161 47.7478 213.549 45.8743C210.935 43.9798 209.38 41.2685 208.884 37.7405C208.385 34.1914 209.126 31.1896 211.108 28.7353C213.111 26.2779 215.887 24.7999 219.436 24.3011C223.006 23.7993 226.082 24.455 228.664 26.268C231.266 28.0781 232.817 30.7577 233.316 34.3068C233.811 37.8348 233.064 40.8697 231.073 43.4115C229.079 45.9322 226.308 47.442 222.758 47.9408ZM217.161 41.6829C218.549 42.8234 220.183 43.2616 222.064 42.9974C223.944 42.7331 225.394 41.8615 226.414 40.3824C227.434 38.9034 227.802 37.1499 227.517 35.1218C227.238 33.136 226.405 31.5834 225.02 30.4639C223.635 29.3445 222.002 28.9169 220.122 29.1811C218.242 29.4454 216.79 30.3065 215.767 31.7644C214.765 33.2193 214.404 34.9397 214.683 36.9255C214.968 38.9536 215.794 40.5394 217.161 41.6829Z" fill="#1A1A1A"/>
</svg>
