<svg width="270" height="80" viewBox="0 0 270 80" fill="none" xmlns="http://www.w3.org/2000/svg">
<g clip-path="url(#clip0_41_7041)">
<path d="M260 0H10C4.47715 0 0 4.47715 0 10V70C0 75.5229 4.47715 80 10 80H260C265.523 80 270 75.5229 270 70V10C270 4.47715 265.523 0 260 0Z" fill="black"/>
<path d="M135.78 43.5C131.08 43.5 127.24 47.08 127.24 52C127.24 56.92 131.08 60.5 135.78 60.5C140.48 60.5 144.32 56.9 144.32 52C144.32 47.1 140.48 43.5 135.78 43.5ZM135.78 57.16C133.2 57.16 130.98 55.04 130.98 52C130.98 48.96 133.2 46.84 135.78 46.84C138.36 46.84 140.58 48.94 140.58 52C140.58 55.06 138.36 57.16 135.78 57.16ZM117.14 43.5C112.44 43.5 108.6 47.08 108.6 52C108.6 56.92 112.44 60.5 117.14 60.5C121.84 60.5 125.68 56.9 125.68 52C125.68 47.1 121.84 43.5 117.14 43.5ZM117.14 57.16C114.56 57.16 112.34 55.04 112.34 52C112.34 48.96 114.56 46.84 117.14 46.84C119.72 46.84 121.94 48.94 121.94 52C121.94 55.06 119.72 57.16 117.14 57.16ZM94.9801 46.12V49.72H103.62C103.36 51.76 102.68 53.24 101.66 54.26C100.4 55.52 98.4401 56.9 95.0001 56.9C89.6801 56.9 85.5201 52.62 85.5201 47.3C85.5201 41.98 89.6801 37.7 95.0001 37.7C97.8601 37.7 99.9601 38.82 101.5 40.28L104.04 37.74C101.88 35.68 99.0201 34.1 94.9801 34.1C87.7001 34.1 81.5801 40.02 81.5801 47.32C81.5801 54.62 87.7001 60.54 94.9801 60.54C98.9201 60.54 101.88 59.26 104.2 56.84C106.58 54.46 107.32 51.1 107.32 48.4C107.32 47.56 107.26 46.78 107.12 46.14H94.9801V46.12ZM185.6 48.92C184.9 47.02 182.74 43.5 178.32 43.5C173.9 43.5 170.3 46.94 170.3 52C170.3 56.76 173.9 60.5 178.74 60.5C182.64 60.5 184.9 58.12 185.82 56.74L182.92 54.8C181.96 56.22 180.64 57.16 178.74 57.16C176.84 57.16 175.48 56.28 174.62 54.58L186 49.88L185.62 48.92H185.6ZM174 51.76C173.9 48.48 176.54 46.8 178.44 46.8C179.92 46.8 181.18 47.54 181.6 48.6L174 51.76ZM164.76 60H168.5V35H164.76V60ZM158.64 45.4H158.52C157.68 44.4 156.08 43.5 154.04 43.5C149.78 43.5 145.88 47.24 145.88 52.04C145.88 56.84 149.78 60.52 154.04 60.52C156.08 60.52 157.68 59.62 158.52 58.58H158.64V59.8C158.64 63.06 156.9 64.8 154.1 64.8C151.82 64.8 150.4 63.16 149.82 61.78L146.56 63.14C147.5 65.4 149.98 68.16 154.1 68.16C158.48 68.16 162.18 65.58 162.18 59.3V44.02H158.64V45.4ZM154.34 57.16C151.76 57.16 149.6 55 149.6 52.04C149.6 49.08 151.76 46.86 154.34 46.86C156.92 46.86 158.88 49.06 158.88 52.04C158.88 55.02 156.88 57.16 154.34 57.16ZM203.12 35H194.18V60H197.92V50.52H203.14C207.28 50.52 211.34 47.52 211.34 42.76C211.34 38 207.28 35 203.14 35H203.12ZM203.2 47.04H197.9V38.46H203.2C206 38.46 207.58 40.78 207.58 42.74C207.58 44.7 206 47.02 203.2 47.02V47.04ZM226.28 43.46C223.58 43.46 220.78 44.66 219.62 47.28L222.94 48.66C223.64 47.28 224.96 46.82 226.34 46.82C228.26 46.82 230.24 47.98 230.26 50.04V50.3C229.58 49.92 228.14 49.34 226.36 49.34C222.78 49.34 219.16 51.3 219.16 54.96C219.16 58.3 222.08 60.46 225.36 60.46C227.86 60.46 229.26 59.34 230.12 58.02H230.24V59.96H233.84V50.38C233.84 45.94 230.52 43.46 226.24 43.46H226.28ZM225.82 57.16C224.6 57.16 222.9 56.54 222.9 55.04C222.9 53.12 225.02 52.38 226.86 52.38C228.5 52.38 229.28 52.74 230.26 53.22C229.98 55.54 227.98 57.18 225.82 57.18V57.16ZM246.98 44L242.7 54.84H242.58L238.14 44H234.12L240.78 59.16L236.98 67.58H240.88L251.14 44H247H246.98ZM213.38 60H217.12V35H213.38V60Z" fill="white"/>
<path d="M40.9401 38.8401L19.6401 61.4401C20.3001 63.9001 22.5401 65.7001 25.2001 65.7001C26.2601 65.7001 27.2601 65.4201 28.1201 64.9001L28.1801 64.8601L52.1401 51.0401L40.9201 38.8201L40.9401 38.8401Z" fill="#EA4335"/>
<path d="M62.48 35H62.46L52.12 28.98L40.46 39.36L52.16 51.06L62.46 45.12C64.26 44.14 65.48 42.24 65.48 40.06C65.48 37.88 64.28 35.98 62.48 35.02V35Z" fill="#FBBC04"/>
<path d="M19.6399 18.5601C19.5199 19.0401 19.4399 19.5201 19.4399 20.0401V59.9801C19.4399 60.5001 19.4999 60.9801 19.6399 61.4601L41.6599 39.4401L19.6399 18.5601Z" fill="#4285F4"/>
<path d="M41.1001 40L52.1201 28.98L28.1801 15.1C27.3201 14.58 26.3001 14.28 25.2001 14.28C22.5401 14.28 20.3001 16.1 19.6401 18.54L41.1001 39.98V40Z" fill="#34A853"/>
<path d="M83.7202 28.54H82.2402V24.52H83.4202C84.4602 23.62 84.9602 22.1 84.9402 19.92V13.98H92.9602V24.5H94.3002V28.52H92.8202V25.98H83.7202V28.52V28.54ZM86.5002 19.94C86.5202 21.84 86.1402 23.36 85.3602 24.54H91.4202V15.48H86.5002V19.94Z" fill="white" stroke="white" stroke-width="0.2" stroke-miterlimit="10"/>
<path d="M106.32 24.44C105.14 25.66 103.68 26.26 101.92 26.26C100.16 26.26 98.7002 25.66 97.5202 24.44C96.3402 23.22 95.7603 21.74 95.7603 20C95.7603 18.26 96.3402 16.76 97.5202 15.56C98.7002 14.34 100.16 13.74 101.92 13.74C103.68 13.74 105.12 14.34 106.32 15.56C107.5 16.78 108.1 18.26 108.1 20C108.1 21.74 107.52 23.24 106.34 24.44H106.32ZM98.6603 23.44C99.5403 24.34 100.64 24.78 101.92 24.78C103.2 24.78 104.3 24.34 105.18 23.44C106.06 22.54 106.52 21.4 106.52 20C106.52 18.6 106.08 17.46 105.18 16.56C104.3 15.66 103.2 15.22 101.92 15.22C100.64 15.22 99.5403 15.66 98.6603 16.56C97.7803 17.46 97.3203 18.6 97.3203 20C97.3203 21.4 97.7603 22.54 98.6603 23.44Z" fill="white" stroke="white" stroke-width="0.2" stroke-miterlimit="10"/>
<path d="M115.86 26.2599C114.1 26.2599 112.62 25.6599 111.42 24.4599C110.22 23.2599 109.62 21.78 109.62 19.9799C109.62 18.1799 110.22 16.7 111.42 15.5C112.62 14.3 114.1 13.7 115.86 13.7C117.62 13.7 119.14 14.36 120.26 15.66L119.18 16.7C118.36 15.68 117.26 15.18 115.84 15.18C114.54 15.18 113.42 15.62 112.52 16.5C111.62 17.38 111.18 18.5399 111.18 19.9599C111.18 21.3799 111.62 22.5399 112.52 23.4199C113.42 24.2999 114.52 24.74 115.84 24.74C117.28 24.74 118.52 24.16 119.52 23L120.6 24.08C120.06 24.74 119.36 25.2599 118.54 25.6399C117.72 26.0199 116.82 26.22 115.84 26.22L115.86 26.2599Z" fill="white" stroke="white" stroke-width="0.2" stroke-miterlimit="10"/>
<path d="M126.86 26H125.32V15.48H121.96V14H130.2V15.48H126.84V26H126.86Z" fill="white" stroke="white" stroke-width="0.2" stroke-miterlimit="10"/>
<path d="M140.8 14L136.26 24.12C135.64 25.54 134.7 26.26 133.46 26.26C133.1 26.26 132.7 26.18 132.26 26L132.66 24.58C132.92 24.72 133.18 24.8 133.46 24.8C133.82 24.8 134.1 24.74 134.28 24.6C134.46 24.46 134.66 24.2 134.82 23.84L135.26 22.88L131.22 14.02H133.04L136 20.9H136.06L138.96 14.02H140.78L140.8 14Z" fill="white" stroke="white" stroke-width="0.2" stroke-miterlimit="10"/>
<path d="M142.54 26V14H151.22V26H149.68V15.48H144.08V26H142.54Z" fill="white" stroke="white" stroke-width="0.2" stroke-miterlimit="10"/>
<path d="M153.96 26V14H155.5V19.14H161.5V14H163.04V26H161.5V20.58H155.5V26H153.96Z" fill="white" stroke="white" stroke-width="0.2" stroke-miterlimit="10"/>
<path d="M175.62 24.44C174.44 25.66 172.98 26.26 171.22 26.26C169.46 26.26 168 25.66 166.82 24.44C165.64 23.22 165.06 21.74 165.06 20C165.06 18.26 165.64 16.76 166.82 15.56C168 14.34 169.46 13.74 171.22 13.74C172.98 13.74 174.42 14.34 175.62 15.56C176.8 16.78 177.4 18.26 177.4 20C177.4 21.74 176.82 23.24 175.64 24.44H175.62ZM167.96 23.44C168.84 24.34 169.94 24.78 171.22 24.78C172.5 24.78 173.6 24.34 174.48 23.44C175.36 22.54 175.82 21.4 175.82 20C175.82 18.6 175.38 17.46 174.48 16.56C173.6 15.66 172.5 15.22 171.22 15.22C169.94 15.22 168.84 15.66 167.96 16.56C167.08 17.46 166.62 18.6 166.62 20C166.62 21.4 167.06 22.54 167.96 23.44Z" fill="white" stroke="white" stroke-width="0.2" stroke-miterlimit="10"/>
<path d="M183.68 26V14H188.02C188.96 14 189.78 14.32 190.46 14.92C191.14 15.54 191.5 16.32 191.5 17.26C191.5 17.84 191.36 18.34 191.06 18.76C190.76 19.2 190.38 19.52 189.88 19.74V19.8C190.48 20 190.96 20.34 191.34 20.84C191.72 21.34 191.92 21.9 191.92 22.56C191.92 23.54 191.56 24.36 190.84 25C190.12 25.64 189.26 25.98 188.28 25.98H183.7L183.68 26ZM185.22 19.14H188.02C188.6 19.14 189.06 18.94 189.42 18.56C189.78 18.18 189.94 17.76 189.94 17.3C189.94 16.84 189.78 16.42 189.42 16.04C189.08 15.66 188.64 15.46 188.08 15.46H185.22V19.14ZM185.22 24.52H188.32C188.92 24.52 189.4 24.32 189.76 23.9C190.12 23.48 190.32 23.04 190.32 22.54C190.32 22.04 190.14 21.6 189.74 21.2C189.36 20.8 188.86 20.58 188.24 20.58H185.2V24.52H185.22Z" fill="white" stroke="white" stroke-width="0.2" stroke-miterlimit="10"/>
<path d="M260 1.6C264.64 1.6 268.4 5.36 268.4 10V70C268.4 74.64 264.64 78.4 260 78.4H10C5.36 78.4 1.6 74.64 1.6 70V10C1.6 5.36 5.36 1.6 10 1.6H260ZM260 0H10C4.5 0 0 4.5 0 10V70C0 75.5 4.5 80 10 80H260C265.5 80 270 75.5 270 70V10C270 4.5 265.5 0 260 0Z" fill="#A6A6A6"/>
</g>
<defs>
<clipPath id="clip0_41_7041">
<rect width="270" height="80" fill="white"/>
</clipPath>
</defs>
</svg>
