<svg width="401" height="118" viewBox="0 0 401 118" fill="none" xmlns="http://www.w3.org/2000/svg">
<g clip-path="url(#clip0_41_7104)">
<path d="M386.148 0H14.8519C6.6494 0 0 6.6038 0 14.75V103.25C0 111.396 6.6494 118 14.8519 118H386.148C394.351 118 401 111.396 401 103.25V14.75C401 6.6038 394.351 0 386.148 0Z" fill="#F2ECE7" fill-opacity="0.1"/>
<path d="M201.658 64.1629C194.678 64.1629 188.975 69.4434 188.975 76.7004C188.975 83.9574 194.678 89.2379 201.658 89.2379C208.639 89.2379 214.342 83.9279 214.342 76.7004C214.342 69.4729 208.639 64.1629 201.658 64.1629ZM201.658 84.3114C197.826 84.3114 194.529 81.1844 194.529 76.7004C194.529 72.2164 197.826 69.0893 201.658 69.0893C205.49 69.0893 208.787 72.1869 208.787 76.7004C208.787 81.2139 205.49 84.3114 201.658 84.3114ZM173.974 64.1629C166.994 64.1629 161.291 69.4434 161.291 76.7004C161.291 83.9574 166.994 89.2379 173.974 89.2379C180.955 89.2379 186.658 83.9279 186.658 76.7004C186.658 69.4729 180.955 64.1629 173.974 64.1629ZM173.974 84.3114C170.143 84.3114 166.845 81.1844 166.845 76.7004C166.845 72.2164 170.143 69.0893 173.974 69.0893C177.806 69.0893 181.103 72.1869 181.103 76.7004C181.103 81.2139 177.806 84.3114 173.974 84.3114ZM141.063 68.0274V73.3374H153.895C153.508 76.3464 152.499 78.5294 150.984 80.0339C149.112 81.8924 146.201 83.9279 141.092 83.9279C133.191 83.9279 127.013 77.6149 127.013 69.7679C127.013 61.9209 133.191 55.6079 141.092 55.6079C145.34 55.6079 148.459 57.2599 150.746 59.4134L154.518 55.6669C151.31 52.6284 147.063 50.2979 141.063 50.2979C130.25 50.2979 121.161 59.0299 121.161 69.7974C121.161 80.5649 130.25 89.2969 141.063 89.2969C146.914 89.2969 151.31 87.4088 154.756 83.8393C158.291 80.3288 159.39 75.3729 159.39 71.3904C159.39 70.1514 159.301 69.0009 159.093 68.0569H141.063V68.0274ZM275.65 72.1574C274.61 69.3549 271.402 64.1629 264.838 64.1629C258.273 64.1629 252.927 69.2369 252.927 76.7004C252.927 83.7214 258.273 89.2379 265.462 89.2379C271.254 89.2379 274.61 85.7274 275.977 83.6919L271.67 80.8304C270.244 82.9249 268.284 84.3114 265.462 84.3114C262.64 84.3114 260.62 83.0134 259.343 80.5059L276.244 73.5734L275.68 72.1574H275.65ZM258.422 76.3464C258.273 71.5084 262.194 69.0304 265.016 69.0304C267.214 69.0304 269.086 70.1219 269.709 71.6854L258.422 76.3464ZM244.699 88.5004H250.253V51.6254H244.699V88.5004ZM235.609 66.9654H235.431C234.184 65.4904 231.807 64.1629 228.778 64.1629C222.451 64.1629 216.659 69.6794 216.659 76.7594C216.659 83.8394 222.451 89.2673 228.778 89.2673C231.807 89.2673 234.184 87.9399 235.431 86.4059H235.609V88.2054C235.609 93.0139 233.025 95.5804 228.867 95.5804C225.481 95.5804 223.372 93.1614 222.51 91.1259L217.668 93.1319C219.065 96.4654 222.748 100.536 228.867 100.536C235.372 100.536 240.867 96.7309 240.867 87.4679V64.9298H235.609V66.9654ZM229.223 84.3114C225.391 84.3114 222.183 81.1254 222.183 76.7594C222.183 72.3934 225.391 69.1189 229.223 69.1189C233.055 69.1189 235.966 72.3639 235.966 76.7594C235.966 81.1549 232.996 84.3114 229.223 84.3114ZM301.671 51.6254H288.393V88.5004H293.948V74.5173H301.7C307.849 74.5173 313.879 70.0924 313.879 63.0714C313.879 56.0504 307.849 51.6254 301.7 51.6254H301.671ZM301.789 69.3844H293.918V56.7289H301.789C305.948 56.7289 308.294 60.1509 308.294 63.0419C308.294 65.9329 305.948 69.3548 301.789 69.3548V69.3844ZM336.067 64.1039C332.057 64.1039 327.899 65.8739 326.176 69.7384L331.107 71.7739C332.147 69.7384 334.107 69.0599 336.157 69.0599C339.008 69.0599 341.949 70.7709 341.978 73.8094V74.1929C340.969 73.6324 338.83 72.7768 336.186 72.7768C330.869 72.7768 325.493 75.6679 325.493 81.0664C325.493 85.9929 329.83 89.1789 334.701 89.1789C338.414 89.1789 340.493 87.5268 341.771 85.5798H341.949V88.4414H347.295V74.3109C347.295 67.7619 342.365 64.1039 336.008 64.1039H336.067ZM335.384 84.3114C333.572 84.3114 331.047 83.3969 331.047 81.1844C331.047 78.3524 334.196 77.2609 336.929 77.2609C339.365 77.2609 340.523 77.7919 341.978 78.4999C341.563 81.9219 338.592 84.3409 335.384 84.3409V84.3114ZM366.811 64.9004L360.454 80.8893H360.276L353.682 64.9004H347.711L357.603 87.2614L351.959 99.6809H357.751L372.989 64.9004H366.84H366.811ZM316.909 88.5004H322.463V51.6254H316.909V88.5004Z" fill="white"/>
<path d="M60.8034 57.2893L29.1689 90.6243C30.1492 94.2528 33.476 96.9078 37.4266 96.9078C39.0009 96.9078 40.4861 96.4948 41.7633 95.7278L41.8524 95.6688L77.4375 75.2843L60.7737 57.2598L60.8034 57.2893Z" fill="#EA4335"/>
<path d="M92.7946 51.6256H92.7649L77.4081 42.7461L60.0908 58.0566L77.4675 75.3141L92.7649 66.5526C95.4382 65.1071 97.2502 62.3046 97.2502 59.0891C97.2502 55.8736 95.4679 53.0711 92.7946 51.6551V51.6256Z" fill="#FBBC04"/>
<path d="M29.1691 27.377C28.9909 28.085 28.8721 28.793 28.8721 29.56V88.4715C28.8721 89.2385 28.9612 89.9464 29.1691 90.6544L61.8729 58.1749L29.1691 27.377Z" fill="#4285F4"/>
<path d="M61.041 59.0005L77.4078 42.746L41.8524 22.273C40.5752 21.506 39.0603 21.0635 37.4266 21.0635C33.476 21.0635 30.1492 23.748 29.1689 27.347L61.041 58.971V59.0005Z" fill="#34A853"/>
<path d="M124.34 42.0961H122.142V36.1666H123.894C125.439 34.8391 126.181 32.5971 126.152 29.3816V20.6201H138.063V36.1371H140.053V42.0666H137.855V38.3201H124.34V42.0666V42.0961ZM128.468 29.4111C128.498 32.2136 127.934 34.4556 126.775 36.1961H135.776V22.8326H128.468V29.4111Z" fill="white" stroke="white" stroke-width="0.2" stroke-miterlimit="10"/>
<path d="M157.905 36.0481C156.152 37.8476 153.984 38.7326 151.37 38.7326C148.756 38.7326 146.588 37.8476 144.835 36.0481C143.083 34.2486 142.221 32.0656 142.221 29.4991C142.221 26.9326 143.083 24.7201 144.835 22.9501C146.588 21.1506 148.756 20.2656 151.37 20.2656C153.984 20.2656 156.123 21.1506 157.905 22.9501C159.657 24.7496 160.548 26.9326 160.548 29.4991C160.548 32.0656 159.687 34.2781 157.934 36.0481H157.905ZM146.528 34.5731C147.835 35.9006 149.469 36.5496 151.37 36.5496C153.271 36.5496 154.905 35.9006 156.212 34.5731C157.519 33.2456 158.202 31.5641 158.202 29.4991C158.202 27.4341 157.548 25.7526 156.212 24.4251C154.905 23.0976 153.271 22.4486 151.37 22.4486C149.469 22.4486 147.835 23.0976 146.528 24.4251C145.221 25.7526 144.538 27.4341 144.538 29.4991C144.538 31.5641 145.192 33.2456 146.528 34.5731Z" fill="white" stroke="white" stroke-width="0.2" stroke-miterlimit="10"/>
<path d="M172.074 38.733C169.46 38.733 167.262 37.848 165.479 36.078C163.697 34.308 162.806 32.125 162.806 29.47C162.806 26.815 163.697 24.632 165.479 22.862C167.262 21.092 169.46 20.207 172.074 20.207C174.688 20.207 176.945 21.1805 178.609 23.098L177.005 24.632C175.787 23.1275 174.153 22.39 172.044 22.39C170.113 22.39 168.45 23.039 167.113 24.337C165.777 25.635 165.123 27.346 165.123 29.4405C165.123 31.535 165.777 33.246 167.113 34.544C168.45 35.842 170.084 36.491 172.044 36.491C174.183 36.491 176.024 35.6355 177.509 33.9245L179.113 35.5175C178.311 36.491 177.272 37.258 176.054 37.8185C174.836 38.379 173.499 38.674 172.044 38.674L172.074 38.733Z" fill="white" stroke="white" stroke-width="0.2" stroke-miterlimit="10"/>
<path d="M188.411 38.3494H186.124V22.8324H181.133V20.6494H193.371V22.8324H188.381V38.3494H188.411Z" fill="white" stroke="white" stroke-width="0.2" stroke-miterlimit="10"/>
<path d="M209.114 20.6494L202.371 35.5764C201.45 37.6709 200.054 38.7329 198.213 38.7329C197.678 38.7329 197.084 38.6149 196.43 38.3494L197.024 36.2549C197.411 36.4614 197.797 36.5794 198.213 36.5794C198.747 36.5794 199.163 36.4909 199.43 36.2844C199.698 36.0779 199.995 35.6944 200.232 35.1634L200.886 33.7474L194.886 20.6789H197.589L201.985 30.8269H202.074L206.381 20.6789H209.084L209.114 20.6494Z" fill="white" stroke="white" stroke-width="0.2" stroke-miterlimit="10"/>
<path d="M211.698 38.3494V20.6494H224.59V38.3494H222.302V22.8324H213.985V38.3494H211.698Z" fill="white" stroke="white" stroke-width="0.2" stroke-miterlimit="10"/>
<path d="M228.659 38.3494V20.6494H230.946V28.2309H239.857V20.6494H242.145V38.3494H239.857V30.3549H230.946V38.3494H228.659Z" fill="white" stroke="white" stroke-width="0.2" stroke-miterlimit="10"/>
<path d="M260.828 36.0481C259.076 37.8476 256.907 38.7326 254.293 38.7326C251.679 38.7326 249.511 37.8476 247.758 36.0481C246.006 34.2486 245.145 32.0656 245.145 29.4991C245.145 26.9326 246.006 24.7201 247.758 22.9501C249.511 21.1506 251.679 20.2656 254.293 20.2656C256.907 20.2656 259.046 21.1506 260.828 22.9501C262.581 24.7496 263.472 26.9326 263.472 29.4991C263.472 32.0656 262.61 34.2781 260.858 36.0481H260.828ZM249.452 34.5731C250.759 35.9006 252.392 36.5496 254.293 36.5496C256.194 36.5496 257.828 35.9006 259.135 34.5731C260.442 33.2456 261.125 31.5641 261.125 29.4991C261.125 27.4341 260.472 25.7526 259.135 24.4251C257.828 23.0976 256.194 22.4486 254.293 22.4486C252.392 22.4486 250.759 23.0976 249.452 24.4251C248.145 25.7526 247.461 27.4341 247.461 29.4991C247.461 31.5641 248.115 33.2456 249.452 34.5731Z" fill="white" stroke="white" stroke-width="0.2" stroke-miterlimit="10"/>
<path d="M272.799 38.3494V20.6494H279.245C280.641 20.6494 281.858 21.1214 282.868 22.0064C283.878 22.9209 284.413 24.0714 284.413 25.4579C284.413 26.3134 284.205 27.0509 283.759 27.6704C283.314 28.3194 282.75 28.7914 282.007 29.1159V29.2044C282.898 29.4994 283.611 30.0009 284.175 30.7384C284.74 31.4759 285.037 32.3019 285.037 33.2754C285.037 34.7209 284.502 35.9304 283.433 36.8744C282.363 37.8184 281.086 38.3199 279.631 38.3199H272.829L272.799 38.3494ZM275.086 28.2309H279.245C280.106 28.2309 280.789 27.9359 281.324 27.3754C281.858 26.8149 282.096 26.1954 282.096 25.5169C282.096 24.8384 281.858 24.2189 281.324 23.6584C280.819 23.0979 280.165 22.8029 279.334 22.8029H275.086V28.2309ZM275.086 36.1664H279.69C280.581 36.1664 281.294 35.8714 281.829 35.2519C282.363 34.6324 282.66 33.9834 282.66 33.2459C282.66 32.5084 282.393 31.8594 281.799 31.2694C281.235 30.6794 280.492 30.3549 279.571 30.3549H275.056V36.1664H275.086Z" fill="white" stroke="white" stroke-width="0.2" stroke-miterlimit="10"/>
<path d="M386.148 2.36C393.039 2.36 398.624 7.906 398.624 14.75V103.25C398.624 110.094 393.039 115.64 386.148 115.64H14.8519C7.96059 115.64 2.3763 110.094 2.3763 103.25V14.75C2.3763 7.906 7.96059 2.36 14.8519 2.36H386.148ZM386.148 0H14.8519C6.68333 0 0 6.6375 0 14.75V103.25C0 111.363 6.68333 118 14.8519 118H386.148C394.317 118 401 111.363 401 103.25V14.75C401 6.6375 394.317 0 386.148 0Z" fill="#A6A6A6"/>
</g>
<defs>
<clipPath id="clip0_41_7104">
<rect width="401" height="118" fill="white"/>
</clipPath>
</defs>
</svg>
