<svg width="196" height="82" viewBox="0 0 196 82" fill="none" xmlns="http://www.w3.org/2000/svg">
<rect y="26.443" width="190" height="56" rx="28" transform="rotate(-8 0 26.443)" fill="#DDFF53"/>
<rect x="12.9967" y="32.6951" width="166" height="40" rx="20" transform="rotate(-8 12.9967 32.6951)" stroke="#1A1A1A" stroke-opacity="0.8" stroke-width="4" stroke-linecap="round" stroke-dasharray="40 40"/>
<path d="M40.0579 51.7059C40.3429 53.734 39.9079 55.4674 38.7529 56.9061C37.6137 58.3427 35.9509 59.2146 33.7644 59.5219C31.5779 59.8292 29.7482 59.4562 28.2753 58.4029C26.8001 57.3338 25.9189 55.7773 25.6317 53.7334L24.1586 43.2524L28.1989 42.6846L29.6252 52.8328C29.7655 53.831 30.1438 54.6261 30.7602 55.2181C31.3744 55.7942 32.2122 56.0077 33.2738 55.8585C34.3512 55.7071 35.0978 55.2709 35.5135 54.5501C35.9428 53.8111 36.0873 52.9425 35.9471 51.9444L34.5208 41.7961L38.5849 41.2249L40.0579 51.7059ZM65.4872 37.444L63.0512 54.9454L59.0347 55.5099L54.1075 44.5934L54.0362 44.6034L52.3088 56.4551L48.2685 57.023L41.1266 40.8677L45.4997 40.2531L49.7347 51.073L49.806 51.063L51.2274 39.4481L55.4578 38.8536L60.0493 49.6234L60.1206 49.6134L61.2568 38.0386L65.4872 37.444ZM86.6552 42.9759C87.0271 45.6219 86.4664 47.898 84.9732 49.8044C83.4778 51.6949 81.3991 52.8272 78.7373 53.2013C76.0913 53.5732 73.789 53.0566 71.8304 51.6515C69.8695 50.2306 68.7032 48.1971 68.3313 45.5511C67.9572 42.8893 68.5133 40.638 69.9996 38.7972C71.5017 36.9542 73.5837 35.8457 76.2455 35.4716C78.9232 35.0953 81.2301 35.587 83.1662 36.9468C85.1181 38.3043 86.2811 40.314 86.6552 42.9759ZM82.306 43.5871C82.0967 42.0977 81.4725 40.9333 80.4336 40.0937C79.3946 39.2541 78.1701 38.9334 76.7599 39.1316C75.3498 39.3298 74.2611 39.9756 73.4938 41.069C72.7423 42.1602 72.4713 43.4505 72.6806 44.9399C72.8943 46.4609 73.5139 47.6503 74.5392 48.5079C75.5804 49.3633 76.8061 49.692 78.2162 49.4938C79.6264 49.2956 80.714 48.6419 81.479 47.5326C82.2441 46.4233 82.5198 45.1082 82.306 43.5871ZM105.274 49.0113L100.521 49.6793L95.9463 43.512L94.5679 43.7057L95.5065 50.3841L91.5137 50.9452L89.1489 34.1186L95.5658 33.2168C96.4214 33.0965 97.2259 33.0723 97.9792 33.1442C98.7325 33.216 99.4528 33.3976 100.14 33.6888C100.827 33.98 101.393 34.4417 101.837 35.074C102.298 35.7041 102.592 36.4786 102.721 37.3976C102.877 38.5067 102.702 39.5008 102.195 40.3798C101.689 41.2589 100.912 41.9416 99.8656 42.428L105.274 49.0113ZM98.7148 38.0334C98.5389 36.7817 97.5478 36.2828 95.7416 36.5366L93.5788 36.8406L94.1299 40.762L96.055 40.4915C98.0197 40.2154 98.9063 39.396 98.7148 38.0334ZM122.784 37.9226C122.984 39.3486 122.893 40.654 122.51 41.8388C122.127 43.0236 121.523 44.0133 120.698 44.8079C119.888 45.6003 118.96 46.2397 117.913 46.726C116.867 47.2124 115.742 47.5402 114.538 47.7095L108.263 48.5913L105.898 31.7646L111.983 30.9096C112.981 30.7693 113.936 30.7239 114.847 30.7735C115.773 30.805 116.684 30.9677 117.582 31.2617C118.48 31.5556 119.273 31.9692 119.962 32.5025C120.667 33.0336 121.27 33.7647 121.773 34.6959C122.273 35.6111 122.61 36.6867 122.784 37.9226ZM118.553 38.5171C118.426 37.614 118.167 36.8588 117.774 36.2515C117.38 35.6283 116.888 35.1724 116.298 34.8837C115.724 34.5927 115.108 34.4126 114.452 34.3432C113.812 34.2716 113.12 34.2882 112.375 34.3928L110.355 34.6767L111.738 44.516L113.663 44.2455C115.295 44.0161 116.579 43.4398 117.516 42.5164C118.452 41.5931 118.798 40.26 118.553 38.5171ZM137.003 29.0654L134.797 32.1626C134.404 31.7816 133.903 31.4965 133.295 31.3073C132.703 31.1159 132.137 31.058 131.599 31.1337C130.965 31.2228 130.429 31.4354 129.992 31.7715C129.568 32.0896 129.398 32.5497 129.483 33.1518C129.521 33.4212 129.61 33.651 129.749 33.8414C129.887 34.016 130.094 34.1646 130.37 34.2875C130.659 34.3922 130.938 34.4822 131.207 34.5575C131.474 34.6169 131.855 34.6845 132.351 34.7603C132.998 34.8795 133.504 34.9779 133.871 35.0557C134.237 35.1334 134.711 35.285 135.292 35.5103C135.886 35.7176 136.356 35.9585 136.702 36.2331C137.048 36.5077 137.377 36.8976 137.69 37.4029C138.002 37.8924 138.202 38.454 138.291 39.0878C138.547 40.9098 138.117 42.3921 137.001 43.5345C135.899 44.6589 134.445 45.348 132.638 45.6018C131.418 45.7733 130.216 45.7242 129.031 45.4545C127.846 45.1848 126.835 44.7209 125.999 44.0628L128.281 40.9793C128.766 41.4443 129.365 41.7964 130.077 42.0356C130.805 42.2725 131.502 42.3443 132.167 42.2507C132.849 42.155 133.383 41.9345 133.771 41.5891C134.172 41.2257 134.328 40.7272 134.239 40.0934C134.204 39.8399 134.109 39.627 133.956 39.4547C133.816 39.2643 133.666 39.1157 133.505 39.009C133.343 38.8864 133.068 38.7716 132.681 38.6643C132.294 38.5571 131.969 38.4817 131.704 38.4381C131.437 38.3787 131.005 38.294 130.408 38.184C129.761 38.0649 129.2 37.9256 128.726 37.7661C128.251 37.6066 127.766 37.3758 127.271 37.0738C126.776 36.7717 126.371 36.3601 126.055 35.839C125.74 35.3178 125.531 34.6928 125.428 33.964C125.304 33.0767 125.383 32.2578 125.665 31.5072C125.945 30.7407 126.374 30.1149 126.952 29.6297C127.528 29.1287 128.174 28.7229 128.889 28.4123C129.621 28.0994 130.391 27.8862 131.199 27.7726C132.181 27.6346 133.189 27.6787 134.223 27.9051C135.27 28.1134 136.197 28.5001 137.003 29.0654ZM165.128 40.5994L160.612 41.2341L158.841 38.1142L152.329 39.0294L151.557 42.5067L147.137 43.1279L151.831 25.3093L155.776 24.7548L165.128 40.5994ZM157.266 35.0152L154.363 29.5339L153.036 35.6098L157.266 35.0152ZM171.597 39.6903L167.509 40.2648L165.144 23.4382L169.232 22.8637L171.597 39.6903Z" fill="#1A1A1A"/>
</svg>
