<svg width="394" height="539" viewBox="0 0 394 539" fill="none" xmlns="http://www.w3.org/2000/svg">
<path fill-rule="evenodd" clip-rule="evenodd" d="M58.538 235.455C62.1563 225.489 59.4383 212.871 66.8964 204.625C69.1024 203.284 70.2723 204.03 71.1803 206.368C71.7284 209.444 73.0127 220.036 68.3939 220.031C67.8128 226.647 68.1761 233.31 69.5986 239.803C73.0072 239.256 75.4923 241.008 77.9791 242.31C79.8332 243.282 81.6882 244.004 83.9274 243.337C93.1716 241.708 95.8062 251.415 95.9184 259.339C96.0541 263.205 96.4174 272.217 98.1204 275.969C105.828 260.006 122.016 252.738 137.44 249.15C139.858 248.481 141.921 247.567 143.472 246.005C156.468 240.874 150.225 224.062 156.204 214.401C165.562 202.914 176.801 199.609 190.959 201.578C203.347 202.948 211.768 215.531 211.004 227.409C210.775 229.833 212.23 232.382 213.086 234.877C221.636 245.108 234.942 249.686 246.386 255.869C284.556 274.524 297.783 288.781 312.617 328.477C319.556 343.413 327.86 357.908 330.618 374.357C333.859 393.741 333.869 413.583 332.741 433.157C334.847 433.41 332.555 448.457 330.707 453.67C330.074 455.456 328.557 456.744 326.668 456.715C322.866 458.562 313.94 466.008 309.964 465.761C297.116 464.97 284.628 466.194 272.251 465.561C258.859 464.877 245.597 462.378 232.149 462.702C208.697 463.268 225.488 464.66 201.224 465.761C185.907 466.468 130.026 458.102 114.753 459.468C102.329 462.081 96.6615 457.676 98.5567 444.697C99.2574 439.722 101.495 428.658 94.1343 428.188C90.6525 428.592 87.7704 432.072 85.1615 434.105C62.1208 451.259 38.5826 438.907 36.7277 410.707C33.2357 387.054 28.3395 381.467 38.983 357.847C72.6574 269.92 21.9229 281.866 56.1778 240.682C58.8526 243.011 58.1726 236.795 58.538 235.455Z" fill="#EDB98A"/>
<path fill-rule="evenodd" clip-rule="evenodd" d="M220.223 254.219C198.276 265.413 180.92 271.009 168.155 271.009C155.39 271.009 132.907 273.616 100.706 278.828L84.805 313.772L49.7188 320.627L49.563 321.541C47.8537 331.347 44.5874 343.214 38.983 357.847C28.3394 381.467 33.2357 387.054 36.7277 410.707C38.5825 438.907 62.1208 451.259 85.1615 434.105C87.7704 432.072 90.6525 428.592 94.1343 428.188C101.348 428.649 99.3431 439.284 98.6005 444.391L98.5567 444.697C96.6615 457.676 102.329 462.082 114.753 459.468C130.026 458.102 185.907 466.468 201.224 465.762C225.488 464.66 208.697 463.268 232.149 462.703C245.597 462.379 258.859 464.877 272.251 465.561C283.977 466.16 295.803 465.094 307.939 465.653L326.668 456.715C333.594 407.119 332.542 374.6 323.511 359.157C314.525 343.792 302.492 318.533 287.413 283.381C287.182 283.133 286.949 282.889 286.714 282.646L220.223 254.219Z" fill="#9DDADB"/>
<path fill-rule="evenodd" clip-rule="evenodd" d="M71.3351 203.966C69.4973 202.16 66.576 202.609 64.7839 204.215C62.9602 205.846 61.8625 208.41 60.9261 210.62C58.2965 216.838 57.696 223.426 57.0937 230.033C56.7337 233.983 56.373 237.939 55.5779 241.829C51.6885 243.929 48.1776 246.672 45.6914 250.361C41.9143 255.965 40.1223 262.492 42.0161 269.134C42.592 271.157 43.4048 273.093 44.2178 275.029L44.218 275.029C44.7863 276.382 45.3546 277.735 45.8423 279.119C47.1083 282.7 47.8834 286.421 48.2551 290.202C48.6198 293.912 48.6689 297.643 48.5637 301.368C48.5076 303.297 48.4059 305.222 48.3042 307.147C48.2836 307.538 48.2519 307.932 48.2201 308.328L48.2199 308.33L48.2198 308.331L48.2198 308.333V308.333C48.1112 309.686 48.001 311.058 48.32 312.365L48.3708 312.559C48.2095 312.534 48.0517 312.503 47.8939 312.468C47.586 312.399 47.2865 312.322 46.9909 312.246C45.9863 311.986 45.0264 311.738 43.9344 311.882C42.8332 312.026 42.2615 312.945 42.728 313.983C42.9314 314.435 43.2014 314.814 43.5276 315.137C41.9495 326.807 39.7166 338.373 37.4836 349.94L37.4835 349.94L37.4831 349.942C35.6967 359.195 33.9104 368.448 32.4593 377.755C30.9794 387.256 30.078 396.785 30.5865 406.404L30.64 407.358C31.1584 416.19 32.4322 425.923 36.9203 433.647C39.0175 437.263 41.9003 440.472 45.3934 442.783C46.9929 443.842 48.7075 444.67 50.5698 445.083C60.2212 448.927 70.4267 447.984 79.5275 442.902C83.6203 440.619 87.7025 437.957 91.0447 434.653C92.6685 433.047 94.2358 431.003 95.1971 428.769C95.1959 428.933 95.2049 429.099 95.214 429.265V429.266V429.266C95.2324 429.605 95.2509 429.945 95.183 430.277L94.9806 431.254C94.6924 432.634 94.2503 434.721 93.7227 437.212L93.7225 437.213C91.4743 447.827 87.6734 465.771 87.6113 467.595C87.5746 468.666 95.5123 468.771 98.1588 468.806C98.5157 468.81 98.7763 468.814 98.9082 468.818L98.9391 468.819C115.505 469.51 132.082 469.141 148.639 468.457L149.946 468.402C154.877 468.193 159.943 467.962 165.06 467.729L165.082 467.728C176.619 467.202 188.42 466.664 199.55 466.34C199.566 466.342 199.579 466.343 199.592 466.344L199.613 466.346C199.68 466.35 199.748 466.347 200.056 466.333L200.057 466.332C200.453 466.314 201.244 466.278 202.933 466.215C208.199 466.093 213.465 465.53 218.732 464.967C225.993 464.191 233.255 463.414 240.515 463.794C248.1 464.19 255.669 464.806 263.238 465.422L263.27 465.425C265.621 465.616 267.973 465.807 270.325 465.992L270.575 463.86C270.873 461.35 271.189 458.753 271.513 456.089C274.187 434.108 277.421 407.522 275.573 387.039C275.411 385.241 278.218 385.252 278.379 387.039C280.223 407.486 277.004 433.976 274.332 455.957C273.901 459.506 273.484 462.937 273.105 466.206C277.333 466.527 281.563 466.819 285.799 467.041L286.878 467.097C301.29 467.817 316.164 467.86 330.268 464.555C330.703 464.453 330.85 464.018 330.759 463.657C330.899 463.737 331.11 463.692 331.169 463.495C332.34 459.637 333.1 451.53 333.709 445.028C333.956 442.403 334.177 440.04 334.391 438.323L334.441 437.933C335.206 432.135 335.644 426.272 335.96 420.439C336.598 408.771 336.521 397.089 335.658 385.435C332.912 348.264 321.977 310.711 299.027 280.838C293.479 273.616 287.163 267.009 279.584 261.899C272.149 256.885 263.809 253.353 255.347 250.484C249.753 248.587 244.072 246.963 238.39 245.343C238.175 245.235 237.96 245.129 237.744 245.025L237.419 244.869C236.791 244.572 236.167 244.266 235.543 243.96L235.542 243.959L235.542 243.959L235.542 243.959L235.542 243.959L235.542 243.959L235.542 243.959C234.155 243.279 232.767 242.598 231.341 242.011L230.884 241.825C227.885 240.622 224.392 239.558 221.146 239.595C215.889 236.947 211.473 232.946 211.901 226.527C212.077 223.89 207.938 223.893 207.791 226.527C207.405 233.534 211.722 238.504 217.225 241.839L217.199 241.866L217.172 241.895C216.313 242.87 215.394 243.775 214.402 244.617C208.461 249.674 200.945 253.872 193.433 256.635C184.62 259.879 175.814 260.851 166.699 258.228C161.933 256.856 157.433 254.741 153.298 252.006C152.036 251.171 150.826 250.277 149.665 249.32C150.763 247.819 151.64 246.202 152.376 244.487C153.856 241.036 155.08 236.361 153.568 232.717C153.197 231.819 151.72 231.265 151.205 232.409C150.583 233.779 150.119 235.197 149.656 236.616C149.061 238.436 148.467 240.257 147.536 241.976C146.905 243.14 146.179 244.245 145.365 245.286C145.365 245.343 139.151 246.405 139.151 246.405C131.639 246.402 124.565 249.288 117.919 252.893C113.991 255.025 110.13 257.292 106.28 259.562L98.7567 264C98.3787 264.223 97.9697 264.44 97.5509 264.663L97.5503 264.663C97.3553 264.767 97.1582 264.872 96.9611 264.979C97.6871 261.394 98.0413 257.74 97.8028 254.117C97.4416 248.653 95.3163 242.678 89.6875 240.731C87.0256 239.808 83.9464 240.093 81.3617 241.117C80.1693 241.59 78.8717 242.218 77.7635 243.056C77.2265 240.643 74.9648 238.833 72.6923 238.034C71.9558 237.774 71.2018 237.61 70.4372 237.529C70.4597 237.142 70.4619 236.75 70.4565 236.347L70.4513 236.042C70.4162 234.253 70.4302 232.465 70.4688 230.68C70.5389 227.295 70.7003 223.981 71.0439 220.607C71.2224 218.87 71.4827 217.146 71.7431 215.421L71.7432 215.42L71.7433 215.42L71.7434 215.419L71.7437 215.416L71.7441 215.414C71.902 214.368 72.06 213.321 72.1996 212.272L72.3529 211.076C72.3643 210.99 72.3759 210.904 72.3877 210.816L72.4073 210.672C72.7167 208.393 73.0845 205.684 71.3351 203.966ZM75.5876 325.831C75.5793 324.025 78.3849 324.023 78.3933 325.831C78.4498 338.329 81.6705 350.311 84.8942 362.304C87.57 372.259 90.2479 382.221 91.1197 392.493C91.2719 394.292 88.4656 394.282 88.3141 392.493C87.4422 382.221 84.7657 372.269 82.0907 362.323C78.8663 350.334 75.6442 338.353 75.5876 325.831ZM93.9485 253.868C93.5242 248.576 90.5502 243.08 84.4058 243.982C82.3472 244.283 77.7775 245.869 78.7419 248.646C78.7805 248.759 78.8226 248.867 78.8717 248.969C79.2504 249.376 79.6011 249.807 79.9168 250.263C81.5278 251.454 84.1844 251.303 86.2257 251.187C86.4577 251.174 86.6818 251.161 86.8955 251.151L87.1518 251.14C88.7475 251.08 89.1158 253.602 87.5306 253.949C85.6894 254.356 83.6974 254.668 81.793 254.45C81.8842 254.815 81.9579 255.183 82.014 255.551C82.1017 255.569 82.1858 255.587 82.2735 255.601C82.9083 255.706 83.5501 255.702 84.1884 255.65C85.3071 255.566 86.1032 256.804 85.8297 257.807C85.5316 258.883 84.2936 259.339 83.3291 258.82C82.9255 258.606 82.5401 258.368 82.1683 258.101C82 262.895 79.2574 267.462 74.2178 268.84C74.1687 268.854 74.1231 268.85 74.0845 268.833C73.5409 270.215 72.6782 271.467 71.6015 272.48C73.1516 272.687 74.6737 273.999 75.5119 275.142C77.0866 277.302 77.6442 280.68 75.8521 282.812C74.6281 284.271 72.5134 283.275 71.9659 281.788C71.6479 280.929 71.6335 279.948 71.6191 278.968C71.6088 278.264 71.5985 277.56 71.4753 276.903C71.3394 276.179 71.0958 275.487 70.853 274.798C70.6946 274.349 70.5366 273.9 70.4091 273.444C68.8275 274.539 66.9337 275.163 64.9518 275.079C62.7217 274.984 60.2281 273.89 59.3584 271.694C59.0638 270.954 59.0217 270.25 59.1094 269.559C57.0963 270.919 53.8242 271.705 51.8919 270.365C51.1554 269.853 50.9976 268.657 51.8919 268.18C52.8606 267.663 53.7315 267.61 54.7304 267.6L55.434 267.595C55.9248 267.59 56.4136 267.557 56.9019 267.524C57.694 267.471 58.485 267.417 59.2812 267.483C59.397 267.493 59.5057 267.525 59.6035 267.574L59.6219 267.517C59.7811 267.024 59.9415 266.527 60.0563 266.02C59.1866 265.828 58.3519 265.512 57.5523 265.038C57.156 264.8 56.7807 264.284 56.8403 263.793C57.0651 261.933 58.8279 262.395 60.3492 262.794C60.8928 262.936 61.4056 263.071 61.8063 263.088L61.8829 263.093C62.72 263.162 63.378 263.812 63.395 264.673C63.4161 265.655 63.2302 266.581 62.9461 267.521C62.8921 267.698 62.8182 267.896 62.7394 268.107L62.738 268.111L62.7375 268.112C62.4636 268.846 62.1326 269.732 62.3745 270.379C63.0689 272.21 66.1516 271.856 67.5018 271.277C71.8564 269.418 72.1792 264.173 70.7711 260.244L70.6827 260.005C69.8901 257.933 68.575 255.773 66.4883 254.801C64.5598 253.906 62.2863 254.02 60.1992 254.255L59.667 254.317C57.163 254.619 54.6554 255.127 52.2075 255.748C51.8401 255.841 51.4738 255.936 51.108 256.031L51.107 256.032C49.1757 256.535 47.2572 257.035 45.2495 257.109C45.1966 257.112 45.1517 257.091 45.1162 257.063C44.3552 258.939 43.9063 260.924 43.8397 262.965C43.7341 266.178 44.7059 269.204 45.8843 272.15C46.1135 272.724 46.3465 273.294 46.5791 273.864L46.5811 273.869L46.5834 273.875C47.5594 276.266 48.5308 278.646 49.2125 281.149C50.0507 284.211 50.5876 287.364 50.9309 290.517C51.3272 294.119 51.4254 297.748 51.3799 301.368C51.3553 303.297 51.2957 305.222 51.1975 307.147L51.1885 307.34C51.1752 307.647 51.1671 307.959 51.1588 308.273C51.1207 309.73 51.0813 311.231 50.5276 312.559C50.482 312.671 50.4189 312.773 50.3453 312.864C50.5405 312.888 50.7361 312.912 50.9319 312.934L52.8206 313.142C55.4422 313.421 58.0722 313.627 60.7051 313.723C63.4301 313.821 66.2393 313.797 68.9397 313.418C70.8966 313.144 72.7273 312.629 74.5685 312.061C73.7101 310.236 74.2876 307.94 74.7951 305.921L74.7975 305.911L74.8056 305.879C74.8489 305.707 74.8916 305.537 74.9328 305.369L75.101 304.674C75.785 301.891 76.6652 299.164 77.8476 296.549C79.0891 293.803 80.6077 291.278 82.3857 288.844L82.5702 288.59L83.2578 287.646C84.3044 286.218 85.4557 284.732 86.8011 283.629C87.1939 282.871 87.5446 282.082 87.8918 281.297C89.0316 278.695 89.968 275.994 90.8307 273.29C91.3673 271.607 91.8793 269.895 92.3353 268.163C93.5522 263.491 94.3308 258.673 93.9485 253.868ZM69.5986 240.443C72.3166 240.443 74.8841 241.33 76.9392 243.747C76.2063 244.445 75.6206 245.255 75.2976 246.205C74.2914 245.655 73.2253 245.224 72.1346 244.918C68.8064 243.989 64.2542 244.003 61.4556 246.286C59.9897 247.478 61.5994 249.618 63.1776 249.249C63.677 249.133 64.1533 248.981 64.6259 248.831C65.4905 248.556 66.3427 248.285 67.3018 248.239C68.589 248.176 69.8515 248.345 71.086 248.716C72.9693 249.285 74.6807 250.361 75.9397 251.845C76.3606 252.343 76.7288 252.883 77.0374 253.465C79.3872 257.926 77.6161 264.323 74.3721 267.995C75.6451 263.765 74.3756 258.778 71.84 255.275C68.7873 251.057 64.2215 250.578 59.4115 251.237L59.2528 251.259C54.5993 251.915 48.8372 253.061 45.3582 256.481C45.7054 255.692 46.1052 254.927 46.5545 254.187C49.1914 249.846 53.5647 246.458 58.1028 244.041C58.8639 243.631 59.6319 243.252 60.3965 242.902C63.3038 241.565 66.5443 240.443 69.5986 240.443ZM68.1227 207.358L68.112 207.308C67.9788 207.347 67.863 207.432 67.7648 207.561C67.3159 208.126 66.9196 208.655 66.5514 209.286C63.8944 213.855 62.8668 218.973 61.8411 224.082C61.8016 224.278 61.7621 224.475 61.7225 224.672L61.5293 225.626C60.997 228.225 60.611 230.848 60.225 233.472C59.8989 235.688 59.5728 237.905 59.1585 240.107C59.881 239.798 60.6069 239.507 61.3364 239.23C63.3705 238.465 65.608 237.746 67.8452 237.532C67.3844 236.133 67.205 234.574 67.0388 233.131C66.9951 232.752 66.9523 232.381 66.9056 232.023L66.8489 231.572C66.4674 228.412 66.4017 225.12 66.5724 221.947C66.7018 219.511 67.028 217.088 67.3535 214.668C67.4691 213.809 67.5846 212.95 67.6912 212.092L67.7175 211.888C67.7627 211.552 67.818 211.205 67.8742 210.852C68.0587 209.695 68.2527 208.479 68.1296 207.386L68.1227 207.358Z" fill="black"/>
<path fill-rule="evenodd" clip-rule="evenodd" d="M183.638 89.9617C163.767 89.9617 138.117 102.453 135.929 115.247C133.352 130.323 119.549 188.175 122.666 206.727C125.782 225.279 142.579 238.634 169.455 238.634C196.332 238.634 216.393 223.946 220.999 218.903C225.605 213.86 234.141 195.854 234.141 195.854C234.141 195.854 248.532 193.936 248.6 182.181C248.668 170.426 239.244 166.149 239.244 166.149C239.244 166.149 242.604 119.758 234.141 107.68C225.678 95.602 203.509 89.9617 183.638 89.9617Z" fill="#EDB98A"/>
<path fill-rule="evenodd" clip-rule="evenodd" d="M137.145 113.182C137.16 112.913 136.768 112.881 136.694 113.12C132.407 127.313 129.765 138.373 126.983 152.925L126.161 157.205C123.966 168.622 121.748 180.055 119.875 191.527L119.765 192.212C118.826 198.15 118.285 204.146 119.462 210.097C120.56 215.659 123.563 220.758 127.462 224.819C134.997 232.668 145.468 237.571 156.001 239.763C161.328 240.871 166.822 241.299 172.25 240.913C174.956 240.723 177.657 240.341 180.307 239.777L180.599 239.714C183.269 239.136 185.64 238.447 187.058 235.929C187.414 235.295 187.271 234.208 186.522 233.881C185.108 233.271 184.069 233.015 182.526 233.191C181.052 233.359 179.614 233.804 178.158 234.081C175.376 234.611 172.548 234.877 169.717 234.941C164.156 235.063 158.581 234.365 153.265 232.703C144.131 229.845 134.85 224.377 129.513 216.199C123.235 206.578 125.734 194.902 127.398 184.277L127.448 183.955C129.132 173.095 130.798 162.235 132.414 151.368L133.104 146.71C134.916 134.404 136.627 125.619 137.145 113.182ZM229.883 83.0607C225.324 80.0496 219.659 79.3097 214.305 79.3512L213.634 79.3597C206.778 79.4644 172.265 80.2875 160.71 80.5407L157.961 80.5988C154.323 80.6676 146.985 80.7394 143.205 80.8086L142.986 80.8127C141.132 80.8478 139.277 80.8618 137.422 80.9214L137.15 80.9312C135.761 80.9907 134.604 81.199 133.516 82.1804C132.963 82.6779 132.747 83.4365 132.798 84.1591L132.806 84.2531L130.052 84.4951C128.181 84.6608 127.193 86.3417 127.936 88.0426L127.973 88.1249C129.292 90.9446 130.3 99.1511 131.007 102.185C131.378 103.78 131.676 105.401 131.851 107.031C131.99 108.315 132.004 109.602 132.718 110.731C134.241 113.141 138.524 113.12 138.601 109.707C138.605 109.599 138.601 109.493 138.591 109.392C149.37 108.918 164.086 108.964 174.851 109.609C184.905 110.212 194.914 111.58 204.766 113.674C207.261 114.203 209.749 114.782 212.22 115.41C214.246 115.922 216.735 116.227 218.547 117.325C220.577 118.559 220.539 120.772 220.318 122.88C220.082 125.114 219.687 123.963 219.128 125.999L219.093 126.127C218.516 128.337 217.802 130.522 216.857 132.598C216.318 133.783 215.45 134.923 215.779 136.287C215.965 137.055 216.57 137.876 217.127 138.413C219.661 140.85 223.944 139.296 225.666 142.635C227.468 146.126 227.512 150.856 227.665 154.719L227.675 154.945C227.786 157.607 227.755 160.276 227.58 162.93C227.423 165.35 226.779 167.746 227.605 170.071C228.207 171.761 230.173 171.919 231.202 170.544C231.32 170.386 231.429 170.225 231.53 170.062L231.629 169.899L231.636 169.902C231.538 170.057 231.447 170.215 231.36 170.376C231.265 170.555 231.5 170.751 231.643 170.597C234.065 167.956 237.603 168.482 240.343 170.33C243.119 172.21 244.214 175.78 244.357 178.983C244.518 182.534 244.203 186.698 242.727 189.98C242.104 191.369 241.215 192.646 239.741 193.175C239.073 193.414 238.436 193.382 237.74 193.438C237.015 193.494 236.144 193.859 235.441 193.81C234.527 193.745 233.706 194.791 233.965 195.667L233.984 195.725C233.998 195.767 234.012 195.809 234.026 195.848C233.991 195.879 233.956 195.918 233.932 195.974C231.272 201.42 227.626 206.267 223.594 210.763C221.574 213.011 219.335 215.077 216.994 216.988C215.839 217.932 214.621 218.875 213.336 219.636C212.909 219.885 212.518 220.053 212.038 220.19C211.814 220.253 211.559 220.285 211.342 220.358L211.116 220.436C211.101 220.441 211.086 220.445 211.072 220.45C210.428 220.523 209.886 220.951 209.672 221.621C209.116 223.367 210.127 224.911 211.856 225.391C213.729 225.916 215.494 224.994 216.979 223.936L217.078 223.865C220.105 221.681 222.894 219.229 225.309 216.367C230.086 210.718 233.078 204.177 234.464 196.942C234.807 197.682 235.269 198.327 236.07 198.776C237.316 199.477 238.803 199.477 240.168 199.242C242.916 198.776 245.257 197.096 246.821 194.824C248.445 192.467 249.05 189.605 249.418 186.817C249.782 184.025 249.96 181.223 249.596 178.425C249.075 174.405 247.392 170.432 244.119 168.23C246.569 162.881 247 156.884 246.825 151.027C246.611 143.817 245.369 136.526 244.413 129.382L241.697 109.073L241.586 108.254C240.931 103.476 240.133 98.6729 238.348 94.1711C236.588 89.7346 233.914 85.7226 229.883 83.0607ZM241.313 179.14C236.826 176.958 231.979 178.968 229.564 183.201C227.465 186.881 233.707 189.314 234.749 185.52L234.779 185.403C235.465 182.531 238.258 180.048 241.173 179.662C241.414 179.628 241.593 179.277 241.313 179.14Z" fill="black"/>
<path fill-rule="evenodd" clip-rule="evenodd" d="M167.766 215.31C167.766 215.31 162.797 219.146 153.531 219.146C144.265 219.146 138.882 215.714 138.882 215.714C138.882 215.714 147.004 210.78 153.531 210.381C160.058 209.981 167.766 215.31 167.766 215.31Z" fill="#FF6C6C"/>
<path fill-rule="evenodd" clip-rule="evenodd" d="M178.814 205.558C178.778 201.694 175.429 201.027 172.248 201.543C166.863 202.414 161.458 203.027 156 203.137L155.059 203.154C154.908 202.933 154.655 202.765 154.311 202.728C151.285 202.401 148.195 202.454 145.153 202.365C142.499 202.287 139.772 202.021 137.118 202.23L136.907 202.248C133.664 202.562 130.242 204.217 130.633 208.023C130.994 211.547 134.362 214.667 137.053 216.626C137.597 217.018 138.153 217.386 138.725 217.721C138.905 217.95 139.167 218.11 139.469 218.142C142.119 219.573 145.042 220.42 148.068 220.702C154.483 221.299 161.941 220.653 168.102 217.873C170.105 216.969 171.974 215.84 173.626 214.454C176.173 212.316 178.843 209.074 178.814 205.558ZM153.188 212.518C155.759 212.441 158.327 212.8 160.776 213.594C162.436 214.129 163.949 215.159 165.539 215.875C160.179 217.919 153.952 218.365 148.453 217.993C146.041 217.83 143.702 217.273 141.522 216.317C141.862 216.072 142.206 215.822 142.565 215.605C143.653 214.947 144.79 214.387 145.975 213.941C148.285 213.074 150.722 212.596 153.188 212.518ZM152.676 179.429C153.37 178.931 152.82 177.282 151.337 177.537C137.871 179.85 144.848 203.046 162.041 190.317C164.088 188.666 161.609 185.029 159.403 186.443L158.62 187.047C156.073 188.999 151.86 191.95 148.842 188.783C145.993 184.793 150.028 181.039 152.676 179.429ZM143.56 161.874C140.698 159.431 137.107 161.231 135 163.705L134.628 164.147C134.207 164.652 133.74 165.24 133.459 165.868C131.124 163.88 127.957 162.48 124.927 163.389C121.988 164.273 120.312 167.079 120.816 170.091C121.389 173.516 123.981 175.818 126.766 177.599L127.555 178.1C130.902 180.234 134.033 182.383 136.788 185.315C137.237 185.792 138.208 185.729 138.503 185.094L138.74 184.584L138.979 184.073C140.933 179.907 143.027 175.769 144.745 171.504C146.019 168.344 146.432 164.322 143.56 161.874ZM175.755 163.582C173.657 161.141 170.105 159.506 167.302 161.874C164.318 164.395 164.904 168.565 166.233 171.781C167.834 175.66 169.703 179.453 171.499 183.258L171.883 184.073C172.044 184.413 172.202 184.754 172.36 185.094C172.654 185.729 173.629 185.792 174.075 185.315C176.743 182.474 179.763 180.372 182.987 178.306L183.961 177.687C186.791 175.891 189.467 173.573 190.049 170.091C190.547 167.085 188.882 164.262 185.939 163.388C182.902 162.487 179.742 163.876 177.403 165.868C177.124 165.224 176.644 164.617 176.191 164.086L175.755 163.582ZM172.353 146.574C171.329 147.904 172.423 150.078 173.919 150.421C175.771 150.847 177.642 150.588 179.461 151.117C181.128 151.601 182.724 152.572 184.153 153.539C185.782 154.641 187.282 155.872 188.66 157.275C189.48 158.109 190.514 160.086 191.778 160.123C193.036 160.159 191.348 156.228 191.208 155.887C190.217 153.466 188.824 151.237 187.082 149.285C183.645 145.434 176.365 141.369 172.353 146.574ZM133.968 145.51L133.11 145.748C130.987 146.339 128.72 147.064 126.899 148.337L126.756 148.438L126.535 148.599C124.248 150.304 121.014 153.706 122.633 156.674C122.745 156.878 122.982 156.898 123.173 156.815C125.328 155.871 126.925 153.987 129.217 153.198L129.64 153.054C131.86 152.307 134.606 151.52 136.995 151.592C138.675 152.138 140.943 151.686 141.381 149.641L141.4 149.541L141.438 149.329C141.69 147.932 141.315 146.15 139.871 145.477C137.892 144.555 135.961 144.965 133.968 145.51Z" fill="black"/>
</svg>
