<svg width="138" height="202" viewBox="0 0 138 202" fill="none" xmlns="http://www.w3.org/2000/svg">
<path fill-rule="evenodd" clip-rule="evenodd" d="M26.1732 89.2115C27.5355 85.5041 26.5122 80.8103 29.3202 77.7426C30.1507 77.2438 30.5912 77.5213 30.9331 78.391C31.1395 79.5354 31.623 83.4758 29.884 83.474C29.6652 85.9349 29.802 88.4137 30.3376 90.8288C31.6209 90.6254 32.5566 91.2771 33.4929 91.7618C34.191 92.1231 34.8894 92.3917 35.7324 92.1436C39.2129 91.5375 40.2049 95.1487 40.2471 98.0964C40.2982 99.5346 40.435 102.887 41.0762 104.283C43.9782 98.3445 50.073 95.6409 55.8804 94.306C56.7907 94.0573 57.5675 93.7173 58.1514 93.1362C63.0443 91.2274 60.6937 84.9735 62.9448 81.3792C66.4682 77.1063 70.6996 75.8768 76.0304 76.6091C80.6945 77.1187 83.865 81.7999 83.5774 86.2185C83.4912 87.1201 84.0389 88.0685 84.3611 88.9963C87.5805 92.8026 92.5901 94.5055 96.8988 96.8055C111.27 103.745 116.25 109.049 121.835 123.816C124.448 129.372 127.574 134.764 128.613 140.883C129.833 148.094 129.837 155.475 129.412 162.757C130.205 162.851 129.342 168.449 128.646 170.388C128.408 171.052 127.837 171.532 127.125 171.521C125.694 172.208 122.333 174.978 120.836 174.886C115.999 174.592 111.297 175.047 106.637 174.811C101.595 174.557 96.602 173.627 91.5386 173.748C82.7087 173.958 89.0305 174.476 79.8951 174.886C74.1282 175.149 53.0889 172.037 47.3383 172.545C42.6608 173.517 40.5269 171.878 41.2404 167.05C41.5043 165.199 42.3467 161.083 39.5754 160.909C38.2645 161.059 37.1794 162.353 36.1971 163.11C27.5222 169.491 18.6599 164.896 17.9615 154.405C16.6468 145.607 14.8033 143.528 18.8107 134.742C31.4893 102.033 12.3875 106.477 25.2846 91.156C26.2917 92.0224 26.0357 89.71 26.1732 89.2115Z" fill="#9DDADB"/>
<path fill-rule="evenodd" clip-rule="evenodd" d="M87.0485 96.1917C78.7854 100.356 72.2508 102.438 67.4447 102.438C62.6386 102.438 54.1736 103.407 42.0497 105.346L36.063 118.346L22.8528 120.896L22.7942 121.235C22.1506 124.883 20.9208 129.298 18.8108 134.742C14.8034 143.528 16.6469 145.607 17.9616 154.405C18.66 164.896 27.5223 169.491 36.1972 163.11C37.1795 162.353 38.2646 161.059 39.5755 160.909C42.2914 161.08 41.5366 165.036 41.257 166.936L41.2405 167.05C40.527 171.878 42.6609 173.517 47.3384 172.545C53.089 172.037 74.1283 175.149 79.8952 174.886C89.0306 174.476 82.7088 173.958 91.5387 173.748C96.6021 173.627 101.595 174.557 106.637 174.811C111.052 175.034 115.505 174.638 120.074 174.845L127.125 171.52C129.733 153.071 129.337 140.974 125.937 135.229C122.553 129.513 118.023 120.117 112.346 107.04C112.259 106.948 112.171 106.857 112.083 106.766L87.0485 96.1917Z" fill="#9DDADB"/>
<path fill-rule="evenodd" clip-rule="evenodd" d="M30.9917 77.4976C30.2998 76.8257 29.1999 76.9928 28.5252 77.5902C27.8385 78.1969 27.4252 79.1506 27.0727 79.9726C26.0827 82.2858 25.8566 84.7365 25.6298 87.1944C25.4942 88.6637 25.3584 90.1356 25.0591 91.5824C23.5947 92.3639 22.2728 93.3841 21.3368 94.7566C19.9147 96.8414 19.24 99.2694 19.953 101.74C20.1698 102.493 20.4759 103.213 20.782 103.933C20.996 104.436 21.21 104.94 21.3936 105.455C21.8702 106.787 22.162 108.171 22.302 109.577C22.4393 110.958 22.4578 112.346 22.4182 113.731C22.3971 114.449 22.3588 115.165 22.3205 115.881C22.3127 116.027 22.3007 116.174 22.2887 116.322C22.2478 116.825 22.2063 117.336 22.3264 117.822L22.3456 117.894C22.2848 117.885 22.2254 117.873 22.166 117.86C22.0501 117.835 21.9373 117.806 21.826 117.778C21.4478 117.681 21.0864 117.589 20.6752 117.642C20.2606 117.696 20.0454 118.038 20.221 118.424C20.2976 118.592 20.3993 118.733 20.5221 118.853C19.9279 123.195 19.0872 127.497 18.2464 131.8L18.2464 131.8C17.5738 135.243 16.9012 138.685 16.3548 142.147C15.7976 145.682 15.4583 149.226 15.6497 152.805L15.6698 153.16C15.865 156.445 16.3446 160.066 18.0344 162.939C18.824 164.284 19.9094 165.478 21.2245 166.338C21.8268 166.732 22.4724 167.04 23.1735 167.194C26.8073 168.623 30.6497 168.273 34.0762 166.382C35.6171 165.533 37.1541 164.543 38.4125 163.314C39.0238 162.716 39.6139 161.956 39.9759 161.124C39.9754 161.186 39.9788 161.247 39.9822 161.309V161.309V161.31C39.9892 161.436 39.9961 161.562 39.9706 161.686L39.8944 162.049C39.7859 162.562 39.6195 163.339 39.4208 164.265L39.4207 164.266C38.5742 168.214 37.1432 174.889 37.1198 175.568C37.106 175.966 40.095 176.005 41.0912 176.018C41.2254 176.02 41.3235 176.021 41.3732 176.023L41.3848 176.023C47.622 176.28 53.8631 176.143 60.0969 175.888L60.589 175.868C62.4486 175.79 64.3587 175.704 66.2883 175.617C70.632 175.422 75.0749 175.222 79.2653 175.101C79.2745 175.102 79.2816 175.103 79.2888 175.103C79.3142 175.105 79.3397 175.104 79.4557 175.098L79.4562 175.098C79.6052 175.091 79.9029 175.078 80.5391 175.055C82.5217 175.009 84.5044 174.8 86.4872 174.59C89.2212 174.302 91.9552 174.013 94.6889 174.154C97.5446 174.301 100.394 174.53 103.244 174.76L103.244 174.76L103.244 174.76L103.245 174.76C104.134 174.831 105.023 174.903 105.912 174.972L106.007 174.178C106.119 173.245 106.238 172.279 106.36 171.288C107.366 163.111 108.584 153.221 107.888 145.601C107.827 144.932 108.884 144.936 108.945 145.601C109.639 153.207 108.427 163.062 107.421 171.239L107.421 171.24C107.259 172.559 107.102 173.835 106.959 175.051C108.551 175.171 110.144 175.279 111.738 175.362L112.145 175.383C117.571 175.651 123.171 175.666 128.481 174.437C128.645 174.399 128.7 174.237 128.666 174.103C128.719 174.133 128.798 174.116 128.82 174.043C129.261 172.608 129.547 169.592 129.777 167.173C129.87 166.196 129.953 165.317 130.034 164.679L130.052 164.534C130.34 162.377 130.505 160.196 130.624 158.026C130.865 153.685 130.835 149.34 130.511 145.004C129.477 131.177 125.36 117.207 116.719 106.094C114.63 103.408 112.252 100.95 109.398 99.0488C106.599 97.1833 103.459 95.8694 100.273 94.8023C98.1669 94.0964 96.0278 93.4924 93.8887 92.8896C93.8077 92.8496 93.7267 92.8102 93.6454 92.7714L93.523 92.7136C93.2868 92.603 93.0517 92.4891 92.8166 92.3751L92.8164 92.375C92.2944 92.1221 91.7717 91.8688 91.2347 91.6502L91.0625 91.581C89.9336 91.1337 88.6183 90.7377 87.3962 90.7513C85.4169 89.7663 83.7545 88.2779 83.9156 85.8903C83.9816 84.9092 82.4235 84.9105 82.368 85.8903C82.2228 88.4969 83.8481 90.3456 85.92 91.5863L85.9101 91.5962L85.9002 91.6072C85.5767 91.9699 85.2307 92.3065 84.857 92.6196C82.6202 94.5008 79.7906 96.0626 76.9622 97.0905C73.644 98.2973 70.3284 98.6587 66.8966 97.683C65.1022 97.1727 63.4081 96.386 61.8513 95.3684C61.376 95.0579 60.9204 94.7254 60.4833 94.3691C60.8966 93.8107 61.2267 93.2093 61.504 92.5713C62.0611 91.2875 62.5221 89.5485 61.953 88.193C61.813 87.859 61.2571 87.6528 61.063 88.0781C60.8288 88.5877 60.6544 89.1153 60.48 89.643L60.48 89.6431L60.4799 89.6432L60.4799 89.6433L60.4799 89.6434C60.256 90.3206 60.0321 90.9979 59.6819 91.6373C59.4442 92.0703 59.1708 92.4813 58.8645 92.8688C58.8645 92.8896 56.5247 93.2849 56.5247 93.2849C53.6964 93.2836 51.0331 94.3573 48.5309 95.6985C47.0518 96.4915 45.5982 97.3347 44.1488 98.1792L41.3161 99.8303C41.1737 99.9131 41.0197 99.994 40.862 100.077L40.8615 100.077C40.812 100.103 40.7622 100.129 40.7122 100.156C40.6882 100.169 40.6641 100.181 40.64 100.194C40.9134 98.8609 41.0467 97.5015 40.9569 96.1538C40.8209 94.1212 40.0208 91.8982 37.9015 91.174C36.8993 90.8309 35.74 90.9366 34.7668 91.3175C34.3179 91.4937 33.8293 91.7272 33.412 92.039C33.2099 91.1414 32.3583 90.4682 31.5027 90.1709C31.2254 90.0742 30.9415 90.0129 30.6537 89.9829C30.6621 89.8389 30.663 89.6932 30.6609 89.5431L30.659 89.4297C30.6458 88.7644 30.651 88.099 30.6656 87.435C30.692 86.176 30.7527 84.9431 30.8821 83.6881C30.9493 83.0416 31.0474 82.3998 31.1455 81.7579C31.205 81.3681 31.2646 80.9782 31.3172 80.5873L31.3749 80.1424L31.3951 79.9943L31.3954 79.9921C31.5119 79.1443 31.6504 78.1367 30.9917 77.4976ZM32.5925 122.831C32.5894 122.16 33.6457 122.159 33.6489 122.831C33.6702 127.481 34.8828 131.938 36.0965 136.4C37.1039 140.103 38.1122 143.809 38.4404 147.63C38.4977 148.299 37.4411 148.295 37.3841 147.63C37.0558 143.809 36.0481 140.107 35.041 136.407C33.827 131.947 32.6138 127.49 32.5925 122.831ZM39.5058 96.061C39.346 94.0923 38.2263 92.0479 35.9129 92.3832C35.1378 92.4954 33.4173 93.0851 33.7804 94.1184C33.7949 94.1603 33.8108 94.2006 33.8293 94.2384C33.9719 94.3898 34.1039 94.5502 34.2227 94.7198C34.8293 95.1629 35.8295 95.1068 36.5981 95.0636C36.6854 95.0587 36.7698 95.054 36.8503 95.0502L36.9468 95.046C37.5476 95.0238 37.6862 95.9618 37.0894 96.091C36.3962 96.2423 35.6462 96.3585 34.9292 96.2776C34.9635 96.4132 34.9912 96.5502 35.0124 96.6872L35.0126 96.6873C35.0455 96.6939 35.0771 96.7003 35.1101 96.7055C35.3491 96.7446 35.5907 96.7433 35.831 96.7237C36.2522 96.6926 36.552 97.153 36.449 97.5261C36.3367 97.9266 35.8706 98.0963 35.5075 97.9031C35.3555 97.8237 35.2104 97.7348 35.0704 97.6357C35.0071 99.4191 33.9745 101.118 32.077 101.63C32.0586 101.636 32.0414 101.634 32.0269 101.628C31.8222 102.142 31.4974 102.608 31.092 102.985C31.6756 103.062 32.2487 103.55 32.5643 103.975C33.1572 104.779 33.3671 106.035 32.6924 106.828C32.2315 107.371 31.4353 107 31.2292 106.447C31.1095 106.128 31.104 105.763 31.0986 105.398V105.398C31.0948 105.136 31.0909 104.874 31.0445 104.63C30.9933 104.361 30.9016 104.103 30.8102 103.847C30.7505 103.68 30.691 103.513 30.6431 103.343C30.0476 103.75 29.3345 103.983 28.5884 103.951C27.7487 103.916 26.8099 103.509 26.4824 102.692C26.3715 102.417 26.3557 102.155 26.3887 101.898C25.6307 102.404 24.3988 102.696 23.6712 102.198C23.394 102.008 23.3345 101.563 23.6712 101.385C24.036 101.193 24.3639 101.173 24.74 101.169L25.0049 101.167C25.1897 101.165 25.3737 101.153 25.5575 101.141C25.8558 101.121 26.1536 101.101 26.4534 101.126C26.4969 101.13 26.5379 101.141 26.5747 101.159L26.5816 101.138L26.5816 101.138L26.5817 101.138C26.6416 100.955 26.702 100.77 26.7452 100.582C26.4177 100.51 26.1035 100.392 25.8024 100.216C25.6532 100.128 25.5119 99.9358 25.5344 99.7531C25.619 99.0612 26.2827 99.233 26.8554 99.3814C27.0601 99.4344 27.2532 99.4844 27.4041 99.4909L27.4329 99.4926C27.7481 99.5185 27.9958 99.7602 28.0022 100.081C28.0101 100.446 27.9402 100.79 27.8332 101.14C27.8127 101.206 27.7846 101.281 27.7547 101.36C27.6515 101.633 27.5269 101.963 27.618 102.203C27.8794 102.884 29.0401 102.752 29.5484 102.537C31.188 101.845 31.3095 99.8946 30.7793 98.433L30.7461 98.3441C30.4476 97.5732 29.9525 96.7695 29.1668 96.408C28.4408 96.0752 27.5848 96.1176 26.799 96.2048L26.5986 96.228C25.6558 96.3402 24.7117 96.5295 23.7901 96.7603C23.6519 96.7947 23.5142 96.8302 23.3766 96.8656L23.3757 96.8658C22.6486 97.0531 21.9263 97.2391 21.1704 97.2665C21.1504 97.2678 21.1335 97.26 21.1202 97.2495C20.8336 97.9475 20.6646 98.6859 20.6395 99.4452C20.5998 100.64 20.9657 101.766 21.4094 102.862C21.4962 103.077 21.5844 103.29 21.6725 103.503L21.6726 103.504C22.0401 104.393 22.4058 105.279 22.6624 106.21C22.978 107.349 23.1802 108.522 23.3094 109.694C23.4586 111.034 23.4956 112.385 23.4785 113.731C23.4692 114.448 23.4468 115.165 23.4098 115.881L23.4064 115.952C23.4014 116.067 23.3984 116.183 23.3953 116.299L23.3952 116.3C23.3809 116.842 23.3661 117.4 23.1576 117.894C23.1404 117.936 23.1167 117.974 23.0889 118.008C23.1624 118.017 23.2361 118.025 23.3098 118.034L24.0209 118.111C25.008 118.215 25.9982 118.291 26.9895 118.327C28.0154 118.364 29.0731 118.355 30.0898 118.214C30.8266 118.112 31.5159 117.92 32.2091 117.709C31.8859 117.03 32.1033 116.176 32.2944 115.425L32.2949 115.423C32.3124 115.354 32.3297 115.286 32.3463 115.219L32.4096 114.961C32.6671 113.926 32.9985 112.911 33.4437 111.938C33.9111 110.917 34.4829 109.978 35.1523 109.072L35.2218 108.977L35.4807 108.627C35.8747 108.095 36.3082 107.542 36.8147 107.132C36.9626 106.85 37.0947 106.557 37.2254 106.265C37.6545 105.296 38.0071 104.292 38.3319 103.286C38.5339 102.66 38.7267 102.023 38.8984 101.379C39.3565 99.6409 39.6497 97.8483 39.5058 96.061ZM30.338 91.0671C31.3614 91.0671 32.328 91.3972 33.1018 92.2961C32.8258 92.5557 32.6053 92.8571 32.4837 93.2106C32.1049 93.0058 31.7035 92.8455 31.2928 92.7318C30.0397 92.3861 28.3258 92.3913 27.2721 93.2407C26.7202 93.6842 27.3263 94.4801 27.9205 94.3431C28.1085 94.2997 28.2878 94.2434 28.4658 94.1874C28.7913 94.0851 29.1121 93.9842 29.4733 93.9673C29.9579 93.9438 30.4332 94.0065 30.898 94.1448C31.6071 94.3562 32.2514 94.7566 32.7255 95.3085C32.8839 95.4937 33.0226 95.6947 33.1388 95.9114C34.0235 97.5707 33.3566 99.9504 32.1352 101.316C32.6146 99.7429 32.1366 97.8877 31.1819 96.5846C30.0326 95.0154 28.3135 94.8375 26.5025 95.0824L26.4428 95.0906C24.6907 95.3347 22.5213 95.7612 21.2114 97.0332C21.3421 96.7397 21.4926 96.4553 21.6618 96.18C22.6546 94.5649 24.3012 93.3046 26.0098 92.4057C26.2963 92.253 26.5855 92.1121 26.8734 91.9817C27.968 91.4846 29.1881 91.0671 30.338 91.0671ZM29.7822 78.7591L29.7782 78.7407C29.728 78.7552 29.6844 78.7865 29.6475 78.8347C29.4784 79.0447 29.3292 79.2417 29.1906 79.4765C28.1902 81.176 27.8033 83.0801 27.4172 84.9803C27.4023 85.0535 27.3874 85.1267 27.3725 85.1999L27.2998 85.5548C27.0993 86.5216 26.954 87.4976 26.8087 88.4737C26.6859 89.2982 26.5631 90.1227 26.4071 90.9418C26.6791 90.8268 26.9525 90.7185 27.2271 90.6156C27.993 90.3311 28.8354 90.0636 29.6777 89.984C29.5042 89.4633 29.4367 88.8837 29.3741 88.347C29.3576 88.2059 29.3415 88.0678 29.324 87.9345L29.3026 87.7669C29.159 86.5914 29.1342 85.3668 29.1985 84.1863C29.2472 83.2803 29.37 82.3787 29.4926 81.4786C29.5361 81.159 29.5796 80.8396 29.6197 80.5202L29.6296 80.4443C29.6466 80.3192 29.6675 80.1901 29.6887 80.0589C29.7581 79.6286 29.8311 79.176 29.7848 78.7694L29.7822 78.7591Z" fill="#9DDADB"/>
<path fill-rule="evenodd" clip-rule="evenodd" d="M73.2737 35.0876C65.792 35.0876 56.1346 39.7345 55.3111 44.4937C54.3406 50.1023 49.1437 71.6232 50.3173 78.5246C51.4908 85.4259 57.8146 90.3941 67.9339 90.3941C78.0531 90.3941 85.606 84.9302 87.3402 83.0541C89.0744 81.178 92.2883 74.4799 92.2883 74.4799C92.2883 74.4799 97.7064 73.7664 97.7321 69.3935C97.7577 65.0205 94.2094 63.4295 94.2094 63.4295C94.2094 63.4295 95.4746 46.1719 92.2883 41.6789C89.102 37.1859 80.7553 35.0876 73.2737 35.0876Z" fill="#9DDADB"/>
<path fill-rule="evenodd" clip-rule="evenodd" d="M55.7694 43.7256C55.7748 43.6253 55.6272 43.6135 55.5995 43.7022C53.9854 48.9821 52.9905 53.0968 51.9431 58.5098L51.6338 60.1021C50.8072 64.3491 49.972 68.6023 49.2668 72.8699L49.2254 73.1247C48.8722 75.3337 48.6685 77.5643 49.1114 79.7779C49.5251 81.847 50.6556 83.744 52.1235 85.2547C54.9603 88.1746 58.9028 89.9984 62.8688 90.8138C64.8742 91.226 66.9429 91.3852 68.9866 91.2417C70.0052 91.1711 71.0223 91.0289 72.0198 90.819L72.1299 90.7957C73.1353 90.5808 74.0276 90.3244 74.5616 89.3877C74.6959 89.1517 74.6419 88.7472 74.3599 88.6259C73.8276 88.3988 73.4362 88.3037 72.8553 88.3689C72.3006 88.4314 71.7589 88.5972 71.2108 88.7003C70.1632 88.8973 69.0986 88.9963 68.0326 89.0199C65.9389 89.0656 63.8399 88.8059 61.8384 88.1876C58.3995 87.1243 54.905 85.0904 52.8956 82.048C50.5319 78.469 51.4731 74.1254 52.0994 70.1728L52.1183 70.0532C52.7524 66.0132 53.3794 61.9733 53.988 57.9307L54.2476 56.198C54.93 51.62 55.5744 48.3519 55.7694 43.7256ZM90.6852 32.5204C88.9688 31.4003 86.836 31.125 84.82 31.1405L84.5675 31.1437C81.9861 31.1826 68.992 31.4888 64.6414 31.583L63.6065 31.6046C62.2367 31.6302 59.4739 31.6569 58.0505 31.6826L57.9683 31.6842C57.27 31.6972 56.5716 31.7024 55.8733 31.7246L55.7709 31.7283C55.2478 31.7504 54.8125 31.8279 54.4028 32.193C54.1944 32.378 54.1132 32.6602 54.1323 32.929L54.1353 32.964L53.0983 33.054C52.3942 33.1157 52.0219 33.7409 52.3016 34.3737L52.3157 34.4043C52.8124 35.4532 53.1919 38.5061 53.458 39.6346C53.5977 40.2282 53.7099 40.8309 53.7757 41.4376C53.8283 41.9152 53.8336 42.3939 54.1024 42.814C54.6757 43.7103 56.2883 43.7024 56.3173 42.433C56.3186 42.3926 56.3173 42.3534 56.3134 42.3156C60.3717 42.1395 65.9124 42.1564 69.9654 42.3965C73.751 42.6209 77.5194 43.1297 81.2286 43.9086C82.168 44.1056 83.1049 44.3208 84.0351 44.5543C84.798 44.7448 85.7349 44.8583 86.4174 45.2667C87.1816 45.7259 87.1672 46.5491 87.0841 47.3332C86.995 48.1643 86.8465 47.7361 86.6359 48.4934L86.623 48.5413C86.4056 49.3632 86.1368 50.176 85.781 50.9483C85.5781 51.3893 85.2512 51.8133 85.3752 52.3208C85.445 52.6065 85.6731 52.9118 85.8825 53.1114C86.8366 54.0181 88.4492 53.4402 89.0975 54.6822C89.7759 55.9809 89.7928 57.7402 89.8504 59.1773L89.8538 59.2615C89.8958 60.2517 89.8841 61.2445 89.8182 62.2321C89.7589 63.1322 89.5166 64.0234 89.8275 64.8883C90.0542 65.5172 90.7946 65.5759 91.182 65.0645C91.2265 65.0058 91.2672 64.9456 91.3054 64.885L91.3427 64.8244L91.3452 64.8257C91.3085 64.8831 91.2742 64.942 91.2413 65.0018C91.2057 65.0684 91.294 65.1414 91.348 65.084C92.2598 64.1016 93.5919 64.2973 94.6237 64.9849C95.6685 65.6842 96.081 67.0123 96.135 68.2035C96.1956 69.5249 96.077 71.0737 95.521 72.2947C95.2864 72.8114 94.9519 73.2862 94.397 73.4832C94.1452 73.572 93.9055 73.5602 93.6433 73.5811C93.3707 73.6018 93.0425 73.7377 92.7778 73.7194C92.4336 73.6951 92.1246 74.0841 92.2224 74.4101L92.2295 74.4317C92.2347 74.4474 92.2401 74.463 92.2452 74.4774C92.2321 74.4891 92.219 74.5035 92.2097 74.5243C91.2083 76.5504 89.8354 78.3534 88.3174 80.026C87.557 80.8622 86.7139 81.6307 85.8324 82.3417C85.3976 82.6926 84.939 83.0437 84.4555 83.3267C84.2947 83.4192 84.1473 83.4819 83.9665 83.533C83.8823 83.5563 83.7861 83.568 83.7044 83.5954L83.6196 83.6242C83.6137 83.6261 83.6082 83.6278 83.6029 83.6294C83.3605 83.6568 83.1563 83.8159 83.0759 84.0651C82.8664 84.7148 83.2472 85.2889 83.8981 85.4676C84.6033 85.6629 85.2679 85.32 85.8269 84.9264L85.864 84.9001C87.0038 84.0874 88.0539 83.1754 88.9631 82.1108C90.7617 80.009 91.8884 77.5759 92.4099 74.8844C92.5392 75.1597 92.7131 75.3997 93.0148 75.5667C93.4839 75.8277 94.0439 75.8277 94.5578 75.7403C95.5921 75.5667 96.4736 74.9418 97.0626 74.0964C97.6741 73.2197 97.9019 72.1551 98.0403 71.118C98.1773 70.0793 98.2445 69.0371 98.1075 67.996C97.911 66.5009 97.2774 65.0227 96.0454 64.2034C96.9677 62.2138 97.1298 59.9829 97.0639 57.8042C96.9835 55.1219 96.5158 52.4095 96.1561 49.752L95.1335 42.1969L95.0916 41.8923C94.8448 40.1149 94.5444 38.3282 93.8726 36.6535C93.2098 35.0031 92.2032 33.5106 90.6852 32.5204ZM94.9886 68.262C93.2994 67.4506 91.4744 68.1981 90.5653 69.7728C89.7748 71.1419 92.1251 72.0468 92.5173 70.6356L92.5285 70.5921C92.7868 69.5236 93.8384 68.5999 94.9359 68.4564C95.0268 68.4435 95.0941 68.313 94.9886 68.262Z" fill="#9DDADB"/>
<path fill-rule="evenodd" clip-rule="evenodd" d="M71.6274 70.8007C68.127 70.8007 65.2894 68.3475 65.2894 65.3212C65.2894 62.295 68.127 59.8418 71.6274 59.8418C75.1278 59.8418 78.916 62.1955 78.916 65.2217C78.916 66.5058 77.8922 68.7496 77.0365 69.6837C75.8757 70.9511 73.6425 70.8007 71.6274 70.8007Z" fill="white"/>
<path fill-rule="evenodd" clip-rule="evenodd" d="M56.5406 69.752C53.861 69.752 51.6888 67.5335 51.6888 64.7969C51.6888 62.0603 53.861 59.8418 56.5406 59.8418C59.2202 59.8418 62.1201 61.9703 62.1201 64.7069C62.1201 65.8681 61.3364 67.8972 60.6814 68.7419C59.7927 69.888 58.0832 69.752 56.5406 69.752Z" fill="white"/>
<path fill-rule="evenodd" clip-rule="evenodd" d="M71.7163 74.2048C71.6886 74.1795 71.6447 74.1706 71.6113 74.1914C71.04 74.5483 70.9724 75.7487 70.9659 76.442C70.7295 76.5028 70.4961 76.5719 70.2753 76.6202C69.8065 76.7227 69.3351 76.8121 68.8646 76.9063L68.512 76.9782C67.3334 77.2236 66.1327 77.4052 64.9317 77.4961C63.766 77.5843 62.5665 77.6165 61.4042 77.4682C60.9051 77.4044 60.4088 77.298 59.9265 77.1559C59.3563 76.9878 58.9022 76.7093 58.372 76.4653C57.0444 75.8544 55.9318 77.6447 57.2095 78.4304C58.3062 79.1045 59.8025 79.3475 61.0685 79.4519C62.3625 79.5585 63.6515 79.4415 64.93 79.2392C66.3121 79.0205 67.6658 78.6845 68.9765 78.1974C69.5308 77.9914 70.0672 77.7418 70.5908 77.4687L70.7334 77.3937C70.8204 77.3475 70.9111 77.3007 71.0023 77.2532C71.1004 78.1178 71.3831 78.9529 71.7247 79.7556L71.7328 79.7415C71.9196 80.3748 72.5946 80.7666 73.2662 80.4869C74.0545 80.1588 74.1143 79.2975 73.6557 78.6861L73.6338 78.6576C73.0945 77.9722 72.7566 77.1218 72.463 76.3113C72.3123 75.8957 72.1729 75.4702 72.0519 75.0451C71.9644 74.7376 71.9612 74.4283 71.7163 74.2048ZM51.4033 67.3198C51.8706 68.7149 52.8896 69.7892 54.309 70.2616C55.7158 70.7298 57.2804 70.5591 58.7184 70.306C59.033 70.2506 59.3518 70.1895 59.6701 70.1182C59.4096 70.2776 59.1796 70.502 58.9594 70.7392C58.6339 71.09 58.3386 71.4596 58.2491 71.8987C58.1602 72.3344 58.3002 72.6658 58.5555 72.9159C58.9483 73.3007 59.5819 73.508 60.1186 73.6225C61.3204 73.8792 62.5243 73.8392 63.7202 73.5762C64.0256 73.509 64.2326 73.3472 64.3488 73.1362C64.49 72.8799 64.5016 72.5612 64.4206 72.2708C64.3396 71.9807 64.1647 71.7132 63.9107 71.5652C63.7017 71.4433 63.4403 71.4099 63.1436 71.5074C62.548 71.7032 61.9568 71.8329 61.3277 71.8479C61.0615 71.854 60.7935 71.8462 60.5276 71.8221C60.3773 71.8084 60.2273 71.7895 60.0782 71.7659C60.166 71.6503 60.2513 71.5326 60.3347 71.4137C60.4332 71.2731 60.5292 71.1307 60.6208 70.9859C60.8857 70.5668 61.1063 70.1359 61.3001 69.6811C61.3623 69.5354 61.4199 69.389 61.4753 69.2422C61.4832 69.2211 61.4912 69.1999 61.4991 69.1787C61.5162 69.1646 61.5331 69.1503 61.55 69.1359C61.9291 68.8119 62.2469 68.4127 62.4718 67.9182C63.0804 66.5789 62.9813 64.9164 62.612 63.5258C62.316 62.4111 61.6626 61.38 60.7995 60.6796C60.6487 60.4346 60.5492 60.286 60.4273 60.1608C59.9312 59.6508 59.239 59.3069 58.5634 59.0977C57.0547 58.6302 55.4115 58.9656 54.1325 59.8557C52.9516 60.6775 52.0272 61.9099 51.5276 63.2807C51.0545 64.5789 50.9622 66.0028 51.4033 67.3198ZM71.9547 58.8414C70.1604 58.8262 68.3348 59.3497 66.8787 60.3971C65.4857 61.3995 64.3921 62.8793 64.3934 64.642C64.3948 66.3583 65.3233 68.0457 66.3531 69.3744C67.509 70.8662 69.0195 71.5854 70.9188 71.602C71.9061 71.6107 72.9006 71.5243 73.8807 71.4057L74.4066 71.3401C75.1308 71.2479 75.8625 71.1386 76.5489 70.8928C79.8161 69.7219 79.9172 65.4964 78.7072 62.7954C77.7729 60.7101 75.4081 58.6765 73.0501 58.9206C72.6948 58.8714 72.33 58.8446 71.9547 58.8414ZM68.9239 60.8285C71.1709 59.832 73.901 60.1304 76.0806 61.1938C76.944 62.1245 77.5751 63.2975 77.8304 64.3744C78.1031 65.5239 78.0632 66.7621 77.6532 67.8763C77.1527 69.2363 75.92 69.5732 74.5904 69.7822L74.0741 69.8623L73.8576 69.8947C72.551 70.0873 71.1227 70.237 69.8671 69.996C68.4678 69.7272 67.5791 68.6103 66.8797 67.4651L66.847 67.4114C66.1207 66.2116 65.5126 64.7523 66.1218 63.3775C66.6398 62.2089 67.7713 61.3397 68.9239 60.8285ZM55.662 61.1757C56.4331 60.7535 57.3126 60.6768 58.1453 60.9594C58.5035 61.081 58.8131 61.278 59.1132 61.4989L59.2329 61.5884C59.602 61.8683 59.9468 62.0101 60.2237 62.3882L60.2594 62.4389C60.3991 62.645 60.6435 62.7274 60.8661 62.7C61.1256 63.4068 61.2327 64.171 61.2348 64.9234L61.2346 65.0231L61.2333 65.1248C61.2167 66.0141 61.0596 67.1021 60.3514 67.6981C59.7055 68.2416 58.7274 68.3721 57.8541 68.4478L57.1812 68.5033L57.0023 68.5166C56.0819 68.5799 55.0733 68.5583 54.3019 68.0199C53.6301 67.5511 53.3132 66.7552 53.2311 65.9694C53.0368 64.1131 53.9878 62.0922 55.662 61.1757ZM72.4466 61.347C71.2093 60.7229 69.7229 60.8793 68.6747 61.6615C68.7678 61.6795 68.8595 61.7025 68.9508 61.7478C69.1886 61.8656 69.3363 62.1015 69.3925 62.3525C69.4559 62.6362 69.3071 62.9049 69.0236 62.9944C68.7769 63.0721 68.4844 63.1077 68.2554 62.9596C68.1353 62.8822 68.0515 62.78 67.9964 62.6514L67.9886 62.6324L67.979 62.6186L67.9753 62.6121C67.9744 62.6096 67.9788 62.6143 67.9856 62.6249C67.9786 62.6088 67.9721 62.5928 67.9657 62.5765C67.956 62.557 67.9468 62.5375 67.9392 62.5172C67.9259 62.5059 67.9138 62.4932 67.9015 62.4806C67.7111 62.7701 67.5616 63.097 67.4667 63.4608C66.8574 65.7954 69.3557 68.2182 71.5876 68.4606C72.4311 68.5522 73.2002 68.3538 73.8385 67.9626C73.8327 67.955 73.8262 67.948 73.8209 67.9399C73.5645 67.9855 73.2584 67.8721 73.1653 67.5895C72.9278 66.8687 73.1714 66.0255 73.9663 65.79C74.4778 65.6384 75.0013 65.806 75.3669 66.1514C75.6434 65.4828 75.7423 64.73 75.6114 63.9761C75.4268 62.9124 74.7775 61.9539 73.7668 61.5114C73.2747 61.2957 72.8506 61.2505 72.4466 61.347ZM59.4156 62.7877L59.378 62.7291C58.9956 62.1477 58.2647 61.4345 57.5072 61.6306C57.4008 61.6581 57.2965 61.7025 57.2025 61.76C56.7863 61.7042 56.3506 61.7976 55.9927 62.0151L56.0025 62.0395C56.004 62.0436 56.0054 62.0477 56.0065 62.052C56.0391 62.1934 56.0201 62.3242 55.9532 62.4541C55.8807 62.5949 55.7774 62.7283 55.6374 62.8091C55.5414 62.8644 55.4285 62.8935 55.3179 62.8913C55.1556 62.8884 55.0127 62.8178 54.8954 62.7101C54.8317 62.6516 54.7872 62.5659 54.7626 62.4777C54.7048 62.5325 54.6487 62.5936 54.5952 62.6628C53.717 63.8039 53.8383 65.6374 54.8686 66.6545C54.9102 66.6955 54.9545 66.7325 54.9982 66.7703C55.4165 67.3393 56.0612 67.7255 56.8357 67.8036C57.5527 67.876 58.2697 67.6665 58.8195 67.237C58.7752 67.2138 58.7339 67.1837 58.6983 67.1437C58.6044 67.0387 58.5271 66.9351 58.4701 66.8069C58.4557 66.7746 58.4419 66.7421 58.4288 66.7093L58.4098 66.6598C58.4064 66.6508 58.3772 66.5673 58.385 66.582L58.3867 66.5854L58.3764 66.5613C58.278 66.3186 58.3177 66.0412 58.5513 65.889L58.577 65.8732C58.6534 65.8292 58.7479 65.8084 58.8436 65.8082C59.0821 65.5197 59.437 65.4536 59.7702 65.5379L59.7819 65.4447C59.7837 65.4292 59.7852 65.4136 59.7863 65.398C60.0444 64.5525 59.9199 63.5916 59.4156 62.7877ZM70.8769 54.2748L70.7912 54.2617C70.1431 54.1691 69.7024 54.2757 69.281 54.8229C69.0802 55.0837 69.1421 55.4776 69.281 55.7441C69.7297 56.6053 70.964 56.4272 71.7954 56.5983C72.607 56.7651 73.4167 56.9923 74.1762 57.3229C74.9512 57.6602 75.6786 58.0593 76.3879 58.515C77.0295 58.9274 77.6114 59.5473 78.3444 59.7872C78.3774 59.798 78.4172 59.7688 78.4151 59.7342C78.3629 58.9106 77.6666 58.1546 77.1274 57.568C76.5036 56.8897 75.745 56.2875 74.955 55.8087C74.1398 55.3148 73.2585 54.9081 72.3461 54.6245C71.8656 54.4751 71.374 54.3564 70.8769 54.2748ZM61.0029 55.3933C60.1868 54.2143 58.1583 54.4404 56.9613 54.7555C55.4605 55.1502 53.8343 55.9488 52.7819 57.1047C51.8393 58.1402 53.2496 59.4855 54.3096 58.6142L54.5925 58.3824L54.7736 58.2355C55.5873 57.5788 56.3932 56.9844 57.3849 56.5466C58.5477 56.0335 59.7259 55.7835 60.9548 55.51C61.0031 55.4994 61.0315 55.4346 61.0029 55.3933Z" fill="#9DDADB"/>
<path fill-rule="evenodd" clip-rule="evenodd" d="M29.1529 88.7338C30.4451 85.1746 29.4744 80.6682 32.138 77.7231C32.9258 77.2442 33.3437 77.5106 33.668 78.3456C33.8637 79.4443 34.3224 83.2273 32.6728 83.2255C32.4653 85.5881 32.595 87.9679 33.1031 90.2866C34.3204 90.0913 35.208 90.717 36.0961 91.1823C36.7583 91.5292 37.4208 91.787 38.2205 91.5489C41.522 90.967 42.4629 94.4339 42.503 97.2639C42.5515 98.6446 42.6812 101.863 43.2894 103.203C46.0422 97.5021 51.8236 94.9065 57.3323 93.6249C58.1958 93.3861 58.9327 93.0597 59.4865 92.5018C64.1279 90.6692 61.8981 84.6652 64.0334 81.2145C67.3756 77.1122 71.3895 75.9318 76.4461 76.6349C80.8704 77.1241 83.8778 81.6183 83.605 85.8604C83.5232 86.7261 84.0428 87.6365 84.3484 88.5273C87.4023 92.1815 92.1542 93.8164 96.2413 96.0245C109.873 102.687 114.598 107.779 119.895 121.956C122.373 127.29 125.339 132.467 126.324 138.342C127.482 145.264 127.485 152.351 127.082 159.342C127.835 159.432 127.016 164.806 126.356 166.668C126.13 167.306 125.588 167.766 124.913 167.755C123.556 168.415 120.368 171.074 118.948 170.986C114.359 170.704 109.899 171.141 105.479 170.915C100.696 170.67 95.9598 169.778 91.1568 169.894C82.781 170.096 88.7777 170.593 80.1121 170.986C74.6417 171.238 54.6844 168.251 49.2295 168.739C44.7926 169.672 42.7684 168.098 43.4453 163.463C43.6955 161.686 44.4946 157.735 41.8658 157.567C40.6223 157.711 39.593 158.954 38.6613 159.68C30.4324 165.807 22.0259 161.395 21.3635 151.324C20.1163 142.877 18.3677 140.881 22.1689 132.445C34.1955 101.043 16.0761 105.309 28.3099 90.6007C29.2652 91.4325 29.0224 89.2124 29.1529 88.7338Z" fill="#D08B5B"/>
<path fill-rule="evenodd" clip-rule="evenodd" d="M86.8979 95.4353C79.0597 99.433 72.8612 101.432 68.3022 101.432C63.7433 101.432 55.7136 102.363 44.2132 104.224L38.5344 116.704L26.0035 119.153L25.9479 119.479C25.3375 122.981 24.1709 127.219 22.1694 132.445C18.3681 140.881 20.1167 142.877 21.3639 151.324C22.0263 161.395 30.4329 165.807 38.6617 159.68C39.5934 158.954 40.6227 157.712 41.8662 157.567C44.4424 157.732 43.7265 161.53 43.4613 163.354L43.4457 163.463C42.7688 168.098 44.793 169.672 49.2299 168.739C54.6848 168.251 74.6422 171.238 80.1125 170.986C88.7781 170.593 82.7814 170.096 91.1573 169.894C95.9602 169.778 100.697 170.67 105.479 170.915C109.667 171.129 113.891 170.748 118.225 170.947L124.914 167.755C127.388 150.043 127.012 138.429 123.786 132.913C120.577 127.426 116.28 118.405 110.894 105.85C110.812 105.762 110.729 105.675 110.645 105.588L86.8979 95.4353Z" fill="#9DDADB"/>
<path fill-rule="evenodd" clip-rule="evenodd" d="M33.7236 77.488C33.0672 76.843 32.0239 77.0034 31.3839 77.577C30.7326 78.1594 30.3405 79.075 30.0061 79.8642C29.067 82.085 28.8525 84.4378 28.6374 86.7976L28.6374 86.7978C28.5088 88.2083 28.38 89.6214 28.096 91.0102C26.7069 91.7605 25.4531 92.74 24.5651 94.0576C23.2162 96.0591 22.5761 98.3902 23.2525 100.762C23.4582 101.485 23.7485 102.176 24.0389 102.868C24.2418 103.351 24.4448 103.834 24.619 104.328C25.0712 105.607 25.348 106.936 25.4807 108.286C25.611 109.612 25.6285 110.944 25.591 112.274C25.5709 112.963 25.5346 113.651 25.4983 114.338C25.4909 114.478 25.4795 114.62 25.4681 114.762C25.4293 115.245 25.39 115.735 25.5039 116.202L25.5221 116.271C25.4645 116.262 25.4081 116.251 25.3517 116.239C25.2418 116.214 25.1348 116.186 25.0292 116.159C24.6704 116.067 24.3276 115.978 23.9376 116.029C23.5443 116.081 23.3402 116.409 23.5068 116.78C23.5794 116.941 23.6759 117.076 23.7923 117.192C23.2287 121.36 22.4312 125.491 21.6337 129.622L21.6337 129.622L21.6336 129.622C20.9956 132.927 20.3576 136.232 19.8394 139.555C19.3108 142.949 18.9889 146.352 19.1705 149.787L19.1896 150.128C19.3748 153.282 19.8297 156.758 21.4326 159.517C22.1816 160.808 23.2112 161.954 24.4587 162.78C25.03 163.158 25.6423 163.453 26.3074 163.601C29.7543 164.974 33.3992 164.637 36.6495 162.822C38.1111 162.007 39.5691 161.056 40.7627 159.876C41.3426 159.303 41.9024 158.572 42.2457 157.775C42.2453 157.833 42.2485 157.893 42.2518 157.952V157.952C42.2583 158.073 42.2649 158.195 42.2407 158.313L42.1684 158.662C42.0656 159.155 41.908 159.899 41.7198 160.787L41.7192 160.79C40.9164 164.58 39.5587 170.99 39.5365 171.641C39.5234 172.024 42.3581 172.061 43.3034 172.073H43.3035C43.4309 172.075 43.524 172.076 43.5711 172.078L43.5821 172.078C49.4987 172.325 55.4187 172.193 61.332 171.949L61.7988 171.929C63.5626 171.855 65.3742 171.772 67.2044 171.689H67.2045H67.2047L67.2051 171.689L67.207 171.689C71.3266 171.501 75.5404 171.309 79.5147 171.193C79.5234 171.194 79.5302 171.194 79.537 171.195C79.5611 171.196 79.5853 171.195 79.6954 171.19H79.6956C79.8369 171.184 80.1192 171.171 80.723 171.148C82.6036 171.105 84.4844 170.904 86.3652 170.703C88.9586 170.425 91.552 170.148 94.1451 170.283C96.854 170.425 99.5572 170.645 102.26 170.865L102.268 170.866C103.109 170.934 103.95 171.003 104.791 171.069L104.881 170.307C104.987 169.411 105.1 168.483 105.216 167.532C106.171 159.681 107.326 150.187 106.666 142.871C106.608 142.229 107.61 142.233 107.668 142.871C108.327 150.174 107.177 159.634 106.223 167.485C106.069 168.752 105.92 169.978 105.784 171.145C107.294 171.26 108.805 171.364 110.318 171.443L110.703 171.463C115.85 171.72 121.163 171.736 126.2 170.555C126.355 170.519 126.408 170.364 126.375 170.235C126.425 170.263 126.5 170.247 126.521 170.177C126.939 168.799 127.211 165.904 127.429 163.582L127.429 163.582C127.517 162.644 127.596 161.8 127.672 161.187L127.69 161.048C127.963 158.977 128.12 156.883 128.232 154.8C128.46 150.633 128.433 146.461 128.125 142.298C127.144 129.023 123.239 115.611 115.042 104.942C113.061 102.363 110.805 100.003 108.098 98.1784C105.443 96.3874 102.464 95.126 99.442 94.1016C97.4443 93.4238 95.4152 92.8439 93.3861 92.2653C93.3093 92.2269 93.2324 92.189 93.1553 92.1517L93.0391 92.0963C92.8151 91.9901 92.5921 91.8807 92.3691 91.7713L92.3689 91.7712L92.3689 91.7712C91.8737 91.5283 91.378 91.2852 90.8685 91.0754L90.7052 91.0089C89.6343 90.5794 88.3867 90.1993 87.2274 90.2124C85.3499 89.2667 83.773 87.8377 83.9258 85.5455C83.9884 84.6036 82.5105 84.6049 82.4579 85.5455C82.3201 88.048 83.8618 89.8229 85.8271 91.014L85.8177 91.0235L85.8083 91.034C85.5015 91.3822 85.1733 91.7054 84.8189 92.006C82.6971 93.8121 80.0129 95.3115 77.33 96.2984C74.1825 97.457 71.0374 97.8039 67.7821 96.8671C66.0799 96.3773 64.4729 95.622 62.9962 94.6451C62.5453 94.347 62.1132 94.0277 61.6986 93.6856C62.0906 93.1495 62.4038 92.5721 62.6668 91.9597C63.1952 90.7272 63.6325 89.0576 63.0926 87.7562C62.9599 87.4355 62.4326 87.2377 62.2484 87.646C62.0263 88.1353 61.8608 88.6418 61.6954 89.1485L61.6953 89.1486L61.6953 89.1487C61.4829 89.7989 61.2706 90.4491 60.9383 91.063C60.7129 91.4787 60.4536 91.8732 60.163 92.2452C60.163 92.2653 57.9435 92.6448 57.9435 92.6448C55.2606 92.6435 52.7343 93.6744 50.3608 94.9619C48.9578 95.7233 47.5789 96.5328 46.2041 97.3436L43.517 98.9287C43.382 99.0082 43.2358 99.0859 43.0862 99.1655L43.0181 99.2018L42.9301 99.2489L42.8757 99.2783C43.135 97.9981 43.2615 96.6929 43.1763 95.3991C43.0473 93.4476 42.2883 91.3135 40.278 90.6182C39.3273 90.2888 38.2276 90.3902 37.3045 90.756C36.8787 90.9251 36.4152 91.1493 36.0194 91.4486C35.8277 90.5869 35.0199 89.9406 34.2083 89.6551C33.9453 89.5623 33.676 89.5035 33.4029 89.4747C33.4109 89.3364 33.4117 89.1965 33.4098 89.0524L33.4079 88.9436C33.3954 88.3048 33.4004 87.666 33.4142 87.0285C33.4392 85.8198 33.4969 84.6362 33.6196 83.4312C33.6834 82.8107 33.7764 82.1946 33.8694 81.5783C33.9259 81.204 33.9824 80.8297 34.0323 80.4543L34.0871 80.0272C34.0934 79.9797 34.0999 79.9316 34.1065 79.8829C34.217 79.069 34.3483 78.1016 33.7236 77.488ZM35.2427 121.011C35.2397 120.366 36.2418 120.366 36.2448 121.011C36.265 125.475 37.4152 129.754 38.5665 134.037L38.5665 134.037C39.5222 137.593 40.4785 141.151 40.7899 144.819C40.8443 145.462 39.842 145.458 39.7879 144.819C39.4765 141.151 38.5206 137.596 37.5653 134.044L37.5653 134.044C36.4137 129.762 35.2629 125.483 35.2427 121.011ZM41.7999 95.3102C41.6484 93.4201 40.5862 91.4574 38.3918 91.7793C37.6566 91.887 36.0246 92.4532 36.369 93.4452C36.3828 93.4854 36.3978 93.5241 36.4153 93.5604C36.5506 93.7057 36.6759 93.8597 36.7886 94.0226C37.364 94.448 38.3127 94.3941 39.0418 94.3526C39.1246 94.3479 39.2047 94.3434 39.281 94.3397L39.3725 94.3357C39.9424 94.3144 40.074 95.215 39.5078 95.339C38.8502 95.4843 38.1388 95.5957 37.4587 95.5181C37.4913 95.6483 37.5176 95.7799 37.5376 95.9114L37.5378 95.9114C37.5549 95.9149 37.5715 95.9183 37.5882 95.9215C37.6022 95.9241 37.6161 95.9266 37.6303 95.9289C37.857 95.9665 38.0862 95.9652 38.3142 95.9464C38.7137 95.9165 38.998 96.3585 38.9003 96.7167C38.7939 97.1013 38.3517 97.2642 38.0073 97.0787C37.8631 97.0024 37.7255 96.9171 37.5927 96.822C37.5326 98.5341 36.5531 100.165 34.7533 100.657C34.7357 100.662 34.7194 100.661 34.7057 100.655C34.5115 101.148 34.2034 101.595 33.8189 101.957C34.3725 102.031 34.9161 102.5 35.2154 102.908C35.7778 103.68 35.977 104.886 35.3369 105.647C34.8998 106.168 34.1445 105.813 33.949 105.281C33.8354 104.975 33.8303 104.624 33.8252 104.274C33.8215 104.023 33.8178 103.772 33.7738 103.537C33.7253 103.278 33.6382 103.031 33.5515 102.785C33.4949 102.625 33.4385 102.464 33.393 102.302C32.8281 102.693 32.1518 102.915 31.444 102.885C30.6475 102.852 29.757 102.461 29.4463 101.677C29.3411 101.412 29.3261 101.161 29.3574 100.914C28.6385 101.4 27.4698 101.68 26.7797 101.202C26.5167 101.019 26.4603 100.592 26.7797 100.422C27.1257 100.237 27.4367 100.218 27.7935 100.214L28.0448 100.213C28.22 100.211 28.3946 100.199 28.569 100.187C28.8519 100.168 29.1344 100.149 29.4188 100.172C29.4601 100.176 29.4989 100.187 29.5339 100.205L29.5404 100.185C29.5973 100.009 29.6546 99.8311 29.6956 99.6501C29.385 99.5814 29.0869 99.4685 28.8013 99.2996C28.6597 99.2143 28.5257 99.0301 28.547 98.8548C28.6273 98.1905 29.2569 98.3555 29.8002 98.4979C29.9943 98.5488 30.1775 98.5968 30.3206 98.603L30.3479 98.6047C30.6469 98.6296 30.8819 98.8616 30.888 99.1692C30.8955 99.5199 30.8291 99.8505 30.7277 100.186C30.7082 100.25 30.6815 100.321 30.6531 100.397C30.5553 100.659 30.4371 100.976 30.5235 101.207C30.7715 101.861 31.8725 101.734 32.3547 101.528C33.9099 100.864 34.0252 98.9906 33.5223 97.5874L33.4907 97.5021C33.2076 96.762 32.7379 95.9904 31.9927 95.6433C31.304 95.3238 30.492 95.3645 29.7466 95.4482L29.5565 95.4705C28.6622 95.5782 27.7667 95.7599 26.8924 95.9815C26.7611 96.0147 26.6302 96.0488 26.4994 96.0829C25.8096 96.2626 25.1245 96.4412 24.4074 96.4675C24.3885 96.4687 24.3725 96.4612 24.3598 96.4512C24.088 97.1213 23.9277 97.8302 23.9039 98.5592C23.8662 99.7066 24.2133 100.787 24.6341 101.84C24.7165 102.046 24.8002 102.251 24.8839 102.455C25.2324 103.309 25.5793 104.159 25.8228 105.054C26.1221 106.147 26.3139 107.273 26.4365 108.399C26.5781 109.685 26.6131 110.982 26.5968 112.274C26.5881 112.963 26.5668 113.651 26.5317 114.338L26.5285 114.407C26.5238 114.517 26.5209 114.628 26.5179 114.74C26.5043 115.261 26.4902 115.797 26.2925 116.271C26.2762 116.311 26.2537 116.347 26.2273 116.38C26.2971 116.389 26.3669 116.397 26.4368 116.405L27.1114 116.479C28.0477 116.579 28.987 116.652 29.9273 116.687C30.9005 116.722 31.9038 116.713 32.8682 116.578C33.5671 116.48 34.2209 116.296 34.8785 116.093C34.572 115.442 34.7782 114.621 34.9594 113.901L34.9594 113.9C34.9762 113.834 34.9927 113.768 35.0086 113.703L35.0687 113.455C35.313 112.461 35.6273 111.487 36.0496 110.553C36.493 109.573 37.0353 108.671 37.6704 107.802L37.7362 107.711L37.9818 107.374C38.3556 106.864 38.7668 106.333 39.2473 105.939C39.3876 105.669 39.5128 105.387 39.6368 105.106C40.0439 104.177 40.3783 103.212 40.6864 102.247C40.8781 101.645 41.0609 101.034 41.2238 100.416C41.6584 98.7471 41.9365 97.0261 41.7999 95.3102ZM33.1036 90.5155C34.0743 90.5155 34.9913 90.8324 35.7253 91.6954C35.4635 91.9446 35.2543 92.234 35.139 92.5734C34.7796 92.3768 34.3989 92.2228 34.0093 92.1137C32.8207 91.7818 31.1949 91.7868 30.1954 92.6022C29.6719 93.0281 30.2468 93.7921 30.8104 93.6606C30.9888 93.619 31.1589 93.5649 31.3276 93.5112C31.6364 93.4129 31.9408 93.3161 32.2834 93.2999C32.743 93.2773 33.1939 93.3374 33.6348 93.4702C34.3074 93.6732 34.9187 94.0576 35.3683 94.5875C35.5186 94.7653 35.6501 94.9582 35.7604 95.1663C36.5995 96.7593 35.967 99.0439 34.8084 100.355C35.2631 98.8448 34.8097 97.0637 33.9041 95.8126C32.8139 94.306 31.1832 94.1353 29.4654 94.3704L29.4087 94.3783C27.7467 94.6126 25.6888 95.0221 24.4464 96.2433C24.5703 95.9615 24.7131 95.6884 24.8736 95.4241C25.8154 93.8735 27.3772 92.6636 28.998 91.8006C29.2698 91.6541 29.5441 91.5188 29.8172 91.3935C30.8555 90.9163 32.0128 90.5155 33.1036 90.5155ZM32.5768 78.6993L32.573 78.6817C32.5254 78.6956 32.484 78.7256 32.449 78.7718C32.2886 78.9735 32.1471 79.1626 32.0156 79.3881C31.0667 81.0197 30.6997 82.8476 30.3334 84.672C30.3193 84.7423 30.3051 84.8125 30.291 84.8828L30.222 85.2236C30.0319 86.1517 29.894 87.0887 29.7562 88.0258C29.6397 88.8174 29.5232 89.609 29.3753 90.3953C29.6333 90.285 29.8926 90.181 30.1531 90.0822C30.8796 89.809 31.6787 89.5523 32.4776 89.4759C32.3131 88.976 32.249 88.4195 32.1897 87.9042C32.174 87.7687 32.1588 87.6361 32.1421 87.5082L32.1219 87.3473C31.9856 86.2187 31.9621 85.0431 32.0231 83.9097C32.0693 83.0399 32.1858 82.1742 32.302 81.3101C32.3433 81.0033 32.3846 80.6967 32.4227 80.3901L32.432 80.3172C32.4482 80.1971 32.4679 80.0731 32.488 79.9472C32.5539 79.5341 32.6232 79.0995 32.5792 78.7092L32.5768 78.6993Z" fill="black"/>
<path fill-rule="evenodd" clip-rule="evenodd" d="M73.8318 36.772C66.7349 36.772 57.5741 41.2332 56.7929 45.8023C55.8723 51.1869 50.9427 71.8481 52.0559 78.4739C53.169 85.0996 59.1677 89.8693 68.7666 89.8693C78.3654 89.8693 85.5299 84.6236 87.1749 82.8225C88.82 81.0213 91.8686 74.5907 91.8686 74.5907C91.8686 74.5907 97.008 73.9058 97.0324 69.7075C97.0567 65.5092 93.6909 63.9818 93.6909 63.9818C93.6909 63.9818 94.891 47.4135 91.8686 43.0999C88.8461 38.7864 80.9286 36.772 73.8318 36.772Z" fill="#D08B5B"/>
<path fill-rule="evenodd" clip-rule="evenodd" d="M57.2269 45.065C57.232 44.9687 57.092 44.9574 57.0658 45.0426C55.5346 50.1116 54.5909 54.0619 53.5973 59.2587L53.3039 60.7874C52.5198 64.8648 51.7276 68.9481 51.0587 73.0452L51.0194 73.2898C50.6844 75.4106 50.4912 77.5521 50.9112 79.6773C51.3037 81.6638 52.3761 83.4849 53.7684 84.9354C56.4594 87.7386 60.1992 89.4895 63.9612 90.2723C65.8635 90.6681 67.8258 90.8209 69.7644 90.6832C70.7307 90.6154 71.6954 90.4789 72.6416 90.2774L72.746 90.255C73.6998 90.0486 74.5462 89.8025 75.0527 88.9032C75.1801 88.6766 75.1288 88.2884 74.8614 88.1719C74.3564 87.9538 73.9852 87.8625 73.4341 87.9251C72.9079 87.9851 72.3941 88.1443 71.8742 88.2433C70.8805 88.4324 69.8706 88.5275 68.8595 88.5501C66.8734 88.594 64.8824 88.3447 62.9838 87.751C59.7217 86.7302 56.4069 84.7775 54.5009 81.8567C52.2587 78.4206 53.1515 74.2505 53.7457 70.4559L53.7636 70.341C54.3651 66.4624 54.9598 62.5838 55.5371 58.7027L55.7834 57.0392C56.4307 52.6441 57.0419 49.5066 57.2269 45.065ZM90.3477 34.3073C88.7195 33.2319 86.6963 32.9677 84.784 32.9825L84.5445 32.9855C82.0959 33.0229 69.77 33.3169 65.6432 33.4073L64.6614 33.4281C63.362 33.4526 60.7413 33.4783 59.3911 33.503L59.3132 33.5045C58.6508 33.517 57.9883 33.522 57.3259 33.5433L57.2288 33.5468C56.7326 33.568 56.3197 33.6424 55.931 33.9929C55.7334 34.1706 55.6563 34.4415 55.6744 34.6996L55.6773 34.7332L54.6937 34.8196C54.0257 34.8788 53.6726 35.4791 53.9379 36.0866L53.9512 36.116C54.4224 37.123 54.7824 40.0539 55.0349 41.1373C55.1674 41.7072 55.2737 42.2859 55.3362 42.8683C55.3861 43.3268 55.3911 43.7864 55.6461 44.1897C56.1899 45.0502 57.7196 45.0427 57.7471 43.824C57.7484 43.7851 57.7471 43.7476 57.7434 43.7112C61.593 43.5422 66.8487 43.5584 70.6933 43.7889C74.2842 44.0043 77.8589 44.4928 81.3773 45.2406C82.2684 45.4297 83.1571 45.6364 84.0395 45.8606C84.7632 46.0434 85.6519 46.1524 86.2993 46.5444C87.0242 46.9853 87.0105 47.7757 86.9317 48.5284C86.8472 49.3263 86.7063 48.9152 86.5066 49.6423L86.4943 49.6883C86.288 50.4774 86.0331 51.2577 85.6956 51.9992C85.5031 52.4225 85.193 52.8296 85.3106 53.3168C85.3769 53.5911 85.5932 53.8842 85.7918 54.0758C86.6969 54.9463 88.2266 54.3915 88.8415 55.5839C89.4851 56.8307 89.5011 58.5198 89.5557 59.8994L89.559 59.9802C89.5988 60.9309 89.5877 61.8841 89.5252 62.8322C89.469 63.6963 89.2391 64.5519 89.534 65.3823C89.7491 65.9861 90.4514 66.0424 90.8189 65.5514C90.861 65.4951 90.8997 65.4373 90.9359 65.3792L90.9713 65.321L90.9737 65.3222C90.9388 65.3773 90.9063 65.4338 90.8751 65.4913C90.8414 65.5552 90.9251 65.6253 90.9763 65.5702C91.8413 64.6271 93.1049 64.815 94.0835 65.475C95.0747 66.1464 95.4659 67.4214 95.5171 68.5651C95.5746 69.8337 95.4621 71.3207 94.9347 72.4929C94.7122 72.9889 94.3949 73.4448 93.8686 73.6339C93.6297 73.7191 93.4024 73.7078 93.1536 73.7279C92.895 73.7478 92.5837 73.8782 92.3326 73.8606C92.0061 73.8374 91.713 74.2108 91.8057 74.5238L91.8125 74.5445C91.8174 74.5596 91.8225 74.5746 91.8274 74.5884C91.815 74.5996 91.8025 74.6134 91.7938 74.6335C90.8439 76.5786 89.5415 78.3096 88.1016 79.9153C87.3803 80.7182 86.5805 81.4559 85.7444 82.1386C85.3319 82.4755 84.8969 82.8125 84.4382 83.0842C84.2857 83.173 84.1459 83.2333 83.9744 83.2822C83.8945 83.3046 83.8033 83.3159 83.7258 83.3422L83.6453 83.3698C83.6398 83.3716 83.6346 83.3733 83.6296 83.3748C83.3996 83.4011 83.2059 83.5539 83.1296 83.7931C82.9309 84.4169 83.2921 84.968 83.9095 85.1396C84.5785 85.3271 85.2089 84.9979 85.7391 84.62L85.7744 84.5947C86.8555 83.8145 87.8516 82.9389 88.7141 81.9169C90.4201 79.899 91.4889 77.5631 91.9836 74.9791C92.1062 75.2434 92.2712 75.4739 92.5574 75.6342C93.0024 75.8847 93.5336 75.8847 94.021 75.8008C95.0022 75.6342 95.8384 75.0343 96.3971 74.2226C96.9771 73.3809 97.1932 72.3589 97.3245 71.3631C97.4545 70.366 97.5182 69.3654 97.3882 68.3658C97.2019 66.9305 96.6008 65.5114 95.4322 64.7248C96.3071 62.8147 96.4608 60.6729 96.3983 58.5812C96.3221 56.006 95.8784 53.402 95.5371 50.8506L94.5671 43.5973L94.5274 43.3049C94.2933 41.5985 94.0084 39.8831 93.3711 38.2753C92.7424 36.6909 91.7875 35.258 90.3477 34.3073ZM94.4294 68.6212C92.8271 67.8422 91.096 68.5599 90.2336 70.0717C89.4837 71.3861 91.7132 72.2548 92.0852 70.9L92.0959 70.8582C92.3409 69.8324 93.3384 68.9456 94.3794 68.8079C94.4657 68.7955 94.5295 68.6702 94.4294 68.6212Z" fill="black"/>
<path fill-rule="evenodd" clip-rule="evenodd" d="M68.1631 81.5392C68.1631 81.5392 66.3885 82.9092 63.079 82.9092C59.7696 82.9092 57.8473 81.6836 57.8473 81.6836C57.8473 81.6836 60.7481 79.9215 63.079 79.7788C65.4099 79.6361 68.1631 81.5392 68.1631 81.5392Z" fill="#FF6C6C"/>
<path fill-rule="evenodd" clip-rule="evenodd" d="M72.1093 78.0563C72.0962 76.6763 70.9003 76.4383 69.7643 76.6223C67.841 76.9334 65.9107 77.1524 63.9614 77.1918L63.6254 77.1977C63.5713 77.1188 63.4809 77.0589 63.3581 77.0458C62.2776 76.9291 61.1738 76.948 60.0873 76.9159C59.1395 76.8881 58.1656 76.7933 57.2179 76.8677L57.1425 76.8743C55.9843 76.9865 54.762 77.5776 54.9019 78.9369C55.0305 80.1955 56.2337 81.3098 57.1945 82.0092C57.3888 82.1493 57.5874 82.2807 57.7918 82.4004C57.856 82.4822 57.9495 82.5392 58.0576 82.5509C59.0038 83.0619 60.0477 83.3643 61.1284 83.465C63.4195 83.6781 66.083 83.4474 68.2836 82.4546C68.999 82.1318 69.6663 81.7287 70.2563 81.2337C71.166 80.4701 72.1195 79.3121 72.1093 78.0563ZM62.9564 80.542C63.8749 80.5143 64.7919 80.6428 65.6666 80.9261C66.2595 81.1174 66.7998 81.4852 67.3678 81.7409C65.4535 82.471 63.2295 82.6302 61.2655 82.4973C60.4039 82.4389 59.5686 82.2403 58.7903 81.8986C58.9115 81.811 59.0343 81.722 59.1628 81.6444C59.5511 81.4093 59.9571 81.2093 60.3806 81.0501C61.2055 80.7406 62.0759 80.5698 62.9564 80.542ZM62.7742 68.7247C63.022 68.5469 62.8253 67.9577 62.2958 68.0488C57.4865 68.8751 59.9784 77.1593 66.1187 72.6133C66.8497 72.0235 65.9644 70.7246 65.1765 71.2296L64.8967 71.4453C63.9871 72.1425 62.4826 73.1965 61.4047 72.0655C60.3872 70.6402 61.8283 69.2996 62.7742 68.7247ZM59.518 62.4546C58.4957 61.5823 57.2134 62.2252 56.4608 63.1086L56.3281 63.2666C56.1776 63.4468 56.0108 63.6568 55.9106 63.8812C55.0766 63.171 53.9456 62.6713 52.8633 62.9957C51.8137 63.3114 51.2151 64.3135 51.3953 65.3892C51.5998 66.6126 52.5255 67.4349 53.52 68.0707L53.8021 68.2498C54.9973 69.0117 56.1156 69.7793 57.0993 70.8266C57.2597 70.9968 57.6066 70.9742 57.7118 70.7476L57.7965 70.5653L57.8821 70.383C58.5799 68.8952 59.3275 67.4171 59.9414 65.8941C60.396 64.7655 60.5437 63.3288 59.518 62.4546ZM71.0164 63.0647C70.2674 62.1929 68.9986 61.6093 67.9977 62.4547C66.9319 63.3553 67.1411 64.8445 67.6158 65.9931C68.1875 67.3784 68.8551 68.7331 69.4966 70.0919L69.6336 70.3832C69.6912 70.5046 69.7476 70.6261 69.8038 70.7476C69.9092 70.9743 70.2573 70.9969 70.4165 70.8265C71.3695 69.812 72.4478 69.0613 73.5995 68.3235L73.9472 68.1023C74.9581 67.461 75.9138 66.6331 76.1217 65.3894C76.2995 64.3159 75.7046 63.3077 74.6537 62.9957C73.569 62.6739 72.4405 63.1699 71.6051 63.8813C71.5055 63.6512 71.3341 63.4344 71.1722 63.2448L71.0164 63.0647ZM69.8016 56.9908C69.4357 57.4658 69.8264 58.2419 70.3606 58.3647C71.0221 58.5169 71.6905 58.4243 72.34 58.6131C72.9352 58.786 73.5054 59.1326 74.0155 59.478C74.5973 59.8718 75.1332 60.3115 75.6255 60.8124C75.9184 61.1103 76.2874 61.8163 76.739 61.8294C77.188 61.8426 76.5853 60.4384 76.5355 60.3169C76.1814 59.452 75.684 58.6561 75.0619 57.959C73.8343 56.5834 71.2344 55.1318 69.8016 56.9908ZM56.0923 56.6107L55.7859 56.6958C55.0276 56.9066 54.2181 57.1657 53.5675 57.6202L53.5164 57.6564L53.4377 57.714C52.621 58.3229 51.4658 59.5378 52.0442 60.5977C52.0842 60.6707 52.1688 60.678 52.237 60.6482C53.0065 60.3111 53.5771 59.638 54.3956 59.3564L54.5466 59.305C55.3393 59.038 56.32 58.7573 57.1733 58.7828C57.7732 58.9778 58.5835 58.8163 58.7397 58.086L58.7467 58.0502L58.7602 57.9745C58.8502 57.4755 58.7164 56.8394 58.2005 56.5989C57.4936 56.2694 56.804 56.416 56.0923 56.6107Z" fill="black"/>
</svg>
