<svg width="98" height="76" viewBox="0 0 98 76" fill="none" xmlns="http://www.w3.org/2000/svg">
<mask id="mask0_41_6726" style="mask-type:luminance" maskUnits="userSpaceOnUse" x="-14" y="-22" width="92" height="64">
<path d="M-12.9202 17.2554C-12.9012 15.7055 -12.5365 14.1556 -12.0807 12.6817C-11.7996 11.7852 -11.3703 10.8431 -10.8727 10.0453C-10.4662 9.39571 -10.1699 8.67014 -9.75961 8.03195C-9.167 7.11264 -8.37685 6.53142 -7.25621 6.87711C-5.90384 7.29498 -4.73001 8.38144 -3.34346 8.69294C-2.09745 8.97025 -0.551343 9.06142 0.519916 8.32445C1.12392 7.90659 1.73933 7.62927 2.27116 7.10504C2.90176 6.48584 3.36521 5.70329 3.82486 4.95492C4.14396 4.43829 4.34909 3.70512 4.55423 3.1429C4.82394 2.40594 5.07467 1.64998 5.36717 0.92061C5.63689 0.248224 6.03196 -0.340588 6.36245 -0.978785C6.69295 -1.61698 7.30455 -2.29696 8.0871 -2.38434C9.32551 -2.52109 10.4727 -1.93228 11.6276 -1.57899C13.0863 -1.12694 14.8376 -1.06616 16.0076 -2.21719C17.2422 -3.42521 17.9108 -4.93713 18.8681 -6.34268C19.3999 -7.12143 19.6544 -7.97996 20.0305 -8.84608C20.3306 -9.54506 20.7447 -10.1377 21.1549 -10.7683C21.8995 -11.9155 22.9898 -12.6677 24.3763 -12.812C24.6954 -12.8462 24.9993 -12.9146 25.3108 -12.9564C25.7325 -13.0096 26.1124 -12.888 26.5226 -12.8158C27.2938 -12.6829 28.0915 -12.3979 28.8665 -12.4093C30.6253 -12.4359 32.7033 -12.5347 34.2342 -13.5072C35.6321 -14.3961 36.7946 -15.5282 37.9 -16.7438C38.8003 -17.7315 39.6437 -18.8635 40.6617 -19.7258C42.0521 -20.9034 43.8907 -21.2453 45.6647 -21.3441C46.698 -21.4049 47.7389 -21.4353 48.7797 -21.4847C50.0599 -21.5416 51.2983 -21.5644 52.5747 -21.4505C53.7258 -21.3479 54.8084 -21.2681 55.9405 -21.0402C57.2131 -20.7857 58.4895 -20.6223 59.7544 -20.326C61.1372 -20.0031 62.406 -19.6954 63.7242 -19.137C64.1535 -18.9547 64.6017 -18.8369 65.0196 -18.6318C65.654 -18.3203 66.2618 -17.8796 66.8582 -17.5073C68.6816 -16.3639 70.2429 -14.833 71.8156 -13.3704C73.2781 -12.0067 72.1157 -9.76919 71.4699 -8.28386C70.8241 -6.79853 69.8706 -5.44616 69.0995 -3.99123C68.3283 -2.53629 67.1963 -1.22951 66.9532 0.441961C66.6493 2.56549 66.9114 5.0119 68.1346 6.82393C69.449 8.76891 71.299 10.2694 72.8109 12.0473C73.4377 12.7842 74.0607 13.5174 74.6495 14.2848C75.3637 15.2155 75.8461 16.3741 76.359 17.4302C76.7236 18.1861 77.0655 19.1244 77.1567 19.9753C77.2479 20.8263 77.0579 21.7266 76.982 22.5661C76.9592 22.813 76.9592 23.0334 76.8984 23.2803C76.6363 24.3516 76.1804 25.5596 75.5498 26.4751C74.6723 27.7515 73.8935 29.0658 72.8109 30.1827C72.0511 30.969 71.1128 31.4705 70.2125 32.0669C69.6503 32.4392 69.1641 32.8305 68.5639 33.1306C67.6483 33.5902 66.6948 33.9701 65.7717 34.4069C65.3235 34.6197 64.9474 34.8096 64.4536 34.9122C63.4621 35.1173 62.425 34.992 61.4373 35.1971C61.0802 35.2693 61.0308 35.2959 60.5902 35.2503C59.7886 35.1705 58.801 35.1173 58.0526 34.7944C57.0459 34.3652 56.1418 33.7574 55.2073 33.1951C54.5729 32.8153 53.9081 32.4658 53.3117 32.0289C52.0695 31.1134 51.0894 29.8408 50.0789 28.6784C49.3838 27.8806 48.6734 27.0981 48.0884 26.213C47.9022 25.9318 47.7693 25.6165 47.5679 25.343C46.9449 24.4845 45.942 23.7285 44.9734 23.3107C42.8688 22.4066 40.8023 22.8624 39.2106 24.5187C38.1659 25.6051 37.4745 27.1893 36.8401 28.5416C36.1488 30.0042 35.446 31.1894 34.5267 32.5379C33.4478 34.122 32.179 35.577 30.7697 36.9066C29.5807 38.0272 28.3233 38.8249 26.9139 39.6721C25.7629 40.3635 24.4523 41.0206 23.1531 41.3587C22.6935 41.4765 22.1692 41.4879 21.6982 41.5601C20.7067 41.712 19.7646 41.902 18.7579 41.8602C16.6078 41.769 14.1348 41.3587 12.4443 39.9076C11.7909 39.3454 11.3275 38.9617 11.2287 38.0424C11.1679 37.465 11.1793 36.9256 11.0312 36.3519C9.94091 37.2446 8.93803 38.2399 7.84018 39.1288C6.81071 39.9608 5.51912 40.428 4.30351 40.9105C2.82958 41.4955 1.28347 41.3701 -0.289227 41.3169C-1.0148 41.2942 -1.58082 41.0548 -2.27979 40.8307C-2.81542 40.6598 -3.30167 40.5306 -3.78791 40.2609C-6.0254 39.0073 -6.41288 36.1468 -6.53444 33.8257C-6.58002 32.9292 -6.43567 32.0023 -6.20015 31.1362C-6.0406 30.5436 -5.82406 29.951 -5.65312 29.3584C-5.57714 29.1 -5.42139 28.7733 -5.45558 28.496C-5.55055 27.6983 -7.25241 28.1351 -7.73865 28.2073C-8.14133 28.2681 -8.63137 28.4428 -9.04924 28.3897C-9.51269 28.3327 -10.0787 28.0744 -10.4814 27.8312C-10.8841 27.5881 -10.9258 27.4362 -11.1348 26.9309C-11.2525 26.646 -11.4273 26.4067 -11.5564 26.1332C-11.792 25.6317 -11.8603 24.9859 -12.0009 24.4541C-12.1073 24.0552 -12.1491 23.7361 -12.1642 23.3183C-12.1946 22.4977 -12.3618 21.7 -12.396 20.8795C-12.4226 20.2337 -12.3618 19.4967 -12.6087 18.9041C-12.7796 18.4976 -12.9468 17.8518 -13.0152 17.396C-13.0798 16.9705 -13.0646 16.4994 -12.6049 16.3931" fill="white"/>
</mask>
<g mask="url(#mask0_41_6726)">
<path d="M-12.9202 17.2554C-12.9012 15.7055 -12.5365 14.1556 -12.0807 12.6817C-11.7996 11.7852 -11.3703 10.8431 -10.8727 10.0453C-10.4662 9.39571 -10.1699 8.67014 -9.75961 8.03195C-9.167 7.11264 -8.37685 6.53142 -7.25621 6.87711C-5.90384 7.29498 -4.73001 8.38144 -3.34346 8.69294C-2.09745 8.97025 -0.551343 9.06142 0.519916 8.32445C1.12392 7.90659 1.73933 7.62927 2.27116 7.10504C2.90176 6.48584 3.36521 5.70329 3.82486 4.95492C4.14396 4.43829 4.34909 3.70512 4.55423 3.1429C4.82394 2.40594 5.07467 1.64998 5.36717 0.92061C5.63689 0.248224 6.03196 -0.340588 6.36245 -0.978785C6.69295 -1.61698 7.30455 -2.29696 8.0871 -2.38434C9.32551 -2.52109 10.4727 -1.93228 11.6276 -1.57899C13.0863 -1.12694 14.8376 -1.06616 16.0076 -2.21719C17.2422 -3.42521 17.9108 -4.93713 18.8681 -6.34268C19.3999 -7.12143 19.6544 -7.97996 20.0305 -8.84608C20.3306 -9.54506 20.7447 -10.1377 21.1549 -10.7683C21.8995 -11.9155 22.9898 -12.6677 24.3763 -12.812C24.6954 -12.8462 24.9993 -12.9146 25.3108 -12.9564C25.7325 -13.0096 26.1124 -12.888 26.5226 -12.8158C27.2938 -12.6829 28.0915 -12.3979 28.8665 -12.4093C30.6253 -12.4359 32.7033 -12.5347 34.2342 -13.5072C35.6321 -14.3961 36.7946 -15.5282 37.9 -16.7438C38.8003 -17.7315 39.6437 -18.8635 40.6617 -19.7258C42.0521 -20.9034 43.8907 -21.2453 45.6647 -21.3441C46.698 -21.4049 47.7389 -21.4353 48.7797 -21.4847C50.0599 -21.5416 51.2983 -21.5644 52.5747 -21.4505C53.7258 -21.3479 54.8084 -21.2681 55.9405 -21.0402C57.2131 -20.7857 58.4895 -20.6223 59.7544 -20.326C61.1372 -20.0031 62.406 -19.6954 63.7242 -19.137C64.1535 -18.9547 64.6017 -18.8369 65.0196 -18.6318C65.654 -18.3203 66.2618 -17.8796 66.8582 -17.5073C68.6816 -16.3639 70.2429 -14.833 71.8156 -13.3704C73.2781 -12.0067 72.1157 -9.76919 71.4699 -8.28386C70.8241 -6.79853 69.8706 -5.44616 69.0995 -3.99123C68.3283 -2.53629 67.1963 -1.22951 66.9532 0.441961C66.6493 2.56549 66.9114 5.0119 68.1346 6.82393C69.449 8.76891 71.299 10.2694 72.8109 12.0473C73.4377 12.7842 74.0607 13.5174 74.6495 14.2848C75.3637 15.2155 75.8461 16.3741 76.359 17.4302C76.7236 18.1861 77.0655 19.1244 77.1567 19.9753C77.2479 20.8263 77.0579 21.7266 76.982 22.5661C76.9592 22.813 76.9592 23.0334 76.8984 23.2803C76.6363 24.3516 76.1804 25.5596 75.5498 26.4751C74.6723 27.7515 73.8935 29.0658 72.8109 30.1827C72.0511 30.969 71.1128 31.4705 70.2125 32.0669C69.6503 32.4392 69.1641 32.8305 68.5639 33.1306C67.6483 33.5902 66.6948 33.9701 65.7717 34.4069C65.3235 34.6197 64.9474 34.8096 64.4536 34.9122C63.4621 35.1173 62.425 34.992 61.4373 35.1971C61.0802 35.2693 61.0308 35.2959 60.5902 35.2503C59.7886 35.1705 58.801 35.1173 58.0526 34.7944C57.0459 34.3652 56.1418 33.7574 55.2073 33.1951C54.5729 32.8153 53.9081 32.4658 53.3117 32.0289C52.0695 31.1134 51.0894 29.8408 50.0789 28.6784C49.3838 27.8806 48.6734 27.0981 48.0884 26.213C47.9022 25.9318 47.7693 25.6165 47.5679 25.343C46.9449 24.4845 45.942 23.7285 44.9734 23.3107C42.8688 22.4066 40.8023 22.8624 39.2106 24.5187C38.1659 25.6051 37.4745 27.1893 36.8401 28.5416C36.1488 30.0042 35.446 31.1894 34.5267 32.5379C33.4478 34.122 32.179 35.577 30.7697 36.9066C29.5807 38.0272 28.3233 38.8249 26.9139 39.6721C25.7629 40.3635 24.4523 41.0206 23.1531 41.3587C22.6935 41.4765 22.1692 41.4879 21.6982 41.5601C20.7067 41.712 19.7646 41.902 18.7579 41.8602C16.6078 41.769 14.1348 41.3587 12.4443 39.9076C11.7909 39.3454 11.3275 38.9617 11.2287 38.0424C11.1679 37.465 11.1793 36.9256 11.0312 36.3519C9.94091 37.2446 8.93803 38.2399 7.84018 39.1288C6.81071 39.9608 5.51912 40.428 4.30351 40.9105C2.82958 41.4955 1.28347 41.3701 -0.289227 41.3169C-1.0148 41.2942 -1.58082 41.0548 -2.27979 40.8307C-2.81542 40.6598 -3.30167 40.5306 -3.78791 40.2609C-6.0254 39.0073 -6.41288 36.1468 -6.53444 33.8257C-6.58002 32.9292 -6.43567 32.0023 -6.20015 31.1362C-6.0406 30.5436 -5.82406 29.951 -5.65312 29.3584C-5.57714 29.1 -5.42139 28.7733 -5.45558 28.496C-5.55055 27.6983 -7.25241 28.1351 -7.73865 28.2073C-8.14133 28.2681 -8.63137 28.4428 -9.04924 28.3897C-9.51269 28.3327 -10.0787 28.0744 -10.4814 27.8312C-10.8841 27.5881 -10.9258 27.4362 -11.1348 26.9309C-11.2525 26.646 -11.4273 26.4067 -11.5564 26.1332C-11.792 25.6317 -11.8603 24.9859 -12.0009 24.4541C-12.1073 24.0552 -12.1491 23.7361 -12.1642 23.3183C-12.1946 22.4977 -12.3618 21.7 -12.396 20.8795C-12.4226 20.2337 -12.3618 19.4967 -12.6087 18.9041C-12.7796 18.4976 -12.9468 17.8518 -13.0152 17.396C-13.0798 16.9705 -13.0646 16.4994 -12.6049 16.3931" fill="#8FA7DF"/>
<path d="M-12.4452 17.2555C-12.4034 15.151 -11.8525 12.8945 -10.8801 11.0217C-10.4242 10.148 -9.94555 9.24765 -9.43271 8.40811C-9.00725 7.71673 -8.40324 7.09373 -7.52192 7.29127C-6.6406 7.48881 -5.81247 8.108 -4.99953 8.53347C-4.18659 8.95893 -3.44202 9.18686 -2.5721 9.29703C-1.70218 9.40719 -0.836052 9.40339 -0.0269089 9.11849C0.368165 8.97793 0.69486 8.769 1.04435 8.54487C1.46981 8.27516 1.90288 8.02823 2.29415 7.71293C3.78328 6.51252 4.51644 4.6625 5.13944 2.92266C5.50413 1.90838 5.84602 0.916895 6.37785 -0.0214062C6.78052 -0.735579 7.1718 -1.73846 8.08351 -1.9094C9.07119 -2.09554 10.1273 -1.5941 11.0352 -1.2788C11.8367 -1.00149 12.6686 -0.800158 13.5234 -0.803955C14.3249 -0.807755 15.1493 -0.997692 15.8178 -1.44975C16.5548 -1.94739 17.117 -2.69955 17.6109 -3.42512C18.1541 -4.23046 18.6176 -5.08519 19.1532 -5.89433C19.6888 -6.70348 20.0307 -7.60379 20.4106 -8.5079C20.7905 -9.41201 21.3071 -10.2743 21.9187 -10.9885C22.4543 -11.6153 23.1533 -12.0712 23.9587 -12.2611C24.3917 -12.3637 24.8552 -12.4245 25.2958 -12.4776C25.8239 -12.5422 26.3975 -12.3751 26.9103 -12.2611C27.8828 -12.0446 28.7641 -11.923 29.7594 -11.9648C31.5866 -12.037 33.3683 -12.3181 34.8992 -13.378C36.4301 -14.4378 37.8052 -15.8776 39.0513 -17.3325C39.6819 -18.0695 40.3162 -18.833 41.0722 -19.4484C41.8282 -20.0638 42.6943 -20.3943 43.6022 -20.6033C44.5101 -20.8122 45.4674 -20.873 46.4095 -20.9148C47.5074 -20.9679 48.6014 -21.0211 49.6993 -21.0515C51.8722 -21.1085 54.0527 -20.9223 56.1914 -20.5197C58.2997 -20.1208 60.4232 -19.7979 62.467 -19.1179C63.4433 -18.7912 64.4842 -18.4417 65.3693 -17.9099C66.205 -17.4085 67.0407 -16.869 67.8195 -16.2802C68.6476 -15.6572 69.4264 -14.962 70.1861 -14.2555C70.5394 -13.9288 70.8927 -13.5983 71.2422 -13.2678C71.5727 -12.9601 71.8614 -12.679 71.9868 -12.2307C72.1843 -11.5089 71.9526 -10.7264 71.7094 -10.0464C71.4321 -9.26766 71.0826 -8.4965 70.7104 -7.75954C70.2507 -6.85543 69.7075 -6.0007 69.1985 -5.12318C68.716 -4.29125 68.2487 -3.45931 67.7473 -2.63877C67.2459 -1.81823 66.8166 -1.04328 66.5963 -0.146763C66.3759 0.74975 66.3456 1.65006 66.3835 2.53518C66.4633 4.3472 66.98 6.06805 68.0664 7.53059C69.2326 9.09949 70.6914 10.3949 72.002 11.8346C72.6933 12.5944 73.3543 13.3883 73.9925 14.1937C74.6307 14.999 75.1056 15.8689 75.5424 16.792C75.9793 17.7151 76.4352 18.6155 76.6327 19.6183C76.8302 20.6212 76.5909 21.6887 76.5035 22.7182C76.3402 24.6821 75.0828 26.3764 74.0039 27.9453C73.4227 28.7886 72.8035 29.6358 72.0134 30.2967C71.2802 30.9083 70.4255 31.3566 69.6429 31.8998C68.7844 32.4962 67.9031 32.9521 66.9458 33.3776C66.053 33.7726 65.1375 34.3387 64.1651 34.502C63.618 34.5932 63.0596 34.5856 62.5126 34.616C62.0339 34.6426 61.5781 34.7413 61.107 34.8021C60.7499 34.8477 60.3701 34.7717 60.0168 34.7375C59.5457 34.6919 59.0709 34.635 58.6112 34.502C57.6425 34.2209 56.7574 33.5941 55.9027 33.0737C55.048 32.5532 54.0831 32.0746 53.2853 31.4212C52.537 30.8058 51.895 30.0764 51.2644 29.3433C50.6034 28.5721 49.9234 27.8161 49.2814 27.0298C48.6394 26.2434 48.2139 25.2975 47.5226 24.553C46.9034 23.8844 46.1246 23.326 45.2965 22.9575C43.72 22.2547 41.9611 22.2091 40.4188 23.0297C38.7511 23.9186 37.7635 25.5597 36.9695 27.2083C36.1148 28.9786 35.2411 30.6918 34.128 32.3215C33.015 33.9512 31.6094 35.5847 30.0747 36.9332C28.54 38.2818 26.8533 39.3037 25.0983 40.147C24.141 40.6105 23.1723 40.9448 22.1124 41.0587C21.1134 41.1651 20.1333 41.4044 19.1228 41.412C17.3792 41.4272 15.457 41.1423 13.8957 40.3256C13.2309 39.9761 12.5129 39.4898 12.0494 38.8858C11.4986 38.1716 11.7 37.0852 11.5024 36.2457C11.415 35.8696 10.9668 35.824 10.7085 36.0367C9.3827 37.1308 8.18988 38.5021 6.69315 39.3607C5.2724 40.1736 3.61233 40.8384 1.96746 40.903C1.12412 40.9372 0.201018 40.9599 -0.634715 40.8346C-1.40207 40.7168 -2.19222 40.4091 -2.92159 40.1508C-4.22077 39.6874 -5.06031 38.6237 -5.49337 37.3397C-5.89984 36.1279 -6.06319 34.7869 -6.06319 33.5143C-6.06319 32.6368 -5.88464 31.7707 -5.63392 30.9311C-5.50097 30.4867 -5.35281 30.0422 -5.21226 29.5978C-5.10589 29.2483 -4.94634 28.895 -4.96914 28.5227C-5.04131 27.3565 -6.57223 27.554 -7.35098 27.687C-7.89041 27.7781 -8.51341 28.0175 -9.05283 27.9339C-9.64545 27.8427 -10.371 27.5312 -10.6103 26.9614C-10.7737 26.5739 -11.013 26.2206 -11.1688 25.8332C-11.3359 25.4077 -11.3929 24.9442 -11.4955 24.5036C-11.7196 23.5615 -11.7538 22.5738 -11.8563 21.6089C-11.9475 20.758 -11.826 19.8463 -12.0691 19.0219C-12.1526 18.7446 -12.8668 17.0124 -12.4717 16.8832C-11.8943 16.6933 -12.1413 15.7778 -12.7225 15.9677C-14.3673 16.5033 -12.9732 18.756 -12.8896 19.8273C-12.8174 20.7124 -12.8022 21.5899 -12.6997 22.4788C-12.6465 22.9347 -12.6427 23.3943 -12.5895 23.8464C-12.5363 24.2985 -12.4148 24.7125 -12.3236 25.1456C-12.24 25.5521 -12.1526 25.9547 -11.9817 26.3346C-11.8108 26.7145 -11.5942 27.064 -11.4271 27.4439C-11.1498 28.0858 -10.5762 28.386 -9.95315 28.6443C-9.61885 28.781 -9.25797 28.8988 -8.88949 28.9064C-8.45263 28.914 -8.01956 28.7734 -7.5941 28.6975C-7.16863 28.6215 -6.68999 28.5113 -6.23793 28.5341C-6.15436 28.5379 -6.00241 28.5341 -5.93023 28.5835C-5.87325 28.6253 -5.90744 28.5683 -5.91883 28.6937C-5.96062 29.1343 -6.21134 29.6434 -6.3481 30.065C-6.6406 30.9767 -6.88753 31.8884 -6.9749 32.8419C-7.10406 34.2475 -6.91032 35.8164 -6.53044 37.1726C-6.15056 38.5287 -5.46298 39.7481 -4.29295 40.5307C-3.57878 41.0055 -2.72785 41.2107 -1.9263 41.4766C-1.12476 41.7425 -0.289026 41.8299 0.596092 41.8565C1.63316 41.8906 2.68543 41.8868 3.6997 41.6361C4.6456 41.4006 5.5915 40.9751 6.46902 40.5573C8.36842 39.657 9.78157 38.0387 11.3847 36.7205L10.5907 36.5116C10.8072 37.4309 10.6249 38.4603 11.1681 39.2847C11.5898 39.9267 12.2774 40.4585 12.9194 40.865C14.4427 41.8337 16.2889 42.1908 18.0629 42.3237C19.0772 42.3997 20.0573 42.3275 21.0602 42.1718C22.0631 42.016 23.1153 41.9438 24.1068 41.5943C26.0328 40.9144 27.86 39.7975 29.5087 38.6009C32.7719 36.2229 35.3626 32.7318 37.1177 29.1229C37.9572 27.3983 38.679 25.4305 40.2821 24.2491C41.8852 23.0676 43.7466 23.136 45.3762 24.0667C46.2917 24.5872 47.0021 25.2861 47.5226 26.1978C48.043 27.1096 48.7799 27.9225 49.4713 28.7164C50.7895 30.2246 52.0051 31.8353 53.7298 32.9027C54.6301 33.4573 55.5418 34.0006 56.4573 34.5324C57.2968 35.0224 58.1478 35.4441 59.1165 35.5923C59.9332 35.7176 60.7651 35.843 61.5819 35.6872C62.6303 35.4859 63.7206 35.634 64.7577 35.3643C65.7947 35.0946 66.733 34.5286 67.6789 34.1069C68.6248 33.6853 69.472 33.1838 70.3343 32.5988C71.1966 32.0138 72.0551 31.5503 72.8149 30.8818C73.5747 30.2132 74.1711 29.4002 74.7371 28.5835C75.8653 26.9614 77.0543 25.2785 77.4076 23.288C77.4874 22.8359 77.4988 22.3649 77.5558 21.909C77.6242 21.362 77.6963 20.8112 77.6698 20.2565C77.6242 19.2461 77.2823 18.2698 76.8606 17.3581C76.4389 16.4464 76.0249 15.5156 75.493 14.6647C74.9308 13.7644 74.2053 12.9553 73.5215 12.1499C72.2071 10.6 70.6838 9.24004 69.3808 7.67874C68.7654 6.94557 68.207 6.15923 67.8727 5.25512C67.5384 4.351 67.3674 3.37472 67.3408 2.40602C67.3143 1.49811 67.3636 0.548412 67.6561 -0.317711C67.9752 -1.25981 68.5565 -2.08795 69.0693 -2.93128C69.5821 -3.77461 70.0418 -4.64833 70.547 -5.49546C71.0523 -6.34259 71.5613 -7.2505 71.9754 -8.18501C72.5756 -9.54497 73.4075 -11.186 72.8415 -12.6942C72.5186 -13.5527 71.7094 -14.1301 71.0599 -14.7341C70.2887 -15.4483 69.5062 -16.1549 68.678 -16.8007C67.8499 -17.4465 67.0104 -17.9859 66.148 -18.5329C65.2857 -19.0799 64.336 -19.4142 63.3863 -19.7789C61.335 -20.5615 59.1582 -20.9375 57.0043 -21.3174C54.8504 -21.6973 52.6509 -22.0088 50.4362 -21.9936C49.3118 -21.986 48.1873 -21.9214 47.0667 -21.8758C46.0562 -21.8341 45.0419 -21.7961 44.0429 -21.6327C43.1274 -21.4846 42.2194 -21.2149 41.3989 -20.7704C40.5784 -20.3259 39.8452 -19.627 39.1994 -18.9128C37.8432 -17.4161 36.5972 -15.8396 34.9941 -14.5936C34.2116 -13.982 33.3948 -13.4919 32.43 -13.2412C31.4651 -12.9905 30.5648 -12.9259 29.6227 -12.8955C29.1402 -12.8803 28.6616 -12.8613 28.1829 -12.9411C27.6777 -13.0285 27.18 -13.169 26.6748 -13.2678C26.1696 -13.3666 25.7137 -13.4691 25.2085 -13.4083C24.7032 -13.3476 24.198 -13.2868 23.7155 -13.169C21.8997 -12.7398 20.8057 -11.2468 19.9471 -9.69692C19.4685 -8.8308 19.2178 -7.85831 18.7353 -6.99219C18.2529 -6.12606 17.6793 -5.28273 17.1512 -4.4394C16.6232 -3.59607 16.061 -2.69955 15.2328 -2.19052C14.5035 -1.74226 13.6032 -1.67768 12.775 -1.79924C11.0276 -2.05376 9.0484 -3.51629 7.28576 -2.61218C6.47662 -2.19811 6.08155 -1.39277 5.65228 -0.636808C5.12805 0.290096 4.74437 1.24359 4.38729 2.25027C3.7263 4.11168 3.00833 6.17062 1.26468 7.30646C0.436543 7.84589 -0.315618 8.36633 -1.3299 8.41951C-2.20362 8.4651 -3.14572 8.33974 -3.95486 7.99784C-5.44778 7.36724 -7.15724 5.69198 -8.87429 6.5505C-9.64165 6.93418 -10.1317 7.70533 -10.523 8.4385C-11.0092 9.35021 -11.5676 10.2353 -11.9893 11.1774C-12.8364 13.0578 -13.3417 15.2003 -13.3835 17.2669C-13.3949 17.8785 -12.4452 17.8785 -12.4338 17.2669L-12.4452 17.2555Z" fill="#231F20"/>
<path d="M24.418 -42.9365L96.5722 22.7636" stroke="#231F20" stroke-width="0.5" stroke-miterlimit="10"/>
<path d="M22.0327 -40.3154L94.1869 25.3847" stroke="#231F20" stroke-width="0.5" stroke-miterlimit="10"/>
<path d="M19.6431 -37.6943L91.8011 28.0095" stroke="#231F20" stroke-width="0.5" stroke-miterlimit="10"/>
<path d="M17.2573 -35.0728L89.4116 30.6311" stroke="#231F20" stroke-width="0.5" stroke-miterlimit="10"/>
<path d="M14.8721 -32.4517L87.0263 33.2522" stroke="#231F20" stroke-width="0.5" stroke-miterlimit="10"/>
<path d="M12.4824 -29.8306L84.6404 35.8733" stroke="#231F20" stroke-width="0.5" stroke-miterlimit="10"/>
<path d="M10.0967 -27.2056L82.2509 38.4945" stroke="#231F20" stroke-width="0.5" stroke-miterlimit="10"/>
<path d="M7.70752 -24.5845L79.8655 41.1156" stroke="#231F20" stroke-width="0.5" stroke-miterlimit="10"/>
<path d="M5.32178 -21.9634L77.476 43.7367" stroke="#231F20" stroke-width="0.5" stroke-miterlimit="10"/>
<path d="M2.93604 -19.3423L75.0903 46.3578" stroke="#231F20" stroke-width="0.5" stroke-miterlimit="10"/>
<path d="M0.546387 -16.7212L72.7044 48.9789" stroke="#231F20" stroke-width="0.5" stroke-miterlimit="10"/>
<path d="M-1.83887 -14.0996L70.3154 51.6043" stroke="#231F20" stroke-width="0.5" stroke-miterlimit="10"/>
<path d="M-4.22852 -11.4785L67.9295 54.2254" stroke="#231F20" stroke-width="0.5" stroke-miterlimit="10"/>
<path d="M-6.61426 -8.85742L65.5438 56.8465" stroke="#231F20" stroke-width="0.5" stroke-miterlimit="10"/>
<path d="M-8.99951 -6.23633L63.1547 59.4676" stroke="#231F20" stroke-width="0.5" stroke-miterlimit="10"/>
<path d="M-11.3892 -3.61133L60.7689 62.0887" stroke="#231F20" stroke-width="0.5" stroke-miterlimit="10"/>
<path d="M-13.7749 -0.990234L58.3793 64.7099" stroke="#231F20" stroke-width="0.5" stroke-miterlimit="10"/>
<path d="M-16.1606 1.63086L55.9936 67.3309" stroke="#231F20" stroke-width="0.5" stroke-miterlimit="10"/>
<path d="M-18.5498 4.25195L53.6082 69.952" stroke="#231F20" stroke-width="0.5" stroke-miterlimit="10"/>
<path d="M-20.9355 6.87305L51.2187 72.5731" stroke="#231F20" stroke-width="0.5" stroke-miterlimit="10"/>
<path d="M-19.9365 28.2187L45.7635 -43.9355" stroke="#231F20" stroke-width="0.5" stroke-miterlimit="10"/>
<path d="M-17.3154 30.6082L48.3846 -41.5498" stroke="#231F20" stroke-width="0.5" stroke-miterlimit="10"/>
<path d="M-14.6943 32.9936L51.0095 -39.1606" stroke="#231F20" stroke-width="0.5" stroke-miterlimit="10"/>
<path d="M-12.0728 35.3793L53.6311 -36.7749" stroke="#231F20" stroke-width="0.5" stroke-miterlimit="10"/>
<path d="M-9.45166 37.7689L56.2522 -34.3892" stroke="#231F20" stroke-width="0.5" stroke-miterlimit="10"/>
<path d="M-6.83057 40.1547L58.8733 -31.9995" stroke="#231F20" stroke-width="0.5" stroke-miterlimit="10"/>
<path d="M-4.20557 42.5438L61.4945 -29.6143" stroke="#231F20" stroke-width="0.5" stroke-miterlimit="10"/>
<path d="M-1.58447 44.9295L64.1156 -27.2285" stroke="#231F20" stroke-width="0.5" stroke-miterlimit="10"/>
<path d="M1.03662 47.3154L66.7367 -24.8389" stroke="#231F20" stroke-width="0.5" stroke-miterlimit="10"/>
<path d="M3.65771 49.7044L69.3578 -22.4536" stroke="#231F20" stroke-width="0.5" stroke-miterlimit="10"/>
<path d="M6.27881 52.0903L71.9789 -20.064" stroke="#231F20" stroke-width="0.5" stroke-miterlimit="10"/>
<path d="M8.90039 54.476L74.6043 -17.6782" stroke="#231F20" stroke-width="0.5" stroke-miterlimit="10"/>
<path d="M11.5215 56.8655L77.2254 -15.2925" stroke="#231F20" stroke-width="0.5" stroke-miterlimit="10"/>
<path d="M14.1426 59.2509L79.8465 -12.9033" stroke="#231F20" stroke-width="0.5" stroke-miterlimit="10"/>
<path d="M16.7637 61.6404L82.4675 -10.5176" stroke="#231F20" stroke-width="0.5" stroke-miterlimit="10"/>
<path d="M19.3887 64.0263L85.0887 -8.12793" stroke="#231F20" stroke-width="0.5" stroke-miterlimit="10"/>
<path d="M22.0098 66.4116L87.7098 -5.74268" stroke="#231F20" stroke-width="0.5" stroke-miterlimit="10"/>
<path d="M24.6309 68.8011L90.3309 -3.35693" stroke="#231F20" stroke-width="0.5" stroke-miterlimit="10"/>
<path d="M27.252 71.1869L92.952 -0.967285" stroke="#231F20" stroke-width="0.5" stroke-miterlimit="10"/>
<path d="M29.873 73.5722L95.5731 1.41797" stroke="#231F20" stroke-width="0.5" stroke-miterlimit="10"/>
</g>
</svg>
