<svg width="140" height="202" viewBox="0 0 140 202" fill="none" xmlns="http://www.w3.org/2000/svg">
<path fill-rule="evenodd" clip-rule="evenodd" d="M112.16 178.142C114.863 178.019 113.776 173.574 113.582 171.941C111.442 165.977 111.945 159.471 111.103 153.221C110.579 147.385 109.905 141.569 109.338 135.738C108.225 123.903 100.232 99.8085 91.1108 95.9336C89.9618 91.1931 85.2159 86.7678 79.2114 86.7678C75.1161 82.2097 70.1868 79.0017 63.8644 79.6494C61.2517 79.7612 58.7179 82.3668 56.2144 82.87C54.8126 83.0517 42.3728 82.5839 39.8809 83.9755C38.1452 84.8135 36.5782 86.3621 37.0886 88.3336C37.9029 90.7222 35.3723 88.1377 30.0933 90.6871C19.3286 96.7661 25.7611 104.898 26.0462 105.15C19.3286 113.939 13.4572 121.068 10.7405 131.81C8.97987 139.785 9.17806 148.018 7.70288 156.034C7.18202 158.813 6.38295 161.497 5.51829 164.196C4.58118 167.729 4.12552 176.533 3.60899 176.611C2.6681 176.831 4.15277 178.648 5.14974 178.649C32.7909 182.96 60.8676 178.828 88.6573 178.153C96.4889 177.896 104.329 177.837 112.16 178.142Z" fill="#FDEA6B"/>
<path fill-rule="evenodd" clip-rule="evenodd" d="M56.2491 90.6084C56.2491 93.3744 66.4636 103.652 69.9888 102.974C72.3389 102.522 75.8896 99.5743 80.6411 94.1302V90.6084L79.6149 86.7744C85.4277 86.967 89.9876 91.2996 91.1108 95.9335C100.141 99.7696 108.065 123.423 109.303 135.379L109.338 135.738C109.905 141.568 110.579 147.385 111.103 153.22C111.945 159.471 111.442 165.977 113.582 171.941L113.595 172.042C113.818 173.75 114.809 178.022 112.16 178.142C104.329 177.837 96.4889 177.896 88.6573 178.152C60.8676 178.828 32.7909 182.96 5.14974 178.649C4.15277 178.648 2.6681 176.831 3.60899 176.611C4.12552 176.533 4.58118 167.729 5.51829 164.196L5.69618 163.638C6.49185 161.126 7.21794 158.621 7.70288 156.033C9.17806 148.018 8.97987 139.785 10.7405 131.81C13.4572 121.068 19.3286 113.939 26.0462 105.15C25.7611 104.898 19.3286 96.7659 30.0933 90.6869C35.3723 88.1375 37.9029 90.722 37.0886 88.3335C36.5782 86.3619 38.1452 84.8134 39.8809 83.9753C42.3728 82.5838 54.8126 83.0516 56.2144 82.8698C56.8656 82.7389 57.5188 82.4658 58.1749 82.1313L58.0611 82.4877C56.8531 86.2945 56.2491 89.0014 56.2491 90.6084Z" fill="#FDEA6B"/>
<path fill-rule="evenodd" clip-rule="evenodd" d="M70.2656 105.926C70.2785 105.807 70.4491 105.807 70.4623 105.926L70.6574 107.698C70.8949 109.861 71.1234 112.02 71.2892 114.194C71.4957 116.904 71.6339 119.614 71.7005 122.33C71.9327 131.791 71.9788 141.257 71.9984 150.72C73.3595 150.631 74.7207 150.546 76.0826 150.463C77.0065 150.407 77.9305 150.353 78.8547 150.3L81.2111 150.166L82.1812 150.11C82.8367 150.072 83.5815 149.917 84.0399 150.463C84.2234 150.681 84.3154 150.965 84.1444 151.225C83.7498 151.823 83.1438 151.803 82.4583 151.828C81.8115 151.853 81.1648 151.877 80.518 151.901C79.1321 151.951 77.7463 151.999 76.3599 152.035C74.905 152.074 73.4508 152.105 71.9965 152.128C71.9818 156.123 71.806 160.113 71.6159 164.104L71.5299 165.9C71.2973 170.756 71.0471 175.616 70.6916 180.466C70.6624 180.863 70.065 180.863 70.0361 180.466C69.6358 175.005 69.3717 169.531 69.1099 164.062C68.9199 160.097 68.8094 156.131 68.7569 152.164C68.5645 152.165 68.3724 152.167 68.1802 152.168C62.7216 152.19 57.2644 152.213 51.8058 152.165C51.8149 152.175 51.8238 152.185 51.8298 152.198C52.2248 153.075 52.2624 154.194 52.2528 155.135C52.2417 156.214 52.0872 157.28 51.8228 158.33C50.8757 162.09 48.4329 165.457 45.6506 168.241L45.5597 168.332C44.9035 168.984 44.1506 169.639 43.7476 170.469C43.336 171.317 43.1931 172.309 42.99 173.22L42.9663 173.325L42.1721 176.774C41.9198 177.87 41.8482 179.468 40.9259 180.258C40.0654 180.995 38.9255 180.61 38.5206 179.661C38.2044 178.92 38.5193 178.106 38.7066 177.365L40.174 171.565C40.4151 170.619 40.6786 169.667 41.1989 168.818C41.732 167.948 42.5134 167.317 43.3108 166.671C44.8207 165.449 46.2067 164.05 47.379 162.535C48.5508 161.02 49.5522 159.351 50.2545 157.595C50.6061 156.716 50.8943 155.803 51.093 154.883C51.282 154.01 51.2803 153.105 51.4824 152.241C51.4962 152.181 51.5498 152.14 51.6112 152.122C51.5967 152.084 51.6189 152.032 51.6763 152.028L56.1405 151.759C60.1088 151.518 64.0769 151.271 68.0416 150.989L68.7422 150.941C68.6878 145.648 68.7339 140.355 68.8356 135.06C68.9288 130.204 68.9307 125.348 69.0843 120.493C69.1607 118.084 69.3253 115.68 69.5085 113.275C69.6959 110.816 69.9959 108.378 70.2656 105.926ZM28.3485 134.079C28.3009 133.809 28.6616 133.642 28.8279 133.889C30.7289 136.706 31.6454 139.766 32.0317 143.063C32.373 145.973 32.2724 148.925 32.1025 151.842C31.9212 154.954 31.7098 158.065 31.4959 161.175L31.1673 165.944L30.3428 177.9C30.2838 178.755 30.0774 179.532 29.2942 179.93C29.1951 180.008 29.0917 180.078 28.9713 180.138C28.5482 180.351 27.987 180.243 27.7424 179.835L27.8405 179.896C27.9259 179.946 27.83 179.876 27.5526 179.684L27.3172 179.398C27.1462 179.156 27.0369 178.918 26.993 178.631C26.9247 178.185 27.0131 177.695 27.0442 177.246L27.5846 169.406C28.0049 163.311 28.4957 157.218 28.8657 151.12C29.038 148.278 29.1587 145.434 29.077 142.587C28.9956 139.755 28.8422 136.876 28.3485 134.079ZM44.7933 81.5972L44.8987 81.5806C48.6744 80.9909 52.7801 81.1012 56.2308 82.8126C56.2593 82.8267 56.2463 82.8713 56.2143 82.87L55.1036 82.8282C51.5875 82.6988 48.0823 82.6221 44.625 83.3989L44.2711 83.4791C43.026 83.7647 41.7258 84.1142 40.7258 84.8874C39.7699 85.6265 39.294 86.7666 38.8363 87.8162L38.7751 87.9547C38.3108 88.9914 37.7231 89.9745 36.7053 90.6227C35.387 91.4622 33.8016 91.3594 32.2901 91.4734C29.6287 91.6745 27.4528 93.488 26.3702 95.7074C25.7147 97.0512 25.4351 98.5578 25.3797 100.027C25.3513 100.776 25.3472 101.553 25.4532 102.296C25.4871 102.534 25.7996 103.4 25.9589 103.379C26.3129 103.333 26.6365 103.506 26.7469 103.772C27.6213 102.978 28.521 102.206 29.4495 101.463C31.7642 99.6093 34.2573 97.9294 36.8829 96.4859C38.8868 95.3841 41.0005 94.2925 43.1893 93.4673C43.0158 93.4638 42.8448 93.4962 42.6793 93.5771C42.6069 93.6127 42.5348 93.5272 42.592 93.4707C43.2814 92.7887 44.1072 92.6916 44.9397 92.8735C45.1173 92.8203 45.2951 92.7689 45.4736 92.7201C45.5624 92.6958 45.6066 92.8109 45.5341 92.8553L45.3297 92.9782C46.2378 93.2642 47.1295 93.8264 47.8354 94.2702C49.8632 95.5444 51.648 97.1022 53.4573 98.6308L53.7863 98.9079C55.3789 100.245 57.0121 101.544 58.8215 102.617C59.7687 103.178 60.7636 103.698 61.8071 104.084C62.7022 104.416 64.1594 104.624 64.5786 105.514C64.9512 105.939 64.7956 106.482 64.3592 106.769C63.6232 107.531 62.1509 107.039 61.274 106.721C60.2167 106.339 59.1925 105.879 58.2156 105.34C56.3192 104.293 54.5706 102.992 52.9417 101.607C51.2405 100.161 49.6358 98.6247 47.9811 97.1332C47.2642 96.487 46.5638 95.8255 45.8458 95.1802L45.4852 94.8591C45.1187 94.536 44.5966 94.0323 44.0384 93.7274C42.9867 94.3172 41.9188 94.8828 40.8767 95.4879C39.4219 96.3324 38.01 97.2379 36.6198 98.1733C33.9436 99.9738 31.4075 101.99 29.0532 104.152C24.7352 108.116 21.0564 112.643 17.8426 117.436L17.5986 117.801C15.7724 120.545 14.0454 123.377 12.8208 126.408C11.4735 129.744 10.8182 133.252 10.4623 136.793C10.109 140.309 9.98979 143.842 9.59494 147.354C9.19003 150.957 8.39222 154.48 7.48476 157.996L7.26834 158.829C6.44723 161.978 5.59973 165.127 5.17765 168.351C4.95232 170.073 4.81679 171.818 4.84742 173.554C4.8782 175.299 5.16996 177.007 5.40535 178.734C5.49557 179.396 4.80295 179.948 4.18319 180.036C3.47043 180.137 2.85809 179.709 2.63654 179.086C1.94588 177.146 1.82041 175 1.84209 172.963C1.86391 170.895 2.14463 168.841 2.53961 166.808C3.31644 162.81 4.51524 158.895 5.51809 154.945C6.40191 151.464 6.99509 147.977 7.31482 144.41C7.64673 140.71 7.84548 136.997 8.45097 133.323C9.04862 129.697 10.1732 126.233 11.869 122.926C13.4132 119.915 15.338 117.081 17.356 114.334C19.8067 110.998 22.4981 107.824 25.5067 104.932C25.2365 104.921 24.959 104.839 24.7041 104.69C23.9245 104.232 23.5614 103.338 23.4498 102.521C23.1885 100.611 23.2516 98.6162 23.7741 96.7483C24.6171 93.735 26.8049 91.0577 29.9757 89.9715C30.7918 89.6919 31.6594 89.5898 32.5244 89.5697C33.3451 89.5505 34.2415 89.6511 35.0335 89.4065C36.294 89.0169 36.8343 87.621 37.3076 86.5628L37.3294 86.5142C37.9363 85.1658 38.6647 84.0101 39.9792 83.1681C41.3816 82.2696 43.1387 81.861 44.7933 81.5972ZM80.6689 86.93C81.8035 86.5599 83.2221 86.8958 84.3316 87.219C85.5678 87.5794 86.7101 88.243 87.6894 89.0312C88.7226 89.8623 89.5765 90.8887 90.1798 92.0352L90.2374 92.1457C90.7884 93.2092 91.416 94.6693 91.1381 95.8377C91.1302 95.8708 91.1211 95.9028 91.1107 95.9337C93.3619 96.9757 95.4409 98.2809 97.2513 99.935C99.3594 101.861 101.144 104.053 102.655 106.421C108.654 115.825 109.71 127.119 110.419 137.844L110.596 140.563C110.98 146.435 111.431 152.294 112.6 158.084L112.686 158.503C113.936 164.566 115.725 170.675 115.544 176.895C115.49 178.759 112.561 178.746 112.476 176.895C112.156 169.928 110.427 163.202 109.256 156.344C107.196 144.279 108.228 131.84 105.309 119.896C104.164 115.208 102.389 110.661 99.8552 106.477C98.6036 104.41 97.1715 102.413 95.4939 100.63C94.0506 99.0953 92.5505 97.6187 90.8639 96.3288C90.3248 96.8364 89.248 96.5777 88.9666 95.8377C88.7733 95.3291 88.8296 94.7346 88.7056 94.2018C88.5905 93.7074 88.4317 93.2173 88.2202 92.7517C87.7987 91.8239 87.1799 90.9329 86.4656 90.1819C85.6939 89.3702 84.807 88.6958 83.8147 88.139C82.8155 87.5783 81.7227 87.4109 80.6689 87.0012C80.6334 86.9874 80.63 86.9427 80.6689 86.93ZM85.0766 151.411C85.0783 151.362 85.1397 151.339 85.1775 151.371C85.5753 151.716 85.8157 152.21 86.1084 152.633C86.4461 153.121 86.8006 153.599 87.1724 154.065C87.9173 154.998 88.7466 155.878 89.5825 156.74C90.3598 157.541 91.1884 158.309 92.0479 159.032C92.9791 159.817 94.0227 160.516 94.8687 161.384C96.6341 163.196 96.9194 165.683 97.2918 168.018L97.3326 168.27C97.5598 169.656 97.7633 171.045 97.9468 172.436C98.036 173.113 98.125 173.791 98.1977 174.469L98.2199 174.684C98.2848 175.348 98.3023 176.022 97.8966 176.603C97.4623 177.223 96.475 177.441 95.888 176.846C94.8794 175.823 95.0685 174.006 94.9373 172.69C94.8289 171.602 94.7059 170.516 94.5683 169.431L94.4982 168.888C94.336 167.654 94.2042 166.395 93.9039 165.182C93.6392 164.114 93.1347 163.307 92.3069 162.534C91.473 161.754 90.6066 161.026 89.8369 160.187C89.0205 159.297 88.2841 158.342 87.6205 157.346C87.053 156.493 86.5981 155.566 86.1813 154.64L86.1122 154.485C85.7094 153.582 85.0452 152.406 85.0766 151.411ZM99.6386 112.608C99.6474 112.482 99.8455 112.48 99.8484 112.608C99.8735 113.692 99.8975 114.776 99.9214 115.859C100.114 124.592 99.9953 133.346 100.927 142.049C101.367 146.152 102.176 150.195 103.112 154.221C103.591 156.281 104.094 158.337 104.572 160.397C105.037 162.405 105.536 164.423 105.906 166.45C106.269 168.442 106.593 170.449 106.739 172.467L106.757 172.73C106.82 173.707 107.12 175.145 106.548 176.011C105.927 176.949 104.74 176.966 104.075 176.07C103.452 175.229 103.607 173.733 103.496 172.73C103.384 171.708 103.266 170.685 103.131 169.665C102.869 167.675 102.523 165.69 102.163 163.714C101.414 159.6 100.327 155.537 99.525 151.428C98.7029 147.219 98.1185 142.979 98.0939 138.693C98.0694 134.37 98.556 130.056 98.8017 125.743C99.0512 121.363 99.3348 116.986 99.6386 112.608ZM55.7649 85.446C56.0143 84.6565 56.8943 84.1629 57.7528 84.3847C58.5396 84.588 59.1891 85.4858 58.8816 86.254C58.5459 87.0923 57.9593 87.8071 57.4647 88.5689C57.0079 89.2729 56.3416 89.8273 55.8762 90.5188L56.389 91.0386C56.6456 91.2979 56.9029 91.5556 57.163 91.8089L58.0574 92.6801C58.754 93.357 59.4549 94.0304 60.1756 94.684C62.2949 96.6061 64.4477 98.465 66.8211 100.111C67.3615 100.486 67.906 100.858 68.4657 101.207L68.6744 101.337C69.0584 101.573 69.4869 101.806 69.9508 101.766C71.0781 101.668 72.0966 100.543 72.8713 99.842L72.9118 99.8055C74.8315 98.0881 76.6091 96.2103 78.1631 94.1913C78.5082 93.7427 78.8423 93.2865 79.1677 92.8249C78.4163 91.9996 78.5957 90.3887 78.5543 89.3879C78.5251 88.6841 78.5229 87.9803 78.5188 87.276L78.5168 87.134C78.5076 86.6782 78.4858 86.241 78.8004 85.8659C78.8187 85.8442 78.8566 85.8449 78.88 85.8563C79.3109 86.0686 79.4436 86.4241 79.6275 86.8228L79.6467 86.8642C79.8705 87.3428 80.0848 87.8259 80.3016 88.3072C80.5286 88.8112 80.7367 89.3225 80.9476 89.8325C81.0458 90.0698 81.1395 90.3079 81.2311 90.5474C81.2869 90.7004 81.3447 90.8526 81.404 91.0044L81.418 91.0162C81.4963 91.0786 81.5627 91.1446 81.6199 91.2128C81.8604 91.3259 82.0514 91.532 82.1411 91.8347C82.3362 92.4937 81.9324 93.0311 81.5723 93.5541C80.1092 95.6794 78.4415 97.7046 76.5877 99.5417C75.6668 100.454 74.6982 101.326 73.6898 102.153L73.5135 102.297C72.6076 103.029 71.624 103.722 70.4142 103.893C68.9984 104.093 67.8461 103.431 66.7623 102.669L66.6541 102.592C65.6267 101.861 64.6199 101.104 63.6445 100.312C61.6557 98.6975 59.7637 96.964 58.0846 95.0622C56.4512 93.2123 54.8368 91.1439 53.83 88.918C53.7686 88.7824 53.93 88.6405 54.0564 88.7537C54.5482 89.1939 55.0214 89.658 55.489 90.128C55.502 89.4361 55.3661 88.7383 55.4417 88.0421C55.5339 87.1958 55.5073 86.2609 55.7649 85.446Z" fill="#FDEA6B"/>
<path fill-rule="evenodd" clip-rule="evenodd" d="M68.8418 28.7989C76.7668 28.7989 86.6926 37.3172 89.5976 40.9421C92.04 43.9897 91.6945 59.69 91.6945 69.0035C91.6945 70.9514 90.76 74.6379 90.4208 76.5011C89.1777 83.3286 83.762 89.0547 73.043 89.0547C64.3152 89.0547 57.5987 86.4498 51.1036 79.7874C49.6219 78.2675 42.3853 83.7088 40.9053 81.7493C37.0396 81.7493 33.8072 47.7162 41.397 37.5083C48.9867 27.3003 60.9168 28.7989 68.8418 28.7989Z" fill="#FDEA6B"/>
<path fill-rule="evenodd" clip-rule="evenodd" d="M45.0222 31.196C49.6015 27.2702 55.7022 25.3817 61.8574 25.5211C65.0452 25.5934 68.2219 26.1655 71.2324 27.1453C72.7384 27.6372 74.197 28.279 75.5913 29.0049C76.0938 29.2659 76.557 29.5718 77.0029 29.8966L77.114 29.9781H77.1154C78.3116 30.3832 79.3793 31.1105 80.3479 31.9614C82.2894 31.8154 84.2462 31.9798 86.1234 32.544C88.7362 33.3304 91.155 34.7705 92.8536 36.8156C94.8322 39.1964 95.4899 42.0843 95.2552 45.0656L95.2119 45.572C94.9798 48.2055 94.564 51.5929 92.2702 53.3233C92.0957 53.4548 91.9031 53.5548 91.7035 53.6152C93.1816 56.0009 94.3945 58.6496 95.1202 61.3246C97.8907 71.542 95.7609 82.1973 92.4293 92.0451C92.1557 92.8566 90.8535 93.3958 90.1905 92.6027C89.007 91.185 87.2874 90.104 85.353 89.9014C84.1596 89.7765 82.9719 90.0027 81.8441 89.4924C81.4017 89.2912 80.9746 88.9624 80.6675 88.5626C78.7638 89.2425 76.7134 89.5634 74.6799 89.4845C71.3427 89.3556 67.7752 88.2667 65.4793 85.8784C65.1108 85.495 65.0174 85.0646 65.1023 84.6766C65.3902 84.5798 65.6858 84.5078 65.9904 84.4627C68.9019 86.0795 72.1112 87.1599 75.5603 87.2277C77.5533 87.2669 79.4972 87.0043 81.1132 85.8317C81.4628 85.5779 81.7844 85.2968 82.0817 84.9949C85.4603 82.9469 87.8424 79.4685 88.9749 75.7426C90.03 72.268 89.9002 68.65 89.5373 65.0859L89.3459 63.2052C89.0668 60.4448 88.8079 57.6762 88.7354 54.9041L88.7573 54.903C89.4708 54.8596 89.4759 53.8071 88.7573 53.8509C86.8983 53.9643 85.0535 53.6769 83.2002 53.8021C83.1847 52.9766 83.1216 52.1548 82.8641 51.3586C82.7171 50.9037 81.8765 50.814 81.7875 51.3586C81.6683 52.0872 81.6247 52.8117 81.6117 53.5436C78.8383 53.5089 76.0675 53.289 73.2937 53.3793C72.782 52.8651 72.6191 51.9533 72.3797 51.319C72.3448 51.2256 72.3099 51.1336 72.2737 51.0402C72.0633 51.9466 71.7652 52.8331 71.373 53.701L70.6927 53.7032C66.8329 53.7202 62.8945 53.8289 59.1254 54.5842C58.8634 54.3947 58.7075 54.0641 58.6654 53.7639C58.392 51.8101 58.0018 49.9083 57.3102 48.0464L57.2113 47.7838C57.2032 47.762 57.1947 47.7388 57.1858 47.7145C56.6762 48.4895 56.0682 49.2119 55.4051 49.8846C55.0143 50.2811 54.6045 50.6602 54.184 51.0286C53.7754 51.456 53.3532 51.877 52.944 52.3058C52.9601 52.3837 52.974 52.4629 52.9853 52.5435C53.1105 53.4332 53.1235 54.3356 53.0318 55.2287C52.866 56.8433 52.3822 58.3991 51.6051 59.8384L51.5805 59.9825C51.4625 60.657 51.2946 61.3541 50.9025 61.862C51.3918 62.3786 51.7688 62.9957 51.9874 63.6812C52.1819 64.2916 51.2858 64.8206 50.821 64.3211C50.4518 63.9243 50.0416 63.5959 49.5911 63.3339C49.5626 63.3703 49.5112 63.3882 49.4536 63.3578C48.1988 62.7016 46.0676 62.9002 44.8142 63.5183C43.2552 64.2863 42.6466 65.8632 42.8197 67.4611C42.9858 68.988 43.6948 70.7726 45.0696 71.5552C45.7005 71.9142 46.1918 71.9444 46.8617 71.7722C47.0759 71.7173 47.3415 71.5492 47.4555 71.4657L47.5677 71.3809C48.0069 71.0539 48.4159 70.8299 48.9344 70.8213C49.4646 70.6655 49.9976 70.8816 50.2004 71.4056L50.2129 71.4394C50.3078 71.7064 50.4808 72.0418 50.4432 72.4495C50.4041 72.8861 50.1919 73.2832 49.8751 73.6028C49.8207 73.6581 49.762 73.7133 49.702 73.7646C55.1593 79.3316 55.86 88.0063 53.0615 94.9608C52.9401 95.2659 52.8103 95.5671 52.6749 95.8656C52.2073 96.8888 50.4069 96.5719 50.178 95.5579C50.1096 95.2541 50.0342 94.9516 49.9519 94.6517C49.8005 94.0976 49.6271 93.5487 49.4316 93.0078L49.3573 92.8053C49.1912 92.3581 49.0363 91.907 48.8688 91.4599L48.852 91.4088C48.8458 91.3885 48.8388 91.3652 48.8311 91.3389L48.5478 91.9215L47.6866 93.6798C47.2836 94.5004 46.0033 94.0544 45.9557 93.2637L45.9545 93.2366C45.9503 93.0907 45.9447 92.946 45.935 92.8027C45.8736 91.7282 45.6768 90.6839 45.3641 89.6621L45.2513 89.7942C43.5717 91.7508 41.6005 93.5848 38.8963 94.0363C38.218 94.1494 37.4504 93.4813 37.9165 92.8355C38.1092 92.5686 38.2948 92.295 38.4706 92.0175C38.3185 91.9504 38.1748 91.8807 38.0422 91.8097C37.0163 91.2666 36.1621 90.4932 35.4559 89.6161C33.9583 87.7564 33.4223 85.4155 33.2911 83.1245C33.1515 80.7033 33.3777 78.1506 34.0797 75.8149C34.384 74.8049 34.7957 73.8356 35.2716 72.8953C35.2382 72.8111 35.206 72.7269 35.1739 72.6428C34.6603 71.2934 34.2388 69.9138 33.8885 68.5185C33.1823 65.7014 32.8026 62.795 32.7566 59.9003C32.6728 54.7147 33.6219 49.4462 35.622 44.6104C37.6876 39.6234 40.7945 34.8192 45.0222 31.196ZM42.4501 76.5343C42.0708 75.9715 41.1217 76.4787 41.4739 77.0454L41.487 77.0656C42.0886 77.9586 42.3705 78.9739 42.7167 79.9695C42.9386 80.6099 44.0175 80.3364 43.7928 79.6893L43.7184 79.4733C43.3739 78.4637 43.0597 77.4377 42.4501 76.5343ZM45.7534 65.7921L46.0054 65.6772C46.8003 65.3197 47.4968 65.0763 48.436 65.3883C49.6935 65.8052 51.0404 67.1322 50.1904 68.4197C49.8778 68.8945 49.3223 69.0839 48.75 68.9721C47.7853 68.7836 47.5363 67.965 47.0468 67.293L46.9625 67.1792C46.6641 66.7726 46.2866 66.2105 45.7897 66.0512C45.6766 66.0143 45.6292 65.8486 45.7534 65.7921ZM46.4626 38.4556L46.5438 38.3871C47.0839 37.9373 46.2912 37.1956 45.7538 37.6427C43.2945 39.6904 42.4404 42.8954 41.1647 45.627C40.8785 46.2411 41.8402 46.7777 42.1291 46.1583C43.346 43.5517 44.1537 40.4337 46.4626 38.4556ZM76.0158 37.5599C75.3732 37.2871 74.811 38.1682 75.4288 38.4584L75.4519 38.4687C77.6237 39.3933 78.5476 41.487 79.4325 43.4308C79.7145 44.0515 80.6761 43.5162 80.397 42.9008L80.2373 42.552C79.314 40.5488 78.2371 38.507 76.0158 37.5599ZM79.4198 36.2947C78.7386 36.0724 78.4469 37.0877 79.1225 37.31C80.9634 37.9136 82.2265 39.2156 83.2915 40.7043C83.6907 41.262 84.6579 40.7359 84.2545 40.173C83.0179 38.4449 81.5496 36.9943 79.4198 36.2947Z" fill="#FDEA6B"/>
<path fill-rule="evenodd" clip-rule="evenodd" d="M75.7721 79.8197C74.8319 79.459 73.9929 78.8574 73.3796 78.0889C73.1664 77.8217 73.1111 77.5396 73.1558 77.2816C73.2061 76.9914 73.3887 76.7285 73.6376 76.5521C73.8874 76.3751 74.1998 76.2879 74.5018 76.3324C74.7642 76.371 75.0254 76.5061 75.2322 76.7863L75.2754 76.8424C75.64 77.3062 76.1152 77.6868 76.6566 77.9321C77.1784 78.1685 77.762 78.2789 78.366 78.2147C79.5162 78.0925 80.309 77.5076 81.1517 76.7133C81.2561 76.613 81.3607 76.5096 81.4657 76.4045C81.532 76.3093 81.624 76.248 81.7262 76.2159C81.8397 76.1802 81.9681 76.1822 82.0856 76.2208C82.199 76.258 82.3004 76.3285 82.3684 76.4224C82.433 76.5116 82.4696 76.6218 82.4577 76.7485C82.3806 77.5717 81.9229 78.3063 81.2727 78.8831C80.5507 79.5238 79.5935 79.967 78.6924 80.1225C77.6997 80.2937 76.6881 80.171 75.7721 79.8197ZM79.1606 67.1207C80.2168 67.7243 81.8261 69.1319 80.6899 70.6285C79.3524 71.948 77.4268 70.4351 76.4779 69.7508C75.598 69.2205 74.6095 70.5844 75.4258 71.2036C82.2826 75.977 85.0653 67.2785 79.6948 66.4109C79.1035 66.3153 78.8839 66.9339 79.1606 67.1207ZM66.8728 61.568C66.9894 60.206 69.1955 59.8967 69.415 61.2445C69.6115 62.4518 69.3802 63.5609 68.8018 64.6478C68.2492 65.6863 66.8602 65.2018 66.7552 64.2562C66.6144 62.9887 66.8002 62.4153 66.8728 61.568ZM83.6659 60.9651C83.9735 60.5863 84.4176 60.3278 84.9496 60.4739C86.612 60.9307 86.122 63.1497 85.5382 64.2298C85.221 64.8164 84.1956 64.9651 83.7322 64.4487C82.977 63.6065 82.6153 61.9245 83.5754 61.0949C83.6015 61.052 83.6304 61.0088 83.6659 60.9651ZM68.7786 55.6084L69.0412 55.5652C69.8536 55.4331 70.8636 55.3062 71.4382 55.9202C71.743 56.2459 71.8479 56.8511 71.4382 57.1628C70.7176 57.7112 69.9209 57.4987 69.0574 57.5451C68.3458 57.5835 67.6618 57.6942 66.9763 57.8785C65.4725 58.2826 64.2471 59.0204 62.9627 59.8306C62.7941 59.9368 62.6221 59.7342 62.7025 59.586C63.444 58.2204 64.8808 57.0988 66.3201 56.415C67.0882 56.0501 67.9288 55.7473 68.7786 55.6084ZM82.1509 54.9967L82.3519 55.0354C84.539 55.4652 87.3806 56.3239 88.4163 58.3439C88.4558 58.6296 88.4141 58.6908 88.3802 58.7308L88.3689 58.7441C88.341 58.7782 88.3187 58.8253 88.187 58.8642C88.1505 58.856 88.1136 58.8473 88.0763 58.8382C87.6015 58.7212 87.2259 58.56 86.8623 58.3928L86.468 58.2101C86.0105 57.9992 85.549 57.796 85.06 57.646C84.0163 57.3259 82.9427 57.1004 81.8526 56.98C81.6163 56.9539 81.3887 56.8789 81.2092 56.7504C81.0388 56.6284 80.9087 56.4595 80.8493 56.2351C80.7724 55.9445 80.7945 55.7246 80.9603 55.4625C81.085 55.2657 81.2633 55.1292 81.4681 55.0509C81.6769 54.971 81.9146 54.9522 82.1509 54.9967Z" fill="#FDEA6B"/>
<path fill-rule="evenodd" clip-rule="evenodd" d="M106.706 174.46C109.126 174.343 108.153 170.109 107.979 168.554C106.062 162.874 106.513 156.678 105.759 150.725C105.29 145.168 104.686 139.628 104.179 134.075C103.182 122.803 96.0242 99.8562 87.8559 96.1658C86.8269 91.651 82.577 87.4365 77.2 87.4365C73.5326 83.0954 69.1184 80.0402 63.4566 80.6571C61.1169 80.7635 58.8479 83.245 56.606 83.7242C55.3507 83.8973 44.2108 83.4518 41.9793 84.7771C40.4249 85.5752 39.0217 87.0501 39.4787 88.9277C40.208 91.2025 37.9418 88.7411 33.2144 91.1691C23.5746 96.9586 29.3349 104.704 29.5902 104.944C23.5746 113.313 18.3167 120.104 15.8839 130.334C14.3072 137.929 14.4847 145.77 13.1637 153.404C12.6972 156.051 11.9817 158.607 11.2074 161.178C10.3682 164.542 9.96013 172.927 9.49757 173.002C8.655 173.211 9.98453 174.941 10.8773 174.943C35.6301 179.048 60.773 175.113 85.6588 174.47C92.672 174.226 99.6927 174.169 106.706 174.46Z" fill="#D08B5B"/>
<path fill-rule="evenodd" clip-rule="evenodd" d="M56.6371 91.0942C56.6371 93.7285 65.7842 103.517 68.941 102.871C71.0455 102.441 74.2253 99.6332 78.4802 94.4484V91.0942L77.5613 87.4428C82.7667 87.6263 86.8501 91.7526 87.8559 96.1658C95.9426 99.8193 103.039 122.346 104.147 133.733L104.179 134.075C104.686 139.628 105.29 145.168 105.759 150.725C106.513 156.678 106.062 162.874 107.979 168.554L107.99 168.65C108.19 170.276 109.078 174.345 106.706 174.46C99.6927 174.169 92.672 174.226 85.6588 174.47C60.773 175.113 35.6301 179.048 10.8773 174.942C9.98453 174.941 8.655 173.211 9.49757 173.002C9.96013 172.927 10.3682 164.542 11.2074 161.178L11.3667 160.646C12.0792 158.254 12.7294 155.868 13.1637 153.404C14.4847 145.77 14.3072 137.929 15.8839 130.334C18.3167 120.104 23.5746 113.313 29.5902 104.944C29.3349 104.704 23.5746 96.9586 33.2144 91.169C37.9418 88.741 40.208 91.2025 39.4787 88.9277C39.0217 87.05 40.4249 85.5752 41.9793 84.7771C44.2108 83.4518 55.3507 83.8973 56.606 83.7242C57.1891 83.5995 57.7741 83.3394 58.3617 83.0209L58.2597 83.3603C57.1779 86.9858 56.6371 89.5638 56.6371 91.0942Z" fill="#78E185"/>
<path fill-rule="evenodd" clip-rule="evenodd" d="M69.1895 105.682C69.201 105.569 69.3538 105.569 69.3656 105.682L69.5403 107.369C69.753 109.43 69.9577 111.486 70.1061 113.556C70.2911 116.138 70.4148 118.718 70.4744 121.305C70.6823 130.316 70.7237 139.331 70.7412 148.343C71.96 148.259 73.179 148.177 74.3986 148.099C75.226 148.045 76.0535 147.994 76.881 147.944L78.9912 147.816V147.816L79.8599 147.762C80.447 147.726 81.114 147.578 81.5244 148.098C81.6887 148.306 81.7712 148.577 81.618 148.824C81.2646 149.394 80.7219 149.374 80.1081 149.399C79.5289 149.422 78.9497 149.445 78.3706 149.468C77.1294 149.516 75.8884 149.561 74.6469 149.596C73.3441 149.633 72.0418 149.662 70.7395 149.684C70.7263 153.489 70.5689 157.289 70.3986 161.09L70.3216 162.8C70.1133 167.425 69.8893 172.054 69.571 176.673C69.5448 177.051 69.0099 177.05 68.9839 176.673C68.6255 171.471 68.389 166.259 68.1545 161.05C67.9844 157.274 67.8855 153.496 67.8384 149.718C67.6662 149.719 67.4941 149.722 67.322 149.722C62.4338 149.744 57.5468 149.765 52.6586 149.719C52.6667 149.729 52.6747 149.738 52.6801 149.751C53.0338 150.586 53.0675 151.652 53.0589 152.548C53.049 153.576 52.9106 154.591 52.6739 155.591C51.8257 159.171 49.6381 162.378 47.1466 165.03L47.0652 165.116C46.4775 165.737 45.8033 166.361 45.4425 167.152C45.0739 167.96 44.9459 168.904 44.764 169.772L44.7428 169.872L44.0316 173.157C43.8057 174.2 43.7415 175.722 42.9156 176.475C42.1451 177.177 41.1243 176.81 40.7617 175.906C40.4785 175.2 40.7605 174.425 40.9282 173.719L42.2423 168.196C42.4582 167.295 42.6941 166.388 43.1601 165.579C43.6374 164.75 44.3372 164.15 45.0513 163.535C46.4034 162.371 47.6446 161.038 48.6944 159.595C49.7437 158.153 50.6405 156.563 51.2694 154.891C51.5843 154.054 51.8423 153.185 52.0203 152.308C52.1895 151.476 52.188 150.615 52.369 149.792C52.3814 149.735 52.4294 149.696 52.4844 149.679C52.4713 149.642 52.4913 149.592 52.5426 149.589L56.5403 149.332C60.094 149.103 63.6474 148.868 67.1978 148.599L67.8252 148.554V148.554C67.7765 143.513 67.8178 138.471 67.9089 133.429C67.9923 128.805 67.9941 124.179 68.1316 119.556C68.2 117.261 68.3474 114.972 68.5115 112.682C68.6793 110.34 68.948 108.017 69.1895 105.682ZM31.6524 132.494C31.6099 132.238 31.9329 132.079 32.0818 132.313C33.7841 134.997 34.6049 137.911 34.9508 141.051C35.2564 143.822 35.1664 146.633 35.0142 149.412C34.8519 152.375 34.6625 155.338 34.471 158.3L34.1768 162.842V162.842L33.4384 174.228C33.3856 175.043 33.2007 175.784 32.4994 176.162C32.4106 176.236 32.318 176.303 32.2102 176.36C31.8313 176.563 31.3288 176.461 31.1097 176.072L31.1976 176.13C31.2741 176.178 31.1882 176.111 30.9398 175.928L30.729 175.655V175.655C30.5758 175.425 30.478 175.199 30.4386 174.925C30.3775 174.5 30.4567 174.033 30.4845 173.606L30.9684 166.14V166.14C31.3448 160.335 31.7843 154.532 32.1156 148.724C32.2699 146.018 32.378 143.308 32.3049 140.597C32.232 137.901 32.0946 135.158 31.6524 132.494ZM46.3791 82.5121L46.4735 82.4962C49.8547 81.9346 53.5313 82.0397 56.6214 83.6696C56.647 83.683 56.6353 83.7254 56.6067 83.7242L55.612 83.6845C52.4633 83.5612 49.3244 83.4882 46.2284 84.2279L45.9115 84.3043C44.7965 84.5763 43.6322 84.9092 42.7366 85.6456C41.8807 86.3495 41.4544 87.4353 41.0446 88.4349L40.9898 88.5668C40.574 89.5541 40.0477 90.4904 39.1363 91.1078C37.9558 91.9073 36.536 91.8093 35.1824 91.9179C32.7991 92.1094 30.8506 93.8367 29.8811 95.9503C29.2941 97.2301 29.0437 98.665 28.9941 100.065C28.9687 100.777 28.965 101.517 29.06 102.225C29.0903 102.452 29.3701 103.276 29.5128 103.256C29.8298 103.212 30.1196 103.378 30.2184 103.631C31.0015 102.875 31.8071 102.14 32.6387 101.432C34.7115 99.6664 36.9441 98.0665 39.2953 96.6918C41.0898 95.6424 42.9826 94.6028 44.9427 93.8169C44.7874 93.8136 44.6342 93.8444 44.486 93.9215C44.4211 93.9554 44.3566 93.874 44.4079 93.8201C45.0252 93.1706 45.7647 93.0781 46.5102 93.2514C46.6693 93.2008 46.8285 93.1518 46.9883 93.1053C47.0678 93.0821 47.1074 93.1917 47.0425 93.2341L46.8594 93.3511V93.3511C47.6727 93.6235 48.4712 94.1589 49.1033 94.5815C50.9192 95.7951 52.5175 97.2787 54.1378 98.7345L54.4324 98.9984C55.8586 100.272 57.3211 101.509 58.9415 102.531C59.7897 103.066 60.6806 103.56 61.6151 103.928C62.4166 104.244 63.7216 104.443 64.097 105.29C64.4306 105.695 64.2912 106.212 63.9004 106.485C63.2414 107.21 61.923 106.742 61.1376 106.44C60.1909 106.076 59.2736 105.638 58.3989 105.124C56.7006 104.127 55.1347 102.888 53.676 101.569C52.1526 100.192 50.7156 98.7287 49.2338 97.3083C48.5918 96.6928 47.9646 96.0628 47.3216 95.4483L46.9987 95.1424C46.6705 94.8347 46.203 94.3549 45.7031 94.0646C44.7613 94.6264 43.805 95.165 42.8718 95.7412C41.569 96.5456 40.3046 97.408 39.0597 98.2988C36.6632 100.014 34.3921 101.934 32.2837 103.993C28.4169 107.768 25.1226 112.079 22.2447 116.644L22.0261 116.992C20.3907 119.605 18.8442 122.302 17.7476 125.189C16.5411 128.366 15.9542 131.707 15.6355 135.08C15.3191 138.428 15.2124 141.793 14.8588 145.138C14.4962 148.569 13.7818 151.924 12.9691 155.273L12.7753 156.066C12.04 159.066 11.2811 162.065 10.9031 165.134C10.7013 166.774 10.5799 168.436 10.6074 170.09C10.6349 171.752 10.8962 173.378 11.107 175.023C11.1878 175.654 10.5675 176.18 10.0125 176.263C9.37426 176.359 8.82591 175.952 8.62751 175.359C8.00901 173.511 7.89666 171.467 7.91608 169.527C7.93562 167.558 8.187 165.601 8.54071 163.665C9.23636 159.858 10.3099 156.129 11.2079 152.368C11.9994 149.052 12.5306 145.73 12.8169 142.334C13.1142 138.81 13.2921 135.274 13.8344 131.775C14.3696 128.321 15.3766 125.022 16.8953 121.873C18.278 119.005 20.0018 116.306 21.8089 113.69C24.0034 110.513 26.4137 107.49 29.1078 104.736C28.8658 104.725 28.6173 104.647 28.3891 104.505C27.691 104.069 27.3658 103.218 27.2659 102.44C27.0319 100.62 27.0884 98.7206 27.5563 96.9417C28.3112 94.0719 30.2704 91.522 33.1099 90.4875C33.8407 90.2213 34.6177 90.1241 35.3922 90.1049C36.1272 90.0866 36.9299 90.1824 37.6391 89.9495C38.7679 89.5784 39.2518 88.249 39.6756 87.2412L39.6951 87.1949C40.2386 85.9107 40.8909 84.81 42.068 84.0081C43.3239 83.1525 44.8974 82.7633 46.3791 82.5121V82.5121ZM78.5056 87.5907C79.5217 87.2383 80.792 87.5582 81.7856 87.866C82.8926 88.2092 83.9155 88.8412 84.7925 89.5919C85.7178 90.3835 86.4824 91.3609 87.0226 92.4529L87.0743 92.5581C87.5677 93.571 88.1297 94.9615 87.8809 96.0743C87.8737 96.1058 87.8656 96.1363 87.8563 96.1657C89.8722 97.1581 91.734 98.4011 93.3553 99.9765C95.2431 101.811 96.8415 103.898 98.1942 106.153C103.567 115.11 104.512 125.866 105.147 136.08L105.305 138.67C105.65 144.263 106.053 149.842 107.1 155.357L107.177 155.755C108.296 161.53 109.899 167.348 109.737 173.272C109.688 175.047 107.065 175.035 106.989 173.272C106.702 166.637 105.154 160.231 104.106 153.699C102.261 142.209 103.185 130.362 100.571 118.987C99.5453 114.522 97.9563 110.192 95.6871 106.207C94.5662 104.239 93.2837 102.336 91.7815 100.638C90.489 99.1768 89.1457 97.7704 87.6352 96.542C87.1525 97.0254 86.1882 96.7791 85.9362 96.0743C85.7631 95.5899 85.8136 95.0237 85.7025 94.5163C85.5994 94.0455 85.4572 93.5786 85.2679 93.1352C84.8903 92.2516 84.3362 91.403 83.6966 90.6878C83.0056 89.9148 82.2113 89.2725 81.3227 88.7422C80.4279 88.2082 79.4493 88.0488 78.5056 87.6586C78.4738 87.6455 78.4708 87.6029 78.5056 87.5907ZM82.4535 149.001C82.455 148.955 82.5099 148.932 82.5438 148.964C82.9 149.291 83.1153 149.762 83.3774 150.165C83.6798 150.63 83.9973 151.085 84.3302 151.529C84.9973 152.418 85.7399 153.256 86.4884 154.076C87.1846 154.84 87.9266 155.571 88.6963 156.26C89.5302 157.007 90.4647 157.673 91.2223 158.5C92.8032 160.225 93.0587 162.594 93.3922 164.817L93.4288 165.058C93.6322 166.377 93.8144 167.701 93.9788 169.026C94.0587 169.67 94.1383 170.315 94.2035 170.961L94.2234 171.166C94.2814 171.799 94.2971 172.441 93.9338 172.993C93.5449 173.585 92.6607 173.792 92.1351 173.225C91.2319 172.251 91.4012 170.521 91.2837 169.267C91.1867 168.231 91.0765 167.196 90.9533 166.163L90.8905 165.646C90.7453 164.471 90.6273 163.272 90.3584 162.116C90.1213 161.099 89.6695 160.331 88.9282 159.594C88.1815 158.852 87.4055 158.159 86.7163 157.359C85.9852 156.511 85.3257 155.602 84.7315 154.653C84.2233 153.842 83.8159 152.959 83.4427 152.076L83.3808 151.929C83.0201 151.069 82.4253 149.949 82.4535 149.001ZM95.4936 112.046C95.5015 111.926 95.6788 111.924 95.6814 112.046C95.7039 113.078 95.7254 114.11 95.7468 115.143C95.9192 123.46 95.813 131.796 96.6474 140.085C97.0409 143.993 97.7656 147.843 98.6042 151.678C99.0333 153.64 99.4835 155.597 99.9112 157.559C100.328 159.472 100.775 161.394 101.106 163.324C101.431 165.221 101.722 167.133 101.852 169.054L101.868 169.305C101.925 170.236 102.193 171.605 101.681 172.43C101.125 173.323 100.062 173.339 99.4668 172.486C98.9081 171.685 99.047 170.26 98.9483 169.305C98.8479 168.331 98.7418 167.357 98.6214 166.386C98.3863 164.491 98.0765 162.601 97.7544 160.719C97.0834 156.8 96.1102 152.93 95.3919 149.018C94.6556 145.008 94.1323 140.971 94.1103 136.889C94.0884 132.772 94.5241 128.663 94.7441 124.556C94.9675 120.384 95.2215 116.215 95.4936 112.046ZM56.2046 86.1775C56.4279 85.4257 57.216 84.9556 57.9848 85.1668C58.6893 85.3604 59.271 86.2155 58.9956 86.9471C58.695 87.7455 58.1697 88.4262 57.7268 89.1518C57.3177 89.8223 56.721 90.3502 56.3043 91.0088L56.7635 91.5038C56.9933 91.7508 57.2236 91.9963 57.4566 92.2375L58.2575 93.0671C58.8813 93.7119 59.509 94.3532 60.1544 94.9756C62.0522 96.8062 63.9801 98.5766 66.1055 100.144C66.5894 100.501 67.077 100.856 67.5782 101.188L67.7651 101.312C68.109 101.537 68.4927 101.758 68.9082 101.72C69.9176 101.627 70.8297 100.555 71.5234 99.888L71.5597 99.8533C73.2788 98.2176 74.8706 96.4293 76.2623 94.5064C76.5713 94.0792 76.8705 93.6447 77.1619 93.2051C76.489 92.4191 76.6497 90.8849 76.6126 89.9317C76.5865 89.2615 76.5845 88.5912 76.5808 87.9204L76.579 87.7852C76.5708 87.3511 76.5512 86.9347 76.833 86.5775C76.8494 86.5568 76.8833 86.5574 76.9042 86.5683C77.2901 86.7705 77.409 87.1091 77.5737 87.4888L77.5909 87.5283C77.7913 87.9841 77.9832 88.4441 78.1773 88.9025C78.3806 89.3825 78.567 89.8695 78.7558 90.3552C78.8438 90.5812 78.9277 90.808 79.0097 91.0361C79.0597 91.1817 79.1114 91.3267 79.1645 91.4713L79.1771 91.4825C79.2472 91.542 79.3067 91.6048 79.3579 91.6697C79.5732 91.7774 79.7443 91.9737 79.8246 92.262C79.9993 92.8897 79.6377 93.4015 79.3152 93.8996C78.0051 95.9237 76.5116 97.8524 74.8515 99.6021C74.0268 100.471 73.1595 101.301 72.2564 102.089L72.0985 102.226C71.2873 102.923 70.4065 103.583 69.3231 103.746C68.0552 103.937 67.0234 103.306 66.0528 102.58L65.956 102.507C65.0359 101.811 64.1343 101.09 63.2608 100.336C61.4798 98.7981 59.7856 97.1471 58.2819 95.3358C56.8192 93.5741 55.3734 91.6041 54.4719 89.4842C54.4169 89.3551 54.5614 89.2199 54.6746 89.3278C55.115 89.747 55.5388 90.189 55.9575 90.6366C55.9691 89.9777 55.8475 89.3131 55.9151 88.65C55.9977 87.844 55.9739 86.9536 56.2046 86.1775Z" fill="black"/>
<path fill-rule="evenodd" clip-rule="evenodd" d="M67.9136 32.2276C75.0105 32.2276 83.8991 40.3403 86.5005 43.7925C88.6877 46.695 88.3783 61.6477 88.3783 70.5177C88.3783 72.3728 87.5415 75.8838 87.2377 77.6583C86.1245 84.1607 81.2747 89.614 71.6758 89.614C63.86 89.614 57.8453 87.1332 52.029 80.7881C50.702 79.3405 44.2216 84.5228 42.8963 82.6565C39.4345 82.6565 36.5399 50.2441 43.3366 40.5222C50.1333 30.8004 60.8167 32.2276 67.9136 32.2276Z" fill="#D08B5B"/>
<path fill-rule="evenodd" clip-rule="evenodd" d="M46.5832 34.5107C50.6841 30.7719 56.1473 28.9733 61.6592 29.1061C64.5139 29.175 67.3587 29.7198 70.0547 30.6529C71.4033 31.1214 72.7094 31.7326 73.958 32.424C74.408 32.6726 74.8228 32.9639 75.2221 33.2732L75.3216 33.3509H75.3229C76.394 33.7367 77.3502 34.4293 78.2176 35.2397C79.9562 35.1006 81.7085 35.2572 83.3896 35.7945C85.7294 36.5436 87.8954 37.9151 89.4165 39.8627C91.1883 42.1302 91.7774 44.8806 91.5672 47.7199L91.5284 48.2022C91.3205 50.7103 90.9482 53.9364 88.8941 55.5844C88.7378 55.7096 88.5653 55.8048 88.3866 55.8624C89.7102 58.1345 90.7964 60.6571 91.4463 63.2047C93.9273 72.9355 92.02 83.0834 89.0365 92.4623C88.7916 93.2351 87.6254 93.7486 87.0317 92.9934C85.9718 91.6431 84.432 90.6136 82.6997 90.4207C81.631 90.3017 80.5674 90.5171 79.5575 90.0312C79.1613 89.8395 78.7788 89.5264 78.5038 89.1456C76.799 89.7932 74.9629 90.0988 73.1419 90.0236C70.1534 89.9009 66.9587 88.8638 64.9027 86.5892C64.5727 86.2241 64.4891 85.8142 64.5651 85.4447C64.8229 85.3525 65.0876 85.2839 65.3604 85.2409C67.9676 86.7807 70.8416 87.8097 73.9303 87.8743C75.715 87.9116 77.4558 87.6615 78.9029 86.5448C79.216 86.303 79.504 86.0354 79.7702 85.7478C82.7958 83.7974 84.9289 80.4846 85.9431 76.9361C86.888 73.6269 86.7718 70.1812 86.4468 66.7869L86.2754 64.9957C86.0254 62.3668 85.7936 59.73 85.7286 57.0899L85.7482 57.0889V57.0889C86.3872 57.0475 86.3918 56.0452 85.7482 56.0869C84.0835 56.1948 82.4314 55.9212 80.7719 56.0404C80.758 55.2542 80.7015 54.4715 80.4709 53.7132C80.3393 53.28 79.5865 53.1945 79.5067 53.7132C79.4 54.4071 79.361 55.0971 79.3494 55.7942C76.8657 55.7611 74.3845 55.5517 71.9005 55.6377C71.4423 55.148 71.2964 54.2796 71.0821 53.6755C71.0508 53.5866 71.0196 53.4989 70.9871 53.41C70.7987 54.2732 70.5317 55.1175 70.1805 55.9441L69.5713 55.9461C66.1148 55.9624 62.588 56.0659 59.2127 56.7853C58.9781 56.6048 58.8385 56.2899 58.8008 56.0039C58.5559 54.1432 58.2065 52.332 57.5872 50.5588L57.4986 50.3086C57.4914 50.2879 57.4838 50.2658 57.4758 50.2426C57.0194 50.9807 56.475 51.6687 55.8812 52.3094C55.5312 52.687 55.1642 53.0481 54.7877 53.399C54.4218 53.806 54.0437 54.207 53.6773 54.6153C53.6916 54.6896 53.7041 54.765 53.7143 54.8417C53.8264 55.6891 53.838 56.5484 53.7559 57.399C53.6074 58.9367 53.1742 60.4185 52.4783 61.7892L52.4562 61.9265C52.3506 62.5688 52.2002 63.2327 51.8491 63.7165C52.2873 64.2085 52.6249 64.7961 52.8206 65.4491C52.9948 66.0304 52.1923 66.5341 51.7761 66.0584C51.4455 65.6805 51.0781 65.3678 50.6747 65.1183C50.6492 65.153 50.6032 65.17 50.5516 65.1411C49.4279 64.5161 47.5194 64.7052 46.397 65.2939C45.0009 66.0254 44.4559 67.5271 44.6109 69.0489C44.7596 70.5031 45.3946 72.2028 46.6257 72.948C47.1906 73.29 47.6306 73.3188 48.2305 73.1547C48.4224 73.1025 48.6602 72.9424 48.7623 72.8628L48.8627 72.7821C49.256 72.4706 49.6223 72.2573 50.0866 72.2491C50.5615 72.1007 51.0387 72.3066 51.2203 72.8056L51.2315 72.8378C51.3165 73.0921 51.4715 73.4115 51.4377 73.7998C51.4027 74.2156 51.2128 74.5938 50.929 74.8982C50.8803 74.9508 50.8278 75.0034 50.774 75.0523C55.6611 80.3542 56.2885 88.6158 53.7825 95.2391C53.6738 95.5297 53.5575 95.8165 53.4363 96.1009C53.0176 97.0753 51.4052 96.7735 51.2003 95.8078C51.139 95.5184 51.0715 95.2304 50.9978 94.9448C50.8622 94.4171 50.7069 93.8943 50.5319 93.3791L50.4653 93.1863C50.3166 92.7604 50.1779 92.3308 50.0279 91.9049L50.0129 91.8562C50.0072 91.837 50.001 91.8147 49.9941 91.7897L49.7404 92.3446V92.3446L48.9692 94.0192C48.6084 94.8006 47.4618 94.3759 47.4191 93.6229L47.4181 93.5971C47.4144 93.458 47.4094 93.3203 47.4006 93.1837C47.3456 92.1604 47.1694 91.1659 46.8894 90.1927L46.7884 90.3185C45.2843 92.182 43.5191 93.9286 41.0975 94.3586C40.4901 94.4663 39.8026 93.83 40.2201 93.2151C40.3926 92.9608 40.5588 92.7003 40.7163 92.436C40.58 92.3721 40.4513 92.3057 40.3326 92.2381C39.4139 91.7208 38.649 90.9843 38.0165 90.1489C36.6754 88.3778 36.1955 86.1483 36.078 83.9665C35.953 81.6606 36.1555 79.2294 36.7842 77.0049C37.0566 76.043 37.4254 75.1199 37.8516 74.2244C37.8216 74.1442 37.7928 74.064 37.7641 73.9839C37.3041 72.6988 36.9267 71.3849 36.6129 70.056C35.9805 67.3731 35.6405 64.605 35.5993 61.8482C35.5243 56.9095 36.3742 51.8919 38.1653 47.2864C40.0151 42.5369 42.7973 37.9614 46.5832 34.5107ZM44.2795 77.69C43.9398 77.1541 43.0899 77.6371 43.4053 78.1768L43.4171 78.1961C43.9558 79.0465 44.2082 80.0135 44.5182 80.9616C44.7169 81.5716 45.6831 81.3111 45.4819 80.6948L45.4153 80.4891C45.1068 79.5276 44.8254 78.5504 44.2795 77.69ZM47.2382 67.4594L47.4639 67.35C48.1757 67.0096 48.7994 66.7777 49.6405 67.0749C50.7666 67.472 51.9728 68.7358 51.2116 69.962C50.9316 70.4141 50.4342 70.5945 49.9217 70.488C49.0578 70.3085 48.8349 69.5289 48.3965 68.8889L48.321 68.7805C48.0537 68.3933 47.7157 67.858 47.2707 67.7062C47.1695 67.6711 47.127 67.5133 47.2382 67.4594ZM47.8732 41.4247L47.9458 41.3594C48.4295 40.9311 47.7196 40.2246 47.2384 40.6505C45.0361 42.6007 44.2712 45.6531 43.1288 48.2545C42.8726 48.8395 43.7338 49.3505 43.9925 48.7606C45.0822 46.2781 45.8055 43.3086 47.8732 41.4247V41.4247ZM74.3378 40.5717C73.7624 40.3118 73.2589 41.151 73.8121 41.4273L73.8329 41.4372C75.7777 42.3177 76.6051 44.3117 77.3975 46.1629C77.65 46.7541 78.5111 46.2444 78.2612 45.6582L78.1182 45.326C77.2913 43.4182 76.3269 41.4737 74.3378 40.5717ZM77.3864 39.3668C76.7765 39.1551 76.5153 40.122 77.1202 40.3337C78.7688 40.9086 79.8999 42.1486 80.8536 43.5665C81.2111 44.0975 82.0772 43.5965 81.716 43.0604C80.6086 41.4146 79.2938 40.0331 77.3864 39.3668Z" fill="black"/>
<path fill-rule="evenodd" clip-rule="evenodd" d="M74.1201 80.8191C73.2781 80.4756 72.5269 79.9027 71.9776 79.1708C71.7867 78.9163 71.7372 78.6476 71.7772 78.4019C71.8223 78.1256 71.9858 77.8751 72.2087 77.7071C72.4324 77.5386 72.7121 77.4555 72.9826 77.4979C73.2176 77.5347 73.4515 77.6634 73.6367 77.9302L73.6753 77.9836C74.0019 78.4253 74.4274 78.7878 74.9122 79.0214C75.3795 79.2466 75.9021 79.3517 76.443 79.2906C77.473 79.1742 78.183 78.6172 78.9376 77.8607C79.0311 77.7652 79.1247 77.6667 79.2188 77.5666C79.2782 77.4759 79.3606 77.4175 79.4521 77.387C79.5537 77.353 79.6687 77.3549 79.7739 77.3916C79.8755 77.4271 79.9663 77.4942 80.0271 77.5836C80.085 77.6685 80.1178 77.7735 80.1071 77.8942C80.0381 78.6781 79.6282 79.3778 79.046 79.9272C78.3994 80.5373 77.5423 80.9595 76.7353 81.1075C75.8463 81.2706 74.9404 81.1537 74.1201 80.8191V80.8191ZM77.1547 68.7249C78.1005 69.2999 79.5417 70.6404 78.5242 72.0657C77.3265 73.3224 75.6021 71.8815 74.7524 71.2299C73.9644 70.7248 73.0792 72.0237 73.8102 72.6135C79.9505 77.1595 82.4424 68.8753 77.6331 68.049C77.1036 67.9579 76.9069 68.5471 77.1547 68.7249ZM66.1514 63.4366C66.2559 62.1395 68.2314 61.8449 68.428 63.1285C68.6039 64.2783 68.3968 65.3346 67.8789 66.3698C67.384 67.3588 66.1402 66.8974 66.0461 65.9968C65.92 64.7896 66.0864 64.2435 66.1514 63.4366ZM81.1898 62.8625C81.4653 62.5018 81.8629 62.2555 82.3394 62.3947C83.828 62.8297 83.3893 64.943 82.8665 65.9717C82.5824 66.5304 81.6642 66.672 81.2492 66.1802C80.5728 65.378 80.2489 63.7762 81.1088 62.9861C81.1321 62.9453 81.158 62.9041 81.1898 62.8625ZM67.8579 57.7608L68.093 57.7197C68.8205 57.5939 69.725 57.473 70.2396 58.0578C70.5125 58.3679 70.6064 58.9443 70.2396 59.2412C69.5943 59.7635 68.8808 59.5611 68.1075 59.6053C67.4702 59.6419 66.8578 59.7473 66.2439 59.9228C64.8972 60.3077 63.7999 61.0104 62.6497 61.7819C62.4987 61.8831 62.3447 61.6901 62.4167 61.5489C63.0807 60.2484 64.3674 59.1802 65.6562 58.529C66.3441 58.1814 67.0969 57.8931 67.8579 57.7608ZM79.8327 57.1782L80.0127 57.215C81.9713 57.6244 84.516 58.4422 85.4435 60.366C85.4788 60.6381 85.4415 60.6964 85.4111 60.7345L85.401 60.7471C85.376 60.7797 85.356 60.8245 85.2381 60.8615C85.2054 60.8537 85.1723 60.8455 85.1389 60.8367C84.7138 60.7253 84.3774 60.5718 84.0518 60.4126L83.6987 60.2386C83.289 60.0378 82.8758 59.8442 82.4378 59.7013C81.5032 59.3965 80.5418 59.1817 79.5655 59.067C79.3539 59.0422 79.1502 58.9708 78.9894 58.8484C78.8369 58.7322 78.7203 58.5714 78.6672 58.3576C78.5983 58.0809 78.6181 57.8714 78.7665 57.6218C78.8782 57.4343 79.0379 57.3044 79.2213 57.2298C79.4083 57.1537 79.6211 57.1358 79.8327 57.1782Z" fill="black"/>
</svg>
