<svg width="399" height="539" viewBox="0 0 399 539" fill="none" xmlns="http://www.w3.org/2000/svg">
<path fill-rule="evenodd" clip-rule="evenodd" d="M329.067 475.487C335.845 475.16 333.118 463.304 332.632 458.95C327.266 443.048 328.527 425.697 326.417 409.029C325.102 393.469 323.413 377.957 321.992 362.409C319.201 330.848 299.159 266.597 276.288 256.264C273.407 243.623 261.507 231.822 246.451 231.822C236.182 219.667 223.822 211.112 207.97 212.84C201.418 213.138 195.065 220.086 188.788 221.428C185.273 221.912 154.081 220.665 147.833 224.376C143.481 226.61 139.552 230.74 140.832 235.997C142.873 242.367 136.528 235.475 123.291 242.273C96.2999 258.484 112.429 280.17 113.144 280.842C96.2999 304.277 81.5777 323.29 74.766 351.935C70.3513 373.201 70.8482 395.155 67.1493 416.53C65.8433 423.942 63.8397 431.1 61.6717 438.298C59.3219 447.718 58.1794 471.195 56.8843 471.405C54.5251 471.991 58.2477 476.835 60.7476 476.839C130.055 488.335 200.455 477.315 270.136 475.514C289.773 474.832 309.431 474.674 329.067 475.487Z" fill="#D08B5B"/>
<path fill-rule="evenodd" clip-rule="evenodd" d="M188.875 242.064C188.875 249.44 214.487 276.848 223.326 275.04C229.219 273.834 238.122 265.973 250.036 251.455V242.064L247.463 231.84C262.038 232.353 273.471 243.907 276.288 256.264C298.93 266.494 318.8 329.568 321.903 361.452L321.992 362.409C323.413 377.957 325.102 393.469 326.417 409.029C328.527 425.697 327.266 443.048 332.632 458.95L332.664 459.22C333.224 463.774 335.709 475.166 329.067 475.487C309.431 474.674 289.773 474.832 270.136 475.514C200.455 477.315 130.055 488.335 60.7476 476.839C58.2477 476.835 54.5251 471.991 56.8843 471.405C58.1794 471.195 59.3219 447.717 61.6717 438.298L62.1177 436.809C64.1128 430.112 65.9334 423.431 67.1493 416.53C70.8482 395.155 70.3513 373.201 74.766 351.935C81.5777 323.29 96.2999 304.277 113.144 280.842C112.429 280.17 96.2999 258.484 123.291 242.273C136.528 235.475 142.873 242.367 140.832 235.997C139.552 230.74 143.481 226.61 147.833 224.376C154.081 220.665 185.273 221.912 188.788 221.428C190.421 221.079 192.058 220.35 193.704 219.458L193.418 220.409C190.389 230.56 188.875 237.778 188.875 242.064Z" fill="#78E185"/>
<path fill-rule="evenodd" clip-rule="evenodd" d="M224.02 282.911C224.053 282.593 224.481 282.594 224.514 282.911L225.003 287.634C225.598 293.403 226.171 299.161 226.587 304.957C227.105 312.185 227.451 319.411 227.618 326.655C228.201 351.883 228.316 377.125 228.365 402.361C231.778 402.124 235.191 401.897 238.606 401.676C240.923 401.527 243.24 401.383 245.557 401.242L251.465 400.884L253.898 400.734C255.542 400.633 257.409 400.219 258.558 401.675C259.018 402.258 259.249 403.015 258.82 403.707C257.831 405.303 256.311 405.248 254.592 405.317C252.971 405.382 251.349 405.446 249.728 405.509C246.252 405.644 242.778 405.771 239.301 405.869C235.653 405.971 232.007 406.054 228.36 406.116C228.324 416.769 227.883 427.409 227.406 438.051L227.19 442.84C226.607 455.79 225.98 468.751 225.089 481.684C225.015 482.743 223.518 482.741 223.445 481.684C222.441 467.12 221.779 452.524 221.123 437.94C220.646 427.366 220.369 416.789 220.237 406.211C219.755 406.214 219.273 406.22 218.791 406.222C205.104 406.282 191.421 406.341 177.734 406.213C177.757 406.24 177.779 406.267 177.794 406.303C178.785 408.641 178.879 411.625 178.855 414.134C178.827 417.012 178.44 419.855 177.777 422.653C175.402 432.679 169.277 441.659 162.3 449.084L162.073 449.325C160.427 451.064 158.539 452.811 157.529 455.026C156.497 457.287 156.138 459.932 155.629 462.362L155.57 462.641L153.578 471.839C152.946 474.76 152.766 479.021 150.454 481.129C148.296 483.095 145.438 482.068 144.423 479.536C143.63 477.56 144.419 475.389 144.889 473.414L148.568 457.948C149.173 455.426 149.833 452.887 151.138 450.621C152.475 448.301 154.434 446.618 156.434 444.897C160.219 441.638 163.695 437.906 166.634 433.866C169.572 429.827 172.083 425.376 173.844 420.694C174.726 418.351 175.448 415.916 175.947 413.462C176.421 411.133 176.416 408.721 176.923 406.417C176.958 406.258 177.092 406.148 177.246 406.1C177.21 405.997 177.265 405.858 177.409 405.849L188.603 405.13C198.553 404.488 208.503 403.83 218.444 403.078L220.201 402.951C220.064 388.837 220.18 374.72 220.435 360.6C220.668 347.653 220.673 334.701 221.058 321.755C221.25 315.33 221.663 308.92 222.122 302.508C222.592 295.95 223.344 289.448 224.02 282.911ZM118.917 357.984C118.798 357.265 119.702 356.82 120.119 357.478C124.885 364.99 127.184 373.151 128.152 381.943C129.008 389.702 128.756 397.573 128.33 405.353C127.875 413.651 127.345 421.946 126.809 430.24L125.985 442.957L123.917 474.839C123.769 477.12 123.252 479.194 121.288 480.254C121.04 480.462 120.78 480.648 120.478 480.809C119.418 481.376 118.011 481.09 117.397 480.001L117.643 480.163C117.857 480.298 117.617 480.109 116.921 479.599L116.331 478.835C115.902 478.19 115.628 477.556 115.518 476.79C115.347 475.599 115.569 474.293 115.646 473.097L117.002 452.191C118.055 435.938 119.286 419.69 120.214 403.428C120.646 395.85 120.948 388.264 120.744 380.672C120.539 373.122 120.155 365.444 118.917 357.984ZM160.151 218.034L160.415 217.989C169.882 216.417 180.177 216.711 188.829 221.275C188.901 221.312 188.868 221.431 188.788 221.428L186.003 221.316C177.186 220.971 168.397 220.767 159.729 222.838L158.841 223.052C155.719 223.813 152.459 224.745 149.952 226.807C147.555 228.778 146.362 231.819 145.214 234.618L145.061 234.987C143.896 237.751 142.423 240.373 139.871 242.102C136.565 244.34 132.59 244.066 128.8 244.37C122.127 244.906 116.671 249.742 113.956 255.661C112.313 259.244 111.611 263.262 111.473 267.181C111.401 269.176 111.391 271.249 111.657 273.231C111.742 273.864 112.525 276.173 112.925 276.118C113.813 275.994 114.624 276.457 114.901 277.167C117.093 275.049 119.349 272.991 121.677 271.008C127.481 266.066 133.733 261.586 140.316 257.737C145.341 254.799 150.64 251.888 156.129 249.687C155.694 249.678 155.265 249.764 154.85 249.98C154.668 250.075 154.488 249.847 154.631 249.696C156.36 247.877 158.43 247.619 160.518 248.104C160.963 247.962 161.409 247.825 161.856 247.695C162.079 247.63 162.19 247.937 162.008 248.055L161.496 248.383C163.773 249.146 166.008 250.645 167.778 251.828C172.863 255.226 177.338 259.38 181.875 263.456L182.7 264.195C186.693 267.761 190.788 271.226 195.325 274.086C197.7 275.583 200.195 276.968 202.811 277.998C205.056 278.883 208.71 279.439 209.761 281.811C210.695 282.946 210.305 284.394 209.21 285.158C207.365 287.189 203.673 285.877 201.475 285.031C198.824 284.011 196.255 282.786 193.806 281.348C189.051 278.556 184.666 275.085 180.582 271.393C176.316 267.537 172.293 263.44 168.144 259.463C166.346 257.74 164.59 255.976 162.79 254.255L161.885 253.399C160.967 252.537 159.657 251.194 158.258 250.381C155.621 251.954 152.943 253.462 150.33 255.075C146.682 257.327 143.142 259.742 139.656 262.236C132.946 267.038 126.587 272.416 120.684 278.18C109.857 288.751 100.632 300.822 92.5741 313.604L91.9622 314.578C87.3831 321.894 83.0528 329.446 79.9824 337.53C76.6041 346.425 74.961 355.78 74.0685 365.222C73.1826 374.597 72.8838 384.02 71.8937 393.386C70.8784 402.992 68.878 412.386 66.6026 421.763L66.06 423.986C64.0011 432.383 61.8761 440.781 60.8178 449.376C60.2528 453.968 59.9129 458.622 59.9897 463.251C60.0669 467.906 60.7985 472.459 61.3887 477.065C61.6149 478.83 59.8782 480.303 58.3242 480.537C56.537 480.805 55.0017 479.665 54.4461 478.005C52.7144 472.829 52.3998 467.108 52.4541 461.676C52.5088 456.161 53.2127 450.683 54.2031 445.263C56.1509 434.602 59.1568 424.162 61.6714 413.629C63.8875 404.345 65.3748 395.045 66.1765 385.534C67.0088 375.667 67.5071 365.766 69.0253 355.97C70.5239 346.299 73.3436 337.061 77.5959 328.243C81.4677 320.214 86.2941 312.657 91.354 305.331C97.4988 296.436 104.247 287.972 111.791 280.26C111.113 280.231 110.418 280.012 109.779 279.613C107.824 278.394 106.913 276.009 106.634 273.831C105.978 268.736 106.137 263.417 107.447 258.436C109.561 250.401 115.046 243.261 122.997 240.365C125.043 239.619 127.219 239.347 129.387 239.293C131.445 239.242 133.693 239.511 135.679 238.858C138.839 237.819 140.194 234.097 141.381 231.275L141.436 231.146C142.957 227.55 144.784 224.468 148.08 222.223C151.596 219.827 156.002 218.737 160.151 218.034ZM250.106 232.254C252.951 231.267 256.507 232.163 259.29 233.025C262.389 233.986 265.253 235.755 267.709 237.857C270.3 240.074 272.441 242.81 273.953 245.868L274.098 246.162C275.48 248.999 277.053 252.892 276.356 256.008C276.336 256.096 276.314 256.181 276.288 256.264C281.932 259.043 287.145 262.523 291.685 266.934C296.97 272.07 301.446 277.915 305.234 284.229C320.277 309.307 322.924 339.425 324.701 368.025L325.144 375.277C326.109 390.935 327.238 406.557 330.171 421.999L330.385 423.114C333.52 439.283 338.007 455.574 337.552 472.161C337.416 477.13 330.071 477.096 329.859 472.161C329.057 453.583 324.721 435.646 321.786 417.358C316.62 385.184 319.208 352.014 311.889 320.162C309.017 307.663 304.567 295.538 298.214 284.38C295.075 278.868 291.484 273.542 287.278 268.787C283.659 264.695 279.898 260.757 275.669 257.317C274.317 258.671 271.617 257.981 270.911 256.008C270.427 254.652 270.568 253.066 270.257 251.645C269.968 250.327 269.57 249.02 269.04 247.779C267.983 245.304 266.431 242.928 264.64 240.926C262.705 238.761 260.482 236.963 257.993 235.478C255.488 233.983 252.748 233.536 250.106 232.444C250.017 232.407 250.008 232.288 250.106 232.254ZM261.159 404.203C261.163 404.073 261.317 404.011 261.411 404.098C262.409 405.016 263.012 406.333 263.746 407.462C264.592 408.764 265.481 410.039 266.414 411.281C268.281 413.77 270.361 416.115 272.457 418.414C274.406 420.551 276.483 422.598 278.638 424.527C280.973 426.619 283.59 428.484 285.712 430.799C290.138 435.631 290.853 442.262 291.787 448.488L291.89 449.161C292.459 452.856 292.969 456.561 293.43 460.271C293.653 462.076 293.876 463.883 294.059 465.692L294.114 466.265C294.277 468.036 294.321 469.833 293.304 471.381C292.215 473.037 289.739 473.617 288.267 472.029C285.738 469.302 286.212 464.457 285.883 460.949C285.612 458.047 285.303 455.149 284.958 452.256L284.783 450.809C284.376 447.518 284.045 444.16 283.292 440.926C282.628 438.077 281.363 435.927 279.288 433.864C277.197 431.785 275.024 429.845 273.095 427.606C271.047 425.232 269.201 422.686 267.537 420.029C266.114 417.757 264.974 415.284 263.929 412.813L263.755 412.402C262.745 409.993 261.08 406.857 261.159 404.203ZM297.671 300.729C297.694 300.393 298.19 300.388 298.198 300.729C298.26 303.619 298.321 306.509 298.381 309.399C298.863 332.687 298.566 356.029 300.902 379.237C302.004 390.179 304.033 400.961 306.381 411.697C307.583 417.191 308.843 422.672 310.041 428.166C311.208 433.521 312.46 438.902 313.386 444.307C314.295 449.619 315.11 454.971 315.476 460.352L315.521 461.054C315.678 463.66 316.43 467.493 314.995 469.803C313.44 472.306 310.463 472.35 308.797 469.961C307.232 467.719 307.621 463.729 307.345 461.054C307.064 458.328 306.767 455.599 306.429 452.88C305.771 447.575 304.904 442.281 304.002 437.012C302.123 426.039 299.398 415.205 297.387 404.249C295.325 393.024 293.86 381.718 293.798 370.288C293.737 358.762 294.957 347.257 295.573 335.756C296.198 324.075 296.91 312.402 297.671 300.729ZM187.662 228.297C188.287 226.191 190.494 224.875 192.647 225.467C194.619 226.009 196.248 228.403 195.477 230.452C194.635 232.687 193.164 234.593 191.924 236.625C190.779 238.502 189.108 239.98 187.941 241.824L189.227 243.21C189.87 243.902 190.515 244.589 191.168 245.265L193.41 247.588C195.157 249.393 196.914 251.189 198.721 252.931C204.035 258.057 209.433 263.014 215.385 267.404C216.739 268.402 218.105 269.396 219.508 270.326L220.031 270.672C220.994 271.303 222.069 271.923 223.232 271.816C226.058 271.556 228.612 268.555 230.555 266.686L230.656 266.589C235.47 262.009 239.927 257.002 243.824 251.618C244.689 250.421 245.527 249.205 246.342 247.974C244.458 245.773 244.908 241.477 244.805 238.808C244.731 236.932 244.726 235.055 244.715 233.177L244.71 232.798C244.687 231.583 244.633 230.417 245.421 229.417C245.467 229.359 245.562 229.36 245.621 229.391C246.701 229.957 247.034 230.905 247.495 231.968L247.544 232.079C248.105 233.355 248.642 234.643 249.186 235.927C249.755 237.271 250.277 238.634 250.805 239.994C251.052 240.627 251.287 241.262 251.516 241.901C251.656 242.309 251.801 242.714 251.95 243.119L251.985 243.151C252.181 243.317 252.348 243.493 252.491 243.675C253.094 243.976 253.573 244.526 253.798 245.333C254.287 247.091 253.275 248.524 252.372 249.918C248.703 255.586 244.521 260.986 239.873 265.885C237.564 268.319 235.136 270.644 232.607 272.849L232.165 273.232C229.893 275.184 227.427 277.033 224.394 277.489C220.844 278.023 217.955 276.258 215.237 274.224L214.966 274.02C212.389 272.07 209.865 270.051 207.419 267.939C202.433 263.634 197.689 259.012 193.478 253.94C189.383 249.007 185.335 243.491 182.81 237.555C182.656 237.194 183.061 236.815 183.378 237.117C184.611 238.291 185.798 239.529 186.97 240.782C187.003 238.937 186.662 237.076 186.851 235.22C187.083 232.963 187.016 230.47 187.662 228.297Z" fill="black"/>
<path fill-rule="evenodd" clip-rule="evenodd" d="M220.449 77.2373C240.32 77.2373 265.208 99.9529 272.492 109.619C278.616 117.746 277.75 159.614 277.75 184.45C277.75 189.644 275.407 199.475 274.556 204.443C271.439 222.65 257.86 237.919 230.983 237.919C209.099 237.919 192.258 230.973 175.972 213.207C172.256 209.154 154.111 223.664 150.4 218.438C140.707 218.438 132.603 127.684 151.633 100.462C170.664 73.2413 200.577 77.2373 220.449 77.2373Z" fill="#D08B5B"/>
<path fill-rule="evenodd" clip-rule="evenodd" d="M160.724 83.6299C172.206 73.1613 187.503 68.1252 202.937 68.4969C210.93 68.6898 218.895 70.2154 226.444 72.8282C230.22 74.1398 233.877 75.8512 237.373 77.7871C238.633 78.4832 239.795 79.2987 240.913 80.1648L241.191 80.3824H241.195C244.194 81.4625 246.871 83.4019 249.3 85.671C254.168 85.2817 259.075 85.7201 263.782 87.2246C270.333 89.3218 276.398 93.1621 280.657 98.6155C285.618 104.964 287.267 112.666 286.679 120.615L286.57 121.966C285.988 128.989 284.946 138.022 279.194 142.636C278.757 142.987 278.274 143.253 277.773 143.415C281.479 149.776 284.521 156.84 286.34 163.973C293.287 191.219 287.947 219.634 279.593 245.894C278.907 248.058 275.642 249.496 273.98 247.381C271.012 243.601 266.7 240.718 261.85 240.178C258.858 239.845 255.879 240.448 253.052 239.087C251.942 238.551 250.871 237.674 250.102 236.608C245.328 238.421 240.187 239.277 235.088 239.066C226.72 238.722 217.775 235.819 212.018 229.45C211.094 228.427 210.86 227.28 211.073 226.245C211.795 225.987 212.536 225.795 213.3 225.674C220.6 229.986 228.647 232.867 237.296 233.048C242.293 233.153 247.167 232.452 251.219 229.325C252.096 228.648 252.902 227.899 253.647 227.094C262.119 221.633 268.092 212.357 270.932 202.421C273.577 193.155 273.252 183.507 272.342 174.003L271.862 168.988C271.162 161.627 270.513 154.244 270.331 146.852L270.386 146.849C272.175 146.733 272.188 143.926 270.386 144.043C265.725 144.345 261.099 143.579 256.452 143.913C256.413 141.712 256.255 139.52 255.609 137.397C255.241 136.184 253.133 135.945 252.91 137.397C252.611 139.34 252.502 141.272 252.469 143.224C245.515 143.131 238.567 142.545 231.612 142.786C230.329 141.414 229.921 138.983 229.321 137.291C229.233 137.042 229.146 136.797 229.055 136.548C228.527 138.965 227.78 141.329 226.796 143.643L225.091 143.649C215.412 143.695 205.537 143.985 196.086 145.999C195.43 145.493 195.039 144.612 194.933 143.811C194.247 138.601 193.269 133.529 191.535 128.565L191.287 127.864C191.267 127.806 191.245 127.744 191.223 127.679C189.945 129.746 188.421 131.672 186.758 133.466C185.778 134.524 184.751 135.535 183.696 136.517C182.672 137.657 181.613 138.779 180.587 139.923C180.627 140.131 180.662 140.342 180.691 140.557C181.005 142.929 181.037 145.335 180.807 147.717C180.392 152.023 179.179 156.172 177.23 160.01L177.168 160.394C176.872 162.193 176.451 164.052 175.468 165.406C176.695 166.784 177.64 168.429 178.188 170.257C178.676 171.885 176.429 173.295 175.264 171.964C174.338 170.905 173.31 170.03 172.18 169.331C172.109 169.428 171.98 169.476 171.835 169.395C168.689 167.645 163.345 168.174 160.202 169.823C156.293 171.871 154.767 176.076 155.201 180.337C155.618 184.409 157.396 189.168 160.843 191.254C162.425 192.212 163.657 192.293 165.336 191.833C165.873 191.687 166.539 191.239 166.825 191.016L167.106 190.79C168.208 189.918 169.233 189.32 170.533 189.297C171.863 188.882 173.199 189.458 173.708 190.856L173.739 190.946C173.977 191.658 174.411 192.552 174.316 193.639C174.218 194.804 173.687 195.863 172.892 196.715C172.756 196.862 172.609 197.009 172.458 197.146C186.142 211.992 187.899 235.124 180.882 253.669C180.577 254.483 180.252 255.286 179.912 256.082C178.74 258.811 174.225 257.966 173.652 255.262C173.48 254.452 173.291 253.645 173.085 252.845C172.705 251.368 172.27 249.904 171.78 248.461L171.594 247.921C171.177 246.729 170.789 245.526 170.369 244.334L170.327 244.197C170.311 244.143 170.294 244.081 170.274 244.011L169.564 245.565L167.405 250.254C166.394 252.442 163.184 251.253 163.064 249.144L163.062 249.072C163.051 248.682 163.037 248.297 163.013 247.914C162.859 245.049 162.365 242.265 161.581 239.54L161.298 239.892C157.087 245.109 152.144 250 145.364 251.204C143.663 251.506 141.738 249.724 142.907 248.002C143.39 247.29 143.855 246.561 144.296 245.821C143.915 245.642 143.554 245.456 143.222 245.267C140.65 243.818 138.508 241.756 136.737 239.417C132.982 234.458 131.638 228.215 131.309 222.106C130.959 215.65 131.526 208.842 133.286 202.614C134.049 199.92 135.082 197.336 136.275 194.828C136.191 194.604 136.111 194.379 136.03 194.155C134.742 190.557 133.685 186.878 132.807 183.157C131.036 175.645 130.084 167.894 129.969 160.175C129.759 146.347 132.139 132.297 137.154 119.402C142.333 106.103 150.123 93.2918 160.724 83.6299ZM154.274 204.532C153.323 203.031 150.943 204.384 151.826 205.895L151.859 205.949C153.367 208.33 154.074 211.038 154.942 213.692C155.499 215.4 158.204 214.671 157.641 212.945L157.454 212.369C156.59 209.677 155.803 206.941 154.274 204.532ZM162.558 175.886L163.189 175.58C165.183 174.627 166.929 173.978 169.284 174.81C172.437 175.921 175.814 179.46 173.683 182.893C172.899 184.16 171.506 184.665 170.071 184.366C167.652 183.864 167.028 181.681 165.801 179.889L165.589 179.585C164.841 178.501 163.895 177.002 162.649 176.577C162.365 176.479 162.246 176.037 162.558 175.886ZM164.335 102.989L164.538 102.807C165.893 101.607 163.905 99.6291 162.558 100.822C156.391 106.282 154.249 114.829 151.051 122.113C150.333 123.751 152.745 125.182 153.469 123.53C156.52 116.579 158.546 108.264 164.335 102.989ZM238.437 100.6C236.826 99.8728 235.416 102.223 236.965 102.996L237.023 103.024C242.469 105.489 244.786 111.073 247.004 116.256C247.711 117.911 250.123 116.484 249.423 114.843L249.022 113.913C246.707 108.571 244.007 103.126 238.437 100.6ZM246.973 97.2267C245.265 96.634 244.534 99.3415 246.227 99.9342C250.843 101.544 254.011 105.016 256.681 108.986C257.682 110.473 260.107 109.07 259.096 107.569C255.995 102.961 252.313 99.0925 246.973 97.2267Z" fill="black"/>
<path fill-rule="evenodd" clip-rule="evenodd" d="M237.827 213.293C235.469 212.332 233.366 210.727 231.828 208.678C231.293 207.965 231.155 207.213 231.267 206.525C231.393 205.751 231.851 205.05 232.475 204.58C233.101 204.108 233.884 203.875 234.642 203.994C235.3 204.097 235.955 204.457 236.473 205.204L236.581 205.354C237.496 206.591 238.687 207.606 240.045 208.26C241.353 208.89 242.816 209.185 244.331 209.013C247.215 208.688 249.203 207.128 251.316 205.01C251.578 204.742 251.84 204.466 252.103 204.186C252.269 203.932 252.5 203.769 252.756 203.683C253.041 203.588 253.363 203.593 253.658 203.696C253.942 203.796 254.196 203.984 254.366 204.234C254.528 204.472 254.62 204.766 254.59 205.103C254.397 207.299 253.249 209.258 251.619 210.796C249.809 212.504 247.409 213.686 245.149 214.101C242.66 214.557 240.124 214.23 237.827 213.293ZM246.324 179.429C248.972 181.039 253.007 184.793 250.158 188.783C246.805 192.302 241.976 188.268 239.597 186.443C237.391 185.029 234.912 188.666 236.959 190.317C254.152 203.046 261.129 179.85 247.663 177.537C246.18 177.282 245.63 178.931 246.324 179.429ZM215.514 164.622C215.806 160.99 221.338 160.166 221.888 163.76C222.381 166.979 221.801 169.937 220.351 172.835C218.965 175.604 215.482 174.312 215.219 171.791C214.866 168.411 215.332 166.882 215.514 164.622ZM257.621 163.014C258.392 162.004 259.505 161.315 260.84 161.705C265.008 162.923 263.779 168.84 262.315 171.72C261.52 173.284 258.949 173.681 257.787 172.304C255.893 170.058 254.986 165.573 257.394 163.361C257.459 163.246 257.532 163.131 257.621 163.014ZM220.292 148.73L220.95 148.614C222.987 148.262 225.52 147.924 226.961 149.561C227.725 150.43 227.988 152.044 226.961 152.875C225.154 154.337 223.156 153.77 220.991 153.894C219.207 153.997 217.492 154.292 215.773 154.783C212.002 155.861 208.929 157.828 205.709 159.989C205.286 160.272 204.855 159.732 205.057 159.336C206.916 155.695 210.519 152.704 214.127 150.881C216.053 149.907 218.161 149.1 220.292 148.73ZM253.821 147.099L254.325 147.202C259.809 148.348 266.934 150.638 269.531 156.025C269.63 156.786 269.526 156.949 269.441 157.056L269.412 157.092C269.342 157.183 269.286 157.308 268.956 157.412C268.865 157.39 268.772 157.367 268.679 157.342C267.488 157.031 266.546 156.601 265.635 156.155L264.646 155.668C263.499 155.105 262.342 154.563 261.115 154.163C258.498 153.31 255.807 152.708 253.073 152.387C252.481 152.318 251.91 152.118 251.46 151.775C251.033 151.45 250.706 151 250.558 150.401C250.365 149.626 250.42 149.04 250.836 148.341C251.148 147.816 251.596 147.452 252.109 147.243C252.633 147.03 253.229 146.98 253.821 147.099Z" fill="black"/>
</svg>
