<svg width="399" height="539" viewBox="0 0 399 539" fill="none" xmlns="http://www.w3.org/2000/svg">
<path fill-rule="evenodd" clip-rule="evenodd" d="M323.292 418.49C321.878 410.506 320.582 402.501 319.405 394.479C318.845 390.671 318.3 386.859 317.81 383.04C317.467 380.365 316.944 377.306 318.764 375.325C321.325 372.536 323.652 370.149 323.965 366.154C324.26 362.396 322.989 358.298 322.194 354.65C320.528 346.999 318.453 339.443 316.16 331.958C313.831 324.353 311.278 316.821 308.687 309.302C306.265 302.273 303.937 295.18 300.782 288.435C294.795 275.636 284.667 266.158 272.149 259.829C269.036 258.255 262.687 252.636 259.434 251.378C256.444 250.221 256.455 253.599 253.512 252.327C251.159 251.31 248.969 249.953 247.652 247.682C246.221 245.215 242.635 241.766 242.089 238.895C240.932 232.81 242.185 227.63 237.842 223.05C233.986 218.983 228.804 216.197 223.442 214.701C211.645 211.411 195.913 213.711 188.796 224.673C185.397 229.908 184.209 236.235 179.622 240.507C175.617 244.237 176.513 246.787 171.325 248.71C171.031 248.819 163.068 247.111 162.774 247.22C157.099 246.006 151.675 249.405 146.468 251.378C138.706 254.318 131.316 258.146 124.373 262.695C110.373 271.868 98.3825 283.779 88.4972 297.257C78.5301 310.847 70.7967 326.079 65.2903 341.999C63.953 345.866 62.7519 349.78 61.6924 353.732C61.0993 355.944 60.4656 358.238 61.1877 360.502C61.7783 362.355 63.092 363.734 64.6348 364.846C66.7261 366.353 70.9208 367.332 70.8391 370.363C70.7767 372.667 69.995 375.092 69.6134 377.369C69.1592 380.081 68.7861 382.809 68.4129 385.532C66.7155 397.93 65.3944 410.397 64.8101 422.9C64.235 435.21 63.7577 447.772 64.6116 460.079C64.6681 460.891 64.9101 461.635 65.3004 462.265C64.9361 462.405 64.908 463.084 65.3615 463.18C65.6792 463.247 65.9962 463.314 66.314 463.382C66.974 463.881 67.7971 464.188 68.7444 464.217C69.3865 464.238 70.0283 464.267 70.6697 464.3C77.4387 465.714 84.2066 467.051 91.064 468.063C99.3995 469.293 107.76 470.296 116.146 471.112C133.378 472.787 150.474 472.231 167.729 471.328C184.957 470.427 202.175 470.216 219.42 470.664C236.681 471.113 253.936 471.864 271.201 472.172C290.49 472.514 309.749 471.988 328.981 470.454C331.618 470.244 333.25 468.146 332.73 465.527C329.614 449.836 326.082 434.249 323.292 418.49Z" fill="#EDB98A"/>
<path fill-rule="evenodd" clip-rule="evenodd" d="M146.468 251.378L146.845 251.233C151.936 249.244 157.236 246.035 162.774 247.22C162.97 247.147 166.574 247.882 169.042 248.347L166.699 250.793L162.564 251.588C176.829 275.13 193.699 286.901 213.176 286.901C232.653 286.901 247.433 275.13 257.514 251.588L258.89 251.208C259.06 251.247 259.241 251.303 259.434 251.378C262.687 252.636 269.036 258.255 272.15 259.829C284.667 266.158 294.795 275.636 300.782 288.435C303.832 294.955 306.109 301.8 308.445 308.599L308.687 309.302C311.278 316.82 313.832 324.353 316.161 331.958C318.354 339.117 320.347 346.342 321.975 353.652L322.195 354.65C322.989 358.298 324.26 362.395 323.965 366.154C323.854 367.577 323.486 368.796 322.944 369.902L294.731 380.054L308.172 471.726C295.86 472.254 283.537 472.391 271.201 472.171C253.936 471.864 236.682 471.113 219.421 470.664C202.697 470.229 186 470.414 169.295 471.248L165.052 471.465C148.705 472.283 132.486 472.7 116.146 471.111L115.032 471.002L115.032 457.592L120.772 382.923L91.683 377.448L63.128 363.579C62.2652 362.716 61.5728 361.71 61.1878 360.502C60.519 358.405 61.0133 356.282 61.5611 354.223L61.6925 353.732C62.752 349.779 63.9531 345.866 65.2904 341.999C70.7968 326.079 78.5302 310.847 88.4973 297.257C98.3826 283.778 110.373 271.867 124.373 262.695C131.316 258.146 138.706 254.318 146.468 251.378Z" fill="#FDEA6B"/>
<path fill-rule="evenodd" clip-rule="evenodd" d="M157.392 246.834C159.176 246.756 160.994 247.045 162.774 247.22C162.929 247.235 162.988 247.474 162.813 247.511C159.628 248.176 156.479 249.086 153.351 250.011L152.012 250.407C148.485 251.45 145.061 252.527 141.647 253.918C134.842 256.692 128.378 260.435 122.43 264.736C99.5248 281.296 82.947 306.37 72.4854 332.329C69.6444 339.379 67.2371 346.604 65.2872 353.951C64.813 355.739 64.3669 357.533 63.944 359.334C63.8198 359.861 63.2787 361.213 63.5754 361.753C63.8377 362.23 64.8576 362.525 65.3314 362.774L66.931 363.603C70.0512 365.211 75.2486 367.855 75.7698 368.112L76.5827 368.512C89.8781 375.03 104.084 380.557 119.046 380.94L119.163 379.662C119.83 372.599 120.705 365.498 122.616 358.651C122.719 358.283 123.187 358.407 123.23 358.734C124.294 366.839 123.954 375.008 123.583 383.15C122.925 397.572 122.052 411.986 121.276 426.402C120.887 433.613 120.385 440.82 119.931 448.028C119.477 455.25 119.33 462.646 118.293 469.808C118.062 471.404 116.192 472.273 114.776 472.104C113.209 471.918 112.004 470.538 111.996 468.956C111.977 464.783 112.502 460.561 112.793 456.399C113.07 452.445 113.367 448.492 113.671 444.54C114.784 430.115 116.063 415.707 117.247 401.288C117.666 396.174 118.12 391.065 118.586 385.956C102.737 385.445 87.9294 379.574 73.8037 372.715C73.5993 377.357 73.1055 381.991 72.6275 386.614C71.293 399.515 70.1164 412.412 69.2358 425.353C68.7911 431.889 68.4674 438.433 68.1854 444.978C68.0469 448.194 67.934 451.412 67.8473 454.63C67.8184 455.703 67.7922 456.776 67.769 457.849L67.7208 460.307C67.6814 461.864 67.5231 463.306 66.2127 464.44C64.8818 465.591 63.0841 465.653 61.7668 464.44C60.0035 462.816 60.3152 460.604 60.3675 458.423C60.411 456.584 60.4632 454.745 60.5239 452.906C60.6456 449.228 60.801 445.551 60.99 441.876C61.6515 429.028 62.9731 416.231 64.7003 403.485L65.3746 398.565C66.6337 389.419 68.0161 380.064 70.8308 371.253C69.7348 370.708 68.642 370.16 67.5535 369.608C65.6225 368.631 63.6259 367.713 61.7489 366.634C60.2598 365.778 58.9755 364.604 58.561 362.871C58.0987 360.94 58.8056 358.829 59.2753 356.945L59.3161 356.78C59.7766 354.883 60.2725 352.995 60.7957 351.115C62.9175 343.491 65.5411 336.016 68.6115 328.723C74.7594 314.122 82.6948 300.251 92.388 287.71C101.113 276.421 111.42 266.183 123.501 258.504C129.407 254.75 135.7 251.668 142.356 249.489C145.468 248.47 148.853 247.584 152.11 247.22C153.867 247.023 155.626 246.911 157.392 246.834ZM188.995 223.698C191.115 221.422 195.326 223.777 194.308 226.791C191.915 233.882 188.102 240.35 182.153 245.01C176.561 249.39 169.892 252.234 162.71 251.627C162.655 251.622 162.607 251.608 162.564 251.588L163.183 252.428C168.042 259.001 173.168 265.482 179.346 270.854C191.934 281.8 209.073 287.704 225.623 283.504C238.644 280.2 250.116 269.904 253.489 256.782C253.006 256.999 252.431 257.073 251.8 256.936C249.101 256.35 246.428 253.511 244.687 251.475C242.804 249.273 241.333 246.895 240.255 244.208C238.282 239.289 237.649 232.955 240.343 228.19C240.676 227.603 241.443 227.932 241.508 228.505L241.61 229.4C242.13 233.866 242.777 238.186 244.882 242.257C245.913 244.249 247.148 246.193 248.651 247.862C249.456 248.754 250.328 249.607 251.27 250.355C252.187 251.085 253.298 251.612 254.12 252.448L254.271 252.609L254.275 252.58C254.483 250.812 255.723 250.033 256.936 250.082C258.11 250.129 259.489 250.646 260.023 250.894L260.073 250.917C268.263 254.849 275.806 259.973 282.904 265.658C297.583 277.415 308.582 292.785 313.911 310.884C316.526 319.767 318.027 328.92 319.611 338.03L320.587 343.612C322.065 352.023 323.717 360.599 327.055 368.423C327.918 370.446 327.253 372.344 325.136 373.14C322.492 374.134 319.839 375.096 317.181 376.047C318.486 381.645 319.282 387.437 320.259 393.063C322.338 405.022 324.884 416.904 327.068 428.847C328.184 434.954 329.191 441.081 330.306 447.188C330.843 450.129 331.404 453.066 331.949 456.005C332.242 457.59 332.509 459.181 332.789 460.768L332.837 461.031C332.998 461.869 333.2 462.735 332.969 463.573C332.707 464.528 331.961 465.204 331.295 465.889C330.747 466.453 329.954 466.457 329.283 466.149L329.062 466.047C327.862 465.485 326.923 464.926 326.497 463.573C326.228 462.716 326.131 461.751 325.955 460.868C325.617 459.176 325.297 457.482 324.994 455.783C324.39 452.383 323.799 448.981 323.223 445.577L322.684 442.389C320.836 431.401 319.08 420.347 318.193 409.244C317.799 404.318 317.382 399.396 316.961 394.474L316.645 390.782C316.245 386.109 315.757 381.317 315.688 376.581L314.098 377.145L306.344 379.886C304.422 380.566 301.974 381.958 299.904 381.705C298.892 381.581 298.119 381.262 297.523 380.682C298.237 390.759 299.204 400.819 300.492 410.827C301.664 419.933 302.963 429.027 304.498 438.08C305.258 442.563 306.039 447.041 306.887 451.508C307.311 453.741 307.749 455.972 308.2 458.2C308.425 459.312 308.692 460.425 308.868 461.546C309.068 462.829 308.715 463.619 307.998 464.675C307.409 465.542 306.231 465.988 305.276 465.389C304.011 464.595 303.352 463.908 302.979 462.463C302.641 461.15 302.436 459.78 302.174 458.45C301.691 455.996 301.225 453.539 300.774 451.078C299.832 445.933 298.963 440.774 298.187 435.601C295.453 417.375 293.719 398.997 292.843 380.588C292.41 371.506 292.277 362.416 292.353 353.324C292.393 348.664 292.545 343.991 292.875 339.342C293.208 334.637 293.903 330.025 294.523 325.365C294.545 325.201 294.776 325.191 294.786 325.365C295.079 330.59 295.54 335.809 295.765 341.047C295.98 346.046 296.075 351.052 296.246 356.052C296.471 362.625 296.783 369.202 297.195 375.774C297.943 374.957 299.069 374.486 300.196 374.67C301.829 374.327 303.587 373.47 305.144 372.95L311.012 370.99C314.098 369.959 317.183 368.936 320.279 367.943C317.511 358.631 315.614 349.18 313.995 339.591L313.273 335.278C311.844 326.79 310.303 318.297 307.714 310.077C304.992 301.435 300.919 293.401 295.515 286.125C290.189 278.954 283.709 272.64 277.037 266.734C271.325 261.678 265.215 257.113 259.389 252.196C259.45 252.522 259.463 252.881 259.41 253.275C258.171 262.341 253.442 270.783 246.851 277.063C233.61 289.678 214.01 292.295 197.063 286.38C180.67 280.657 166.177 267.105 161.056 250.336C160.968 250.049 161.353 249.935 161.507 250.146C161.791 250.535 162.076 250.924 162.362 251.314C162.343 251.159 162.423 250.991 162.614 250.917C168.589 248.61 174.456 245.338 178.934 240.71C181.117 238.454 183.022 235.898 184.526 233.141C185.246 231.821 185.893 230.454 186.409 229.041L186.541 228.675C187.166 226.905 187.689 225.1 188.995 223.698Z" fill="black"/>
<path fill-rule="evenodd" clip-rule="evenodd" d="M234.806 114.477C194.529 113.004 156.042 140.131 143.084 178.473C142.142 181.481 145.073 184.29 148.029 183.782C145.005 199.04 151.614 219.577 168.828 221.741C172.354 222.187 175.899 221.93 179.43 222.255C182.577 222.544 199.709 232.202 206.125 234.465C219.632 239.193 253.621 238.327 267.142 234.465C267.635 235.587 278.135 192.434 280.526 179.055C281.398 173.258 273.43 168.966 274.018 162.993C274.773 155.319 283.729 145.963 280.985 138.658C273.752 120.065 252.761 114.877 234.806 114.477Z" fill="#EDB98A"/>
<path fill-rule="evenodd" clip-rule="evenodd" d="M214.803 80.678C216.613 80.8288 218.432 81.0848 220.221 81.4215C225.656 80.5307 231.28 81.5197 236.55 83.2346C248.893 87.2502 260.775 94.2222 270.077 103.323C274.864 108.008 278.781 113.406 281.192 119.683C282.417 122.868 283.106 126.266 283.306 129.672L283.328 130.084C283.384 131.214 283.409 132.569 283.274 133.911C283.705 136.62 284.089 139.351 284.118 142.091C284.132 143.361 284.05 144.628 283.896 145.886L283.948 146.006C283.725 147.509 283.458 149.005 283.155 150.494L283.079 150.593C283.037 150.895 282.989 151.197 282.944 151.499C282.779 152.264 282.606 153.028 282.423 153.789C282.027 155.436 281.589 157.072 281.116 158.699C281.034 158.984 281.113 159.209 281.268 159.356C280.924 160.594 280.547 161.823 280.13 163.039C280.335 164.102 280.542 165.166 280.761 166.226C281.906 171.739 282.875 177.287 284.177 182.768C286.816 193.893 290.826 204.838 291.929 216.275C292.786 225.144 291.362 234.841 285.86 242.087C281.118 248.329 273.986 252.015 266.283 252.997C262.598 253.471 258.818 253.253 255.214 252.32L254.821 252.217C253.015 251.729 250.718 250.967 249.04 249.739C247.221 249.097 245.502 247.912 244.466 246.755C243.053 245.173 241.509 242.469 241.894 240.221C239.791 240.393 237.674 240.442 235.591 240.435C230.461 240.424 225.285 240.018 220.35 238.524C215.948 237.191 210.817 234.964 208.213 230.945C208.091 230.755 208.294 230.482 208.507 230.556C210.611 231.296 212.577 232.295 214.747 232.86C216.882 233.414 219.017 233.936 221.218 234.164C225.522 234.609 229.89 234.549 234.208 234.336L235.691 234.258C240.311 234.01 245.086 233.657 249.408 231.923C251.103 231.244 252.673 230.295 254.104 229.167L254.328 228.988C255.095 228.364 255.886 227.838 256.691 227.34C256.806 227.192 256.922 227.045 257.037 226.894C258.867 224.541 260.834 222.272 262.483 219.785C265.758 214.851 267.022 209.724 267.193 203.839C267.373 197.627 267.393 191.407 267.467 185.193L267.494 183.123C267.589 176.017 267.603 168.887 268.149 161.8C268.4 158.507 268.758 155.229 269.309 151.975L269.429 151.279L270.318 146.26C270.532 145.051 270.657 143.805 270.93 142.602C270.623 142.097 270.268 141.611 269.856 141.148C269.476 140.721 269.091 140.307 268.706 139.895L268.428 139.65C267.794 139.083 267.249 138.542 266.739 137.761L266.615 137.568C266.067 136.905 265.55 136.212 265.093 135.449L265.008 135.301C264.894 135.158 264.781 135.014 264.663 134.873C264.296 134.431 263.912 134.014 263.515 133.615C262.122 136.311 260.151 138.648 257.361 140.108C256.352 140.636 255.121 140.184 254.791 139.06C253.956 136.223 252.688 133.586 251.011 131.197C248.21 135.868 243.769 139.521 238.536 141.304C237.228 141.749 236.076 140.374 236.383 139.147C237.327 135.373 237.515 131.535 236.961 127.741C234.985 129.156 232.948 130.488 230.855 131.723C226.2 135.329 221.267 138.575 215.841 140.905C214.588 141.444 212.701 140.539 213.271 138.925C213.75 137.567 214.145 136.185 214.397 134.767L214.453 134.439C214.455 134.429 214.455 134.419 214.457 134.409C201.891 151.78 171.418 168.52 169.079 168.681L169.015 168.681C170.476 170.08 171.655 171.807 172.426 173.792C173.236 175.878 169.933 176.786 169.079 174.792L169.052 174.725C167.737 171.342 164.487 168.917 160.951 168.344C158.813 168.733 156.793 169.766 155.414 171.332C152.702 174.415 152.677 178.132 154.529 181.639L154.8 182.15C155.803 184.024 156.858 185.901 157.423 187.959C158.112 190.484 157.591 193.044 158.042 195.566L158.067 195.699C158.281 196.821 158.743 198.096 160.076 197.789C160.179 197.765 160.278 197.733 160.377 197.699C160.658 197.924 160.996 198.109 161.417 198.232C162.449 198.534 163.589 198.387 164.616 198.144C165.608 197.909 166.571 197.54 167.498 197.109C167.6 197.363 167.664 197.628 167.67 197.884C167.701 199.188 167.162 200.262 166.333 201.135C167.656 202.811 168.786 204.656 170.06 206.367C171.89 208.822 173.763 211.225 175.754 213.55C177.826 215.973 180.083 218.263 182.424 220.427C184.066 221.942 186.778 223.562 187.807 225.761C188.99 226.13 189.994 227.038 190.362 228.532C191.03 231.239 191.226 237.584 190.701 240.337C190.18 243.065 188.192 244.766 185.994 246.204C185.385 246.604 184.696 246.562 184.136 246.264C183.642 246.744 183.086 247.186 182.449 247.579C180.097 249.034 177.364 249.564 174.655 249.869C170.998 251.04 167.054 251.349 163.155 250.619C161.881 250.77 160.608 250.907 159.33 251.019C146.262 252.159 132.978 251.188 120.232 248.07C114.384 246.639 108.862 244.038 103.717 240.698C94.8497 234.94 91.0967 218.78 96.2419 203.33L96.6493 202.112C98.9678 195.21 101.468 188.345 104.82 181.906L105.22 181.14C108.3 175.267 111.689 169.4 116.19 164.5C118.444 162.049 121.061 159.822 124.019 158.265C125.141 157.674 126.452 157.264 127.733 156.8L127.759 156.478L127.787 156.158C127.871 155.129 127.979 154.101 128.117 153.077C128.634 149.244 129.364 145.468 130.401 141.74C131.44 138.006 132.716 134.336 134.252 130.778C136.815 124.843 140.033 119.213 143.748 113.93C144.013 113.384 144.282 112.841 144.558 112.301C147.69 106.167 151.746 100.318 156.978 95.7899C162.984 90.5925 170.218 87.366 177.766 85.1004C185.595 82.7542 193.763 81.1479 201.921 80.6079C206.215 80.3238 210.516 80.3203 214.803 80.678ZM157.549 179.22C161.479 176.642 166.833 178.409 168.825 182.597C170.263 185.63 165.507 187.338 164.755 184.315C164.006 181.285 160.79 179.114 157.699 179.577C157.486 179.612 157.353 179.346 157.549 179.22Z" fill="black"/>
<path fill-rule="evenodd" clip-rule="evenodd" d="M237.827 213.293C235.469 212.331 233.366 210.727 231.828 208.678C231.293 207.965 231.155 207.213 231.267 206.525C231.393 205.751 231.851 205.05 232.475 204.58C233.101 204.108 233.884 203.875 234.642 203.994C235.3 204.097 235.955 204.457 236.473 205.204L236.581 205.354C237.496 206.591 238.687 207.605 240.045 208.26C241.353 208.89 242.816 209.184 244.331 209.013C247.215 208.687 249.203 207.128 251.316 205.01C251.578 204.742 251.84 204.466 252.103 204.186C252.269 203.932 252.5 203.769 252.756 203.683C253.041 203.588 253.363 203.593 253.658 203.696C253.942 203.795 254.196 203.983 254.366 204.234C254.528 204.472 254.62 204.765 254.59 205.103C254.397 207.298 253.249 209.258 251.619 210.796C249.809 212.504 247.409 213.686 245.149 214.101C242.66 214.557 240.124 214.23 237.827 213.293ZM246.324 179.429C248.972 181.039 253.007 184.793 250.158 188.784C246.805 192.302 241.976 188.268 239.597 186.443C237.391 185.029 234.912 188.666 236.959 190.317C254.152 203.046 261.129 179.85 247.663 177.537C246.18 177.282 245.63 178.931 246.324 179.429ZM215.514 164.622C215.806 160.99 221.338 160.165 221.888 163.759C222.381 166.979 221.801 169.936 220.351 172.835C218.965 175.604 215.482 174.312 215.219 171.791C214.866 168.411 215.332 166.882 215.514 164.622ZM257.621 163.014C258.392 162.004 259.505 161.315 260.84 161.704C265.008 162.922 263.779 168.84 262.315 171.72C261.52 173.284 258.949 173.681 257.787 172.304C255.893 170.058 254.986 165.573 257.394 163.36C257.459 163.246 257.532 163.131 257.621 163.014ZM220.292 148.73L220.95 148.614C222.987 148.262 225.52 147.924 226.961 149.561C227.725 150.43 227.988 152.044 226.961 152.875C225.154 154.337 223.156 153.77 220.991 153.894C219.207 153.997 217.492 154.292 215.773 154.783C212.002 155.861 208.929 157.828 205.709 159.989C205.286 160.272 204.855 159.732 205.057 159.336C206.916 155.695 210.519 152.704 214.127 150.881C216.053 149.907 218.161 149.1 220.292 148.73ZM253.821 147.098L254.325 147.202C259.809 148.348 266.934 150.638 269.531 156.024C269.63 156.786 269.526 156.949 269.441 157.056L269.412 157.092C269.342 157.183 269.286 157.308 268.956 157.412C268.865 157.39 268.772 157.367 268.679 157.342C267.488 157.03 266.546 156.601 265.635 156.155L264.646 155.668C263.499 155.105 262.342 154.563 261.115 154.163C258.498 153.31 255.807 152.708 253.073 152.387C252.481 152.318 251.91 152.118 251.46 151.775C251.033 151.45 250.706 150.999 250.558 150.401C250.365 149.626 250.42 149.039 250.836 148.341C251.148 147.816 251.596 147.452 252.109 147.243C252.633 147.03 253.229 146.98 253.821 147.098Z" fill="black"/>
<path fill-rule="evenodd" clip-rule="evenodd" d="M275.895 182.568C273.534 185.74 269.156 186.751 265.118 186.402C256.41 185.564 253.669 175.673 253.384 167.986C259.223 169.629 252.89 157.995 272.852 156.715C279.889 156.129 277.949 160.379 281.058 163.484C280.994 170.001 279.909 177.082 275.895 182.568ZM234.417 175.08C229.275 199.157 201.121 193.43 198.164 171.726C200.895 169.799 200.175 165.039 203.568 163.315C208.945 159.879 215.667 160.026 221.773 160.107C229.578 160.643 231.802 163.876 235.811 167.404C235.618 169.76 235.062 172.552 234.417 175.08ZM287.048 152.728C286.759 152.68 286.47 152.634 286.181 152.592C285.956 152.464 285.691 152.365 285.383 152.306C284.68 152.128 283.981 152.007 283.284 151.943C273.278 149.691 250.129 152.888 249.174 161.427C245.987 162.491 243.23 161.538 239.536 161.633C236.725 149.882 188.123 151.541 185.786 158.625C185.777 158.623 185.768 158.621 185.759 158.618C183.513 157.923 180.202 158.09 177.632 157.98C172.143 157.865 166.648 158.354 161.277 159.512C151.221 161.11 137.496 162.981 144.49 175.539C144.491 175.542 144.492 175.544 144.494 175.546L144.495 175.545C145.701 176.781 147.746 175.786 147.822 174.113C145.471 168.164 150.782 167.449 154.868 165.74C165.036 162.087 175.389 161.58 185.905 162.71C186.696 163.642 187.896 164.454 189.165 164.879C196.197 166.046 192.491 171.262 196.936 172.02C196.119 190.202 218.193 200.126 230.983 188.174C236.089 183.182 237.307 175.786 238.491 169.119C239.117 168.978 239.515 168.636 239.747 168.183C241.253 166.68 242.199 165.292 245.176 164.879C248.153 164.467 250.445 165.295 250.755 165.548C250.833 165.706 250.917 165.863 251.014 166.021C251.15 166.257 251.336 166.444 251.546 166.592C248.606 184.697 262.661 196.147 276.851 186.756C283.016 180.957 284.319 172.078 284.576 164.152C285.412 163.648 285.941 162.671 285.652 161.442C285.253 159.748 286.188 158.281 287.677 157.545C289.612 156.588 289.27 153.096 287.048 152.728Z" fill="black"/>
</svg>
