<svg width="831" height="288" viewBox="0 0 831 288" fill="none" xmlns="http://www.w3.org/2000/svg">
<rect y="113.287" width="814" height="176" rx="88" transform="rotate(-8 0 113.287)" fill="#DDFF53"/>
<rect x="23.456" y="122.108" width="770" height="152" rx="76" transform="rotate(-8 23.456 122.108)" stroke="#1A1A1A" stroke-opacity="0.8" stroke-width="4" stroke-linecap="round" stroke-dasharray="40 40"/>
<path d="M150.506 192.136C151.884 201.938 149.782 210.316 144.199 217.27C138.693 224.213 130.656 228.428 120.088 229.913C109.52 231.398 100.676 229.595 93.557 224.505C86.4271 219.337 82.168 211.814 80.7796 201.935L73.66 151.277L93.1881 148.533L100.082 197.583C100.76 202.407 102.588 206.25 105.568 209.111C108.536 211.896 112.586 212.928 117.717 212.207C122.924 211.475 126.532 209.367 128.542 205.882C130.617 202.311 131.315 198.113 130.637 193.288L123.744 144.238L143.387 141.478L150.506 192.136ZM269.619 123.737L257.845 208.327L238.432 211.055L214.617 158.292L214.272 158.34L205.923 215.624L186.395 218.368L151.876 140.285L173.012 137.314L193.482 189.61L193.826 189.562L200.696 133.423L221.143 130.55L243.336 182.604L243.68 182.555L249.172 126.611L269.619 123.737ZM368.135 151.007C369.932 163.796 367.222 174.798 360.005 184.012C352.777 193.15 342.73 198.623 329.865 200.431C317.076 202.228 305.948 199.731 296.481 192.94C287.004 186.072 281.367 176.244 279.569 163.455C277.761 150.589 280.449 139.708 287.633 130.811C294.893 121.903 304.956 116.545 317.821 114.737C330.763 112.918 341.913 115.295 351.271 121.867C360.706 128.428 366.327 138.142 368.135 151.007ZM347.113 153.962C346.102 146.763 343.085 141.135 338.063 137.077C333.042 133.019 327.123 131.469 320.308 132.427C313.492 133.385 308.23 136.506 304.521 141.791C300.889 147.065 299.579 153.302 300.591 160.5C301.624 167.852 304.618 173.6 309.574 177.746C314.607 181.88 320.531 183.469 327.346 182.511C334.162 181.553 339.419 178.393 343.117 173.032C346.814 167.67 348.147 161.314 347.113 153.962ZM454.332 180.712L431.358 183.941L409.246 154.132L402.583 155.069L407.12 187.347L387.821 190.06L376.391 108.731L407.407 104.372C411.542 103.791 415.43 103.674 419.071 104.021C422.712 104.369 426.194 105.246 429.515 106.653C432.837 108.061 435.571 110.293 437.719 113.349C439.943 116.394 441.367 120.138 441.992 124.579C442.745 129.94 441.897 134.745 439.449 138.994C437 143.242 433.247 146.542 428.189 148.893L454.332 180.712ZM422.627 127.652C421.777 121.603 416.986 119.191 408.256 120.418L397.803 121.887L400.467 140.841L409.771 139.533C419.267 138.199 423.552 134.238 422.627 127.652ZM535.164 127.65C536.132 134.543 535.691 140.852 533.841 146.579C531.991 152.305 529.071 157.089 525.081 160.929C521.168 164.759 516.682 167.85 511.624 170.2C506.566 172.551 501.127 174.136 495.307 174.954L464.981 179.216L453.551 97.8869L482.958 93.754C487.783 93.0759 492.398 92.8568 496.805 93.0964C501.278 93.2488 505.684 94.0353 510.022 95.4559C514.361 96.8766 518.195 98.8758 521.525 101.453C524.931 104.02 527.849 107.554 530.278 112.055C532.695 116.478 534.324 121.677 535.164 127.65ZM514.717 130.524C514.103 126.159 512.848 122.509 510.952 119.573C509.045 116.561 506.666 114.358 503.814 112.962C501.04 111.556 498.067 110.685 494.896 110.35C491.802 110.004 488.455 110.084 484.856 110.59L475.092 111.962L481.775 159.519L491.08 158.211C498.968 157.102 505.175 154.317 509.702 149.854C514.229 145.391 515.9 138.948 514.717 130.524ZM600.096 85.374L589.431 100.344C587.533 98.5022 585.113 97.1242 582.173 96.2098C579.31 95.2846 576.577 95.005 573.973 95.3709C570.91 95.8014 568.321 96.8291 566.206 98.4538C564.158 99.9912 563.338 102.215 563.747 105.125C563.93 106.427 564.359 107.538 565.035 108.458C565.701 109.302 566.7 110.02 568.033 110.614C569.431 111.12 570.781 111.555 572.082 111.919C573.371 112.206 575.214 112.533 577.608 112.9C580.734 113.475 583.183 113.951 584.954 114.327C586.725 114.703 589.014 115.435 591.823 116.525C594.697 117.526 596.969 118.691 598.639 120.018C600.309 121.345 601.902 123.23 603.417 125.672C604.92 128.038 605.888 130.752 606.318 133.815C607.556 142.622 605.478 149.786 600.085 155.308C594.757 160.743 587.728 164.073 578.998 165.3C573.101 166.129 567.289 165.891 561.561 164.588C555.833 163.284 550.95 161.042 546.911 157.861L557.936 142.958C560.282 145.205 563.176 146.907 566.619 148.063C570.138 149.209 573.505 149.555 576.722 149.103C580.015 148.64 582.598 147.575 584.472 145.906C586.412 144.149 587.167 141.739 586.736 138.676C586.564 137.451 586.107 136.422 585.365 135.589C584.689 134.669 583.963 133.951 583.188 133.435C582.402 132.842 581.074 132.287 579.205 131.769C577.337 131.251 575.762 130.886 574.483 130.675C573.193 130.388 571.106 129.979 568.219 129.447C565.093 128.871 562.382 128.198 560.087 127.427C557.792 126.657 555.449 125.541 553.057 124.081C550.665 122.621 548.707 120.632 547.181 118.113C545.656 115.594 544.646 112.573 544.151 109.051C543.548 104.762 543.929 100.804 545.293 97.176C546.647 93.4715 548.721 90.4468 551.515 88.1018C554.298 85.6802 557.419 83.7186 560.879 82.2172C564.415 80.7051 568.136 79.6746 572.041 79.1257C576.789 78.4584 581.661 78.6718 586.657 79.7658C591.718 80.7726 596.198 82.642 600.096 85.374ZM728.44 142.189L706.615 145.256L698.053 130.177L666.578 134.601L662.849 151.407L641.483 154.41L664.169 68.2864L683.238 65.6065L728.44 142.189ZM690.442 115.199L676.41 88.7055L669.995 118.072L690.442 115.199ZM755.91 138.328L736.152 141.105L724.722 59.7763L744.48 56.9995L755.91 138.328Z" fill="#1A1A1A"/>
</svg>
