<svg width="134" height="202" viewBox="0 0 134 202" fill="none" xmlns="http://www.w3.org/2000/svg">
<path fill-rule="evenodd" clip-rule="evenodd" d="M103.857 156.768C103.293 153.775 102.776 150.773 102.307 147.764C102.084 146.336 101.866 144.907 101.671 143.475C101.534 142.472 101.325 141.324 102.051 140.581C103.073 139.536 104 138.641 104.125 137.143C104.243 135.733 103.736 134.197 103.419 132.828C102.755 129.959 101.927 127.126 101.013 124.319C100.084 121.467 99.0655 118.642 98.0323 115.823C97.0664 113.187 96.1378 110.527 94.8797 107.998C92.492 103.198 88.4527 99.6439 83.4605 97.2705C82.2189 96.6803 79.6865 94.5732 78.3894 94.1014C77.1969 93.6676 77.2012 94.9343 76.0275 94.4571C75.0893 94.0758 74.2157 93.5672 73.6903 92.7154C73.12 91.7905 71.6896 90.4969 71.4718 89.4203C71.0104 87.1384 71.5102 85.1961 69.7781 83.4786C68.2404 81.9534 66.1736 80.9086 64.035 80.3477C59.3304 79.1139 53.0563 79.9765 50.2178 84.087C48.8621 86.05 48.3883 88.4227 46.559 90.0248C44.9616 91.4236 45.3191 92.38 43.2502 93.1008C43.1329 93.1418 39.9569 92.5012 39.8397 92.5422C37.5764 92.0868 35.4131 93.3616 33.3367 94.1014C30.241 95.2041 27.2937 96.6394 24.5247 98.3452C18.9414 101.785 14.1593 106.252 10.2169 111.306C6.24183 116.402 3.15761 122.114 0.961554 128.084C0.42824 129.534 -0.0508057 131.002 -0.473345 132.484C-0.709861 133.314 -0.962601 134.174 -0.674614 135.023C-0.439078 135.718 0.0848655 136.235 0.700142 136.652C1.53417 137.217 3.20712 137.584 3.17454 138.721C3.14964 139.585 2.83788 140.494 2.6857 141.348C2.50457 142.365 2.35575 143.388 2.20693 144.409C1.52998 149.058 1.00309 153.734 0.770076 158.422C0.540693 163.038 0.350334 167.749 0.690911 172.364C0.713429 172.669 0.809938 172.948 0.965611 173.184C0.820288 173.236 0.809099 173.491 0.989947 173.527C1.11667 173.552 1.24311 173.578 1.36983 173.603C1.63306 173.79 1.96133 173.905 2.33911 173.916C2.59521 173.924 2.85116 173.935 3.10698 173.947C5.80656 174.478 8.50572 174.979 11.2405 175.358C14.5649 175.82 17.8991 176.196 21.2436 176.502C28.116 177.13 34.9342 176.921 41.8157 176.583C48.6865 176.245 55.5533 176.166 62.4313 176.334C69.3153 176.502 76.1968 176.784 83.0823 176.899C90.7749 177.028 98.4557 176.83 106.126 176.255C107.178 176.176 107.828 175.39 107.621 174.407C106.378 168.523 104.97 162.678 103.857 156.768Z" fill="#78E185"/>
<path fill-rule="evenodd" clip-rule="evenodd" d="M33.3367 94.1012L33.4869 94.0468C35.5174 93.3009 37.6309 92.0975 39.8397 92.5419C39.9178 92.5146 41.3551 92.7901 42.3395 92.9648L41.4051 93.8818L39.7561 94.1801C45.445 103.008 52.1733 107.423 59.941 107.423C67.7087 107.423 73.6029 103.008 77.6237 94.1801L78.1723 94.0374C78.2401 94.0522 78.3123 94.0731 78.3894 94.1012C79.6865 94.5729 82.2189 96.68 83.4605 97.2702C88.4527 99.6436 92.492 103.198 94.8797 107.998C96.0959 110.443 97.0041 113.009 97.9358 115.559L98.0323 115.823C99.0655 118.642 100.084 121.467 101.013 124.319C101.887 127.003 102.683 129.713 103.332 132.454L103.419 132.828C103.736 134.196 104.243 135.733 104.125 137.142C104.081 137.676 103.935 138.133 103.718 138.548L92.4664 142.355L97.8269 176.732C92.9166 176.93 88.0019 176.981 83.0823 176.899C76.1968 176.784 69.3153 176.502 62.4313 176.334C55.7618 176.17 49.1027 176.24 42.4403 176.553L40.7484 176.634C34.2287 176.94 27.7605 177.097 21.2436 176.501L20.7995 176.46L20.7994 171.432L23.0887 143.431L11.4874 141.377L0.0991433 136.177C-0.244945 135.853 -0.521065 135.476 -0.674614 135.023C-0.941344 134.236 -0.744226 133.44 -0.52576 132.668L-0.473345 132.484C-0.0508057 131.002 0.42824 129.534 0.961554 128.084C3.15761 122.114 6.24183 116.402 10.2169 111.306C14.1593 106.251 18.9414 101.785 24.5247 98.345C27.2937 96.6392 30.241 95.2038 33.3367 94.1012Z" fill="#78E185"/>
<path fill-rule="evenodd" clip-rule="evenodd" d="M37.6928 92.3971C38.4042 92.3681 39.1295 92.4763 39.8392 92.5419C39.901 92.5476 39.9245 92.6373 39.8549 92.651C38.5848 92.9004 37.3286 93.2418 36.0812 93.5884L35.5471 93.737C34.1404 94.1283 32.7751 94.5319 31.4133 95.0537C28.6993 96.0937 26.1217 97.4975 23.7494 99.1103C14.6144 105.321 8.00286 114.723 3.83062 124.458C2.69756 127.102 1.73751 129.811 0.959843 132.566C0.770742 133.236 0.592831 133.909 0.424151 134.585C0.374638 134.782 0.158822 135.289 0.27715 135.492C0.381771 135.671 0.788505 135.781 0.977466 135.875L1.61542 136.186C2.8598 136.789 4.93261 137.78 5.14048 137.876L5.46467 138.027C10.7671 140.471 16.4328 142.543 22.3997 142.687L22.4464 142.208C22.7124 139.559 23.0615 136.896 23.8235 134.329C23.8645 134.191 24.0512 134.237 24.0683 134.36C24.4928 137.399 24.3571 140.462 24.209 143.516C23.9468 148.924 23.5985 154.329 23.289 159.735C23.134 162.439 22.9337 165.142 22.7529 167.845C22.5717 170.553 22.5131 173.326 22.0995 176.012C22.0074 176.611 21.2616 176.937 20.6968 176.874C20.0719 176.804 19.5912 176.286 19.5882 175.693C19.5807 174.128 19.7898 172.545 19.906 170.984C20.0164 169.501 20.1348 168.019 20.2562 166.537C20.6999 161.127 21.2103 155.724 21.6823 150.317C21.8496 148.4 22.0303 146.484 22.2163 144.568C15.8953 144.376 9.98996 142.175 4.35638 139.603C4.27484 141.343 4.07791 143.081 3.88727 144.815C3.35507 149.653 2.88582 154.489 2.53461 159.342C2.35726 161.793 2.22816 164.247 2.11571 166.701C2.06046 167.907 2.01542 169.114 1.98087 170.321C1.96931 170.723 1.95887 171.125 1.94963 171.528L1.93041 172.449C1.91469 173.033 1.85155 173.574 1.32895 173.999C0.798156 174.431 0.081196 174.454 -0.444146 173.999C-1.1474 173.391 -1.02306 172.561 -1.00222 171.743C-0.984873 171.053 -0.964033 170.364 -0.939836 169.674C-0.891302 168.295 -0.829341 166.916 -0.753952 165.538C-0.490144 160.72 0.036952 155.921 0.725799 151.141L0.9947 149.296C1.49686 145.866 2.04817 142.359 3.17073 139.054C2.73364 138.85 2.29781 138.644 1.86367 138.438C1.09356 138.071 0.297291 137.727 -0.451279 137.322C-1.04516 137.001 -1.55735 136.561 -1.72267 135.911C-1.90705 135.187 -1.62511 134.395 -1.43781 133.689L-1.42154 133.627C-1.23789 132.916 -1.04012 132.208 -0.831439 131.502C0.0147589 128.643 1.06111 125.84 2.28565 123.105C4.73752 117.63 7.9023 112.429 11.7681 107.726C15.2479 103.492 19.3586 99.6529 24.1764 96.7735C26.5318 95.3658 29.0419 94.2099 31.6964 93.3927C32.9372 93.0108 34.2872 92.6786 35.5863 92.5418C36.287 92.4682 36.9887 92.4259 37.6928 92.3971ZM50.2965 83.7213C51.1418 82.8678 52.8214 83.751 52.4155 84.8813C51.4607 87.5404 49.9404 89.9659 47.5677 91.7132C45.3373 93.3558 42.6778 94.4225 39.8136 94.1949C39.7915 94.193 39.7723 94.1878 39.7554 94.1803L40.0022 94.4951C41.94 96.9598 43.9844 99.3905 46.4483 101.405C51.4686 105.51 58.3039 107.724 64.9042 106.149C70.0972 104.91 74.6723 101.049 76.0178 96.1279C75.8249 96.2091 75.5957 96.2369 75.3441 96.1855C74.2675 95.9657 73.2017 94.9011 72.5074 94.1378C71.7563 93.312 71.1697 92.4203 70.7398 91.4124C69.9529 89.5678 69.7006 87.1928 70.775 85.4059C70.9076 85.1856 71.2134 85.3091 71.2394 85.5241L71.2803 85.8598C71.4874 87.5344 71.7455 89.1543 72.5852 90.6809C72.9961 91.4279 73.4887 92.157 74.0883 92.7827C74.4092 93.1174 74.757 93.4372 75.1326 93.7179C75.4986 93.9913 75.9415 94.189 76.2695 94.5027L76.3296 94.563L76.3313 94.5522C76.4142 93.8892 76.9086 93.5971 77.3924 93.6154C77.8606 93.6331 78.4106 93.8269 78.6235 93.9197L78.6437 93.9286C81.9099 95.4029 84.918 97.3245 87.7489 99.4564C93.6032 103.865 97.9896 109.629 100.115 116.416C101.158 119.747 101.757 123.18 102.388 126.596L102.777 128.689C103.367 131.843 104.026 135.059 105.357 137.993C105.701 138.752 105.436 139.464 104.592 139.762C103.537 140.135 102.479 140.496 101.419 140.852C101.94 142.952 102.257 145.124 102.647 147.233C103.476 151.718 104.491 156.174 105.362 160.652C105.807 162.942 106.209 165.24 106.654 167.53C106.868 168.633 107.091 169.734 107.309 170.837C107.426 171.431 107.532 172.027 107.644 172.623L107.663 172.721C107.727 173.035 107.808 173.36 107.716 173.674C107.611 174.033 107.314 174.286 107.048 174.543C106.829 174.755 106.513 174.756 106.246 174.64L106.157 174.602C105.679 174.392 105.304 174.182 105.135 173.674C105.027 173.353 104.988 172.991 104.918 172.66C104.783 172.026 104.656 171.39 104.535 170.753C104.294 169.478 104.059 168.203 103.829 166.926L103.614 165.73C102.877 161.61 102.177 157.465 101.823 153.301C101.666 151.454 101.499 149.608 101.331 147.762L101.205 146.378C101.046 144.625 100.851 142.829 100.824 141.052L100.19 141.264L97.0972 142.292C96.3305 142.547 95.3542 143.069 94.529 142.974C94.125 142.927 93.8171 142.808 93.5793 142.591C93.8641 146.369 94.2495 150.142 94.7633 153.895C95.2307 157.31 95.7489 160.72 96.361 164.115C96.6641 165.796 96.9755 167.475 97.3139 169.15C97.483 169.988 97.6575 170.824 97.8374 171.66C97.9271 172.077 98.0338 172.494 98.1037 172.914C98.1837 173.396 98.0427 173.692 97.7567 174.088C97.5219 174.413 97.052 174.58 96.6712 174.355C96.1668 174.058 95.9037 173.8 95.7553 173.258C95.6205 172.766 95.5385 172.252 95.4342 171.753C95.2416 170.833 95.0554 169.912 94.8757 168.989C94.4999 167.059 94.1534 165.125 93.844 163.185C92.7538 156.35 92.062 149.458 91.7126 142.555C91.5402 139.149 91.4869 135.741 91.5175 132.331C91.5332 130.584 91.5939 128.831 91.7253 127.088C91.8585 125.323 92.1354 123.594 92.3827 121.846C92.3914 121.785 92.4837 121.781 92.4876 121.846C92.6047 123.806 92.7882 125.763 92.8781 127.727C92.964 129.602 93.0016 131.479 93.0699 133.354C93.1595 135.819 93.2839 138.285 93.4485 140.75C93.7466 140.443 94.1958 140.267 94.6453 140.336C95.2966 140.207 95.9976 139.886 96.6185 139.691L98.959 138.956C100.189 138.569 101.42 138.186 102.655 137.813C101.551 134.321 100.794 130.777 100.149 127.181L99.8607 125.564C99.2906 122.381 98.676 119.196 97.6434 116.114C96.5579 112.873 94.9335 109.86 92.7785 107.131C90.6544 104.442 88.07 102.074 85.4092 99.8597C83.1312 97.9638 80.6943 96.252 78.3708 94.4082C78.3951 94.5304 78.4003 94.6649 78.3789 94.8127C77.8849 98.2124 75.9988 101.378 73.3703 103.733C68.0896 108.464 60.2728 109.445 53.5141 107.227C46.9763 105.081 41.196 99.9991 39.1538 93.7105C39.1188 93.6029 39.2721 93.5602 39.3337 93.6392C39.447 93.7852 39.5608 93.9312 39.6748 94.0772C39.6671 94.0192 39.6992 93.956 39.7752 93.9284C42.158 93.0633 44.4979 91.8364 46.284 90.1008C47.1545 89.2548 47.9143 88.2963 48.514 87.2626C48.8013 86.7674 49.0594 86.2547 49.2652 85.7248L49.3176 85.5877C49.5671 84.924 49.7756 84.2471 50.2965 83.7213Z" fill="#78E185"/>
<path fill-rule="evenodd" clip-rule="evenodd" d="M68.5675 42.7639C52.5041 42.2115 37.155 52.384 31.9871 66.7624C31.6116 67.8903 32.7802 68.9438 33.9593 68.7531C32.7533 74.4748 35.389 82.1763 42.2543 82.988C43.6606 83.1552 45.0741 83.0589 46.4823 83.1805C47.7374 83.2889 54.5703 86.9108 57.129 87.7593C62.5158 89.5324 76.0712 89.2077 81.4636 87.7593C81.6599 88.1802 85.8478 71.9979 86.8014 66.9806C87.1492 64.8067 83.9714 63.1973 84.2057 60.9572C84.5067 58.0797 88.0788 54.5713 86.9844 51.8318C84.0998 44.8594 75.7281 42.9139 68.5675 42.7639Z" fill="#78E185"/>
<path fill-rule="evenodd" clip-rule="evenodd" d="M60.59 30.0888C61.3116 30.1453 62.0374 30.2413 62.7506 30.3676C64.9181 30.0335 67.1611 30.4044 69.263 31.0475C74.1857 32.5533 78.9242 35.1678 82.634 38.5807C84.5434 40.3377 86.1052 42.3617 87.0669 44.7158C87.5554 45.91 87.8303 47.1843 87.9099 48.4613L87.9187 48.6161C87.941 49.0398 87.9512 49.5478 87.8974 50.0511C88.0693 51.067 88.2224 52.0913 88.234 53.1188C88.2394 53.5947 88.2066 54.0699 88.1452 54.5419L88.1663 54.5868C88.0772 55.1503 87.9709 55.7115 87.8497 56.2698L87.8194 56.3067C87.8028 56.4202 87.7837 56.5334 87.7657 56.6467C87.6998 56.9336 87.631 57.2199 87.558 57.5052C87.4 58.1229 87.2251 58.7366 87.0367 59.3465C87.0038 59.4535 87.0355 59.5378 87.0973 59.5931C86.9599 60.0574 86.8099 60.5182 86.6435 60.974C86.7252 61.3729 86.8077 61.7717 86.8952 62.1691C87.3516 64.2365 87.7382 66.3171 88.2574 68.3726C89.3098 72.5443 90.9093 76.6489 91.3489 80.9375C91.6909 84.2636 91.1228 87.8999 88.9287 90.617C87.0375 92.958 84.1931 94.3402 81.1211 94.7084C79.6514 94.886 78.144 94.8045 76.7064 94.4546L76.5498 94.4157C75.8296 94.233 74.9136 93.9471 74.2443 93.4867C73.5186 93.246 72.8333 92.8015 72.4201 92.3675C71.8563 91.7744 71.2408 90.7604 71.3943 89.9174C70.5555 89.9818 69.711 90.0002 68.8806 89.9976C66.8345 89.9936 64.7702 89.8411 62.8022 89.2808C61.0464 88.7811 59.0003 87.946 57.9618 86.4388C57.913 86.3678 57.9939 86.2652 58.0791 86.2928C58.9179 86.5703 59.7023 86.9451 60.5677 87.1569C61.4191 87.3647 62.2704 87.5606 63.1483 87.6461C64.8648 87.8128 66.6069 87.7903 68.3291 87.7103L68.9202 87.6814C70.763 87.5884 72.6674 87.4558 74.3909 86.8057C75.0671 86.5509 75.693 86.1951 76.2636 85.7723L76.3533 85.705C76.659 85.4709 76.9744 85.2736 77.2954 85.0868C77.3415 85.0316 77.3875 84.9764 77.4336 84.9198C78.1635 84.0373 78.9479 83.1865 79.6053 82.254C80.9117 80.4036 81.4156 78.4809 81.484 76.274C81.5556 73.9447 81.5639 71.6121 81.5933 69.2821L81.604 68.5055C81.6417 65.841 81.6473 63.1673 81.865 60.5094C81.9653 59.2746 82.1082 58.0455 82.3276 56.8253L82.3758 56.564L82.7303 54.682C82.8156 54.2286 82.8654 53.7615 82.9745 53.3102C82.8519 53.1208 82.7102 52.9385 82.546 52.7649C82.3945 52.6048 82.2407 52.4495 82.0872 52.2953L81.9765 52.2032C81.7236 51.9905 81.5064 51.7876 81.3027 51.495L81.2535 51.4227C81.0348 51.174 80.8285 50.9138 80.6463 50.628L80.6126 50.5725C80.5671 50.5188 80.5219 50.4648 80.4749 50.4117C80.3287 50.2461 80.1755 50.0898 80.0171 49.94C79.4614 50.9513 78.6755 51.8273 77.5628 52.375C77.1604 52.573 76.6696 52.4034 76.5377 51.982C76.2048 50.9183 75.6993 49.9292 75.0303 49.0334C73.9133 50.7849 72.1421 52.1549 70.0548 52.8234C69.5332 52.9904 69.0739 52.4749 69.1964 52.0145C69.573 50.5992 69.648 49.1601 69.4267 47.7374C68.6388 48.2679 67.8263 48.7675 66.9919 49.2307C65.1352 50.5831 63.1679 51.8001 61.004 52.674C60.504 52.876 59.7516 52.5366 59.9788 51.9315C60.1701 51.422 60.3273 50.904 60.4281 50.372L60.4503 50.249C60.451 50.2453 60.4513 50.2417 60.4518 50.2378C55.4403 56.752 43.2871 63.0293 42.3543 63.0898L42.3289 63.09C42.9115 63.6143 43.3817 64.2622 43.6893 65.0067C44.0124 65.7886 42.695 66.1291 42.3543 65.3814L42.3434 65.3564C41.8193 64.0878 40.523 63.1785 39.1126 62.9635C38.2601 63.1093 37.4543 63.4966 36.9046 64.084C35.8229 65.24 35.8131 66.634 36.5515 67.9492L36.6598 68.1408C37.0595 68.8434 37.4805 69.5475 37.7057 70.3191C37.9807 71.266 37.7727 72.226 37.9528 73.1716L37.9625 73.2217C38.0479 73.6422 38.2322 74.1205 38.7637 74.0054C38.8047 73.9965 38.8443 73.9845 38.8838 73.9717C38.9959 74.0559 39.1308 74.1255 39.2988 74.1717C39.7103 74.2846 40.1648 74.2298 40.5743 74.1385C40.9699 74.0504 41.354 73.9122 41.7237 73.7504C41.7646 73.8456 41.7899 73.9452 41.7924 74.0409C41.805 74.5302 41.59 74.9326 41.2592 75.2601C41.7868 75.8887 42.2376 76.5805 42.7457 77.2223C43.4756 78.1429 44.2223 79.0437 45.0165 79.9157C45.8428 80.8245 46.743 81.6832 47.6768 82.4947C48.3314 83.0628 49.413 83.6704 49.8234 84.495C50.2951 84.6331 50.6957 84.9737 50.8423 85.534C51.1088 86.5493 51.187 88.9284 50.9776 89.9608C50.7697 90.984 49.9769 91.6218 49.1004 92.161C48.8575 92.3109 48.5826 92.2952 48.3593 92.1834C48.1625 92.3635 47.9406 92.5292 47.6865 92.6765C46.7486 93.2223 45.6585 93.4209 44.5783 93.5353C43.1197 93.9746 41.5467 94.0903 39.9919 93.8168C39.4839 93.8733 38.9758 93.9246 38.4664 93.9667C33.2548 94.3941 27.9566 94.0298 22.8734 92.8607C20.5411 92.3241 18.3388 91.3489 16.287 90.0962C12.7505 87.9372 11.2537 81.877 13.3057 76.0833L13.4682 75.6265C14.3928 73.0383 15.39 70.4637 16.7266 68.0491L16.8862 67.7619C18.1148 65.5596 19.4663 63.3596 21.2613 61.5221C22.1602 60.6028 23.2042 59.7676 24.3835 59.1837C24.8313 58.9623 25.354 58.8086 25.8648 58.6344L25.8753 58.5139L25.8863 58.3936C25.92 58.0077 25.9628 57.6225 26.0181 57.2382C26.2244 55.801 26.5155 54.385 26.9291 52.9869C27.3432 51.5869 27.8523 50.2105 28.4649 48.8764C29.4869 46.6506 30.7704 44.5393 32.2519 42.5582C32.3577 42.3535 32.4651 42.1497 32.575 41.9474C33.8242 39.6472 35.4419 37.4536 37.5285 35.7557C39.9235 33.8067 42.8085 32.5967 45.8191 31.7472C48.9413 30.8673 52.1989 30.265 55.4523 30.0625C57.1649 29.9559 58.8802 29.9546 60.59 30.0888ZM37.7563 67.0417C39.3237 66.0751 41.4592 66.7378 42.2534 68.3082C42.827 69.4458 40.9302 70.0863 40.6301 68.9526C40.3314 67.8163 39.0488 67.0023 37.8163 67.1759C37.7312 67.189 37.6782 67.0891 37.7563 67.0417Z" fill="#78E185"/>
<path fill-rule="evenodd" clip-rule="evenodd" d="M69.7721 79.8198C68.8319 79.4592 67.9929 78.8576 67.3796 78.0891C67.1664 77.8219 67.1111 77.5398 67.1558 77.2817C67.2061 76.9916 67.3887 76.7286 67.6376 76.5522C67.8874 76.3753 68.1998 76.288 68.5018 76.3325C68.7642 76.3712 69.0254 76.5063 69.2322 76.7865L69.2754 76.8425C69.64 77.3064 70.1152 77.687 70.6566 77.9323C71.1784 78.1687 71.762 78.2791 72.366 78.2149C73.5162 78.0927 74.309 77.5078 75.1517 76.7135C75.2561 76.6132 75.3607 76.5098 75.4657 76.4047C75.532 76.3094 75.624 76.2482 75.7262 76.2161C75.8397 76.1804 75.9681 76.1824 76.0856 76.221C76.199 76.2582 76.3004 76.3287 76.3684 76.4225C76.433 76.5117 76.4696 76.6219 76.4577 76.7487C76.3806 77.5718 75.9229 78.3065 75.2727 78.8833C74.5507 79.524 73.5935 79.9672 72.6924 80.1226C71.6997 80.2939 70.6881 80.1712 69.7721 79.8198ZM73.1606 67.1208C74.2168 67.7245 75.8261 69.1321 74.6899 70.6286C73.3524 71.9482 71.4268 70.4352 70.4779 69.751C69.598 69.2207 68.6095 70.5846 69.4258 71.2038C76.2826 75.9771 79.0653 67.2787 73.6948 66.4111C73.1035 66.3155 72.8839 66.9341 73.1606 67.1208ZM60.8728 61.568C60.9894 60.206 63.1955 59.8967 63.415 61.2445C63.6115 62.4518 63.3802 63.5609 62.8018 64.6478C62.2492 65.6863 60.8602 65.2018 60.7552 64.2562C60.6144 62.9887 60.8002 62.4153 60.8728 61.568ZM77.6659 60.9651C77.9735 60.5863 78.4176 60.3278 78.9496 60.4739C80.612 60.9307 80.122 63.1497 79.5382 64.2298C79.221 64.8164 78.1956 64.9651 77.7322 64.4487C76.977 63.6065 76.6153 61.9245 77.5754 61.0949C77.6015 61.052 77.6304 61.0088 77.6659 60.9651ZM62.7786 55.6083L63.0412 55.565C63.8536 55.4329 64.8636 55.306 65.4382 55.9201C65.743 56.2457 65.8479 56.8509 65.4382 57.1626C64.7176 57.7111 63.9209 57.4985 63.0574 57.5449C62.3458 57.5833 61.6618 57.6941 60.9763 57.8783C59.4725 58.2825 58.2471 59.0203 56.9627 59.8304C56.7941 59.9367 56.6221 59.734 56.7025 59.5858C57.444 58.2203 58.8808 57.0986 60.3201 56.4148C61.0882 56.0499 61.9288 55.7471 62.7786 55.6083ZM76.1509 54.9967L76.3519 55.0354C78.539 55.4652 81.3806 56.3239 82.4163 58.3439C82.4558 58.6296 82.4141 58.6908 82.3802 58.7308L82.3689 58.7441C82.341 58.7782 82.3187 58.8253 82.187 58.8642C82.1505 58.856 82.1136 58.8473 82.0763 58.8382C81.6015 58.7212 81.2259 58.56 80.8623 58.3928L80.468 58.2101C80.0105 57.9992 79.549 57.796 79.06 57.646C78.0163 57.3259 76.9427 57.1004 75.8526 56.98C75.6163 56.9539 75.3887 56.8789 75.2092 56.7504C75.0388 56.6284 74.9087 56.4595 74.8493 56.2351C74.7724 55.9445 74.7945 55.7246 74.9603 55.4625C75.085 55.2657 75.2633 55.1292 75.4681 55.0509C75.6769 54.971 75.9146 54.9522 76.1509 54.9967Z" fill="#78E185"/>
<path fill-rule="evenodd" clip-rule="evenodd" d="M88.026 63.6904C86.6925 72.1717 77.3837 73.1097 75.7298 64.6898C75.9953 64.5805 76.1862 64.3654 76.1463 63.9477C76.1369 62.1128 76.7427 60.1735 78.5031 59.1531C80.3222 58.1002 82.4511 57.9957 84.5563 58.0223C88.5735 57.9323 88.4891 61.0896 88.026 63.6904ZM74.2721 60.002C73.0113 59.952 71.4163 59.9938 70.2868 60.7161C69.9763 59.9299 69.1696 59.0904 68.3544 58.6416C71.3842 58.7249 74.503 58.4446 77.5555 58.2269C76.8248 58.6952 76.145 59.3988 75.7032 60.2122C75.2932 60.0067 74.7061 60.0259 74.2721 60.002ZM68.7151 64.5896C65.2191 75.9046 56.4927 70.9728 55.5413 69.5227C53.8253 67.1231 53.5024 61.2899 54.9972 59.7303C57.1369 58.3199 60.166 58.6829 62.6937 58.6483C67.3374 58.7072 70.6355 60.0134 68.7151 64.5896ZM92.1538 59.3856C91.2039 59.2688 90.1889 59.2452 89.3058 59.6385C89.0339 58.5518 88.1803 57.6433 87.2165 57.2435C87.0998 57.1059 87.1173 57.032 86.7188 57.0526C84.2718 56.3611 81.5337 56.727 79.1822 57.4361C75.4684 57.7302 71.5722 57.962 67.8272 58.3672C64.3191 56.8859 53.7321 56.6687 53.0741 60.32C52.2465 60.2036 50.8371 59.5911 50.1417 60.4219C45.0406 59.6087 39.7697 60.7388 34.6465 61.2422C33.3569 61.4655 32.6927 63.8719 34.1565 63.839C34.9795 63.629 34.1312 62.3406 35.2394 62.2436C40.1824 61.736 45.0174 61.0158 50.011 60.9315C49.8373 61.7423 53.3139 61.795 53.3652 61.3216C53.3726 61.3251 53.3804 61.3275 53.388 61.3307C52.5289 64.341 53.3044 68.6734 54.8569 70.5401C57.0321 72.9844 62.4932 73.6857 64.9147 72.113C68.0384 70.6615 71.2879 63.3753 70.3752 60.9547C72.0318 60.461 73.6695 60.6092 75.3887 60.8606C74.9951 61.906 74.3157 64.4795 75.2932 64.7027C75.1137 69.812 80.059 73.0001 84.6179 70.9041C88.5637 69.1625 89.9436 63.6497 89.4608 60.3035C89.952 61.196 94.0764 60.2244 92.1538 59.3856Z" fill="#78E185"/>
<path fill-rule="evenodd" clip-rule="evenodd" d="M98.6432 154.104C98.1383 151.252 97.6755 148.394 97.2549 145.529C97.0552 144.168 96.8605 142.807 96.6853 141.443C96.5627 140.488 96.376 139.395 97.026 138.687C97.9407 137.692 98.7717 136.839 98.8836 135.412C98.989 134.07 98.5351 132.607 98.2513 131.304C97.6561 128.571 96.9151 125.873 96.0963 123.199C95.2645 120.484 94.3524 117.793 93.4272 115.108C92.5622 112.597 91.7306 110.064 90.604 107.656C88.4658 103.084 84.8485 99.6994 80.378 97.439C79.2662 96.8769 76.9984 94.8701 75.8369 94.4208C74.769 94.0077 74.7728 95.214 73.7218 94.7596C72.8816 94.3964 72.0993 93.912 71.6288 93.1008C71.118 92.2199 69.8371 90.988 69.6421 89.9626C69.2289 87.7893 69.6765 85.9396 68.1254 84.3038C66.7484 82.8513 64.8975 81.8562 62.9824 81.322C58.7694 80.147 53.1509 80.9685 50.609 84.8833C49.395 86.7528 48.9707 89.0125 47.3326 90.5383C45.9021 91.8705 46.2222 92.7813 44.3695 93.4679C44.2645 93.5069 41.4203 92.8968 41.3154 92.9358C39.2886 92.5021 37.3514 93.7162 35.4919 94.4208C32.7197 95.471 30.0804 96.838 27.6007 98.4626C22.6008 101.739 18.3185 105.993 14.788 110.806C11.2283 115.66 8.46638 121.1 6.4998 126.785C6.02221 128.166 5.59323 129.564 5.21484 130.976C5.00304 131.766 4.77671 132.585 5.0346 133.394C5.24553 134.055 5.71472 134.548 6.2657 134.945C7.01258 135.483 8.51072 135.833 8.48154 136.915C8.45924 137.738 8.18006 138.604 8.04378 139.418C7.88158 140.386 7.74831 141.36 7.61504 142.333C7.00882 146.761 6.537 151.213 6.32833 155.679C6.12292 160.075 5.95245 164.562 6.25744 168.957C6.2776 169.247 6.36403 169.513 6.50343 169.738C6.3733 169.787 6.36328 170.03 6.52523 170.064C6.63871 170.088 6.75193 170.112 6.86541 170.137C7.10114 170.315 7.3951 170.424 7.73341 170.435C7.96274 170.442 8.19195 170.452 8.42104 170.464C10.8385 170.97 13.2556 171.447 15.7047 171.808C18.6817 172.248 21.6674 172.606 24.6625 172.897C30.8167 173.495 36.9225 173.297 43.0849 172.975C49.2378 172.652 55.387 172.577 61.5463 172.737C67.7109 172.898 73.8733 173.166 80.0394 173.276C86.9281 173.398 93.8063 173.21 100.675 172.662C101.617 172.587 102.2 171.838 102.014 170.903C100.901 165.299 99.6398 159.732 98.6432 154.104Z" fill="#EDB98A"/>
<path fill-rule="evenodd" clip-rule="evenodd" d="M35.4919 94.4206L35.6264 94.3688C37.4448 93.6584 39.3374 92.5123 41.3154 92.9355C41.3853 92.9095 42.6724 93.1719 43.554 93.3383L42.7172 94.2117L41.2405 94.4958C46.3349 102.904 52.3601 107.108 59.3162 107.108C66.2722 107.108 71.5505 102.904 75.1511 94.4958L75.6424 94.3598C75.7031 94.3739 75.7677 94.3938 75.8368 94.4206C76.9984 94.8698 79.2662 96.8766 80.378 97.4387C84.8485 99.6991 88.4658 103.084 90.604 107.655C91.6931 109.984 92.5064 112.428 93.3408 114.857L93.4272 115.108C94.3524 117.793 95.2645 120.483 96.0963 123.199C96.8794 125.756 97.5915 128.336 98.1728 130.947L98.2512 131.303C98.5351 132.606 98.989 134.07 98.8836 135.412C98.8437 135.92 98.7126 136.356 98.5189 136.751L88.4429 140.376L93.2432 173.116C88.8461 173.305 84.4449 173.354 80.0394 173.275C73.8733 173.166 67.7109 172.898 61.5463 172.737C55.5737 172.582 49.6105 172.648 43.6442 172.946L42.1291 173.023C36.2907 173.315 30.4984 173.464 24.6625 172.897L24.2648 172.858L24.2647 168.069L26.3147 141.401L15.9257 139.446L5.72751 134.492C5.41937 134.184 5.17211 133.825 5.0346 133.394C4.79575 132.644 4.97227 131.886 5.1679 131.151L5.21484 130.975C5.59323 129.564 6.02221 128.166 6.4998 126.785C8.46638 121.1 11.2283 115.659 14.788 110.806C18.3184 105.992 22.6008 101.738 27.6007 98.4623C30.0804 96.8377 32.7197 95.4707 35.4919 94.4206Z" fill="#FDEA6B"/>
<path fill-rule="evenodd" clip-rule="evenodd" d="M39.3935 92.7979C40.0305 92.7702 40.6801 92.8733 41.3156 92.9358C41.371 92.9411 41.392 93.0266 41.3296 93.0396C40.1922 93.2772 39.0673 93.6023 37.9503 93.9324L37.472 94.0739C36.2123 94.4465 34.9896 94.8309 33.7702 95.3279C31.3398 96.3184 29.0315 97.6554 26.9071 99.1913C18.7267 105.106 12.806 114.061 9.06974 123.332C8.05507 125.85 7.19534 128.43 6.49894 131.054C6.3296 131.692 6.17028 132.333 6.01923 132.976C5.97489 133.165 5.78163 133.648 5.88759 133.84C5.98128 134.011 6.34551 134.116 6.51472 134.205L7.08601 134.501C8.20036 135.075 10.0566 136.02 10.2427 136.111L10.533 136.254C15.2814 138.582 20.355 140.556 25.6984 140.693L25.7403 140.237C25.9785 137.714 26.2911 135.178 26.9735 132.733C27.0102 132.601 27.1774 132.646 27.1927 132.762C27.5728 135.657 27.4513 138.574 27.3187 141.482C27.0838 146.633 26.772 151.781 26.4948 156.929C26.356 159.505 26.1767 162.079 26.0147 164.653C25.8525 167.232 25.8 169.873 25.4296 172.431C25.3471 173.002 24.6793 173.312 24.1735 173.252C23.6139 173.185 23.1834 172.692 23.1807 172.127C23.174 170.637 23.3612 169.129 23.4653 167.643C23.5641 166.23 23.6702 164.819 23.779 163.407C24.1763 158.255 24.6333 153.11 25.056 147.96C25.2058 146.134 25.3676 144.309 25.5342 142.484C19.8737 142.302 14.5855 140.205 9.54056 137.755C9.46754 139.413 9.29118 141.068 9.12047 142.719C8.64388 147.327 8.22366 151.933 7.90915 156.554C7.75034 158.889 7.63473 161.226 7.53403 163.563C7.48455 164.712 7.44422 165.861 7.41328 167.011C7.40293 167.394 7.39358 167.777 7.3853 168.16L7.36809 169.038C7.35401 169.594 7.29747 170.109 6.82948 170.514C6.35415 170.926 5.71211 170.947 5.24166 170.514C4.6119 169.934 4.72325 169.144 4.74191 168.366C4.75744 167.709 4.7761 167.052 4.79777 166.395C4.84123 165.082 4.89672 163.768 4.96423 162.456C5.20047 157.867 5.67249 153.297 6.28936 148.745L6.53016 146.988C6.97985 143.721 7.47354 140.38 8.4788 137.233C8.08739 137.039 7.6971 136.843 7.30832 136.646C6.61868 136.297 5.90562 135.969 5.23528 135.584C4.70346 135.278 4.24478 134.858 4.09674 134.24C3.93163 133.55 4.1841 132.796 4.35184 132.123L4.3664 132.064C4.53086 131.387 4.70797 130.713 4.89484 130.041C5.65262 127.318 6.58963 124.648 7.68621 122.044C9.88187 116.829 12.7159 111.875 16.1778 107.396C19.2939 103.364 22.9751 99.7081 27.2895 96.9659C29.3988 95.6252 31.6465 94.5243 34.0237 93.746C35.1348 93.3823 36.3437 93.0659 37.5071 92.9356C38.1346 92.8655 38.763 92.8253 39.3935 92.7979ZM50.6803 84.5349C51.4373 83.722 52.9413 84.5632 52.5778 85.6396C51.7228 88.1721 50.3614 90.4821 48.2366 92.1462C46.2393 93.7106 43.8577 94.7265 41.2927 94.5097C41.273 94.508 41.2558 94.5029 41.2406 94.4958L41.4617 94.7956C43.197 97.143 45.0277 99.4579 47.2342 101.377C51.7299 105.286 57.8509 107.394 63.7616 105.894C68.4119 104.714 72.5089 101.037 73.7138 96.3507C73.5411 96.4281 73.3358 96.4545 73.1105 96.4055C72.1464 96.1962 71.192 95.1823 70.5703 94.4554C69.8977 93.6689 69.3724 92.8197 68.9873 91.8598C68.2827 90.103 68.0567 87.841 69.0189 86.1392C69.1376 85.9295 69.4114 86.0471 69.4347 86.2518L69.4714 86.5715C69.6569 88.1664 69.8879 89.7092 70.6399 91.1631C71.0079 91.8745 71.449 92.5689 71.986 93.1648C72.2733 93.4835 72.5848 93.7881 72.9211 94.0554C73.2488 94.3158 73.6455 94.5041 73.9392 94.8029L73.993 94.8603L73.9945 94.85C74.0688 94.2186 74.5116 93.9404 74.9448 93.9579C75.3641 93.9747 75.8565 94.1592 76.0473 94.2476L76.0653 94.2562C78.9902 95.6602 81.684 97.4903 84.2191 99.5207C89.4616 103.72 93.3897 109.209 95.2929 115.673C96.227 118.845 96.763 122.114 97.3288 125.368L97.6771 127.361C98.2052 130.365 98.7952 133.428 99.9873 136.222C100.296 136.945 100.058 137.623 99.3018 137.907C98.3577 138.262 97.41 138.606 96.4608 138.945C96.9269 140.945 97.2111 143.013 97.5603 145.023C98.3026 149.294 99.212 153.537 99.9918 157.803C100.391 159.983 100.75 162.172 101.149 164.353C101.34 165.403 101.54 166.452 101.735 167.502C101.84 168.068 101.935 168.636 102.035 169.203L102.052 169.297C102.11 169.596 102.182 169.905 102.1 170.205C102.006 170.546 101.739 170.787 101.501 171.032C101.306 171.233 101.023 171.234 100.783 171.124L100.704 171.088C100.276 170.888 99.94 170.688 99.788 170.205C99.6918 169.899 99.6572 169.554 99.5943 169.239C99.4737 168.634 99.3593 168.029 99.2513 167.422C99.0354 166.208 98.8245 164.993 98.6186 163.777L98.4262 162.639C97.7661 158.715 97.1392 154.767 96.8223 150.801C96.6817 149.042 96.5327 147.284 96.3824 145.526L96.2695 144.208C96.1267 142.539 95.9522 140.828 95.9275 139.136L95.36 139.337L92.5906 140.316C91.9039 140.559 91.0297 141.056 90.2907 140.966C89.929 140.922 89.6532 140.808 89.4402 140.601C89.6952 144.2 90.0404 147.792 90.5005 151.367C90.9191 154.619 91.3831 157.867 91.9312 161.1C92.2027 162.701 92.4816 164.3 92.7846 165.896C92.936 166.693 93.0923 167.49 93.2534 168.286C93.3337 168.683 93.4292 169.08 93.4919 169.481C93.5635 169.939 93.4373 170.221 93.1811 170.598C92.9708 170.908 92.5501 171.067 92.209 170.853C91.7574 170.57 91.5218 170.324 91.3889 169.808C91.2682 169.339 91.1948 168.85 91.1013 168.375C90.9288 167.498 90.7621 166.621 90.6012 165.742C90.2646 163.904 89.9544 162.062 89.6773 160.215C88.701 153.705 88.0815 147.142 87.7686 140.567C87.6142 137.324 87.5665 134.077 87.5939 130.83C87.6079 129.166 87.6623 127.497 87.78 125.836C87.8992 124.156 88.1472 122.509 88.3687 120.845C88.3765 120.786 88.4591 120.783 88.4626 120.845C88.5675 122.711 88.7318 124.574 88.8123 126.445C88.8892 128.231 88.9229 130.019 88.9841 131.804C89.0643 134.152 89.1757 136.501 89.3231 138.848C89.59 138.556 89.9923 138.388 90.3949 138.453C90.9781 138.331 91.6058 138.025 92.1618 137.839L94.2578 137.139C95.3596 136.771 96.4615 136.406 97.5672 136.051C96.5786 132.725 95.9014 129.35 95.3231 125.925L95.0652 124.385C94.5547 121.353 94.0043 118.32 93.0797 115.385C92.1076 112.298 90.6529 109.429 88.7232 106.83C86.821 104.269 84.5067 102.014 82.1239 99.9048C80.0839 98.0992 77.9016 96.4689 75.8209 94.7129C75.8427 94.8292 75.8474 94.9574 75.8282 95.0981C75.3858 98.3359 73.6968 101.351 71.3429 103.594C66.6141 108.099 59.6141 109.034 53.5617 106.921C47.707 104.878 42.5307 100.038 40.7019 94.0484C40.6706 93.946 40.8079 93.9052 40.863 93.9805C40.9645 94.1196 41.0664 94.2586 41.1685 94.3976C41.1616 94.3424 41.1903 94.2823 41.2584 94.256C43.3922 93.432 45.4876 92.2636 47.087 90.6106C47.8666 89.8049 48.547 88.892 49.084 87.9076C49.3413 87.436 49.5724 86.9476 49.7568 86.443L49.8036 86.3124C50.0271 85.6803 50.2138 85.0357 50.6803 84.5349Z" fill="black"/>
<path fill-rule="evenodd" clip-rule="evenodd" d="M67.0418 45.5278C52.6569 45.0017 38.9117 54.6898 34.2838 68.3835C33.9475 69.4576 34.994 70.461 36.0499 70.2794C34.97 75.7286 37.3302 83.0634 43.4782 83.8364C44.7375 83.9956 46.0033 83.904 47.2643 84.0198C48.3883 84.123 54.5072 87.5725 56.7985 88.3806C61.6224 90.0692 73.7614 89.76 78.5903 88.3806C78.7661 88.7814 82.5163 73.3696 83.3703 68.5913C83.6817 66.5209 80.8361 64.9882 81.0459 62.8547C81.3154 60.1142 84.5142 56.7729 83.5342 54.1639C80.951 47.5235 73.4541 45.6707 67.0418 45.5278Z" fill="#EDB98A"/>
<path fill-rule="evenodd" clip-rule="evenodd" d="M59.8975 33.4564C60.5437 33.5102 61.1937 33.6017 61.8323 33.7219C63.7734 33.4038 65.782 33.757 67.6643 34.3695C72.0726 35.8036 76.3159 38.2936 79.6381 41.5439C81.3479 43.2173 82.7465 45.1449 83.6077 47.3869C84.0452 48.5242 84.2914 49.7379 84.3626 50.9541L84.3705 51.1015C84.3905 51.505 84.3996 51.9888 84.3515 52.4681C84.5054 53.4357 84.6425 54.4112 84.6529 55.3898C84.6577 55.843 84.6284 56.2956 84.5734 56.7451L84.5922 56.7878C84.5125 57.3245 84.4173 57.859 84.3088 58.3907L84.2816 58.4259C84.2668 58.534 84.2496 58.6418 84.2335 58.7496C84.1745 59.0229 84.1129 59.2956 84.0475 59.5673C83.9061 60.1556 83.7494 60.74 83.5807 61.3209C83.5512 61.4228 83.5796 61.5031 83.635 61.5558C83.512 61.9979 83.3776 62.4368 83.2286 62.8709C83.3017 63.2508 83.3756 63.6306 83.454 64.0091C83.8627 65.9781 84.2089 67.9595 84.6739 69.9172C85.6163 73.8902 87.0486 77.7993 87.4423 81.8838C87.7486 85.0514 87.2399 88.5146 85.275 91.1023C83.5815 93.3318 81.0342 94.6482 78.2832 94.9989C76.9671 95.168 75.6172 95.0904 74.3299 94.7572L74.1896 94.7201C73.5447 94.5462 72.7244 94.2738 72.1251 93.8353C71.4751 93.6061 70.8615 93.1828 70.4915 92.7695C69.9865 92.2046 69.4353 91.2389 69.5728 90.436C68.8217 90.4974 68.0655 90.5149 67.3218 90.5124C65.4895 90.5087 63.6409 90.3634 61.8786 89.8298C60.3062 89.3538 58.4739 88.5585 57.544 87.1231C57.5003 87.0555 57.5728 86.9578 57.649 86.9841C58.4002 87.2483 59.1026 87.6053 59.8775 87.807C60.64 88.0049 61.4024 88.1915 62.1886 88.2729C63.7256 88.4316 65.2857 88.4103 66.8279 88.3341L67.3573 88.3065C69.0075 88.2179 70.713 88.0917 72.2563 87.4725C72.8619 87.2298 73.4223 86.891 73.9334 86.4883L74.0136 86.4242C74.2874 86.2012 74.5698 86.0134 74.8573 85.8355C74.8986 85.7829 74.9398 85.7303 74.9811 85.6764C75.6347 84.836 76.3372 84.0256 76.9259 83.1376C78.0957 81.3753 78.547 79.5441 78.6082 77.4424C78.6723 75.2239 78.6797 73.0024 78.7061 70.7833L78.7157 70.0437C78.7494 67.5061 78.7544 64.9598 78.9494 62.4284C79.0392 61.2524 79.1672 60.0818 79.3637 58.9197L79.4069 58.6709L79.7243 56.8785C79.8007 56.4468 79.8453 56.0019 79.9429 55.572C79.8332 55.3916 79.7063 55.218 79.5592 55.0527C79.4236 54.9003 79.2859 54.7523 79.1484 54.6054L79.0493 54.5178C78.8228 54.3152 78.6283 54.1219 78.4459 53.8433L78.4018 53.7744C78.206 53.5375 78.0213 53.2898 77.858 53.0176L77.8279 52.9648C77.7872 52.9135 77.7467 52.8622 77.7045 52.8116C77.5737 52.6539 77.4364 52.5049 77.2946 52.3623C76.797 53.3255 76.0932 54.1598 75.0968 54.6813C74.7365 54.87 74.2969 54.7084 74.1788 54.3071C73.8807 53.294 73.428 52.352 72.8289 51.4989C71.8286 53.167 70.2425 54.4718 68.3733 55.1084C67.9062 55.2675 67.4949 54.7765 67.6047 54.338C67.9419 52.9902 68.009 51.6195 67.8109 50.2646C67.1053 50.7698 66.3776 51.2457 65.6305 51.6868C63.9678 52.9748 62.2061 54.1339 60.2682 54.9662C59.8205 55.1585 59.1467 54.8353 59.3502 54.259C59.5215 53.7738 59.6623 53.2804 59.7525 52.7738L59.7724 52.6566C59.773 52.6531 59.7733 52.6496 59.7738 52.646C55.2859 58.8499 44.4027 64.8284 43.5674 64.8859L43.5446 64.8861C44.0663 65.3855 44.4874 66.0025 44.7629 66.7115C45.0522 67.4562 43.8725 67.7805 43.5674 67.0684L43.5576 67.0446C43.0883 65.8364 41.9274 64.9704 40.6644 64.7656C39.901 64.9045 39.1794 65.2734 38.6871 65.8328C37.7185 66.9337 37.7097 68.2614 38.3709 69.5139L38.4679 69.6964C38.8259 70.3655 39.2029 71.0361 39.4045 71.771C39.6508 72.6728 39.4645 73.5871 39.6258 74.4877L39.6345 74.5354C39.711 74.9358 39.876 75.3914 40.352 75.2818C40.3887 75.2733 40.4242 75.2619 40.4596 75.2497C40.5599 75.3299 40.6807 75.3961 40.8312 75.4401C41.1996 75.5477 41.6067 75.4954 41.9734 75.4085C42.3276 75.3246 42.6716 75.193 43.0027 75.0389C43.0393 75.1296 43.0619 75.2244 43.0642 75.3156C43.0754 75.7815 42.883 76.1648 42.5867 76.4767C43.0592 77.0754 43.4629 77.7342 43.9179 78.3454C44.5715 79.2222 45.2402 80.0802 45.9514 80.9106C46.6913 81.7761 47.4975 82.594 48.3337 83.3668C48.9199 83.9079 49.8885 84.4865 50.256 85.2719C50.6784 85.4034 51.0372 85.7278 51.1684 86.2614C51.4071 87.2283 51.4771 89.4941 51.2896 90.4773C51.1034 91.4518 50.3935 92.0593 49.6085 92.5728C49.3911 92.7156 49.1448 92.7006 48.9449 92.5941C48.7686 92.7657 48.5699 92.9235 48.3424 93.0638C47.5025 93.5836 46.5263 93.7727 45.5589 93.8817C44.2528 94.3 42.8442 94.4103 41.4518 94.1497C40.9969 94.2036 40.5419 94.2524 40.0857 94.2925C35.4187 94.6996 30.6742 94.3526 26.1221 93.2391C24.0336 92.7281 22.0614 91.7994 20.2239 90.6063C17.057 88.5501 15.7166 82.7785 17.5542 77.2607L17.6997 76.8257C18.5277 74.3607 19.4207 71.9087 20.6176 69.6091L20.7605 69.3355C21.8608 67.2381 23.071 65.1429 24.6785 63.3929C25.4834 62.5173 26.4183 61.722 27.4745 61.1659C27.8754 60.9549 28.3435 60.8087 28.801 60.6427L28.8103 60.528L28.8202 60.4134C28.8503 60.0459 28.8887 59.679 28.9382 59.313C29.1229 57.9443 29.3837 56.5957 29.754 55.2641C30.1248 53.9308 30.5808 52.6199 31.1294 51.3494C32.0445 49.2296 33.1939 47.2188 34.5207 45.332C34.6154 45.1371 34.7115 44.943 34.81 44.7503C35.9286 42.5597 37.3772 40.4705 39.2458 38.8535C41.3906 36.9973 43.9741 35.8449 46.6701 35.0358C49.4661 34.1979 52.3833 33.6242 55.2967 33.4313C56.8303 33.3299 58.3664 33.3286 59.8975 33.4564ZM39.4496 68.6497C40.8532 67.7291 42.7656 68.3602 43.4767 69.8559C43.9904 70.9393 42.2919 71.5493 42.0231 70.4696C41.7557 69.3874 40.607 68.6121 39.5034 68.7774C39.4271 68.79 39.3796 68.6948 39.4496 68.6497Z" fill="black"/>
<path fill-rule="evenodd" clip-rule="evenodd" d="M68.1201 80.8188C67.2781 80.4753 66.5269 79.9023 65.9776 79.1704C65.7867 78.916 65.7372 78.6473 65.7772 78.4016C65.8223 78.1252 65.9858 77.8748 66.2087 77.7068C66.4324 77.5383 66.7121 77.4552 66.9826 77.4975C67.2176 77.5344 67.4515 77.663 67.6367 77.9299L67.6753 77.9833C68.0019 78.425 68.4274 78.7875 68.9122 79.0211C69.3795 79.2463 69.9021 79.3514 70.443 79.2903C71.473 79.1739 72.183 78.6168 72.9376 77.8604C73.0311 77.7649 73.1247 77.6664 73.2188 77.5663C73.2782 77.4755 73.3606 77.4172 73.4521 77.3866C73.5537 77.3527 73.6687 77.3546 73.7739 77.3913C73.8755 77.4268 73.9663 77.4939 74.0271 77.5833C74.085 77.6682 74.1178 77.7732 74.1071 77.8939C74.0381 78.6778 73.6282 79.3775 73.046 79.9269C72.3994 80.537 71.5423 80.9591 70.7353 81.1072C69.8463 81.2703 68.9404 81.1534 68.1201 80.8188ZM71.1547 68.7243C72.1005 69.2992 73.5417 70.6398 72.5242 72.0651C71.3265 73.3218 69.6021 71.8809 68.7524 71.2292C67.9644 70.7242 67.0792 72.0231 67.8102 72.6128C73.9505 77.1589 76.4424 68.8746 71.6331 68.0483C71.1036 67.9573 70.9069 68.5464 71.1547 68.7243ZM60.1514 63.4361C60.2559 62.139 62.2314 61.8444 62.428 63.128C62.6039 64.2778 62.3968 65.3341 61.8789 66.3693C61.384 67.3583 60.1402 66.8969 60.0461 65.9963C59.92 64.7891 60.0864 64.243 60.1514 63.4361ZM75.1898 62.862C75.4653 62.5013 75.8629 62.255 76.3394 62.3942C77.828 62.8292 77.3893 64.9425 76.8665 65.9712C76.5824 66.5299 75.6642 66.6715 75.2492 66.1797C74.5728 65.3775 74.2489 63.7757 75.1088 62.9856C75.1321 62.9448 75.158 62.9036 75.1898 62.862ZM61.8579 57.7602L62.093 57.719C62.8205 57.5932 63.725 57.4723 64.2396 58.0571C64.5125 58.3673 64.6064 58.9437 64.2396 59.2405C63.5943 59.7628 62.8808 59.5604 62.1075 59.6046C61.4702 59.6412 60.8578 59.7467 60.2439 59.9221C58.8972 60.307 57.7999 61.0097 56.6497 61.7813C56.4987 61.8825 56.3447 61.6894 56.4167 61.5483C57.0807 60.2478 58.3674 59.1795 59.6562 58.5283C60.3441 58.1808 61.0969 57.8924 61.8579 57.7602ZM73.8327 57.1777L74.0127 57.2145C75.9713 57.6239 78.516 58.4418 79.4435 60.3656C79.4788 60.6376 79.4415 60.6959 79.4111 60.734L79.401 60.7467C79.376 60.7792 79.356 60.824 79.2381 60.861C79.2054 60.8532 79.1723 60.845 79.1389 60.8362C78.7138 60.7248 78.3774 60.5713 78.0518 60.4121L77.6987 60.2381C77.289 60.0373 76.8758 59.8437 76.4378 59.7008C75.5032 59.396 74.5418 59.1812 73.5655 59.0666C73.3539 59.0417 73.1502 58.9703 72.9894 58.8479C72.8369 58.7317 72.7203 58.5709 72.6672 58.3571C72.5983 58.0804 72.6181 57.8709 72.7665 57.6213C72.8782 57.4339 73.0379 57.3039 73.2213 57.2293C73.4083 57.1533 73.6211 57.1353 73.8327 57.1777Z" fill="black"/>
<path fill-rule="evenodd" clip-rule="evenodd" d="M81.7161 69.8461C80.8727 70.979 79.3093 71.3399 77.8673 71.2152C74.7572 70.9159 73.7783 67.3836 73.6764 64.6383C75.762 65.2249 73.5 61.0698 80.6292 60.6129C83.1424 60.4035 82.4495 61.9213 83.5599 63.0303C83.5371 65.3577 83.1497 67.8867 81.7161 69.8461ZM66.9023 67.1716C65.0661 75.7705 55.0112 73.7251 53.9549 65.9738C54.9303 65.2854 54.6734 63.5856 55.885 62.9697C57.8054 61.7428 60.206 61.7953 62.3868 61.8241C65.1742 62.0156 65.9686 63.1703 67.4005 64.4301C67.3316 65.2715 67.1329 66.2688 66.9023 67.1716ZM85.6991 59.1887C85.596 59.1716 85.4928 59.1554 85.3896 59.1403C85.3091 59.0945 85.2145 59.0593 85.1045 59.0382C84.8534 58.9744 84.604 58.9315 84.355 58.9083C80.7813 58.1041 72.5138 59.246 72.1726 62.2956C71.0346 62.6755 70.0499 62.3353 68.7308 62.3691C67.7268 58.1726 50.369 58.7649 49.5342 61.295C49.5311 61.2941 49.528 61.2933 49.5247 61.2923C48.7226 61.0441 47.5401 61.104 46.622 61.0646C44.6617 61.0235 42.6991 61.1983 40.7811 61.6117C37.1895 62.1825 32.2878 62.8507 34.7857 67.3357C34.7862 67.3365 34.7866 67.3374 34.7872 67.3381L34.7876 67.3377C35.218 67.779 35.9486 67.4237 35.9758 66.8263C35.136 64.7016 37.0328 64.4464 38.4923 63.8358C42.1237 62.5312 45.8209 62.3503 49.5767 62.7539C49.8593 63.0866 50.288 63.3767 50.7412 63.5285C53.2523 63.9453 51.9289 65.808 53.5162 66.079C53.2246 72.5723 61.1081 76.1167 65.6759 71.8482C67.4997 70.0651 67.9345 67.4237 68.3573 65.0428C68.5809 64.9925 68.7231 64.8703 68.8061 64.7085C69.3438 64.1716 69.6816 63.6759 70.7449 63.5285C71.8082 63.3812 72.6267 63.6769 72.7374 63.7674C72.7653 63.8237 72.7953 63.88 72.8301 63.9364C72.8787 64.0205 72.9448 64.0875 73.02 64.1402C71.97 70.6062 76.9897 74.6954 82.0573 71.3418C84.2592 69.2705 84.7245 66.0994 84.8164 63.2689C85.1149 63.0888 85.3039 62.7398 85.2006 62.3009C85.0582 61.6959 85.3921 61.1721 85.9239 60.9091C86.6149 60.5675 86.4927 59.3201 85.6991 59.1887Z" fill="black"/>
</svg>
