<svg width="1502" height="604" viewBox="0 0 1502 604" fill="none" xmlns="http://www.w3.org/2000/svg">
<path d="M58.3235 536.618L92.4679 561.386L85.9118 568.961L80.4344 564.988L80.3194 565.121C81.4697 567.181 81.8991 569.584 81.6075 572.329C81.3069 574.995 80.1789 577.458 78.2236 579.717C74.8497 583.615 70.9722 585.598 66.5912 585.665C62.2011 585.653 58.0855 584.254 54.2442 581.468L32.904 565.988L39.8052 558.014L58.7269 571.74C64.797 576.143 69.5574 576.351 73.008 572.364C75.0784 569.972 75.7685 567.48 75.0783 564.888C74.3406 562.262 72.7151 560.037 70.2017 558.214L51.4223 544.591L58.3235 536.618Z" fill="#DB79E2"/>
<path d="M109.557 543.321L66.5419 527.43L74.4605 519.195L104.089 531.831L104.211 531.704L86.9475 506.21L94.7442 498.102L124.616 510.484L124.738 510.357L107.414 484.926L115.028 477.008L137.759 513.993L130.328 521.721L100.699 510.097L100.577 510.223L116.988 535.593L109.557 543.321Z" fill="#DB79E2"/>
<path d="M135.901 485.341C130.819 481.284 128.191 476.385 128.017 470.644C127.798 464.868 129.931 459.625 134.417 454.917C138.902 450.208 144.286 447.561 150.567 446.976C156.803 446.353 162.461 448.071 167.543 452.129C172.671 456.223 175.347 461.198 175.572 467.054C175.837 472.867 173.747 478.107 169.302 482.773C164.857 487.438 159.45 490.067 153.083 490.659C146.756 491.208 141.028 489.436 135.901 485.341ZM138.062 469.366C138.713 472.575 140.458 475.312 143.296 477.579C146.135 479.845 149.357 481.074 152.964 481.265C156.57 481.456 159.727 480.131 162.435 477.289C165.142 474.447 166.148 471.404 165.451 468.158C164.754 464.913 162.986 462.157 160.148 459.891C157.309 457.624 154.11 456.414 150.549 456.259C146.988 456.105 143.854 457.448 141.146 460.29C138.439 463.132 137.411 466.158 138.062 469.366Z" fill="#DB79E2"/>
<path d="M191.824 457.186L158.614 431.178L165.514 423.793L171.049 428.128L171.169 428C169.986 425.59 169.557 423.142 169.884 420.655C170.165 418.132 171.225 415.886 173.065 413.917C173.745 413.189 174.394 412.623 175.013 412.217L182.623 418.178C181.593 418.853 180.737 419.555 180.057 420.282C178.817 421.609 177.948 422.967 177.449 424.356C176.951 425.744 176.767 427.009 176.899 428.15C177.071 429.249 177.415 430.334 177.931 431.405C178.442 432.398 178.983 433.229 179.555 433.9C180.127 434.57 180.689 435.122 181.243 435.555L199.024 449.48L191.824 457.186Z" fill="#DB79E2"/>
<path d="M190.535 361.005L243.156 401.562L236.375 408.936L231.363 405.073L231.244 405.203C232.195 407.704 232.312 410.336 231.595 413.099C230.831 415.827 229.438 418.29 227.415 420.489C223.172 425.104 218.045 427.489 212.033 427.645C206.061 427.759 200.57 425.884 195.558 422.022C190.547 418.159 187.659 413.539 186.896 408.161C186.172 402.739 187.833 397.829 191.878 393.431C195.883 389.075 200.816 386.945 206.675 387.04L206.854 386.846L183.397 368.767L190.535 361.005ZM197.44 406.007C198.146 409.205 199.938 411.912 202.815 414.13C205.692 416.347 208.935 417.52 212.544 417.649C216.192 417.734 219.305 416.375 221.882 413.572C224.381 410.855 225.313 407.816 224.679 404.453C224.044 401.09 222.335 398.336 219.551 396.19C216.767 394.044 213.488 392.954 209.714 392.919C205.94 392.884 202.804 394.225 200.305 396.942C197.728 399.745 196.772 402.767 197.44 406.007Z" fill="#DB79E2"/>
<path d="M242.194 347.328L242.44 356.074C240.744 356.036 238.997 356.362 237.197 357.05C235.397 357.738 233.87 358.778 232.614 360.17C231.358 361.562 230.583 362.988 230.288 364.447C230.032 365.864 230.511 367.031 231.726 367.95C232.895 368.833 234.21 368.987 235.674 368.41C237.137 367.834 239.334 366.531 242.264 364.503C243.808 363.402 245.284 362.506 246.694 361.815C248.056 361.089 249.582 360.487 251.271 360.008C253 359.486 254.727 359.401 256.452 359.754C258.217 360.064 259.87 360.802 261.412 361.968C265.244 364.865 266.953 368.243 266.539 372.1C266.164 375.914 264.269 379.714 260.855 383.498C258.618 385.978 255.969 387.999 252.908 389.563C249.847 391.126 246.784 391.994 243.721 392.166L243.184 383.089C247.793 383.208 251.609 381.592 254.63 378.243C255.847 376.894 256.579 375.472 256.828 373.977C257.076 372.482 256.522 371.222 255.167 370.198C253.859 369.208 252.41 369.028 250.822 369.656C249.226 370.205 246.904 371.559 243.855 373.718C240.557 375.98 237.465 377.447 234.579 378.119C231.686 378.712 228.814 377.931 225.963 375.776C222.459 373.126 220.894 369.894 221.269 366.08C221.644 362.266 223.381 358.64 226.482 355.204C228.601 352.855 231.066 350.95 233.876 349.49C236.687 348.03 239.46 347.309 242.194 347.328Z" fill="#DB79E2"/>
<path d="M319.655 318.057L315.466 314.711L315.284 314.902C316.022 316.836 316.042 319.056 315.347 321.562C314.645 323.99 313.284 326.264 311.264 328.385C308.475 331.311 305.125 333.304 301.213 334.363C297.297 335.343 293.599 334.443 290.12 331.664C288.243 330.165 287.022 328.443 286.457 326.498C285.887 324.474 285.839 322.494 286.314 320.558C286.788 318.621 287.726 316.495 289.128 314.178C290.524 311.783 291.982 309.661 293.502 307.812C295.062 305.921 296.873 303.894 298.934 301.731L298.11 301.073C296.187 299.537 294.073 299.006 291.767 299.48C289.461 299.954 287.338 301.209 285.398 303.245C282.327 306.468 280.938 310.252 281.233 314.595L272.462 314.536C272.297 308.279 274.66 302.585 279.55 297.453C282.056 294.824 284.59 292.926 287.152 291.761C289.708 290.516 292.161 289.973 294.51 290.131C296.813 290.252 298.924 290.743 300.844 291.605C302.759 292.387 304.609 293.491 306.394 294.917L326.445 310.932L319.655 318.057ZM305.663 307.106L304.496 306.173L302.859 307.891C295.462 315.652 293.595 320.996 297.258 323.921C298.722 325.091 300.26 325.423 301.871 324.917C303.522 324.368 305.055 323.352 306.47 321.867C308.935 319.28 310.082 316.723 309.911 314.196C309.734 311.59 308.318 309.226 305.663 307.106Z" fill="#FDEA6B"/>
<path d="M338.196 299.776L306.367 272.094L313.96 264.777L345.789 292.458L338.196 299.776ZM299.257 265.331C297.356 265.379 295.765 264.846 294.483 263.731C293.201 262.616 292.56 261.208 292.56 259.506C292.515 257.766 293.168 256.245 294.518 254.944C295.91 253.603 297.534 252.889 299.39 252.802C301.245 252.635 302.857 253.148 304.228 254.34C305.598 255.532 306.262 256.999 306.22 258.741C306.176 260.405 305.458 261.907 304.066 263.249C302.716 264.55 301.113 265.244 299.257 265.331Z" fill="#FDEA6B"/>
<path d="M378.831 211.406L406.246 243.464L398.103 249.3L393.705 244.158L393.562 244.26C394.2 246.532 394.056 248.969 393.132 251.57C392.217 254.093 390.546 256.225 388.117 257.966C383.927 260.969 379.694 261.992 375.419 261.034C371.153 259.998 367.478 257.677 364.394 254.07L347.26 234.034L355.831 227.89L371.024 245.656C375.897 251.355 380.477 252.669 384.763 249.597C387.334 247.754 388.587 245.492 388.521 242.81C388.417 240.084 387.356 237.541 385.338 235.181L370.26 217.549L378.831 211.406Z" fill="#DB79E2"/>
<path d="M430.789 229.134L398.22 197.239L408.736 192.775L430.485 216.309L430.647 216.24L425.319 185.735L435.673 181.339L457.745 204.736L457.907 204.667L452.498 174.197L462.609 169.904L468.242 213.235L458.373 217.424L436.214 194.826L436.052 194.895L440.658 224.945L430.789 229.134Z" fill="#DB79E2"/>
<path d="M491.289 185.03C490.139 178.629 491.374 173.083 494.994 168.393C498.603 163.645 503.623 160.786 510.054 159.818C516.484 158.85 522.24 160.086 527.32 163.525C532.39 166.908 535.5 171.799 536.65 178.2C537.81 184.658 536.562 190.294 532.905 195.109C529.306 199.915 524.32 202.798 517.947 203.757C511.575 204.717 505.814 203.452 500.665 199.963C495.574 196.466 492.449 191.488 491.289 185.03ZM503.34 173.621C501.731 176.587 501.248 179.858 501.89 183.433C502.533 187.008 504.14 189.994 506.712 192.39C509.285 194.786 512.512 195.692 516.393 195.108C520.275 194.523 523.015 192.719 524.614 189.695C526.212 186.671 526.691 183.371 526.048 179.796C525.406 176.221 523.804 173.264 521.242 170.926C518.68 168.587 515.458 167.71 511.576 168.294C507.695 168.879 504.95 170.654 503.34 173.621Z" fill="#DB79E2"/>
<path d="M556.848 198.146L557.326 155.967L567.431 156.063L567.352 163.093L567.528 163.094C568.728 160.587 570.42 158.611 572.604 157.167C574.789 155.664 577.229 154.926 579.924 154.951C580.92 154.961 581.768 155.057 582.469 155.239L582.36 164.905C581.191 164.601 580.109 164.444 579.113 164.435C577.297 164.418 575.683 164.695 574.27 165.268C572.857 165.84 571.736 166.562 570.906 167.433C570.134 168.304 569.479 169.294 568.939 170.402C568.458 171.452 568.125 172.416 567.939 173.293C567.754 174.17 567.657 174.96 567.649 175.663L567.393 198.246L556.848 198.146Z" fill="#DB79E2"/>
<path d="M646.769 140.125L635.751 205.641L625.831 204.243L626.88 198.003L626.706 197.979C624.915 200.151 622.603 201.718 619.769 202.679C616.945 203.582 614.053 203.825 611.095 203.408C604.887 202.533 600.258 199.692 597.206 194.885C594.212 190.086 593.24 184.567 594.289 178.328C595.339 172.088 598.099 167.154 602.569 163.526C607.097 159.906 612.32 158.513 618.237 159.347C624.097 160.173 628.402 162.998 631.154 167.821L631.415 167.858L636.327 138.653L646.769 140.125ZM609.612 170.906C607.077 173.269 605.508 176.242 604.906 179.824C604.303 183.406 604.818 186.702 606.45 189.712C608.139 192.73 610.87 194.505 614.64 195.036C618.295 195.551 621.482 194.611 624.201 192.214C626.921 189.818 628.572 186.886 629.155 183.42C629.738 179.953 629.131 176.674 627.335 173.582C625.539 170.49 622.813 168.686 619.159 168.171C615.388 167.639 612.206 168.551 609.612 170.906Z" fill="#DB79E2"/>
<path d="M692.229 180.561L683.862 184.735C683.259 183.26 682.285 181.905 680.941 180.669C679.596 179.433 678.014 178.59 676.194 178.141C674.374 177.692 672.702 177.672 671.179 178.079C669.712 178.501 668.764 179.443 668.334 180.904C667.92 182.309 668.268 183.51 669.378 184.507C670.488 185.505 672.576 186.804 675.644 188.404C677.291 189.233 678.715 190.097 679.914 190.995C681.13 191.838 682.289 192.877 683.389 194.113C684.546 195.364 685.28 196.81 685.589 198.454C685.955 200.112 685.865 201.868 685.319 203.723C683.962 208.331 681.34 211.331 677.453 212.723C673.622 214.129 669.233 214.221 664.284 213C661.042 212.2 658.087 210.838 655.42 208.914C652.753 206.99 650.759 204.75 649.437 202.193L658.014 197.618C659.637 201.636 662.639 204.185 667.019 205.266C668.782 205.701 670.434 205.686 671.974 205.222C673.514 204.758 674.523 203.711 675.003 202.081C675.466 200.508 675.095 199.18 673.888 198.099C672.754 196.975 670.568 195.592 667.33 193.949C663.898 192.137 661.312 190.143 659.574 187.966C657.909 185.747 657.581 182.923 658.59 179.495C659.831 175.279 662.367 172.469 666.197 171.063C670.028 169.657 674.19 169.509 678.684 170.617C681.755 171.375 684.527 172.632 687 174.387C689.473 176.143 691.216 178.201 692.229 180.561Z" fill="#DB79E2"/>
<path d="M753.17 238.28L755.255 233.341L755.006 233.254C753.283 234.629 751.05 235.483 748.307 235.816C745.642 236.114 742.929 235.774 740.167 234.797C736.356 233.449 733.314 231.257 731.041 228.22C728.846 225.148 728.615 221.561 730.346 217.459C731.28 215.246 732.641 213.525 734.429 212.297C736.295 211.034 738.278 210.246 740.377 209.934C742.477 209.622 744.911 209.646 747.679 210.005C750.526 210.329 753.115 210.811 755.448 211.45C757.836 212.109 760.439 212.936 763.256 213.933L763.666 212.961C764.622 210.694 764.507 208.637 763.318 206.79C762.13 204.943 760.21 203.55 757.559 202.613C753.362 201.128 749.117 201.332 744.827 203.227L742.185 195.499C748.445 192.999 754.917 192.931 761.6 195.295C765.024 196.506 767.719 198.018 769.684 199.829C771.727 201.607 773.03 203.557 773.594 205.679C774.181 207.748 774.336 209.788 774.059 211.799C773.859 213.775 773.315 215.816 772.427 217.921L762.449 241.562L753.17 238.28ZM759.907 221.867L760.488 220.491L758.251 219.699C748.143 216.124 742.178 216.495 740.356 220.814C739.627 222.541 739.766 224.017 740.773 225.241C741.834 226.485 743.332 227.449 745.265 228.133C748.634 229.325 751.567 229.37 754.063 228.268C756.638 227.131 758.586 224.998 759.907 221.867Z" fill="#FDEA6B"/>
<path d="M779.09 247.646L796.261 209.117L806.14 212.807L788.969 251.336L779.09 247.646ZM800.679 200.281C799.996 198.653 800.001 197.062 800.692 195.511C801.384 193.959 802.584 192.846 804.292 192.174C806.024 191.447 807.768 191.412 809.525 192.068C811.336 192.745 812.595 193.87 813.301 195.445C814.086 196.987 814.109 198.587 813.37 200.246C812.631 201.905 811.38 203.06 809.617 203.713C807.932 204.332 806.184 204.303 804.373 203.627C802.617 202.971 801.386 201.856 800.679 200.281Z" fill="#FDEA6B"/>
<path d="M879.326 241.365L861.359 279.529L852.04 275.852L854.923 269.73L854.759 269.665C852.884 271.314 850.493 272.413 847.585 272.963C844.756 273.481 841.952 273.191 839.173 272.095C834.377 270.203 831.452 267.289 830.397 263.353C829.421 259.385 829.944 255.255 831.965 250.961L843.194 227.109L853.004 230.979L843.047 252.128C839.853 258.913 840.709 263.273 845.613 265.208C848.556 266.37 851.292 266.255 853.821 264.864C856.374 263.42 858.312 261.294 859.635 258.485L869.517 237.494L879.326 241.365Z" fill="#DB79E2"/>
<path d="M885.455 289.104L888.909 245.443L899.608 249.448L895.513 280.131L895.678 280.193L916.481 255.762L927.016 259.705L923.25 290.511L923.414 290.573L944.135 266.111L954.423 269.962L923.562 303.365L913.521 299.607L916.589 269.288L916.424 269.227L895.496 292.862L885.455 289.104Z" fill="#DB79E2"/>
<path d="M952.739 291.636C955.017 285.545 958.971 281.236 964.601 278.709C970.251 276.128 976.178 275.809 982.384 277.755C988.589 279.7 993.059 283.278 995.795 288.488C998.551 293.644 998.79 299.267 996.511 305.358C994.213 311.504 990.2 315.886 984.473 318.505C978.803 321.141 972.893 321.496 966.744 319.568C960.594 317.64 956.134 314.035 953.363 308.752C950.648 303.487 950.44 297.781 952.739 291.636ZM969.313 286.9C966.357 288.793 964.242 291.441 962.969 294.843C961.697 298.245 961.584 301.551 962.632 304.761C963.68 307.971 966.077 310.163 969.822 311.337C973.568 312.511 976.929 312.124 979.906 310.176C982.884 308.228 985.008 305.553 986.281 302.151C987.554 298.749 987.656 295.47 986.587 292.315C985.519 289.16 983.112 286.995 979.366 285.821C975.621 284.647 972.27 285.006 969.313 286.9Z" fill="#DB79E2"/>
<path d="M1001.33 328.658L1013.09 288.15L1022.91 290.539L1020.95 297.291L1021.12 297.332C1022.97 295.19 1025.14 293.672 1027.66 292.778C1030.19 291.827 1032.76 291.671 1035.38 292.308C1036.35 292.544 1037.15 292.829 1037.78 293.164L1035.09 302.447C1034.03 301.889 1033.02 301.492 1032.05 301.256C1030.29 300.827 1028.64 300.727 1027.11 300.957C1025.58 301.188 1024.3 301.628 1023.25 302.278C1022.27 302.942 1021.36 303.746 1020.54 304.69C1019.79 305.592 1019.21 306.444 1018.79 307.246C1018.38 308.049 1018.07 308.788 1017.88 309.463L1011.58 331.152L1001.33 328.658Z" fill="#DB79E2"/>
<path d="M1086.81 277.215L1075.77 342.727L1065.85 341.325L1066.9 335.086L1066.73 335.062C1064.94 337.234 1062.62 338.799 1059.79 339.759C1056.96 340.661 1054.07 340.903 1051.11 340.485C1044.91 339.608 1040.28 336.766 1037.23 331.958C1034.24 327.158 1033.27 321.639 1034.32 315.4C1035.37 309.161 1038.13 304.228 1042.6 300.601C1047.13 296.982 1052.36 295.591 1058.27 296.427C1064.13 297.255 1068.44 300.081 1071.19 304.906L1071.45 304.943L1076.37 275.74L1086.81 277.215ZM1049.64 307.984C1047.11 310.346 1045.54 313.318 1044.93 316.9C1044.33 320.482 1044.84 323.778 1046.47 326.788C1048.16 329.806 1050.89 331.582 1054.66 332.115C1058.32 332.631 1061.5 331.692 1064.22 329.296C1066.94 326.901 1068.6 323.97 1069.18 320.503C1069.77 317.037 1069.16 313.758 1067.37 310.665C1065.57 307.572 1062.85 305.768 1059.19 305.251C1055.42 304.719 1052.24 305.629 1049.64 307.984Z" fill="#DB79E2"/>
<path d="M1116.34 303.874L1109.89 310.295C1108.81 309.062 1107.42 308.052 1105.73 307.263C1104.04 306.475 1102.25 306.131 1100.38 306.232C1098.51 306.334 1096.92 306.8 1095.63 307.633C1094.39 308.463 1093.82 309.638 1093.92 311.158C1094.01 312.619 1094.75 313.665 1096.14 314.293C1097.54 314.922 1099.95 315.554 1103.4 316.189C1105.24 316.501 1106.88 316.911 1108.32 317.42C1109.76 317.87 1111.21 318.525 1112.68 319.384C1114.2 320.241 1115.39 321.409 1116.25 322.888C1117.16 324.363 1117.69 326.066 1117.81 327.995C1118.12 332.789 1116.68 336.417 1113.49 338.877C1110.36 341.334 1106.25 342.7 1101.16 342.975C1097.83 343.155 1094.57 342.715 1091.39 341.655C1088.21 340.595 1085.56 339.037 1083.43 336.981L1089.94 330.117C1092.86 333.479 1096.57 335.039 1101.08 334.795C1102.89 334.697 1104.44 334.203 1105.74 333.312C1107.03 332.42 1107.62 331.127 1107.51 329.432C1107.41 327.795 1106.6 326.636 1105.09 325.955C1103.63 325.212 1101.09 324.528 1097.47 323.902C1093.61 323.172 1090.48 322.021 1088.09 320.449C1085.75 318.815 1084.47 316.215 1084.24 312.649C1083.96 308.264 1085.38 304.843 1088.51 302.386C1091.64 299.929 1095.51 298.575 1100.13 298.325C1103.29 298.155 1106.34 298.547 1109.28 299.503C1112.22 300.459 1114.57 301.916 1116.34 303.874Z" fill="#DB79E2"/>
<path d="M1185.61 324.158L1183.41 319.27L1183.17 319.363C1182.95 321.445 1181.97 323.471 1180.23 325.441C1178.52 327.337 1176.29 328.803 1173.55 329.837C1169.77 331.265 1165.91 331.597 1161.98 330.833C1158.07 329.995 1155.2 327.546 1153.37 323.486C1152.39 321.296 1152.08 319.193 1152.46 317.176C1152.86 315.086 1153.71 313.266 1155 311.716C1156.29 310.167 1158.07 308.649 1160.36 307.163C1162.67 305.603 1164.91 304.318 1167.08 303.31C1169.31 302.28 1171.83 301.238 1174.62 300.182L1174.19 299.221C1173.18 296.977 1171.55 295.562 1169.29 294.975C1167.04 294.388 1164.6 294.591 1161.97 295.584C1157.8 297.157 1154.88 299.982 1153.18 304.058L1145.45 300.133C1148.12 294.376 1152.77 290.246 1159.4 287.742C1162.8 286.459 1165.89 285.854 1168.68 285.925C1171.5 285.923 1173.92 286.512 1175.92 287.692C1177.9 288.818 1179.55 290.196 1180.86 291.826C1182.2 293.382 1183.34 295.202 1184.28 297.285L1194.82 320.681L1185.61 324.158ZM1178.16 308.035L1177.55 306.672L1175.33 307.511C1165.3 311.298 1161.24 315.328 1163.17 319.601C1163.94 321.31 1165.15 322.29 1166.8 322.542C1168.51 322.772 1170.32 322.525 1172.24 321.801C1175.58 320.539 1177.75 318.722 1178.73 316.35C1179.75 313.905 1179.56 311.133 1178.16 308.035Z" fill="#FFCF77"/>
<path d="M1208.66 313.93L1185.55 278.641L1194.79 273.567L1217.9 308.856L1208.66 313.93ZM1180.54 270.195C1178.71 269.737 1177.32 268.797 1176.39 267.376C1175.46 265.954 1175.22 264.419 1175.68 262.77C1176.1 261.071 1177.14 259.771 1178.78 258.869C1180.48 257.939 1182.23 257.678 1184.03 258.088C1185.85 258.419 1187.26 259.345 1188.26 260.865C1189.25 262.384 1189.5 263.982 1188.99 265.66C1188.5 267.26 1187.41 268.526 1185.71 269.456C1184.07 270.358 1182.35 270.604 1180.54 270.195Z" fill="#FFCF77"/>
<path d="M1249.54 234.52L1278.27 265.402L1270.37 271.563L1265.76 266.609L1265.62 266.717C1266.36 268.959 1266.31 271.398 1265.5 274.033C1264.69 276.589 1263.1 278.786 1260.75 280.623C1256.68 283.794 1252.49 284.988 1248.18 284.208C1243.87 283.348 1240.1 281.181 1236.87 277.707L1218.91 258.406L1227.22 251.921L1243.15 269.035C1248.26 274.525 1252.89 275.649 1257.05 272.406C1259.54 270.461 1260.7 268.151 1260.52 265.476C1260.31 262.759 1259.14 260.263 1257.03 257.99L1241.22 241.005L1249.54 234.52Z" fill="#DB79E2"/>
<path d="M1295.93 249.94L1253.5 232.539L1261.71 224.593L1290.88 238.267L1291 238.145L1274.65 212.062L1282.73 204.238L1312.15 217.668L1312.28 217.546L1295.86 191.524L1303.76 183.884L1325.17 221.64L1317.46 229.097L1288.26 216.433L1288.13 216.555L1303.64 242.483L1295.93 249.94Z" fill="#DB79E2"/>
<path d="M1322.76 193.266C1317.64 189.245 1314.98 184.364 1314.77 178.625C1314.51 172.849 1316.6 167.591 1321.05 162.85C1325.5 158.109 1330.87 155.423 1337.14 154.792C1343.37 154.125 1349.04 155.802 1354.15 159.824C1359.31 163.882 1362.02 168.838 1362.29 174.693C1362.6 180.504 1360.55 185.759 1356.13 190.458C1351.72 195.156 1346.34 197.823 1339.97 198.461C1333.65 199.056 1327.91 197.324 1322.76 193.266ZM1324.8 177.275C1325.47 180.479 1327.24 183.204 1330.09 185.45C1332.95 187.696 1336.18 188.902 1339.79 189.067C1343.39 189.233 1346.54 187.885 1349.23 185.023C1351.92 182.161 1352.9 179.11 1352.18 175.87C1351.46 172.63 1349.67 169.886 1346.82 167.64C1343.96 165.394 1340.75 164.206 1337.19 164.077C1333.63 163.948 1330.51 165.314 1327.82 168.176C1325.13 171.037 1324.13 174.07 1324.8 177.275Z" fill="#DB79E2"/>
<path d="M1378.55 164.656L1345.31 138.678L1352.21 131.287L1357.75 135.617L1357.87 135.488C1356.68 133.08 1356.25 130.632 1356.57 128.145C1356.85 125.622 1357.91 123.375 1359.75 121.404C1360.43 120.676 1361.08 120.108 1361.7 119.703L1369.31 125.656C1368.28 126.332 1367.43 127.035 1366.75 127.763C1365.51 129.091 1364.64 130.45 1364.14 131.839C1363.65 133.228 1363.46 134.493 1363.6 135.634C1363.77 136.732 1364.11 137.817 1364.63 138.888C1365.14 139.88 1365.68 140.711 1366.26 141.381C1366.83 142.051 1367.39 142.602 1367.95 143.035L1385.74 156.944L1378.55 164.656Z" fill="#DB79E2"/>
<path d="M1378.65 68.2469L1430.67 109.565L1423.78 116.837L1418.83 112.902L1418.71 113.029C1419.62 115.544 1419.7 118.177 1418.94 120.929C1418.13 123.644 1416.7 126.086 1414.65 128.255C1410.34 132.805 1405.17 135.114 1399.16 135.182C1393.19 135.208 1387.72 133.253 1382.77 129.318C1377.81 125.383 1374.99 120.721 1374.31 115.334C1373.67 109.904 1375.4 105.02 1379.51 100.682C1383.58 96.3871 1388.54 94.3301 1394.4 94.5112L1394.58 94.3198L1371.39 75.9016L1378.65 68.2469ZM1384.89 113.336C1385.55 116.543 1387.3 119.276 1390.14 121.535C1392.99 123.794 1396.21 125.015 1399.82 125.196C1403.47 125.335 1406.6 124.023 1409.22 121.259C1411.76 118.579 1412.73 115.554 1412.15 112.183C1411.57 108.812 1409.9 106.034 1407.14 103.848C1404.39 101.662 1401.13 100.523 1397.35 100.433C1393.58 100.342 1390.42 101.637 1387.89 104.316C1385.27 107.08 1384.27 110.087 1384.89 113.336Z" fill="#DB79E2"/>
<path d="M1435.05 54.986L1434.62 63.7179C1432.93 63.5488 1431.16 63.7371 1429.31 64.2829C1427.46 64.8288 1425.86 65.7463 1424.5 67.0356C1423.14 68.3249 1422.25 69.6852 1421.84 71.1166C1421.48 72.5076 1421.87 73.7078 1423.01 74.7172C1424.1 75.6877 1425.41 75.9426 1426.91 75.4817C1428.41 75.0209 1430.71 73.8938 1433.79 72.1005C1435.41 71.1232 1436.96 70.3452 1438.42 69.7665C1439.83 69.1489 1441.4 68.6672 1443.12 68.3213C1444.89 67.9352 1446.62 67.9849 1448.31 68.4705C1450.05 68.9158 1451.64 69.779 1453.09 71.0601C1456.69 74.2434 1458.13 77.7403 1457.42 81.5509C1456.75 85.3212 1454.56 88.959 1450.86 92.4642C1448.44 94.7608 1445.64 96.5691 1442.46 97.8893C1439.28 99.2095 1436.16 99.8363 1433.09 99.7698L1433.26 90.6862C1437.85 91.1621 1441.78 89.8489 1445.06 86.7465C1446.38 85.4975 1447.22 84.1379 1447.58 82.6678C1447.95 81.1976 1447.49 79.8996 1446.22 78.7738C1444.99 77.6868 1443.56 77.3946 1441.93 77.8972C1440.29 78.3207 1437.87 79.4895 1434.66 81.4037C1431.19 83.4015 1427.99 84.6231 1425.06 85.0686C1422.13 85.435 1419.33 84.4342 1416.65 82.0661C1413.36 79.1545 1412.05 75.8136 1412.72 72.0433C1413.39 68.273 1415.41 64.7964 1418.77 61.6135C1421.06 59.4378 1423.67 57.7316 1426.59 56.495C1429.5 55.2584 1432.33 54.7553 1435.05 54.986Z" fill="#DB79E2"/>
</svg>
