<svg width="420" height="112" viewBox="0 0 420 112" fill="none" xmlns="http://www.w3.org/2000/svg">
<rect width="420" height="112" rx="56" fill="#1A1A1A"/>
<rect width="420" height="112" rx="56" fill="#F2ECE7"/>
<rect x="18" y="10" width="384" height="92" rx="46" stroke="#1A1A1A" stroke-width="4" stroke-linecap="round" stroke-dasharray="40 40"/>
<path d="M106.555 51V28.344H112.027V46.328H119.163V28.344L124.635 28.344V46.328H131.771V28.344H137.243V51H106.555ZM142.93 51V28.344H148.306V37.56H148.402L156.498 28.344H163.346L153.586 38.776L163.922 51H156.786L148.37 40.568H148.306V51H142.93ZM176.663 51.608C173.1 51.608 170.156 50.4987 167.831 48.28C165.505 46.04 164.343 43.1387 164.343 39.576C164.343 35.992 165.495 33.1227 167.799 30.968C170.124 28.8133 173.079 27.736 176.663 27.736C180.268 27.736 183.223 28.8133 185.527 30.968C187.852 33.1227 189.015 35.992 189.015 39.576C189.015 43.1387 187.852 46.04 185.527 48.28C183.201 50.4987 180.247 51.608 176.663 51.608ZM171.991 44.632C173.207 45.9547 174.764 46.616 176.663 46.616C178.561 46.616 180.119 45.9547 181.335 44.632C182.551 43.3093 183.159 41.624 183.159 39.576C183.159 37.5707 182.551 35.9173 181.335 34.616C180.119 33.3147 178.561 32.664 176.663 32.664C174.764 32.664 173.207 33.3147 171.991 34.616C170.796 35.9173 170.199 37.5707 170.199 39.576C170.199 41.624 170.796 43.3093 171.991 44.632ZM194.016 51.224C192.715 51.224 191.67 51.1067 190.88 50.872L191.328 46.328C191.755 46.4773 192.203 46.552 192.672 46.552C193.547 46.552 194.251 46.2853 194.784 45.752C195.339 45.2187 195.776 44.184 196.096 42.648C196.438 41.0907 196.608 38.9893 196.608 36.344V28.344H213.888V51H208.416V32.984L201.856 32.984V36.12C201.856 41.56 201.238 45.4427 200 47.768C198.763 50.072 196.768 51.224 194.016 51.224ZM216.771 51L226.275 28.344H231.587L240.995 51H234.915L233.155 46.552H224.387L222.723 51H216.771ZM225.955 42.168H231.651L228.835 34.392L225.955 42.168ZM243.867 51V28.344H251.643L256.795 42.872H256.923L261.851 28.344H269.755V51H264.411L264.539 34.968H264.443L258.555 51H254.715L248.987 34.968H248.891L249.019 51H243.867ZM284.43 51V28.344H289.838V43.256H289.966L298.67 28.344H304.43V51H299.022V36.44H298.926L290.286 51H284.43ZM44.6485 83V60.344H64.2965V83H58.8245V64.984H50.1205V83H44.6485ZM69.961 83V60.344H78.281C80.969 60.344 83.113 60.8987 84.713 62.008C86.3343 63.096 87.145 64.8667 87.145 67.32C87.145 68.984 86.7077 70.3707 85.833 71.48C84.9797 72.5893 83.9023 73.368 82.601 73.816C81.321 74.2427 79.8383 74.456 78.153 74.456H75.433V83H69.961ZM75.433 70.104H77.737C80.361 70.104 81.673 69.1867 81.673 67.352C81.673 65.624 80.393 64.76 77.833 64.76H75.433V70.104ZM91.4298 83V60.344H106.662V64.984H96.7098V69.24H106.118V73.624H96.7098V78.328H107.238V83H91.4298ZM111.867 83V60.344H131.515V83H126.043V64.984H117.339V83H111.867ZM148.444 83.608C144.881 83.608 141.937 82.4987 139.612 80.28C137.286 78.04 136.124 75.1387 136.124 71.576C136.124 67.992 137.276 65.1227 139.58 62.968C141.905 60.8133 144.86 59.736 148.444 59.736C152.049 59.736 155.004 60.8133 157.308 62.968C159.633 65.1227 160.796 67.992 160.796 71.576C160.796 75.1387 159.633 78.04 157.308 80.28C154.982 82.4987 152.028 83.608 148.444 83.608ZM143.772 76.632C144.988 77.9547 146.545 78.616 148.444 78.616C150.342 78.616 151.9 77.9547 153.116 76.632C154.332 75.3093 154.94 73.624 154.94 71.576C154.94 69.5707 154.332 67.9173 153.116 66.616C151.9 65.3147 150.342 64.664 148.444 64.664C146.545 64.664 144.988 65.3147 143.772 66.616C142.577 67.9173 141.98 69.5707 141.98 71.576C141.98 73.624 142.577 75.3093 143.772 76.632ZM162.822 87.832V78.328H164.806C166.854 75.7893 167.878 71.7147 167.878 66.104V60.344L185.03 60.344V78.328H187.526V87.832H182.726V83H167.622V87.832H162.822ZM170.726 78.328H179.558V64.984H173.158V66.808C173.158 71.9493 172.347 75.7893 170.726 78.328ZM188.708 83L198.212 60.344H203.524L212.932 83H206.852L205.092 78.552H196.324L194.66 83H188.708ZM197.892 74.168H203.588L200.772 66.392L197.892 74.168ZM215.805 83V60.344H224.829C225.789 60.344 226.685 60.44 227.517 60.632C228.37 60.8027 229.191 61.1013 229.981 61.528C230.77 61.9333 231.389 62.5413 231.837 63.352C232.306 64.1413 232.541 65.08 232.541 66.168C232.541 67.384 232.21 68.408 231.549 69.24C230.887 70.072 229.981 70.68 228.829 71.064V71.128C230.194 71.3627 231.303 71.9493 232.157 72.888C233.031 73.8053 233.469 74.9787 233.469 76.408C233.469 77.5813 233.223 78.616 232.733 79.512C232.263 80.3867 231.602 81.0693 230.749 81.56C229.917 82.0507 228.999 82.4133 227.997 82.648C227.015 82.8827 225.959 83 224.829 83H215.805ZM221.085 78.584H224.157C226.717 78.584 227.997 77.688 227.997 75.896C227.997 74.232 226.706 73.4 224.125 73.4H221.085V78.584ZM221.085 69.368H224.029C225.053 69.368 225.842 69.1547 226.397 68.728C226.973 68.3013 227.261 67.6933 227.261 66.904C227.261 65.432 226.098 64.696 223.773 64.696H221.085V69.368ZM235.302 83L244.806 60.344H250.118L259.526 83H253.446L251.686 78.552H242.918L241.254 83H235.302ZM244.486 74.168H250.182L247.366 66.392L244.486 74.168ZM264.716 83V65.016H258.316V60.344H276.588V65.016H270.188V83H264.716ZM280.086 83V60.344H295.318V64.984H285.366V69.24H294.774V73.624H285.366V78.328H295.894V83H280.086ZM301.548 83.224C300.246 83.224 299.201 83.1067 298.412 82.872L298.86 78.328C299.286 78.4773 299.734 78.552 300.204 78.552C301.078 78.552 301.782 78.2853 302.316 77.752C302.87 77.2187 303.308 76.184 303.628 74.648C303.969 73.0907 304.14 70.9893 304.14 68.344V60.344H321.42V83H315.948V64.984H309.388V68.12C309.388 73.56 308.769 77.4427 307.532 79.768C306.294 82.072 304.3 83.224 301.548 83.224ZM325.326 83L331.022 73.752C329.614 73.2613 328.515 72.4613 327.726 71.352C326.937 70.2427 326.542 68.8987 326.542 67.32C326.542 64.888 327.363 63.1173 329.006 62.008C330.67 60.8987 332.825 60.344 335.47 60.344H343.79V83H338.318V74.584H336.398L331.63 83H325.326ZM335.95 70.424H338.318V64.696H335.758C333.198 64.696 331.918 65.6347 331.918 67.512C331.918 68.5147 332.291 69.2507 333.038 69.72C333.785 70.1893 334.755 70.424 335.95 70.424ZM349.461 83V60.344H357.237L362.389 74.872H362.517L367.445 60.344H375.349V83H370.005L370.133 66.968H370.037L364.149 83H360.309L354.581 66.968H354.485L354.613 83H349.461Z" fill="#1A1A1A"/>
</svg>
