<svg width="50" height="50" viewBox="0 0 50 50" fill="none" xmlns="http://www.w3.org/2000/svg">
<path d="M27.1686 6.37294C27.6647 6.58227 28.0121 7.02886 28.1012 7.54778L28.1237 7.8125V42.1875C28.1237 42.8169 27.746 43.385 27.1656 43.6284C26.668 43.8371 26.1048 43.7723 25.6713 43.4719L25.4662 43.3022L16.3211 34.3178H10.9363C8.49975 34.3178 6.49738 32.4587 6.27024 30.0818L6.24878 29.6304V20.2898C6.24878 17.8533 8.10782 15.8509 10.4848 15.6237L10.9363 15.6023H16.325L25.471 6.69328C25.921 6.2549 26.5898 6.12872 27.1686 6.37294ZM36.6792 9.55994L36.9496 9.74369L37.2552 10.008C37.4518 10.1846 37.7231 10.4405 38.0443 10.7741C38.6859 11.4403 39.5315 12.422 40.3752 13.7071C42.064 16.2793 43.759 20.0917 43.759 25.0127C43.759 29.9339 42.0637 33.7406 40.374 36.3072C39.5299 37.5894 38.684 38.5681 38.0421 39.2322L37.6007 39.6726L37.0171 40.2006L36.914 40.2853C36.2374 40.8213 35.2524 40.7091 34.7165 40.0328C34.2412 39.4328 34.2773 38.5916 34.7637 38.0352L35.1674 37.6681C35.3131 37.5378 35.5302 37.3344 35.7952 37.0603C36.3262 36.5109 37.044 35.6825 37.764 34.5891C39.2018 32.4044 40.634 29.186 40.634 25.0127C40.634 20.839 39.2018 17.6138 37.7627 15.4222C37.1627 14.5081 36.5641 13.7781 36.0735 13.2408L35.5448 12.69L34.9687 12.1606C34.2946 11.6229 34.1818 10.6391 34.719 9.96431C35.1968 9.36423 36.0264 9.20943 36.6792 9.55994ZM33.5566 15.8096L33.8677 16.0276L34.2854 16.4205L34.4543 16.5975C34.809 16.9801 35.2665 17.5405 35.7196 18.2857C36.6306 19.7842 37.5121 22.0137 37.5121 24.9955C37.5121 27.9771 36.6306 30.209 35.7202 31.7097C35.2677 32.4559 34.8102 33.0178 34.4559 33.4013L34.1385 33.7271L33.9188 33.9303L33.7946 34.0356L33.5962 34.1257C33.1825 34.2914 32.215 34.5615 31.5987 33.7903C31.1222 33.1942 31.1529 32.3564 31.6328 31.7978L32.053 31.394L32.1606 31.2806C32.3934 31.0288 32.7187 30.6327 33.0484 30.089C33.7034 29.0094 34.3871 27.3315 34.3871 24.9955C34.3871 22.6596 33.7034 20.9851 33.0493 19.9091C32.802 19.5025 32.5574 19.179 32.3526 18.937L32.0549 18.6092L31.8409 18.4061C31.1699 17.871 31.0596 16.8897 31.5965 16.2148C32.074 15.6145 32.9036 15.4594 33.5566 15.8096Z" fill="#1A1A1A"/>
<path d="M27.1686 6.37294C27.6647 6.58227 28.0121 7.02886 28.1012 7.54778L28.1237 7.8125V42.1875C28.1237 42.8169 27.746 43.385 27.1656 43.6284C26.668 43.8371 26.1048 43.7723 25.6713 43.4719L25.4662 43.3022L16.3211 34.3178H10.9363C8.49975 34.3178 6.49738 32.4587 6.27024 30.0818L6.24878 29.6304V20.2898C6.24878 17.8533 8.10782 15.8509 10.4848 15.6237L10.9363 15.6023H16.325L25.471 6.69328C25.921 6.2549 26.5898 6.12872 27.1686 6.37294ZM36.6792 9.55994L36.9496 9.74369L37.2552 10.008C37.4518 10.1846 37.7231 10.4405 38.0443 10.7741C38.6859 11.4403 39.5315 12.422 40.3752 13.7071C42.064 16.2793 43.759 20.0917 43.759 25.0127C43.759 29.9339 42.0637 33.7406 40.374 36.3072C39.5299 37.5894 38.684 38.5681 38.0421 39.2322L37.6007 39.6726L37.0171 40.2006L36.914 40.2853C36.2374 40.8213 35.2524 40.7091 34.7165 40.0328C34.2412 39.4328 34.2773 38.5916 34.7637 38.0352L35.1674 37.6681C35.3131 37.5378 35.5302 37.3344 35.7952 37.0603C36.3262 36.5109 37.044 35.6825 37.764 34.5891C39.2018 32.4044 40.634 29.186 40.634 25.0127C40.634 20.839 39.2018 17.6138 37.7627 15.4222C37.1627 14.5081 36.5641 13.7781 36.0735 13.2408L35.5448 12.69L34.9687 12.1606C34.2946 11.6229 34.1818 10.6391 34.719 9.96431C35.1968 9.36423 36.0264 9.20943 36.6792 9.55994ZM33.5566 15.8096L33.8677 16.0276L34.2854 16.4205L34.4543 16.5975C34.809 16.9801 35.2665 17.5405 35.7196 18.2857C36.6306 19.7842 37.5121 22.0137 37.5121 24.9955C37.5121 27.9771 36.6306 30.209 35.7202 31.7097C35.2677 32.4559 34.8102 33.0178 34.4559 33.4013L34.1385 33.7271L33.9188 33.9303L33.7946 34.0356L33.5962 34.1257C33.1825 34.2914 32.215 34.5615 31.5987 33.7903C31.1222 33.1942 31.1529 32.3564 31.6328 31.7978L32.053 31.394L32.1606 31.2806C32.3934 31.0288 32.7187 30.6327 33.0484 30.089C33.7034 29.0094 34.3871 27.3315 34.3871 24.9955C34.3871 22.6596 33.7034 20.9851 33.0493 19.9091C32.802 19.5025 32.5574 19.179 32.3526 18.937L32.0549 18.6092L31.8409 18.4061C31.1699 17.871 31.0596 16.8897 31.5965 16.2148C32.074 15.6145 32.9036 15.4594 33.5566 15.8096Z" fill="#F2ECE7"/>
</svg>
