<svg width="300" height="268" viewBox="0 0 300 268" fill="none" xmlns="http://www.w3.org/2000/svg">
<g clip-path="url(#clip0_41_5648)">
<path d="M125.813 1.5C168.862 1.5 212.131 14.0631 244.598 37.3223C277.037 60.5616 298.654 94.4353 298.654 137.182C298.654 179.2 276.718 211.602 244.11 233.561C211.469 255.54 168.189 267 125.813 267C55.7029 267 1.5 207.459 1.5 137.182C1.5 65.1444 54.1135 1.5 125.813 1.5Z" fill="url(#paint0_radial_41_5648)" stroke="#9C56A1" stroke-width="3"/>
<mask id="mask0_41_5648" style="mask-type:alpha" maskUnits="userSpaceOnUse" x="0" y="0" width="300" height="269">
<path fill-rule="evenodd" clip-rule="evenodd" d="M125.749 0C212.339 0 300 50.5212 300 137.111C300 222.305 210.942 268.362 125.749 268.362C54.7639 268.362 0 208.096 0 137.111C0 64.4566 53.0942 0 125.749 0Z" fill="#DB79E2"/>
</mask>
<g mask="url(#mask0_41_5648)">
<path fill-rule="evenodd" clip-rule="evenodd" d="M204.337 271.323C207.93 271.15 206.484 264.865 206.227 262.557C203.382 254.127 204.051 244.93 202.932 236.094C202.235 227.845 201.339 219.623 200.586 211.38C199.107 194.65 188.482 160.59 176.358 155.113C174.831 148.411 168.523 142.156 160.542 142.156C155.098 135.712 148.546 131.178 140.143 132.093C136.67 132.251 133.302 135.934 129.974 136.646C128.111 136.903 111.576 136.241 108.264 138.208C105.957 139.393 103.874 141.582 104.553 144.369C105.635 147.746 102.271 144.092 95.2545 147.696C80.9463 156.289 89.4963 167.785 89.8752 168.142C80.9463 180.565 73.142 190.643 69.5311 205.828C67.1909 217.101 67.4543 228.739 65.4935 240.07C64.8012 243.999 63.7391 247.794 62.5898 251.609C61.3442 256.603 60.7385 269.048 60.052 269.159C58.8013 269.47 60.7747 272.038 62.0999 272.04C98.8402 278.134 136.159 272.292 173.097 271.338C183.507 270.976 193.928 270.892 204.337 271.323Z" fill="#EDB98A"/>
<path fill-rule="evenodd" clip-rule="evenodd" d="M130.021 147.585C130.021 151.495 143.598 166.024 148.283 165.065C151.407 164.426 156.126 160.259 162.442 152.563V147.585L161.078 142.165C168.804 142.437 174.865 148.562 176.358 155.112C188.361 160.535 198.894 193.971 200.539 210.873L200.586 211.38C201.339 219.622 202.235 227.845 202.932 236.094C204.051 244.929 203.382 254.127 206.227 262.557L206.243 262.7C206.54 265.114 207.858 271.153 204.337 271.323C193.928 270.892 183.507 270.976 173.097 271.338C136.159 272.292 98.8402 278.134 62.0999 272.04C60.7747 272.038 58.8013 269.47 60.052 269.159C60.7385 269.048 61.3442 256.602 62.5898 251.609L62.8262 250.82C63.8838 247.27 64.8489 243.728 65.4935 240.07C67.4543 228.739 67.1909 217.101 69.5311 205.828C73.142 190.643 80.9463 180.564 89.8752 168.141C89.4963 167.785 80.9463 156.289 95.2545 147.696C102.271 144.092 105.635 147.745 104.553 144.369C103.874 141.582 105.957 139.393 108.264 138.208C111.576 136.241 128.111 136.902 129.974 136.645C130.84 136.46 131.708 136.074 132.58 135.602L132.429 136.105C130.823 141.487 130.021 145.313 130.021 147.585Z" fill="#78E185"/>
<path fill-rule="evenodd" clip-rule="evenodd" d="M148.651 169.238C148.668 169.07 148.895 169.07 148.913 169.238L149.172 171.742C149.488 174.8 149.791 177.853 150.012 180.925C150.286 184.757 150.47 188.587 150.558 192.427C150.867 205.801 150.928 219.182 150.954 232.559C152.763 232.434 154.573 232.313 156.383 232.196C157.611 232.117 158.839 232.041 160.068 231.966L163.2 231.776L164.489 231.697C165.361 231.643 166.351 231.423 166.96 232.195C167.204 232.504 167.326 232.906 167.099 233.273C166.574 234.119 165.769 234.089 164.857 234.126C163.998 234.161 163.138 234.195 162.279 234.228C160.436 234.299 158.594 234.367 156.752 234.418C154.818 234.473 152.885 234.517 150.952 234.55C150.932 240.197 150.699 245.837 150.446 251.478L150.332 254.017C150.022 260.882 149.69 267.753 149.217 274.608C149.179 275.17 148.385 275.169 148.346 274.608C147.814 266.888 147.463 259.151 147.115 251.42C146.862 245.814 146.716 240.207 146.646 234.6C146.39 234.601 146.135 234.605 145.879 234.606C138.624 234.637 131.37 234.669 124.115 234.601C124.127 234.615 124.139 234.63 124.147 234.649C124.672 235.888 124.722 237.47 124.709 238.8C124.694 240.326 124.489 241.833 124.137 243.316C122.878 248.631 119.631 253.391 115.933 257.327L115.812 257.455C114.94 258.377 113.939 259.303 113.404 260.477C112.857 261.675 112.667 263.078 112.397 264.366L112.365 264.514L111.31 269.389C110.974 270.938 110.879 273.197 109.653 274.314C108.509 275.357 106.994 274.812 106.456 273.47C106.036 272.422 106.454 271.272 106.703 270.225L108.654 262.026C108.974 260.689 109.324 259.343 110.016 258.142C110.725 256.912 111.763 256.02 112.823 255.108C114.83 253.38 116.672 251.402 118.23 249.26C119.788 247.119 121.119 244.759 122.053 242.278C122.52 241.035 122.903 239.745 123.167 238.444C123.418 237.209 123.416 235.93 123.685 234.709C123.703 234.625 123.774 234.567 123.856 234.541C123.837 234.487 123.866 234.413 123.942 234.408L129.876 234.027C135.151 233.687 140.425 233.338 145.695 232.939L146.626 232.872C146.554 225.39 146.615 217.906 146.75 210.422C146.874 203.558 146.877 196.692 147.081 189.83C147.182 186.424 147.401 183.026 147.645 179.627C147.894 176.151 148.293 172.704 148.651 169.238ZM92.9357 209.035C92.8725 208.654 93.3519 208.418 93.573 208.766C96.0997 212.749 97.3179 217.075 97.8314 221.735C98.285 225.849 98.1514 230.021 97.9255 234.145C97.6846 238.544 97.4035 242.941 97.1192 247.338L96.6825 254.079L95.5866 270.98C95.5081 272.189 95.2337 273.288 94.1928 273.85C94.061 273.961 93.9236 274.059 93.7635 274.145C93.2011 274.445 92.4553 274.294 92.1301 273.716L92.2605 273.802C92.3741 273.874 92.2465 273.774 91.8778 273.503L91.565 273.098C91.3376 272.756 91.1924 272.42 91.134 272.014C91.0433 271.383 91.1608 270.691 91.2021 270.056L91.9204 258.974C92.4791 250.358 93.1314 241.745 93.6232 233.125C93.8522 229.108 94.0126 225.086 93.9041 221.062C93.7959 217.059 93.5919 212.989 92.9357 209.035ZM114.794 134.847L114.934 134.823C119.953 133.989 125.41 134.145 129.996 136.565C130.034 136.585 130.017 136.648 129.975 136.646L128.498 136.587C123.825 136.404 119.166 136.295 114.57 137.393L114.1 137.507C112.445 137.911 110.717 138.405 109.387 139.498C108.117 140.542 107.484 142.154 106.876 143.638L106.795 143.834C106.177 145.299 105.396 146.689 104.043 147.605C102.291 148.792 100.184 148.646 98.1748 148.808C94.6373 149.092 91.7451 151.656 90.3061 154.793C89.4348 156.692 89.0632 158.822 88.9895 160.9C88.9518 161.957 88.9464 163.056 89.0873 164.107C89.1323 164.443 89.5476 165.666 89.7594 165.637C90.2299 165.572 90.6601 165.817 90.8068 166.193C91.9691 165.07 93.1649 163.98 94.3991 162.929C97.4758 160.309 100.79 157.934 104.28 155.893C106.943 154.336 109.753 152.793 112.662 151.626C112.431 151.621 112.204 151.667 111.984 151.781C111.888 151.832 111.792 151.711 111.868 151.631C112.784 150.667 113.882 150.53 114.988 150.787C115.225 150.712 115.461 150.639 115.698 150.57C115.816 150.536 115.875 150.698 115.779 150.761L115.507 150.935C116.714 151.339 117.899 152.134 118.837 152.761C121.533 154.562 123.905 156.765 126.31 158.925L126.747 159.317C128.864 161.207 131.035 163.044 133.44 164.56C134.699 165.354 136.021 166.088 137.408 166.634C138.598 167.103 140.535 167.398 141.092 168.655C141.588 169.257 141.381 170.025 140.801 170.43C139.822 171.506 137.865 170.811 136.7 170.362C135.295 169.822 133.933 169.172 132.635 168.41C130.114 166.93 127.79 165.09 125.625 163.133C123.363 161.088 121.23 158.917 119.031 156.808C118.078 155.895 117.147 154.96 116.193 154.048L115.714 153.594C115.226 153.137 114.532 152.425 113.79 151.994C112.393 152.828 110.973 153.627 109.588 154.483C107.654 155.676 105.778 156.956 103.93 158.279C100.373 160.824 97.0017 163.675 93.8723 166.73C88.1329 172.334 83.2431 178.733 78.9714 185.509L78.647 186.025C76.2196 189.903 73.9241 193.907 72.2965 198.192C70.5056 202.907 69.6346 207.866 69.1615 212.872C68.6919 217.842 68.5335 222.836 68.0087 227.802C67.4705 232.894 66.41 237.874 65.2038 242.844L64.9162 244.022C63.8248 248.474 62.6983 252.926 62.1373 257.482C61.8378 259.916 61.6576 262.383 61.6983 264.837C61.7392 267.305 62.127 269.718 62.4399 272.16C62.5598 273.096 61.6392 273.876 60.8154 274C59.868 274.143 59.0541 273.538 58.7596 272.658C57.8416 269.915 57.6749 266.882 57.7037 264.002C57.7327 261.079 58.1058 258.175 58.6308 255.302C59.6634 249.65 61.2568 244.116 62.5898 238.532C63.7645 233.611 64.553 228.681 64.978 223.639C65.4191 218.408 65.6833 213.16 66.4881 207.967C67.2825 202.84 68.7772 197.944 71.0314 193.269C73.0838 189.013 75.6423 185.007 78.3246 181.123C81.582 176.408 85.1594 171.921 89.1583 167.833C88.7992 167.817 88.4303 167.701 88.0916 167.49C87.0553 166.844 86.5727 165.579 86.4243 164.425C86.0771 161.724 86.1609 158.905 86.8555 156.264C87.976 152.005 90.884 148.22 95.0985 146.685C96.1833 146.289 97.3365 146.145 98.4862 146.117C99.5771 146.089 100.769 146.232 101.821 145.886C103.497 145.335 104.215 143.362 104.844 141.866L104.873 141.797C105.68 139.891 106.648 138.257 108.395 137.067C110.259 135.797 112.595 135.22 114.794 134.847ZM162.479 142.385C163.987 141.862 165.873 142.337 167.348 142.793C168.991 143.303 170.509 144.241 171.811 145.355C173.184 146.53 174.319 147.981 175.121 149.602L175.197 149.758C175.93 151.261 176.764 153.325 176.395 154.977C176.384 155.024 176.372 155.069 176.358 155.113C179.35 156.586 182.114 158.431 184.52 160.769C187.322 163.492 189.695 166.59 191.703 169.937C199.677 183.231 201.081 199.197 202.022 214.358L202.257 218.202C202.769 226.502 203.367 234.783 204.922 242.969L205.035 243.56C206.697 252.131 209.076 260.768 208.835 269.56C208.763 272.194 204.869 272.177 204.756 269.56C204.331 259.712 202.033 250.203 200.477 240.509C197.739 223.453 199.111 205.87 195.231 188.985C193.708 182.359 191.349 175.932 187.981 170.017C186.318 167.095 184.414 164.272 182.184 161.751C180.266 159.582 178.272 157.494 176.03 155.671C175.314 156.389 173.882 156.023 173.508 154.977C173.251 154.258 173.326 153.417 173.161 152.664C173.008 151.966 172.797 151.273 172.516 150.615C171.956 149.303 171.133 148.043 170.184 146.982C169.158 145.834 167.979 144.881 166.66 144.094C165.332 143.301 163.88 143.065 162.479 142.486C162.432 142.466 162.427 142.403 162.479 142.385ZM168.338 233.536C168.341 233.466 168.422 233.434 168.472 233.48C169.001 233.966 169.321 234.665 169.71 235.263C170.159 235.953 170.63 236.629 171.124 237.288C172.114 238.607 173.216 239.85 174.327 241.069C175.361 242.202 176.462 243.287 177.604 244.31C178.842 245.418 180.229 246.407 181.354 247.634C183.7 250.195 184.08 253.711 184.575 257.011L184.629 257.368C184.931 259.327 185.201 261.291 185.445 263.258C185.564 264.214 185.682 265.172 185.779 266.131L185.808 266.435C185.894 267.374 185.918 268.326 185.378 269.147C184.801 270.024 183.489 270.332 182.709 269.491C181.368 268.045 181.619 265.477 181.445 263.617C181.301 262.078 181.137 260.542 180.955 259.008L180.861 258.242C180.646 256.497 180.471 254.717 180.071 253.002C179.72 251.492 179.049 250.353 177.949 249.259C176.84 248.157 175.689 247.128 174.666 245.942C173.58 244.683 172.602 243.334 171.72 241.925C170.965 240.72 170.361 239.409 169.807 238.1L169.715 237.882C169.179 236.605 168.297 234.942 168.338 233.536ZM187.694 178.684C187.706 178.506 187.969 178.503 187.973 178.684C188.006 180.216 188.038 181.748 188.07 183.28C188.326 195.625 188.168 207.999 189.407 220.301C189.991 226.102 191.066 231.817 192.311 237.508C192.948 240.42 193.616 243.326 194.251 246.239C194.87 249.077 195.533 251.93 196.024 254.795C196.506 257.611 196.938 260.448 197.132 263.3L197.156 263.672C197.24 265.054 197.638 267.086 196.877 268.31C196.053 269.637 194.475 269.661 193.591 268.394C192.762 267.205 192.968 265.091 192.822 263.672C192.673 262.227 192.515 260.781 192.337 259.339C191.988 256.527 191.528 253.721 191.05 250.928C190.054 245.111 188.609 239.368 187.543 233.56C186.45 227.609 185.674 221.616 185.641 215.557C185.608 209.447 186.255 203.349 186.582 197.252C186.913 191.059 187.29 184.872 187.694 178.684ZM129.377 140.287C129.709 139.171 130.879 138.473 132.02 138.787C133.066 139.074 133.929 140.343 133.52 141.429C133.074 142.614 132.294 143.625 131.637 144.702C131.03 145.697 130.144 146.48 129.525 147.458L130.207 148.193C130.548 148.559 130.89 148.924 131.236 149.282L132.425 150.513C133.351 151.47 134.282 152.422 135.24 153.346C138.057 156.063 140.919 158.691 144.073 161.018C144.791 161.547 145.515 162.074 146.259 162.567L146.537 162.751C147.047 163.085 147.617 163.413 148.233 163.357C149.732 163.219 151.085 161.628 152.115 160.637L152.169 160.586C154.721 158.158 157.083 155.504 159.149 152.65C159.608 152.015 160.052 151.37 160.484 150.718C159.485 149.551 159.724 147.274 159.669 145.859C159.63 144.865 159.627 143.87 159.622 142.874L159.619 142.673C159.607 142.029 159.578 141.411 159.996 140.881C160.02 140.85 160.071 140.851 160.102 140.867C160.674 141.167 160.851 141.67 161.095 142.233L161.121 142.292C161.418 142.968 161.703 143.651 161.991 144.332C162.293 145.044 162.57 145.767 162.85 146.488C162.981 146.823 163.105 147.16 163.227 147.499C163.301 147.715 163.378 147.93 163.457 148.145L163.475 148.161C163.579 148.249 163.668 148.343 163.744 148.439C164.063 148.599 164.317 148.89 164.436 149.318C164.696 150.25 164.159 151.009 163.68 151.749C161.736 154.753 159.519 157.616 157.055 160.213C155.831 161.503 154.543 162.735 153.203 163.904L152.969 164.107C151.765 165.142 150.457 166.122 148.849 166.364C146.967 166.647 145.436 165.711 143.995 164.633L143.851 164.525C142.486 163.491 141.147 162.421 139.851 161.302C137.207 159.02 134.693 156.569 132.461 153.881C130.29 151.266 128.144 148.342 126.806 145.195C126.724 145.003 126.939 144.803 127.107 144.963C127.76 145.585 128.389 146.241 129.011 146.906C129.028 145.928 128.847 144.941 128.948 143.957C129.07 142.761 129.035 141.439 129.377 140.287Z" fill="black"/>
<path fill-rule="evenodd" clip-rule="evenodd" d="M172.847 85.2529C166.73 76.57 151.358 75.5918 141.642 75.6469C122.456 75.4867 118.438 97.5868 117.436 113.073C115.39 113.422 113.4 114.137 112.049 115.748C110.405 117.711 109.837 121.079 111.379 123.274C112.403 124.732 114.019 125.219 115.711 125.3C121.311 124.764 122.46 129.767 125.219 133.519C132.297 143.101 144.56 146.21 155.807 146.258C159.627 146.36 164.229 146.647 166.676 143.045C174.403 129.623 174.571 111.822 175.047 96.6115C175.113 92.7175 175.096 88.5952 172.847 85.2529Z" fill="#EDB98A"/>
<path fill-rule="evenodd" clip-rule="evenodd" d="M186.05 92.7847C186.128 92.9317 186.185 93.0946 186.217 93.2717C186.318 93.8341 186.111 94.2641 185.839 94.6817C185.875 94.9728 185.895 95.255 185.91 95.5032C185.997 96.8968 185.678 98.807 184.452 99.3759C184.44 99.3906 184.427 99.4052 184.415 99.4197C184.408 99.4281 184.4 99.4364 184.393 99.4447C184.298 99.599 184.154 99.7325 183.964 99.8299C183.917 99.8628 183.869 99.894 183.821 99.9208C183.799 99.9396 183.775 99.9548 183.753 99.9727C183.767 99.9571 183.782 99.9411 183.796 99.9252C183.807 99.9135 183.818 99.9018 183.828 99.8903C183.15 100.161 182.495 100.217 181.796 100.135C181.363 100.292 180.93 100.408 180.565 100.499C179.423 100.781 177.952 101.007 176.84 100.526C176.516 100.386 176.247 100.2 176.045 99.9786C176.062 100.841 176.087 101.704 176.124 102.566C176.2 104.747 176.196 106.926 176.18 109.108C176.161 111.564 176.092 114.022 175.961 116.476C175.9 117.709 175.801 118.939 175.67 120.166C175.558 121.362 175.428 122.555 175.278 123.745C174.924 126.192 174.339 128.657 173.627 131.022C173.317 132.048 172.978 133.087 172.592 134.102C172.429 134.569 172.256 135.03 172.069 135.487C171.08 137.884 169.848 140.196 168.184 142.193C167.275 143.282 166.271 144.262 165.151 145.086C164.251 145.789 163.277 146.383 162.206 146.852C159.906 147.86 157.339 148.086 154.851 148.049C153.902 148.036 152.896 147.868 151.955 147.711L151.897 147.702C151.163 147.581 150.419 147.419 149.682 147.229C149.029 147.077 148.384 146.9 147.747 146.694C146.981 146.491 146.246 146.199 145.547 145.822L144.308 145.355C143.79 145.16 143.287 144.928 142.799 144.662L141.453 144.032C140.894 143.762 140.351 143.467 139.82 143.141C139.764 143.111 139.701 143.061 139.677 143.005C139.62 142.974 139.562 142.942 139.504 142.911C139.424 142.868 139.343 142.824 139.264 142.779C139.241 142.767 139.258 142.702 139.288 142.639C139.264 142.589 139.267 142.533 139.334 142.483C139.384 142.444 139.464 142.455 139.547 142.481C139.546 142.48 139.544 142.479 139.543 142.477C139.537 142.473 139.533 142.469 139.529 142.464C139.499 142.449 139.47 142.433 139.441 142.417C139.378 142.383 139.316 142.35 139.254 142.316C139.161 142.266 139.147 142.135 139.234 142.067C139.258 142.048 139.286 142.039 139.314 142.037C139.313 142.037 139.312 142.036 139.311 142.036C139.31 142.035 139.309 142.035 139.308 142.035C139.291 142.024 139.304 141.972 139.328 141.914C139.282 141.855 139.267 141.782 139.349 141.719C139.461 141.631 139.712 141.775 139.829 141.842C139.838 141.848 139.846 141.852 139.853 141.857C139.926 141.897 140 141.936 140.073 141.975C140.117 141.999 140.162 142.022 140.206 142.046C140.213 142.029 140.228 142.015 140.252 142C140.08 141.909 139.909 141.816 139.738 141.723C139.633 141.667 139.495 141.55 139.635 141.44C139.746 141.351 140.033 141.503 140.171 141.581C140.187 141.568 140.206 141.563 140.228 141.559C140.169 141.526 140.106 141.494 140.046 141.459C139.879 141.366 139.993 141.076 140.165 141.172C140.186 141.185 140.206 141.197 140.226 141.21C140.344 141.199 140.508 141.291 140.592 141.338L140.605 141.345C141.185 141.712 141.79 142.031 142.417 142.306C142.84 142.507 143.265 142.706 143.692 142.899C144.111 143.108 144.543 143.288 144.987 143.44C146.102 143.876 147.228 144.281 148.365 144.656C149.959 145.093 151.608 145.445 153.263 145.582C153.478 145.599 153.693 145.614 153.908 145.621C154.144 145.619 154.379 145.618 154.614 145.617C154.85 145.615 155.085 145.614 155.32 145.612C156.151 145.526 156.981 145.441 157.81 145.357L158.062 145.331C158.381 145.287 158.693 145.231 159.001 145.166C159.162 145.127 159.324 145.086 159.483 145.039C159.539 145.032 159.594 145.021 159.65 145.011C160.042 144.907 160.426 144.783 160.81 144.638C161.051 144.539 161.29 144.435 161.528 144.325C162.312 143.959 163.084 143.476 163.811 142.922C164.266 142.468 164.72 142.015 165.175 141.562C165.631 141.107 166.088 140.652 166.544 140.196L167.377 139.059C168.453 137.517 169.304 135.8 170.011 134.046L171.135 130.8C171.252 130.41 171.364 130.02 171.469 129.627C171.683 128.75 171.896 127.872 172.109 126.997C172.18 126.675 172.249 126.355 172.315 126.036C172.725 124.044 172.952 122.024 173.146 120.003C173.503 116.326 173.599 112.637 173.625 108.945C173.642 106.738 173.623 104.531 173.579 102.326C173.553 101.047 173.534 99.7684 173.516 98.4893C173.492 97.1322 173.466 95.7732 173.43 94.416C173.428 94.3863 173.44 94.3602 173.454 94.3379C173.451 94.1781 173.449 94.0182 173.447 93.8564C173.445 93.7505 173.486 93.704 173.545 93.6947C173.534 92.7261 173.527 91.7594 173.525 90.7926C173.525 90.7294 173.555 90.6885 173.594 90.6644V90.4189C173.432 89.746 173.213 89.086 172.929 88.4576C172.833 88.2308 172.725 88.0096 172.607 87.7939C172.46 87.4704 172.269 87.1767 172.035 86.9071C171.84 86.578 171.601 86.2862 171.323 86.0259C171.266 85.9851 171.21 85.9444 171.153 85.9036C171.096 85.8626 171.038 85.8215 170.981 85.7805C170.887 85.7303 170.748 85.6429 170.625 85.5425C170.515 85.4747 170.405 85.4064 170.295 85.3381C170.185 85.2697 170.075 85.2014 169.965 85.1335C169.837 85.0666 169.92 84.8993 170.011 84.8547V84.8491C169.991 84.8398 169.969 84.8286 169.944 84.8082C169.677 84.5554 169.399 84.3174 169.11 84.0943C169.058 84.1147 168.996 84.1073 168.95 84.0683C168.779 83.9084 168.605 83.7541 168.427 83.6054C168.028 83.3432 167.611 83.1034 167.175 82.8915C166.475 82.5605 165.759 82.2761 165.025 82.0344C164.882 81.9873 164.738 81.9448 164.595 81.9024L164.548 81.8885C164.461 81.8843 164.375 81.88 164.288 81.8756C164.149 81.8686 164.01 81.8616 163.871 81.8556C155.464 81.486 147.036 81.6412 138.649 82.3192C136.582 82.4864 134.519 82.6855 132.458 82.9162C132.07 82.9597 131.665 82.9936 131.252 83.0282C129.738 83.1549 128.115 83.2906 126.806 83.9445C126.736 83.9798 126.668 84.0171 126.603 84.0556C126.716 84.7809 126.987 85.4912 127.25 86.1813C127.29 86.2862 127.33 86.3906 127.369 86.4946C127.826 87.7097 128.236 88.9482 128.195 90.2641C128.166 91.1817 127.97 92.0641 127.686 92.9263C127.541 94.1557 127.158 95.3431 126.753 96.5097C124.755 102.25 123.668 108.126 123.779 114.219C123.782 114.382 123.745 114.525 123.68 114.646L123.684 114.67C123.719 114.928 123.755 115.187 123.796 115.444C123.963 116.471 122.612 116.982 122.146 116.301C122.114 116.332 122.071 116.354 122.031 116.357C121.912 116.368 121.717 116.173 121.662 116.084C121.589 115.95 121.513 115.82 121.432 115.695C121.424 115.691 121.417 115.688 121.411 115.686C121.408 115.685 121.405 115.683 121.402 115.682C121.426 115.733 121.451 115.784 121.476 115.835C121.502 115.888 121.527 115.941 121.552 115.993C121.634 116.156 121.32 116.236 121.227 116.086C121.144 115.954 121.061 115.827 120.977 115.706C120.929 115.742 120.875 115.751 120.84 115.693C120.541 115.199 120.196 114.775 119.818 114.414C119.222 113.927 118.571 113.632 117.831 113.459C117.248 113.375 116.651 113.371 116.074 113.438C115.411 113.516 114.714 113.682 114.115 113.985C113.627 114.321 113.137 114.658 112.647 114.994C112.527 115.121 112.412 115.253 112.304 115.39C111.965 115.831 111.692 116.301 111.467 116.801C111.458 116.833 111.449 116.865 111.44 116.894C111.302 117.315 111.213 117.746 111.174 118.188C111.171 118.468 111.169 118.747 111.167 119.027C111.165 119.306 111.162 119.585 111.159 119.865C111.234 120.592 111.419 121.299 111.703 121.97C111.837 122.366 112.046 122.719 112.33 123.031C112.482 123.295 112.655 123.535 112.848 123.758C113.239 124.018 113.666 124.24 114.12 124.414C114.232 124.444 114.343 124.474 114.456 124.496C115.04 124.721 115.645 124.842 116.27 124.859C117.061 124.913 117.834 124.844 118.591 124.652C119.059 124.569 119.511 124.433 119.949 124.245C120.369 124.033 120.764 123.779 121.133 123.481C121.174 123.455 121.235 123.47 121.302 123.503C121.316 123.493 121.33 123.483 121.345 123.472C121.412 123.424 121.479 123.375 121.545 123.321C121.582 123.295 121.615 123.327 121.632 123.36L121.654 123.344C121.801 123.243 122.203 123.557 122.021 123.743C122.099 123.792 122.177 123.849 122.248 123.909C122.571 123.922 123.222 124.517 123.099 124.61C122.918 124.768 122.726 124.913 122.532 125.05C122.704 125.179 122.931 125.377 122.825 125.457C122.636 125.638 122.43 125.794 122.211 125.928C122.062 126.041 121.91 126.149 121.751 126.248C121.578 126.35 121.402 126.437 121.22 126.519C121.537 127.134 121.84 127.755 122.122 128.387C122.309 128.835 122.526 129.269 122.777 129.685C123.096 130.319 123.478 130.914 123.925 131.468C124.289 132.081 124.715 132.645 125.203 133.16C125.806 133.848 126.454 134.494 127.142 135.093C127.416 135.288 127.696 135.478 127.988 135.653C128.732 136.214 129.524 136.696 130.364 137.097C130.463 137.151 130.54 137.27 130.425 137.363C130.423 137.364 130.421 137.365 130.419 137.365C130.418 137.366 130.416 137.367 130.414 137.369C130.689 137.525 130.965 137.679 131.244 137.832L131.253 137.837C131.365 137.897 131.573 138.01 131.411 138.142C131.303 138.231 130.971 138.071 130.772 137.967C130.8 137.982 130.83 137.999 130.86 138.016C130.862 138.017 130.866 138.019 130.87 138.021C130.952 138.065 131.263 138.233 131.056 138.341C130.947 138.36 130.843 138.341 130.743 138.287C130.639 138.248 130.535 138.205 130.433 138.161C130.437 138.194 130.418 138.226 130.364 138.252C130.322 138.259 130.281 138.259 130.24 138.255C130.466 138.384 130.693 138.51 130.921 138.635C130.988 138.67 131.303 138.845 131.095 138.953C130.993 138.973 130.895 138.956 130.8 138.904C130.628 138.839 130.457 138.763 130.292 138.679C130.27 138.667 130.248 138.655 130.226 138.643C130.209 138.634 130.192 138.624 130.175 138.614C130.145 138.614 130.116 138.611 130.086 138.605C130.268 138.703 130.451 138.798 130.637 138.891C130.746 138.951 130.93 139.072 130.772 139.194C130.663 139.278 130.368 139.127 130.194 139.029C130.182 139.042 130.169 139.057 130.151 139.072C130.037 139.158 129.767 139.002 129.63 138.923C129.611 138.912 129.594 138.902 129.581 138.895C128.661 138.4 127.773 137.889 126.917 137.304C126.394 136.967 125.884 136.614 125.385 136.229C124.43 135.489 123.561 134.628 122.765 133.721C122.222 133.1 121.927 132.751 121.4 131.998C120.554 130.786 119.916 129.521 119.302 128.181C119.293 128.161 119.311 128.108 119.339 128.056C119.213 127.746 119.09 127.432 118.968 127.106C118.649 127.149 118.328 127.179 118.011 127.198C117.263 127.24 116.538 127.173 115.834 127.019C114.983 126.909 114.141 126.668 113.395 126.288C112.948 126.063 112.517 125.824 112.109 125.556C111.744 125.361 111.391 125.138 111.054 124.877C109.616 123.777 108.835 122.068 108.644 120.295C108.497 119.514 108.466 118.711 108.553 117.935C108.616 117.372 108.742 116.814 108.926 116.277C109.265 115.085 109.898 113.983 110.814 113.148C110.968 112.99 111.13 112.84 111.302 112.698C111.812 112.28 112.391 111.944 113.007 111.698C113.126 111.641 113.247 111.587 113.367 111.536L113.221 111.198C113.169 111.213 112.989 111.183 112.966 111.12C112.93 111.021 112.895 110.92 112.86 110.82C112.838 110.757 112.816 110.694 112.794 110.631C112.76 110.652 112.718 110.663 112.671 110.665V110.852C112.673 110.906 112.571 111.241 112.516 111.066C112.48 110.968 112.447 110.869 112.414 110.77C112.393 110.707 112.372 110.644 112.35 110.581C112.304 110.551 112.269 110.516 112.256 110.475L112.256 110.475C112.25 110.458 112.245 110.441 112.237 110.425C112.234 110.423 112.228 110.423 112.224 110.421V110.479C112.226 110.514 112.133 110.782 112.117 110.73C111.796 109.845 111.534 108.941 111.33 108.023C111.191 107.517 111.082 107.006 110.998 106.487C110.907 106.021 110.827 105.552 110.759 105.08L110.742 104.963C110.74 104.953 110.738 104.946 110.736 104.937L110.735 104.923C110.73 104.877 110.725 104.83 110.718 104.784C110.644 104.251 110.582 103.715 110.536 103.176C110.438 102.068 110.399 100.954 110.41 99.8427C110.395 99.8485 110.381 99.8558 110.366 99.8632C110.357 99.8676 110.348 99.872 110.339 99.8762C109.857 100.082 109.348 100.25 108.83 100.384C107.939 101.675 106.516 102.548 104.81 102.64C104.233 102.671 103.627 102.601 103.066 102.437C103.008 102.451 102.948 102.462 102.886 102.47C102.593 102.508 102.357 102.445 102.113 102.38C101.976 102.344 101.837 102.307 101.684 102.286C101.628 102.279 101.574 102.272 101.52 102.265C100.907 102.186 100.384 102.119 99.9772 101.753C99.8404 101.756 99.7098 101.736 99.5857 101.699C98.4119 101.981 97.1647 101.359 96.7519 100.057C96.0479 99.6431 95.4869 99.0297 95.1097 98.3181C94.3832 97.3848 93.8024 96.2405 93.4421 95.0383C93.4399 95.0337 93.4376 95.0293 93.4353 95.0248C93.4318 95.018 93.4283 95.0113 93.425 95.0042C93.2423 94.6071 93.1553 94.1812 93.1479 93.754C92.9535 92.537 93.0047 91.3186 93.3744 90.2475C93.3588 89.6669 93.495 89.0618 93.7443 88.5128C94.0465 87.8471 94.5074 87.0817 95.1053 86.6377C95.1068 85.9554 95.3993 85.2044 95.7828 84.6953C96.548 83.6786 97.6578 83.1411 98.8589 83.0634C99.4696 81.4945 101.32 81.1281 102.916 81.6503C103.579 80.9714 104.551 80.6471 105.52 80.7626C106.339 80.8602 107.04 81.253 107.62 81.7944C107.773 81.8381 107.925 81.8836 108.077 81.931C108.585 81.7078 109.177 81.6572 109.719 81.7972C110.659 82.0398 111.271 82.753 111.695 83.571C111.83 83.6643 111.963 83.7606 112.091 83.8612C112.233 83.9247 112.362 84.0097 112.478 84.1097C112.648 84.2003 112.792 84.3492 112.88 84.5652C113.119 84.8125 113.341 85.074 113.539 85.3546C113.686 85.0127 113.838 84.6732 113.995 84.3362C114.251 84.4133 114.56 84.3135 114.689 83.971L114.722 83.8839C115.545 81.6956 117.01 77.7995 118.391 75.9912C116.757 77.1061 114.762 77.6938 112.78 77.6347C112.696 77.6321 112.61 77.6285 112.524 77.6239C111.459 77.8079 110.377 77.825 109.383 77.6254C108.714 77.382 108.062 77.092 107.431 76.7639C107.277 76.6839 107.125 76.5999 106.973 76.5151C106.925 76.475 106.88 76.4314 106.835 76.3879C106.818 76.3708 106.8 76.3537 106.782 76.3368C106.651 76.3463 106.515 76.3361 106.369 76.2974C105.822 76.1526 105.317 75.788 104.999 75.3195C104.94 75.2323 104.893 75.1425 104.851 75.052C104.506 74.7148 104.208 74.3327 103.989 73.886C103.731 73.3636 103.574 72.7761 103.557 72.1886C103.449 71.6123 103.457 71.0192 103.657 70.4689C103.671 70.4315 103.687 70.3947 103.702 70.3578C103.711 70.3361 103.721 70.3143 103.729 70.2923C103.734 70.2771 103.738 70.2616 103.742 70.246C103.748 70.2235 103.753 70.2009 103.761 70.1789C103.82 69.9828 103.894 69.808 103.985 69.6426C104.018 69.4725 104.073 69.3039 104.151 69.1397C104.159 69.0603 104.17 68.9809 104.183 68.9019C103.593 67.7874 103.802 66.3299 104.685 65.4239C104.563 64.8383 104.687 64.2174 105.043 63.6977C105.304 63.3159 105.667 63.0145 106.078 62.8054C106.121 62.7836 106.235 62.7462 106.37 62.7033C106.523 62.5685 106.683 62.441 106.859 62.3287C106.901 61.2393 107.986 60.6108 108.925 60.0668C108.971 60.0405 109.016 60.0144 109.06 59.9885C109.366 59.8104 109.588 59.5546 109.811 59.2987C110.044 59.03 110.277 58.7611 110.608 58.5819C111.187 58.2687 111.898 58.1966 112.566 58.129C112.714 58.1141 112.859 58.0994 113.001 58.0823C114.842 57.86 116.803 57.6882 118.654 57.8892C119.682 58.0007 120.533 58.498 120.885 59.3127C121.769 59.4173 122.557 60.0565 123.18 60.7139C123.958 61.5343 124.62 62.4077 124.849 63.4858C125.001 63.5682 125.139 63.6689 125.264 63.7827C125.259 64.5408 125.161 65.3003 124.952 66.0158C125.013 66.4436 124.885 66.8521 124.667 67.2224C124.7 67.573 124.677 67.9183 124.603 68.2624C125.026 69.0144 124.63 70.1509 124.038 70.8965L124.033 71.3171C124.069 71.2987 124.103 71.2769 124.135 71.2496C125.839 69.7962 127.574 69.3956 129.448 68.9629C130.529 68.713 131.658 68.4524 132.853 67.9722C135.799 67.4024 138.805 67.0397 141.823 66.919C141.806 66.9165 141.789 66.9142 141.772 66.912C141.749 66.909 141.726 66.906 141.703 66.9023C140.183 66.6528 138.722 66.0261 137.466 65.1257C137.134 65.0413 136.819 64.8909 136.537 64.6394C136.262 64.3951 136.073 64.1132 135.964 63.811C135.914 63.7576 135.865 63.7039 135.816 63.6492C134.873 63.4172 134.155 62.5998 134.276 61.5252C133.679 60.8171 133.459 59.9427 133.661 59.0323C133.328 58.4677 133.298 57.7559 133.547 57.1597C133.023 56.5216 132.982 55.6159 133.393 54.894C133.018 54.3595 132.935 53.6512 133.398 53.0181C133.617 52.7192 133.919 52.5307 134.249 52.4396C134.342 52.0951 134.532 51.7751 134.829 51.5281C134.983 51.4011 135.143 51.3068 135.307 51.2366C135.368 50.8809 135.569 50.5437 135.955 50.2784C136.13 50.1581 136.309 50.0804 136.487 50.0373C136.656 49.619 136.95 49.2522 137.364 49.014C137.864 48.7268 138.445 48.6887 138.974 48.8393C139.666 47.7918 141.184 47.3858 142.236 48.1627C143.112 47.6195 144.214 47.734 145.001 48.3946C145.953 47.8307 147.135 48.0582 147.882 48.8445C149.079 48.1893 150.658 48.6732 151.298 49.9146C152.506 49.7803 153.643 50.5723 153.965 51.7186C154.018 51.7611 154.069 51.8049 154.121 51.8486L154.135 51.8603C154.858 51.8951 155.545 52.1791 155.951 52.8532C156.153 53.1899 156.247 53.5855 156.233 53.9732C156.665 54.2074 157.015 54.5917 157.164 55.0897C157.305 55.5567 157.252 56.0187 157.067 56.4212C157.67 57.0632 157.829 58.0637 157.402 58.87C157.579 59.1734 157.671 59.5321 157.656 59.9048C157.635 60.4568 157.379 60.9016 157.032 61.2815C157.469 62.0716 157.298 63.0852 156.588 63.6392C156.18 65.0885 155.148 66.0528 153.566 66.6444C152.771 66.9415 151.94 67.1703 151.093 67.3384C154.483 67.7956 157.818 68.5991 161.022 69.7971C161.197 69.8623 161.344 69.8369 161.457 69.7608C161.488 69.7772 161.519 69.7929 161.55 69.8087C161.59 69.8288 161.629 69.849 161.668 69.8703C162.552 70.3555 163.416 70.8817 164.258 71.445C164.258 71.352 164.26 71.2591 164.264 71.1643C164.248 70.3992 164.328 69.6457 164.531 68.9194C164.265 68.5571 164.067 68.144 163.959 67.7182C163.689 66.6559 164.202 65.1443 165.123 64.7814C165.446 63.8842 166.18 63.235 167.08 62.9796C167.151 62.9151 167.227 62.8524 167.312 62.7942C167.501 62.6637 167.709 62.5747 167.922 62.523C168.032 62.0368 168.303 61.5893 168.752 61.2753C169.385 60.8319 170.135 60.7838 170.793 61.0257C170.918 60.9834 171.045 60.9468 171.174 60.915C172.233 60.0111 173.885 60.0777 174.817 61.1353C175.457 60.8422 176.212 60.8291 176.867 61.2236C177.391 61.5393 177.717 62.0483 177.845 62.607C178.838 62.6375 179.746 63.2975 180.032 64.2824C180.946 64.3862 181.695 65.1034 181.853 66.0062C182.437 66.0876 182.976 66.3624 183.304 66.9088C183.455 67.1614 183.537 67.4379 183.559 67.7147C183.854 67.8565 184.118 68.0713 184.318 68.3518C184.668 68.8434 184.735 69.4173 184.607 69.9573C184.619 69.9818 184.631 70.006 184.644 70.0303C184.662 70.0653 184.68 70.1004 184.697 70.1362C184.792 70.3392 184.868 70.5569 184.937 70.7779C185.244 71.2224 185.386 71.7659 185.358 72.3117C185.423 72.5426 185.487 72.774 185.539 73.0066C185.747 73.9194 185.825 74.8917 185.682 75.8213C185.611 76.2712 185.509 76.7137 185.365 77.1431C185.35 77.2249 185.326 77.3011 185.298 77.3736C185.218 77.712 185.116 78.0448 184.986 78.3701C184.675 78.7847 184.348 79.1881 184.005 79.5785C183.715 80.0136 183.385 80.4151 183.012 80.7832C182.743 81.0491 182.448 81.2963 182.135 81.5194C181.512 82.0194 180.816 82.4092 180.073 82.6628C179.94 82.6349 179.807 82.6131 179.673 82.5918C178.83 83.0573 177.502 83.1099 176.69 83.1067C175.796 83.1034 174.976 82.877 174.295 82.4492C174.374 82.6066 174.453 82.7643 174.532 82.9223C174.527 82.9254 174.521 82.9284 174.516 82.9313C174.501 82.9394 174.487 82.9474 174.474 82.9571C174.327 82.7126 174.162 82.4955 173.969 82.3393C173.704 82.1257 173.278 82.1065 173.095 82.4521C173.091 82.4581 173.088 82.4642 173.085 82.4704C172.987 82.6546 173.001 82.8314 173.076 82.9757C173.097 83.0064 173.118 83.0374 173.14 83.0684L173.157 83.0939C173.16 83.097 173.162 83.1002 173.165 83.1034C173.172 83.1116 173.179 83.1199 173.187 83.1274L173.182 83.1279C173.435 83.3322 173.684 83.8327 173.921 84.3192C174.081 84.6035 174.233 84.8918 174.375 85.1852C174.459 85.3083 174.607 85.4163 174.764 85.4477C174.733 85.682 174.841 85.9242 175.017 86.0443C175.064 85.9506 175.12 85.8547 175.193 85.7558C175.99 84.6704 177.556 84.2021 178.736 84.6981C178.971 84.6583 179.208 84.6254 179.446 84.6067C180.225 84.5552 181.014 84.6165 181.784 84.7781C182.022 84.9216 182.251 85.0831 182.463 85.2674C182.643 85.4235 182.81 85.5872 182.966 85.7563C183.087 85.8469 183.205 85.9428 183.321 86.0428C183.793 86.297 184.139 86.7844 184.43 87.2696C184.661 87.5967 184.863 87.9441 185.037 88.3122C185.846 89.6991 186.779 91.421 186.05 92.7847ZM121.179 119.586C121.476 119.93 121.708 120.313 121.875 120.735C121.942 120.871 121.86 120.953 121.723 120.929C121.662 120.919 121.578 120.875 121.493 120.815C121.499 120.831 121.506 120.846 121.513 120.861C121.52 120.876 121.527 120.891 121.534 120.906C121.606 121.05 121.545 121.152 121.38 121.098C121.37 121.092 121.361 121.087 121.354 121.081C121.439 121.234 121.517 121.39 121.584 121.553C121.656 121.698 121.591 121.799 121.428 121.743C121.343 121.695 121.261 121.639 121.183 121.578C121.193 121.599 121.202 121.62 121.212 121.641C121.238 121.697 121.264 121.754 121.287 121.812C121.361 121.959 121.276 122.035 121.131 122.001C121.007 121.933 120.892 121.851 120.784 121.756C120.775 121.749 120.766 121.741 120.758 121.733C120.751 121.727 120.744 121.721 120.738 121.715C120.786 121.836 120.695 121.91 120.575 121.886C120.404 121.853 120.083 121.565 120.005 121.412C120.002 121.407 120 121.403 119.998 121.398C119.995 121.393 119.993 121.389 119.99 121.384C119.899 121.323 119.801 121.237 119.727 121.156C119.667 121.241 119.552 121.304 119.5 121.2C119.345 120.774 119.101 120.41 118.769 120.103C118.58 119.826 118.35 119.59 118.081 119.395C117.936 119.272 117.786 119.155 117.632 119.044C117.359 118.919 117.076 118.824 116.779 118.761C116.745 118.75 116.711 118.742 116.677 118.734C116.651 118.728 116.625 118.722 116.599 118.715L116.577 118.71C116.453 118.688 116.33 118.665 116.206 118.648C115.669 118.573 115.131 118.56 114.593 118.609C114.497 118.612 114.404 118.538 114.363 118.452C114.243 118.458 114.124 118.464 114.003 118.475C113.805 118.482 113.848 118.201 113.998 118.174C114.187 118.138 114.376 118.112 114.562 118.09C114.558 118.073 114.556 118.055 114.56 118.04C114.221 118.023 113.883 118.03 113.542 118.066C113.393 118.073 113.569 117.798 113.651 117.783C113.67 117.779 113.69 117.776 113.709 117.773C113.727 117.771 113.745 117.768 113.764 117.765C113.76 117.759 113.759 117.755 113.757 117.75H113.747C113.543 117.759 113.404 117.434 113.649 117.389C113.678 117.384 113.707 117.379 113.736 117.375C113.767 117.37 113.798 117.365 113.829 117.359C113.818 117.328 113.816 117.3 113.827 117.274C113.721 117.272 113.618 117.272 113.512 117.272C113.54 117.27 113.564 117.211 113.589 117.15C113.616 117.084 113.645 117.015 113.681 117.01L113.844 116.987C113.848 116.919 113.952 116.759 113.996 116.749C114.349 116.69 114.694 116.649 115.035 116.636C115.068 116.558 115.117 116.454 115.163 116.454C115.551 116.448 115.924 116.452 116.295 116.491C116.309 116.48 116.324 116.474 116.337 116.476C116.359 116.481 116.379 116.486 116.4 116.491C116.438 116.5 116.475 116.509 116.514 116.519C116.719 116.549 116.925 116.591 117.135 116.653C117.63 116.8 118.126 117.032 118.554 117.32C118.959 117.592 119.361 117.874 119.714 118.213C119.838 118.319 119.955 118.434 120.066 118.553C120.246 118.701 120.421 118.854 120.587 119.005C120.792 119.192 120.99 119.386 121.179 119.586Z" fill="black"/>
<path fill-rule="evenodd" clip-rule="evenodd" d="M161.723 125.717C162.361 124.592 164.265 124.775 164.555 126.087C165.146 128.749 161.972 131.206 159.562 131.267C157.167 131.328 154.48 129.29 154.827 126.715C154.912 126.078 155.763 126.155 156.053 126.554L156.166 126.708C156.953 127.766 157.993 128.861 159.455 128.603C160.061 128.496 160.611 128.118 160.977 127.631C161.419 127.043 161.37 126.34 161.723 125.717ZM146.494 106.249C146.818 106.159 147.146 106.194 147.434 106.316C148.076 106.434 148.612 106.969 148.801 107.58C148.816 107.633 148.832 107.686 148.85 107.737L148.879 107.814L148.802 107.618C148.838 107.811 148.995 108.014 149.051 108.208C149.121 108.446 149.138 108.717 149.114 108.979C149.318 108.981 149.523 108.988 149.726 109.005L149.923 109.023C151.024 109.125 152.233 109.313 152.886 110.265C153.253 110.799 152.909 111.762 152.235 111.865C151.198 112.023 150.305 111.45 149.272 111.335C148.295 111.226 147.273 111.288 146.309 111.465C144.318 111.829 142.489 112.635 140.549 113.142L140.285 113.209L140.286 113.208C139.953 113.288 139.576 112.826 139.905 112.555C141.459 111.279 143.448 110.244 145.408 109.614C145.123 109.16 145.034 108.562 145.23 108.074C145.26 107.973 145.297 107.875 145.337 107.777L145.42 107.575C145.428 107.48 145.446 107.386 145.472 107.294L145.476 107.266L145.479 107.268C145.625 106.794 146.006 106.383 146.494 106.249ZM166.32 106.322C166.745 105.897 167.343 105.96 167.786 106.294L167.845 106.34C168.263 106.526 168.609 106.932 168.836 107.308C169.072 107.699 169.229 108.097 169.235 108.527C170.264 108.53 171.249 108.839 172.005 109.669C172.249 109.937 172.415 110.351 172.281 110.714L172.201 110.93C171.947 111.617 170.807 112.012 170.419 111.205L170.402 111.165C169.99 110.207 168.409 110.307 167.569 110.405C166.983 110.474 166.405 110.62 165.839 110.783C165.64 110.84 165.443 110.902 165.245 110.966L165.048 111.03C164.943 111.064 164.395 111.362 164.736 111.291C164.827 111.272 164.896 111.406 164.803 111.451C164.397 111.645 163.963 111.258 163.99 110.821C164.037 110.064 165.24 109.648 165.819 109.387L165.854 109.371C166.076 109.269 166.309 109.17 166.549 109.079C166.414 108.878 166.302 108.655 166.209 108.416C166.122 108.189 166.063 107.97 166.031 107.729C165.999 107.612 165.999 107.494 166.031 107.377L166.036 107.343C166.019 107.265 166.012 107.185 166.013 107.104L166.009 107.073H166.013C166.024 106.79 166.136 106.506 166.32 106.322ZM159.529 114.391C161.162 114.896 163.856 116.27 163.005 118.392C161.817 120.34 158.666 118.908 157.139 118.279C155.767 117.824 155.053 119.747 156.379 120.326C167.341 124.663 167.3 113.218 159.927 113.386C159.115 113.405 159.09 114.224 159.529 114.391ZM145.027 99.4689L145.306 99.3876C146.753 98.9684 148.231 98.2445 149.516 99.3741C150.02 99.8177 150.124 100.739 149.763 101.293C148.941 102.553 147.721 102.361 146.393 102.468C145.381 102.55 144.385 102.847 143.441 103.218C142.669 103.522 141.954 103.949 141.278 104.426C140.615 104.895 140.161 105.627 139.48 106.049C139.231 106.204 138.943 106.045 138.853 105.794C138.536 104.904 139.072 103.796 139.526 103.038C140.08 102.113 140.922 101.357 141.827 100.785C142.818 100.158 143.915 99.7964 145.027 99.4689ZM166.116 98.5117C168.563 98.511 170.917 99.8717 172.285 101.866C172.75 102.544 172.409 103.548 171.742 103.938C170.993 104.376 170.193 104.061 169.699 103.433L169.67 103.395C168.885 102.35 167.874 101.527 166.675 100.991C166.09 100.73 165.443 100.518 164.81 100.41L164.605 100.375C164.319 100.327 163.986 100.281 163.727 100.326C163.588 100.344 163.46 100.39 163.343 100.46C163.399 100.583 163.253 100.732 163.119 100.658C162.511 100.324 162.585 99.7285 163.087 99.2656C163.798 98.6106 165.199 98.5119 166.116 98.5117Z" fill="black"/>
</g>
</g>
<defs>
<radialGradient id="paint0_radial_41_5648" cx="0" cy="0" r="1" gradientUnits="userSpaceOnUse" gradientTransform="translate(150.077 134.25) rotate(90) scale(134.25 150.077)">
<stop stop-color="#FBC8FF"/>
<stop offset="1" stop-color="#DB79E2"/>
</radialGradient>
<clipPath id="clip0_41_5648">
<rect width="300" height="268" fill="white"/>
</clipPath>
</defs>
</svg>
