<svg width="420" height="112" viewBox="0 0 420 112" fill="none" xmlns="http://www.w3.org/2000/svg">
<rect width="420" height="112" rx="56" fill="#1A1A1A"/>
<rect width="420" height="112" rx="56" fill="#DDFF53"/>
<rect x="18" y="10" width="384" height="92" rx="46" stroke="#1A1A1A" stroke-width="4" stroke-linecap="round" stroke-dasharray="40 40"/>
<path d="M58.3829 51V28.344H63.8549V46.328H70.9909V28.344H76.4629V46.328H83.5989V28.344H89.0709V51H58.3829ZM94.7579 51V28.344H100.134V37.56H100.23L108.326 28.344H115.174L105.414 38.776L115.75 51H108.614L100.198 40.568H100.134V51H94.7579ZM128.491 51.608C124.928 51.608 121.984 50.4987 119.659 48.28C117.333 46.04 116.171 43.1387 116.171 39.576C116.171 35.992 117.323 33.1227 119.627 30.968C121.952 28.8133 124.907 27.736 128.491 27.736C132.096 27.736 135.051 28.8133 137.355 30.968C139.68 33.1227 140.843 35.992 140.843 39.576C140.843 43.1387 139.68 46.04 137.355 48.28C135.029 50.4987 132.075 51.608 128.491 51.608ZM123.819 44.632C125.035 45.9547 126.592 46.616 128.491 46.616C130.389 46.616 131.947 45.9547 133.163 44.632C134.379 43.3093 134.987 41.624 134.987 39.576C134.987 37.5707 134.379 35.9173 133.163 34.616C131.947 33.3147 130.389 32.664 128.491 32.664C126.592 32.664 125.035 33.3147 123.819 34.616C122.624 35.9173 122.027 37.5707 122.027 39.576C122.027 41.624 122.624 43.3093 123.819 44.632ZM145.844 51.224C144.543 51.224 143.498 51.1067 142.708 50.872L143.156 46.328C143.583 46.4773 144.031 46.552 144.5 46.552C145.375 46.552 146.079 46.2853 146.612 45.752C147.167 45.2187 147.604 44.184 147.924 42.648C148.266 41.0907 148.436 38.9893 148.436 36.344V28.344H165.716V51H160.244V32.984H153.684V36.12C153.684 41.56 153.066 45.4427 151.828 47.768C150.591 50.072 148.596 51.224 145.844 51.224ZM171.383 51V28.344H176.855V36.664H179.735C182.338 36.664 184.46 37.24 186.103 38.392C187.746 39.544 188.567 41.3467 188.567 43.8C188.567 46.2107 187.735 48.0133 186.071 49.208C184.407 50.4027 182.306 51 179.767 51H171.383ZM176.855 46.648H179.319C181.858 46.648 183.127 45.688 183.127 43.768C183.127 41.8693 181.858 40.92 179.319 40.92H176.855V46.648ZM192.852 51V28.344H198.324V36.92H207.156V28.344H212.628V51H207.156V41.528H198.324V51H192.852ZM218.289 51V28.344H223.697V43.256H223.825L232.529 28.344H238.289V51H232.881V36.44H232.785L224.145 51H218.289ZM243.977 51V28.344H249.353V37.56H249.449L257.545 28.344H264.393L254.633 38.776L264.969 51H257.833L249.417 40.568H249.353V51L243.977 51ZM264.943 51L274.447 28.344H279.759L289.167 51H283.087L281.327 46.552H272.559L270.895 51H264.943ZM274.127 42.168H279.823L277.007 34.392L274.127 42.168ZM292.039 51V28.344H299.815L304.967 42.872H305.095L310.023 28.344H317.927V51H312.583L312.711 34.968H312.615L306.727 51H302.887L297.159 34.968H297.063L297.191 51H292.039ZM332.602 51V28.344H338.01V43.256H338.138L346.842 28.344H352.602V51H347.194V36.44H347.098L338.458 51H332.602ZM118.519 83.608C114.999 83.608 112.087 82.4987 109.783 80.28C107.479 78.04 106.327 75.16 106.327 71.64C106.327 68.0773 107.49 65.208 109.815 63.032C112.162 60.8347 115.095 59.736 118.615 59.736C120.258 59.736 121.847 60.0347 123.383 60.632C124.94 61.208 126.178 62.0187 127.095 63.064L123.383 66.776C122.892 66.0933 122.231 65.5813 121.399 65.24C120.588 64.8773 119.724 64.696 118.807 64.696C116.908 64.696 115.34 65.3573 114.103 66.68C112.887 67.9813 112.279 69.6347 112.279 71.64C112.279 73.688 112.876 75.3627 114.071 76.664C115.266 77.944 116.812 78.584 118.711 78.584C120.823 78.584 122.423 77.816 123.511 76.28L127.319 79.864C125.164 82.36 122.231 83.608 118.519 83.608ZM135.513 83V65.016H129.113V60.344H147.385V65.016H140.985V83H135.513ZM154.266 83.384C152.837 83.384 151.631 83.256 150.65 83L151.322 78.488C152.069 78.7227 152.751 78.84 153.37 78.84C154.287 78.84 154.981 78.616 155.45 78.168C155.919 77.6987 156.431 76.92 156.986 75.832L157.082 75.64L148.442 60.344H154.746L160.058 70.68L165.05 60.344H171.194L162.714 76.472C162.202 77.432 161.786 78.1893 161.466 78.744C161.146 79.2987 160.719 79.9173 160.186 80.6C159.674 81.2827 159.162 81.7947 158.65 82.136C158.138 82.4773 157.509 82.7653 156.762 83C156.015 83.256 155.183 83.384 154.266 83.384ZM170.181 87.832V78.328H172.165C174.213 75.7893 175.237 71.7147 175.237 66.104V60.344L192.389 60.344V78.328H194.885V87.832H190.085V83H174.981V87.832H170.181ZM178.085 78.328H186.917V64.984H180.517V66.808C180.517 71.9493 179.706 75.7893 178.085 78.328ZM198.852 83V60.344H214.084V64.984H204.132V69.24H213.54V73.624H204.132V78.328H214.66V83H198.852ZM219.289 83V60.344H224.761V68.92H233.593V60.344H239.065V83H233.593V73.528H224.761V83H219.289ZM248.951 83V65.016H242.551V60.344H260.823V65.016H254.423V83H248.951ZM259.63 83L269.134 60.344H274.446L283.854 83H277.774L276.014 78.552H267.246L265.582 83H259.63ZM268.814 74.168H274.51L271.694 66.392L268.814 74.168ZM286.727 83V60.344H294.503L299.655 74.872H299.783L304.711 60.344H312.615V83H307.271L307.399 66.968H307.303L301.415 83H297.575L291.847 66.968H291.751L291.879 83H286.727Z" fill="#1A1A1A"/>
</svg>
