<svg width="287" height="105" viewBox="0 0 287 105" fill="none" xmlns="http://www.w3.org/2000/svg">
<rect y="38.9685" width="280" height="66" rx="33" transform="rotate(-8 0 38.9685)" fill="#DDFF53"/>
<rect x="12.9967" y="45.2205" width="256" height="50" rx="25" transform="rotate(-8 12.9967 45.2205)" stroke="#1A1A1A" stroke-opacity="0.8" stroke-width="4" stroke-linecap="round" stroke-dasharray="40 40"/>
<path d="M43.2869 81.1143C38.877 81.7341 35.0398 80.8731 31.7754 78.5313C28.5074 76.1631 26.5634 72.774 25.9437 68.364C25.3202 63.9276 26.247 60.1754 28.7241 57.1075C31.2277 54.0358 34.6976 52.1882 39.134 51.5647C43.5968 50.9375 47.4416 51.7571 50.6685 54.0234C53.9217 56.286 55.86 59.6355 56.4835 64.0719C57.1033 68.4819 56.1689 72.2755 53.6802 75.4528C51.1878 78.6037 47.7233 80.4908 43.2869 81.1143ZM36.2902 73.292C38.0255 74.7177 40.0683 75.2654 42.4185 74.9351C44.7687 74.6048 46.5814 73.5152 47.8565 71.6664C49.1316 69.8176 49.591 67.6257 49.2348 65.0906C48.8859 62.6083 47.8457 60.6676 46.1141 59.2683C44.3825 57.869 42.3416 57.3345 39.9913 57.6648C37.6411 57.9951 35.8266 59.0714 34.5477 60.8938C33.2953 62.7125 32.8436 64.8629 33.1924 67.3452C33.5487 69.8803 34.5813 71.8626 36.2902 73.292ZM63.9208 77.447L59.9794 49.4026L79.7056 46.6302L80.4794 52.1361L67.5266 53.9565L68.2726 59.2644L72.6298 58.652C75.7722 58.2104 78.4189 58.552 80.5697 59.6769C82.7432 60.7718 84.0378 62.798 84.4535 65.7556C84.858 68.634 84.1589 70.9404 82.356 72.6748C80.5759 74.3792 78.1542 75.4466 75.091 75.8771L63.9208 77.447ZM69.9371 71.108L73.5813 70.5958C76.5917 70.1727 77.9429 68.8653 77.6349 66.6735C77.3268 64.4817 75.6676 63.5973 72.6572 64.0204L69.013 64.5326L69.9371 71.108ZM94.9279 73.5739C93.1586 73.8226 91.6444 73.8738 90.3851 73.7277L90.432 68.0256C91.3971 68.1862 92.2625 68.2127 93.0283 68.1051C94.1638 67.9455 94.9831 67.5476 95.4861 66.9114C95.9854 66.2488 96.4837 65.1959 96.981 63.7526L97.0665 63.4982L83.7106 46.0674L91.5139 44.9707L99.8874 56.8409L104.269 43.1781L111.874 42.1093L104.183 63.5483C103.716 64.8257 103.333 65.8356 103.033 66.5778C102.733 67.3201 102.313 68.1601 101.772 69.0979C101.257 70.032 100.712 70.7548 100.137 71.2664C99.5631 71.778 98.8342 72.244 97.9507 72.6644C97.071 73.1112 96.0634 73.4143 94.9279 73.5739ZM134.34 67.5502L132.881 57.1722C130.877 58.0464 128.831 58.63 126.745 58.9232C123.55 59.3723 121.095 59.0575 119.382 57.9788C117.691 56.87 116.645 54.8896 116.245 52.0376L114.792 41.6992L121.486 40.7584L122.699 49.3935C122.922 50.978 123.423 52.052 124.203 52.6157C125.008 53.1757 126.217 53.3425 127.827 53.1161C129.755 52.8452 131.187 52.4015 132.124 51.7852L130.398 39.5058L137.172 38.5539L141.113 66.5983L134.34 67.5502ZM147.892 65.6455L143.951 37.6011L162.806 34.9513L163.613 40.6948L151.294 42.4261L152.034 47.6944L163.68 46.0577L164.443 51.4844L152.797 53.121L153.615 58.9438L166.647 57.1123L167.46 62.8955L147.892 65.6455ZM172.943 62.1249L169.002 34.0805L175.775 33.1285L177.267 43.7442L188.2 42.2077L186.708 31.5921L193.481 30.6401L197.423 58.6845L190.649 59.6365L189.001 47.9117L178.069 49.4482L179.717 61.1729L172.943 62.1249ZM204.183 57.7344L200.242 29.69L206.936 28.7492L209.53 47.2078L209.688 47.1855L217.868 27.2127L224.998 26.2107L228.94 54.2551L222.245 55.1959L219.713 37.173L219.594 37.1897L211.432 56.7157L204.183 57.7344ZM235.732 53.3004L231.791 25.256L238.485 24.3152L241.079 42.7738L241.238 42.7516L249.418 22.7788L256.548 21.7767L260.489 49.8211L253.795 50.7619L251.262 32.739L251.143 32.7557L242.981 52.2817L235.732 53.3004Z" fill="#1A1A1A"/>
</svg>
