<svg width="891" height="320" viewBox="0 0 891 320" fill="none" xmlns="http://www.w3.org/2000/svg">
<rect y="121.22" width="871" height="200" rx="100" transform="rotate(-8 0 121.22)" fill="#DDFF53"/>
<rect x="23.4561" y="130.041" width="827" height="176" rx="88" transform="rotate(-8 23.4561 130.041)" stroke="#1A1A1A" stroke-opacity="0.8" stroke-width="4" stroke-linecap="round" stroke-dasharray="40 40"/>
<path d="M133.944 252.286C119.832 254.269 107.554 251.514 97.1076 244.02C86.6498 236.442 80.4292 225.597 78.4459 211.485C76.4507 197.288 79.4165 185.281 87.3434 175.464C95.3547 165.635 106.459 159.722 120.655 157.727C134.936 155.72 147.239 158.343 157.565 165.595C167.976 172.835 174.178 183.553 176.173 197.75C178.157 211.862 175.167 224.002 167.203 234.169C159.227 244.252 148.141 250.291 133.944 252.286ZM111.555 227.254C117.108 231.816 123.645 233.569 131.165 232.512C138.686 231.455 144.487 227.969 148.567 222.052C152.647 216.136 154.118 209.122 152.977 201.01C151.861 193.067 148.532 186.856 142.991 182.378C137.45 177.901 130.919 176.19 123.398 177.247C115.878 178.304 110.071 181.749 105.979 187.58C101.971 193.4 100.526 200.281 101.642 208.225C102.782 216.337 106.086 222.68 111.555 227.254ZM197.794 240.856L185.182 151.114L248.305 142.243L250.782 159.862L209.333 165.687L211.72 182.672L225.663 180.713C235.719 179.299 244.188 180.393 251.071 183.992C258.026 187.496 262.169 193.98 263.499 203.444C264.793 212.655 262.556 220.035 256.787 225.586C251.091 231.039 243.341 234.455 233.539 235.833L197.794 240.856ZM217.046 220.572L228.708 218.933C238.341 217.579 242.665 213.395 241.679 206.381C240.694 199.368 235.384 196.538 225.751 197.891L214.089 199.53L217.046 220.572ZM294.838 228.769C289.177 229.565 284.331 229.729 280.301 229.261L280.451 211.014C283.54 211.528 286.309 211.613 288.76 211.269C292.393 210.758 295.015 209.485 296.625 207.449C298.222 205.328 299.817 201.959 301.408 197.341L301.682 196.527L258.943 140.748L283.913 137.239L310.709 175.223L324.728 131.502L349.065 128.082L324.454 196.687C322.96 200.775 321.734 204.006 320.775 206.381C319.816 208.756 318.471 211.445 316.738 214.446C315.09 217.435 313.347 219.748 311.509 221.385C309.671 223.022 307.338 224.513 304.511 225.858C301.696 227.288 298.472 228.258 294.838 228.769ZM418.777 209.799L414.11 176.59C407.696 179.387 401.151 181.255 394.475 182.193C384.25 183.63 376.396 182.622 370.913 179.171C365.502 175.622 362.156 169.285 360.873 160.159L356.224 127.076L377.645 124.065L381.529 151.698C382.241 156.768 383.845 160.205 386.339 162.009C388.917 163.801 392.784 164.334 397.938 163.61C404.107 162.743 408.69 161.323 411.687 159.351L406.165 120.057L427.84 117.011L440.452 206.753L418.777 209.799ZM459.968 204.01L447.355 114.268L507.69 105.789L510.273 124.168L470.853 129.708L473.222 146.567L510.488 141.329L512.928 158.695L475.663 163.932L478.281 182.565L519.983 176.704L522.584 195.21L459.968 204.01ZM537.951 193.05L525.339 103.308L547.014 100.262L551.788 134.232L586.772 129.316L581.998 95.3455L603.673 92.2993L616.285 182.041L594.61 185.088L589.337 147.568L554.353 152.485L559.626 190.004L537.951 193.05ZM635.74 179.307L623.128 89.5651L644.549 86.5545L652.851 145.622L653.358 145.551L679.533 81.6378L702.349 78.4312L714.962 168.173L693.54 171.184L685.435 113.511L685.054 113.564L658.936 176.047L635.74 179.307ZM734.519 165.425L721.907 75.6825L743.328 72.6719L751.63 131.739L752.137 131.668L778.313 67.7552L801.128 64.5487L813.741 154.291L792.319 157.301L784.214 99.6281L783.834 99.6816L757.715 162.165L734.519 165.425Z" fill="#1A1A1A"/>
</svg>
