<svg width="400" height="358" viewBox="0 0 400 358" fill="none" xmlns="http://www.w3.org/2000/svg">
<g clip-path="url(#clip0_41_7141)">
<path d="M167.751 2C225.149 2 282.841 18.7509 326.131 49.763C369.383 80.7488 398.206 125.914 398.206 182.909C398.206 238.933 368.958 282.137 325.48 311.414C281.959 340.721 224.251 356 167.751 356C74.2705 356 2 276.612 2 182.909C2 86.8592 72.1514 2 167.751 2Z" fill="url(#paint0_radial_41_7141)" stroke="#4FC15D" stroke-width="4"/>
<mask id="mask0_41_7141" style="mask-type:alpha" maskUnits="userSpaceOnUse" x="0" y="0" width="400" height="358">
<path fill-rule="evenodd" clip-rule="evenodd" d="M167.665 0C283.118 0 400 67.3962 400 182.909C400 296.559 281.257 358 167.665 358C73.0186 358 0 277.604 0 182.909C0 85.9862 70.7923 0 167.665 0Z" fill="#DB79E2"/>
</mask>
<g mask="url(#mask0_41_7141)">
<path fill-rule="evenodd" clip-rule="evenodd" d="M189.696 174.773C196.918 175.13 208.161 178.226 208.724 180.204C209.601 183.294 207.715 194.876 210.87 201.115C212.215 203.775 217.322 203.536 219.3 204.403C225.921 207.301 245.521 212.797 249.563 219.718C251.182 222.49 261.131 256.893 266.418 274.445C267.014 276.424 267.688 278.254 268.42 279.949L268.689 278.632C270.844 268.024 271.922 261.602 271.922 259.366C271.922 255.873 269.135 241.134 271.922 237.386C274.681 233.675 281.329 230.641 284.32 230.581L284.41 230.58C286.374 230.58 288.078 229.966 289.522 228.738L291.64 227.673C302.412 222.268 308.706 219.302 310.521 218.778C313.417 217.94 318.347 219.724 315.882 222.402C314.239 224.188 310.11 227.346 303.495 231.878L301.001 233.859L301.303 234.017C304.526 235.714 306.421 237.142 306.989 238.301C307.573 239.497 307.293 240.911 306.147 242.543L306.321 242.713C307.77 244.135 308.494 245.088 308.494 245.574V247.946C309.936 250.057 310.296 251.818 309.575 253.228C308.854 254.638 307.712 255.86 306.147 256.893C304.994 259.926 303.621 262.085 302.028 263.369C300.434 264.654 297.681 265.723 293.767 266.577L290.226 275.045L287.356 286.942L285.91 300.217L286.33 300.521C288.276 301.938 289.522 302.989 289.522 304.075C289.522 305.766 281.67 345.545 269.454 347.326C266.812 347.711 253.11 345.822 248.611 342.163L248.677 342.558C249.736 348.951 249.512 352.272 248.005 352.519C229.492 355.554 176.912 356.491 90.2668 355.332C89.7513 309.345 92.0823 278.718 97.2598 263.452C110.502 224.407 125.101 211.072 130.209 209.93C134.683 208.929 150.197 202.754 154.534 201.115C157.365 200.046 157.972 196.838 161.198 196.838L161.459 196.839C164.579 196.871 167.345 197.429 168.9 195.824C172.979 191.613 171.838 185.785 173.531 180.204C174.463 177.129 180.835 174.336 189.696 174.773Z" fill="#EDB98A"/>
<path d="M161.198 196.838L161.459 196.84C162.23 196.847 162.979 196.887 163.694 196.919L162.188 202.052L162.155 202.591C161.177 220.288 169.843 228.76 188.153 228.006C206.464 227.252 215.571 221.461 215.477 210.631L215.471 210.302L215.471 203.563L215.759 203.618C217.149 203.878 218.488 204.047 219.3 204.403C225.921 207.301 245.521 212.797 249.563 219.718C251.182 222.491 261.131 256.894 266.418 274.445C266.612 275.087 266.813 275.712 267.022 276.323L267.022 279.792L266.964 280.002C265.111 286.933 267.578 292.599 274.366 297.001C279.176 300.121 284.117 302.147 289.188 303.077C289.406 303.414 289.522 303.743 289.522 304.075C289.522 305.766 281.67 345.546 269.454 347.326C266.812 347.711 253.11 345.823 248.611 342.163L248.677 342.558L248.739 342.938C249.726 349.083 249.482 352.277 248.005 352.519C229.492 355.554 176.912 356.492 90.2668 355.332C89.7513 309.345 92.0823 278.718 97.2598 263.452C110.502 224.408 125.101 211.072 130.209 209.93C134.683 208.929 150.197 202.755 154.534 201.116C157.365 200.046 157.972 196.838 161.198 196.838Z" fill="#FFCF77"/>
<path fill-rule="evenodd" clip-rule="evenodd" d="M169.857 185.799C170.281 184.96 171.406 185.068 172.148 185.449C174.375 187.077 172.045 190.233 171.429 192.219C169.845 196.072 167.093 199.838 163.294 201.639C163.609 205.469 163.965 209.291 164.097 213.133C168.954 219.157 177.144 221.356 184.413 223.047C195.831 226.205 208.716 219.736 212.57 208.45C208.184 205.958 206.765 199.433 208.073 194.881C208.187 194.562 208.683 194.42 208.859 194.777C210.06 197.247 209.9 200.261 211.265 202.701C224.37 203.956 241.283 208.9 249.869 219.498C253.673 224.8 255.18 231.696 257.054 237.841C261.053 250.51 264.238 263.435 268.16 276.117L268.622 273.717C269.889 267.107 271.04 260.408 270.184 253.686L270.169 253.364C269.889 248.015 268.215 238.076 272.364 234.465C276.116 231.598 281.551 229.293 286.26 230.615C294.639 226.887 301.871 220.608 310.795 218.162C313.541 217.597 317.493 218.266 316.843 221.992C315.044 228.509 307.51 231.038 302.36 234.398C305.661 235.293 309.686 239.308 307.106 242.809C307.084 242.871 307.064 242.918 307.044 242.955C309.136 243.882 309.429 246.212 308.916 248.21C308.864 248.738 308.725 248.285 309.035 248.763C311.396 250.989 310.352 257.194 306.797 257.404C307.029 260.344 305.141 263.2 302.749 264.803C300.171 266.531 296.443 266.605 294.308 268.97C289.297 277.807 287.568 288.238 287.022 298.357C290.325 299.594 293.289 303.291 290.288 306.428C290.229 306.435 290.169 306.442 290.109 306.447C288.369 311.09 287.698 316.04 286.778 320.889C285.362 329.163 281.673 336.759 276.962 343.652C271.514 352.776 256.864 351.329 249.484 345.441C249.514 346.986 249.768 348.522 249.274 350.014C248.543 351.625 246.763 350.929 246.587 349.343C242.685 351.537 241.766 344.295 246.103 345.443C245.77 340.208 245.576 334.965 245.419 329.721C240.509 331.31 240.298 323.164 245.32 324.793L245.314 322.541C245.277 305.273 245.468 287.946 247.747 270.814C247.957 269.533 248.314 268.293 248.523 267.019C248.545 266.888 248.751 266.925 248.751 267.051C249.104 291.036 247.536 315.072 249.172 339.066C250.534 339.481 251.076 341.043 252.085 341.953C254.323 344.02 257.371 345.026 260.351 345.376C268.697 346.546 272.301 343.997 276.017 336.743C274.341 337.863 272.076 335.885 273.098 334.112L273.13 334.058C274.191 332.18 277.187 333.306 276.808 335.409C280.545 329.426 282.5 322.678 283.945 315.832L284.14 315.014C284.842 312.107 285.754 308.777 287.44 306.147C277.157 303.527 267.099 295.542 265.49 284.588C262.879 292.79 259.342 300.807 255.971 308.785C254.93 311.558 254.496 314.54 253.004 317.113C252.657 317.708 251.777 317.555 251.581 316.927C250.239 310.927 254.306 305.22 256.417 299.819C258.141 296.766 263.09 282.826 266.159 282.792C262.711 267.679 258.112 252.68 253.732 237.755C249.497 217.603 240.867 213.717 222.584 207.372C225.881 224.177 240.938 240.444 232.926 258.071L232.731 258.528C231.912 260.472 231.231 262.43 231.803 264.563C232.358 266.633 233.622 268.43 234.634 270.291C240.288 280.807 236.396 293.087 234.21 304.038C231.449 316.88 228.721 329.733 225.866 342.556C225.304 345.114 224.939 347.749 224.089 350.228C223.65 351.507 221.461 351.385 221.603 349.893C221.873 346.998 222.686 344.174 223.281 341.331C226.836 322.924 231.645 304.733 234.702 286.245C236.669 272.559 228.926 270.456 229.215 261.613C230.267 257.09 233.053 253.055 232.893 248.235C233.513 233.482 222.767 221.311 221.44 206.963L219.097 206.127C217.927 205.708 216.757 205.286 215.591 204.853C221.728 247.767 219.864 291.619 216.797 334.745C216.17 336.735 216.766 357.081 214.139 355.847C214.006 356.624 213.594 357.388 212.696 357.384C204.549 357.458 196.398 357.587 188.251 357.684C184.331 357.323 178.944 358.819 175.611 356.558C171.762 355.46 171.32 338.592 170.291 334.876L169.889 332.175C163.349 288.025 157.497 242.964 162.198 198.377C155.657 198.629 154.307 205.688 153.822 210.827C152.609 222.171 145.28 231.94 144.929 243.414C144.899 246.197 145.424 248.894 146.537 251.45C149.489 257.712 154.595 264.951 150.779 271.945C146.266 277.389 146.656 278.822 148.313 285.551C152.972 307.793 160.71 329.177 168.071 350.622C166.471 358.958 156.852 328.013 155.947 325.68C151.688 327.821 149.362 320.716 154.246 320.209C151.109 309.709 148.222 299.129 145.818 288.434L145.755 288.132C144.693 283.19 142.604 277.404 146.131 273.02C155.225 263.824 140.123 253.545 142.028 242.405C140.383 243.624 137.893 242.341 137.931 240.293C137.856 237.987 140.954 236.805 142.445 238.565C143.978 229.526 149.31 221.636 150.924 212.624L150.997 212.201C151.544 209.016 151.698 205.664 153.262 202.761C151.133 204.145 148.865 205.263 146.532 206.249C150.703 209.733 142.627 212.912 143.295 207.531C120.424 214.148 115.254 223.375 106.857 244.566C108.425 243.042 111.112 245.015 110.173 246.958C109.424 249.006 106.156 248.407 106.158 246.225L105.775 247.137C100.683 259.313 96.0481 271.784 93.719 284.815C98.2879 284.17 97.1246 291.471 92.985 289.413C91.3237 301.001 91.2975 312.754 91.5005 324.436C95.3543 322.415 95.4703 329.282 91.5377 327.324C91.6814 336.897 91.8921 346.47 92.0508 356.043C92.083 358.081 88.9399 358.071 88.8903 356.043C88.5232 341.334 87.8542 326.597 88.1722 311.883C87.873 286.345 95.2147 261.731 106.154 238.854C115.833 212.513 129.202 209.517 153.8 201.859C156.071 198.488 160.922 195.301 164.88 197.417C167.094 193.843 168.219 189.608 169.857 185.799ZM127.713 277.604C127.805 277.279 128.269 277.361 128.283 277.681C128.489 281.813 128.306 285.972 128.023 290.122C127.852 292.655 127.641 295.186 127.463 297.702C126.989 304.34 126.608 310.986 126.318 317.636C126.419 317.594 126.523 317.557 126.633 317.527C127.133 317.391 127.634 317.391 128.135 317.527C128.581 317.652 128.972 317.87 129.308 318.185L129.379 318.254C129.654 318.509 129.85 318.811 129.964 319.161C130.126 319.472 130.209 319.804 130.208 320.16L130.207 320.249C130.204 320.759 130.078 321.233 129.82 321.674C129.57 322.098 129.233 322.435 128.809 322.688C128.368 322.944 127.894 323.07 127.384 323.072C127.329 323.077 127.274 323.082 127.22 323.085C126.841 323.1 126.486 323.02 126.159 322.849L126.11 322.834C125.986 326.208 125.884 329.584 125.81 332.96C125.743 335.903 125.653 338.845 125.594 341.787L125.566 343.259L125.512 346.512C125.495 347.85 125.503 349.131 125.049 350.392L124.994 350.538C124.667 351.38 124.412 352.553 123.536 353.021C122.837 353.395 121.896 353.257 121.494 352.528C121.157 351.918 121.449 351.04 121.948 350.629C121.938 350.602 121.923 350.577 121.91 350.55C121.834 350.327 121.717 350.116 121.648 349.891C121.429 349.177 121.489 348.416 121.487 347.674C121.487 346.366 121.531 345.057 121.566 343.75C121.643 340.969 121.732 338.191 121.841 335.412C122.209 326.09 122.903 316.769 123.698 307.473L123.967 304.336C124.326 300.164 124.698 295.988 125.225 291.837C125.249 291.639 125.274 291.44 125.301 291.242C125.019 291.101 124.756 290.905 124.548 290.687C123.713 289.81 123.206 288.499 122.731 287.37L122.622 287.112C122.106 285.908 121.63 284.688 121.385 283.394L121.361 283.275C121.249 282.724 121.029 281.748 121.613 281.481C121.918 281.342 122.111 281.441 122.21 281.746C122.223 281.786 122.213 281.83 122.191 281.865C122.431 282.234 122.808 282.579 123.046 282.921L123.86 284.085L124.263 284.671C124.773 285.422 125.319 286.141 125.881 286.85C126.325 283.736 126.868 280.635 127.713 277.604ZM161.113 346.983C162.131 346.185 163.79 346.618 163.79 348.091C163.79 349.571 162.129 349.997 161.113 349.199L161.062 349.161L161.014 349.122C160.46 348.69 160.441 347.564 160.972 347.095L161.014 347.06C161.045 347.032 161.078 347.008 161.113 346.983ZM116.819 344.107C117.28 344.107 117.709 344.224 118.108 344.457C118.281 344.588 118.452 344.722 118.626 344.856C118.943 345.173 119.161 345.55 119.283 345.984L119.375 346.663C119.387 347.015 119.315 347.342 119.154 347.647C119.05 347.964 118.874 348.239 118.626 348.47C118.393 348.721 118.12 348.897 117.803 348.998C117.524 349.146 117.225 349.221 116.906 349.221L116.819 349.219C116.356 349.219 115.927 349.102 115.527 348.869C115.354 348.738 115.183 348.604 115.009 348.47C114.695 348.153 114.474 347.776 114.353 347.342C114.323 347.117 114.293 346.889 114.261 346.663C114.249 346.311 114.323 345.984 114.481 345.679C114.585 345.362 114.761 345.087 115.009 344.856C115.243 344.606 115.515 344.43 115.832 344.328C116.112 344.18 116.412 344.106 116.731 344.106L116.819 344.107ZM232.767 339.393L233.417 339.48C234.039 339.621 234.54 340.079 234.874 340.602C235.053 340.883 235.149 341.185 235.164 341.51C235.236 341.832 235.221 342.157 235.12 342.481C235.045 342.798 234.899 343.076 234.683 343.312C234.609 343.428 234.522 343.535 234.423 343.629C234.22 343.969 233.913 344.192 233.595 344.42C233.328 344.591 233.037 344.683 232.725 344.697C232.519 344.752 232.311 344.752 232.103 344.697C231.793 344.683 231.503 344.591 231.235 344.42C231.077 344.298 230.918 344.174 230.762 344.053C230.623 343.892 230.494 343.726 230.373 343.552C230.291 343.361 230.212 343.173 230.132 342.984C229.986 342.531 230.058 342.129 230.137 341.676C230.15 341.599 230.17 341.53 230.197 341.455L230.25 341.311C230.393 340.934 230.469 340.807 230.722 340.479L230.819 340.35C230.867 340.285 230.916 340.223 230.973 340.166C231.131 340.003 231.357 339.866 231.535 339.725C231.917 339.504 232.328 339.395 232.767 339.393ZM148.691 337.806C149.051 337.809 149.388 337.898 149.7 338.079L150.107 338.394C150.355 338.644 150.526 338.936 150.622 339.277C150.645 339.455 150.67 339.633 150.694 339.809C150.704 340.084 150.647 340.342 150.521 340.583C150.442 340.831 150.303 341.043 150.107 341.227C149.926 341.42 149.71 341.559 149.462 341.641C149.246 341.754 149.013 341.813 148.766 341.814L148.691 341.812C148.329 341.812 147.992 341.72 147.68 341.539L147.273 341.227C147.026 340.977 146.855 340.682 146.758 340.342C146.736 340.164 146.711 339.988 146.686 339.809C146.676 339.534 146.733 339.277 146.859 339.038C146.941 338.79 147.078 338.575 147.273 338.394C147.454 338.198 147.67 338.059 147.918 337.98C148.134 337.866 148.363 337.809 148.609 337.805L148.691 337.806ZM132.25 336.986C132.767 336.981 133.293 337.127 133.717 337.427C134.128 337.719 134.441 338.034 134.642 338.508C134.696 338.637 134.75 338.763 134.798 338.892C135.011 339.46 135.051 340.03 134.756 340.585C134.471 341.123 133.856 341.358 133.305 341.519C132.839 341.658 132.311 341.681 131.848 341.515C131.617 341.433 131.392 341.346 131.184 341.22C130.794 340.979 130.584 340.694 130.323 340.342C130.12 339.995 130.019 339.618 130.019 339.217C130.019 338.812 130.12 338.438 130.323 338.089C130.722 337.407 131.461 336.991 132.25 336.986ZM105.974 337.464C106.629 337.464 107.204 337.767 107.598 338.277C107.997 338.795 108.143 339.44 107.967 340.082C107.781 340.761 107.219 341.356 106.522 341.527C106.007 341.653 105.585 341.649 105.072 341.562C104.638 341.487 104.306 341.229 103.974 340.962C103.594 340.652 103.478 340.087 103.54 339.631C103.599 339.175 103.81 338.877 104.13 338.607L104.132 338.6L104.013 338.691C104.058 338.652 104.103 338.61 104.148 338.567C104.162 338.543 104.175 338.515 104.187 338.488C104.37 338.176 104.618 337.93 104.928 337.747C105.253 337.559 105.6 337.464 105.974 337.464ZM258.566 329.956C258.926 329.859 259.288 329.859 259.647 329.956C259.913 330.018 260.143 330.14 260.339 330.32C260.538 330.45 260.7 330.615 260.822 330.821L260.862 330.891C261.145 331.371 261.189 331.922 261.068 332.457C260.917 333.119 260.307 333.721 259.647 333.877L259.625 333.881L259.603 333.887C259.335 333.972 259.065 333.984 258.797 333.922C258.527 333.91 258.276 333.83 258.046 333.682C257.754 333.493 257.508 333.25 257.32 332.958C257.171 332.725 257.092 332.475 257.079 332.204C257.032 332.026 257.032 331.847 257.079 331.669C257.092 331.399 257.171 331.148 257.32 330.915L257.637 330.506L257.669 330.479C257.922 330.226 258.222 330.053 258.566 329.956ZM233.61 316.838C236.86 316.838 236.855 321.88 233.61 321.88C230.361 321.88 230.365 316.838 233.61 316.838ZM114.632 316.201C114.975 316.124 115.317 316.139 115.656 316.246C115.862 316.333 116.065 316.419 116.269 316.503L116.789 316.905C116.886 316.987 116.933 317.076 117.022 317.193L117.134 317.339C117.295 317.554 117.299 317.6 117.476 318.06C117.595 318.501 117.595 318.942 117.476 319.384C117.419 319.597 117.332 319.798 117.221 319.984C117.119 320.162 116.997 320.319 116.859 320.463L116.789 320.534C116.556 320.784 116.281 320.96 115.964 321.065C115.763 321.181 115.547 321.238 115.317 321.238C114.975 321.315 114.632 321.3 114.293 321.193C114.087 321.107 113.884 321.02 113.681 320.936L113.16 320.534L112.759 320.014L112.631 319.708L112.501 319.401L112.409 318.72C112.397 318.365 112.469 318.038 112.63 317.731C112.692 317.515 112.801 317.324 112.959 317.165C113.074 316.972 113.227 316.818 113.421 316.704C113.579 316.545 113.77 316.437 113.986 316.375C114.187 316.258 114.402 316.201 114.632 316.201ZM275.363 312.599C275.633 312.59 275.886 312.646 276.119 312.77C276.201 312.798 276.28 312.832 276.357 312.872C276.657 313.048 276.895 313.286 277.071 313.584C277.215 313.812 277.294 314.057 277.306 314.322C277.36 314.561 277.355 314.802 277.29 315.041L277.269 315.113C277.215 315.309 277.133 315.49 277.024 315.656C277.014 315.676 277.001 315.695 276.987 315.713C276.821 315.976 276.6 316.191 276.327 316.353C276.025 316.526 275.7 316.615 275.348 316.618C274.647 316.618 274.042 316.238 273.672 315.656C273.62 315.574 273.591 315.47 273.554 315.386C273.521 315.306 273.469 315.205 273.442 315.113C273.348 314.761 273.348 314.409 273.442 314.057C273.504 313.799 273.62 313.574 273.796 313.383C273.937 313.167 274.123 312.996 274.354 312.872C274.64 312.705 274.947 312.616 275.274 312.602L275.363 312.599ZM138.156 310.133C138.5 310.039 138.841 310.032 139.182 310.111L139.267 310.133C139.539 310.198 139.775 310.322 139.978 310.505C140.204 310.654 140.385 310.849 140.516 311.092C140.705 311.417 140.799 311.769 140.801 312.146C140.799 312.523 140.705 312.875 140.516 313.199C140.33 313.514 140.08 313.762 139.765 313.948L139.493 314.079C139.265 314.223 139.022 314.3 138.759 314.312C138.583 314.359 138.407 314.359 138.233 314.312C138.055 314.312 137.889 314.268 137.735 314.179C137.567 314.131 137.423 314.047 137.299 313.923C137.083 313.784 136.915 313.601 136.791 313.37L136.59 312.897L136.521 312.371L136.59 311.848L136.699 311.591C136.798 311.236 136.977 310.929 137.237 310.669C137.497 310.41 137.804 310.232 138.156 310.133ZM261.085 305.951C261.447 305.837 261.806 305.822 262.166 305.902C262.409 305.902 262.637 305.964 262.848 306.088C263.078 306.152 263.276 306.266 263.445 306.435C263.74 306.625 263.97 306.878 264.141 307.193L264.414 307.84C264.578 308.259 264.518 308.876 264.419 309.298C264.337 309.645 264.179 309.947 263.943 310.205C263.824 310.406 263.666 310.564 263.465 310.683C263.235 310.892 262.97 311.041 262.67 311.129L262.587 311.152L262.558 311.159C262.552 311.162 262.548 311.162 262.543 311.162C262.54 311.164 262.535 311.164 262.533 311.164C262.414 311.194 262.292 311.211 262.166 311.216C261.806 311.295 261.447 311.281 261.085 311.167C260.872 311.077 260.656 310.986 260.441 310.894C260.257 310.755 260.076 310.614 259.893 310.473C259.752 310.289 259.61 310.106 259.469 309.925C259.27 309.615 259.164 309.278 259.149 308.918C259.085 308.678 259.085 308.44 259.149 308.199C259.149 307.954 259.211 307.729 259.332 307.518C259.442 307.181 259.628 306.891 259.893 306.646C260.076 306.504 260.257 306.363 260.441 306.224C260.656 306.132 260.872 306.041 261.085 305.951ZM102.987 297.077C103.361 296.976 103.736 296.976 104.11 297.077L104.613 297.288C104.861 297.422 105.057 297.602 105.206 297.833C105.394 298.036 105.52 298.277 105.585 298.552C105.731 298.929 105.714 299.526 105.597 299.91C105.466 300.347 105.263 300.694 104.948 301.021C104.425 301.561 103.622 301.718 102.91 301.554C102.714 301.509 102.528 301.423 102.36 301.316C101.822 300.984 101.46 300.404 101.463 299.762C101.463 299.692 101.468 299.623 101.478 299.554C101.443 299.412 101.43 299.266 101.436 299.112L101.51 298.552L101.515 298.537C101.614 298.183 101.793 297.875 102.053 297.615C102.293 297.377 102.573 297.205 102.894 297.102L102.975 297.077H102.987ZM290.035 241.416C289.358 235.864 286.812 229.891 279.046 233.151L278.47 233.368C276.548 234.095 274.309 235.051 273.14 236.731C272.334 237.888 272.607 240.132 272.495 241.483C271.989 245.875 272.26 250.261 272.788 254.635C273.469 264.887 271.313 275.509 267.022 284.827C271.317 291.776 277.065 298.258 284.906 301.155C285.238 293.253 286.785 285.497 288.431 277.787L288.496 277.451C289.154 273.974 289.484 270.406 291.767 267.515C296.412 262.472 302.801 265.326 305.857 257.226C305.215 256.901 305.57 255.79 306.343 256.004C309.024 256.479 309.46 251.51 307.625 250.312C305.713 249.146 307.638 246.996 306.824 245.444C306.37 244.775 305.391 244.752 304.947 243.981C303.771 241.143 309.658 239.324 302.735 236.125C301.317 235.621 299.734 235.934 298.304 235.928C296.202 236.124 294.531 237.606 292.608 238.072C294.702 243.493 289.419 248.713 284.651 244.383C282.056 246.835 279.155 252.425 285.462 249.819C288.549 247.759 291.206 245.096 294.79 243.827L294.865 243.804C296.195 243.368 302.016 240.54 301.728 242.988C299.547 245.092 295.951 245.067 293.426 246.775C289.925 248.394 287.687 252.317 283.496 252.263C282.53 258.129 289.187 254.56 291.666 252.942L292.353 252.569C295.85 250.68 299.4 248.93 303.477 248.907C304.603 248.899 304.598 250.634 303.477 250.649C298.163 250.683 293.837 254.004 289.386 256.474C288.947 259.899 293.962 258.4 295.865 257.894C297.86 257.614 301.065 255.456 302.811 256.596C303.494 258.351 300.488 258.22 299.442 258.753C304.219 261.047 300.034 262.492 298.753 258.966L298.378 259.094C295.179 260.169 287.422 262.381 288.345 256.963C287.174 257.481 285.746 257.791 284.453 257.503C281.227 262.275 276.08 260.428 283.56 257.176C281.875 256.392 281.312 253.365 282.931 252.238C277.043 251.879 281.414 245.701 283.851 243.643C283.621 243.41 283.398 243.173 283.191 242.933C281.786 243.602 280.308 244.009 278.729 244.152C277.217 244.288 276.88 241.716 278.372 241.505C279.971 241.279 281.444 240.853 282.851 240.05C284.985 239.128 285.713 243.088 287.849 243.228C289.014 243.458 289.802 242.437 290.035 241.416ZM240.464 292.501C240.98 292.501 241.438 292.717 241.812 293.059C242.187 293.401 242.348 293.914 242.37 294.405C242.38 294.668 242.325 294.913 242.206 295.141C242.13 295.377 241.998 295.58 241.812 295.754C241.465 296.098 240.952 296.311 240.464 296.311C239.949 296.311 239.49 296.096 239.115 295.754C238.741 295.409 238.58 294.898 238.558 294.405C238.548 294.145 238.603 293.899 238.721 293.671C238.79 293.459 238.904 293.271 239.061 293.111L239.115 293.059C239.463 292.712 239.976 292.501 240.464 292.501ZM256.087 280.745L256.17 280.747C256.606 280.749 257.01 280.858 257.387 281.076C257.55 281.203 257.714 281.327 257.875 281.453C258.175 281.756 258.381 282.11 258.495 282.519C258.611 282.946 258.611 283.375 258.495 283.801C258.455 284.046 258.364 284.284 258.22 284.49C258.006 284.844 257.724 285.129 257.367 285.34C256.997 285.556 256.598 285.662 256.17 285.665C255.741 285.662 255.342 285.556 254.972 285.34C254.615 285.129 254.333 284.844 254.122 284.49C253.976 284.284 253.884 284.046 253.844 283.801C253.728 283.375 253.728 282.946 253.844 282.519C253.95 282.139 254.135 281.807 254.401 281.519L254.464 281.453C254.682 281.218 254.94 281.052 255.24 280.955C255.504 280.817 255.786 280.747 256.087 280.745ZM136.857 280.878C137.041 280.828 137.222 280.828 137.405 280.878C137.678 280.89 137.933 280.972 138.169 281.121C138.308 281.23 138.447 281.337 138.585 281.443L138.706 281.589C138.965 281.904 138.972 281.958 139.17 282.437C139.252 282.705 139.265 282.973 139.205 283.241C139.205 283.422 139.158 283.59 139.068 283.746C139.019 283.917 138.935 284.066 138.808 284.19C138.719 284.341 138.6 284.462 138.449 284.552C138.256 284.728 138.028 284.849 137.765 284.911L137.232 284.983C137.162 284.973 137.091 284.963 137.021 284.956C136.938 284.953 136.856 284.944 136.777 284.929L136.696 284.911L136.623 284.892C136.526 284.863 136.431 284.825 136.34 284.777C136.166 284.728 136.015 284.641 135.886 284.512C135.663 284.368 135.484 284.175 135.355 283.935L135.321 283.855C135.274 283.771 135.234 283.684 135.204 283.59C135.12 283.441 135.078 283.283 135.075 283.112C135.026 282.884 135.029 282.659 135.088 282.433L135.11 282.358L135.301 281.904C135.4 281.751 135.504 281.594 135.638 281.468C135.718 281.397 135.915 281.243 136.026 281.166L136.094 281.121C136.33 280.972 136.585 280.89 136.857 280.878ZM110.178 276.488C111.182 277.492 110.738 279.336 109.333 279.693L109.172 279.733C107.813 280.078 106.589 278.851 106.934 277.492L106.973 277.334C107.33 275.928 109.174 275.484 110.178 276.488ZM277.11 265.869C277.101 265.73 277.279 265.681 277.368 265.763C278.563 266.834 279.324 268.118 280.774 268.948C282.232 269.781 283.734 269.714 285.253 270.252C285.769 270.435 285.771 271.124 285.253 271.305C282.378 272.309 277.329 268.906 277.11 265.869ZM142.003 265.651C142.323 265.552 142.646 265.537 142.965 265.609C143.184 265.609 143.387 265.663 143.573 265.772C143.778 265.83 143.955 265.934 144.105 266.082C144.287 266.189 144.43 266.335 144.539 266.516C144.753 266.749 144.896 267.022 144.971 267.334L145.055 267.976L144.971 268.618C144.889 268.809 144.807 269.002 144.728 269.193L144.506 269.493C144.327 269.733 144.298 269.735 143.863 270.058C143.585 270.234 143.285 270.331 142.965 270.343C142.752 270.403 142.539 270.403 142.323 270.343C142.108 270.343 141.904 270.289 141.716 270.18C141.513 270.123 141.334 270.019 141.183 269.87C140.92 269.699 140.715 269.473 140.563 269.193C140.481 269.002 140.4 268.809 140.321 268.618L140.234 267.976L140.321 267.334L140.325 267.314C140.439 266.913 140.643 266.563 140.935 266.268L141.416 265.896C141.604 265.775 141.8 265.713 142.003 265.651ZM257.716 266.132C258.403 265.943 259.157 266.142 259.66 266.645C260.163 267.148 260.361 267.899 260.173 268.586C259.987 269.255 259.449 269.798 258.777 269.979C258.577 270.033 258.373 270.063 258.168 270.053C257.823 270.051 257.501 269.964 257.201 269.791L256.814 269.49C256.626 269.317 256.494 269.111 256.417 268.874C256.296 268.645 256.241 268.4 256.251 268.135L256.249 268.088C256.241 267.994 256.254 267.899 256.284 267.808C256.284 267.711 256.299 267.617 256.323 267.525C256.504 266.856 257.05 266.315 257.716 266.132ZM109.692 259.42C109.913 259.412 110.119 259.456 110.31 259.558C110.51 259.623 110.681 259.732 110.825 259.89C110.984 260.034 111.093 260.208 111.157 260.406C111.259 260.597 111.304 260.803 111.296 261.023C111.296 261.313 111.222 261.583 111.078 261.831C110.994 261.94 110.91 262.049 110.825 262.156C110.627 262.357 110.391 262.493 110.119 262.57L109.96 262.624C109.727 262.709 109.499 262.714 109.256 262.682C109.001 262.647 108.765 262.577 108.557 262.419C108.354 262.3 108.193 262.138 108.074 261.935L107.937 261.613C107.908 261.504 107.895 261.341 107.888 261.226C107.888 261.209 107.888 261.194 107.885 261.177C107.885 261.08 107.915 260.845 107.94 260.748C107.994 260.545 108.106 260.351 108.232 260.188C108.341 260.017 108.49 259.883 108.674 259.784L108.69 259.771L108.708 259.759C108.765 259.719 108.825 259.68 108.884 259.637C109.132 259.494 109.402 259.42 109.692 259.42ZM237.695 257.659C238.092 257.659 238.461 257.761 238.803 257.959C238.815 257.964 238.828 257.969 238.838 257.974C239.165 258.167 239.425 258.428 239.619 258.755C239.817 259.095 239.916 259.462 239.916 259.853C239.916 260.247 239.817 260.612 239.619 260.951C239.425 261.279 239.165 261.539 238.838 261.732C238.828 261.739 238.815 261.744 238.803 261.749C238.461 261.948 238.092 262.047 237.695 262.049C237.301 262.047 236.932 261.948 236.589 261.749C235.92 261.358 235.501 260.626 235.501 259.853C235.501 259.079 235.92 258.348 236.589 257.959C236.932 257.761 237.301 257.659 237.695 257.659ZM134.755 254.793L134.823 254.792C135.085 254.781 135.33 254.836 135.556 254.958C135.792 255.034 135.997 255.166 136.171 255.352L136.533 255.654L136.638 255.739C136.655 255.753 136.672 255.768 136.689 255.783C136.932 256.028 137.098 256.316 137.192 256.648C137.222 256.839 137.247 257.027 137.267 257.218C137.321 257.714 137.029 258.222 136.706 258.574C136.533 258.76 136.327 258.891 136.089 258.971C135.861 259.09 135.613 259.144 135.35 259.134C134.812 259.087 134.302 258.973 133.915 258.557C133.87 258.507 133.828 258.455 133.784 258.403L133.474 258.046C133.239 257.808 133.075 257.528 132.986 257.206C132.961 257.035 132.939 256.866 132.916 256.698C132.894 256.189 133.142 255.713 133.474 255.352C133.781 255.017 134.302 254.812 134.755 254.793ZM122.243 249.573C124.82 249.573 124.815 253.572 122.243 253.572C119.667 253.572 119.672 249.573 122.243 249.573ZM251.854 243.968L251.936 243.969C252.362 243.971 252.761 244.078 253.131 244.294L253.611 244.663C253.904 244.96 254.107 245.308 254.221 245.709C254.248 245.92 254.276 246.13 254.306 246.339C254.318 246.666 254.248 246.971 254.1 247.253C254.006 247.546 253.842 247.801 253.611 248.017C253.396 248.247 253.143 248.411 252.848 248.505C252.566 248.654 252.261 248.723 251.936 248.711C251.507 248.708 251.108 248.602 250.738 248.386C250.578 248.262 250.419 248.138 250.258 248.017C249.988 247.742 249.794 247.425 249.678 247.062L249.65 246.971L249.564 246.339C249.551 246.014 249.62 245.709 249.769 245.427C249.864 245.132 250.027 244.879 250.258 244.663C250.473 244.432 250.729 244.269 251.021 244.175C251.28 244.038 251.558 243.968 251.854 243.968ZM240.243 236.483C240.474 236.475 240.687 236.522 240.888 236.627C241.093 236.694 241.272 236.81 241.423 236.971C241.743 237.227 241.939 237.737 241.939 238.151C241.939 238.565 241.743 239.076 241.423 239.331C241.215 239.537 240.97 239.68 240.687 239.76L240.243 239.82C239.812 239.839 239.373 239.614 239.066 239.331C239.004 239.274 238.944 239.217 238.882 239.162C238.603 238.905 238.481 238.52 238.463 238.151C238.456 237.955 238.498 237.772 238.587 237.601C238.645 237.423 238.744 237.271 238.882 237.14C238.944 237.085 239.004 237.028 239.066 236.971C239.401 236.661 239.792 236.505 240.243 236.483ZM313.809 223.15C315.438 221.165 314.49 219.753 312.042 220.244C307.825 220.814 303.857 223.479 300.144 225.39C296.09 227.531 291.913 229.296 287.779 231.308C289.485 232.355 290.754 233.995 291.723 235.866C293.658 234.397 296.131 233.694 298.545 233.603C302.924 229.408 310.178 228.447 313.809 223.15ZM121.375 229.736C121.817 229.738 122.231 229.842 122.618 230.049L122.701 230.095L123.232 230.507C123.489 230.745 123.67 231.027 123.777 231.352C123.941 231.664 124.015 232.004 124.003 232.366C124.015 232.728 123.941 233.065 123.777 233.377C123.67 233.704 123.489 233.984 123.232 234.222C123.085 234.413 122.897 234.562 122.671 234.671C122.46 234.758 122.252 234.847 122.042 234.936C121.806 235.011 121.534 235.02 121.278 235.033C120.815 235.03 120.384 234.914 119.982 234.681L119.461 234.28C119.211 234.046 119.032 233.771 118.928 233.451C118.781 233.17 118.706 232.869 118.706 232.548L118.708 232.46C118.708 232.44 118.708 232.418 118.711 232.395C118.74 232.162 118.773 231.929 118.804 231.697C118.886 231.354 119.042 231.054 119.275 230.802C119.335 230.683 119.414 230.586 119.516 230.507C119.843 230.179 120.23 229.956 120.676 229.83C120.909 229.8 121.142 229.768 121.375 229.736ZM236.466 223.169C236.8 223.169 237.11 223.254 237.398 223.42C237.524 223.517 237.648 223.613 237.772 223.71C238.003 223.94 238.161 224.213 238.248 224.525L238.315 225.016C238.322 225.271 238.27 225.507 238.154 225.728C238.079 225.955 237.953 226.154 237.772 226.322C237.606 226.503 237.408 226.63 237.177 226.704C236.959 226.821 236.721 226.873 236.466 226.863C236.133 226.863 235.821 226.778 235.534 226.61C235.41 226.516 235.283 226.419 235.159 226.322C234.95 226.111 234.799 225.864 234.709 225.584L234.686 225.507L234.619 225.016C234.609 224.761 234.661 224.525 234.777 224.305C234.852 224.074 234.981 223.876 235.159 223.71C235.328 223.528 235.526 223.402 235.754 223.328C235.953 223.223 236.165 223.17 236.39 223.168L236.466 223.169ZM135.864 220.483L135.95 220.485C136.444 220.487 136.902 220.611 137.329 220.859C137.512 221.001 137.696 221.142 137.879 221.286C138.218 221.625 138.451 222.027 138.583 222.49L138.679 223.214C138.694 223.591 138.615 223.94 138.444 224.265C138.335 224.605 138.147 224.897 137.879 225.145C137.634 225.41 137.341 225.598 137.001 225.708C136.677 225.879 136.327 225.958 135.95 225.943C135.457 225.943 134.998 225.819 134.572 225.571C134.389 225.43 134.205 225.286 134.02 225.145C133.682 224.803 133.449 224.401 133.318 223.94L133.221 223.214C133.206 222.84 133.286 222.488 133.457 222.163C133.566 221.826 133.754 221.531 134.02 221.286C134.267 221.018 134.56 220.829 134.899 220.72C135.199 220.562 135.52 220.485 135.864 220.483ZM227.649 213.668C227.874 213.608 228.1 213.608 228.325 213.668C228.662 213.683 228.977 213.784 229.27 213.97L229.783 214.367C229.79 214.374 229.798 214.382 229.805 214.392C230.115 214.704 230.33 215.074 230.449 215.498L230.539 216.164C230.551 216.509 230.479 216.831 230.323 217.129C230.23 217.415 230.076 217.663 229.864 217.879L229.783 217.959C229.552 218.207 229.282 218.383 228.967 218.484C228.769 218.601 228.553 218.658 228.325 218.658C227.988 218.735 227.649 218.72 227.311 218.613C227.111 218.526 226.907 218.442 226.704 218.358L226.64 218.321C225.874 217.902 225.4 217.024 225.4 216.164C225.4 215.304 225.874 214.424 226.64 214.005C226.662 213.995 226.682 213.983 226.704 213.97C226.997 213.784 227.311 213.683 227.649 213.668Z" fill="black"/>
<path fill-rule="evenodd" clip-rule="evenodd" d="M203.526 196.636C198.405 196.622 193.719 195.622 189.272 193.433C183.903 191.678 178.04 190.721 173.682 186.835C171.561 187.286 169.386 185.103 167.626 183.804C164.755 194.389 149.814 192.628 143.502 185.787C139.64 182.519 138.087 174.434 144.793 172.296C133.805 164.817 129.837 151.898 130.592 137.92C131.387 114.471 149.376 90.0923 172.498 86.0251C177.059 85.221 181.743 85.306 186.285 86.2623C188.821 86.8136 191.272 87.8825 193.987 87.8339C204.514 86.1664 216.076 86.358 224.771 93.1095C238.668 102.427 240.6 121.07 238.976 136.059L239.042 136.199C238.234 141.701 236.891 146.74 234.352 150.057C234.155 154.826 232.501 165.006 232.379 169.031C232.675 187.758 222.061 196.07 203.526 196.636Z" fill="#EDB98A"/>
<path fill-rule="evenodd" clip-rule="evenodd" d="M167.559 89.5454C177.042 86.3304 183.026 87.9913 191.876 89.7669L192.421 89.8757L193.28 90.0439C202.16 89.447 209.809 87.4937 218.383 91.756C236.223 99.2727 239.525 120.023 238.297 137.35L238.224 137.673C237.643 140.201 236.825 142.813 235.107 144.822C232.222 130.595 222.95 121.202 211.547 112.234L211.139 111.74C209.724 110.03 208.179 108.253 206.312 107.046C206.373 106.493 206.404 105.939 206.394 105.392C206.38 104.637 205.304 104.002 204.743 104.658L204.636 104.791C203.904 105.682 200.058 109.963 198.112 112.16L197.869 112.435L197.282 113.104L196.29 114.293C185.589 127.114 174.301 139.984 158.341 146.137C154.516 143.714 149.877 145.848 147.487 149.262C140.695 157.195 148.568 172.153 159.006 168.095C159.64 173.581 162.38 179.766 166.096 183.904C162.024 189.598 155.508 190.626 149.413 187.403C143.464 184.739 139.614 179.148 143.266 172.963C143.343 172.919 143.422 172.876 143.502 172.833C146.302 174.706 149.565 175.932 152.94 176.181L153.196 176.198C155.303 176.298 155.27 172.971 153.131 172.801C138.983 170.999 132.702 154.808 132.688 142.111C132.087 119.761 145.991 96.7644 167.559 89.5454Z" fill="#C93305"/>
<path fill-rule="evenodd" clip-rule="evenodd" d="M142.373 172.037C109.091 142.568 143.235 76.2496 186.539 85.0486C190.921 86.5193 195.372 87.0296 199.911 85.94C222.783 82.3608 241.495 101.81 240.527 124.311C240.688 128.16 240.657 132.012 240.242 135.845C239.768 140.883 238.471 146.272 235.58 150.46C235.547 153.273 233.894 163.827 233.628 168.792L233.577 169.828C233.314 174.931 232.746 180.135 230.507 184.788C223.624 197.287 205.892 199.969 193.178 196.328L192.649 196.154C190.287 195.368 187.61 194.319 186.111 192.337C185.318 191.29 186.63 189.953 187.721 190.237C189.126 190.604 190.29 191.462 191.601 192.072C200.153 195.859 210.269 194.591 218.711 191.053L218.966 190.945C234.086 184.795 229.944 162.916 231.934 150.441C232.387 134.6 219.202 123.812 209.269 113.335L208.971 113.003C207.951 111.869 206.873 110.763 205.454 110.521C205.065 111.703 204.109 112.709 203.223 113.571L201.218 115.742C199.213 117.91 197.203 120.07 195.165 122.211C185.27 132.284 175.187 145.961 159.933 146.991C160.871 147.841 161.693 148.813 162.676 149.613C163.091 150.029 162.668 150.727 162.112 150.584C161.075 150.319 160.412 149.333 159.731 148.563C151.493 145.098 144.727 157.904 151.707 163.206C154.296 165.954 161.863 163.863 160.113 167.251C162.023 173.252 164.962 179.288 169.934 183.302C171.394 184.407 173.674 184.966 174.643 186.592C174.877 186.984 174.757 187.624 174.318 187.832C172.206 188.819 169.937 187.159 168.315 185.909C159.749 202.69 128.335 184.15 142.373 172.037ZM193.279 90.0399L192.421 89.8716C183.268 88.0571 177.234 86.2608 167.558 89.5414C145.99 96.7604 132.086 119.756 132.687 142.107C132.701 154.804 138.982 170.995 153.13 172.797C155.269 172.967 155.303 176.294 153.195 176.194L153.13 176.19C149.643 175.972 146.267 174.704 143.389 172.754C139.528 179.02 143.397 184.706 149.413 187.399C155.508 190.622 162.023 189.594 166.096 183.9C162.379 179.762 159.639 173.577 159.005 168.091C148.567 172.149 140.694 157.191 147.486 149.258C149.876 145.844 154.515 143.71 158.34 146.133C174.794 139.79 186.282 126.307 197.281 113.1L197.868 112.43C199.794 110.251 204.222 105.327 204.713 104.691C205.265 103.975 206.379 104.619 206.393 105.388C206.403 105.935 206.373 106.489 206.311 107.042C208.359 108.365 210.019 110.375 211.546 112.23C222.949 121.198 232.222 130.591 235.106 144.818C236.897 142.723 237.71 139.973 238.296 137.346C239.525 120.019 236.223 99.2687 218.383 91.752C209.809 87.4897 202.159 89.443 193.279 90.0399ZM152.822 155.117C152.079 154.452 156.987 154.372 157.45 154.892L157.556 154.929C159.313 155.548 162.531 157.544 160.951 159.616C158.698 161.744 157.129 155.427 152.822 155.117Z" fill="black"/>
<path fill-rule="evenodd" clip-rule="evenodd" d="M214.022 176.255C212.196 176.783 210.236 176.831 208.375 176.285C206.686 175.789 204.953 174.699 203.71 173.256C202.607 171.974 201.892 170.417 201.92 168.754C201.923 168.564 201.991 168.406 202.095 168.283C202.208 168.15 202.365 168.059 202.533 168.02C202.706 167.979 202.889 167.994 203.045 168.065C203.186 168.129 203.306 168.237 203.382 168.396C203.573 168.647 203.763 168.894 203.954 169.135C205.49 171.03 206.976 172.447 209.285 172.955C210.538 173.231 211.789 173.109 212.937 172.688C214.166 172.238 215.276 171.446 216.147 170.432C216.54 169.975 217.005 169.788 217.459 169.784C217.973 169.781 218.482 170.02 218.865 170.402C219.242 170.778 219.494 171.288 219.517 171.822C219.537 172.291 219.384 172.781 218.977 173.218C217.637 174.656 215.901 175.71 214.022 176.255ZM213.966 152.51C215.838 153.647 218.69 156.301 216.676 159.121C214.306 161.608 210.893 158.757 209.211 157.467C207.652 156.468 205.9 159.038 207.347 160.205C219.499 169.202 224.43 152.807 214.912 151.172C213.864 150.992 213.475 152.158 213.966 152.51ZM196.456 147.503C195.854 147.119 195.146 146.986 194.362 147.343C193.749 147.622 192.674 148.551 191.926 149.773C191.414 150.608 191.051 151.589 191.127 152.61C191.144 152.847 191.057 153.022 190.918 153.151C190.809 153.253 190.652 153.328 190.466 153.352C190.309 153.372 190.133 153.354 189.99 153.309C189.718 153.224 189.574 153.047 189.519 152.903C188.996 151.512 189.221 149.96 189.808 148.559C190.601 146.669 192.039 145.086 192.982 144.575C194.595 143.702 196.498 143.661 198.114 144.552C199.489 145.309 200.349 146.532 201.204 147.779C201.386 148.044 201.566 148.307 201.752 148.566C202.126 149.084 202.163 149.597 202.019 150.038C201.858 150.526 201.45 150.938 200.938 151.153C200.466 151.352 199.917 151.381 199.432 151.176C199.022 151.003 198.646 150.666 198.408 150.094C198.007 149.131 197.339 148.068 196.456 147.503ZM227.011 149.646C226.599 149.861 226.276 149.925 225.819 149.788C225.567 149.713 225.317 149.567 225.121 149.371C224.927 149.178 224.787 148.937 224.733 148.669C224.599 148.009 224.238 147.392 223.724 146.989C223.284 146.645 222.729 146.462 222.113 146.565C221.449 146.676 220.816 147.102 220.38 147.605C220.234 147.773 220.12 147.964 220.005 148.153C219.79 148.508 219.581 148.838 219.285 149.098C219.173 149.197 219.004 149.266 218.84 149.266C218.773 149.266 218.705 149.255 218.641 149.235C217.98 148.571 217.853 148.067 217.874 147.568C217.896 147.044 218.103 146.514 218.436 146.019C219.219 144.859 220.705 143.907 221.708 143.692C223.081 143.397 224.445 143.751 225.539 144.518C226.664 145.307 227.498 146.533 227.758 147.914C227.82 148.246 227.794 148.605 227.667 148.916C227.543 149.221 227.328 149.481 227.011 149.646ZM199.485 135.13C198.66 135.933 197.685 136.057 196.698 136.168C196.15 136.23 195.712 136.28 195.281 136.377C194.097 136.644 192.927 137.047 191.859 137.626C190.743 138.232 189.527 138.963 188.652 139.9C188.444 140.122 188.247 140.356 188.051 140.59C187.872 140.804 187.699 141.01 187.518 141.208C187.309 141.436 187.11 141.675 186.913 141.913C186.791 142.114 186.767 142.163 186.743 142.215C186.706 142.292 186.663 142.378 186.613 142.471C186.546 142.598 186.467 142.737 186.385 142.864C186.248 143.094 186.174 143.158 186.11 143.186C186.005 143.233 185.905 143.256 185.807 143.244C185.716 143.232 185.631 143.188 185.546 143.117C185.123 142.759 184.998 142.172 185.011 141.549C185.03 140.604 185.379 139.558 185.7 138.915C186.447 137.42 187.483 135.866 188.73 134.751C190.151 133.477 191.707 132.513 193.494 131.849C194.604 131.436 195.89 131.057 197.099 131.105C197.97 131.14 198.801 131.398 199.488 132.045C199.909 132.442 200.111 133.006 200.111 133.57C200.111 134.145 199.901 134.724 199.485 135.13ZM228.687 142.483C228.635 142.569 228.562 142.628 228.481 142.664C228.397 142.701 228.302 142.712 228.212 142.696C228.121 142.681 228.035 142.64 227.967 142.578C227.902 142.518 227.853 142.438 227.83 142.341C227.283 139.938 226.221 138.15 223.953 136.997C222.837 136.429 221.554 136.069 220.34 135.782C219.987 135.698 219.614 135.644 219.239 135.589C218.062 135.417 216.876 135.22 216.109 134.269C215.647 133.696 215.453 132.963 215.563 132.293C215.666 131.662 216.035 131.083 216.705 130.737C218.374 129.874 220.448 130.72 222.133 131.442C222.258 131.495 222.381 131.548 222.501 131.598C224.149 132.294 225.652 133.212 226.887 134.526C227.868 135.567 228.776 137.107 229.142 138.692C229.446 140.01 229.375 141.356 228.687 142.483Z" fill="black"/>
<path fill-rule="evenodd" clip-rule="evenodd" d="M240.31 146.044C237.946 162.029 221.449 163.797 218.518 147.927C218.988 147.721 219.326 147.316 219.256 146.529C219.239 143.07 220.313 139.415 223.433 137.492C226.657 135.507 230.429 135.31 234.16 135.36C241.28 135.191 241.13 141.142 240.31 146.044ZM215.935 139.091C213.701 138.997 210.874 139.076 208.872 140.437C208.322 138.956 206.892 137.373 205.447 136.527C210.817 136.684 216.344 136.156 221.754 135.746C220.459 136.628 219.254 137.955 218.471 139.488C217.745 139.1 216.704 139.136 215.935 139.091ZM206.086 147.738C199.89 169.065 184.425 159.77 182.739 157.036C179.698 152.514 179.126 141.519 181.775 138.579C185.567 135.921 190.935 136.605 195.415 136.54C203.645 136.651 209.49 139.113 206.086 147.738ZM247.625 137.93C245.942 137.709 244.143 137.665 242.578 138.406C242.096 136.358 240.583 134.646 238.875 133.892C238.668 133.633 238.699 133.493 237.993 133.532C233.656 132.229 228.804 132.919 224.636 134.255C218.055 134.809 211.149 135.247 204.512 136.01C198.295 133.218 179.532 132.809 178.366 139.691C176.9 139.471 174.402 138.317 173.169 139.883C164.129 138.35 154.787 140.48 145.708 141.429C143.422 141.85 142.245 146.385 144.84 146.324C146.298 145.928 144.795 143.499 146.759 143.316C155.519 142.36 164.088 141.002 172.938 140.843C172.63 142.372 178.791 142.471 178.882 141.579C178.895 141.585 178.909 141.59 178.923 141.596C177.4 147.27 178.774 155.435 181.526 158.954C185.381 163.561 195.059 164.883 199.351 161.918C204.887 159.183 210.646 145.449 209.028 140.887C211.964 139.956 214.866 140.236 217.913 140.71C217.216 142.68 216.012 147.531 217.744 147.951C217.426 157.581 226.19 163.59 234.27 159.64C241.263 156.357 243.708 145.967 242.852 139.66C243.723 141.342 251.033 139.511 247.625 137.93Z" fill="black"/>
</g>
</g>
<defs>
<radialGradient id="paint0_radial_41_7141" cx="0" cy="0" r="1" gradientUnits="userSpaceOnUse" gradientTransform="translate(200.103 179) rotate(90) scale(179 200.103)">
<stop stop-color="#C1FFC9"/>
<stop offset="1" stop-color="#78E185"/>
</radialGradient>
<clipPath id="clip0_41_7141">
<rect width="400" height="358" fill="white"/>
</clipPath>
</defs>
</svg>
