<svg width="386" height="131" viewBox="0 0 386 131" fill="none" xmlns="http://www.w3.org/2000/svg">
<g clip-path="url(#clip0_41_7027)">
<path d="M85.9414 -26.6721C87.0876 -25.492 88.0323 -24.2019 89.38 -23.1418C88.7376 -32.5326 84.4802 -41.8133 84.2157 -51.264C84.052 -57.3745 83.3592 -64.115 85.8532 -69.9654C87.3269 -73.3957 91.1308 -77.136 94.0783 -79.9662C102.656 -88.2068 122.28 -87.8768 133.793 -85.3466C138.567 -84.2965 143.278 -82.6064 147.989 -81.6363C155.659 -80.0562 157.171 -81.5763 159.4 -87.0067C162.335 -94.1573 161.378 -107.228 176.291 -101.428C179.831 -100.048 182.665 -97.6775 186.28 -96.2974C188.875 -95.3073 191.029 -94.5873 193.497 -93.2972C196.76 -91.5971 205.01 -87.2567 208.789 -89.3969C213.21 -91.9171 207.882 -97.8275 215.641 -98.7776C221.41 -99.4777 226.36 -95.1073 232.041 -94.5673C239.397 -93.8672 239.989 -99.6577 245.493 -101.148C250.997 -102.638 254.953 -94.3673 259.978 -96.3574C261.351 -98.3776 261.15 -101.698 261.88 -103.988C263.026 -107.568 263.921 -110.228 266.478 -113.379C270.962 -118.919 276.076 -121.229 284.54 -121.349C293.055 -121.469 298.773 -120.499 305.525 -116.119C309.921 -113.259 311.029 -109.498 312.705 -105.418C313.586 -103.258 313.485 -98.9576 314.947 -97.3275C318.159 -96.7675 320.552 -99.5877 322.718 -101.008C325.489 -102.818 328.764 -104.278 332.039 -105.418C339.093 -107.878 348.552 -107.368 355.48 -104.758C363.491 -101.748 366.501 -98.7176 369.436 -92.2071C372.094 -86.3167 370.973 -82.2664 368.743 -76.3459C366.514 -70.4254 364.801 -65.5251 358.427 -61.8848C353.213 -58.9046 346.008 -58.4945 342.28 -54.0242C334.344 -44.5235 342.191 -32.2925 355.09 -29.9424C360.783 -28.9023 366.438 -29.4923 368.869 -24.4719C372.094 -17.8014 368.013 -11.921 365.065 -5.76051C363 -1.45019 359.763 2.73013 358.377 7.24048C356.299 13.981 359.863 18.5913 364.751 23.6817C368.315 27.412 371.615 31.3423 376.137 34.4226C381.957 38.3929 384.098 39.773 382.271 46.1434C380.445 52.5139 377.46 59.1644 373.19 64.4249C369.852 68.5352 362.257 73.8956 362.861 79.206C363.378 83.7163 370.242 86.1865 371.401 90.8369C373.089 97.5974 369.222 101.258 361.224 102.738C357.974 103.338 354.548 104.488 351.676 103.728C347.582 102.638 343.59 97.8974 340.541 95.5072C333.551 90.0268 328.752 83.3763 321.786 77.9159C314.229 71.9954 307.452 65.4649 297.665 61.8046C293.987 60.4245 293.143 60.9346 290.158 63.1047C287.173 65.2749 285.535 67.2851 284.477 70.3653C282.915 74.9557 281.53 80.3861 277.537 84.1263C273.342 88.0466 263.606 91.3169 257.169 90.2668C247.168 88.6367 236.651 84.1364 227.103 81.2561C225 80.6261 221.334 78.8459 219.067 78.8059C215.666 78.7459 212.316 81.8562 210.187 83.7463C200.035 92.757 207.479 120.069 183.736 118.919C174.868 118.489 166.366 113.539 159.06 110.088C149.676 105.648 145.419 113.179 140.444 118.029C136.766 121.619 130.039 127.69 124.661 128.44C118.577 129.29 109.647 123.969 104.231 122.059C99.3307 120.329 94.7333 118.469 89.9342 116.539C75.8269 110.868 61.6691 106.228 46.0755 104.698C43.3926 104.438 38.0771 104.178 35.6335 103.068C31.4013 101.148 29.7638 94.5172 27.8871 91.1769C24.8263 85.6865 22.6976 78.8459 26.829 73.5255C30.7337 68.5052 39.7397 64.0148 45.6094 60.4245C49.7283 57.9044 54.0234 55.6842 58.306 53.324C60.6993 52.0039 65.8384 50.2738 64.3521 47.8536C61.9588 43.9633 48.4813 44.6433 43.9972 44.3033C40.168 44.0133 36.2255 44.3633 32.5097 43.8533C27.6099 43.1832 21.438 41.3631 16.7775 40.023C12.9736 38.9229 12.8476 38.3529 13.4018 34.8326C14.0442 30.7323 15.4172 28.9021 20.0272 26.682C23.9697 24.7818 28.0004 22.5217 32.1822 20.9715C35.1549 19.8714 38.4802 19.5114 41.478 18.4813C37.3969 10.7408 23.7556 7.60049 29.915 -2.48027C34.6132 -10.1809 50.547 -6.11054 58.2431 -4.64043C70.0706 -2.38026 73.1314 -9.13078 75.8773 -16.7114C77.0361 -19.8916 78.1445 -21.0317 82.5909 -22.0518C86.7979 -23.0218 90.3625 -21.7117 89.3044 -26.6521" fill="#5E2D62"/>
<path d="M83.2209 -25.412C84.5057 -24.0519 85.6645 -22.6118 87.1508 -21.3817C88.9646 -19.8716 92.693 -20.9717 92.5292 -23.1519C92.0884 -29.0323 90.4131 -34.7828 89.0276 -40.5532C87.642 -46.3236 87.2515 -51.8541 87.1634 -57.6245C87.0878 -62.8749 87.4657 -68.1453 91.0933 -72.6957C93.9273 -76.2559 97.3156 -79.8762 102.115 -81.8363C110.655 -85.3266 121.865 -85.0266 130.984 -83.3465C137.32 -82.1764 143.202 -79.6662 149.639 -78.8061C154.236 -78.1961 158.33 -79.0361 160.559 -82.5364C162.436 -85.4866 163.268 -88.7369 164.099 -91.9471C164.477 -93.4272 164.867 -94.9073 165.421 -96.3475C165.547 -96.6875 165.699 -97.0275 165.85 -97.3575C166.039 -97.7876 166.001 -97.7076 166.152 -97.9376C166.328 -98.2276 166.517 -98.5176 166.719 -98.7976C166.807 -98.9177 167.412 -99.5877 167.059 -99.2377C167.298 -99.4677 167.55 -99.6777 167.827 -99.8777C168.268 -100.198 167.941 -99.9477 167.827 -99.8877C167.978 -99.9677 168.13 -100.058 168.293 -100.118C168.722 -100.278 168.029 -100.098 168.822 -100.288C169.011 -100.328 169.2 -100.368 169.389 -100.388C169.049 -100.338 169.225 -100.378 169.465 -100.388C171.43 -100.448 173.546 -99.8077 175.486 -98.9677C178.269 -97.7476 180.625 -95.9974 183.371 -94.7273C186.116 -93.4572 189.278 -92.5272 192.036 -91.1071C196.017 -89.0569 200.35 -86.8167 205.161 -86.4067C210.515 -85.9567 213.55 -89.0869 213.978 -92.9872C214.041 -93.5672 214.067 -94.5673 214.13 -94.8873C214.218 -95.3974 214.382 -95.7774 214.558 -95.9074C215.704 -96.7575 218.664 -96.2875 220.365 -95.7374C225.466 -94.0873 230.517 -90.907 236.361 -92.3972C238.54 -92.9572 240.304 -94.0673 241.815 -95.4074C243.037 -96.4875 244.221 -97.8276 245.67 -98.4976C246.022 -98.6676 246.312 -98.7776 246.69 -98.8476C246.98 -98.9076 247.194 -98.8676 247.017 -98.8876C247.723 -98.8076 248.214 -98.5476 249.02 -98.0876C250.343 -97.3075 251.98 -95.9474 253.504 -95.0474C255.28 -94.0073 257.396 -93.3572 259.613 -93.6873C262.939 -94.1873 263.707 -96.6375 264.135 -98.9877C265.004 -103.778 266.05 -108.408 269.488 -112.519C272.247 -115.809 275.937 -118.019 280.913 -118.659C285.888 -119.299 292.123 -119.049 296.973 -117.459C299.492 -116.629 301.961 -115.369 303.963 -113.909C305.966 -112.449 307.263 -110.469 308.183 -108.388C309.102 -106.308 309.921 -104.348 310.286 -102.218C310.626 -100.198 310.752 -97.8476 312.214 -96.0874C314.178 -93.7373 318.537 -94.9273 320.804 -96.2875C323.071 -97.6476 324.948 -99.3977 327.404 -100.648C332.921 -103.478 338.715 -104.898 345.303 -104.418C350.543 -104.038 356.198 -102.338 360.204 -99.5677C363.894 -97.0175 366.01 -93.1972 367.194 -89.4869C368.794 -84.4966 366.728 -79.6462 364.889 -74.8858C363.239 -70.6255 361.111 -66.2752 356.211 -63.725C351.613 -61.3248 345.983 -60.5647 341.864 -57.5145C337.745 -54.4643 335.831 -49.7839 335.932 -45.5036C336.133 -36.9529 344.194 -29.2423 354.725 -27.4622C357.181 -27.0422 359.725 -26.9322 362.144 -26.3621C364.562 -25.7921 365.595 -24.572 366.275 -22.7818C368.265 -17.5014 364.877 -12.241 362.496 -7.42067C359.977 -2.34029 356.047 2.57008 354.951 8.0305C353.944 13.0709 355.77 17.7012 359.284 21.9016C361.136 24.1217 363.227 26.2119 365.242 28.3421C367.257 30.4722 369.399 32.6924 371.817 34.6225C373.769 36.1826 376.024 37.4727 377.926 39.0629C379.072 40.0229 379.69 40.913 379.74 42.0831C379.841 44.2433 378.984 46.4234 378.266 48.4836C377.372 51.0638 376.314 53.614 375.042 56.0842C373.769 58.5544 372.359 60.7745 370.621 62.9347C369.147 64.7748 367.32 66.425 365.633 68.1451C362.169 71.7054 358.415 76.1657 360.053 80.8961C360.771 82.9662 362.458 84.6763 364.184 86.2765C365.645 87.6366 367.396 88.9967 368.114 90.7368C369.386 93.817 368.605 97.1973 365.179 98.8474C362.962 99.9175 360.393 100.278 357.911 100.818C355.191 101.408 352.999 101.858 350.643 100.398C348.288 98.9374 346.562 97.0973 344.686 95.3772C342.633 93.517 340.378 91.8069 338.375 89.9067C333.891 85.6664 329.974 81.0461 325.137 77.0358C320.703 73.3655 316.244 69.6352 311.445 66.2649C309.027 64.5648 306.457 62.9547 303.724 61.5846C301.205 60.3145 298.27 58.8644 295.259 58.5644C292.249 58.2643 290.183 59.6444 288.13 61.1346C285.863 62.7847 283.898 64.6848 282.651 66.935C280.195 71.3753 279.855 76.3857 276.731 80.636C274.061 84.2763 269.048 86.4465 264.034 87.4666C258.127 88.6666 252.308 86.7665 246.841 85.0864C240.48 83.1262 234.207 80.9161 227.922 78.8159C225.403 77.9758 223.01 76.7357 220.276 76.3857C217.09 75.9757 214.293 77.1658 211.913 78.7459C208.676 80.886 205.993 83.5363 204.368 86.6165C202.944 89.2967 202.113 92.1269 201.408 94.9771C199.997 100.588 199.153 107.008 195.677 111.708C194.77 112.928 194.291 113.429 192.855 114.459C192.742 114.539 192.628 114.609 192.515 114.689C192.125 114.939 192.855 114.499 192.44 114.729C192.112 114.909 191.772 115.089 191.419 115.249C190.462 115.689 190.361 115.719 189.442 115.939C185.058 117.019 179.907 116.169 175.473 114.629C172.437 113.579 169.553 112.228 166.731 110.858C164.099 109.578 161.517 108.088 158.683 107.108C153.581 105.348 148.619 106.498 144.802 109.558C141.439 112.258 138.97 115.629 135.821 118.489C133.932 120.209 131.942 121.869 129.75 123.349C128.125 124.449 125.996 125.779 123.843 125.979C121.689 126.18 119.358 125.409 117.469 124.719C114.899 123.789 112.468 122.669 110.012 121.579C104.332 119.059 98.2855 117.049 92.4788 114.709C79.694 109.568 66.4054 104.938 52.2225 102.878C49.1869 102.438 46.1261 102.158 43.0653 101.878C41.1759 101.708 38.4174 101.578 36.9437 100.718C35.2811 99.7475 34.3741 97.8674 33.6688 96.3972C32.7997 94.6071 32.1321 92.767 31.2378 90.9968C29.0461 86.6465 26.5395 81.8861 28.24 77.1358C29.8145 72.7654 35.3062 69.5752 39.677 66.975C44.9925 63.8048 50.3457 60.6445 55.8375 57.6643C58.3063 56.3242 60.8506 55.0741 63.3194 53.744C65.4607 52.5839 67.728 51.0238 67.7784 48.7936C67.8539 44.8633 62.3873 43.1532 58.3441 42.5831C53.9859 41.9631 49.5899 42.0031 45.194 41.8331C42.0828 41.7131 38.9716 41.6931 35.8605 41.5831C32.5981 41.4631 29.4366 40.753 26.3254 39.9729C23.2142 39.1929 20.1534 38.4028 17.1808 37.4327C16.8659 37.3327 16.6392 37.2027 16.3243 37.1027C16.2865 37.0927 16.0472 36.9627 16.3747 37.3227C16.5636 37.5327 16.4502 37.1427 16.3621 37.3527C16.2361 37.6228 16.3495 37.1727 16.3495 37.0727C16.3621 36.5827 16.3999 36.1026 16.4628 35.6126C16.6644 34.0725 16.9667 32.4124 18.0877 31.1423C19.3725 29.6822 21.7279 28.7821 23.6299 27.822C26.5773 26.3419 29.4996 24.8018 32.6107 23.5517C35.7219 22.3016 39.148 21.8916 42.3473 20.8515C44.3879 20.1814 45.1058 18.7913 44.2241 17.1812C42.7378 14.471 40.1934 12.2308 37.6491 10.1207C35.5078 8.34053 32.9004 6.41039 31.9557 4.25021C31.0111 2.09005 31.7542 -0.920174 33.8703 -2.69031C35.9864 -4.46044 39.4503 -4.64046 42.5489 -4.54046C46.1765 -4.42045 49.7411 -3.7804 53.2553 -3.09034C57.223 -2.31028 61.1403 -1.3702 65.2718 -1.92024C73.711 -3.04033 76.7214 -10.0209 78.8249 -15.7013C79.0768 -16.3814 79.3036 -17.1014 79.6688 -17.7015C80.0341 -18.3015 80.3238 -18.5415 80.7143 -18.7515C82.1376 -19.5316 84.3545 -19.8616 85.7023 -20.0116C87.6798 -20.2216 89.6825 -20.4017 91.1437 -21.6217C92.9953 -23.1819 92.7685 -25.382 92.3907 -27.3322C92.1387 -28.6723 90.0226 -29.4023 88.5111 -29.0823C86.7099 -28.6923 86.0549 -27.3422 86.3069 -26.0021C86.3698 -25.6921 86.3069 -25.352 86.3824 -25.052C86.4706 -24.642 86.3824 -24.902 86.4076 -24.912C86.0801 -24.792 86.8485 -25.172 86.8611 -25.212C86.9115 -25.352 87.0248 -25.172 86.7351 -25.182C86.5714 -25.182 86.3195 -25.102 86.1557 -25.072C84.9087 -24.842 82.7296 -24.732 81.0292 -24.292C76.7592 -23.1919 74.3282 -21.1517 73.0182 -17.7615C71.8972 -14.8912 71.0029 -11.881 68.8364 -9.36082C67.073 -7.31067 64.516 -6.5006 61.2159 -6.76062C57.7269 -7.04064 54.263 -8.09073 50.8243 -8.65077C46.9574 -9.28082 42.8889 -9.78085 38.9338 -9.45083C34.9788 -9.1208 31.2756 -8.09072 28.769 -5.64054C26.0357 -2.97034 24.7257 0.759941 25.4311 4.1602C26.804 10.7407 35.5834 13.8909 38.7701 19.7214L40.6469 16.0511C38.2159 16.8412 35.6463 17.2612 33.1649 17.9613C30.6836 18.6613 28.2022 19.7114 25.8845 20.8215C23.7558 21.8315 21.6775 22.9216 19.574 23.9617C17.7602 24.8518 15.896 25.7318 14.3719 26.9319C11.6386 29.0821 10.7191 31.8723 10.2531 34.8125C9.83743 37.4628 9.97598 40.0729 13.2635 41.513C14.9387 42.2531 16.8659 42.6832 18.6671 43.2032C21.0477 43.8832 23.4284 44.5433 25.8468 45.1133C28.114 45.6534 30.4065 46.1134 32.7493 46.3734C35.5834 46.6834 38.4174 46.6134 41.2767 46.6734C44.3375 46.7335 47.3983 46.8935 50.4591 46.9935C53.5199 47.0935 56.6058 47.2335 59.5281 47.9935C60.1957 48.1636 60.2964 48.1936 60.964 48.5336C61.027 48.5636 61.493 48.7836 61.0774 48.5736L61.2915 48.7336C61.5434 48.9536 61.556 48.9536 61.3545 48.7336C61.1907 48.7636 61.7575 49.0236 61.4678 48.6936C61.4049 48.6136 61.5308 48.4836 61.5938 48.4436C61.0018 48.7836 60.5609 49.2336 59.9311 49.5637C56.1398 51.5638 52.3106 53.524 48.5823 55.6041C44.6524 57.8043 40.798 60.1245 36.9437 62.4146C33.3539 64.5448 29.7137 66.745 26.7663 69.4452C23.6803 72.2854 21.7909 75.4656 21.4382 79.2359C21.0855 83.0062 22.2695 86.6865 23.9448 90.0968C25.2296 92.717 26.3758 95.3872 27.7487 98.1274C29.1217 100.868 30.8347 103.798 34.2104 105.288C37.5861 106.778 41.9443 106.808 45.7104 107.158C50.6102 107.608 55.4596 108.478 60.1957 109.548C69.9826 111.758 79.2784 115.059 88.3474 118.699C93.1338 120.619 97.9454 122.489 102.82 124.279C106.347 125.569 109.597 127.28 113.086 128.63C116.575 129.98 120.379 131.29 124.258 130.98C128.138 130.67 131.652 128.68 134.599 126.64C137.547 124.599 140.192 122.219 142.661 119.789C144.84 117.639 146.666 115.229 149.097 113.249C151.113 111.588 153.178 110.708 155.975 111.618C157.914 112.248 159.703 113.319 161.466 114.189C163.57 115.219 165.673 116.249 167.84 117.199C174.768 120.229 183.182 122.739 191.117 120.779C196.382 119.479 200.136 116.249 202.352 112.338C204.569 108.428 205.678 103.918 206.698 99.5775C207.202 97.4473 207.693 95.3072 208.335 93.187C208.625 92.2369 208.94 91.2968 209.318 90.3768C209.507 89.8967 209.721 89.4167 209.948 88.9467C210.187 88.4266 210.086 88.6066 210.464 87.9866C210.955 87.1765 211.522 86.3765 212.215 85.6564C211.825 86.0565 212.895 85.0664 213.021 84.9564C213.84 84.2363 214.659 83.5263 215.553 82.8662C216.447 82.2062 217.845 81.2361 219.029 81.2761C220.818 81.3261 222.77 82.4362 224.345 83.0062C228.69 84.5863 233.2 85.9364 237.583 87.4366C242.307 89.0567 247.068 90.6568 252.005 91.8069C256.301 92.807 260.268 93.247 264.689 92.5069C268.859 91.8069 272.99 90.3168 276.391 88.2866C279.792 86.2565 282.311 83.4062 284.011 80.156C285.712 76.9057 286.455 73.4555 287.828 70.1252C288.382 68.7951 289.239 67.525 290.385 66.455C291.355 65.5549 293.181 63.9148 294.29 63.5647C294.819 63.3947 294.617 63.5147 294.39 63.5047C294.819 63.5247 295.335 63.7048 295.726 63.8348C296.582 64.1148 297.413 64.4848 298.22 64.8348C300.247 65.7149 302.2 66.735 304.039 67.8651C307.805 70.1852 311.168 72.9054 314.493 75.6057C317.819 78.3059 321.283 80.9361 324.343 83.8563C327.404 86.7765 330.364 90.0568 333.526 93.067C336.347 95.7572 339.458 98.2474 342.381 100.878C345.139 103.368 348.401 106.068 352.785 106.418C355.203 106.618 357.609 106.088 359.914 105.588C362.005 105.128 364.083 104.758 366.086 104.088C369.26 103.018 372.132 101.258 373.593 98.7174C375.193 95.9572 375.281 92.707 374.324 89.7867C373.366 86.8665 370.444 84.5663 368.038 82.1862C365.872 80.046 365.456 78.0658 367.005 75.5457C368.857 72.5154 371.867 70.0052 374.412 67.345C377.221 64.4048 379.261 61.0546 381.012 57.6543C382.763 54.254 384.274 50.4937 385.32 46.7835C386.126 43.9332 386.567 40.923 384.879 38.2228C383.342 35.7626 380.407 34.0925 377.901 32.3023C374.236 29.6921 371.376 26.5219 368.441 23.4017C365.872 20.6815 362.962 17.8913 361.665 14.591C360.292 11.1107 361.211 7.75047 362.836 4.43022C364.663 0.709938 366.98 -2.86033 368.844 -6.57061C370.709 -10.2809 372.648 -13.8912 373.127 -17.8815C373.568 -21.5518 372.56 -25.8821 369.298 -28.6623C366.565 -30.9925 362.61 -31.4825 358.856 -31.9525C355.102 -32.4226 351.941 -33.1626 349.056 -34.9728C346.575 -36.5229 344.547 -38.6631 343.413 -41.0032C340.97 -46.0536 342.507 -52.4941 348.729 -55.3143C352.243 -56.9044 356.261 -57.7045 359.637 -59.5146C363.277 -61.4648 366.149 -64.175 368.051 -67.3152C369.953 -70.4555 371.187 -73.9057 372.397 -77.276C373.694 -80.9163 374.563 -84.6266 373.895 -88.4068C372.8 -94.6173 368.87 -100.898 362.345 -104.568C355.002 -108.698 345.605 -110.309 336.763 -109.128C332.304 -108.528 328.047 -106.908 324.268 -104.968C322.454 -104.048 320.741 -103.008 319.204 -101.808C318.549 -101.308 316.924 -99.6177 315.829 -99.7577L317.705 -98.6076C316.509 -100.128 316.609 -102.918 316.169 -104.808C315.589 -107.348 314.33 -109.958 313.007 -112.309C310.211 -117.299 304.127 -120.779 297.753 -122.549C291.733 -124.22 284.289 -124.4 278.091 -123.29C271.894 -122.179 267.46 -119.059 264.097 -115.029C261.931 -112.429 260.52 -109.538 259.5 -106.538C258.946 -104.928 258.543 -103.348 258.303 -101.688C258.102 -100.368 258.064 -98.8576 257.308 -97.6376L258.442 -98.5376C258.58 -98.5876 258.354 -98.5776 258.379 -98.5676C257.9 -98.6576 258.82 -98.4176 258.354 -98.5676C258.215 -98.6076 258.051 -98.6176 257.925 -98.6776C258.354 -98.4776 257.384 -98.9677 257.283 -99.0177C256.981 -99.1777 256.93 -99.2177 256.54 -99.4777C255.066 -100.478 253.693 -101.578 252.094 -102.458C248.126 -104.648 243.679 -103.908 240.266 -101.418C237.696 -99.5377 236.286 -96.7475 232.608 -97.0375C230.152 -97.2275 227.909 -98.3376 225.768 -99.2077C223.299 -100.198 220.793 -101.088 218.022 -101.308C213.298 -101.688 208.802 -99.7477 208.058 -95.8674C207.92 -95.1174 207.857 -94.3773 207.806 -93.6273C207.743 -92.7672 207.806 -92.7172 207.504 -91.9671C207.416 -91.7471 207.34 -91.5871 206.988 -91.4171C207.353 -91.5871 206.396 -91.3071 206.522 -91.3171C206.459 -91.3171 205.64 -91.3471 205.476 -91.3671C201.357 -91.8871 197.78 -94.1973 194.329 -95.8774C191.772 -97.1175 188.938 -97.9176 186.381 -99.1377C183.824 -100.358 181.607 -101.968 179.012 -103.138C175.397 -104.778 170.674 -106.118 166.568 -104.898C163.053 -103.858 161.101 -101.348 159.867 -98.6676C158.632 -95.9874 158.154 -93.2072 157.385 -90.477C156.995 -89.0869 156.516 -87.7368 155.912 -86.3967C155.622 -85.7467 155.307 -85.1566 154.879 -84.5566C154.816 -84.4666 154.362 -83.9465 154.652 -84.2265C154.362 -83.9365 153.972 -83.7065 154.123 -83.7965C153.871 -83.6465 153.405 -83.5665 153.14 -83.5565C152.234 -83.5165 151.352 -83.6165 150.47 -83.7565C147.296 -84.2865 144.248 -85.1966 141.2 -86.0567C136.212 -87.4768 131.287 -88.5569 126.022 -89.0569C116.625 -89.967 105.944 -89.4869 97.6431 -85.5166C93.0708 -83.3365 89.7833 -79.8662 86.7855 -76.4359C83.0823 -72.2056 81.5078 -67.5953 81.0796 -62.4949C80.6513 -57.3945 80.8277 -52.1841 81.4952 -47.1637C82.2132 -41.7433 83.8003 -36.4529 85.0221 -31.1025C85.6267 -28.4623 86.1053 -25.8121 86.3069 -23.1219L91.6853 -24.892C90.5643 -25.8221 89.7077 -26.8922 88.7379 -27.9122C87.7176 -28.9923 86.0172 -29.5424 84.4301 -28.8123C83.0949 -28.1923 82.2762 -26.4721 83.2964 -25.392L83.2209 -25.412Z" fill="#5E2D62"/>
<path d="M75.8647 -33.6726C77.0109 -32.4925 77.9556 -31.2024 79.3034 -30.1423C78.661 -39.5331 74.4036 -48.8138 74.1391 -58.2645C73.9753 -64.3749 73.2825 -71.1155 75.7765 -76.9659C77.2502 -80.3962 81.0542 -84.1365 84.0016 -86.9667C92.5794 -95.2073 112.204 -94.8773 123.716 -92.3471C128.49 -91.297 133.201 -89.6069 137.912 -88.6368C145.583 -87.0567 147.094 -88.5768 149.324 -94.0072C152.259 -101.158 151.301 -114.229 166.215 -108.428C169.754 -107.048 172.588 -104.678 176.203 -103.298C178.798 -102.308 180.952 -101.588 183.421 -100.298C186.683 -98.5976 194.933 -94.2572 198.712 -96.3974C203.133 -98.9176 197.805 -104.828 205.564 -105.778C211.333 -106.478 216.283 -102.108 221.964 -101.568C229.32 -100.868 229.912 -106.658 235.416 -108.148C240.921 -109.638 244.876 -101.368 249.902 -103.358C251.275 -105.378 251.073 -108.698 251.804 -110.988C252.95 -114.569 253.844 -117.229 256.401 -120.379C260.885 -125.92 265.999 -128.23 274.464 -128.35C282.978 -128.47 288.697 -127.5 295.448 -123.119C299.844 -120.259 300.953 -116.499 302.628 -112.419C303.51 -110.258 303.409 -105.958 304.87 -104.328C308.082 -103.768 310.475 -106.588 312.642 -108.008C315.413 -109.818 318.688 -111.279 321.963 -112.419C329.016 -114.879 338.476 -114.369 345.403 -111.759C353.414 -108.748 356.425 -105.718 359.36 -99.2076C362.017 -93.3172 360.896 -89.2668 358.667 -83.3464C356.437 -77.4259 354.724 -72.5256 348.351 -68.8853C343.136 -65.9051 335.931 -65.495 332.203 -61.0247C324.268 -51.524 332.115 -39.293 345.013 -36.9428C350.706 -35.9028 356.362 -36.4928 358.793 -31.4724C362.017 -24.8019 357.936 -18.9215 354.989 -12.761C352.923 -8.45068 349.686 -4.27036 348.3 0.23999C346.222 6.9805 349.787 11.5909 354.674 16.6812C358.239 20.4115 361.539 24.3418 366.061 27.4221C371.88 31.3924 374.021 32.7725 372.195 39.143C370.368 45.5135 367.383 52.164 363.113 57.4244C359.775 61.5347 352.18 66.8951 352.785 72.2055C353.301 76.7158 360.166 79.186 361.325 83.8364C363.012 90.5969 359.145 94.2572 351.147 95.7373C347.897 96.3373 344.471 97.4874 341.599 96.7274C337.506 95.6373 333.513 90.8969 330.465 88.5067C323.474 83.0263 318.675 76.3758 311.709 70.9154C304.152 64.9949 297.375 58.4644 287.588 54.8042C283.91 53.424 283.066 53.9341 280.081 56.1042C277.096 58.2744 275.459 60.2846 274.401 63.3648C272.839 67.9552 271.453 73.3856 267.46 77.1259C263.266 81.0462 253.529 84.3164 247.093 83.2663C237.092 81.6362 226.574 77.1359 217.026 74.2556C214.923 73.6256 211.258 71.8454 208.99 71.8055C205.589 71.7454 202.239 74.8557 200.11 76.7458C189.958 85.7565 197.402 113.069 173.659 111.919C164.791 111.488 156.289 106.538 148.984 103.088C139.6 98.6475 135.342 106.178 130.367 111.028C126.689 114.619 119.963 120.689 114.584 121.439C108.501 122.289 99.5701 116.969 94.1539 115.059C89.2541 113.329 84.6566 111.468 79.8576 109.538C65.7502 103.868 51.5925 99.2275 35.9988 97.6974C33.3159 97.4374 28.0004 97.1774 25.5568 96.0673C21.3246 94.1472 19.6872 87.5167 17.8104 84.1764C14.7496 78.686 12.6209 71.8454 16.7523 66.525C20.6571 61.5047 29.6631 57.0143 35.5328 53.4241C39.6516 50.9039 43.9468 48.6837 48.2294 46.3235C50.6226 45.0034 55.7617 43.2733 54.2754 40.8531C51.8822 36.9628 38.4046 37.6428 33.9205 37.3028C30.0914 37.0128 26.1488 37.3628 22.4331 36.8528C17.5333 36.1827 11.3613 34.3626 6.70085 33.0225C2.8969 31.9224 2.77094 31.3524 3.32516 27.8321C3.96755 23.7318 5.3405 21.9016 9.95058 19.6815C13.8931 17.7813 17.9238 15.5212 22.1056 13.9711C25.0782 12.871 28.4035 12.5109 31.4013 11.4809C27.3203 3.74026 13.679 0.600021 19.8383 -9.48075C24.5366 -17.1813 40.4703 -13.111 48.1664 -11.6409C59.9939 -9.38075 63.0547 -16.1313 65.8006 -23.7118C66.9594 -26.8921 68.0678 -28.0322 72.5142 -29.0522C76.7212 -30.0223 80.2858 -28.7122 79.2278 -33.6526" fill="#DB79E2"/>
<path d="M73.1437 -32.4125C74.4285 -31.0524 75.5873 -29.6123 77.0736 -28.3822C78.8874 -26.8721 82.6158 -27.9722 82.4521 -30.1524C82.0112 -36.0328 80.336 -41.7832 78.9504 -47.5537C77.5649 -53.3241 77.1744 -58.8545 77.0862 -64.625C77.0107 -69.8754 77.3885 -75.1458 81.0161 -79.6961C83.8502 -83.2564 87.2385 -86.8767 92.0375 -88.8368C100.577 -92.3271 111.788 -92.0271 120.907 -90.347C127.243 -89.1769 133.125 -86.6667 139.562 -85.8066C144.159 -85.1966 148.253 -86.0366 150.482 -89.5369C152.359 -92.4871 153.19 -95.7374 154.022 -98.9476C154.4 -100.428 154.79 -101.908 155.344 -103.348C155.47 -103.688 155.621 -104.028 155.773 -104.358C155.961 -104.788 155.924 -104.708 156.075 -104.938C156.251 -105.228 156.44 -105.518 156.642 -105.798C156.73 -105.918 157.334 -106.588 156.982 -106.238C157.221 -106.468 157.473 -106.678 157.75 -106.878C158.191 -107.198 157.863 -106.948 157.75 -106.888C157.901 -106.968 158.052 -107.058 158.216 -107.118C158.644 -107.278 157.952 -107.098 158.745 -107.288C158.934 -107.328 159.123 -107.368 159.312 -107.388C158.972 -107.338 159.148 -107.378 159.388 -107.388C161.352 -107.448 163.469 -106.808 165.408 -105.968C168.192 -104.748 170.547 -102.998 173.293 -101.728C176.039 -100.458 179.201 -99.5277 181.959 -98.1075C185.94 -96.0574 190.273 -93.8172 195.084 -93.4072C200.437 -92.9572 203.473 -96.0874 203.901 -99.9877C203.964 -100.568 203.989 -101.568 204.052 -101.888C204.141 -102.398 204.304 -102.778 204.481 -102.908C205.627 -103.758 208.587 -103.288 210.287 -102.738C215.389 -101.088 220.44 -97.9075 226.284 -99.3976C228.463 -99.9577 230.227 -101.068 231.738 -102.408C232.96 -103.488 234.144 -104.828 235.592 -105.498C235.945 -105.668 236.235 -105.778 236.613 -105.848C236.902 -105.908 237.117 -105.868 236.94 -105.888C237.646 -105.808 238.137 -105.548 238.943 -105.088C240.266 -104.308 241.903 -102.948 243.427 -102.048C245.203 -101.008 247.319 -100.358 249.536 -100.688C252.861 -101.188 253.63 -103.638 254.058 -105.988C254.927 -110.779 255.973 -115.409 259.411 -119.519C262.17 -122.809 265.86 -125.02 270.836 -125.66C275.811 -126.3 282.046 -126.05 286.895 -124.46C289.415 -123.629 291.883 -122.369 293.886 -120.909C295.889 -119.449 297.186 -117.469 298.106 -115.389C299.025 -113.309 299.844 -111.349 300.209 -109.218C300.549 -107.198 300.675 -104.848 302.136 -103.088C304.101 -100.738 308.46 -101.928 310.727 -103.288C312.994 -104.648 314.871 -106.398 317.327 -107.648C322.844 -110.478 328.638 -111.899 335.226 -111.419C340.466 -111.039 346.121 -109.338 350.127 -106.568C353.817 -104.018 355.933 -100.198 357.117 -96.4874C358.717 -91.497 356.651 -86.6467 354.812 -81.8863C353.162 -77.626 351.033 -73.2757 346.134 -70.7255C341.536 -68.3253 335.906 -67.5652 331.787 -64.515C327.668 -61.4647 325.754 -56.7844 325.854 -52.5041C326.056 -43.9534 334.117 -36.2428 344.647 -34.4627C347.104 -34.0427 349.648 -33.9327 352.066 -33.3626C354.485 -32.7926 355.518 -31.5725 356.198 -29.7823C358.188 -24.5019 354.8 -19.2415 352.419 -14.4212C349.9 -9.34077 345.97 -4.4304 344.874 1.03001C343.866 6.0704 345.693 10.7007 349.207 14.9011C351.059 17.1212 353.15 19.2114 355.165 21.3416C357.18 23.4717 359.322 25.6919 361.74 27.622C363.692 29.1822 365.947 30.4723 367.849 32.0624C368.995 33.0225 369.612 33.9125 369.663 35.0826C369.764 37.2428 368.907 39.4229 368.189 41.4831C367.295 44.0633 366.237 46.6135 364.965 49.0837C363.692 51.5539 362.282 53.774 360.543 55.9342C359.07 57.7743 357.243 59.4245 355.555 61.1446C352.092 64.7049 348.338 69.1652 349.975 73.8956C350.693 75.9657 352.381 77.6759 354.107 79.276C355.568 80.6361 357.319 81.9962 358.037 83.7363C359.309 86.8166 358.528 90.1968 355.102 91.8469C352.885 92.917 350.316 93.2771 347.834 93.8171C345.113 94.4071 342.922 94.8572 340.566 93.3971C338.211 91.937 336.485 90.0968 334.608 88.3767C332.555 86.5165 330.301 84.8064 328.298 82.9062C323.814 78.6659 319.897 74.0456 315.06 70.0353C310.626 66.365 306.167 62.6347 301.368 59.2645C298.95 57.5643 296.38 55.9542 293.647 54.5841C291.128 53.314 288.193 51.8639 285.182 51.5639C282.172 51.2638 280.106 52.6439 278.053 54.1341C275.786 55.7842 273.821 57.6843 272.574 59.9345C270.118 64.3748 269.778 69.3852 266.654 73.6355C263.984 77.2758 258.97 79.446 253.957 80.4661C248.05 81.6662 242.23 79.766 236.764 78.0859C230.403 76.1257 224.13 73.9156 217.845 71.8154C215.326 70.9754 212.933 69.7352 210.199 69.3852C207.012 68.9752 204.216 70.1653 201.836 71.7454C198.598 73.8856 195.916 76.5358 194.291 79.616C192.867 82.2962 192.036 85.1264 191.331 87.9767C189.92 93.5871 189.076 100.008 185.6 104.708C184.693 105.928 184.214 106.428 182.778 107.458C182.665 107.538 182.551 107.608 182.438 107.688C182.047 107.938 182.778 107.498 182.362 107.728C182.035 107.908 181.695 108.088 181.342 108.248C180.385 108.688 180.284 108.718 179.365 108.938C174.981 110.018 169.829 109.168 165.396 107.628C162.36 106.578 159.476 105.228 156.654 103.858C154.022 102.578 151.44 101.088 148.605 100.108C143.504 98.3474 138.541 99.4975 134.725 102.558C131.362 105.258 128.893 108.628 125.744 111.488C123.855 113.209 121.864 114.869 119.673 116.349C118.048 117.449 115.919 118.779 113.765 118.979C111.611 119.179 109.281 118.409 107.392 117.719C104.822 116.789 102.391 115.669 99.9351 114.579C94.2544 112.058 88.2084 110.048 82.4017 107.708C69.6169 102.568 56.3283 97.9374 42.1453 95.8772C39.1097 95.4372 36.0489 95.1572 32.9881 94.8772C31.0988 94.7072 28.3403 94.5771 26.8666 93.7171C25.2039 92.747 24.297 90.8669 23.5916 89.3968C22.7225 87.6066 22.0549 85.7665 21.1606 83.9963C18.969 79.646 16.4624 74.8856 18.1628 70.1353C19.7373 65.7649 25.2291 62.5747 29.5999 59.9745C34.9153 56.8043 40.2686 53.644 45.7603 50.6638C48.2291 49.3237 50.7735 48.0736 53.2423 46.7435C55.3836 45.5834 57.6508 44.0233 57.7012 41.7931C57.7768 37.8628 52.3102 36.1527 48.2669 35.5827C43.9087 34.9626 39.5128 35.0026 35.1168 34.8326C32.0057 34.7126 28.8945 34.6926 25.7833 34.5826C22.521 34.4626 19.3594 33.7525 16.2483 32.9725C13.1371 32.1924 10.0763 31.4023 7.10366 30.4323C6.78876 30.3322 6.56204 30.2022 6.24714 30.1022C6.20935 30.0922 5.97003 29.9622 6.29753 30.3223C6.48646 30.5323 6.3731 30.1422 6.28493 30.3522C6.15897 30.6223 6.27233 30.1722 6.27233 30.0722C6.28493 29.5822 6.32272 29.1022 6.3857 28.6121C6.58723 27.072 6.88953 25.4119 8.01056 24.1418C9.29534 22.6817 11.6508 21.7816 13.5527 20.8215C16.5002 19.3414 19.4224 17.8013 22.5336 16.5512C25.6448 15.3011 29.0708 14.8911 32.2702 13.851C34.3107 13.1809 35.0287 11.7908 34.147 10.1807C32.6606 7.4705 30.1163 5.23033 27.5719 3.12018C25.4306 1.34004 22.8233 -0.590103 21.8786 -2.75027C20.9339 -4.91044 21.6771 -7.92066 23.7932 -9.6908C25.9093 -11.4609 29.3731 -11.641 32.4717 -11.5409C36.0993 -11.4209 39.6639 -10.7809 43.1782 -10.0908C47.1459 -9.31077 51.0632 -8.3707 55.1946 -8.92074C63.6339 -10.0408 66.6443 -17.0214 68.7478 -22.7018C68.9997 -23.3818 69.2264 -24.1019 69.5917 -24.7019C69.957 -25.302 70.2467 -25.542 70.6372 -25.752C72.0605 -26.5321 74.2774 -26.8621 75.6251 -27.0121C77.6027 -27.2221 79.6054 -27.4021 81.0665 -28.6222C82.9181 -30.1824 82.6914 -32.3825 82.3135 -34.3327C82.0616 -35.6728 79.9455 -36.4028 78.434 -36.0828C76.6328 -35.6928 75.9778 -34.3427 76.2297 -33.0026C76.2927 -32.6926 76.2297 -32.3525 76.3053 -32.0525C76.3935 -31.6425 76.3053 -31.9025 76.3305 -31.9125C76.003 -31.7925 76.7713 -32.1725 76.7839 -32.2125C76.8343 -32.3525 76.9477 -32.1725 76.658 -32.1825C76.4942 -32.1825 76.2423 -32.1025 76.0786 -32.0725C74.8316 -31.8425 72.6525 -31.7325 70.952 -31.2924C66.6821 -30.1924 64.2511 -28.1522 62.9411 -24.7619C61.8201 -21.8917 60.9258 -18.8815 58.7593 -16.3613C56.9958 -14.3112 54.4389 -13.5011 51.1388 -13.7611C47.6497 -14.0411 44.1859 -15.0912 40.7472 -15.6513C36.8803 -16.2813 32.8118 -16.7813 28.8567 -16.4513C24.9016 -16.1213 21.1984 -15.0912 18.6918 -12.641C15.9585 -9.97083 14.6486 -6.24055 15.3539 -2.84029C16.7269 3.7402 25.5062 6.89046 28.693 12.7209L30.5697 9.05061C28.1387 9.84068 25.5692 10.2607 23.0878 10.9608C20.6064 11.6608 18.125 12.7109 15.8074 13.821C13.6787 14.8311 11.6004 15.9211 9.49687 16.9612C7.68307 17.8513 5.81888 18.7314 4.29478 19.9315C1.56148 22.0816 0.641986 24.8718 0.17594 27.8121C-0.239724 30.4623 -0.101169 33.0724 3.18635 34.5126C4.8616 35.2526 6.78876 35.6827 8.58997 36.2027C10.9706 36.8828 13.3512 37.5428 15.7696 38.1128C18.0369 38.6529 20.3293 39.1129 22.6721 39.3729C25.5062 39.683 28.3403 39.613 31.1995 39.673C34.2603 39.733 37.3211 39.893 40.3819 39.993C43.4427 40.093 46.5287 40.233 49.4509 40.9931C50.1185 41.1631 50.2193 41.1931 50.8869 41.5331C50.9498 41.5631 51.4159 41.7831 51.0002 41.5731L51.2143 41.7331C51.4663 41.9531 51.4789 41.9531 51.2773 41.7331C51.1136 41.7631 51.6804 42.0231 51.3907 41.6931C51.3277 41.6131 51.4537 41.4831 51.5166 41.4431C50.9246 41.7831 50.4838 42.2332 49.854 42.5632C46.0626 44.5633 42.2335 46.5235 38.5051 48.6036C34.5752 50.8038 30.7209 53.124 26.8666 55.4142C23.2767 57.5443 19.6365 59.7445 16.6891 62.4447C13.6031 65.2849 11.7137 68.4651 11.3611 72.2354C11.0084 76.0057 12.1924 79.686 13.8676 83.0963C15.1524 85.7165 16.2986 88.3867 17.6716 91.1269C19.0445 93.8671 20.7576 96.7973 24.1333 98.2874C27.5089 99.7775 31.8671 99.8075 35.6333 100.158C40.5331 100.608 45.3825 101.478 50.1185 102.548C59.9055 104.758 69.2012 108.058 78.2702 111.698C83.0567 113.619 87.8683 115.489 92.7429 117.279C96.2697 118.569 99.5194 120.279 103.008 121.629C106.498 122.979 110.301 124.289 114.181 123.979C118.061 123.669 121.575 121.679 124.522 119.639C127.47 117.599 130.115 115.219 132.584 112.789C134.763 110.638 136.589 108.228 139.02 106.248C141.035 104.588 143.101 103.708 145.897 104.618C147.837 105.248 149.626 106.318 151.389 107.188C153.493 108.218 155.596 109.248 157.763 110.198C164.69 113.229 173.104 115.739 181.04 113.779C186.305 112.479 190.058 109.248 192.275 105.338C194.492 101.428 195.601 96.9173 196.621 92.577C197.125 90.4468 197.616 88.3067 198.258 86.1865C198.548 85.2364 198.863 84.2964 199.241 83.3763C199.43 82.8963 199.644 82.4162 199.871 81.9462C200.11 81.4261 200.009 81.6062 200.387 80.9861C200.878 80.1761 201.445 79.376 202.138 78.6559C201.747 79.056 202.818 78.0659 202.944 77.9559C203.763 77.2358 204.581 76.5258 205.476 75.8657C206.37 75.2057 207.768 74.2356 208.952 74.2756C210.741 74.3256 212.693 75.4357 214.268 76.0057C218.613 77.5859 223.123 78.936 227.506 80.4361C232.229 82.0562 236.991 83.6563 241.928 84.8064C246.223 85.8065 250.191 86.2465 254.612 85.5065C258.781 84.8064 262.913 83.3163 266.314 81.2861C269.715 79.256 272.234 76.4058 273.934 73.1555C275.635 69.9053 276.378 66.455 277.751 63.1248C278.305 61.7946 279.162 60.5246 280.308 59.4545C281.278 58.5544 283.104 56.9143 284.212 56.5643C284.741 56.3942 284.54 56.5143 284.313 56.5042C284.741 56.5242 285.258 56.7043 285.648 56.8343C286.505 57.1143 287.336 57.4843 288.142 57.8344C290.17 58.7144 292.123 59.7345 293.962 60.8646C297.728 63.1848 301.091 65.905 304.416 68.6052C307.742 71.3054 311.205 73.9356 314.266 76.8558C317.327 79.776 320.287 83.0563 323.449 86.0665C326.27 88.7567 329.381 91.2469 332.303 93.8771C335.062 96.3673 338.324 99.0675 342.708 99.4175C345.126 99.6175 347.532 99.0875 349.837 98.5875C351.928 98.1274 354.006 97.7574 356.009 97.0873C359.183 96.0173 362.055 94.2571 363.516 91.7169C365.116 88.9567 365.204 85.7065 364.247 82.7863C363.289 79.866 360.367 77.5658 357.961 75.1857C355.795 73.0455 355.379 71.0654 356.928 68.5452C358.78 65.5149 361.79 63.0047 364.335 60.3445C367.144 57.4043 369.184 54.0541 370.935 50.6538C372.686 47.2535 374.197 43.4933 375.243 39.783C376.049 36.9328 376.49 33.9225 374.802 31.2223C373.265 28.7621 370.33 27.092 367.824 25.3018C364.158 22.6917 361.299 19.5214 358.364 16.4012C355.795 13.681 352.885 10.8908 351.588 7.59052C350.215 4.11024 351.134 0.749985 352.759 -2.57027C354.586 -6.29055 356.903 -9.86082 358.767 -13.5711C360.632 -17.2814 362.571 -20.8917 363.05 -24.882C363.491 -28.5522 362.483 -32.8826 359.221 -35.6628C356.488 -37.993 352.532 -38.483 348.779 -38.953C345.025 -39.4231 341.864 -40.1631 338.979 -41.9733C336.498 -43.5234 334.47 -45.6635 333.336 -48.0037C330.893 -53.0541 332.429 -59.4946 338.652 -62.3148C342.166 -63.9049 346.184 -64.705 349.56 -66.5151C353.2 -68.4653 356.072 -71.1755 357.974 -74.3157C359.876 -77.456 361.11 -80.9062 362.319 -84.2765C363.617 -87.9168 364.486 -91.627 363.818 -95.4073C362.722 -101.618 358.793 -107.898 352.268 -111.569C344.925 -115.699 335.528 -117.309 326.686 -116.129C322.227 -115.529 317.969 -113.909 314.191 -111.969C312.377 -111.049 310.664 -110.008 309.127 -108.808C308.472 -108.308 306.847 -106.618 305.751 -106.758L307.628 -105.608C306.432 -107.128 306.532 -109.918 306.091 -111.809C305.512 -114.349 304.252 -116.959 302.93 -119.309C300.134 -124.3 294.05 -127.78 287.676 -129.55C281.656 -131.22 274.211 -131.4 268.014 -130.29C261.817 -129.18 257.383 -126.06 254.02 -122.029C251.854 -119.429 250.443 -116.539 249.423 -113.539C248.868 -111.929 248.465 -110.348 248.226 -108.688C248.025 -107.368 247.987 -105.858 247.231 -104.638L248.365 -105.538C248.503 -105.588 248.277 -105.578 248.302 -105.568C247.823 -105.658 248.743 -105.418 248.276 -105.568C248.138 -105.608 247.974 -105.618 247.848 -105.678C248.277 -105.478 247.307 -105.968 247.206 -106.018C246.904 -106.178 246.853 -106.218 246.463 -106.478C244.989 -107.478 243.616 -108.578 242.016 -109.458C238.049 -111.649 233.602 -110.909 230.189 -108.418C227.619 -106.538 226.209 -103.748 222.531 -104.038C220.074 -104.228 217.832 -105.338 215.691 -106.208C213.222 -107.198 210.716 -108.088 207.945 -108.308C203.221 -108.688 198.724 -106.748 197.981 -102.868C197.843 -102.118 197.78 -101.378 197.729 -100.628C197.666 -99.7677 197.729 -99.7177 197.427 -98.9676C197.339 -98.7476 197.263 -98.5876 196.911 -98.4176C197.276 -98.5876 196.319 -98.3076 196.445 -98.3176C196.382 -98.3176 195.563 -98.3476 195.399 -98.3676C191.28 -98.8876 187.703 -101.198 184.252 -102.878C181.695 -104.118 178.861 -104.918 176.304 -106.138C173.747 -107.358 171.53 -108.968 168.935 -110.138C165.32 -111.779 160.597 -113.119 156.49 -111.899C152.976 -110.859 151.024 -108.348 149.79 -105.668C148.555 -102.988 148.076 -100.208 147.308 -97.4775C146.918 -96.0874 146.439 -94.7373 145.834 -93.3972C145.545 -92.7471 145.23 -92.1571 144.802 -91.557C144.739 -91.467 144.285 -90.947 144.575 -91.227C144.285 -90.937 143.895 -90.707 144.046 -90.797C143.794 -90.647 143.328 -90.567 143.063 -90.557C142.156 -90.517 141.275 -90.617 140.393 -90.757C137.219 -91.287 134.171 -92.1971 131.122 -93.0572C126.134 -94.4773 121.21 -95.5574 115.944 -96.0574C106.548 -96.9675 95.8666 -96.4874 87.566 -92.5171C82.9937 -90.337 79.7062 -86.8667 76.7084 -83.4364C73.0052 -79.2061 71.4307 -74.5958 71.0024 -69.4954C70.5742 -64.395 70.7505 -59.1846 71.4181 -54.1642C72.1361 -48.7438 73.7231 -43.4534 74.9449 -38.103C75.5495 -35.4628 76.0282 -32.8126 76.2297 -30.1224L81.6081 -31.8925C80.4871 -32.8226 79.6306 -33.8926 78.6607 -34.9127C77.6404 -35.9928 75.94 -36.5428 74.3529 -35.8128C73.0178 -35.1927 72.199 -33.4726 73.2193 -32.3925L73.1437 -32.4125Z" fill="#5E2D62"/>
</g>
<defs>
<clipPath id="clip0_41_7027">
<rect width="386" height="262" fill="white" transform="translate(0 -131)"/>
</clipPath>
</defs>
</svg>
