<svg width="297" height="350" viewBox="0 0 297 350" fill="none" xmlns="http://www.w3.org/2000/svg">
<path fill-rule="evenodd" clip-rule="evenodd" d="M210.55 223.608C208.284 222.8 206.1 221.867 204.11 220.495C198.374 216.225 194.634 209.8 191.1 203.712C186.122 194.858 182.576 185.423 180.125 175.581C179.071 171.353 178.713 166.45 176.32 162.701C170.895 154.851 154.987 155.868 146.539 157.246C140.882 158.247 139.713 164.578 138.428 169.262C137.358 173.154 136.658 177.09 136.07 181.08C134.672 181.999 133.093 182.746 131.588 183.396C115.186 188.426 112.304 197.75 106.039 212.152C95.4581 233.086 66.7471 241.283 62.4102 266.057C59.616 282.413 67.5619 297.801 75.7543 311.398C83.3837 326.251 94.035 333.379 110.998 329.87C126.908 326.301 142.198 320.331 157.828 315.717C165.398 313.856 172.956 309.015 180.92 310.703C197.328 314.388 214.187 316.121 231.002 315.642C254.612 316.597 254.608 293.937 252.185 276.389C250.488 249.08 236.713 231.545 210.55 223.608Z" fill="#D08B5B"/>
<path fill-rule="evenodd" clip-rule="evenodd" d="M212.128 263.124C214.101 264.428 215.761 266.406 217.093 268.488C211.532 267.91 205.98 267.243 200.442 266.483C201.167 266.02 201.899 265.567 202.647 265.139C205.378 263.6 209.079 261.107 212.128 263.124ZM119.738 279.562C118.719 279.163 118.325 277.609 117.928 276.718C116.683 273.926 115.547 271.086 114.364 268.266C118.853 266.986 123.219 265.566 127.869 264.884C132.869 264.152 137.943 263.974 142.989 264.139C153.211 264.472 163.337 266.143 173.387 267.934C183.424 269.723 193.461 271.442 203.569 272.791C213.472 274.113 223.406 275.08 233.359 275.929C235.293 276.094 238.517 276.79 240.072 275.268C241.303 274.063 241.343 271.84 239.803 270.86C238.843 270.249 237.452 270.24 236.356 270.1C234.975 269.922 233.589 269.804 232.2 269.712C231.634 269.674 231.068 269.64 230.502 269.605C235.046 267.892 239.793 266.957 244.719 267.218C244.998 268.911 246.253 270.652 246.94 272.048C248.14 274.485 249.075 276.951 249.689 279.601C250.973 285.14 251.028 290.889 250.666 296.538C250.333 301.249 249.618 306.459 245.923 309.795C243.126 312.321 239.179 313.256 235.517 313.55C231.262 313.892 226.94 313.527 222.72 312.956C216.801 312.156 210.855 311.098 205.052 309.679C193.814 306.932 183.042 302.561 173.104 296.635C168.257 293.745 163.632 290.494 158.719 287.714C153.713 284.881 148.385 282.683 142.792 281.319C136.532 279.791 129.988 279.14 123.554 279.516C122.437 279.582 120.824 279.987 119.738 279.562ZM112.484 276.726C113.142 278.86 113.645 281.298 115.049 283.091C116.44 284.869 118.538 285.496 120.712 285.654C123.332 285.844 125.984 285.723 128.61 285.82C133.997 286.02 139.31 286.895 144.46 288.5C149.259 289.996 153.714 292.329 158.005 294.918C161.973 297.311 165.825 299.881 169.794 302.268C168.738 302.752 167.693 303.276 166.643 303.732C164.44 304.688 162.224 305.611 159.998 306.511C155.608 308.286 151.199 310.017 146.745 311.625C137.765 314.868 128.636 317.702 119.398 320.115C114.992 321.266 110.524 322.611 105.946 322.802C101.887 322.972 98.1276 321.825 94.8541 319.411C88.0642 314.406 82.6623 307.181 78.2954 300.054C75.701 295.82 73.437 291.371 71.5643 286.771C70.6171 284.445 69.7582 282.083 68.985 279.694C68.6224 278.572 68.2785 277.444 67.9528 276.31C67.8096 275.812 67.6723 275.312 67.5364 274.811C74.4794 272.693 81.5048 270.78 88.6952 269.718C92.5342 269.151 96.4243 268.864 100.305 268.906C102.232 268.927 104.157 269.031 106.073 269.23C107.105 269.337 108.132 269.474 109.155 269.645C109.578 269.715 110.012 269.819 110.448 269.896C111.113 272.176 111.785 274.455 112.484 276.726ZM256.005 267.658C256.379 266.901 256.537 266.156 256.671 265.332C256.773 264.703 257.044 263.819 256.807 263.002C256.54 262.088 255.815 261.271 255.295 260.491C254.72 259.63 254.146 258.768 253.572 257.905C252.425 256.18 251.28 254.453 250.137 252.726C245.47 245.67 240.835 238.594 236.192 231.522C232.072 225.247 228.021 218.915 223.776 212.723C220.146 207.429 216.189 202.222 211.22 198.105C204.937 192.899 197.456 190.447 189.641 188.533C188.788 187.647 187.648 187.163 186.429 187.261C184.707 185.309 183.339 183.945 182.719 181.462C182.422 180.273 182.515 176.931 181.357 176.227C179.981 175.391 179.262 176.498 178.883 177.745C177.613 181.917 179.07 187.527 182.423 191.706C181.011 196.588 179.138 203.527 175.797 207.438C172.219 211.626 167.271 212.93 161.932 213.015C151.751 213.179 141.581 209.396 133.816 202.838C131.455 200.845 129.263 198.619 127.28 196.252C125.793 194.476 124.033 191.735 122.869 189.663C122.869 188.855 121.916 188.011 131.621 187.359C141.325 186.706 142.061 173.418 142.277 171.61C142.452 170.141 143.198 167.862 142.163 166.664C141.724 166.156 140.823 166.074 140.266 166.419C139.216 167.071 138.871 168.739 138.541 169.871C138.079 171.457 136.567 181.301 133.703 182.441C132.362 182.974 130.824 182.984 129.406 183.083C127.654 183.205 125.899 183.295 124.155 183.499C123.511 183.574 122.809 183.782 122.174 183.788C121.761 183.792 121.335 183.591 120.936 183.45C119.589 182.974 118.242 183.331 116.854 183.518C104.581 185.167 91.9442 188.932 81.4758 195.705C72.249 201.675 65.7485 210.261 61.4591 220.299C57.0826 230.544 54.5741 241.622 52.4718 252.527C51.7676 256.181 51.1526 259.852 50.6242 263.536C50.1136 267.095 49.4748 270.734 49.3219 274.329C49.2614 275.752 49.6014 277.074 50.1245 278.373C50.7137 279.835 52.1062 280.412 53.4419 281.095C56.374 282.595 59.467 283.758 62.6537 284.582C64.6004 288.123 66.2388 291.803 67.5554 295.622C67.067 296.59 67.0568 298.035 66.9629 298.976C66.7299 301.318 66.6302 303.673 66.6093 306.026C66.5673 310.742 66.8509 315.454 67.0732 320.163C67.2987 324.939 68.0481 343.783 68.1702 346.084C68.2652 347.871 68.1373 350.372 69.079 351.959C70.5261 354.398 74.0976 354.316 75.7519 352.338C116.854 361.174 194.115 358.513 225.231 354.067C229.28 353.489 228.008 354.13 229.038 353.107C229.811 352.339 230.468 351.024 230.682 349.967C230.967 348.556 230.507 347.279 229.699 346.137C228.849 344.937 228.695 342.993 228.379 341.565C227.633 338.191 227.262 323.373 226.914 321.731C226.805 321.22 226.7 320.679 226.573 320.138C232.281 320.678 238.228 320.678 243.659 318.769C246.738 317.687 249.609 315.986 251.82 313.558C254.497 310.619 255.986 306.918 256.752 303.055C257.74 298.073 257.949 292.913 257.755 287.85C257.486 281.865 256.493 275.796 254.029 270.301C254.84 269.548 255.519 268.64 256.005 267.658Z" fill="black"/>
<path fill-rule="evenodd" clip-rule="evenodd" d="M203.317 112.737C202.35 105.008 199.315 96.8023 196.122 89.5969C188.942 74.3624 172.505 72.2649 157.77 69.1239C143.23 67.0026 127.832 65.0871 113.511 69.3196C105.46 71.2961 102.316 80.905 103.586 88.4878C104.311 93.2129 106.458 97.6849 108.288 102.064C111.926 111.057 114.234 120.685 114.237 130.422C113.988 136.785 113.092 144.047 120.388 146.742C127.332 150.203 127.918 159.582 136.613 164.904C140.128 172.04 149.705 172.668 156.597 174.324C160.953 175.159 165.359 175.774 169.776 176.171C182.568 177.814 192.8 174.1 199.496 162.681C203.977 155.732 207.314 147.708 206.489 139.285C205.668 130.417 204.301 121.594 203.317 112.737Z" fill="#D08B5B"/>
<path fill-rule="evenodd" clip-rule="evenodd" d="M157.88 50.609C158.61 49.7797 159.735 50.0641 160.418 50.7199C160.862 50.8511 161.293 51.0463 161.7 51.3046C162.619 51.1864 163.583 51.1864 164.484 51.2195C164.703 51.0966 164.937 50.9873 165.192 50.8934C167.015 50.2257 168.629 50.5649 169.96 51.4588C170.602 50.8508 171.411 50.4694 172.445 50.527C173.368 50.5787 174.025 51.0139 174.589 51.5872C175.151 50.7749 176.06 50.1954 177.192 50.1148C178.774 50.002 180.296 50.6379 181.556 51.6224C182.291 50.778 183.292 50.2927 184.408 50.288C185.143 50.1544 185.917 50.2071 186.618 50.419C187.634 50.7266 188.527 51.303 189.237 52.0511C190.362 50.9719 191.739 50.1954 193.326 50.3086C195.38 50.4574 197.083 51.971 197.875 53.834C199.265 54.3921 200.549 55.1882 201.621 56.3232C201.679 56.383 201.733 56.4456 201.791 56.5085C202.369 56.7222 202.913 57.0251 203.392 57.4241C204.91 58.6898 205.248 60.5215 204.746 62.3165C204.816 62.6037 204.876 62.896 204.931 63.188C206.352 63.4045 207.644 64.2267 208.378 65.5653C209.383 67.4022 209.185 69.8233 208.097 71.577C207.629 72.3313 207.035 72.9669 206.368 73.5227C207.122 75.2396 206.76 77.2884 205.544 78.6771C205.248 79.1559 204.884 79.588 204.475 79.9791C204.927 81.7542 204.123 83.5856 202.519 84.5341L202.382 84.8782C202.359 84.9353 202.336 84.9923 202.311 85.0486C202.294 85.1217 202.272 85.1924 202.25 85.2636C202.212 85.8935 202.005 86.5116 201.594 87.094C200.753 88.2876 199.71 89.0659 199.157 90.4592L199.102 90.6056C198.864 91.2649 198.097 91.7302 197.443 91.5266C201.074 98.9998 202.978 107.315 204.285 115.465C204.937 119.53 205.44 123.61 205.848 127.705L206.248 131.783C206.6 135.408 206.913 139.045 206.915 142.682C206.92 150.909 204.571 158.823 199.531 165.37C194.763 171.558 188.017 176.044 180.396 177.81C172.527 179.632 163.297 178.914 156.241 174.744C154.16 173.518 155.983 170.57 158.1 171.556C162.107 173.424 166.179 174.812 170.621 175.123C174.951 175.428 179.292 174.885 183.398 173.466C190.191 171.115 195.971 166.191 199.687 160.06C201.517 157.038 202.843 153.758 203.548 150.293C204.427 145.974 204.294 141.51 203.971 137.135L203.949 136.837C203.311 128.409 202.47 119.929 201.111 111.585C199.91 104.206 198.062 96.9769 195.664 89.9076C194.725 89.0789 193.674 88.3932 192.549 87.8724C184.314 87.5277 176.064 87.6284 167.84 88.1977C160.826 88.6865 153.846 89.5133 146.919 90.7184L146.177 90.849C144.643 91.1227 142.941 91.2793 141.495 91.8979C140.256 92.4302 139.754 93.4531 139.441 94.7105C138.655 97.8911 138.535 101.372 138.402 104.634C138.272 107.822 138.566 111.037 138.311 114.215C138.095 116.874 137.415 119.595 135.45 121.518C134.421 122.525 133.156 123.076 131.968 123.84C131.2 124.334 130.875 124.842 130.974 125.755C131.187 127.754 132.794 130.272 130.989 131.984C130.672 132.284 130.122 132.323 129.81 131.984C129.065 131.173 128.037 130.554 127.154 129.899C126.784 129.628 127.091 129.101 127.511 129.288C128.063 129.537 128.625 129.829 129.2 130.084C127.93 129.036 126.123 128.521 124.618 128.216C123.86 128.065 123.063 128.02 122.274 128.091C121.691 128.37 121.095 128.629 120.499 128.881C119.741 129.2 118.976 129.489 118.205 129.764C115.531 131.947 114.255 135.499 114.812 138.972C115.117 140.889 115.999 142.974 117.663 144.094C119.634 145.419 122.274 144.85 124.404 145.834C126.399 146.755 127.612 148.615 128.521 150.541L128.9 151.343C129.743 153.118 130.61 154.846 131.763 156.461C133.096 158.332 134.728 160.012 136.509 161.456C137.373 162.154 138.294 162.782 139.246 163.354L139.506 163.509C140.47 164.075 141.16 164.615 141.225 165.813C141.245 166.23 140.982 166.611 140.644 166.828C139.186 167.754 137.736 166.596 136.522 165.787C135.213 164.915 133.96 163.934 132.801 162.865C130.599 160.835 128.693 158.424 127.227 155.806C126.11 153.813 125.475 151.008 123.709 149.463C122.631 148.521 121.108 148.514 119.762 148.341C118.509 148.18 117.325 147.919 116.21 147.3C111.677 144.777 110.396 138.669 111.471 133.949C111.654 133.153 111.909 132.378 112.224 131.632C110.537 131.913 108.641 130.165 109.326 128.401C109.378 128.268 109.438 128.143 109.495 128.015C108.383 127.282 107.506 126.171 107.089 124.717C106.876 123.966 106.845 123.206 106.957 122.473C106.418 122.111 105.972 121.612 105.686 120.999C104.79 120.584 103.996 119.963 103.522 119.076C102.866 117.852 102.949 116.725 103.449 115.71C103.379 115.582 103.311 115.452 103.246 115.318C101.411 114.152 100.13 112.143 100.275 109.915C100.322 109.176 100.504 108.511 100.786 107.911C100.762 107.835 100.739 107.757 100.718 107.681C99.1818 106.898 97.9111 105.612 97.4581 103.895C97.005 102.168 97.5388 100.446 98.6063 99.1201C97.0441 97.9749 96.1041 96.3754 96.6743 93.9564C96.9061 92.9729 97.3721 92.0777 98.0023 91.3236C97.9997 91.3004 97.9944 91.2769 97.9892 91.2532L97.8431 91.1396C95.9145 89.6145 94.8058 87.6709 95.9896 85.2806C96.5207 84.2058 97.2784 83.4567 98.1689 82.9636L98.2132 82.8227C97.5752 81.4528 97.3591 79.9316 97.7992 78.3321C98.1585 77.0147 99.0099 75.9655 100.098 75.2691C100.025 74.6791 100.036 74.0506 100.153 73.3693C100.348 72.2189 100.918 71.2143 101.752 70.502C101.783 70.3504 101.822 70.2019 101.866 70.0529C102.147 69.1426 102.673 68.1536 103.283 67.4202C103.785 66.8122 104.348 66.5904 105.035 66.5669C104.993 66.0062 105.022 65.4371 105.137 64.8605C105.488 63.0812 106.618 61.4084 108.292 60.6491C108.98 60.3386 109.704 60.2476 110.401 60.323C110.995 59.0705 112.154 58.1628 113.578 57.9671C114.133 57.8888 114.648 57.8938 115.122 57.9645C115.39 57.839 115.669 57.727 115.96 57.625C116.153 57.5572 116.348 57.4945 116.544 57.4322C117.202 56.6129 118.069 55.9577 119.082 55.5639C120.251 55.1073 121.441 55.154 122.496 55.5376L122.832 55.4671C123.358 54.5539 124.196 53.8468 125.485 53.5259C126.948 53.1632 128.451 53.6694 129.601 54.5907C129.607 54.5907 129.612 54.5907 129.62 54.5878C130.221 53.2388 131.25 52.2995 132.976 52.3647C134.051 52.4065 135.022 52.9416 135.772 53.7035C136.189 53.6511 136.606 53.6041 137.025 53.5574C137.467 53.0379 137.96 52.5529 138.504 52.1171C139.394 51.4019 140.553 51.4596 141.209 52.4665C141.352 52.6857 141.485 52.9075 141.618 53.1292L142.219 53.0875C142.928 52.1299 143.894 51.4828 145.216 51.4309C146.43 51.381 147.294 51.9762 147.953 52.8083C148.489 52.7953 149.028 52.7851 149.567 52.777C150.195 52.049 150.934 51.4071 151.778 50.8748C152.423 50.4678 153.376 50.6064 153.9 51.1491C154.253 51.518 154.582 51.9032 154.888 52.3018C155.677 51.4157 156.742 50.8321 157.88 50.609ZM119.559 133.466C120.775 132.772 122.41 133.523 123.587 134.113C125.021 134.831 126.446 135.913 127.323 137.27C128.518 139.118 125.709 140.61 124.451 138.953C123.678 137.933 123.061 136.905 122.123 136.013C121.267 135.193 120.025 134.645 119.533 133.565C119.515 133.529 119.52 133.487 119.559 133.466ZM120.413 88.6256L120.436 88.5604C120.781 87.6125 119.272 87.2039 118.929 88.144C118.41 89.5689 119.009 91.118 120.413 91.7333C120.803 91.9039 121.247 91.8447 121.482 91.4525C121.679 91.1225 121.588 90.5505 121.202 90.3817C120.412 90.0354 120.147 89.4242 120.413 88.6256ZM107.412 85.9749C108.167 85.3069 107.059 84.203 106.307 84.8681C105.606 85.4885 105.086 86.3313 105.221 87.3007C105.358 88.2885 106.102 88.986 106.915 89.4789C107.778 90.0015 108.564 88.6484 107.704 88.127L107.607 88.0678C107.246 87.8431 106.824 87.5342 106.763 87.0922C106.698 86.6225 107.094 86.2559 107.412 85.9749ZM111.7 74.1884L111.753 74.1489C112.565 73.5686 111.785 72.2103 110.965 72.7971C110.212 73.3354 109.609 74.0347 109.545 74.999C109.483 75.9363 109.959 76.7488 110.582 77.4082C111.274 78.1416 112.377 77.0332 111.686 76.3013C111.013 75.588 110.881 74.8096 111.7 74.1884Z" fill="black"/>
<path fill-rule="evenodd" clip-rule="evenodd" d="M176.8 158.363C175.046 157.648 173.481 156.454 172.337 154.929C171.939 154.399 171.836 153.84 171.919 153.328C172.013 152.752 172.354 152.23 172.818 151.88C173.284 151.529 173.867 151.356 174.43 151.444C174.92 151.521 175.407 151.789 175.793 152.345L175.873 152.456C176.554 153.376 177.44 154.132 178.45 154.618C179.424 155.087 180.512 155.306 181.639 155.179C183.785 154.937 185.264 153.776 186.836 152.2C187.031 152.001 187.226 151.796 187.422 151.588C187.545 151.399 187.717 151.277 187.908 151.213C188.119 151.143 188.359 151.147 188.578 151.223C188.79 151.297 188.979 151.437 189.106 151.623C189.226 151.8 189.294 152.019 189.272 152.27C189.128 153.903 188.275 155.361 187.062 156.505C185.715 157.776 183.929 158.656 182.248 158.964C180.396 159.304 178.509 159.06 176.8 158.363ZM183.122 133.168C185.092 134.366 188.094 137.159 185.975 140.128C183.48 142.746 179.887 139.744 178.117 138.387C176.476 137.334 174.631 140.04 176.154 141.269C188.946 150.739 194.137 133.482 184.118 131.76C183.015 131.57 182.605 132.798 183.122 133.168ZM160.199 122.152C160.417 119.45 164.532 118.836 164.942 121.51C165.308 123.905 164.877 126.106 163.798 128.262C162.767 130.322 160.176 129.361 159.98 127.485C159.717 124.97 160.064 123.833 160.199 122.152ZM191.527 120.956C192.101 120.204 192.929 119.691 193.922 119.981C197.023 120.887 196.109 125.29 195.02 127.433C194.428 128.596 192.515 128.892 191.651 127.867C190.242 126.196 189.567 122.859 191.358 121.213C191.407 121.128 191.461 121.042 191.527 120.956ZM163.754 110.328L164.244 110.242C165.759 109.98 167.644 109.728 168.716 110.946C169.284 111.592 169.48 112.793 168.716 113.412C167.371 114.5 165.885 114.078 164.274 114.17C162.947 114.246 161.671 114.466 160.392 114.832C157.586 115.633 155.3 117.097 152.904 118.704C152.59 118.915 152.269 118.513 152.419 118.219C153.802 115.51 156.483 113.285 159.168 111.928C160.601 111.204 162.169 110.603 163.754 110.328ZM188.7 109.114L189.075 109.191C193.155 110.044 198.456 111.747 200.388 115.755C200.462 116.322 200.384 116.443 200.321 116.523L200.3 116.549C200.248 116.617 200.206 116.71 199.96 116.787C199.892 116.771 199.823 116.754 199.754 116.736C198.868 116.504 198.167 116.184 197.489 115.852L196.754 115.49C195.9 115.071 195.039 114.668 194.127 114.37C192.18 113.735 190.177 113.288 188.143 113.049C187.703 112.997 187.278 112.848 186.943 112.594C186.625 112.352 186.383 112.016 186.272 111.571C186.128 110.995 186.17 110.558 186.479 110.038C186.711 109.648 187.044 109.377 187.426 109.222C187.816 109.063 188.259 109.026 188.7 109.114Z" fill="black"/>
<path fill-rule="evenodd" clip-rule="evenodd" d="M159.876 159.998C161.989 155.049 166.599 151.412 171.908 150.082C175.806 149.108 179.897 149.139 183.871 149.526C185.953 149.727 188.186 149.891 190.149 150.665C191.824 151.325 193.19 152.574 194.216 154.039C195.438 155.776 196.27 157.764 196.853 159.801C196.936 160.091 197.014 160.383 197.087 160.676C196.833 162.213 196.294 163.522 194.87 164.488C193.481 165.432 191.823 165.818 190.17 165.955C190.008 165.877 189.852 165.797 189.708 165.715C187.133 164.241 185.32 160.757 182.07 161.229C179.169 161.65 177.259 165.299 175.534 167.44C169.997 168.085 164.464 166.421 159.959 163.255C159.73 162.171 159.716 161.078 159.876 159.998ZM200.85 156.244C200.407 155.001 199.849 153.797 199.188 152.663C197.002 148.912 193.646 145.924 189.661 144.215C180.236 140.18 168.041 143.024 160.429 149.643C157.829 151.906 155.2 155.231 154.405 158.807C154.168 158.854 153.944 158.978 153.759 159.151C148.26 155.689 142.597 152.358 138.165 147.559C134.947 144.072 132.709 139.945 131.338 135.41C131.226 135.037 130.624 135.091 130.642 135.504C130.648 135.601 130.653 135.697 130.658 135.794C130.601 135.616 130.33 135.708 130.309 135.88C129.571 141.389 128.649 147.23 129.499 152.767C130.007 156.071 131.508 158.49 133.514 161.102C135.664 163.902 138.098 166.506 140.586 169.004C142.165 170.589 143.815 172.418 145.748 173.58C147.997 174.93 150.548 175.957 152.948 176.999C155.39 178.062 157.868 179.044 160.393 179.896C165.44 181.604 170.657 182.785 175.965 183.302C180.215 183.715 185.072 184.164 189.145 182.565C192.267 181.34 194.787 179.126 196.786 176.461C198.961 173.559 200.681 170.253 201.632 166.768C202.62 163.147 201.059 156.828 200.85 156.244Z" fill="black"/>
<path fill-rule="evenodd" clip-rule="evenodd" d="M213.421 113.302C213.206 113.266 212.991 113.233 212.776 113.201C212.608 113.106 212.411 113.033 212.182 112.989C211.659 112.856 211.139 112.766 210.621 112.718C203.176 111.043 185.953 113.421 185.242 119.774C182.871 120.566 180.82 119.857 178.072 119.928C175.98 111.185 139.821 112.419 138.081 117.69C138.075 117.688 138.068 117.687 138.062 117.684C136.391 117.167 133.927 117.292 132.015 117.21C127.931 117.124 123.842 117.488 119.847 118.35C112.365 119.539 102.153 120.931 107.357 130.274C107.358 130.276 107.359 130.278 107.36 130.279L107.361 130.278C108.258 131.198 109.78 130.457 109.836 129.213C108.087 124.787 112.038 124.255 115.079 122.983C122.644 120.265 130.346 119.888 138.17 120.729C138.759 121.422 139.652 122.027 140.596 122.343C145.827 123.211 143.07 127.092 146.377 127.656C145.769 141.183 162.192 148.567 171.708 139.675C175.507 135.96 176.413 130.457 177.294 125.497C177.76 125.393 178.056 125.138 178.229 124.801C179.349 123.683 180.053 122.65 182.268 122.343C184.483 122.036 186.188 122.652 186.419 122.841C186.477 122.958 186.539 123.075 186.612 123.193C186.713 123.368 186.851 123.507 187.007 123.617C184.82 137.087 195.277 145.606 205.834 138.62C210.421 134.305 211.39 127.699 211.582 121.802C212.204 121.427 212.597 120.7 212.382 119.785C212.085 118.525 212.781 117.434 213.889 116.886C215.328 116.174 215.074 113.576 213.421 113.302ZM168.059 119.693C166.749 119.404 166.189 121.425 167.504 121.714C168.435 121.918 169.223 122.388 169.756 123.183L169.813 123.269C170.528 124.408 172.336 123.357 171.616 122.211C170.806 120.922 169.547 120.02 168.059 119.693ZM206.438 118.44C205.976 118.115 205.277 118.356 205.009 118.816C204.713 119.322 204.907 119.886 205.34 120.217L205.384 120.25C205.78 120.529 206.167 121.031 206.215 121.544L206.22 121.609C206.272 122.953 208.361 122.96 208.309 121.609C208.258 120.287 207.492 119.182 206.438 118.44Z" fill="black"/>
</svg>
