<svg width="400" height="358" viewBox="0 0 400 358" fill="none" xmlns="http://www.w3.org/2000/svg">
<g clip-path="url(#clip0_41_7145)">
<path d="M167.751 2C225.149 2 282.841 18.7509 326.131 49.763C369.383 80.7488 398.206 125.914 398.206 182.909C398.206 238.933 368.958 282.137 325.48 311.414C281.959 340.721 224.251 356 167.751 356C74.2705 356 2 276.612 2 182.909C2 86.8592 72.1514 2 167.751 2Z" fill="url(#paint0_radial_41_7145)" stroke="#CAB73A" stroke-width="4"/>
<mask id="mask0_41_7145" style="mask-type:alpha" maskUnits="userSpaceOnUse" x="0" y="0" width="400" height="358">
<path fill-rule="evenodd" clip-rule="evenodd" d="M167.665 0C283.118 0 400 67.3962 400 182.909C400 296.559 281.257 358 167.665 358C73.0186 358 0 277.604 0 182.909C0 85.9862 70.7923 0 167.665 0Z" fill="#DB79E2"/>
</mask>
<g mask="url(#mask0_41_7145)">
<path fill-rule="evenodd" clip-rule="evenodd" d="M240.022 238.428C237.87 237.66 235.795 236.774 233.905 235.47C228.456 231.414 224.903 225.31 221.545 219.527C216.816 211.115 213.447 202.153 211.118 192.803C210.118 188.785 209.778 184.128 207.504 180.566C202.35 173.109 187.237 174.075 179.212 175.384C173.838 176.335 172.728 182.349 171.507 186.799C170.491 190.497 169.825 194.236 169.267 198.026C167.938 198.899 166.438 199.609 165.009 200.227C149.427 205.005 146.688 213.862 140.737 227.545C130.685 247.432 103.41 255.219 99.2899 278.755C96.6353 294.293 104.184 308.911 111.967 321.829C119.215 335.938 129.333 342.71 145.448 339.377C160.562 335.986 175.088 330.315 189.937 325.932C197.128 324.164 204.309 319.565 211.874 321.168C227.462 324.669 243.477 326.315 259.452 325.861C281.881 326.768 281.878 305.24 279.576 288.57C277.963 262.626 264.878 245.968 240.022 238.428Z" fill="#EDB98A"/>
<path fill-rule="evenodd" clip-rule="evenodd" d="M241.522 275.968C243.397 277.207 244.973 279.087 246.238 281.064C240.956 280.515 235.682 279.881 230.42 279.16C231.109 278.719 231.804 278.289 232.515 277.882C235.11 276.42 238.625 274.052 241.522 275.968ZM153.752 291.584C152.784 291.205 152.409 289.729 152.032 288.883C150.849 286.23 149.77 283.532 148.646 280.853C152.911 279.637 157.058 278.289 161.476 277.641C166.226 276.945 171.046 276.776 175.84 276.932C185.551 277.249 195.171 278.836 204.718 280.538C214.253 282.238 223.789 283.871 233.391 285.152C242.799 286.408 252.236 287.327 261.691 288.133C263.528 288.29 266.591 288.951 268.069 287.505C269.239 286.36 269.277 284.248 267.813 283.318C266.901 282.737 265.58 282.729 264.539 282.595C263.227 282.426 261.91 282.314 260.59 282.226C260.052 282.191 259.515 282.158 258.977 282.126C263.294 280.498 267.803 279.61 272.484 279.857C272.749 281.465 273.941 283.12 274.594 284.446C275.734 286.761 276.622 289.104 277.205 291.622C278.424 296.884 278.477 302.345 278.133 307.712C277.817 312.187 277.137 317.136 273.627 320.305C270.97 322.705 267.22 323.593 263.742 323.873C259.699 324.197 255.594 323.851 251.585 323.309C245.962 322.549 240.312 321.543 234.8 320.196C224.124 317.586 213.89 313.434 204.449 307.804C199.844 305.058 195.451 301.97 190.783 299.329C186.027 296.637 180.967 294.55 175.653 293.253C169.706 291.802 163.489 291.183 157.377 291.541C156.316 291.603 154.784 291.988 153.752 291.584ZM146.86 288.89C147.485 290.918 147.963 293.233 149.297 294.937C150.618 296.626 152.612 297.222 154.676 297.372C157.166 297.553 159.685 297.437 162.18 297.53C167.298 297.72 172.345 298.551 177.237 300.076C181.796 301.497 186.028 303.713 190.105 306.172C193.875 308.446 197.534 310.888 201.305 313.155C200.301 313.615 199.309 314.112 198.311 314.546C196.219 315.454 194.113 316.331 191.998 317.186C187.828 318.872 183.639 320.516 179.408 322.044C170.877 325.125 162.205 327.817 153.429 330.11C149.243 331.204 144.998 332.481 140.649 332.663C136.793 332.824 133.222 331.734 130.112 329.441C123.661 324.686 118.53 317.822 114.381 311.052C111.916 307.03 109.766 302.803 107.986 298.433C107.087 296.223 106.271 293.98 105.536 291.71C105.192 290.644 104.865 289.572 104.556 288.495C104.42 288.022 104.289 287.547 104.16 287.071C110.756 285.058 117.43 283.241 124.261 282.233C127.908 281.694 131.604 281.422 135.29 281.461C137.121 281.481 138.95 281.58 140.77 281.769C141.75 281.87 142.726 282.001 143.698 282.163C144.099 282.23 144.512 282.329 144.926 282.401C145.558 284.568 146.196 286.733 146.86 288.89ZM283.205 280.275C283.56 279.556 283.71 278.849 283.837 278.066C283.935 277.469 284.192 276.628 283.967 275.853C283.714 274.984 283.025 274.208 282.53 273.467C281.984 272.649 281.439 271.83 280.894 271.01C279.804 269.371 278.717 267.731 277.631 266.09C273.197 259.387 268.793 252.664 264.383 245.946C260.469 239.985 256.621 233.969 252.588 228.088C249.139 223.058 245.38 218.112 240.659 214.2C234.69 209.255 227.583 206.925 220.159 205.107C219.349 204.265 218.266 203.806 217.108 203.899C215.472 202.044 214.173 200.748 213.583 198.389C213.301 197.26 213.39 194.085 212.289 193.416C210.982 192.622 210.299 193.673 209.939 194.858C208.733 198.822 210.117 204.151 213.303 208.121C211.96 212.759 210.181 219.351 207.007 223.066C203.608 227.045 198.908 228.284 193.836 228.365C184.164 228.521 174.503 224.926 167.125 218.697C164.883 216.803 162.801 214.689 160.917 212.44C159.503 210.752 157.832 208.148 156.726 206.18C156.726 205.413 155.821 204.611 165.04 203.991C174.26 203.372 174.959 190.748 175.164 189.03C175.33 187.635 176.039 185.469 175.056 184.332C174.638 183.849 173.782 183.771 173.253 184.099C172.256 184.718 171.928 186.302 171.615 187.378C171.175 188.885 169.739 198.236 167.018 199.319C165.745 199.826 164.284 199.836 162.936 199.929C161.272 200.046 159.605 200.131 157.947 200.324C157.336 200.396 156.669 200.593 156.066 200.599C155.674 200.603 155.269 200.412 154.89 200.278C153.61 199.826 152.33 200.165 151.012 200.342C139.352 201.909 127.347 205.486 117.402 211.92C108.637 217.592 102.462 225.748 98.3866 235.285C94.2289 245.017 91.8458 255.541 89.8486 265.902C89.1796 269.373 88.5953 272.86 88.0934 276.36C87.6083 279.741 87.0015 283.198 86.8562 286.613C86.7987 287.965 87.1217 289.22 87.6187 290.455C88.1784 291.844 89.5013 292.392 90.7702 293.041C93.5557 294.465 96.494 295.571 99.5214 296.353C101.371 299.718 102.927 303.213 104.178 306.842C103.714 307.761 103.704 309.134 103.615 310.028C103.394 312.253 103.299 314.49 103.279 316.725C103.239 321.206 103.509 325.682 103.72 330.155C103.934 334.692 104.646 352.594 104.762 354.78C104.852 356.478 104.731 358.854 105.625 360.361C107 362.679 110.393 362.601 111.965 360.722C151.012 369.116 224.409 366.587 253.97 362.364C257.816 361.815 256.608 362.424 257.587 361.452C258.32 360.723 258.945 359.473 259.148 358.469C259.419 357.128 258.982 355.915 258.214 354.83C257.407 353.69 257.26 351.844 256.961 350.488C256.252 347.282 255.9 333.205 255.569 331.645C255.465 331.159 255.366 330.645 255.245 330.131C260.667 330.645 266.317 330.645 271.476 328.831C274.401 327.803 277.129 326.187 279.229 323.881C281.772 321.088 283.187 317.572 283.914 313.902C284.853 309.17 285.052 304.268 284.868 299.458C284.612 293.772 283.669 288.007 281.328 282.787C282.098 282.071 282.744 281.209 283.205 280.275Z" fill="black"/>
<path fill-rule="evenodd" clip-rule="evenodd" d="M233.151 133.1C232.233 125.758 229.349 117.962 226.316 111.117C219.495 96.6441 203.88 94.6515 189.882 91.6675C176.068 89.6522 161.441 87.8325 147.836 91.8534C140.187 93.7311 137.2 102.86 138.407 110.063C139.096 114.552 141.135 118.8 142.874 122.961C146.329 131.504 148.522 140.651 148.526 149.9C148.289 155.945 147.437 162.845 154.369 165.405C160.965 168.692 161.523 177.603 169.782 182.659C173.122 189.438 182.219 190.035 188.767 191.607C192.906 192.401 197.091 192.985 201.288 193.362C213.439 194.923 223.161 191.394 229.522 180.547C233.778 173.945 236.948 166.322 236.165 158.321C235.385 149.895 234.086 141.514 233.151 133.1Z" fill="#EDB98A"/>
<path fill-rule="evenodd" clip-rule="evenodd" d="M189.987 74.0783C190.68 73.2905 191.749 73.5607 192.397 74.1836C192.82 74.3083 193.229 74.4937 193.615 74.7391C194.488 74.6268 195.404 74.6268 196.26 74.6583C196.468 74.5416 196.69 74.4377 196.933 74.3485C198.664 73.7141 200.198 74.0364 201.462 74.8856C202.072 74.3081 202.84 73.9457 203.823 74.0004C204.7 74.0495 205.324 74.463 205.86 75.0076C206.394 74.2359 207.257 73.6854 208.333 73.6088C209.836 73.5017 211.281 74.1058 212.479 75.041C213.177 74.2389 214.128 73.7778 215.188 73.7734C215.886 73.6465 216.622 73.6965 217.287 73.8978C218.253 74.1901 219.1 74.7376 219.776 75.4483C220.844 74.4231 222.152 73.6854 223.66 73.793C225.611 73.9343 227.229 75.3722 227.981 77.1421C229.302 77.6723 230.521 78.4286 231.541 79.5069C231.595 79.5636 231.647 79.6231 231.701 79.6828C232.25 79.8859 232.767 80.1736 233.223 80.5527C234.665 81.7551 234.986 83.4952 234.509 85.2004C234.576 85.4733 234.632 85.7509 234.684 86.0283C236.035 86.2341 237.262 87.0151 237.959 88.2868C238.914 90.0318 238.726 92.3319 237.692 93.9979C237.248 94.7145 236.684 95.3184 236.05 95.8464C236.766 97.4774 236.423 99.4238 235.267 100.743C234.986 101.198 234.64 101.608 234.251 101.98C234.68 103.666 233.917 105.406 232.393 106.307L232.263 106.634C232.241 106.688 232.219 106.742 232.196 106.796C232.179 106.865 232.158 106.933 232.138 107C232.102 107.599 231.905 108.186 231.515 108.739C230.715 109.873 229.725 110.612 229.2 111.936L229.147 112.075C228.921 112.701 228.192 113.143 227.571 112.95C231.021 120.05 232.829 127.949 234.071 135.691C234.69 139.553 235.168 143.429 235.556 147.319L235.936 151.194C236.27 154.637 236.567 158.092 236.569 161.547C236.574 169.363 234.343 176.881 229.554 183.101C225.025 188.98 218.616 193.241 211.376 194.92C203.901 196.65 195.132 195.968 188.429 192.007C186.452 190.842 188.184 188.041 190.195 188.978C194.002 190.753 197.87 192.072 202.09 192.367C206.204 192.656 210.327 192.141 214.228 190.792C220.682 188.559 226.173 183.882 229.703 178.057C231.442 175.186 232.701 172.07 233.371 168.778C234.205 164.675 234.08 160.434 233.773 156.278L233.752 155.995C233.146 147.988 232.347 139.932 231.056 132.005C229.914 124.996 228.159 118.128 225.881 111.412C224.989 110.625 223.99 109.973 222.922 109.479C215.099 109.151 207.261 109.247 199.448 109.788C192.785 110.252 186.154 111.037 179.573 112.182L178.868 112.306C177.411 112.566 175.794 112.715 174.421 113.303C173.243 113.808 172.766 114.78 172.469 115.975C171.722 118.996 171.608 122.303 171.482 125.402C171.359 128.431 171.638 131.485 171.396 134.504C171.19 137.03 170.545 139.615 168.677 141.442C167.7 142.399 166.498 142.922 165.37 143.648C164.64 144.117 164.331 144.6 164.425 145.467C164.628 147.366 166.154 149.758 164.44 151.384C164.138 151.669 163.616 151.707 163.319 151.384C162.612 150.614 161.635 150.026 160.796 149.404C160.445 149.146 160.737 148.646 161.135 148.824C161.66 149.06 162.194 149.337 162.741 149.58C161.534 148.584 159.817 148.095 158.387 147.805C157.667 147.661 156.91 147.619 156.161 147.686C155.607 147.951 155.04 148.197 154.474 148.437C153.754 148.74 153.027 149.015 152.295 149.275C149.754 151.35 148.542 154.724 149.072 158.023C149.361 159.845 150.2 161.825 151.78 162.889C153.653 164.148 156.161 163.607 158.184 164.542C160.079 165.417 161.232 167.184 162.095 169.014L162.455 169.775C163.256 171.462 164.08 173.103 165.175 174.638C166.441 176.415 167.992 178.012 169.684 179.383C170.505 180.046 171.38 180.643 172.284 181.187L172.531 181.333C173.446 181.871 174.102 182.384 174.164 183.522C174.183 183.919 173.934 184.281 173.612 184.486C172.227 185.366 170.849 184.266 169.696 183.497C168.452 182.669 167.262 181.738 166.162 180.721C164.069 178.793 162.258 176.502 160.866 174.016C159.805 172.122 159.201 169.458 157.524 167.99C156.5 167.095 155.053 167.088 153.774 166.924C152.584 166.771 151.459 166.523 150.4 165.935C146.094 163.538 144.877 157.735 145.898 153.251C146.071 152.495 146.314 151.759 146.613 151.05C145.01 151.317 143.209 149.657 143.86 147.981C143.909 147.855 143.966 147.736 144.021 147.614C142.964 146.918 142.131 145.862 141.735 144.481C141.532 143.767 141.503 143.046 141.609 142.349C141.097 142.005 140.674 141.531 140.402 140.949C139.551 140.554 138.796 139.965 138.346 139.122C137.723 137.959 137.802 136.888 138.277 135.924C138.21 135.803 138.146 135.679 138.084 135.552C136.34 134.444 135.123 132.536 135.262 130.419C135.306 129.717 135.479 129.085 135.747 128.515C135.724 128.443 135.702 128.369 135.682 128.297C134.223 127.553 133.016 126.331 132.585 124.7C132.155 123.059 132.662 121.423 133.676 120.164C132.192 119.076 131.299 117.556 131.841 115.258C132.061 114.324 132.504 113.474 133.102 112.757C133.1 112.735 133.095 112.713 133.09 112.69L132.951 112.582C131.119 111.134 130.066 109.287 131.19 107.016C131.695 105.995 132.415 105.284 133.261 104.815L133.303 104.681C132.697 103.38 132.491 101.935 132.909 100.415C133.251 99.1637 134.06 98.167 135.094 97.5054C135.024 96.945 135.034 96.3478 135.146 95.7006C135.331 94.6077 135.873 93.6534 136.664 92.9767C136.694 92.8326 136.731 92.6916 136.773 92.55C137.04 91.6852 137.54 90.7457 138.119 90.0489C138.596 89.4714 139.13 89.2607 139.783 89.2384C139.744 88.7057 139.771 88.1651 139.88 87.6172C140.214 85.9269 141.287 84.3378 142.878 83.6165C143.531 83.3215 144.219 83.235 144.881 83.3066C145.445 82.1168 146.546 81.2544 147.899 81.0685C148.426 80.9941 148.916 80.9988 149.366 81.066C149.621 80.9468 149.886 80.8404 150.163 80.7435C150.346 80.6791 150.531 80.6196 150.717 80.5603C151.342 79.782 152.166 79.1596 153.128 78.7855C154.239 78.3517 155.369 78.3961 156.371 78.7605L156.69 78.6936C157.19 77.826 157.986 77.1542 159.211 76.8493C160.601 76.5048 162.028 76.9857 163.122 77.8609C163.127 77.8609 163.131 77.8609 163.139 77.8582C163.71 76.5767 164.687 75.6843 166.327 75.7463C167.349 75.7859 168.272 76.2943 168.984 77.0181C169.38 76.9683 169.775 76.9237 170.174 76.8793C170.594 76.3858 171.062 75.925 171.579 75.511C172.425 74.8316 173.525 74.8864 174.149 75.8429C174.285 76.0512 174.411 76.2619 174.537 76.4726L175.109 76.4329C175.781 75.5232 176.699 74.9084 177.956 74.8591C179.108 74.8118 179.929 75.3772 180.555 76.1677C181.065 76.1553 181.577 76.1456 182.089 76.1379C182.685 75.4463 183.388 74.8365 184.189 74.3309C184.802 73.9442 185.708 74.0758 186.205 74.5914C186.541 74.9419 186.854 75.3078 187.144 75.6865C187.893 74.8447 188.905 74.2902 189.987 74.0783ZM153.581 152.792C154.736 152.133 156.29 152.847 157.408 153.407C158.771 154.089 160.124 155.118 160.957 156.407C162.093 158.162 159.424 159.579 158.229 158.005C157.494 157.036 156.908 156.06 156.017 155.212C155.204 154.433 154.024 153.913 153.556 152.887C153.539 152.852 153.544 152.812 153.581 152.792ZM154.393 110.194L154.414 110.132C154.743 109.232 153.309 108.843 152.983 109.737C152.489 111.09 153.059 112.562 154.393 113.146C154.763 113.309 155.185 113.252 155.408 112.88C155.595 112.566 155.508 112.023 155.142 111.862C154.391 111.533 154.14 110.953 154.393 110.194ZM142.042 107.676C142.759 107.041 141.706 105.993 140.992 106.624C140.326 107.214 139.831 108.015 139.96 108.935C140.091 109.874 140.797 110.536 141.57 111.005C142.389 111.501 143.136 110.216 142.319 109.72L142.227 109.664C141.884 109.451 141.483 109.157 141.425 108.737C141.363 108.291 141.74 107.943 142.042 107.676ZM146.115 96.4787L146.166 96.4413C146.937 95.89 146.196 94.5995 145.417 95.157C144.702 95.6684 144.128 96.3327 144.068 97.2489C144.009 98.1392 144.461 98.9111 145.053 99.5375C145.71 100.234 146.759 99.1813 146.102 98.486C145.463 97.8084 145.337 97.0689 146.115 96.4787Z" fill="black"/>
<path fill-rule="evenodd" clip-rule="evenodd" d="M218.865 171.214C218.047 172.284 216.566 173.103 214.907 173.494C213.327 173.868 211.58 173.852 210.072 173.278L209.943 173.226C208.816 172.758 207.734 171.813 207.323 170.827C207.16 170.434 207.104 170.036 207.216 169.664C207.317 169.329 207.552 169.021 207.945 168.757C208.068 168.674 208.234 168.668 208.391 168.695C208.587 168.73 208.779 168.821 208.896 168.945C209.541 169.631 210.476 170.299 211.584 170.288C212.439 170.279 213.136 169.942 213.813 169.56L214.289 169.288C214.748 169.026 215.213 168.78 215.739 168.668C216.682 168.467 217.825 168.834 218.521 169.441C218.825 169.706 219.046 170.016 219.106 170.351C219.156 170.633 219.085 170.926 218.865 171.214ZM213.965 152.51C215.837 153.648 218.689 156.301 216.676 159.122C214.305 161.609 210.893 158.757 209.211 157.467C207.652 156.468 205.9 159.039 207.346 160.206C219.498 169.203 224.43 152.808 214.912 151.172C213.864 150.992 213.475 152.158 213.965 152.51ZM192.848 135.023L193.386 134.876L193.934 134.728L194.305 134.63C196.852 133.963 199.661 133.376 202.187 133.663C203.108 133.767 203.856 134.286 203.986 135.251C204.096 136.065 203.569 137.116 202.674 137.26C199.708 137.74 196.671 137.584 193.691 138.079C192.207 138.325 190.734 138.631 189.256 138.906C188.132 139.116 186.97 139.19 185.836 139.359L186.097 139.396C186.188 139.408 186.165 139.561 186.075 139.555C185.701 139.518 185.327 139.512 184.952 139.538L184.792 139.551C184.547 139.586 184.403 139.294 184.621 139.146C186.002 138.208 187.174 137.193 188.721 136.502C190.059 135.904 191.436 135.412 192.848 135.023ZM216.035 133.586C217.993 131.606 222.157 132.367 224.487 133.272C225.816 133.79 227.081 134.443 228.134 135.421L228.236 135.517L228.394 135.669C229.105 136.365 229.898 137.323 229.785 138.326C229.768 138.479 229.685 138.654 229.512 138.684C228.579 138.85 227.662 138.357 226.801 138.061L226.23 137.865C225.373 137.574 224.511 137.295 223.627 137.093C222.529 136.843 221.408 136.699 220.28 136.713C219.14 136.728 217.916 137.05 216.83 136.597C215.619 136.093 214.991 134.641 216.035 133.586ZM196.689 149.551C196.189 150.061 195.529 150.349 194.685 150.178C194.025 150.044 192.768 149.381 191.764 148.359C191.078 147.66 190.504 146.786 190.348 145.774C190.311 145.539 190.187 145.389 190.023 145.294C189.893 145.219 189.723 145.181 189.537 145.2C189.38 145.216 189.212 145.273 189.083 145.349C188.837 145.493 188.736 145.697 188.715 145.85C188.518 147.323 189.087 148.785 189.974 150.018C191.171 151.681 192.929 152.9 193.963 153.185C195.731 153.674 197.594 153.285 198.968 152.054C200.067 151.07 200.63 149.788 201.152 148.47L201.253 148.214C201.371 147.915 201.487 147.618 201.611 147.324C201.858 146.735 201.779 146.227 201.539 145.83C201.273 145.391 200.782 145.081 200.235 144.986C199.73 144.898 199.19 144.994 198.763 145.303C198.402 145.564 198.111 145.977 198.008 146.588C197.84 147.581 197.451 148.72 196.763 149.472L196.689 149.551ZM227.01 143.803C226.598 143.588 226.276 143.523 225.819 143.66C225.566 143.736 225.316 143.882 225.121 144.077C224.927 144.271 224.787 144.512 224.733 144.78C224.599 145.44 224.238 146.057 223.724 146.46C223.284 146.804 222.729 146.987 222.113 146.884C221.448 146.773 220.815 146.347 220.379 145.844C220.258 145.704 220.158 145.548 220.062 145.39L220.005 145.296C219.79 144.941 219.581 144.611 219.285 144.351C219.172 144.252 219.003 144.183 218.839 144.183C218.773 144.183 218.705 144.194 218.641 144.214C217.979 144.878 217.852 145.381 217.874 145.881C217.896 146.405 218.102 146.935 218.436 147.43C219.219 148.59 220.705 149.542 221.708 149.757C223.081 150.052 224.445 149.698 225.539 148.931C226.664 148.142 227.497 146.916 227.757 145.535C227.82 145.203 227.793 144.844 227.667 144.533C227.543 144.228 227.327 143.968 227.01 143.803Z" fill="black"/>
<path fill-rule="evenodd" clip-rule="evenodd" d="M242.75 133.637C242.546 133.603 242.342 133.571 242.137 133.541C241.978 133.451 241.791 133.381 241.573 133.339C241.076 133.213 240.583 133.128 240.09 133.082C233.017 131.491 216.656 133.751 215.98 139.786C213.728 140.538 211.779 139.865 209.169 139.932C207.182 131.626 172.83 132.799 171.178 137.806C171.172 137.804 171.165 137.802 171.159 137.801C169.572 137.309 167.231 137.428 165.414 137.35C161.535 137.269 157.651 137.614 153.855 138.433C146.747 139.562 137.046 140.885 141.99 149.761C141.991 149.762 141.991 149.764 141.993 149.765L141.993 149.765C142.845 150.638 144.291 149.935 144.345 148.753C142.683 144.548 146.437 144.043 149.325 142.834C156.512 140.252 163.829 139.894 171.262 140.693C171.821 141.351 172.67 141.925 173.566 142.226C178.536 143.051 175.917 146.737 179.058 147.273C178.481 160.124 194.083 167.139 203.123 158.691C206.732 155.162 207.593 149.935 208.43 145.223C208.872 145.123 209.154 144.881 209.318 144.561C210.382 143.499 211.051 142.518 213.155 142.226C215.259 141.934 216.879 142.52 217.098 142.699C217.153 142.81 217.213 142.922 217.281 143.033C217.378 143.2 217.509 143.332 217.657 143.437C215.579 156.233 225.514 164.326 235.543 157.689C239.9 153.59 240.821 147.314 241.003 141.712C241.594 141.356 241.968 140.665 241.763 139.796C241.482 138.599 242.142 137.563 243.195 137.042C244.562 136.366 244.32 133.897 242.75 133.637ZM199.657 139.708C198.412 139.434 197.88 141.354 199.129 141.628C200.013 141.823 200.763 142.269 201.269 143.024L201.322 143.106C202.002 144.187 203.72 143.189 203.036 142.101C202.266 140.877 201.07 140.019 199.657 139.708ZM236.116 138.518C235.677 138.209 235.013 138.439 234.759 138.875C234.478 139.356 234.662 139.892 235.073 140.207L235.115 140.237C235.492 140.503 235.859 140.979 235.905 141.467L235.909 141.528C235.959 142.806 237.943 142.812 237.894 141.528C237.845 140.273 237.118 139.224 236.116 138.518Z" fill="black"/>
</g>
</g>
<defs>
<radialGradient id="paint0_radial_41_7145" cx="0" cy="0" r="1" gradientUnits="userSpaceOnUse" gradientTransform="translate(200.103 179) rotate(90) scale(179 200.103)">
<stop stop-color="#FFF4AB"/>
<stop offset="1" stop-color="#FDEA6B"/>
</radialGradient>
<clipPath id="clip0_41_7145">
<rect width="400" height="358" fill="white"/>
</clipPath>
</defs>
</svg>
