<svg width="297" height="350" viewBox="0 0 297 350" fill="none" xmlns="http://www.w3.org/2000/svg">
<path fill-rule="evenodd" clip-rule="evenodd" d="M58.6684 268.783C58.6684 266.672 61.5908 262.924 61.5959 261.012C59.139 260.573 57.0849 257.244 57.6292 255.16C58.5881 254.427 61.1015 252.984 62.1411 252.31C68.4745 252.502 66.0675 243.691 66.7843 239.212C67.506 234.83 68.0419 230.248 69.0981 225.841C70.9742 222.315 71.8546 218.362 73.6477 214.854C74.4484 213.691 75.7426 212.625 76.1301 211.274C80.0529 206.99 85.453 204.422 89.8971 200.793C88.1724 200.241 88.2874 197.915 88.3989 196.421C87.9976 194.472 88.4263 192.028 90.2037 190.93C90.8043 188.973 93.4298 188.29 94.9651 189.537C95.9736 185.017 99.919 182.274 104.052 180.597C104.048 180.584 104.045 180.571 104.041 180.557C108.209 178.903 113.206 178.078 117.365 179.008C115.169 154.547 133.904 153.649 143.413 155.705C148.276 156.756 155.574 160.03 157.231 164.58C158.167 167.15 160.853 175.436 161.236 178.078C168.496 173.935 176.914 168.472 183.211 176.813C184.472 178.267 185.868 179.346 187.755 179.846C193.647 181.375 201.467 181.426 204.815 187.432C206.817 191.153 205.017 193.604 205.555 197.326C232.076 215.951 254.239 284.562 249.263 316.482C248.066 327.905 242.221 348.124 227.795 345.603C220.436 353.652 96.9338 353.652 84.1987 345.603C73.716 348.345 63.0645 344.101 58.6684 334.061C53.0859 320.294 59.0019 305.426 60.0503 291.304C60.687 287.738 61.6346 284.908 62.1411 281.258C62.3521 279.736 61.6241 277.206 62.1411 275.804C61.8971 274.891 58.6684 270.895 58.6684 268.783Z" fill="#EDB98A"/>
<path fill-rule="evenodd" clip-rule="evenodd" d="M163.012 176.395L162.576 176.582L161.081 177.23L161.394 177.949C162.277 179.973 163.269 181.919 164.356 183.752L164.561 184.095L164.875 184.615L164.859 184.632C164.723 184.783 164.585 184.938 164.444 185.099L147.985 202.784C141.042 210.238 137.377 214.159 136.989 214.549C135.37 216.175 133.779 216.378 132.323 215.007L132.159 214.851L131.889 214.591L131.705 214.411C130.754 213.472 129.81 212.434 128.451 210.867L113.249 189.302L114.209 187.157C115.972 183.195 116.934 180.879 117.096 180.208L117.169 179.879L117.322 179.171L116.628 178.964C114.125 178.219 111.354 178.414 108.211 179.344L108.029 179.398L107.506 179.56C105.376 180.222 104.17 180.667 102.935 181.327C101.255 182.224 100.014 183.338 99.24 184.791C98.3494 186.462 97.6679 187.302 96.5201 187.982L96.4301 188.034L96.3187 188.097L96.2012 188.16C96.0996 188.214 95.9869 188.271 95.8513 188.338L95.3694 188.57C93.8482 189.299 93.1495 189.766 92.5508 190.687C91.8897 191.703 91.7778 192.655 91.9819 194.032L92.0001 194.151L92.0321 194.345L92.1563 195.061L92.1859 195.242C92.2668 195.754 92.2803 196.204 92.2222 196.583L92.2076 196.669L91.8745 198.44L92.5358 198.02L90.7068 199.511C88.1472 201.606 86.6217 202.906 85.0268 204.372L84.5859 204.78L84.4993 204.861C81.6249 207.541 79.2905 210.126 77.3367 212.886C75.2174 215.877 73.422 219.149 71.9719 222.634L71.8077 223.033L71.7944 223.085C69.6225 231.597 67.8778 240.219 66.5648 248.925L66.4391 249.768L65.8017 254.088L67.9 250.258C68.2266 249.662 69.1308 249.071 70.2587 248.631L70.3651 248.59L70.4423 248.561L70.6035 248.504C71.8411 248.073 73.089 248.032 74.2582 248.395L74.3788 248.434L74.7337 248.553L75.0491 248.351C75.6306 247.98 76.2819 247.666 76.9977 247.407L77.1779 247.344L77.933 247.085L77.6592 246.335C77.4522 245.768 77.8318 244.656 78.3788 244.178C79.2309 243.439 80.4557 243.232 82.3577 243.372L82.6154 243.392L82.8196 243.411L83.1257 243.441L84.0911 243.545L84.0912 243.549C84.1032 243.716 84.1108 243.869 84.114 244.014L84.1155 244.121L84.1153 244.225C84.1111 244.584 84.0802 244.916 84.0204 245.226L83.9931 245.357L83.7754 246.329L84.7708 246.311L85.2048 246.305C86.6582 246.287 88.1844 246.31 89.9814 246.369L91.7552 246.435L96.2798 246.627L100.249 246.766L101.431 246.805L101.488 246.057C101.562 245.07 102.407 244.414 103.902 244.122L103.999 244.104L105.561 243.822L104.278 242.657L104.174 242.559L104.067 242.455C103.034 241.427 102.688 240.486 103.113 239.576C103.61 238.51 105.143 238.199 106.552 238.778L106.649 238.819L106.748 238.863C107.013 238.986 107.276 239.14 107.695 239.41L108.231 239.759L108.426 239.883C108.89 240.175 109.197 240.341 109.585 240.501C110.612 240.926 111.571 240.956 113.144 240.759L113.284 240.741L113.618 240.697L114.471 240.578L114.682 240.55L114.896 240.524C116.504 240.333 117.522 240.436 118.381 240.985C118.931 241.336 119.243 241.786 119.723 242.836L119.951 243.342L120.052 243.559C120.63 244.79 121.069 245.381 121.933 245.893C122.484 246.221 123.006 246.417 123.928 246.685L124.585 246.875L124.818 246.945C124.959 246.989 125.076 247.028 125.199 247.072C126.204 247.429 127.112 247.942 127.966 248.63L128.099 248.738L128.242 248.858C129.073 249.559 129.784 250.319 130.997 251.744L131.881 252.787L132.194 253.153L132.454 253.45C132.482 253.481 132.509 253.512 132.537 253.543L132.784 253.818C134.708 255.93 136.633 257.878 138.594 259.683L139.005 260.059L139.429 260.441L139.778 260.75C140.918 261.754 142.15 262.771 144.063 264.307L146.434 266.206L147.18 266.808C149.42 268.623 150.785 269.793 152.176 271.115L152.521 271.445L152.545 271.587C152.559 271.666 152.573 271.758 152.589 271.86C152.589 271.86 153.947 280.235 152.714 287.103C151.482 293.971 151.045 291.179 149.798 292.865L149.509 293.252C148.825 294.162 148.297 294.806 147.725 295.405L147.05 296.102L146.273 296.732L145.782 297.028C145.427 297.242 145.074 297.411 144.719 297.532C144.231 297.7 143.577 297.368 143.256 296.785L143.226 296.727L143.017 296.308L142.549 296.294C142.439 296.291 142.327 296.274 142.217 296.244C141.108 295.938 140.556 294.617 141.098 293.591L141.129 293.537L141.409 293.038L141.554 292.787C141.76 292.433 141.952 292.133 142.145 291.869L142.218 291.771L143.297 290.353L140.581 290.606L140.359 290.628L140.054 290.66L139.076 290.772C138.058 290.886 137.075 290.989 136.117 291.083L135.3 291.161L133.873 291.291L133.579 291.321L132.945 291.388L131.426 291.552L130.884 291.608L130.583 291.637C130.293 291.664 130.033 291.687 129.772 291.706L129.485 291.727C127.296 291.876 125.589 291.777 124.039 291.34C121.517 290.627 118.981 289.153 116.237 286.974C113.431 284.747 111.402 282.649 110.181 280.473C110.158 280.432 110.155 280.399 110.171 280.36L110.183 280.335L110.647 279.484L109.717 279.21C108.974 278.99 108.344 278.711 107.814 278.353C106.183 277.256 105.637 275.06 106.82 273.913L106.872 273.863L106.944 273.798L107.943 272.302L106.498 272.089C106.015 272.014 105.591 271.93 105.194 271.826C102.554 271.14 101.197 269.035 102.366 267.009L102.405 266.943L102.877 266.163L102.035 265.815C101.854 265.74 101.667 265.67 101.461 265.597L101.334 265.553L101.207 265.511L100.734 265.354C99.7319 265.024 98.7516 264.772 97.774 264.6C97.0014 264.468 96.228 264.382 95.4542 264.343L95.164 264.331L94.8402 264.32L94.8383 264.31L94.649 264.313L93.9869 264.29L93.9999 264.324C93.0178 264.348 92.0307 264.444 91.0434 264.61L90.8099 264.65C90.467 264.71 90.1411 264.773 89.793 264.844L88.2862 265.163C88.012 265.22 87.7729 265.266 87.5357 265.309L87.3064 265.349L84.8793 265.759L87.0976 266.826L87.1547 266.855L87.2117 266.884L87.4565 267.019C88.964 267.871 89.856 268.843 90.0654 270.041C90.3918 271.911 89.3285 272.772 86.821 273.063L86.6117 273.085L86.3906 273.106L86.2455 273.117L79.9665 273.543L85.9117 274.683C87.3516 274.96 88.8062 275.333 90.2752 275.799C90.3894 275.835 90.5126 275.879 90.6463 275.932L90.7485 275.974L91.353 276.224L91.9328 276.643C92.9504 277.398 93.2342 278.147 92.7263 278.89L92.6913 278.94L92.3765 279.371L92.6625 279.821C93.4839 281.115 93.3765 282.763 92.3946 284.103C91.5753 285.221 90.2495 285.932 88.441 286.34L88.3009 286.37L87.9038 286.455L87.3242 286.546L86.9038 286.604L86.5813 286.642L86.3637 286.664L86.0293 286.695L85.1167 286.772C83.82 286.883 83.1542 286.972 82.3552 287.172C81.2825 287.439 80.3377 287.875 79.0806 288.618L78.9341 288.705L78.6245 288.892L78.0239 289.261L77.443 289.622L77.2468 289.743L77.0046 289.889C75.2154 290.957 74.0362 291.358 72.795 291.17C72.0064 291.052 71.3447 290.763 70.7579 290.305L70.6659 290.231L69.7655 289.49L69.7919 289.34L69.5961 289.07C69.2209 288.555 67.6227 285.545 67.6216 285.543C66.5901 283.732 65.596 282.481 64.3397 281.654L64.2314 281.584L63.9847 281.433L63.7027 281.373L63.5605 281.395C63.147 281.46 63.0244 281.643 62.9076 281.954C62.8778 282.034 62.8539 282.121 62.8306 282.228L62.8088 282.333L62.7866 282.453L62.7522 282.661L62.7161 282.905L62.6753 283.205L62.6313 283.552C62.5968 283.832 62.559 284.157 62.516 284.539L62.0427 288.9L61.9127 290.058L61.7925 291.091C61.7825 291.175 61.7726 291.258 61.7627 291.341L61.6604 292.177L61.549 293.052C61.2615 295.257 60.9774 297.03 60.683 298.375L60.6288 298.617L60.5924 298.774L60.498 299.176C58.8092 306.408 57.953 312.379 57.9106 318.361C57.8722 324.791 59.2747 330.531 62.3165 335.261C65.2164 339.775 69.4489 343.052 74.2183 344.182C76.7324 344.776 79.226 344.646 81.236 343.646C81.6029 343.464 81.8634 343.276 82.339 342.879L82.497 342.746C83.1252 342.214 83.4023 342.029 83.7366 341.951C83.7779 341.941 83.8178 341.934 83.8566 341.929L83.9139 341.923L84.6245 341.869L84.637 341.156C84.6638 339.638 85.3884 339.044 85.3204 341.413C85.3204 341.413 85.1895 344.827 85.154 345.258L85.1291 345.541L85.1194 345.64L85.5391 347.105C103.857 354.101 210.052 354.222 226.436 347.379L226.905 347.17L229.802 345.779C229.802 345.779 223.996 344.427 227.966 344.928C232.224 345.467 237.182 342.857 239.869 338.464L240.849 336.848L241.148 336.346L241.315 336.063C241.714 335.38 241.998 334.858 242.3 334.256C243.515 331.83 244.524 329.219 245.353 326.41C246.897 321.184 247.706 315.523 247.947 309.119C248.384 297.537 247.189 285.312 244.549 272.576C241.989 260.221 238.11 248.213 232.991 236.858C230.432 231.182 227.611 225.753 224.519 220.578L224.187 220.024L223.825 219.426L223.454 218.817L223.08 218.209L222.74 217.661L222.397 217.113L222.051 216.566C218.892 211.602 216.083 207.939 212.837 204.779C209.952 201.971 206.913 199.122 203.72 196.232L203.788 195.022L203.791 194.999C203.859 194.601 205.061 191.2 203.846 188.549L203.708 188.251C202.608 185.925 202.449 186.523 201.397 185.789L201.354 185.759C199.047 184.107 196.108 182.974 192.623 182.219C191.729 182.025 190.888 181.938 189.703 181.891L189.539 181.885L189.324 181.878L188.403 181.85C186.666 181.794 185.364 181.182 184.36 179.914L184.286 179.819L184.211 179.719L184.14 179.623C183.895 179.28 183.661 178.889 183.283 178.217L183.024 177.758L182.899 177.541L182.772 177.322C182.338 176.587 182.031 176.155 181.596 175.682C180.282 174.253 178.244 173.415 176.095 173.275C172.284 173.026 168.532 174.048 163.012 176.395ZM113 249.889L113.31 251.417C113.34 251.561 113.356 251.702 113.358 251.84L113.358 251.943L113.336 252.64L114.025 252.742C114.583 252.825 115.136 252.911 115.684 253.001L116.23 253.092L121.377 253.965L116.671 251.601L116.576 251.554L116.55 251.541L116.369 251.455L115.803 251.192L114.411 250.552L113 249.889Z" fill="#EC7495"/>
<path fill-rule="evenodd" clip-rule="evenodd" d="M117.047 171.102C116.755 172.351 117.022 173.76 116.973 175.042C116.926 176.267 116.782 177.485 116.569 178.692C114.33 177.514 111.683 177.362 109.132 177.742C105.831 178.232 102.011 179.318 99.4238 181.523C98.7851 182.068 98.2559 182.713 97.8129 183.424C97.2811 184.277 96.9416 185.241 96.0986 185.852C94.7945 186.798 93.1778 187.164 91.924 188.212C90.6457 189.281 89.8523 190.878 89.6845 192.527C89.595 193.404 89.7398 194.225 89.9063 195.08C90.0555 195.85 89.9822 196.166 89.7795 196.908C89.6203 197.49 89.924 198.15 90.4193 198.471C89.3575 199.2 88.3102 199.951 87.2811 200.733C81.2853 205.283 76.2152 210.956 72.7005 217.63L72.6156 217.796L72.5172 217.995C71.6607 219.755 69.4197 224.899 69.1412 226.056C68.9422 226.66 68.7493 227.266 68.5701 227.876C68.0967 229.493 67.6953 231.13 67.3626 232.781L67.2735 233.231C67.0035 234.617 66.5388 236.259 66.6136 237.736C65.8353 241.77 65.1457 245.82 64.557 249.887C64.4801 250.42 64.6922 250.853 65.0215 251.14C64.2343 251.267 63.452 251.422 62.6784 251.579L62.2289 251.674L62.004 251.723C60.3927 252.087 58.8025 252.616 57.7471 253.969C56.6092 255.433 56.586 257.314 57.7289 258.789C58.6992 260.041 60.1163 260.636 61.5958 261.012C61.8878 261.085 62.1829 261.153 62.4777 261.212C62.6758 261.254 62.8062 260.983 62.6186 260.879L62.3046 260.705L61.8763 260.47C60.7611 259.856 59.6036 259.162 58.9865 258.053C58.1487 256.547 58.8117 255.154 60.2494 254.389C61.4529 253.749 62.9418 253.585 64.2783 253.366L64.8302 253.275C66.2275 253.052 67.6529 252.907 69.0632 253.066C70.2974 253.207 71.5472 253.628 72.5442 254.381L72.6366 254.454L72.7319 254.534C73.6062 255.292 74.8634 256.994 73.2146 257.484C71.9543 257.857 70.4187 257.764 69.0941 257.836L68.9226 257.847C67.8136 257.922 66.6549 257.922 65.5332 258.055C65.1313 258.102 64.7345 258.167 64.3457 258.259C63.2315 258.523 63.6151 260.005 64.5964 260.109C64.8365 260.135 65.0815 260.148 65.327 260.153C65.9689 260.636 66.856 260.855 67.6151 261.155C68.3405 261.442 69.0685 261.727 69.8017 262.006C69.1702 262.035 68.5388 262.087 67.9099 262.165C67.7067 262.188 67.7041 262.463 67.9099 262.483C69.4236 262.637 70.9369 262.804 72.4451 263.015C74.7801 263.339 77.1 263.772 79.3672 264.432C81.0245 264.917 82.6615 265.494 84.2492 266.167L84.7295 266.374L84.9277 266.46C86.3687 267.085 88.2328 267.815 89.0609 269.192C89.494 269.909 89.6842 271.018 89.0737 271.705C88.4207 272.444 87.0529 272.359 86.1383 272.395L86.0652 272.399C84.1291 272.493 82.1907 272.505 80.252 272.438C76.1894 272.294 72.1239 271.851 68.1343 271.07C67.3985 270.927 67.0802 272.031 67.8212 272.203C72.5272 273.296 77.2847 273.896 82.1132 273.924L82.6421 273.925C84.523 274.285 86.3676 274.821 88.1966 275.426L88.5622 275.548C89.6425 275.913 91.4872 276.276 92.1241 277.348C92.5466 278.06 92.3981 278.549 91.9804 278.88C91.2448 279.462 89.6793 279.571 88.9174 279.6C85.8645 279.715 82.8091 279.736 79.7536 279.67C78.227 279.636 76.7005 279.582 75.1741 279.504C73.6816 279.425 72.0876 279.204 70.6003 279.347C69.9608 279.409 69.7468 280.349 70.4409 280.524C72.2751 280.988 74.3322 280.948 76.2272 281.007L76.4451 281.014C78.4803 281.087 80.5179 281.119 82.5531 281.114C84.3 281.107 86.0466 281.071 87.7916 281.007L89.3344 280.946L89.6077 280.933C90.4299 280.889 91.2697 280.794 91.9986 280.456C92.6718 281.583 92.1685 283.094 91.2996 283.986C90.4725 284.837 89.2798 285.254 88.1372 285.515C88.03 285.539 87.923 285.562 87.816 285.583C85.3059 286.094 82.7488 286.05 80.4005 287.203C78.4255 288.174 76.617 289.792 74.4046 290.175C72.4268 290.52 70.9891 289.648 69.935 288.036C69.8773 287.947 69.8199 287.858 69.7651 287.77C68.9356 286.434 68.3381 284.962 67.4637 283.652C67.0176 282.984 66.514 282.342 65.8982 281.821C65.6219 281.583 63.6858 280.555 63.3829 280.247C62.0808 278.911 63.2341 276.101 62.8949 274.426C62.4986 272.477 60.784 271.791 59.756 270.28C57.8019 267.404 63.1613 264.711 61.559 261.567C61.5381 261.528 61.5123 261.5 61.4783 261.481C61.3374 261.406 61.1128 261.5 61.1258 261.685C61.3035 264.028 59.0697 265.641 58.2635 267.67C57.3453 269.98 58.8117 271.378 60.3091 272.92C62.2298 274.901 60.8782 277.119 61.3059 279.504C61.3617 279.816 61.4515 280.092 61.5681 280.338C61.2399 280.542 60.9868 280.879 60.9312 281.35C60.2726 286.933 59.5647 292.5 58.4088 298.007L58.1615 299.177L57.8304 300.737C57.0065 304.641 56.2375 308.56 56.0913 312.551C55.6323 315.919 55.4502 319.315 55.7221 322.705C56.5466 333.025 62.3159 343.822 72.7973 346.989C75.2237 347.723 77.7967 347.913 80.2859 347.399C81.1389 347.224 82.3339 346.838 83.4066 346.254C83.3427 346.941 83.2921 347.629 83.2709 348.315C82.9175 348.709 82.7576 349.303 82.9589 349.812C83.8137 349.531 84.5906 349.085 85.2902 348.476L85.4061 348.373C85.8208 346.832 85.9422 345.146 86.0025 343.522L86.0182 343.06C86.0341 342.611 86.0443 342.17 86.0602 341.74C86.1487 339.06 86.0861 336.375 85.948 333.698L85.8463 331.727C85.6131 327.131 85.4235 322.545 85.5511 317.935C85.6973 312.631 86.1513 307.349 86.7201 302.074C87.0152 299.352 87.3489 296.636 87.691 293.92C87.9647 291.733 88.424 289.38 88.4318 287.125C90.1881 286.75 91.9125 286.029 92.993 284.555C94.1385 282.992 94.3078 280.994 93.2905 279.391C94.2739 278.045 93.4677 276.777 92.2517 275.921C94.12 274.875 95.1611 272.02 95.4377 270.035C95.6258 268.672 95.6855 266.634 95.1039 265.103C95.9386 265.132 96.7736 265.218 97.6086 265.361C98.5742 265.531 99.5211 265.779 100.456 266.087L100.929 266.243C101.167 266.323 101.436 266.417 101.703 266.528C100.014 269.319 102.183 271.851 104.964 272.573C105.494 272.711 106.034 272.808 106.579 272.886C107.808 273.056 109.063 273.108 110.282 273.221C112.614 273.434 114.96 273.74 117.301 273.839C117.815 273.862 118.146 273.622 118.303 273.288C118.308 273.283 118.31 273.28 118.31 273.275C118.365 273.187 118.402 273.092 118.415 272.994C118.407 273.001 118.397 273.007 118.389 273.012C118.501 272.385 118.125 271.624 117.301 271.532C113.922 271.151 110.496 271.133 107.107 270.854L106.889 270.836C105.825 270.744 104.572 270.575 103.73 269.902C102.947 269.275 102.877 268.461 103.19 267.725C103.195 267.743 103.2 267.764 103.203 267.783C103.227 267.929 103.427 267.924 103.492 267.822C103.688 267.524 103.738 267.232 103.688 266.95C103.923 266.679 104.207 266.439 104.515 266.254C105.88 265.424 107.675 265.197 109.228 264.951C110.926 264.683 112.638 264.56 114.352 264.479C117.726 264.32 121.11 264.594 124.429 265.199C124.568 265.223 124.625 265.03 124.489 264.986C123.195 264.558 121.872 264.198 120.534 263.913C120.565 263.908 120.596 263.903 120.627 263.895C120.745 263.866 120.829 263.723 120.789 263.608C120.784 263.589 120.776 263.571 120.768 263.556C121.337 263.295 121.575 262.418 120.886 262.063C118.739 260.954 116.218 260.453 113.862 259.997C111.599 259.561 109.314 259.255 107.025 258.984C103.156 258.53 98.9367 258.541 95.2135 257.319L95.0604 257.268C93.5442 256.745 91.7341 255.686 91.6281 253.896C91.4718 251.19 95.4927 251.895 97.1678 251.96C101.752 252.135 106.331 252.453 110.895 252.944C111.827 253.043 112.758 253.145 113.689 253.249C115.117 253.408 116.547 253.575 117.971 253.753C118.767 253.852 119.581 253.982 120.4 254.108C120.656 254.17 120.907 254.215 121.157 254.238C121.176 254.24 121.191 254.236 121.204 254.228C122.397 254.395 123.594 254.522 124.758 254.486C124.891 254.483 124.975 254.274 124.834 254.212C123.331 253.575 121.658 253.2 119.981 252.905C118.942 252.13 117.687 251.509 116.656 250.909C115.242 250.084 113.622 248.871 112.017 248.378C111.294 247.809 110.475 247.352 109.721 247.042C109.937 246.705 110.016 246.238 109.977 245.844C109.833 244.433 108.703 243.644 107.399 243.368C106.994 243.284 106.527 243.222 106.029 243.198C106.018 242.935 105.901 242.676 105.64 242.483L105.563 242.425L105.508 242.381C104.633 241.67 102.894 239.668 104.988 239.522C106.099 239.443 107.039 240.258 107.923 240.808C109.76 241.954 111.537 242.011 113.635 241.726L114.578 241.591L114.735 241.57C116.251 241.371 117.79 241.344 118.637 242.89C119.545 244.545 119.863 246.053 121.695 246.964C123.445 247.832 125.389 248.005 126.997 249.2C128.719 250.478 130.013 252.273 131.422 253.865C134.53 257.372 138.086 260.469 141.749 263.381L142.401 263.897C145.775 266.564 149.257 269.189 153.035 271.243C153.061 271.255 153.087 271.261 153.11 271.261C153.212 271.251 153.288 271.12 153.196 271.031C148.784 266.744 143.623 263.269 139.091 259.097C137.082 257.247 135.169 255.3 133.33 253.281C131.722 251.509 130.298 249.518 128.424 248.01C127.514 247.276 126.53 246.716 125.429 246.324C124.4 245.956 123.247 245.773 122.3 245.21C120.445 244.109 120.625 241.5 118.77 240.315C117.179 239.299 115.241 239.67 113.478 239.911L113.267 239.939C112.124 240.091 110.942 240.219 109.851 239.767C108.771 239.321 107.902 238.486 106.814 238.042C105.298 237.419 103.148 237.568 102.37 239.235C101.627 240.827 102.642 242.267 103.826 243.324C102.212 243.616 100.794 244.396 100.674 245.988C99.4898 245.948 98.3078 245.906 97.1235 245.865C92.998 245.721 88.8521 245.445 84.724 245.518C84.8182 245.098 84.86 244.664 84.8652 244.224C84.8675 243.979 84.8571 243.733 84.8391 243.483C84.8078 243.055 84.526 242.796 84.1082 242.752L83.1759 242.652L82.8639 242.621C81.1171 242.456 79.1639 242.422 77.833 243.576C77.118 244.2 76.5414 245.635 76.891 246.593C76.0772 246.872 75.302 247.229 74.5949 247.681C73.1937 247.211 71.7221 247.264 70.3133 247.754L70.146 247.814C69.1444 248.181 67.7249 248.878 67.1806 249.871C68.5017 240.917 70.282 232.039 72.52 223.268C73.9485 219.765 75.7536 216.417 77.9425 213.327C83.4559 205.541 91.3988 200.187 98.5322 194.032C99.1617 194.725 99.8397 195.384 100.474 196.018L100.743 196.288C102.034 197.597 103.381 198.848 104.758 200.065C107.636 202.609 110.665 204.957 113.672 207.343C119.735 212.153 125.216 217.26 129.777 223.539C129.859 223.652 130.086 223.586 130.023 223.436C126.895 216 120.41 210.347 114.519 205.102C111.422 202.344 108.251 199.652 105.273 196.763C103.884 195.417 102.539 194.024 101.27 192.563L100.955 192.197C100.125 191.226 98.1821 188.261 96.8981 190.4C96.629 190.847 96.6408 191.42 96.8981 191.868C97.2628 192.505 97.726 193.112 98.2324 193.695C96.432 194.674 94.6687 195.708 92.944 196.803C93.0431 196.275 93.0183 195.693 92.9262 195.109L92.896 194.924L92.7704 194.201C92.5902 193.135 92.4976 192.143 93.1741 191.103C94.02 189.802 95.6151 189.397 96.8858 188.645C98.3496 187.779 99.1141 186.62 99.8979 185.148C101.399 182.332 104.79 181.203 107.705 180.297L108.072 180.183C110.765 179.349 113.678 178.902 116.371 179.704C116.119 180.88 115.788 182.039 115.375 183.168C114.935 184.37 113.931 185.706 114.034 187.004C114.105 187.902 115.182 188.863 116.077 188.176C117.343 187.204 117.596 185.622 117.936 184.114C118.264 182.656 118.474 181.163 118.563 179.671C118.649 178.233 118.582 176.797 118.404 175.369L118.268 174.32L118.235 174.077C118.087 173.017 117.867 171.904 117.271 171.073C117.214 170.993 117.073 170.991 117.047 171.102ZM153.793 165.142C153.774 165.227 153.761 165.311 153.749 165.394C153.662 165.752 153.629 166.095 153.64 166.441C153.634 166.565 153.644 166.69 153.667 166.813C153.713 167.219 153.811 167.636 153.944 168.092C154.225 169.062 154.548 170.02 154.908 170.964C155.62 172.83 156.461 174.611 157.501 176.318C159.379 179.402 161.766 181.961 164.58 184.173C164.046 184.614 163.524 185.073 163.001 185.523C160.472 187.699 158.012 189.974 155.629 192.308C151.397 196.455 147.25 200.679 143.2 205.004C141.203 207.137 139.243 209.298 137.293 211.474L137.229 211.547L137.16 211.629C136.468 212.467 135.084 214.463 134.051 214.143C133.53 213.98 132.981 213.203 132.626 212.831L131.971 212.149C131.753 211.921 131.537 211.691 131.325 211.458C127.516 207.286 123.913 202.953 120.529 198.424C118.878 196.214 117.282 193.963 115.743 191.672C114.953 190.495 114.177 189.307 113.417 188.109C112.681 186.95 112.087 185.705 111.003 184.841C110.208 184.206 109.106 184.788 109.306 185.828C109.622 187.467 110.756 188.852 111.649 190.237C112.546 191.628 113.463 193.006 114.402 194.37C116.208 196.995 118.093 199.564 120.045 202.082C121.726 204.251 123.48 206.363 125.281 208.433L125.773 208.997C127.711 211.205 129.612 213.55 131.753 215.566C133.67 217.371 135.764 216.845 137.51 215.091C139.719 212.873 141.77 210.474 143.895 208.175C148.142 203.58 152.433 199.021 156.769 194.51L158.194 193.025C159.856 191.291 161.511 189.545 163.122 187.768L163.33 187.536C165.169 185.468 167.038 182.878 169.651 181.827C169.84 181.751 169.77 181.483 169.566 181.52C167.894 181.83 166.497 182.672 165.198 183.679C164.03 181.747 162.988 179.709 162.079 177.625L162.662 177.372C166.833 175.57 171.533 173.753 176.011 174.045C177.815 174.163 179.741 174.846 180.987 176.201C182.115 177.428 182.678 179.083 183.714 180.39C184.9 181.887 186.446 182.561 188.345 182.621L189.268 182.649C190.329 182.684 191.347 182.74 192.424 182.973C195.342 183.606 198.418 184.632 200.865 186.385C201.753 187.02 202.669 187.894 203.098 188.857C203.524 189.812 203.646 190.928 203.688 191.958C203.708 192.46 203.557 193.123 203.683 193.603C203.669 193.548 203.662 193.577 203.66 193.635C203.269 193.943 203.003 194.456 202.974 194.967C200.535 193.696 198.01 192.582 195.436 191.577C192.57 190.459 189.615 189.563 186.659 188.715C183.766 187.885 180.739 187.541 177.79 186.949C177.414 186.874 177.284 187.381 177.634 187.516C180.733 188.706 183.732 190.117 186.857 191.237C189.981 192.357 193.081 193.568 196.114 194.915C201.976 197.52 207.639 200.833 212.258 205.329C216.769 209.721 220.248 215.055 223.484 220.419C226.743 225.82 229.652 231.419 232.244 237.169C237.372 248.545 241.218 260.506 243.75 272.724C246.214 284.613 247.59 296.927 247.132 309.079C246.914 314.851 246.209 320.627 244.57 326.178C243.786 328.83 242.806 331.421 241.567 333.895C240.26 336.503 238.5 338.827 237.307 341.479C237.209 341.697 237.172 341.907 237.177 342.102C232.089 346.51 224.125 343.539 218.618 340.907C205.948 334.849 193.512 328.219 181.692 320.61C170.026 313.1 158.971 304.719 148.176 296.02C149.011 295.159 149.747 294.194 150.394 293.32C151.73 291.514 152.734 289.468 153.426 287.334C154.235 284.834 154.486 282.16 154.256 279.548L154.19 278.809C153.971 276.343 153.716 273.84 153.175 271.43C153.17 271.399 153.147 271.386 153.121 271.386C153.095 271.386 153.068 271.402 153.058 271.43C151.599 276.099 151.482 281.116 149.844 285.724C149.184 287.577 148.161 289.367 146.934 290.903C146.404 291.569 145.783 292.146 145.15 292.709C145.108 292.422 145.05 292.138 144.964 291.858L144.896 291.637C144.811 291.369 144.706 291.071 144.56 290.807C144.766 290.747 144.967 290.682 145.165 290.608C145.322 290.551 145.356 290.298 145.165 290.256C144.646 290.136 144.111 290.076 143.566 290.05C143.479 290.037 143.396 290.035 143.313 290.04C142.292 290.008 141.254 290.082 140.27 290.097C138.566 290.123 136.868 290.154 135.167 290.23C131.91 290.371 128.234 290.995 125.029 290.238C122.117 289.549 119.247 287.608 116.912 285.781C114.872 284.185 113.298 282.288 111.605 280.396C111.727 280.415 111.847 280.433 111.967 280.45L113.059 280.599C114.438 280.783 116.074 280.928 117.168 280.266C117.585 280.012 117.465 279.438 117.04 279.282C115.923 278.872 114.537 279.211 113.348 279.154C112.414 279.109 111.469 279.01 110.548 278.817C110.245 278.755 109.945 278.682 109.648 278.596C107.467 277.967 104.904 275.754 106.637 273.338C106.702 273.247 106.629 273.163 106.54 273.147C106.501 273.14 106.459 273.147 106.425 273.176C104.453 274.809 105.478 277.737 107.344 278.992C107.986 279.425 108.711 279.728 109.462 279.95C109.319 280.213 109.293 280.537 109.465 280.845C110.926 283.449 113.4 285.737 115.717 287.577C118.096 289.466 120.841 291.248 123.793 292.083C127.2 293.043 130.945 292.32 134.402 292.015C136.275 291.85 138.143 291.655 140.014 291.438C140.516 291.381 141.035 291.337 141.562 291.287C141.066 291.939 140.672 292.691 140.414 293.142C139.573 294.608 140.348 296.539 141.976 296.988C142.146 297.035 142.321 297.061 142.493 297.066C142.932 297.946 143.975 298.593 144.941 298.261C145.361 298.118 145.765 297.922 146.154 297.688C152.226 303.021 158.619 308.025 165.194 312.717C177.387 321.416 190.167 329.361 203.419 336.346C206.404 337.92 209.412 339.451 212.445 340.922L215.056 342.181C217.946 343.572 220.904 344.955 223.973 345.818C224.571 345.986 225.197 346.122 225.839 346.226C225.848 346.284 225.85 346.339 225.846 346.391C226.423 346.468 226.926 346.48 227.356 346.426L227.454 346.413C231.216 346.676 235.24 345.758 237.66 343.01C238.063 343.293 238.651 343.324 239.17 342.917C241.781 340.869 243.336 337.751 244.702 334.774C246.086 331.754 247.172 328.607 247.969 325.383C249.562 318.944 250.193 312.302 250.227 305.678C250.347 280.155 243.955 254.407 232.852 231.493C230.036 225.681 226.932 219.978 223.486 214.515C220.05 209.067 216.059 204.004 210.949 200.03C209.48 198.888 207.951 197.844 206.374 196.881C207.432 196.357 207.853 195.023 207.927 193.838C208.091 191.206 207.778 188.173 206.237 185.953C204.075 182.837 200.205 180.916 196.617 179.982C194.744 179.495 192.806 179.211 190.874 179.115C189.878 179.065 188.842 179.229 187.858 179.121C186.99 179.027 186.453 178.508 185.954 177.827C184.674 176.081 183.841 174.249 182.006 172.969C180.123 171.656 177.683 171.153 175.415 171.289C172.773 171.448 170.362 172.489 168.035 173.686C165.934 174.765 163.896 175.962 161.909 177.237C161.544 176.384 161.201 175.524 160.882 174.661C160.263 172.988 159.725 171.262 159.288 169.532C158.845 167.779 158.91 165.463 157.573 164.144C156.41 162.998 154.17 163.448 153.793 165.142ZM63.6483 282.158L63.6579 282.16C66.3632 283.763 67.6568 287.77 68.9301 289.52C68.826 290.107 68.753 290.705 68.6095 291.261C68.2804 292.537 67.8502 293.802 67.3515 295.018C66.4748 297.166 65.3763 299.211 64.3613 301.293C63.5446 302.968 62.7444 304.673 62.1218 306.435C62.1894 306.503 62.2517 306.583 62.3047 306.682C62.98 307.947 63.5086 307.699 64.7545 307.422L64.7553 307.42C65.4679 305.239 66.4957 303.191 67.4194 301.098L67.644 300.587L67.8662 300.075C68.638 298.284 69.3422 296.476 69.7523 294.556C70.0132 293.333 70.1202 292.075 70.1356 290.825C70.8114 291.381 71.6232 291.78 72.6457 291.934C74.8343 292.264 76.8164 290.894 78.5995 289.794L79.0014 289.548C80.1178 288.869 81.2246 288.242 82.5116 287.921C83.9728 287.556 85.4836 287.556 86.968 287.37C87.1457 287.347 87.3255 287.323 87.5058 287.295C86.9265 289.213 86.6577 291.295 86.3131 293.215C85.8329 295.908 85.4416 298.624 85.0658 301.333C84.3352 306.583 83.8264 311.874 83.5684 317.168C83.3183 322.294 83.4443 327.401 83.6297 332.526L83.7222 335.025C83.7964 337.06 83.8574 339.097 83.8215 341.132C83.7223 341.139 83.6232 341.155 83.5238 341.179C82.4957 341.419 81.7941 342.467 80.8545 342.935C78.8717 343.921 76.4761 343.908 74.3652 343.41C69.5642 342.272 65.572 338.921 62.9422 334.828C59.7847 329.917 58.6262 324.137 58.6629 318.355C58.7064 311.848 59.7603 305.626 61.2273 299.344L61.3215 298.943C62.5563 293.709 63.3297 282.208 63.6483 282.158ZM198.088 269.028C198.061 270.778 198.773 272.651 199.164 274.351C199.585 276.184 200.005 278.016 200.431 279.848L200.814 281.489C201.133 282.857 201.447 284.225 201.729 285.601C201.961 286.732 202.058 288.223 202.437 289.47C197.922 287.643 193.399 285.835 188.883 284.015C183.32 281.771 177.731 279.59 172.155 277.382C166.6 275.185 161.076 272.686 155.409 270.807C154.06 270.358 153.147 272.511 154.438 273.108C160.195 275.777 166.285 277.868 172.181 280.206L180.712 283.592C188.531 286.695 196.356 289.782 204.221 292.764C209.577 294.794 214.913 296.884 220.304 298.812C222.874 299.731 225.468 300.6 228.025 301.552C230.167 302.35 232.484 303.535 233.277 305.836C233.319 305.956 233.483 305.907 233.465 305.784C233.144 303.556 231.49 302.162 229.624 301.108C227.149 299.706 224.429 298.685 221.816 297.56L221.46 297.406C216.123 295.078 210.743 292.845 205.348 290.649C205.401 290.519 205.433 290.379 205.435 290.233L205.451 290.237C205.549 289.239 205.091 288.35 204.762 287.422L203.819 284.76C203.19 282.987 202.626 281.192 202.044 279.403C201.437 277.533 200.823 275.665 200.211 273.797C199.692 272.214 199.344 270.328 198.456 268.914C198.349 268.743 198.054 268.839 198.088 269.028ZM94.1643 265.093L94.2316 265.433C94.31 265.83 94.3835 266.23 94.4018 266.632C94.4542 267.684 94.3342 268.735 94.0547 269.75C93.7808 270.755 93.3975 271.725 92.8519 272.615C92.3352 273.452 91.5864 274.11 91.1089 274.969C91.0596 275.06 91.0282 275.151 91.0152 275.24C90.8326 275.164 90.6523 275.097 90.4774 275.042C89.0215 274.58 87.5344 274.194 86.0263 273.904L86.2655 273.888L86.4199 273.876C88.9398 273.662 91.3173 272.838 90.8036 269.896C90.513 268.233 89.2077 267.118 87.8086 266.327L87.6333 266.23C87.5579 266.188 87.4794 266.147 87.404 266.11C88.6695 265.896 89.5877 265.633 91.1402 265.372C92.1476 265.202 93.1574 265.108 94.1643 265.093ZM209.283 228.855C206.805 233.861 204.941 239.184 203.534 244.584C202.855 247.192 202.279 249.826 201.816 252.48L201.664 253.367L201.577 253.848C201.144 256.214 200.595 258.777 201.23 261.086C201.438 261.841 202.69 262.139 203.041 261.323C204.099 258.86 203.95 256.029 204.257 253.393C204.579 250.627 205.019 247.874 205.566 245.144C206.619 239.898 208.096 234.775 209.743 229.691L209.927 229.126C210.066 228.75 209.457 228.502 209.283 228.855ZM114.045 251.25C114.783 251.598 115.521 251.916 116.174 252.234C116.223 252.26 116.275 252.284 116.328 252.31C115.589 252.185 114.848 252.067 114.107 251.957C114.115 251.717 114.091 251.48 114.045 251.25ZM85.1512 248.743C85.2621 248.779 85.3602 248.837 85.4454 248.917L85.487 248.959C85.5887 249.054 85.6607 249.165 85.7027 249.295C85.768 249.419 85.7982 249.553 85.7928 249.697L85.7554 249.974C85.7059 250.151 85.6164 250.304 85.487 250.435L85.2759 250.598C85.1334 250.681 84.9812 250.727 84.8191 250.738L84.7491 250.741L84.5378 250.741C84.4169 250.737 84.3034 250.707 84.1967 250.651C84.0857 250.615 83.9877 250.557 83.9024 250.477L83.8609 250.435C83.7588 250.34 83.6871 250.228 83.6451 250.099C83.5889 249.992 83.5591 249.879 83.555 249.758L83.5551 249.697L83.5924 249.419C83.6357 249.265 83.7097 249.128 83.8142 249.009L83.8609 248.959L84.0719 248.795C84.2144 248.713 84.3667 248.666 84.5287 248.656L84.5988 248.653H84.7491C84.8928 248.648 85.0269 248.678 85.1512 248.743ZM91.9402 248.39C92.4947 248.492 92.8091 249.164 92.669 249.673C92.5139 250.238 91.9777 250.489 91.4391 250.412L91.3852 250.403C90.7543 250.287 90.1362 250.332 89.5352 250.553C89.0066 250.748 88.3916 250.335 88.2515 249.824C88.0913 249.241 88.4495 248.736 88.9805 248.54C89.9329 248.189 90.9544 248.208 91.9402 248.39ZM201.871 211.324C200.609 213.174 199.821 215.634 199.043 217.748L198.965 217.958C198.139 220.181 197.341 222.42 196.598 224.672C195.113 229.166 193.179 233.869 192.821 238.617C192.755 239.493 194.096 239.844 194.485 239.068C195.602 236.835 196.202 234.508 196.863 232.114C197.494 229.831 198.151 227.556 198.808 225.281C199.464 223.007 200.1 220.726 200.746 218.449C201.376 216.234 202.252 213.771 202.396 211.466C202.414 211.167 202.016 211.111 201.871 211.324ZM173.376 196.429C171.69 197.599 170.31 199.31 168.884 200.773C167.437 202.258 166.01 203.756 164.595 205.272C162.232 207.806 159.912 210.381 157.515 212.884C152.739 217.871 147.336 222.461 140.745 224.805C139.15 225.372 139.848 227.932 141.447 227.353C148.189 224.908 153.774 220.389 158.701 215.276C161.252 212.628 163.594 209.799 165.876 206.919C166.945 205.571 168.005 204.219 169.05 202.854L169.676 202.034C170.99 200.3 172.598 198.571 173.56 196.613C173.614 196.503 173.495 196.346 173.376 196.429Z" fill="black"/>
<path fill-rule="evenodd" clip-rule="evenodd" d="M86.8912 117.431C87.878 101.201 93.1334 82.8 108.601 74.8313C142.699 61.1176 187.532 95.6527 189.905 130.933C190.733 143.01 184.042 156.206 171.814 159.564C169.096 163.173 164.984 165.377 160.926 167.291C112.594 192.42 81.3728 171.992 86.8912 117.431Z" fill="#EDB98A"/>
<path fill-rule="evenodd" clip-rule="evenodd" d="M75.8802 107.335C77.5883 102.581 79.3927 97.863 81.2908 93.182C83.1395 88.6262 84.8093 83.972 87.105 79.6321C100.816 53.7117 125.75 53.7117 138.639 57.0985C145.322 54.2127 157.841 55.0267 164.801 57.6308C176.068 61.8466 189.803 78.4305 194.499 85.8815C204.866 102.333 211.337 124.229 204.45 143.239C203.55 145.723 202.402 148.025 201.109 150.242C201.923 151.348 202.861 152.395 203.899 153.424C206.984 156.483 210.069 159.441 212.733 162.891C215.382 166.319 217.577 169.965 219.212 173.984C222.293 181.565 222.442 190.148 218.367 197.381C214.823 203.675 208.543 208.361 201.469 208.808C201.105 208.859 200.742 208.905 200.376 208.942C199.439 210.489 198.296 211.914 196.991 213.156C192.995 216.965 183.467 218.92 178.033 219.045C177.755 219.269 177.474 219.494 177.192 219.716C173.867 222.338 170.378 224.984 166.561 226.849C163.976 228.115 160.586 229.172 157.888 228.258C156.664 229.078 154.657 228.905 153.444 228.235C151.449 227.134 149.827 225.151 148.84 223.121C146.447 218.192 147.023 212.798 147.637 207.533C148.314 201.717 148.965 195.898 149.626 190.082C150.145 185.534 150.686 180.911 152.066 176.53C152.78 174.26 153.714 172.078 154.922 170.027C154.891 169.855 154.896 169.683 154.946 169.521C155.342 168.232 156.159 167.556 157.128 166.68C157.253 166.568 157.378 166.453 157.5 166.335C157.985 165.782 158.503 165.268 159.057 164.832C159.271 164.616 159.482 164.397 159.693 164.177C161.445 162.338 163.101 160.404 164.572 158.333C165.999 156.324 167.288 154.226 168.514 152.089C169.761 149.915 170.587 147.517 171.831 145.359C171.938 145.174 172.209 145.138 172.36 145.292C172.745 145.691 172.993 146.134 172.946 146.601L173.138 146.63C173.211 145.926 173.86 145.352 174.74 145.506C176.057 145.735 177.14 145.821 178.281 145.383C178.08 144.05 177.895 142.714 177.713 141.375C177.38 138.912 177.07 136.441 176.804 133.97C176.161 134.124 175.523 134.346 174.899 134.628C174.008 135.027 173.167 135.564 172.448 136.224C171.74 136.877 171.251 137.756 170.386 138.21C169.392 138.729 168.191 137.871 168.483 136.744C169.074 134.466 172.42 133.161 174.49 132.731C175.201 132.582 175.927 132.519 176.653 132.535C176.489 130.948 176.344 129.362 176.224 127.773C176.167 127.022 176.114 126.27 176.065 125.516C174.456 125.028 172.732 124.882 171.058 125.112C170.506 125.553 169.954 125.988 169.42 126.429C167.725 127.833 166.038 129.245 164.372 130.682C164.221 130.81 164.072 130.938 163.921 131.068C162.932 131.922 161.697 131.076 161.864 129.868C163.223 119.969 157.172 112.094 150.087 105.993C142.245 99.2381 127.987 98.4515 118.66 86.7502C114.365 87.6263 104.774 90.2283 100.816 96.548C95.2756 105.404 95.9994 113.339 95.5776 123.384C95.1558 133.438 94.0831 143.924 96.3614 153.837C98.4626 162.977 104.152 170.787 112.979 174.377C113.197 174.466 113.419 174.552 113.64 174.635C118.204 176.36 123.185 176.848 127.987 175.94C133.301 174.933 137.738 172.496 142.159 169.498C142.414 169.328 142.786 169.678 142.594 169.933C136.766 177.673 125.32 180.258 116.241 178.215C115.817 178.119 115.395 178.014 114.976 177.9C117.007 183.752 116.598 190.176 113.952 195.875C112.361 199.303 109.935 202.27 106.979 204.611C103.722 207.189 99.6812 209.271 97.4211 212.89C95.3511 216.206 95.9656 219.932 99.5093 221.847C100.402 222.333 100.746 223.901 99.8608 224.59C99.5223 224.851 99.1838 225.117 98.8375 225.378C96.8535 226.878 91.4038 229.696 90.5211 229.8C82.6838 230.732 77.4138 224.965 74.0367 218.163C70.0712 210.179 71.1023 200.449 75.4714 192.845C78.9761 186.745 85.8786 180.733 83.1343 173.012C82.1553 170.254 80.153 167.903 78.208 165.78C75.9896 163.361 73.6045 161.096 71.4772 158.591C69.363 156.104 67.4883 153.399 66.4416 150.278C64.9132 145.717 65.6735 140.785 66.8217 136.232C69.2823 126.458 72.4771 116.814 75.8802 107.335Z" fill="black"/>
<path fill-rule="evenodd" clip-rule="evenodd" d="M124.518 159.864C124.518 159.864 120.821 162.718 113.926 162.718C107.032 162.718 103.028 160.165 103.028 160.165C103.028 160.165 109.071 156.494 113.926 156.197C118.782 155.899 124.518 159.864 124.518 159.864Z" fill="#FF6C6C"/>
<path fill-rule="evenodd" clip-rule="evenodd" d="M132.737 152.608C132.71 149.733 130.218 149.237 127.852 149.621C123.845 150.269 119.824 150.725 115.763 150.807L115.063 150.819C114.951 150.655 114.762 150.53 114.506 150.503C112.255 150.26 109.956 150.299 107.693 150.232C105.718 150.174 103.689 149.977 101.715 150.132L101.558 150.146C99.1451 150.379 96.5989 151.611 96.8902 154.442C97.1582 157.064 99.6647 159.386 101.666 160.843C102.071 161.135 102.485 161.408 102.911 161.658C103.044 161.828 103.239 161.947 103.464 161.971C105.435 163.036 107.61 163.666 109.861 163.875C114.634 164.32 120.183 163.839 124.767 161.771C126.257 161.098 127.648 160.258 128.877 159.227C130.772 157.636 132.758 155.224 132.737 152.608ZM113.671 157.787C115.584 157.729 117.494 157.997 119.317 158.587C120.552 158.985 121.677 159.752 122.86 160.284C118.872 161.805 114.239 162.137 110.148 161.86C108.353 161.738 106.613 161.325 104.992 160.613C105.244 160.43 105.5 160.245 105.768 160.083C106.577 159.594 107.423 159.177 108.305 158.845C110.023 158.201 111.836 157.845 113.671 157.787ZM113.29 133.168C113.807 132.798 113.397 131.571 112.294 131.76C102.275 133.482 107.466 150.739 120.258 141.269C121.781 140.04 119.936 137.334 118.295 138.387L117.712 138.836C115.817 140.288 112.683 142.484 110.437 140.128C108.318 137.159 111.32 134.366 113.29 133.168ZM106.508 120.107C104.378 118.29 101.707 119.629 100.139 121.469L99.8625 121.798C99.5489 122.174 99.2015 122.611 98.9928 123.079C97.2553 121.599 94.8991 120.558 92.6444 121.234C90.4579 121.892 89.2109 123.979 89.5864 126.22C90.0124 128.769 91.9407 130.482 94.0126 131.806L94.6002 132.18C97.09 133.767 99.4198 135.366 101.469 137.548C101.803 137.902 102.526 137.855 102.745 137.383L102.921 137.003L103.1 136.624C104.553 133.524 106.111 130.445 107.39 127.272C108.337 124.921 108.644 121.928 106.508 120.107ZM130.461 121.378C128.9 119.562 126.257 118.346 124.172 120.107C121.952 121.983 122.388 125.086 123.376 127.478C124.567 130.364 125.958 133.186 127.295 136.017L127.58 136.624C127.7 136.877 127.817 137.13 127.935 137.383C128.154 137.855 128.879 137.902 129.211 137.547C131.196 135.434 133.443 133.87 135.842 132.333L136.566 131.872C138.672 130.536 140.663 128.812 141.096 126.221C141.467 123.984 140.227 121.884 138.038 121.234C135.778 120.564 133.427 121.597 131.687 123.079C131.48 122.6 131.122 122.148 130.785 121.753L130.461 121.378ZM127.93 108.724C127.168 109.714 127.982 111.331 129.095 111.586C130.473 111.903 131.865 111.711 133.218 112.104C134.458 112.464 135.646 113.186 136.709 113.906C137.921 114.726 139.037 115.642 140.063 116.685C140.673 117.306 141.441 118.777 142.382 118.804C143.318 118.832 142.062 115.906 141.958 115.653C141.221 113.852 140.184 112.194 138.888 110.741C136.331 107.876 130.915 104.852 127.93 108.724ZM99.3712 107.932L98.7328 108.11C97.1532 108.549 95.4668 109.088 94.1116 110.035L94.0052 110.111L93.8411 110.231C92.1397 111.499 89.7332 114.03 90.9382 116.238C91.0214 116.39 91.1978 116.405 91.3398 116.343C92.9429 115.641 94.1314 114.239 95.8366 113.652L96.1511 113.545C97.8025 112.989 99.8456 112.404 101.623 112.457C102.873 112.864 104.561 112.527 104.886 111.006L104.901 110.931L104.929 110.774C105.116 109.734 104.838 108.409 103.763 107.908C102.29 107.222 100.854 107.527 99.3712 107.932Z" fill="black"/>
</svg>
