<svg width="300" height="76" viewBox="0 0 300 76" fill="none" xmlns="http://www.w3.org/2000/svg">
<rect width="300" height="76" rx="38" fill="#1A1A1A"/>
<rect width="300" height="76" rx="38" fill="#F2ECE7"/>
<rect x="18" y="10" width="264" height="56" rx="28" stroke="#1A1A1A" stroke-width="4" stroke-linecap="round" stroke-dasharray="40 40"/>
<path d="M74.96 45V30.84H78.34V40.16H78.42L83.86 30.84H87.46V45H84.08V35.9H84.02L78.62 45H74.96ZM91.3897 45V30.84H94.8097V36.2H100.33V30.84H103.75V45H100.33V39.08H94.8097V45H91.3897ZM107.663 45V30.84H113.303C113.903 30.84 114.463 30.9 114.983 31.02C115.516 31.1267 116.03 31.3133 116.523 31.58C117.016 31.8333 117.403 32.2133 117.683 32.72C117.976 33.2133 118.123 33.8 118.123 34.48C118.123 35.24 117.916 35.88 117.503 36.4C117.09 36.92 116.523 37.3 115.803 37.54V37.58C116.656 37.7267 117.35 38.0933 117.883 38.68C118.43 39.2533 118.703 39.9867 118.703 40.88C118.703 41.6133 118.55 42.26 118.243 42.82C117.95 43.3667 117.536 43.7933 117.003 44.1C116.483 44.4067 115.91 44.6333 115.283 44.78C114.67 44.9267 114.01 45 113.303 45H107.663ZM110.963 42.24H112.883C114.483 42.24 115.283 41.68 115.283 40.56C115.283 39.52 114.476 39 112.863 39H110.963V42.24ZM110.963 36.48H112.803C113.443 36.48 113.936 36.3467 114.283 36.08C114.643 35.8133 114.823 35.4333 114.823 34.94C114.823 34.02 114.096 33.56 112.643 33.56H110.963V36.48ZM121.964 45V30.84H131.484V33.74H125.264V36.4H131.144V39.14H125.264V42.08H131.844V45H121.964ZM142.072 45.38C139.872 45.38 138.052 44.6867 136.612 43.3C135.172 41.9 134.452 40.1 134.452 37.9C134.452 35.6733 135.179 33.88 136.632 32.52C138.099 31.1467 139.932 30.46 142.132 30.46C143.159 30.46 144.152 30.6467 145.112 31.02C146.086 31.38 146.859 31.8867 147.432 32.54L145.112 34.86C144.806 34.4333 144.392 34.1133 143.872 33.9C143.366 33.6733 142.826 33.56 142.252 33.56C141.066 33.56 140.086 33.9733 139.312 34.8C138.552 35.6133 138.172 36.6467 138.172 37.9C138.172 39.18 138.546 40.2267 139.292 41.04C140.039 41.84 141.006 42.24 142.192 42.24C143.512 42.24 144.512 41.76 145.192 40.8L147.572 43.04C146.226 44.6 144.392 45.38 142.072 45.38ZM153.069 45V33.76H149.069V30.84H160.489V33.76H156.489V45H153.069ZM169.484 45.38C167.258 45.38 165.418 44.6867 163.964 43.3C162.511 41.9 161.784 40.0867 161.784 37.86C161.784 35.62 162.504 33.8267 163.944 32.48C165.398 31.1333 167.244 30.46 169.484 30.46C171.738 30.46 173.584 31.1333 175.024 32.48C176.478 33.8267 177.204 35.62 177.204 37.86C177.204 40.0867 176.478 41.9 175.024 43.3C173.571 44.6867 171.724 45.38 169.484 45.38ZM166.564 41.02C167.324 41.8467 168.298 42.26 169.484 42.26C170.671 42.26 171.644 41.8467 172.404 41.02C173.164 40.1933 173.544 39.14 173.544 37.86C173.544 36.6067 173.164 35.5733 172.404 34.76C171.644 33.9467 170.671 33.54 169.484 33.54C168.298 33.54 167.324 33.9467 166.564 34.76C165.818 35.5733 165.444 36.6067 165.444 37.86C165.444 39.14 165.818 40.1933 166.564 41.02ZM180.456 45V30.84H185.656C187.336 30.84 188.676 31.1867 189.676 31.88C190.689 32.56 191.196 33.6667 191.196 35.2C191.196 36.24 190.923 37.1067 190.376 37.8C189.843 38.4933 189.169 38.98 188.356 39.26C187.556 39.5267 186.629 39.66 185.576 39.66H183.876V45H180.456ZM183.876 36.94H185.316C186.956 36.94 187.776 36.3667 187.776 35.22C187.776 34.14 186.976 33.6 185.376 33.6H183.876V36.94ZM191.318 45L197.258 30.84H200.578L206.458 45H202.658L201.558 42.22H196.078L195.038 45H191.318ZM197.058 39.48H200.618L198.858 34.62L197.058 39.48ZM208.628 45V30.84H213.488L216.708 39.92H216.788L219.868 30.84H224.808V45H221.468L221.548 34.98H221.488L217.808 45H215.408L211.828 34.98H211.768L211.848 45H208.628Z" fill="#1A1A1A"/>
</svg>
