<svg width="300" height="88" viewBox="0 0 300 88" fill="none" xmlns="http://www.w3.org/2000/svg">
<rect width="300" height="88" rx="44" fill="#1A1A1A"/>
<rect width="300" height="88" rx="44" fill="#F2ECE7"/>
<rect x="18" y="10" width="264" height="68" rx="34" stroke="#1A1A1A" stroke-width="4" stroke-linecap="round" stroke-dasharray="40 40"/>
<path d="M52.9893 41V26.84H56.4093V38.08H60.8693V26.84H64.2893V38.08H68.7493V26.84H72.1693V41H52.9893ZM76.0987 41V26.84H79.4587V32.6H79.5187L84.5787 26.84H88.8587L82.7587 33.36L89.2187 41H84.7587L79.4987 34.48H79.4587V41H76.0987ZM97.5566 41.38C95.33 41.38 93.49 40.6867 92.0366 39.3C90.5833 37.9 89.8566 36.0867 89.8566 33.86C89.8566 31.62 90.5766 29.8267 92.0166 28.48C93.47 27.1333 95.3166 26.46 97.5566 26.46C99.81 26.46 101.657 27.1333 103.097 28.48C104.55 29.8267 105.277 31.62 105.277 33.86C105.277 36.0867 104.55 37.9 103.097 39.3C101.643 40.6867 99.7966 41.38 97.5566 41.38ZM94.6366 37.02C95.3966 37.8467 96.37 38.26 97.5566 38.26C98.7433 38.26 99.7166 37.8467 100.477 37.02C101.237 36.1933 101.617 35.14 101.617 33.86C101.617 32.6067 101.237 31.5733 100.477 30.76C99.7166 29.9467 98.7433 29.54 97.5566 29.54C96.37 29.54 95.3966 29.9467 94.6366 30.76C93.89 31.5733 93.5166 32.6067 93.5166 33.86C93.5166 35.14 93.89 36.1933 94.6366 37.02ZM108.778 41.14C107.964 41.14 107.311 41.0667 106.818 40.92L107.098 38.08C107.364 38.1733 107.644 38.22 107.938 38.22C108.484 38.22 108.924 38.0533 109.258 37.72C109.604 37.3867 109.878 36.74 110.078 35.78C110.291 34.8067 110.398 33.4933 110.398 31.84V26.84H121.198V41H117.778V29.74H113.678V31.7C113.678 35.1 113.291 37.5267 112.518 38.98C111.744 40.42 110.498 41.14 108.778 41.14ZM125.114 41V26.84H128.534V32.04H130.334C131.961 32.04 133.288 32.4 134.314 33.12C135.341 33.84 135.854 34.9667 135.854 36.5C135.854 38.0067 135.334 39.1333 134.294 39.88C133.254 40.6267 131.941 41 130.354 41H125.114ZM128.534 38.28H130.074C131.661 38.28 132.454 37.68 132.454 36.48C132.454 35.2933 131.661 34.7 130.074 34.7H128.534V38.28ZM138.907 41V26.84H142.327V32.2H147.847V26.84H151.267V41H147.847V35.08H142.327V41H138.907ZM155.181 41V26.84H158.561V36.16H158.641L164.081 26.84H167.681V41H164.301V31.9H164.241L158.841 41H155.181ZM171.61 41V26.84H174.97V32.6H175.03L180.09 26.84H184.37L178.27 33.36L184.73 41H180.27L175.01 34.48H174.97V41H171.61ZM185.089 41L191.029 26.84H194.349L200.229 41H196.429L195.329 38.22H189.849L188.809 41H185.089ZM190.829 35.48H194.389L192.629 30.62L190.829 35.48ZM202.399 41V26.84H207.259L210.479 35.92H210.559L213.639 26.84H218.579V41H215.239L215.319 30.98H215.259L211.579 41H209.179L205.599 30.98H205.539L205.619 41H202.399ZM228.501 41V26.84H231.881V36.16H231.961L237.401 26.84H241.001V41H237.621V31.9H237.561L232.161 41H228.501ZM91.3243 61.38C89.1243 61.38 87.3043 60.6867 85.8643 59.3C84.4243 57.9 83.7043 56.1 83.7043 53.9C83.7043 51.6733 84.431 49.88 85.8843 48.52C87.351 47.1467 89.1843 46.46 91.3843 46.46C92.411 46.46 93.4043 46.6467 94.3643 47.02C95.3376 47.38 96.111 47.8867 96.6843 48.54L94.3643 50.86C94.0576 50.4333 93.6443 50.1133 93.1243 49.9C92.6176 49.6733 92.0776 49.56 91.5043 49.56C90.3176 49.56 89.3376 49.9733 88.5643 50.8C87.8043 51.6133 87.4243 52.6467 87.4243 53.9C87.4243 55.18 87.7976 56.2267 88.5443 57.04C89.291 57.84 90.2576 58.24 91.4443 58.24C92.7643 58.24 93.7643 57.76 94.4443 56.8L96.8243 59.04C95.4776 60.6 93.6443 61.38 91.3243 61.38ZM102.321 61V49.76H98.3207V46.84H109.741V49.76H105.741V61H102.321ZM114.416 61.24C113.523 61.24 112.77 61.16 112.156 61L112.576 58.18C113.043 58.3267 113.47 58.4 113.856 58.4C114.43 58.4 114.863 58.26 115.156 57.98C115.45 57.6867 115.77 57.2 116.116 56.52L116.176 56.4L110.776 46.84H114.716L118.036 53.3L121.156 46.84H124.996L119.696 56.92C119.376 57.52 119.116 57.9933 118.916 58.34C118.716 58.6867 118.45 59.0733 118.116 59.5C117.796 59.9267 117.476 60.2467 117.156 60.46C116.836 60.6733 116.443 60.8533 115.976 61C115.51 61.16 114.99 61.24 114.416 61.24ZM124.738 64.02V58.08H125.978C127.258 56.4933 127.898 53.9467 127.898 50.44V46.84H138.618V58.08H140.178V64.02H137.178V61H127.738V64.02H124.738ZM129.678 58.08H135.198V49.74H131.198V50.88C131.198 54.0933 130.691 56.4933 129.678 58.08ZM143.032 61V46.84H152.552V49.74H146.332V52.4H152.212V55.14H146.332V58.08H152.912V61H143.032ZM156.181 61V46.84H159.601V52.2H165.121V46.84H168.541V61H165.121V55.08H159.601V61H156.181ZM175.094 61V49.76H171.094V46.84H182.514V49.76H178.514V61H175.094ZM182.144 61L188.084 46.84H191.404L197.284 61H193.484L192.384 58.22H186.904L185.864 61H182.144ZM187.884 55.48H191.444L189.684 50.62L187.884 55.48ZM199.454 61V46.84H204.314L207.534 55.92H207.614L210.694 46.84H215.634V61H212.294L212.374 50.98H212.314L208.634 61H206.234L202.654 50.98H202.594L202.674 61H199.454Z" fill="#1A1A1A"/>
</svg>
