<svg width="420" height="120" viewBox="0 0 420 120" fill="none" xmlns="http://www.w3.org/2000/svg">
<rect width="420" height="120" rx="60" fill="#1A1A1A"/>
<rect width="420" height="120" rx="60" fill="#DDFF53"/>
<rect x="18" y="10" width="384" height="100" rx="50" stroke="#1A1A1A" stroke-width="4" stroke-linecap="round" stroke-dasharray="40 40"/>
<path d="M92.336 71V48.344H97.744V63.256H97.872L106.576 48.344H112.336V71H106.928V56.44H106.832L98.192 71H92.336ZM118.024 71V48.344H123.496V56.92H132.328V48.344H137.8V71H132.328V61.528H123.496V71H118.024ZM143.461 71V48.344H152.485C153.445 48.344 154.341 48.44 155.173 48.632C156.026 48.8027 156.848 49.1013 157.637 49.528C158.426 49.9333 159.045 50.5413 159.493 51.352C159.962 52.1413 160.197 53.08 160.197 54.168C160.197 55.384 159.866 56.408 159.205 57.24C158.544 58.072 157.637 58.68 156.485 59.064V59.128C157.85 59.3627 158.96 59.9493 159.813 60.888C160.688 61.8053 161.125 62.9787 161.125 64.408C161.125 65.5813 160.88 66.616 160.389 67.512C159.92 68.3867 159.258 69.0693 158.405 69.56C157.573 70.0507 156.656 70.4133 155.653 70.648C154.672 70.8827 153.616 71 152.485 71H143.461ZM148.741 66.584H151.813C154.373 66.584 155.653 65.688 155.653 63.896C155.653 62.232 154.362 61.4 151.781 61.4H148.741V66.584ZM148.741 57.368H151.685C152.709 57.368 153.498 57.1547 154.053 56.728C154.629 56.3013 154.917 55.6933 154.917 54.904C154.917 53.432 153.754 52.696 151.429 52.696H148.741V57.368ZM165.742 71V48.344H180.974V52.984H171.022V57.24H180.43V61.624H171.022V66.328H181.55V71H165.742ZM197.316 71.608C193.796 71.608 190.884 70.4987 188.58 68.28C186.276 66.04 185.124 63.16 185.124 59.64C185.124 56.0773 186.286 53.208 188.612 51.032C190.958 48.8347 193.892 47.736 197.412 47.736C199.054 47.736 200.644 48.0347 202.18 48.632C203.737 49.208 204.974 50.0187 205.892 51.064L202.18 54.776C201.689 54.0933 201.028 53.5813 200.196 53.24C199.385 52.8773 198.521 52.696 197.604 52.696C195.705 52.696 194.137 53.3573 192.9 54.68C191.684 55.9813 191.076 57.6347 191.076 59.64C191.076 61.688 191.673 63.3627 192.868 64.664C194.062 65.944 195.609 66.584 197.508 66.584C199.62 66.584 201.22 65.816 202.308 64.28L206.116 67.864C203.961 70.36 201.028 71.608 197.316 71.608ZM214.31 71V53.016H207.91V48.344H226.182V53.016H219.782V71H214.31ZM239.975 71.608C236.412 71.608 233.468 70.4987 231.143 68.28C228.818 66.04 227.655 63.1387 227.655 59.576C227.655 55.992 228.807 53.1227 231.111 50.968C233.436 48.8133 236.391 47.736 239.975 47.736C243.58 47.736 246.535 48.8133 248.839 50.968C251.164 53.1227 252.327 55.992 252.327 59.576C252.327 63.1387 251.164 66.04 248.839 68.28C246.514 70.4987 243.559 71.608 239.975 71.608ZM235.303 64.632C236.519 65.9547 238.076 66.616 239.975 66.616C241.874 66.616 243.431 65.9547 244.647 64.632C245.863 63.3093 246.471 61.624 246.471 59.576C246.471 57.5707 245.863 55.9173 244.647 54.616C243.431 53.3147 241.874 52.664 239.975 52.664C238.076 52.664 236.519 53.3147 235.303 54.616C234.108 55.9173 233.511 57.5707 233.511 59.576C233.511 61.624 234.108 63.3093 235.303 64.632ZM256.93 71V48.344H265.25C267.938 48.344 270.082 48.8987 271.682 50.008C273.303 51.096 274.114 52.8667 274.114 55.32C274.114 56.984 273.676 58.3707 272.802 59.48C271.948 60.5893 270.871 61.368 269.57 61.816C268.29 62.2427 266.807 62.456 265.122 62.456H262.402V71H256.93ZM262.402 58.104H264.706C267.33 58.104 268.642 57.1867 268.642 55.352C268.642 53.624 267.362 52.76 264.802 52.76H262.402V58.104ZM273.708 71L283.212 48.344H288.524L297.932 71H291.852L290.092 66.552H281.324L279.66 71H273.708ZM282.892 62.168H288.588L285.772 54.392L282.892 62.168ZM300.805 71V48.344H308.581L313.733 62.872H313.861L318.789 48.344H326.693V71H321.349L321.477 54.968H321.381L315.493 71H311.653L305.925 54.968H305.829L305.957 71H300.805Z" fill="#1A1A1A"/>
</svg>
