<svg width="743" height="109" viewBox="0 0 743 109" fill="none" xmlns="http://www.w3.org/2000/svg">
<rect width="743" height="109" rx="54.5" fill="#8FA7DF"/>
<rect x="18" y="10" width="707" height="89" rx="44.5" stroke="#1A1A1A" stroke-opacity="0.4" stroke-width="4" stroke-linecap="round" stroke-dasharray="40 40"/>
<path d="M138.972 66.108C135.452 66.108 132.54 64.9987 130.236 62.78C127.932 60.54 126.78 57.66 126.78 54.14C126.78 50.5773 127.943 47.708 130.268 45.532C132.615 43.3347 135.548 42.236 139.068 42.236C140.711 42.236 142.3 42.5347 143.836 43.132C145.393 43.708 146.631 44.5187 147.548 45.564L143.836 49.276C143.345 48.5933 142.684 48.0813 141.852 47.74C141.041 47.3773 140.177 47.196 139.26 47.196C137.361 47.196 135.793 47.8573 134.556 49.18C133.34 50.4813 132.732 52.1347 132.732 54.14C132.732 56.188 133.329 57.8627 134.524 59.164C135.719 60.444 137.265 61.084 139.164 61.084C141.276 61.084 142.876 60.316 143.964 58.78L147.772 62.364C145.617 64.86 142.684 66.108 138.972 66.108ZM151.117 65.5V42.844H160.141C161.101 42.844 161.997 42.94 162.829 43.132C163.683 43.3027 164.504 43.6013 165.293 44.028C166.083 44.4333 166.701 45.0413 167.149 45.852C167.619 46.6413 167.853 47.58 167.853 48.668C167.853 49.884 167.523 50.908 166.861 51.74C166.2 52.572 165.293 53.18 164.141 53.564V53.628C165.507 53.8627 166.616 54.4493 167.469 55.388C168.344 56.3053 168.781 57.4787 168.781 58.908C168.781 60.0813 168.536 61.116 168.045 62.012C167.576 62.8867 166.915 63.5693 166.061 64.06C165.229 64.5507 164.312 64.9133 163.309 65.148C162.328 65.3827 161.272 65.5 160.141 65.5H151.117ZM156.397 61.084H159.469C162.029 61.084 163.309 60.188 163.309 58.396C163.309 56.732 162.019 55.9 159.437 55.9H156.397V61.084ZM156.397 51.868H159.341C160.365 51.868 161.155 51.6547 161.709 51.228C162.285 50.8013 162.573 50.1933 162.573 49.404C162.573 47.932 161.411 47.196 159.085 47.196H156.397V51.868ZM171.639 65.5L177.335 56.252C175.927 55.7613 174.828 54.9613 174.039 53.852C173.249 52.7427 172.855 51.3987 172.855 49.82C172.855 47.388 173.676 45.6173 175.319 44.508C176.983 43.3987 179.137 42.844 181.783 42.844H190.103V65.5H184.631V57.084H182.711L177.943 65.5H171.639ZM182.263 52.924H184.631V47.196H182.071C179.511 47.196 178.231 48.1347 178.231 50.012C178.231 51.0147 178.604 51.7507 179.351 52.22C180.097 52.6893 181.068 52.924 182.263 52.924ZM203.102 66.108C199.176 66.108 196.104 64.9773 193.886 62.716L197.15 59.164C198.408 60.764 200.115 61.564 202.27 61.564C203.315 61.564 204.211 61.2973 204.958 60.764C205.704 60.2307 206.078 59.516 206.078 58.62C206.078 56.7213 204.574 55.772 201.566 55.772H199.742V51.836H201.694C204.275 51.836 205.566 50.9507 205.566 49.18C205.566 48.4333 205.235 47.8467 204.574 47.42C203.912 46.972 203.166 46.748 202.334 46.748C200.435 46.748 198.91 47.4093 197.758 48.732L194.59 45.372C196.638 43.2813 199.379 42.236 202.814 42.236C205.31 42.236 207.304 42.78 208.798 43.868C210.291 44.956 211.038 46.4493 211.038 48.348C211.038 49.6707 210.686 50.7907 209.982 51.708C209.278 52.6253 208.382 53.2333 207.294 53.532V53.628C208.616 53.9907 209.683 54.6413 210.494 55.58C211.304 56.4973 211.71 57.6813 211.71 59.132C211.71 60.604 211.272 61.8947 210.398 63.004C209.523 64.092 208.446 64.8813 207.166 65.372C205.886 65.8627 204.531 66.108 203.102 66.108ZM213.552 65.5L223.056 42.844H228.368L237.776 65.5H231.696L229.936 61.052H221.168L219.504 65.5H213.552ZM222.736 56.668H228.432L225.616 48.892L222.736 56.668ZM242.966 65.5V47.516H236.566V42.844H254.838V47.516H248.438V65.5H242.966ZM258.336 65.5V42.844H263.808V51.164H266.688C269.291 51.164 271.413 51.74 273.056 52.892C274.699 54.044 275.52 55.8467 275.52 58.3C275.52 60.7107 274.688 62.5133 273.024 63.708C271.36 64.9027 269.259 65.5 266.72 65.5H258.336ZM263.808 61.148H266.272C268.811 61.148 270.08 60.188 270.08 58.268C270.08 56.3693 268.811 55.42 266.272 55.42H263.808V61.148ZM290.941 66.108C287.421 66.108 284.509 64.9987 282.205 62.78C279.901 60.54 278.749 57.66 278.749 54.14C278.749 50.5773 279.911 47.708 282.237 45.532C284.583 43.3347 287.517 42.236 291.037 42.236C292.679 42.236 294.269 42.5347 295.805 43.132C297.362 43.708 298.599 44.5187 299.517 45.564L295.805 49.276C295.314 48.5933 294.653 48.0813 293.821 47.74C293.01 47.3773 292.146 47.196 291.229 47.196C289.33 47.196 287.762 47.8573 286.525 49.18C285.309 50.4813 284.701 52.1347 284.701 54.14C284.701 56.188 285.298 57.8627 286.493 59.164C287.687 60.444 289.234 61.084 291.133 61.084C293.245 61.084 294.845 60.316 295.933 58.78L299.741 62.364C297.586 64.86 294.653 66.108 290.941 66.108ZM301.326 65.5L307.022 56.252C305.614 55.7613 304.515 54.9613 303.726 53.852C302.937 52.7427 302.542 51.3987 302.542 49.82C302.542 47.388 303.363 45.6173 305.006 44.508C306.67 43.3987 308.825 42.844 311.47 42.844H319.79V65.5H314.318V57.084H312.398L307.63 65.5H301.326ZM311.95 52.924H314.318V47.196H311.758C309.198 47.196 307.918 48.1347 307.918 50.012C307.918 51.0147 308.291 51.7507 309.038 52.22C309.785 52.6893 310.755 52.924 311.95 52.924ZM334.461 65.5V42.844H343.485C344.445 42.844 345.341 42.94 346.173 43.132C347.026 43.3027 347.848 43.6013 348.637 44.028C349.426 44.4333 350.045 45.0413 350.493 45.852C350.962 46.6413 351.197 47.58 351.197 48.668C351.197 49.884 350.866 50.908 350.205 51.74C349.544 52.572 348.637 53.18 347.485 53.564V53.628C348.85 53.8627 349.96 54.4493 350.813 55.388C351.688 56.3053 352.125 57.4787 352.125 58.908C352.125 60.0813 351.88 61.116 351.389 62.012C350.92 62.8867 350.258 63.5693 349.405 64.06C348.573 64.5507 347.656 64.9133 346.653 65.148C345.672 65.3827 344.616 65.5 343.485 65.5H334.461ZM339.741 61.084H342.813C345.373 61.084 346.653 60.188 346.653 58.396C346.653 56.732 345.362 55.9 342.781 55.9H339.741V61.084ZM339.741 51.868H342.685C343.709 51.868 344.498 51.6547 345.053 51.228C345.629 50.8013 345.917 50.1933 345.917 49.404C345.917 47.932 344.754 47.196 342.429 47.196H339.741V51.868ZM381.838 47.516H375.438V65.5H369.966V47.516H363.566V42.844H381.838V47.516ZM401.144 65.5H385.336V42.844H400.568V47.484H390.616V51.74H400.024V56.124H390.616V60.828H401.144V65.5ZM420.046 65.5H405.774V42.844H411.278V60.732H420.046V65.5ZM439.425 65.5H423.617V42.844H438.849V47.484H428.897V51.74H438.305V56.124H428.897V60.828H439.425V65.5ZM464.183 64.124C461.687 65.4253 458.775 66.076 455.447 66.076C451.799 66.076 448.812 64.9773 446.487 62.78C444.161 60.5613 442.999 57.6813 442.999 54.14C442.999 50.5773 444.161 47.708 446.487 45.532C448.833 43.3347 451.767 42.236 455.287 42.236C457.036 42.236 458.689 42.5133 460.247 43.068C461.804 43.6013 463.063 44.3267 464.023 45.244L460.567 49.18C459.351 47.772 457.655 47.068 455.479 47.068C453.559 47.068 451.969 47.74 450.711 49.084C449.452 50.428 448.823 52.1133 448.823 54.14C448.823 56.2733 449.431 58.0013 450.647 59.324C451.863 60.6253 453.559 61.276 455.735 61.276C457.079 61.276 458.22 61.0733 459.159 60.668V56.54H454.839V52.124H464.183V64.124ZM488.177 65.5H481.777L476.881 56.508H475.025V65.5H469.649V42.844H478.289C479.441 42.844 480.507 42.9613 481.489 43.196C482.47 43.4307 483.387 43.804 484.241 44.316C485.094 44.828 485.755 45.5427 486.225 46.46C486.715 47.3773 486.961 48.4547 486.961 49.692C486.961 51.1853 486.545 52.4653 485.713 53.532C484.881 54.5987 483.729 55.356 482.257 55.804L488.177 65.5ZM481.553 49.788C481.553 48.1027 480.337 47.26 477.905 47.26L474.993 47.26V52.54L477.585 52.54C480.23 52.54 481.553 51.6227 481.553 49.788ZM513.307 65.5H507.227L505.467 61.052H496.699L495.035 65.5H489.083L498.587 42.844H503.899L513.307 65.5ZM503.963 56.668L501.147 48.892L498.267 56.668H503.963ZM542.068 65.5H536.724L536.852 49.468H536.756L530.868 65.5H527.028L521.3 49.468H521.204L521.332 65.5H516.18V42.844H523.956L529.108 57.372H529.236L534.164 42.844H542.068V65.5Z" fill="#1A1A1A"/>
<path d="M591 77.6875C603.806 77.6875 614.188 67.3061 614.188 54.5C614.188 41.6939 603.806 31.3125 591 31.3125C578.194 31.3125 567.812 41.6939 567.812 54.5C567.812 67.3061 578.194 77.6875 591 77.6875Z" fill="url(#paint0_linear_41_7601)"/>
<path d="M602.572 44.9083C602.778 43.5742 601.51 42.5213 600.323 43.0421L576.698 53.4148C575.847 53.7883 575.91 55.0769 576.792 55.3578L581.664 56.9093C582.594 57.2055 583.601 57.0523 584.413 56.4913L595.397 48.9024C595.729 48.6735 596.09 49.1445 595.807 49.4362L587.9 57.5882C587.133 58.3791 587.285 59.7192 588.208 60.2977L597.06 65.8491C598.053 66.4717 599.33 65.8463 599.516 64.6464L602.572 44.9083Z" fill="white"/>
<defs>
<linearGradient id="paint0_linear_41_7601" x1="591" y1="31.3125" x2="591" y2="77.6875" gradientUnits="userSpaceOnUse">
<stop stop-color="#37BBFE"/>
<stop offset="1" stop-color="#007DBB"/>
</linearGradient>
</defs>
</svg>
