<svg width="60" height="61" viewBox="0 0 60 61" fill="none" xmlns="http://www.w3.org/2000/svg">
<path opacity="0.4" d="M54.35 24.1H5V16.55C5 10.45 9.95 5.5 16.05 5.5H21.875C25.95 5.5 27.225 6.825 28.85 9L32.35 13.65C33.125 14.675 33.225 14.825 34.675 14.825H41.65C47.575 14.8 52.625 18.7 54.35 24.1Z" fill="#1A1A1A"/>
<path d="M54.975 27.6001C54.925 26.3751 54.725 25.2251 54.35 24.1001H5V42.1251C5 49.5001 11 55.5001 18.375 55.5001H41.625C49 55.5001 55 49.5001 55 42.1251V28.1751C55 28.0001 55 27.7751 54.975 27.6001ZM36.25 41.1251H32.025V45.5001C32.025 46.5251 31.175 47.3751 30.15 47.3751C29.125 47.3751 28.275 46.5251 28.275 45.5001V41.1251H23.75C22.725 41.1251 21.875 40.2751 21.875 39.2501C21.875 38.2251 22.725 37.3751 23.75 37.3751H28.275V33.0001C28.275 31.9751 29.125 31.1251 30.15 31.1251C31.175 31.1251 32.025 31.9751 32.025 33.0001V37.3751H36.25C37.275 37.3751 38.125 38.2251 38.125 39.2501C38.125 40.2751 37.275 41.1251 36.25 41.1251Z" fill="#1A1A1A"/>
</svg>
