<svg width="270" height="80" viewBox="0 0 270 80" fill="none" xmlns="http://www.w3.org/2000/svg">
<g clip-path="url(#clip0_41_7043)">
<path d="M260 0H10C4.47715 0 0 4.47715 0 10V70C0 75.5229 4.47715 80 10 80H260C265.523 80 270 75.5229 270 70V10C270 4.47715 265.523 0 260 0Z" fill="black"/>
<path d="M260 1.6C264.64 1.6 268.4 5.36 268.4 10V70C268.4 74.64 264.64 78.4 260 78.4H10C5.36 78.4 1.6 74.64 1.6 70V10C1.6 5.36 5.36 1.6 10 1.6H260ZM260 0H10C4.5 0 0 4.5 0 10V70C0 75.5 4.5 80 10 80H260C265.5 80 270 75.5 270 70V10C270 4.5 265.5 0 260 0Z" fill="#A6A6A6"/>
<path d="M115.595 54.7294C119.217 53.7958 121.604 51.0024 121.604 47.3506C121.604 42.833 118.012 39.6556 112.975 39.6556H104V63.9682H108.141V55.0306H111.078L117.5 63.9682H122.364L115.595 54.722V54.7294ZM112.975 43.4504C115.565 43.4504 117.357 45.039 117.357 47.3506C117.357 49.6622 115.565 51.2508 112.975 51.2508H108.141V43.458H112.975V43.4504Z" fill="white"/>
<path d="M131.689 64.3135C133.865 64.3135 135.868 63.1765 137.005 61.2791L137.796 63.9671H140.762V46.0319H136.794V56.4151C136.794 58.9675 135.1 60.7595 132.789 60.7595C130.477 60.7595 128.926 58.9675 128.926 56.4151V46.0319H124.958V56.8593C124.958 61.1737 127.857 64.3135 131.689 64.3135Z" fill="white"/>
<path d="M153.431 64.3126C158.024 64.3126 161.819 61.6924 161.819 57.3478C161.819 52.4838 157.851 51.0684 154.432 49.8938C151.774 48.9978 149.463 48.1694 149.463 45.9934C149.463 44.096 151.224 43.0946 153.295 43.0946C155.471 43.0946 157.022 44.2316 157.888 46.1666L161.826 45.5116C160.584 41.7168 157.444 39.2998 153.16 39.2998C148.876 39.2998 145.224 41.8522 145.224 46.1968C145.224 51.0984 149.192 52.4386 152.61 53.5756C155.23 54.434 157.58 55.2622 157.58 57.4758C157.58 59.411 155.818 60.5102 153.468 60.5102C150.773 60.5102 149.327 59.2378 148.047 56.9262L144.042 57.619C145.216 61.7224 148.943 64.3126 153.431 64.3126Z" fill="white"/>
<path d="M172.615 60.5194C171.268 60.5194 170.613 59.8644 170.613 58.5166V49.4812H175.966V46.0328H170.613V40.86H167.646L166.645 46.0328H163.708V49.4812H166.645V58.5166C166.645 62.0328 168.677 63.968 172.615 63.968H175.966L176.312 60.5194H172.615Z" fill="white"/>
<path d="M187.652 64.314C193.276 64.314 197.244 60.4514 197.244 55C197.244 49.5488 193.276 45.6862 187.652 45.6862C182.027 45.6862 178.059 49.5488 178.059 55C178.059 60.4514 182.027 64.314 187.652 64.314ZM187.652 60.6924C184.406 60.6924 182.2 58.3808 182.2 55C182.2 51.6194 184.406 49.3078 187.652 49.3078C190.897 49.3078 193.103 51.6194 193.103 55C193.103 58.3808 190.897 60.6924 187.652 60.6924Z" fill="white"/>
<path d="M204.668 63.9671V53.3807C204.668 51.1069 205.775 49.8269 208.192 49.8269H210.473L210.127 46.0319H209.367C207.258 46.0319 205.639 46.6193 204.427 48.6221L203.667 46.0319H200.7V63.9671H204.668Z" fill="white"/>
<path d="M230 54.7953C230 49.6227 226.138 45.6923 220.679 45.6923C215.22 45.6923 211.357 49.5925 211.357 55.0063C211.357 60.4199 215.22 64.3201 220.679 64.3201C224.406 64.3201 227.93 62.5583 229.27 59.1473L225.542 58.5225C224.676 59.8025 223.02 60.6985 220.919 60.6985C217.885 60.6985 215.882 58.8387 215.498 56.0753H229.924C229.962 55.6989 229.992 55.2847 229.992 54.7953M220.671 49.1407C223.156 49.1407 225.024 50.7295 225.678 52.9657H215.739C216.394 50.6541 218.262 49.1407 220.679 49.1407" fill="white"/>
<path d="M43.3762 60.6282C46.7524 64 52.1796 64 63.0418 64H64.9582C75.8204 64 81.2476 64 84.6238 60.6282C88 57.2564 88 51.824 88 40.9592V39.0408C88 28.176 88 22.7436 84.6238 19.3718C81.2476 16 75.8128 16 64.9582 16H63.0418C52.1796 16 46.7448 16 43.3762 19.3718C40 22.7512 40 28.1836 40 39.0408V40.9592C40 51.824 40 57.2564 43.3762 60.6282Z" fill="#0077FF"/>
<path fill-rule="evenodd" clip-rule="evenodd" d="M77.0567 47.9057L73.8153 47.0965C73.4261 46.9841 73.1491 46.6319 73.1341 46.2273L72.7299 34.2909C72.6101 32.7099 71.4423 31.4511 70.2145 31.0839C70.1471 31.0615 70.0723 31.0839 70.0349 31.1513C69.9899 31.2113 70.0125 31.2937 70.0649 31.3387C70.3643 31.5709 71.2027 32.3353 71.2027 33.6541V49.2619C71.2027 50.7679 69.7729 51.8769 68.3057 51.5097L65.0117 50.6855C64.6449 50.5581 64.3905 50.2209 64.3829 49.8239L63.9787 37.8875C63.8589 36.3065 62.6911 35.0477 61.4635 34.6805C61.3961 34.6581 61.3213 34.6805 61.2837 34.7479C61.2389 34.8079 61.2613 34.8903 61.3137 34.9353C61.6131 35.1675 62.4515 35.9319 62.4515 37.2507V50.2585V52.8585C62.4515 54.3645 61.0293 55.4735 59.5621 55.1063L50.2645 52.7835C48.9693 52.4613 48.0635 51.2999 48.0635 49.9737V34.3433C48.0635 32.8373 49.4859 31.7283 50.9531 32.0955L56.8147 33.5567V30.7393C56.8147 29.2331 58.2369 28.1241 59.7043 28.4913L65.5657 29.9525V27.1351C65.5657 25.6291 66.9881 24.5201 68.4553 24.8873L77.7529 27.2101C79.0479 27.5323 79.9537 28.6937 79.9537 30.0199V45.6503C79.9537 47.1563 78.5315 48.2653 77.0641 47.8981" fill="white"/>
<path d="M109.659 28.1723C108.522 28.1723 107.5 27.9083 106.593 27.3801C105.686 26.8405 104.975 26.0943 104.458 25.1415C103.953 24.1885 103.7 23.1151 103.7 21.9211C103.7 20.7271 103.953 19.6593 104.458 18.7179C104.975 17.765 105.681 17.0245 106.576 16.4964C107.483 15.9568 108.505 15.687 109.641 15.687C110.87 15.687 111.961 15.997 112.913 16.617C113.878 17.2254 114.567 18.052 114.98 19.0968L113.223 19.3723C112.902 18.7294 112.426 18.23 111.794 17.8741C111.174 17.5067 110.474 17.323 109.693 17.323C108.889 17.323 108.172 17.5182 107.54 17.9085C106.92 18.2989 106.433 18.8442 106.077 19.5445C105.732 20.2335 105.56 21.0255 105.56 21.9211C105.56 22.8281 105.732 23.6317 106.077 24.3321C106.433 25.0209 106.926 25.5605 107.558 25.9509C108.189 26.3411 108.912 26.5363 109.728 26.5363C110.531 26.5363 111.243 26.3527 111.863 25.9853C112.494 25.6065 112.977 25.0783 113.31 24.4009L115.066 24.6765C114.63 25.7441 113.924 26.5937 112.948 27.2251C111.972 27.8567 110.876 28.1723 109.659 28.1723Z" fill="white"/>
<path d="M124.237 28.0001H122.015L118.726 24.3149H118.192V28.0001H116.504V19.0968H118.192V22.6961H118.709L121.86 19.0968H123.892L120.069 23.4021L124.237 28.0001Z" fill="white"/>
<path d="M128.422 18.9246C129.524 18.9246 130.391 19.2862 131.022 20.0094C131.665 20.7212 131.986 21.72 131.986 23.006V28H130.781L130.385 26.6052C130.098 27.0528 129.713 27.426 129.231 27.7246C128.749 28.023 128.169 28.1722 127.492 28.1722C126.895 28.1722 126.361 28.0518 125.89 27.8106C125.42 27.5696 125.052 27.2366 124.788 26.8118C124.524 26.3756 124.392 25.8876 124.392 25.348C124.392 24.5098 124.725 23.8382 125.391 23.3332C126.057 22.828 127.021 22.5754 128.284 22.5754H130.299C130.253 21.875 130.058 21.3354 129.713 20.9566C129.369 20.5662 128.91 20.371 128.336 20.371C127.899 20.371 127.515 20.4744 127.182 20.681C126.849 20.8878 126.596 21.1576 126.424 21.4904L124.857 21.2322C125.087 20.5204 125.529 19.9578 126.183 19.5445C126.837 19.1312 127.584 18.9246 128.422 18.9246ZM127.853 26.743C128.577 26.743 129.162 26.5076 129.61 26.0368C130.069 25.5546 130.299 24.8946 130.299 24.0564V23.953H128.336C126.843 23.953 126.097 24.4008 126.097 25.2964C126.097 25.7326 126.258 26.0828 126.579 26.3468C126.901 26.6108 127.325 26.743 127.853 26.743Z" fill="white"/>
<path d="M138.772 24.7625C138.497 24.8889 138.17 24.9865 137.791 25.0553C137.412 25.1243 137.039 25.1587 136.671 25.1587C135.604 25.1587 134.783 24.8601 134.209 24.2631C133.635 23.6661 133.348 22.8223 133.348 21.7317V19.0968H135.035V21.7317C135.035 23.0061 135.65 23.6433 136.878 23.6433C137.624 23.6433 138.256 23.5111 138.772 23.2471V19.0968H140.46V28.0001H138.772V24.7625Z" fill="white"/>
<path d="M146.122 18.9246C147.225 18.9246 148.091 19.2862 148.723 20.0094C149.366 20.7212 149.687 21.72 149.687 23.006V28H148.482L148.086 26.6052C147.799 27.0528 147.414 27.426 146.932 27.7246C146.45 28.023 145.87 28.1722 145.193 28.1722C144.596 28.1722 144.062 28.0518 143.591 27.8106C143.12 27.5696 142.753 27.2366 142.489 26.8118C142.225 26.3756 142.093 25.8876 142.093 25.348C142.093 24.5098 142.426 23.8382 143.092 23.3332C143.757 22.828 144.722 22.5754 145.985 22.5754H148C147.954 21.875 147.758 21.3354 147.414 20.9566C147.07 20.5662 146.61 20.371 146.036 20.371C145.6 20.371 145.215 20.4744 144.883 20.681C144.55 20.8878 144.297 21.1576 144.125 21.4904L142.558 21.2322C142.787 20.5204 143.229 19.9578 143.884 19.5445C144.538 19.1312 145.284 18.9246 146.122 18.9246ZM145.554 26.743C146.277 26.743 146.863 26.5076 147.311 26.0368C147.77 25.5546 148 24.8946 148 24.0564V23.953H146.036C144.544 23.953 143.798 24.4008 143.798 25.2964C143.798 25.7326 143.958 26.0828 144.28 26.3468C144.601 26.6108 145.026 26.743 145.554 26.743Z" fill="white"/>
<path d="M154.234 28H151.737V19.0967H153.373V26.1058H153.632L157.231 19.0967H159.728V28H158.092V21.0082H157.834L154.234 28ZM155.75 17.9429C155.004 17.9429 154.378 17.7477 153.873 17.3574C153.379 16.9556 153.086 16.3586 152.995 15.5664H154.372C154.43 15.9338 154.573 16.2151 154.803 16.4102C155.044 16.5939 155.36 16.6858 155.75 16.6858C156.14 16.6858 156.45 16.5939 156.68 16.4102C156.921 16.2151 157.064 15.9338 157.11 15.5664H158.505C158.402 16.3586 158.098 16.9556 157.593 17.3574C157.099 17.7477 156.485 17.9429 155.75 17.9429Z" fill="white"/>
<path d="M165.767 28.0001H164.079V20.6467H160.997V19.0968H168.849V20.6467H165.767V28.0001Z" fill="white"/>
<path d="M178.419 23.4882C178.419 23.7178 178.413 23.8956 178.402 24.022H171.048C171.14 24.8142 171.45 25.4456 171.978 25.9162C172.506 26.387 173.178 26.6224 173.993 26.6224C174.556 26.6224 175.055 26.5132 175.491 26.2952C175.939 26.0656 176.278 25.767 176.507 25.3996L178.092 25.658C177.747 26.4616 177.19 27.0816 176.421 27.5178C175.664 27.9542 174.82 28.1722 173.89 28.1722C173.006 28.1722 172.214 27.977 171.513 27.5868C170.813 27.185 170.268 26.6338 169.877 25.9336C169.487 25.2332 169.292 24.441 169.292 23.557C169.292 22.6616 169.487 21.8636 169.877 21.1632C170.268 20.463 170.807 19.9176 171.496 19.5273C172.185 19.1255 172.971 18.9246 173.855 18.9246C174.728 18.9246 175.509 19.1255 176.197 19.5273C176.898 19.9176 177.443 20.463 177.833 21.1632C178.224 21.8522 178.419 22.627 178.419 23.4882ZM173.855 20.4228C173.178 20.4228 172.592 20.6236 172.099 21.0254C171.617 21.4274 171.295 21.967 171.134 22.6442H176.576C176.427 21.9784 176.106 21.4446 175.612 21.0428C175.13 20.6294 174.544 20.4228 173.855 20.4228Z" fill="white"/>
<path d="M186.003 28.0001H183.506V19.0968H185.142V26.1059H185.401L189 19.0968H191.497V28.0001H189.861V21.0083H189.603L186.003 28.0001Z" fill="white"/>
<path d="M198.5 23.4536C198.971 23.5914 199.361 23.844 199.671 24.2114C199.981 24.5674 200.136 25.0094 200.136 25.5374C200.136 26.031 199.993 26.4788 199.706 26.8806C199.419 27.271 199.005 27.5868 198.466 27.8278C197.938 28.0574 197.323 28.1722 196.623 28.1722C195.682 28.1722 194.872 27.9542 194.195 27.5178C193.518 27.0702 193.07 26.4732 192.852 25.7268L194.419 25.4686C194.798 26.2952 195.527 26.7084 196.606 26.7084C197.203 26.7084 197.656 26.5994 197.966 26.3812C198.288 26.1516 198.448 25.836 198.448 25.434C198.448 25.0782 198.299 24.7912 198.001 24.573C197.714 24.355 197.249 24.2458 196.606 24.2458H195.435V22.7648H196.606C197.157 22.7648 197.576 22.6616 197.863 22.4548C198.161 22.2482 198.311 21.9726 198.311 21.6282C198.311 21.2608 198.15 20.9624 197.829 20.7328C197.519 20.5032 197.134 20.3884 196.675 20.3884C196.227 20.3884 195.825 20.4974 195.469 20.7156C195.113 20.9336 194.844 21.2322 194.66 21.611L193.093 21.3354C193.357 20.5662 193.81 19.975 194.453 19.5617C195.108 19.137 195.865 18.9246 196.726 18.9246C197.346 18.9246 197.903 19.0336 198.397 19.2518C198.902 19.4699 199.292 19.7741 199.568 20.1644C199.855 20.5548 199.998 20.991 199.998 21.4732C199.998 21.967 199.861 22.386 199.585 22.7304C199.31 23.0748 198.948 23.316 198.5 23.4536Z" fill="white"/>
</g>
<defs>
<clipPath id="clip0_41_7043">
<rect width="270" height="80" fill="white"/>
</clipPath>
</defs>
</svg>
