<svg width="399" height="539" viewBox="0 0 399 539" fill="none" xmlns="http://www.w3.org/2000/svg">
<path fill-rule="evenodd" clip-rule="evenodd" d="M69.9332 475.486C63.1555 475.159 65.8815 463.304 66.368 458.95C71.7341 443.047 70.4726 425.697 72.5832 409.029C73.8979 393.469 75.5873 377.957 77.0083 362.409C79.7993 330.847 99.841 266.597 122.712 256.264C125.593 243.622 137.493 231.822 152.549 231.822C162.818 219.666 175.178 211.112 191.03 212.839C197.582 213.137 203.935 220.085 210.212 221.427C213.727 221.912 244.919 220.664 251.167 224.375C255.519 226.61 259.448 230.74 258.168 235.997C256.127 242.366 262.472 235.474 275.709 242.273C302.7 258.484 286.571 280.17 285.856 280.842C302.7 304.277 317.422 323.29 324.234 351.934C328.649 373.201 328.152 395.155 331.851 416.53C333.157 423.942 335.16 431.1 337.328 438.298C339.678 447.717 340.821 471.195 342.116 471.404C344.475 471.99 340.752 476.835 338.252 476.838C268.945 488.335 198.545 477.315 128.864 475.514C109.227 474.831 89.5692 474.674 69.9332 475.486Z" fill="#D08B5B"/>
<path fill-rule="evenodd" clip-rule="evenodd" d="M210.125 242.064C210.125 249.44 184.513 276.848 175.674 275.04C169.781 273.834 160.878 265.973 148.964 251.455V242.064L151.537 231.84C136.962 232.353 125.529 243.907 122.712 256.264C100.07 266.494 80.2004 329.568 77.0972 361.452L77.0083 362.409C75.5873 377.957 73.8979 393.469 72.5832 409.029C70.4726 425.697 71.7341 443.048 66.368 458.95L66.3362 459.22C65.7763 463.774 63.291 475.166 69.9332 475.487C89.5692 474.674 109.227 474.832 128.864 475.514C198.545 477.315 268.945 488.335 338.252 476.839C340.752 476.835 344.475 471.991 342.116 471.405C340.821 471.195 339.678 447.717 337.328 438.298L336.882 436.809C334.887 430.112 333.067 423.431 331.851 416.53C328.152 395.155 328.649 373.201 324.234 351.935C317.422 323.29 302.7 304.277 285.856 280.842C286.571 280.17 302.7 258.484 275.709 242.273C262.472 235.475 256.127 242.367 258.168 235.997C259.448 230.74 255.519 226.61 251.167 224.376C244.919 220.665 213.727 221.912 210.212 221.428C208.579 221.079 206.942 220.35 205.296 219.458L205.582 220.409C208.611 230.56 210.125 237.778 210.125 242.064Z" fill="#78E185"/>
<path fill-rule="evenodd" clip-rule="evenodd" d="M174.98 282.911C174.947 282.593 174.52 282.594 174.487 282.911L173.997 287.634C173.402 293.404 172.829 299.161 172.413 304.958C171.895 312.185 171.549 319.411 171.382 326.655C170.8 351.884 170.684 377.126 170.635 402.361C167.222 402.124 163.809 401.897 160.394 401.676C158.077 401.527 155.76 401.383 153.443 401.242L147.535 400.884L145.102 400.734C143.459 400.633 141.591 400.219 140.442 401.675C139.982 402.258 139.751 403.015 140.18 403.707C141.169 405.303 142.689 405.248 144.408 405.317C146.029 405.382 147.651 405.447 149.273 405.509C152.748 405.644 156.223 405.771 159.699 405.869C163.347 405.971 166.993 406.054 170.64 406.116C170.677 416.77 171.117 427.41 171.594 438.051L171.81 442.84C172.393 455.79 173.02 468.751 173.911 481.684C173.985 482.743 175.483 482.741 175.555 481.684C176.559 467.12 177.221 452.524 177.878 437.94C178.354 427.366 178.631 416.789 178.763 406.211C179.245 406.214 179.727 406.221 180.209 406.222C193.896 406.282 207.579 406.342 221.266 406.213C221.243 406.24 221.221 406.267 221.206 406.303C220.215 408.641 220.121 411.625 220.145 414.134C220.173 417.012 220.561 419.855 221.223 422.654C223.598 432.68 229.723 441.66 236.7 449.084L236.928 449.325C238.573 451.064 240.461 452.811 241.471 455.026C242.503 457.287 242.862 459.932 243.371 462.362L243.43 462.641L245.422 471.839C246.054 474.76 246.234 479.021 248.546 481.129C250.704 483.096 253.562 482.068 254.578 479.536C255.37 477.56 254.581 475.39 254.111 473.414L250.432 457.948C249.827 455.426 249.167 452.887 247.862 450.622C246.525 448.301 244.566 446.619 242.567 444.897C238.781 441.638 235.305 437.906 232.366 433.866C229.428 429.828 226.917 425.376 225.156 420.695C224.274 418.351 223.552 415.917 223.053 413.462C222.58 411.133 222.584 408.721 222.077 406.417C222.042 406.258 221.908 406.149 221.754 406.1C221.79 405.998 221.735 405.859 221.591 405.85L210.397 405.13C200.447 404.488 190.497 403.83 180.556 403.078L178.8 402.951C178.936 388.837 178.82 374.72 178.565 360.6C178.332 347.653 178.327 334.702 177.942 321.756C177.75 315.33 177.337 308.92 176.878 302.508C176.408 295.951 175.656 289.449 174.98 282.911ZM280.083 357.984C280.203 357.265 279.298 356.82 278.881 357.478C274.115 364.99 271.817 373.151 270.848 381.943C269.992 389.702 270.244 397.573 270.67 405.353C271.125 413.651 271.655 421.946 272.191 430.24L273.015 442.957L275.083 474.84C275.231 477.12 275.748 479.194 277.712 480.254C277.961 480.462 278.22 480.648 278.522 480.809C279.583 481.376 280.99 481.09 281.603 480.001L281.357 480.163C281.143 480.298 281.383 480.109 282.079 479.599L282.669 478.835C283.098 478.19 283.372 477.556 283.482 476.79C283.653 475.599 283.432 474.293 283.354 473.097L281.999 452.191C280.945 435.938 279.714 419.69 278.786 403.428C278.354 395.85 278.052 388.264 278.257 380.672C278.461 373.122 278.845 365.444 280.083 357.984ZM238.849 218.033L238.585 217.989C229.118 216.416 218.823 216.711 210.171 221.274C210.099 221.312 210.132 221.431 210.212 221.427L212.997 221.316C221.814 220.971 230.603 220.767 239.271 222.838L240.159 223.052C243.281 223.813 246.541 224.745 249.048 226.807C251.445 228.778 252.638 231.818 253.786 234.617L253.939 234.987C255.104 237.751 256.577 240.373 259.129 242.101C262.435 244.34 266.41 244.066 270.2 244.37C276.873 244.906 282.329 249.742 285.044 255.66C286.687 259.244 287.389 263.262 287.527 267.18C287.599 269.176 287.609 271.249 287.343 273.23C287.258 273.864 286.475 276.173 286.075 276.117C285.187 275.994 284.376 276.457 284.099 277.167C281.907 275.049 279.651 272.991 277.323 271.008C271.519 266.066 265.267 261.586 258.684 257.737C253.659 254.798 248.36 251.888 242.871 249.687C243.306 249.678 243.735 249.764 244.15 249.98C244.332 250.075 244.512 249.847 244.369 249.696C242.64 247.877 240.57 247.618 238.482 248.103C238.037 247.962 237.591 247.825 237.144 247.695C236.921 247.63 236.81 247.937 236.992 248.055L237.504 248.383C235.227 249.145 232.992 250.645 231.222 251.828C226.137 255.226 221.662 259.38 217.125 263.456L216.3 264.195C212.307 267.761 208.212 271.226 203.675 274.086C201.3 275.583 198.805 276.968 196.189 277.998C193.944 278.882 190.29 279.439 189.239 281.811C188.305 282.946 188.695 284.394 189.79 285.158C191.635 287.189 195.327 285.877 197.525 285.031C200.176 284.011 202.745 282.785 205.194 281.348C209.949 278.556 214.334 275.085 218.418 271.393C222.684 267.537 226.707 263.44 230.856 259.463C232.654 257.739 234.41 255.976 236.21 254.255L237.115 253.398C238.033 252.537 239.343 251.194 240.742 250.381C243.379 251.953 246.057 253.462 248.67 255.075C252.318 257.327 255.858 259.742 259.344 262.236C266.054 267.038 272.413 272.415 278.316 278.18C289.143 288.751 298.368 300.822 306.426 313.604L307.038 314.578C311.617 321.894 315.947 329.446 319.018 337.53C322.396 346.425 324.039 355.78 324.932 365.222C325.817 374.597 326.116 384.02 327.106 393.386C328.122 402.992 330.122 412.386 332.397 421.763L332.94 423.986C334.999 432.383 337.124 440.781 338.182 449.376C338.747 453.968 339.087 458.622 339.01 463.25C338.933 467.906 338.202 472.459 337.611 477.065C337.385 478.83 339.122 480.303 340.676 480.537C342.463 480.805 343.998 479.665 344.554 478.005C346.286 472.829 346.6 467.108 346.546 461.676C346.491 456.161 345.787 450.683 344.797 445.263C342.849 434.602 339.843 424.162 337.329 413.629C335.113 404.345 333.625 395.045 332.823 385.534C331.991 375.667 331.493 365.766 329.975 355.97C328.476 346.299 325.656 337.061 321.404 328.243C317.532 320.214 312.706 312.656 307.646 305.331C301.501 296.436 294.753 287.972 287.209 280.26C287.887 280.231 288.582 280.012 289.221 279.613C291.176 278.394 292.087 276.009 292.366 273.831C293.022 268.736 292.863 263.417 291.553 258.436C289.439 250.401 283.954 243.261 276.003 240.365C273.957 239.619 271.781 239.347 269.613 239.293C267.555 239.242 265.307 239.51 263.321 238.858C260.161 237.819 258.806 234.097 257.619 231.275L257.564 231.145C256.043 227.55 254.216 224.468 250.92 222.222C247.404 219.827 242.998 218.737 238.849 218.033ZM148.894 232.254C146.049 231.267 142.493 232.163 139.71 233.025C136.611 233.986 133.747 235.755 131.291 237.857C128.7 240.074 126.559 242.811 125.047 245.868L124.902 246.163C123.52 248.999 121.947 252.892 122.644 256.008C122.664 256.096 122.686 256.182 122.712 256.264C117.068 259.043 111.855 262.523 107.315 266.934C102.03 272.07 97.5538 277.915 93.7662 284.229C78.7231 309.307 76.0755 339.425 74.2988 368.025L73.8557 375.277C72.8911 390.935 71.762 406.557 68.8293 421.999L68.6153 423.114C65.4805 439.283 60.9931 455.575 61.4477 472.161C61.5841 477.13 68.9286 477.097 69.1414 472.161C69.9431 453.583 74.2786 435.646 77.2143 417.358C82.3799 385.184 79.7917 352.014 87.1109 320.162C89.9832 307.663 94.4326 295.538 100.786 284.38C103.925 278.868 107.516 273.542 111.722 268.787C115.341 264.695 119.102 260.757 123.331 257.317C124.683 258.671 127.383 257.981 128.089 256.008C128.573 254.652 128.432 253.066 128.743 251.645C129.032 250.327 129.43 249.02 129.96 247.779C131.017 245.304 132.569 242.928 134.36 240.926C136.295 238.761 138.518 236.963 141.007 235.478C143.512 233.983 146.252 233.536 148.894 232.444C148.983 232.407 148.992 232.288 148.894 232.254ZM137.841 404.203C137.837 404.073 137.683 404.011 137.588 404.098C136.591 405.016 135.988 406.333 135.254 407.462C134.408 408.764 133.519 410.039 132.586 411.281C130.718 413.77 128.639 416.115 126.543 418.414C124.594 420.551 122.517 422.598 120.361 424.527C118.026 426.619 115.41 428.484 113.288 430.799C108.862 435.631 108.147 442.262 107.213 448.488L107.11 449.161C106.541 452.856 106.031 456.561 105.57 460.271C105.347 462.076 105.124 463.883 104.941 465.692L104.886 466.265C104.723 468.036 104.679 469.833 105.696 471.381C106.785 473.037 109.261 473.617 110.733 472.029C113.262 469.302 112.788 464.457 113.117 460.949C113.388 458.047 113.697 455.149 114.042 452.256L114.217 450.809C114.624 447.518 114.955 444.16 115.708 440.926C116.371 438.077 117.636 435.928 119.712 433.864C121.803 431.785 123.975 429.845 125.905 427.606C127.952 425.232 129.799 422.686 131.463 420.029C132.886 417.757 134.026 415.284 135.071 412.813L135.245 412.402C136.255 409.993 137.92 406.857 137.841 404.203ZM101.329 300.729C101.306 300.393 100.81 300.388 100.802 300.729C100.74 303.619 100.679 306.509 100.619 309.399C100.137 332.687 100.434 356.029 98.0979 379.237C96.9959 390.179 94.9668 400.961 92.6188 411.697C91.4173 417.191 90.1568 422.672 88.9592 428.166C87.792 433.521 86.5403 438.902 85.6145 444.307C84.7047 449.619 83.8899 454.972 83.5242 460.352L83.479 461.054C83.3216 463.66 82.57 467.493 84.0051 469.803C85.5601 472.306 88.5373 472.351 90.2035 469.962C91.768 467.719 91.379 463.729 91.6554 461.054C91.9363 458.328 92.2334 455.6 92.5707 452.88C93.229 447.575 94.0963 442.282 94.9983 437.013C96.877 426.04 99.602 415.205 101.613 404.25C103.675 393.024 105.14 381.718 105.202 370.288C105.263 358.762 104.043 347.258 103.427 335.756C102.802 324.075 102.09 312.402 101.329 300.729ZM211.338 228.297C210.713 226.192 208.506 224.876 206.353 225.467C204.381 226.009 202.752 228.403 203.523 230.452C204.365 232.687 205.836 234.593 207.076 236.625C208.221 238.502 209.892 239.98 211.059 241.824L209.773 243.211C209.13 243.902 208.485 244.589 207.832 245.265L205.59 247.588C203.843 249.393 202.086 251.189 200.278 252.932C194.965 258.057 189.567 263.014 183.615 267.404C182.261 268.403 180.895 269.396 179.492 270.326L178.968 270.673C178.006 271.303 176.931 271.923 175.768 271.816C172.941 271.557 170.388 268.555 168.445 266.686L168.344 266.589C163.53 262.009 159.073 257.002 155.176 251.618C154.311 250.422 153.473 249.205 152.658 247.974C154.542 245.773 154.092 241.478 154.195 238.809C154.269 236.932 154.274 235.055 154.285 233.177L154.29 232.798C154.313 231.583 154.367 230.417 153.579 229.417C153.533 229.359 153.438 229.361 153.379 229.391C152.299 229.957 151.966 230.905 151.505 231.969L151.456 232.079C150.895 233.355 150.358 234.643 149.814 235.927C149.245 237.271 148.723 238.634 148.195 239.994C147.948 240.627 147.713 241.262 147.484 241.901C147.344 242.309 147.199 242.714 147.05 243.12L147.015 243.151C146.819 243.317 146.652 243.493 146.509 243.675C145.906 243.977 145.427 244.526 145.202 245.334C144.713 247.091 145.725 248.524 146.628 249.919C150.297 255.586 154.478 260.987 159.127 265.886C161.436 268.319 163.864 270.644 166.393 272.849L166.835 273.232C169.106 275.184 171.573 277.033 174.606 277.489C178.156 278.024 181.045 276.258 183.763 274.224L184.034 274.02C186.61 272.07 189.135 270.051 191.581 267.94C196.567 263.634 201.311 259.012 205.522 253.94C209.617 249.007 213.665 243.491 216.19 237.556C216.344 237.194 215.939 236.816 215.622 237.118C214.389 238.291 213.202 239.529 212.03 240.782C211.997 238.937 212.338 237.077 212.148 235.22C211.917 232.963 211.984 230.47 211.338 228.297Z" fill="black"/>
<path fill-rule="evenodd" clip-rule="evenodd" d="M178.551 77.2373C158.68 77.2373 133.792 99.9529 126.508 109.619C120.384 117.746 121.25 159.614 121.25 184.45C121.25 189.644 123.593 199.475 124.444 204.443C127.561 222.65 141.14 237.919 168.017 237.919C189.901 237.919 206.742 230.973 223.028 213.207C226.744 209.154 244.889 223.664 248.6 218.438C258.293 218.438 266.397 127.684 247.367 100.462C228.336 73.2413 198.423 77.2373 178.551 77.2373Z" fill="#D08B5B"/>
<path fill-rule="evenodd" clip-rule="evenodd" d="M238.276 83.6299C226.794 73.1613 211.497 68.1252 196.063 68.4969C188.07 68.6898 180.105 70.2154 172.556 72.8282C168.78 74.1398 165.123 75.8512 161.627 77.7871C160.367 78.4832 159.205 79.2987 158.087 80.1648L157.809 80.3824H157.805C154.806 81.4625 152.129 83.4019 149.7 85.671C144.832 85.2817 139.925 85.7201 135.218 87.2246C128.667 89.3218 122.602 93.1621 118.343 98.6155C113.382 104.964 111.733 112.666 112.321 120.615L112.43 121.966C113.012 128.989 114.054 138.022 119.806 142.636C120.243 142.987 120.726 143.253 121.227 143.415C117.521 149.776 114.479 156.84 112.66 163.973C105.713 191.219 111.053 219.634 119.407 245.894C120.093 248.058 123.358 249.496 125.02 247.381C127.988 243.601 132.3 240.718 137.15 240.178C140.142 239.845 143.121 240.448 145.948 239.087C147.058 238.551 148.129 237.674 148.898 236.608C153.672 238.421 158.813 239.277 163.912 239.066C172.28 238.722 181.225 235.819 186.982 229.45C187.906 228.427 188.14 227.28 187.927 226.245C187.205 225.987 186.464 225.795 185.7 225.674C178.4 229.986 170.353 232.867 161.704 233.048C156.707 233.153 151.833 232.452 147.781 229.325C146.904 228.648 146.098 227.899 145.353 227.094C136.881 221.633 130.908 212.357 128.068 202.421C125.423 193.155 125.748 183.507 126.658 174.003L127.138 168.988C127.838 161.627 128.487 154.244 128.669 146.852L128.614 146.849C126.825 146.733 126.812 143.926 128.614 144.043C133.275 144.345 137.901 143.579 142.548 143.913C142.587 141.712 142.745 139.52 143.391 137.397C143.759 136.184 145.867 135.945 146.09 137.397C146.389 139.34 146.498 141.272 146.531 143.224C153.485 143.131 160.433 142.545 167.388 142.786C168.671 141.414 169.079 138.983 169.679 137.291C169.767 137.042 169.854 136.797 169.945 136.548C170.473 138.965 171.22 141.329 172.204 143.643L173.909 143.649C183.588 143.695 193.463 143.985 202.914 145.999C203.57 145.493 203.961 144.612 204.067 143.811C204.753 138.601 205.731 133.529 207.465 128.565L207.713 127.864C207.733 127.806 207.755 127.744 207.777 127.679C209.055 129.746 210.579 131.672 212.242 133.466C213.222 134.524 214.249 135.535 215.304 136.517C216.328 137.657 217.387 138.779 218.413 139.923C218.373 140.131 218.338 140.342 218.309 140.557C217.995 142.929 217.963 145.335 218.193 147.717C218.608 152.023 219.821 156.172 221.77 160.01L221.832 160.394C222.128 162.193 222.549 164.052 223.532 165.406C222.305 166.784 221.36 168.429 220.812 170.257C220.324 171.885 222.571 173.295 223.736 171.964C224.662 170.905 225.69 170.03 226.82 169.331C226.891 169.428 227.02 169.476 227.165 169.395C230.311 167.645 235.655 168.174 238.798 169.823C242.707 171.871 244.233 176.076 243.799 180.337C243.382 184.409 241.604 189.168 238.157 191.254C236.575 192.212 235.343 192.293 233.664 191.833C233.127 191.687 232.461 191.239 232.175 191.016L231.894 190.79C230.792 189.918 229.767 189.32 228.467 189.297C227.137 188.882 225.801 189.458 225.292 190.856L225.261 190.946C225.023 191.658 224.589 192.552 224.684 193.639C224.782 194.804 225.313 195.863 226.108 196.715C226.244 196.862 226.391 197.009 226.542 197.146C212.858 211.992 211.101 235.124 218.118 253.669C218.423 254.483 218.748 255.286 219.088 256.082C220.26 258.811 224.775 257.966 225.348 255.262C225.52 254.452 225.709 253.645 225.915 252.845C226.295 251.368 226.73 249.904 227.22 248.461L227.406 247.921C227.823 246.729 228.211 245.526 228.631 244.334L228.673 244.197C228.689 244.143 228.706 244.081 228.726 244.011L229.436 245.565L231.595 250.254C232.606 252.442 235.816 251.253 235.936 249.144L235.938 249.072C235.949 248.682 235.963 248.297 235.987 247.914C236.141 245.049 236.635 242.265 237.419 239.54L237.702 239.892C241.913 245.109 246.856 250 253.636 251.204C255.337 251.506 257.262 249.724 256.093 248.002C255.61 247.29 255.145 246.561 254.704 245.821C255.085 245.642 255.446 245.456 255.778 245.267C258.35 243.818 260.492 241.756 262.263 239.417C266.018 234.458 267.362 228.215 267.691 222.106C268.041 215.65 267.474 208.842 265.714 202.614C264.951 199.92 263.918 197.336 262.725 194.828C262.809 194.604 262.889 194.379 262.97 194.155C264.258 190.557 265.315 186.878 266.193 183.157C267.964 175.645 268.916 167.894 269.031 160.175C269.241 146.347 266.861 132.297 261.846 119.402C256.667 106.103 248.877 93.2918 238.276 83.6299ZM244.726 204.532C245.677 203.031 248.057 204.384 247.174 205.895L247.141 205.949C245.632 208.33 244.926 211.038 244.058 213.692C243.501 215.4 240.796 214.671 241.359 212.945L241.546 212.369C242.41 209.677 243.197 206.941 244.726 204.532ZM236.442 175.886L235.811 175.58C233.817 174.627 232.071 173.978 229.716 174.81C226.563 175.921 223.186 179.46 225.317 182.894C226.101 184.16 227.494 184.665 228.929 184.366C231.348 183.864 231.972 181.681 233.199 179.889L233.411 179.585C234.159 178.501 235.105 177.002 236.351 176.577C236.635 176.479 236.754 176.037 236.442 175.886ZM234.665 102.989L234.462 102.807C233.107 101.607 235.095 99.6292 236.442 100.822C242.609 106.282 244.751 114.829 247.949 122.113C248.667 123.751 246.255 125.182 245.531 123.53C242.48 116.579 240.455 108.264 234.665 102.989ZM160.563 100.601C162.174 99.873 163.584 102.223 162.035 102.996L161.977 103.024C156.531 105.489 154.214 111.073 151.996 116.256C151.289 117.911 148.877 116.484 149.577 114.843L149.978 113.913C152.293 108.571 154.993 103.126 160.563 100.601ZM152.027 97.2268C153.735 96.6341 154.466 99.3415 152.773 99.9342C148.157 101.544 144.989 105.016 142.319 108.986C141.318 110.473 138.893 109.07 139.904 107.569C143.005 102.961 146.687 99.0925 152.027 97.2268Z" fill="black"/>
<path fill-rule="evenodd" clip-rule="evenodd" d="M161.173 213.293C163.531 212.331 165.634 210.727 167.172 208.678C167.707 207.965 167.845 207.213 167.733 206.525C167.607 205.751 167.149 205.05 166.525 204.58C165.899 204.108 165.116 203.875 164.358 203.994C163.7 204.097 163.045 204.457 162.527 205.204L162.418 205.354C161.504 206.591 160.313 207.605 158.955 208.26C157.647 208.89 156.183 209.184 154.669 209.013C151.785 208.687 149.797 207.128 147.684 205.01C147.422 204.742 147.16 204.466 146.897 204.186C146.731 203.932 146.5 203.769 146.243 203.683C145.959 203.588 145.637 203.593 145.342 203.696C145.058 203.795 144.804 203.983 144.633 204.234C144.471 204.472 144.38 204.765 144.409 205.103C144.603 207.298 145.75 209.258 147.381 210.796C149.191 212.504 151.591 213.686 153.851 214.101C156.34 214.557 158.876 214.23 161.173 213.293ZM152.676 179.429C150.028 181.039 145.993 184.793 148.842 188.784C152.195 192.302 157.024 188.268 159.403 186.443C161.609 185.029 164.088 188.666 162.041 190.317C144.848 203.046 137.871 179.85 151.337 177.537C152.819 177.282 153.37 178.931 152.676 179.429ZM183.486 164.622C183.193 160.99 177.662 160.165 177.112 163.759C176.619 166.979 177.199 169.936 178.649 172.835C180.035 175.604 183.517 174.312 183.781 171.791C184.134 168.411 183.668 166.882 183.486 164.622ZM141.379 163.014C140.608 162.004 139.494 161.315 138.16 161.704C133.992 162.922 135.221 168.84 136.685 171.72C137.48 173.284 140.051 173.681 141.213 172.304C143.107 170.058 144.014 165.573 141.606 163.36C141.541 163.246 141.468 163.131 141.379 163.014ZM178.708 148.73L178.049 148.614C176.013 148.262 173.48 147.924 172.039 149.561C171.275 150.43 171.012 152.044 172.039 152.875C173.846 154.337 175.844 153.77 178.009 153.894C179.793 153.997 181.508 154.292 183.227 154.783C186.998 155.861 190.07 157.828 193.291 159.989C193.714 160.272 194.145 159.732 193.943 159.336C192.084 155.695 188.481 152.704 184.873 150.881C182.947 149.907 180.839 149.1 178.708 148.73ZM145.179 147.098L144.675 147.202C139.191 148.348 132.066 150.638 129.469 156.024C129.37 156.786 129.474 156.949 129.559 157.056L129.588 157.092C129.658 157.183 129.714 157.308 130.044 157.412C130.135 157.39 130.228 157.367 130.321 157.342C131.512 157.03 132.454 156.601 133.365 156.155L134.354 155.668C135.501 155.105 136.658 154.563 137.884 154.163C140.501 153.31 143.193 152.708 145.927 152.387C146.519 152.318 147.09 152.118 147.54 151.775C147.967 151.45 148.294 150.999 148.442 150.401C148.635 149.626 148.58 149.039 148.164 148.341C147.852 147.816 147.404 147.452 146.891 147.243C146.367 147.03 145.771 146.98 145.179 147.098Z" fill="black"/>
</svg>
