<svg width="445" height="565" viewBox="0 0 445 565" fill="none" xmlns="http://www.w3.org/2000/svg">
<path fill-rule="evenodd" clip-rule="evenodd" d="M84.2001 438.951C85.7787 430.569 87.2258 422.164 88.5409 413.741C89.1651 409.742 89.7741 405.739 90.3216 401.73C90.705 398.921 91.2889 395.708 89.2564 393.628C86.3963 390.7 83.7982 388.193 83.4482 383.999C83.1188 380.052 84.538 375.75 85.4254 371.92C87.2865 363.886 89.6034 355.952 92.1634 348.093C94.7643 340.108 97.6161 332.199 100.509 324.304C103.214 316.923 105.814 309.476 109.336 302.394C116.022 288.955 127.332 279.003 141.31 272.357C144.787 270.705 151.877 264.805 155.509 263.484C158.848 262.269 158.836 265.816 162.122 264.48C164.749 263.412 167.196 261.988 168.667 259.603C170.264 257.013 174.269 253.391 174.878 250.377C176.17 243.987 174.771 238.549 179.621 233.74C183.926 229.47 189.713 226.544 195.701 224.974C208.874 221.519 226.442 223.934 234.39 235.444C238.186 240.94 239.512 247.584 244.634 252.069C249.107 255.986 248.106 258.664 253.899 260.682C254.227 260.797 263.12 259.003 263.448 259.118C269.786 257.843 275.843 261.412 281.657 263.484C290.325 266.572 298.577 270.59 306.33 275.367C321.964 284.998 335.353 297.505 346.392 311.657C357.522 325.927 366.158 341.92 372.307 358.636C373.8 362.696 375.142 366.806 376.325 370.956C376.987 373.278 377.695 375.687 376.888 378.065C376.229 380.01 374.762 381.458 373.039 382.625C370.704 384.207 366.02 385.236 366.111 388.418C366.181 390.838 367.053 393.384 367.48 395.775C367.987 398.622 368.403 401.486 368.82 404.346C370.716 417.363 372.191 430.454 372.843 443.582C373.486 456.508 374.019 469.698 373.065 482.62C373.002 483.472 372.732 484.254 372.296 484.915C372.703 485.062 372.734 485.775 372.228 485.876C371.873 485.947 371.519 486.017 371.164 486.088C370.427 486.612 369.508 486.934 368.45 486.965C367.733 486.987 367.016 487.017 366.3 487.052C358.741 488.537 351.183 489.941 343.526 491.003C334.218 492.295 324.882 493.348 315.517 494.204C296.275 495.963 277.184 495.38 257.916 494.432C238.677 493.485 219.45 493.264 200.192 493.735C180.917 494.206 161.649 494.995 142.369 495.317C120.83 495.677 99.3236 495.124 77.8466 493.514C74.902 493.294 73.0801 491.091 73.6609 488.341C77.1406 471.865 81.0839 455.499 84.2001 438.951Z" fill="#8FA7DF"/>
<path fill-rule="evenodd" clip-rule="evenodd" d="M281.657 263.484L281.236 263.332C275.551 261.243 269.633 257.874 263.448 259.118C263.229 259.041 259.205 259.813 256.449 260.302L259.065 262.87L263.682 263.705C247.754 288.424 228.914 300.784 207.165 300.784C185.415 300.784 168.911 288.424 157.653 263.705L156.117 263.305C155.927 263.347 155.725 263.405 155.509 263.484C151.877 264.805 144.786 270.705 141.31 272.357C127.332 279.003 116.022 288.955 109.336 302.394C105.931 309.24 103.388 316.427 100.779 323.566L100.509 324.304C97.616 332.199 94.7642 340.108 92.1634 348.093C89.7146 355.61 87.4883 363.196 85.6707 370.872L85.4254 371.919C84.5379 375.75 83.1187 380.052 83.4481 383.999C83.5728 385.493 83.9828 386.773 84.5884 387.934L116.093 398.594L101.084 494.85C114.833 495.404 128.594 495.547 142.369 495.317C161.648 494.994 180.917 494.206 200.192 493.734C218.867 493.278 237.512 493.472 256.167 494.348L260.904 494.576C279.159 495.434 297.27 495.872 315.517 494.204L316.761 494.089L316.761 480.009L310.351 401.607L342.835 395.857L374.722 381.295C375.685 380.389 376.458 379.332 376.888 378.064C377.635 375.862 377.083 373.633 376.472 371.471L376.325 370.955C375.142 366.806 373.8 362.696 372.307 358.636C366.158 341.92 357.522 325.926 346.392 311.657C335.353 297.505 321.964 284.998 306.33 275.367C298.577 270.59 290.325 266.571 281.657 263.484Z" fill="#8FA7DF"/>
<path fill-rule="evenodd" clip-rule="evenodd" d="M269.458 258.713C267.466 258.631 265.435 258.934 263.448 259.118C263.275 259.134 263.209 259.385 263.404 259.423C266.961 260.122 270.478 261.078 273.971 262.048L275.466 262.464C279.405 263.56 283.228 264.69 287.041 266.151C294.64 269.063 301.857 272.994 308.5 277.509C334.078 294.898 352.59 321.225 364.272 348.483C367.445 355.885 370.133 363.472 372.311 371.186C372.84 373.063 373.338 374.947 373.81 376.837C373.949 377.391 374.553 378.811 374.222 379.378C373.929 379.879 372.79 380.189 372.261 380.449L370.475 381.32C366.991 383.009 361.187 385.784 360.605 386.055L359.697 386.475C344.85 393.319 328.986 399.122 312.279 399.524L312.148 398.182C311.403 390.766 310.426 383.309 308.292 376.121C308.177 375.734 307.655 375.865 307.607 376.208C306.418 384.718 306.798 393.295 307.213 401.845C307.947 416.988 308.922 432.122 309.789 447.259C310.223 454.831 310.784 462.398 311.29 469.966C311.797 477.549 311.961 485.315 313.119 492.835C313.377 494.512 315.466 495.423 317.047 495.247C318.797 495.051 320.143 493.602 320.151 491.941C320.172 487.559 319.587 483.126 319.261 478.756C318.952 474.604 318.621 470.454 318.281 466.304C317.038 451.157 315.609 436.029 314.288 420.89C313.819 415.52 313.313 410.155 312.792 404.79C330.491 404.254 347.026 398.09 362.8 390.888C363.029 395.762 363.58 400.628 364.114 405.482C365.604 419.028 366.918 432.569 367.901 446.157C368.398 453.02 368.759 459.891 369.074 466.764C369.229 470.141 369.355 473.519 369.452 476.899C369.484 478.025 369.513 479.151 369.539 480.278L369.593 482.859C369.637 484.494 369.814 486.009 371.277 487.199C372.763 488.408 374.771 488.472 376.242 487.199C378.211 485.494 377.863 483.171 377.804 480.882C377.756 478.95 377.697 477.019 377.63 475.088C377.494 471.227 377.32 467.366 377.109 463.507C376.37 450.016 374.895 436.579 372.966 423.197L372.213 418.03C370.807 408.427 369.263 398.604 366.12 389.353C367.344 388.781 368.564 388.205 369.78 387.626C371.936 386.599 374.166 385.636 376.262 384.503C377.925 383.604 379.359 382.371 379.822 380.551C380.338 378.524 379.548 376.307 379.024 374.33L378.978 374.156C378.464 372.164 377.91 370.182 377.326 368.208C374.957 360.202 372.027 352.353 368.598 344.696C361.733 329.365 352.872 314.801 342.047 301.632C332.304 289.779 320.794 279.029 307.304 270.967C300.709 267.025 293.681 263.788 286.248 261.5C282.774 260.431 278.994 259.501 275.357 259.118C273.395 258.911 271.43 258.793 269.458 258.713ZM234.167 234.42C231.8 232.03 227.098 234.503 228.234 237.668C230.907 245.113 235.164 251.905 241.808 256.797C248.053 261.396 255.5 264.383 263.519 263.746C263.581 263.741 263.635 263.726 263.682 263.705L262.991 264.586C257.565 271.488 251.841 278.294 244.942 283.934C230.885 295.427 211.746 301.626 193.266 297.217C178.725 293.748 165.915 282.936 162.147 269.158C162.688 269.386 163.329 269.464 164.034 269.32C167.048 268.704 170.033 265.723 171.977 263.586C174.08 261.274 175.722 258.777 176.926 255.955C179.129 250.79 179.836 244.14 176.827 239.137C176.456 238.52 175.6 238.866 175.527 239.468L175.413 240.408C174.833 245.096 174.11 249.632 171.759 253.907C170.608 255.998 169.229 258.04 167.55 259.792C166.652 260.729 165.678 261.624 164.626 262.41C163.601 263.176 162.361 263.729 161.443 264.608L161.275 264.777L161.27 264.746C161.038 262.89 159.653 262.072 158.299 262.123C156.988 262.173 155.448 262.715 154.852 262.975L154.795 263C145.65 267.128 137.227 272.509 129.3 278.478C112.908 290.823 100.627 306.961 94.6758 325.965C91.755 335.292 90.0791 344.903 88.31 354.469L87.2209 360.33C85.5696 369.161 83.7251 378.166 79.9975 386.381C79.0333 388.506 79.7766 390.499 82.1409 391.334C85.093 392.378 88.0561 393.388 91.0238 394.386C89.5666 400.265 88.6779 406.346 87.5861 412.254C85.2653 424.81 82.4217 437.287 79.9834 449.827C78.7368 456.239 77.6121 462.672 76.3667 469.084C75.7671 472.172 75.1413 475.256 74.5327 478.343C74.2049 480.007 73.9077 481.677 73.5948 483.343L73.5403 483.62C73.3611 484.499 73.1358 485.409 73.3931 486.288C73.6864 487.292 74.5194 488.001 75.2631 488.72C75.8752 489.313 76.7599 489.317 77.5099 488.993L77.7566 488.886C79.096 488.297 80.1454 487.709 80.6206 486.288C80.9214 485.389 81.0298 484.375 81.2264 483.449C81.6036 481.672 81.9611 479.893 82.2987 478.109C82.9739 474.539 83.6334 470.967 84.2772 467.393L84.8786 464.045C86.9426 452.509 88.9027 440.902 89.8936 429.243C90.3331 424.071 90.799 418.903 91.2692 413.735L91.6222 409.858C92.0687 404.951 92.6142 399.92 92.6914 394.947L94.466 395.54L103.125 398.418C105.272 399.131 108.006 400.593 110.316 400.327C111.447 400.197 112.31 399.862 112.975 399.254C112.178 409.834 111.099 420.397 109.66 430.905C108.351 440.467 106.9 450.016 105.187 459.521C104.338 464.228 103.466 468.93 102.518 473.62C102.045 475.966 101.556 478.308 101.053 480.647C100.802 481.815 100.503 482.983 100.307 484.16C100.083 485.508 100.478 486.337 101.279 487.446C101.936 488.357 103.252 488.824 104.318 488.196C105.73 487.362 106.467 486.641 106.882 485.123C107.26 483.745 107.489 482.306 107.782 480.91C108.321 478.333 108.842 475.753 109.345 473.169C110.398 467.766 111.368 462.35 112.234 456.918C115.287 437.781 117.224 418.484 118.202 399.155C118.685 389.619 118.834 380.074 118.748 370.528C118.704 365.634 118.535 360.727 118.166 355.846C117.794 350.906 117.018 346.064 116.326 341.17C116.301 340.998 116.043 340.988 116.032 341.17C115.704 346.656 115.19 352.136 114.939 357.637C114.698 362.885 114.593 368.142 114.402 373.392C114.151 380.294 113.802 387.199 113.342 394.1C112.507 393.242 111.249 392.747 109.99 392.94C108.167 392.58 106.204 391.681 104.466 391.135L97.9122 389.076C94.467 387.994 91.0219 386.92 87.5646 385.878C90.6556 376.1 92.7731 366.176 94.5811 356.108L95.3875 351.579C96.9837 342.667 98.7047 333.749 101.596 325.118C104.635 316.044 109.184 307.608 115.217 299.968C121.165 292.438 128.401 285.809 135.852 279.607C142.23 274.299 149.053 269.506 155.559 264.343C155.491 264.685 155.476 265.062 155.536 265.476C156.92 274.995 162.201 283.86 169.561 290.453C184.347 303.699 206.234 306.447 225.158 300.236C243.464 294.227 259.649 279.998 265.367 262.39C265.465 262.088 265.035 261.969 264.863 262.19C264.546 262.599 264.227 263.008 263.908 263.416C263.929 263.254 263.84 263.077 263.627 263C256.955 260.578 250.403 257.142 245.402 252.283C242.965 249.914 240.837 247.23 239.158 244.336C238.354 242.949 237.631 241.513 237.055 240.03L236.908 239.646C236.21 237.787 235.626 235.892 234.167 234.42Z" fill="#8FA7DF"/>
<path fill-rule="evenodd" clip-rule="evenodd" d="M183.01 119.738C227.988 118.192 270.965 146.675 285.436 186.934C286.487 190.092 283.215 193.042 279.913 192.508C283.29 208.529 275.91 230.093 256.687 232.366C252.75 232.834 248.792 232.564 244.849 232.905C241.335 233.209 222.203 243.35 215.038 245.726C199.955 250.69 162 249.781 146.901 245.726C146.352 246.904 134.626 201.594 131.955 187.545C130.982 181.458 139.879 176.952 139.223 170.68C138.38 162.623 128.379 152.799 131.443 145.129C139.52 125.606 162.961 120.159 183.01 119.738Z" fill="#8FA7DF"/>
<path fill-rule="evenodd" clip-rule="evenodd" d="M205.348 84.2491C203.327 84.4074 201.295 84.6762 199.298 85.0297C193.229 84.0944 186.949 85.1329 181.063 86.9335C167.28 91.1499 154.012 98.4705 143.624 108.026C138.278 112.946 133.905 118.613 131.213 125.205C129.845 128.548 129.075 132.117 128.852 135.692L128.827 136.126C128.765 137.312 128.736 138.734 128.887 140.144C128.406 142.988 127.977 145.856 127.945 148.733C127.929 150.066 128.021 151.396 128.193 152.718L128.134 152.843C128.384 154.421 128.681 155.993 129.021 157.556L129.105 157.659C129.152 157.977 129.205 158.294 129.256 158.611C129.44 159.415 129.633 160.216 129.837 161.015C130.28 162.745 130.769 164.463 131.297 166.171C131.389 166.47 131.3 166.706 131.127 166.861C131.512 168.161 131.932 169.452 132.398 170.728C132.169 171.845 131.938 172.961 131.693 174.074C130.415 179.863 129.333 185.688 127.879 191.444C124.932 203.125 120.454 214.617 119.223 226.626C118.265 235.939 119.856 246.12 125.999 253.728C131.295 260.283 139.259 264.153 147.861 265.184C151.976 265.681 156.197 265.453 160.222 264.473L160.66 264.365C162.677 263.853 165.242 263.052 167.116 261.763C169.148 261.089 171.067 259.845 172.223 258.63C173.802 256.969 175.526 254.13 175.096 251.769C177.444 251.95 179.809 252.001 182.134 251.994C187.863 251.983 193.643 251.556 199.154 249.987C204.07 248.588 209.799 246.249 212.707 242.029C212.843 241.83 212.617 241.543 212.378 241.62C210.03 242.397 207.833 243.447 205.41 244.04C203.026 244.622 200.643 245.17 198.184 245.41C193.378 245.876 188.5 245.814 183.678 245.589L182.023 245.508C176.863 245.248 171.531 244.877 166.705 243.057C164.812 242.343 163.059 241.347 161.462 240.163L161.211 239.974C160.355 239.319 159.471 238.767 158.573 238.244C158.444 238.089 158.315 237.934 158.186 237.776C156.142 235.305 153.946 232.923 152.105 230.312C148.447 225.131 147.036 219.747 146.845 213.568C146.644 207.046 146.621 200.514 146.539 193.99L146.509 191.816C146.403 184.355 146.387 176.869 145.778 169.427C145.497 165.969 145.097 162.528 144.482 159.111L144.347 158.38L143.355 153.11C143.116 151.841 142.977 150.533 142.671 149.269C143.014 148.739 143.411 148.228 143.871 147.742C144.295 147.294 144.726 146.859 145.156 146.427L145.465 146.17C146.174 145.574 146.782 145.006 147.352 144.187L147.49 143.984C148.102 143.288 148.68 142.559 149.19 141.759L149.284 141.604C149.412 141.453 149.538 141.302 149.67 141.153C150.079 140.69 150.508 140.252 150.952 139.832C152.508 142.664 154.708 145.117 157.824 146.65C158.951 147.205 160.325 146.73 160.694 145.55C161.626 142.572 163.042 139.802 164.915 137.294C168.043 142.198 173.002 146.034 178.846 147.906C180.307 148.374 181.593 146.93 181.25 145.641C180.195 141.678 179.985 137.649 180.605 133.665C182.811 135.151 185.086 136.55 187.422 137.847C192.621 141.633 198.13 145.041 204.189 147.488C205.589 148.053 207.695 147.103 207.059 145.409C206.523 143.982 206.083 142.532 205.801 141.042L205.739 140.698C205.737 140.688 205.736 140.677 205.735 140.667C219.767 158.906 253.796 176.483 256.408 176.652L256.479 176.652C254.848 178.121 253.531 179.935 252.67 182.019C251.765 184.209 255.454 185.162 256.408 183.068L256.438 182.998C257.906 179.446 261.535 176.9 265.484 176.298C267.871 176.707 270.128 177.791 271.667 179.436C274.696 182.672 274.723 186.576 272.656 190.258L272.352 190.795C271.233 192.762 270.054 194.734 269.424 196.894C268.654 199.545 269.236 202.233 268.732 204.881L268.705 205.021C268.466 206.199 267.95 207.538 266.461 207.216C266.347 207.191 266.236 207.157 266.125 207.121C265.811 207.357 265.434 207.552 264.963 207.681C263.811 207.998 262.538 207.844 261.392 207.588C260.284 207.342 259.209 206.955 258.173 206.502C258.059 206.768 257.988 207.047 257.981 207.315C257.946 208.685 258.548 209.812 259.474 210.729C257.997 212.489 256.734 214.426 255.312 216.223C253.268 218.801 251.177 221.323 248.954 223.764C246.64 226.309 244.119 228.714 241.505 230.986C239.672 232.576 236.643 234.278 235.494 236.587C234.173 236.973 233.052 237.927 232.641 239.496C231.895 242.339 231.676 249 232.262 251.891C232.845 254.756 235.064 256.542 237.519 258.051C238.199 258.471 238.969 258.427 239.594 258.114C240.145 258.618 240.766 259.082 241.477 259.495C244.104 261.023 247.156 261.579 250.181 261.899C254.265 263.129 258.669 263.453 263.022 262.688C264.445 262.846 265.867 262.989 267.294 263.107C281.886 264.304 296.721 263.284 310.954 260.01C317.485 258.508 323.651 255.777 329.396 252.27C339.298 246.225 343.489 229.256 337.744 213.034L337.289 211.755C334.7 204.508 331.908 197.299 328.165 190.538L327.718 189.734C324.278 183.567 320.494 177.408 315.468 172.262C312.951 169.688 310.028 167.35 306.726 165.715C305.472 165.095 304.009 164.665 302.578 164.177L302.549 163.84L302.518 163.503C302.424 162.422 302.304 161.344 302.149 160.268C301.572 156.243 300.756 152.279 299.598 148.364C298.439 144.444 297.013 140.59 295.298 136.854C292.437 130.622 288.843 124.711 284.694 119.163C284.398 118.59 284.098 118.02 283.79 117.453C280.292 111.013 275.763 104.871 269.92 100.117C263.214 94.6592 255.136 91.2714 246.706 88.8926C237.964 86.4291 228.843 84.7425 219.733 84.1754C214.938 83.8772 210.135 83.8735 205.348 84.2491ZM269.283 187.718C264.894 185.011 258.915 186.867 256.691 191.264C255.085 194.449 260.396 196.242 261.236 193.068C262.073 189.886 265.664 187.607 269.115 188.093C269.353 188.13 269.502 187.85 269.283 187.718Z" fill="#8FA7DF"/>
<path fill-rule="evenodd" clip-rule="evenodd" d="M179.638 223.495C182.27 222.485 184.619 220.801 186.337 218.649C186.934 217.901 187.088 217.111 186.963 216.388C186.822 215.576 186.311 214.84 185.614 214.346C184.915 213.85 184.04 213.606 183.195 213.731C182.46 213.839 181.728 214.217 181.149 215.002L181.028 215.159C180.007 216.457 178.677 217.523 177.161 218.21C175.7 218.872 174.066 219.181 172.375 219.001C169.154 218.659 166.934 217.021 164.575 214.797C164.282 214.517 163.99 214.227 163.696 213.933C163.51 213.666 163.252 213.495 162.966 213.405C162.648 213.305 162.289 213.31 161.96 213.418C161.642 213.523 161.358 213.72 161.168 213.983C160.987 214.232 160.885 214.541 160.918 214.896C161.134 217.201 162.415 219.258 164.236 220.873C166.258 222.667 168.938 223.908 171.461 224.343C174.24 224.822 177.073 224.479 179.638 223.495ZM170.149 187.938C167.192 189.628 162.686 193.57 165.867 197.76C169.612 201.455 175.004 197.218 177.661 195.302C180.125 193.818 182.893 197.637 180.607 199.37C161.408 212.736 153.616 188.38 168.654 185.951C170.309 185.683 170.924 187.415 170.149 187.938ZM204.554 172.391C204.228 168.577 198.051 167.711 197.436 171.485C196.886 174.865 197.534 177.971 199.153 181.014C200.7 183.922 204.589 182.565 204.884 179.918C205.278 176.369 204.758 174.763 204.554 172.391ZM157.534 170.702C156.673 169.642 155.429 168.918 153.94 169.327C149.285 170.606 150.657 176.819 152.292 179.843C153.18 181.486 156.051 181.902 157.348 180.456C159.463 178.098 160.476 173.389 157.787 171.066C157.714 170.946 157.633 170.825 157.534 170.702ZM199.219 155.704L198.483 155.583C196.209 155.213 193.381 154.857 191.772 156.577C190.918 157.488 190.625 159.183 191.772 160.056C193.789 161.591 196.02 160.996 198.438 161.126C200.431 161.234 202.346 161.544 204.265 162.06C208.476 163.191 211.907 165.257 215.503 167.526C215.975 167.823 216.457 167.256 216.232 166.841C214.156 163.017 210.132 159.876 206.103 157.962C203.952 156.94 201.598 156.092 199.219 155.704ZM161.777 153.991L161.214 154.099C155.09 155.303 147.134 157.707 144.234 163.363C144.123 164.163 144.24 164.334 144.335 164.446L144.367 164.483C144.445 164.579 144.507 164.711 144.876 164.82C144.978 164.797 145.082 164.773 145.186 164.747C146.515 164.419 147.567 163.968 148.585 163.5L149.689 162.988C150.97 162.398 152.262 161.829 153.632 161.409C156.554 160.512 159.56 159.881 162.612 159.544C163.274 159.471 163.911 159.261 164.414 158.901C164.891 158.56 165.255 158.087 165.421 157.458C165.637 156.645 165.575 156.029 165.111 155.295C164.762 154.744 164.262 154.362 163.689 154.142C163.104 153.919 162.439 153.866 161.777 153.991Z" fill="#8FA7DF"/>
<path fill-rule="evenodd" clip-rule="evenodd" d="M128.529 178.333C132.263 202.08 158.327 204.706 162.958 181.131C162.215 180.825 161.68 180.222 161.792 179.053C161.818 173.915 160.122 168.485 155.193 165.628C150.099 162.68 144.138 162.387 138.244 162.462C126.996 162.21 127.232 171.05 128.529 178.333ZM167.038 168.005C170.569 167.865 175.035 167.982 178.197 170.004C179.066 167.803 181.325 165.452 183.608 164.195C175.124 164.429 166.392 163.644 157.845 163.034C159.891 164.346 161.794 166.316 163.031 168.593C164.179 168.018 165.823 168.072 167.038 168.005ZM182.599 180.85C192.387 212.532 216.822 198.723 219.485 194.663C224.29 187.944 225.194 171.611 221.009 167.244C215.018 163.295 206.536 164.312 199.459 164.215C186.456 164.38 177.222 168.037 182.599 180.85ZM116.971 166.279C119.63 165.952 122.472 165.886 124.945 166.987C125.706 163.944 128.096 161.4 130.795 160.281C131.122 159.895 131.073 159.689 132.189 159.746C139.04 157.81 146.707 158.835 153.291 160.82C163.69 161.644 174.599 162.293 185.085 163.427C194.908 159.279 224.551 158.671 226.394 168.895C228.711 168.569 232.657 166.854 234.605 169.18C248.888 166.903 263.646 170.068 277.991 171.477C281.602 172.102 283.462 178.84 279.363 178.748C277.059 178.16 279.434 174.553 276.331 174.281C262.49 172.86 248.953 170.843 234.97 170.607C235.457 172.877 225.722 173.025 225.579 171.699C225.558 171.709 225.536 171.716 225.515 171.725C227.92 180.154 225.749 192.284 221.402 197.511C215.311 204.355 200.02 206.319 193.24 201.915C184.494 197.851 175.395 177.45 177.951 170.672C173.312 169.29 168.727 169.705 163.913 170.409C165.015 173.336 166.917 180.542 164.18 181.167C164.683 195.473 150.836 204.399 138.071 198.531C127.023 193.654 123.159 178.218 124.511 168.849C123.136 171.348 111.587 168.627 116.971 166.279Z" fill="#8FA7DF"/>
<path fill-rule="evenodd" clip-rule="evenodd" d="M97.7083 431.49C99.1219 423.506 100.418 415.502 101.595 407.48C102.155 403.671 102.7 399.859 103.19 396.041C103.533 393.365 104.056 390.306 102.236 388.325C99.675 385.536 97.3484 383.149 97.0349 379.154C96.74 375.396 98.0109 371.298 98.8056 367.65C100.472 359.999 102.547 352.443 104.84 344.958C107.169 337.354 109.722 329.821 112.313 322.302C114.735 315.273 117.063 308.18 120.218 301.435C126.205 288.636 136.333 279.158 148.851 272.829C151.964 271.255 158.313 265.636 161.566 264.378C164.556 263.221 164.545 266.599 167.488 265.327C169.841 264.31 172.031 262.953 173.348 260.682C174.779 258.216 178.365 254.766 178.911 251.895C180.068 245.81 178.815 240.631 183.158 236.05C187.014 231.983 192.196 229.197 197.558 227.701C209.355 224.411 225.087 226.712 232.204 237.673C235.603 242.908 236.791 249.235 241.378 253.507C245.383 257.237 244.487 259.787 249.675 261.71C249.969 261.819 257.932 260.111 258.226 260.22C263.901 259.006 269.325 262.405 274.532 264.378C282.294 267.319 289.684 271.146 296.627 275.695C310.627 284.868 322.618 296.779 332.503 310.257C342.47 323.847 350.203 339.079 355.71 354.999C357.047 358.866 358.248 362.78 359.308 366.732C359.901 368.944 360.534 371.238 359.812 373.502C359.222 375.355 357.908 376.734 356.365 377.846C354.274 379.353 350.079 380.332 350.161 383.363C350.223 385.667 351.005 388.092 351.387 390.369C351.841 393.081 352.214 395.809 352.587 398.533C354.284 410.93 355.606 423.397 356.19 435.9C356.765 448.21 357.242 460.772 356.388 473.079C356.332 473.891 356.09 474.636 355.7 475.265C356.064 475.405 356.092 476.084 355.639 476.18C355.321 476.248 355.004 476.315 354.686 476.382C354.026 476.881 353.203 477.188 352.256 477.217C351.613 477.238 350.972 477.267 350.33 477.3C343.561 478.715 336.793 480.051 329.936 481.063C321.6 482.293 313.24 483.296 304.854 484.112C287.622 485.787 270.526 485.231 253.271 484.329C236.043 483.427 218.825 483.216 201.58 483.664C184.319 484.114 167.064 484.864 149.799 485.172C130.51 485.514 111.251 484.988 92.0188 483.454C89.3818 483.244 87.7503 481.146 88.2704 478.527C91.3864 462.836 94.9177 447.249 97.7083 431.49Z" fill="#EDB98A"/>
<path fill-rule="evenodd" clip-rule="evenodd" d="M274.532 264.378L274.155 264.233C269.064 262.244 263.764 259.035 258.226 260.22C258.03 260.147 254.426 260.882 251.958 261.347L254.301 263.793L258.436 264.589C244.171 288.131 227.301 299.902 207.824 299.902C188.347 299.902 173.567 288.131 163.486 264.589L162.11 264.208C161.94 264.247 161.759 264.303 161.566 264.378C158.313 265.636 151.964 271.255 148.85 272.829C136.333 279.158 126.205 288.636 120.218 301.435C117.168 307.955 114.891 314.8 112.555 321.599L112.313 322.302C109.722 329.821 107.168 337.353 104.839 344.958C102.646 352.117 100.653 359.342 99.0251 366.652L98.8055 367.65C98.0108 371.298 96.7398 375.395 97.0348 379.154C97.1465 380.577 97.5136 381.796 98.0559 382.902L126.269 393.054L112.828 484.726C125.14 485.254 137.463 485.391 149.799 485.171C167.064 484.864 184.318 484.113 201.579 483.664C218.303 483.229 235 483.414 251.705 484.248L255.948 484.465C272.295 485.283 288.514 485.7 304.854 484.112L305.968 484.002L305.968 470.593L300.228 395.923L329.317 390.448L357.872 376.579C358.735 375.716 359.427 374.71 359.812 373.502C360.481 371.405 359.987 369.282 359.439 367.223L359.308 366.732C358.248 362.78 357.047 358.866 355.71 354.999C350.203 339.079 342.47 323.847 332.503 310.257C322.617 296.779 310.627 284.868 296.627 275.695C289.684 271.146 282.294 267.318 274.532 264.378Z" fill="#FDEA6B"/>
<path fill-rule="evenodd" clip-rule="evenodd" d="M263.608 259.834C261.824 259.756 260.006 260.045 258.226 260.22C258.071 260.235 258.012 260.474 258.187 260.511C261.372 261.176 264.521 262.086 267.649 263.01L268.988 263.407C272.515 264.45 275.939 265.526 279.353 266.918C286.158 269.691 292.622 273.435 298.57 277.736C321.475 294.296 338.053 319.37 348.515 345.329C351.356 352.379 353.763 359.604 355.713 366.951C356.187 368.739 356.633 370.533 357.056 372.333C357.18 372.861 357.721 374.213 357.425 374.753C357.162 375.23 356.142 375.525 355.669 375.774L354.069 376.603C350.949 378.211 345.751 380.854 345.23 381.112L344.417 381.512C331.122 388.03 316.916 393.557 301.954 393.94L301.837 392.662C301.17 385.599 300.295 378.497 298.384 371.651C298.281 371.283 297.813 371.407 297.77 371.734C296.706 379.839 297.046 388.008 297.417 396.15C298.075 410.572 298.948 424.986 299.724 439.402C300.113 446.613 300.615 453.82 301.069 461.028C301.523 468.25 301.67 475.645 302.707 482.808C302.938 484.404 304.808 485.273 306.224 485.104C307.791 484.918 308.996 483.538 309.004 481.956C309.023 477.783 308.498 473.561 308.207 469.399C307.93 465.444 307.633 461.492 307.329 457.54C306.216 443.115 304.937 428.707 303.753 414.288C303.334 409.174 302.88 404.065 302.414 398.956C318.263 398.445 333.071 392.574 347.196 385.715C347.401 390.357 347.895 394.991 348.373 399.614C349.707 412.515 350.884 425.411 351.764 438.352C352.209 444.889 352.533 451.433 352.815 457.978C352.953 461.194 353.066 464.412 353.153 467.63C353.182 468.703 353.208 469.776 353.231 470.848L353.279 473.306C353.319 474.864 353.477 476.306 354.787 477.44C356.118 478.591 357.916 478.653 359.233 477.44C360.997 475.816 360.685 473.604 360.633 471.423C360.589 469.584 360.537 467.745 360.476 465.906C360.354 462.228 360.199 458.551 360.01 454.876C359.349 442.028 358.027 429.231 356.3 416.485L355.625 411.565C354.366 402.419 352.984 393.064 350.169 384.253C351.265 383.708 352.358 383.159 353.447 382.608C355.378 381.63 357.374 380.713 359.251 379.634C360.74 378.778 362.024 377.604 362.439 375.871C362.901 373.94 362.194 371.828 361.725 369.945L361.684 369.78C361.223 367.883 360.728 365.995 360.204 364.115C358.083 356.491 355.459 349.015 352.388 341.723C346.241 327.122 338.305 313.251 328.612 300.71C319.887 289.42 309.58 279.183 297.499 271.504C291.593 267.75 285.3 264.668 278.644 262.489C275.532 261.47 272.147 260.584 268.89 260.22C267.133 260.023 265.374 259.911 263.608 259.834ZM232.005 236.698C229.885 234.422 225.674 236.777 226.692 239.791C229.085 246.882 232.898 253.35 238.847 258.01C244.439 262.39 251.108 265.234 258.29 264.627C258.345 264.622 258.393 264.608 258.436 264.588L257.817 265.428C252.958 272.001 247.832 278.482 241.654 283.854C229.066 294.8 211.927 300.704 195.377 296.504C182.356 293.2 170.884 282.904 167.511 269.782C167.994 269.999 168.569 270.073 169.2 269.936C171.899 269.35 174.572 266.511 176.313 264.475C178.196 262.273 179.667 259.895 180.745 257.208C182.718 252.289 183.351 245.955 180.657 241.19C180.324 240.603 179.557 240.932 179.492 241.505L179.39 242.4C178.87 246.866 178.223 251.186 176.118 255.257C175.087 257.249 173.852 259.193 172.349 260.862C171.544 261.754 170.672 262.607 169.73 263.355C168.813 264.085 167.702 264.612 166.88 265.448L166.729 265.609L166.725 265.58C166.517 263.812 165.277 263.033 164.064 263.082C162.89 263.129 161.511 263.646 160.977 263.894L160.927 263.917C152.737 267.849 145.194 272.973 138.096 278.658C123.417 290.415 112.418 305.785 107.089 323.884C104.474 332.767 102.973 341.92 101.389 351.03L100.413 356.612C98.9348 365.023 97.283 373.599 93.9449 381.423C93.0815 383.446 93.7472 385.344 95.8643 386.14C98.508 387.134 101.161 388.096 103.819 389.047C102.514 394.645 101.718 400.437 100.741 406.063C98.6623 418.022 96.1158 429.904 93.9323 441.847C92.816 447.954 91.8088 454.081 90.6935 460.188C90.1566 463.129 89.5962 466.066 89.0512 469.005C88.7577 470.59 88.4915 472.181 88.2112 473.768L88.1625 474.031C88.002 474.869 87.8003 475.735 88.0306 476.573C88.2933 477.528 89.0393 478.204 89.7053 478.889C90.2534 479.453 91.0457 479.457 91.7173 479.149L91.9382 479.047C93.1377 478.485 94.0774 477.926 94.5029 476.573C94.7722 475.716 94.8694 474.751 95.0454 473.868C95.3832 472.176 95.7034 470.482 96.0057 468.783C96.6103 465.383 97.2009 461.981 97.7775 458.577L98.316 455.389C100.164 444.401 101.92 433.347 102.807 422.244C103.201 417.318 103.618 412.396 104.039 407.474L104.355 403.782C104.755 399.109 105.243 394.317 105.312 389.581L106.902 390.145L114.656 392.886C116.578 393.566 119.026 394.958 121.096 394.705C122.108 394.581 122.881 394.262 123.477 393.682C122.763 403.759 121.796 413.819 120.508 423.827C119.336 432.933 118.037 442.027 116.502 451.08C115.742 455.563 114.961 460.041 114.113 464.508C113.689 466.741 113.251 468.972 112.8 471.2C112.575 472.312 112.308 473.425 112.132 474.546C111.932 475.829 112.285 476.619 113.002 477.675C113.591 478.542 114.769 478.988 115.724 478.389C116.989 477.595 117.648 476.908 118.021 475.463C118.359 474.15 118.564 472.78 118.826 471.45C119.309 468.996 119.775 466.539 120.226 464.078C121.168 458.933 122.037 453.774 122.813 448.601C125.547 430.375 127.281 411.997 128.157 393.588C128.59 384.506 128.723 375.416 128.647 366.324C128.607 361.664 128.455 356.991 128.125 352.342C127.792 347.637 127.097 343.025 126.477 338.365C126.455 338.201 126.224 338.191 126.214 338.365C125.921 343.59 125.46 348.809 125.235 354.047C125.02 359.046 124.925 364.052 124.754 369.052C124.529 375.625 124.217 382.202 123.805 388.774C123.057 387.957 121.931 387.486 120.804 387.67C119.171 387.327 117.413 386.47 115.856 385.95L109.988 383.99C106.902 382.959 103.817 381.936 100.721 380.943C103.489 371.631 105.386 362.18 107.005 352.591L107.727 348.278C109.156 339.79 110.697 331.297 113.286 323.077C116.008 314.435 120.081 306.401 125.485 299.125C130.811 291.954 137.291 285.64 143.963 279.734C149.675 274.678 155.785 270.113 161.611 265.196C161.55 265.522 161.537 265.881 161.59 266.275C162.829 275.341 167.558 283.783 174.149 290.063C187.39 302.678 206.99 305.295 223.937 299.38C240.33 293.657 254.823 280.105 259.944 263.336C260.032 263.049 259.647 262.935 259.493 263.146C259.209 263.535 258.924 263.924 258.638 264.314C258.657 264.159 258.577 263.991 258.386 263.917C252.411 261.61 246.544 258.338 242.066 253.71C239.883 251.454 237.978 248.898 236.474 246.141C235.754 244.821 235.107 243.454 234.591 242.041L234.459 241.675C233.834 239.905 233.311 238.1 232.005 236.698Z" fill="black"/>
<path fill-rule="evenodd" clip-rule="evenodd" d="M186.194 127.477C226.471 126.004 264.958 153.131 277.916 191.473C278.857 194.481 275.927 197.29 272.971 196.782C275.994 212.04 269.386 232.577 252.171 234.742C248.646 235.187 245.101 234.931 241.57 235.255C238.423 235.544 221.29 245.202 214.875 247.465C201.368 252.193 167.379 251.327 153.858 247.465C153.365 248.587 142.865 205.435 140.474 192.055C139.602 186.258 147.569 181.966 146.982 175.993C146.227 168.319 137.271 158.964 140.015 151.658C147.248 133.065 168.239 127.877 186.194 127.477Z" fill="#EDB98A"/>
<path fill-rule="evenodd" clip-rule="evenodd" d="M206.197 93.6779C204.387 93.8287 202.568 94.0847 200.779 94.4214C195.344 93.5306 189.72 94.5196 184.45 96.2345C172.107 100.25 160.225 107.222 150.923 116.323C146.136 121.008 142.219 126.406 139.808 132.683C138.583 135.868 137.894 139.266 137.694 142.671L137.672 143.084C137.616 144.214 137.591 145.569 137.726 146.911C137.295 149.62 136.911 152.351 136.882 155.091C136.868 156.361 136.95 157.628 137.104 158.886L137.051 159.006C137.275 160.509 137.541 162.005 137.845 163.494L137.921 163.592C137.963 163.895 138.011 164.197 138.056 164.499C138.221 165.264 138.394 166.028 138.577 166.788C138.973 168.436 139.411 170.072 139.884 171.699C139.966 171.984 139.887 172.209 139.732 172.356C140.076 173.594 140.452 174.823 140.87 176.039C140.665 177.102 140.458 178.166 140.239 179.225C139.094 184.739 138.125 190.287 136.823 195.768C134.184 206.893 130.174 217.838 129.071 229.275C128.214 238.144 129.638 247.841 135.14 255.087C139.882 261.329 147.014 265.015 154.717 265.997C158.402 266.47 162.181 266.253 165.786 265.32L166.179 265.216C167.985 264.729 170.281 263.967 171.96 262.739C173.779 262.097 175.498 260.912 176.534 259.754C177.947 258.173 179.491 255.469 179.106 253.221C181.209 253.393 183.326 253.442 185.409 253.435C190.539 253.424 195.715 253.017 200.65 251.523C205.052 250.191 210.183 247.964 212.787 243.945C212.909 243.755 212.706 243.482 212.493 243.555C210.389 244.295 208.422 245.295 206.253 245.86C204.118 246.414 201.983 246.936 199.782 247.164C195.478 247.609 191.11 247.549 186.792 247.335L185.309 247.258C180.689 247.01 175.913 246.657 171.592 244.923C169.896 244.243 168.327 243.295 166.896 242.167L166.672 241.988C165.905 241.363 165.114 240.837 164.309 240.339C164.194 240.192 164.078 240.045 163.963 239.894C162.132 237.541 160.166 235.272 158.517 232.785C155.242 227.851 153.978 222.723 153.807 216.839C153.627 210.627 153.606 204.407 153.533 198.193L153.506 196.122C153.411 189.017 153.397 181.887 152.851 174.8C152.6 171.507 152.242 168.229 151.691 164.975L151.571 164.278L150.682 159.26C150.468 158.051 150.343 156.805 150.07 155.602C150.377 155.097 150.732 154.611 151.144 154.148C151.524 153.721 151.909 153.307 152.294 152.895L152.572 152.65C153.206 152.083 153.751 151.541 154.261 150.761L154.385 150.568C154.933 149.905 155.45 149.211 155.907 148.449L155.992 148.301C156.106 148.158 156.219 148.014 156.337 147.872C156.703 147.431 157.088 147.014 157.485 146.614C158.878 149.311 160.849 151.647 163.639 153.108C164.648 153.636 165.879 153.183 166.209 152.06C167.044 149.223 168.311 146.586 169.989 144.197C172.79 148.868 177.231 152.521 182.464 154.304C183.772 154.749 184.924 153.374 184.617 152.146C183.673 148.373 183.485 144.535 184.039 140.741C186.015 142.156 188.052 143.488 190.144 144.723C194.8 148.329 199.733 151.575 205.159 153.905C206.412 154.444 208.299 153.539 207.729 151.925C207.25 150.567 206.855 149.185 206.603 147.767L206.547 147.439C206.545 147.429 206.545 147.419 206.543 147.409C219.109 164.78 249.582 181.519 251.921 181.681L251.985 181.681C250.524 183.079 249.345 184.807 248.574 186.792C247.764 188.877 251.067 189.785 251.921 187.792L251.948 187.725C253.263 184.342 256.513 181.917 260.049 181.344C262.187 181.733 264.207 182.766 265.586 184.332C268.298 187.414 268.323 191.132 266.471 194.639L266.2 195.15C265.197 197.024 264.142 198.901 263.577 200.959C262.888 203.484 263.409 206.044 262.958 208.566L262.933 208.699C262.719 209.82 262.257 211.096 260.924 210.789C260.821 210.765 260.722 210.733 260.623 210.699C260.342 210.924 260.004 211.109 259.583 211.232C258.551 211.534 257.411 211.387 256.384 211.144C255.392 210.909 254.429 210.54 253.502 210.109C253.4 210.363 253.336 210.628 253.33 210.884C253.299 212.188 253.838 213.261 254.667 214.135C253.344 215.811 252.214 217.656 250.94 219.367C249.109 221.822 247.237 224.225 245.246 226.55C243.174 228.973 240.917 231.263 238.575 233.427C236.934 234.942 234.222 236.562 233.193 238.761C232.01 239.129 231.006 240.038 230.638 241.532C229.97 244.239 229.774 250.584 230.299 253.337C230.82 256.065 232.808 257.766 235.006 259.204C235.615 259.604 236.304 259.562 236.864 259.264C237.358 259.744 237.914 260.186 238.551 260.579C240.903 262.034 243.636 262.564 246.345 262.869C250.002 264.04 253.946 264.349 257.845 263.619C259.118 263.77 260.392 263.907 261.67 264.019C274.737 265.159 288.022 264.187 300.768 261.07C306.616 259.639 312.138 257.038 317.283 253.698C326.15 247.94 329.903 231.78 324.758 216.33L324.351 215.112C322.032 208.21 319.532 201.344 316.18 194.906L315.78 194.14C312.7 188.267 309.311 182.4 304.81 177.5C302.556 175.049 299.938 172.822 296.981 171.264C295.859 170.674 294.548 170.264 293.267 169.8L293.241 169.478L293.213 169.157C293.129 168.128 293.021 167.101 292.883 166.076C292.366 162.244 291.636 158.468 290.599 154.74C289.56 151.006 288.284 147.336 286.748 143.778C284.185 137.843 280.967 132.213 277.252 126.93C276.987 126.384 276.718 125.84 276.442 125.301C273.31 119.167 269.253 113.317 264.021 108.79C258.016 103.592 250.782 100.366 243.234 98.1003C235.405 95.7541 227.237 94.1478 219.079 93.6077C214.785 93.3237 210.484 93.3202 206.197 93.6779ZM263.451 192.219C259.521 189.642 254.166 191.409 252.175 195.597C250.737 198.63 255.493 200.338 256.245 197.315C256.994 194.285 260.21 192.114 263.301 192.577C263.514 192.612 263.647 192.346 263.451 192.219Z" fill="black"/>
<path fill-rule="evenodd" clip-rule="evenodd" d="M183.173 226.293C185.531 225.332 187.634 223.727 189.172 221.678C189.707 220.965 189.845 220.213 189.733 219.525C189.607 218.751 189.149 218.05 188.525 217.58C187.899 217.108 187.116 216.875 186.358 216.994C185.7 217.097 185.045 217.457 184.527 218.204L184.418 218.354C183.504 219.591 182.313 220.606 180.955 221.26C179.647 221.89 178.183 222.185 176.669 222.013C173.785 221.688 171.797 220.128 169.684 218.01C169.422 217.742 169.16 217.466 168.897 217.186C168.731 216.932 168.5 216.769 168.243 216.683C167.959 216.588 167.637 216.593 167.342 216.696C167.058 216.796 166.804 216.984 166.633 217.234C166.471 217.472 166.38 217.766 166.409 218.103C166.603 220.299 167.75 222.258 169.381 223.796C171.191 225.504 173.591 226.686 175.851 227.101C178.34 227.557 180.876 227.23 183.173 226.293ZM174.676 192.429C172.028 194.039 167.993 197.793 170.842 201.783C174.195 205.302 179.024 201.268 181.403 199.443C183.609 198.029 186.088 201.666 184.041 203.317C166.848 216.046 159.871 192.85 173.337 190.537C174.819 190.282 175.37 191.931 174.676 192.429ZM205.486 177.622C205.193 173.99 199.662 173.166 199.112 176.76C198.619 179.979 199.199 182.937 200.649 185.835C202.035 188.604 205.517 187.312 205.781 184.791C206.134 181.411 205.668 179.882 205.486 177.622ZM163.379 176.014C162.608 175.004 161.494 174.315 160.16 174.705C155.992 175.923 157.221 181.84 158.685 184.72C159.48 186.284 162.051 186.681 163.213 185.304C165.107 183.058 166.014 178.573 163.606 176.361C163.541 176.246 163.468 176.131 163.379 176.014ZM200.708 161.73L200.049 161.614C198.013 161.262 195.48 160.924 194.039 162.561C193.275 163.43 193.012 165.044 194.039 165.875C195.846 167.337 197.844 166.77 200.009 166.894C201.793 166.997 203.508 167.292 205.227 167.783C208.998 168.861 212.07 170.828 215.291 172.989C215.714 173.272 216.145 172.732 215.943 172.336C214.084 168.695 210.481 165.704 206.873 163.881C204.947 162.907 202.839 162.1 200.708 161.73ZM167.179 160.099L166.675 160.202C161.191 161.348 154.066 163.638 151.469 169.025C151.37 169.786 151.474 169.949 151.559 170.056L151.588 170.092C151.658 170.183 151.714 170.308 152.044 170.412C152.135 170.39 152.228 170.367 152.321 170.342C153.512 170.031 154.454 169.601 155.365 169.155L156.354 168.668C157.501 168.105 158.658 167.563 159.884 167.163C162.501 166.31 165.193 165.708 167.927 165.387C168.519 165.318 169.09 165.118 169.54 164.775C169.967 164.45 170.294 164 170.442 163.401C170.635 162.626 170.58 162.04 170.164 161.341C169.852 160.816 169.404 160.452 168.891 160.243C168.367 160.03 167.771 159.98 167.179 160.099Z" fill="black"/>
<path fill-rule="evenodd" clip-rule="evenodd" d="M145.105 195.568C147.466 198.741 151.844 199.751 155.882 199.402C164.59 198.564 167.331 188.674 167.616 180.986C161.777 182.629 168.11 170.995 148.148 169.716C141.111 169.129 143.051 173.379 139.942 176.484C140.006 183.001 141.091 190.082 145.105 195.568ZM186.583 188.08C191.725 212.157 219.879 206.43 222.836 184.726C220.105 182.799 220.825 178.04 217.432 176.315C212.055 172.88 205.333 173.027 199.227 173.107C191.422 173.643 189.198 176.877 185.189 180.404C185.382 182.76 185.938 185.552 186.583 188.08ZM133.952 165.728C134.241 165.68 134.53 165.635 134.819 165.592C135.044 165.464 135.309 165.366 135.617 165.306C136.32 165.128 137.019 165.008 137.716 164.943C147.722 162.691 170.871 165.888 171.826 174.427C175.013 175.491 177.77 174.538 181.464 174.633C184.275 162.883 232.877 164.541 235.214 171.625C235.223 171.623 235.232 171.621 235.241 171.618C237.487 170.923 240.798 171.091 243.368 170.981C248.857 170.865 254.352 171.355 259.723 172.512C269.779 174.111 283.504 175.982 276.51 188.54C276.509 188.542 276.508 188.544 276.506 188.546L276.505 188.545C275.299 189.781 273.254 188.786 273.178 187.113C275.529 181.164 270.218 180.45 266.132 178.74C255.964 175.087 245.611 174.581 235.095 175.71C234.304 176.642 233.104 177.454 231.835 177.879C224.803 179.046 228.509 184.262 224.064 185.021C224.881 203.202 202.807 213.126 190.017 201.175C184.911 196.182 183.693 188.786 182.509 182.119C181.883 181.979 181.485 181.636 181.253 181.183C179.747 179.68 178.801 178.292 175.824 177.879C172.847 177.467 170.555 178.295 170.245 178.548C170.167 178.706 170.083 178.864 169.986 179.022C169.85 179.257 169.664 179.444 169.454 179.592C172.394 197.697 158.339 209.147 144.149 199.757C137.984 193.957 136.681 185.078 136.424 177.153C135.588 176.648 135.059 175.671 135.348 174.442C135.747 172.748 134.812 171.281 133.323 170.545C131.388 169.589 131.73 166.096 133.952 165.728Z" fill="black"/>
</svg>
