<svg width="399" height="539" viewBox="0 0 399 539" fill="none" xmlns="http://www.w3.org/2000/svg">
<path fill-rule="evenodd" clip-rule="evenodd" d="M340.462 235.455C336.844 225.489 339.562 212.871 332.104 204.625C329.898 203.284 328.728 204.03 327.82 206.368C327.271 209.444 325.987 220.036 330.606 220.031C331.187 226.647 330.824 233.31 329.401 239.803C325.993 239.256 323.508 241.008 321.021 242.31C319.167 243.282 317.312 244.004 315.073 243.337C305.828 241.708 303.194 251.415 303.082 259.339C302.946 263.205 302.583 272.217 300.879 275.969C293.172 260.006 276.984 252.738 261.559 249.15C259.142 248.481 257.078 247.567 255.528 246.005C242.532 240.874 248.775 224.062 242.796 214.401C233.438 202.914 222.199 199.609 208.041 201.578C195.653 202.948 187.232 215.531 187.996 227.409C188.225 229.833 186.77 232.382 185.914 234.877C177.363 245.108 164.058 249.686 152.614 255.869C114.444 274.524 101.216 288.781 86.3834 328.477C79.4443 343.413 71.14 357.908 68.382 374.357C65.1412 393.741 65.131 413.583 66.2592 433.157C64.1529 433.41 66.4451 448.457 68.2926 453.67C68.9256 455.456 70.4424 456.744 72.3324 456.715C76.134 458.562 85.0598 466.008 89.0361 465.761C101.884 464.97 114.372 466.194 126.749 465.561C140.14 464.877 153.402 462.378 166.851 462.702C190.303 463.268 173.512 464.66 197.776 465.761C213.093 466.468 268.974 458.102 284.247 459.468C296.671 462.081 302.338 457.676 300.443 444.697C299.742 439.722 297.505 428.658 304.866 428.188C308.347 428.592 311.23 432.072 313.838 434.105C336.879 451.259 360.417 438.907 362.272 410.707C365.764 387.054 370.66 381.467 360.017 357.847C326.342 269.92 377.077 281.866 342.822 240.682C340.147 243.011 340.827 236.795 340.462 235.455Z" fill="#D08B5B"/>
<path fill-rule="evenodd" clip-rule="evenodd" d="M178.777 254.219C200.724 265.413 218.08 271.009 230.845 271.009C243.61 271.009 266.093 273.616 298.294 278.828L314.195 313.772L349.281 320.627L349.437 321.541C351.146 331.347 354.412 343.214 360.017 357.847C370.66 381.467 365.764 387.054 362.272 410.707C360.417 438.907 336.879 451.259 313.838 434.105C311.229 432.072 308.347 428.592 304.865 428.188C297.652 428.649 299.657 439.284 300.399 444.391L300.443 444.697C302.338 457.676 296.671 462.082 284.247 459.468C268.974 458.102 213.093 466.468 197.776 465.762C173.512 464.66 190.303 463.268 166.851 462.703C153.402 462.379 140.14 464.877 126.749 465.561C115.023 466.16 103.197 465.094 91.0604 465.653L72.3322 456.715C65.4057 407.119 66.4581 374.6 75.4892 359.157C84.4751 343.792 96.5077 318.533 111.587 283.381C111.818 283.133 112.051 282.889 112.286 282.646L178.777 254.219Z" fill="#DB79E2"/>
<path fill-rule="evenodd" clip-rule="evenodd" d="M327.665 203.966C329.503 202.16 332.424 202.609 334.216 204.215C336.04 205.846 337.137 208.41 338.074 210.62C340.703 216.838 341.304 223.426 341.906 230.033C342.266 233.983 342.627 237.939 343.422 241.829C347.311 243.929 350.822 246.672 353.308 250.361C357.086 255.965 358.878 262.492 356.984 269.134C356.408 271.157 355.595 273.093 354.782 275.029L354.782 275.029C354.214 276.382 353.645 277.735 353.158 279.119C351.892 282.7 351.117 286.421 350.745 290.202C350.38 293.912 350.331 297.643 350.436 301.368C350.492 303.297 350.594 305.222 350.696 307.147C350.716 307.538 350.748 307.932 350.78 308.328L350.78 308.33L350.78 308.331L350.78 308.333V308.333C350.889 309.686 350.999 311.058 350.68 312.365L350.629 312.559C350.79 312.534 350.948 312.503 351.106 312.468C351.414 312.399 351.713 312.322 352.009 312.246C353.014 311.986 353.973 311.738 355.065 311.882C356.167 312.026 356.738 312.945 356.272 313.983C356.068 314.435 355.798 314.814 355.472 315.137C357.05 326.807 359.283 338.373 361.516 349.94L361.516 349.94L361.517 349.942C363.303 359.195 365.089 368.448 366.541 377.755C368.021 387.256 368.922 396.785 368.413 406.404L368.36 407.358C367.841 416.19 366.568 425.923 362.08 433.647C359.982 437.263 357.1 440.472 353.607 442.783C352.007 443.842 350.292 444.67 348.43 445.083C338.779 448.927 328.573 447.984 319.472 442.902C315.38 440.619 311.297 437.957 307.955 434.653C306.331 433.047 304.764 431.003 303.803 428.769C303.804 428.933 303.795 429.099 303.786 429.265V429.266V429.266C303.767 429.605 303.749 429.945 303.817 430.277L304.019 431.254C304.307 432.634 304.75 434.721 305.277 437.212L305.277 437.213C307.526 447.827 311.327 465.771 311.389 467.595C311.425 468.666 303.488 468.771 300.841 468.806C300.484 468.81 300.224 468.814 300.092 468.818L300.061 468.819C283.495 469.51 266.918 469.141 250.361 468.457L249.054 468.402C244.122 468.193 239.057 467.962 233.94 467.729L233.918 467.728C222.381 467.202 210.58 466.664 199.45 466.34C199.434 466.342 199.421 466.343 199.408 466.344L199.387 466.346C199.32 466.35 199.252 466.347 198.944 466.333L198.942 466.332C198.547 466.314 197.756 466.278 196.066 466.215C190.801 466.093 185.535 465.53 180.268 464.967C173.007 464.191 165.745 463.414 158.484 463.794C150.9 464.19 143.331 464.806 135.762 465.422L135.73 465.425C133.378 465.616 131.027 465.807 128.675 465.992L128.424 463.86C128.127 461.35 127.811 458.753 127.487 456.089C124.813 434.108 121.579 407.522 123.427 387.039C123.589 385.241 120.782 385.252 120.621 387.039C118.777 407.486 121.996 433.976 124.668 455.957C125.099 459.506 125.516 462.937 125.895 466.206C121.667 466.527 117.436 466.819 113.201 467.041L112.121 467.097C97.71 467.817 82.8354 467.86 68.7319 464.555C68.297 464.453 68.1497 464.018 68.2409 463.657C68.1006 463.737 67.8902 463.692 67.8306 463.495C66.6602 459.637 65.9001 451.53 65.2905 445.028C65.0443 442.403 64.8227 440.04 64.6086 438.323L64.5585 437.933C63.794 432.135 63.3556 426.272 63.04 420.439C62.4017 408.771 62.4788 397.089 63.3416 385.435C66.0876 348.264 77.0226 310.711 99.9728 280.838C105.521 273.616 111.837 267.009 119.416 261.899C126.851 256.885 135.191 253.353 143.653 250.484C149.247 248.587 154.928 246.963 160.61 245.343C160.825 245.235 161.04 245.129 161.256 245.025L161.581 244.869C162.208 244.572 162.833 244.266 163.457 243.96L163.457 243.959L163.458 243.959L163.458 243.959L163.458 243.959L163.458 243.959L163.458 243.959C164.845 243.279 166.233 242.598 167.659 242.011L168.116 241.825C171.115 240.622 174.608 239.558 177.854 239.595C183.111 236.947 187.526 232.946 187.099 226.527C186.923 223.89 191.062 223.893 191.209 226.527C191.595 233.534 187.278 238.504 181.775 241.839L181.801 241.866L181.827 241.895C182.687 242.87 183.606 243.775 184.598 244.617C190.539 249.674 198.055 253.872 205.567 256.635C214.38 259.879 223.186 260.851 232.301 258.228C237.067 256.856 241.567 254.741 245.701 252.006C246.964 251.171 248.174 250.277 249.335 249.32C248.237 247.819 247.36 246.202 246.624 244.487C245.144 241.036 243.92 236.361 245.431 232.717C245.803 231.819 247.28 231.265 247.795 232.409C248.417 233.779 248.881 235.197 249.344 236.616C249.939 238.436 250.533 240.257 251.464 241.976C252.095 243.14 252.821 244.245 253.634 245.286C253.634 245.343 259.849 246.405 259.849 246.405C267.361 246.402 274.435 249.288 281.081 252.893C285.009 255.025 288.87 257.292 292.719 259.562L300.243 264C300.621 264.223 301.03 264.44 301.449 264.663L301.45 264.663C301.645 264.767 301.842 264.872 302.039 264.979C301.313 261.394 300.959 257.74 301.197 254.117C301.558 248.653 303.684 242.678 309.312 240.731C311.974 239.808 315.053 240.093 317.638 241.117C318.831 241.59 320.128 242.218 321.236 243.056C321.773 240.643 324.035 238.833 326.308 238.034C327.044 237.774 327.798 237.61 328.563 237.529C328.54 237.142 328.538 236.75 328.543 236.347L328.549 236.042C328.584 234.253 328.57 232.465 328.531 230.68C328.461 227.295 328.3 223.981 327.956 220.607C327.777 218.87 327.517 217.146 327.257 215.421L327.257 215.42L327.257 215.42L327.257 215.419L327.256 215.416L327.256 215.414C327.098 214.368 326.94 213.321 326.8 212.272L326.647 211.076C326.636 210.99 326.624 210.904 326.612 210.816L326.593 210.672C326.283 208.393 325.915 205.684 327.665 203.966ZM323.412 325.831C323.421 324.025 320.615 324.023 320.607 325.831C320.55 338.329 317.329 350.311 314.106 362.304C311.43 372.259 308.752 382.221 307.88 392.493C307.728 394.292 310.534 394.282 310.686 392.493C311.558 382.221 314.234 372.269 316.909 362.323C320.134 350.334 323.356 338.353 323.412 325.831ZM305.051 253.868C305.476 248.576 308.45 243.08 314.594 243.982C316.653 244.283 321.222 245.869 320.258 248.646C320.219 248.759 320.177 248.867 320.128 248.969C319.749 249.376 319.399 249.807 319.083 250.263C317.472 251.454 314.815 251.303 312.774 251.187C312.542 251.174 312.318 251.161 312.104 251.151L311.848 251.14C310.252 251.08 309.884 253.602 311.469 253.949C313.31 254.356 315.302 254.668 317.207 254.45C317.116 254.815 317.042 255.183 316.986 255.551L316.985 255.552C316.898 255.57 316.814 255.587 316.726 255.601C316.092 255.706 315.45 255.702 314.811 255.65C313.693 255.566 312.897 256.804 313.17 257.807C313.468 258.883 314.706 259.339 315.671 258.82C316.074 258.606 316.46 258.368 316.832 258.101C317 262.895 319.742 267.462 324.782 268.84C324.831 268.854 324.877 268.85 324.915 268.833C325.459 270.215 326.322 271.467 327.398 272.48C325.848 272.687 324.326 273.999 323.488 275.142C321.913 277.302 321.356 280.68 323.148 282.812C324.372 284.271 326.486 283.275 327.034 281.788C327.352 280.929 327.366 279.948 327.381 278.968C327.391 278.264 327.401 277.56 327.525 276.903C327.66 276.179 327.904 275.487 328.147 274.798C328.305 274.349 328.463 273.9 328.591 273.444C330.172 274.539 332.066 275.163 334.048 275.079C336.278 274.984 338.772 273.89 339.641 271.694C339.936 270.954 339.978 270.25 339.89 269.559C341.904 270.919 345.176 271.705 347.108 270.365C347.844 269.853 348.002 268.657 347.108 268.18C346.139 267.663 345.268 267.61 344.269 267.6L343.566 267.595C343.075 267.59 342.586 267.557 342.098 267.524C341.306 267.471 340.515 267.417 339.719 267.483C339.603 267.493 339.494 267.525 339.396 267.574L339.378 267.517C339.219 267.024 339.058 266.527 338.944 266.02C339.813 265.828 340.648 265.512 341.448 265.038C341.844 264.8 342.219 264.284 342.16 263.793C341.935 261.933 340.172 262.395 338.651 262.794C338.107 262.936 337.594 263.071 337.194 263.088L337.117 263.093C336.28 263.162 335.622 263.812 335.605 264.673C335.584 265.655 335.77 266.581 336.054 267.521C336.108 267.698 336.182 267.896 336.26 268.107L336.262 268.111L336.262 268.112C336.536 268.846 336.867 269.732 336.625 270.379C335.931 272.21 332.848 271.856 331.498 271.277C327.143 269.418 326.821 264.173 328.229 260.244L328.317 260.005C329.11 257.933 330.425 255.773 332.512 254.801C334.44 253.906 336.714 254.02 338.801 254.255L339.333 254.317C341.837 254.619 344.344 255.127 346.792 255.748C347.16 255.841 347.526 255.936 347.892 256.031L347.893 256.032C349.824 256.535 351.743 257.035 353.75 257.109C353.803 257.112 353.848 257.091 353.884 257.063C354.645 258.939 355.094 260.924 355.16 262.965C355.266 266.178 354.294 269.204 353.116 272.15C352.886 272.724 352.653 273.294 352.421 273.864L352.419 273.869L352.416 273.875C351.44 276.266 350.469 278.646 349.787 281.149C348.949 284.211 348.412 287.364 348.069 290.517C347.673 294.119 347.574 297.748 347.62 301.368C347.645 303.297 347.704 305.222 347.802 307.147L347.811 307.34C347.825 307.647 347.833 307.959 347.841 308.273C347.879 309.73 347.919 311.231 348.472 312.559C348.518 312.671 348.581 312.773 348.655 312.864C348.459 312.888 348.264 312.912 348.068 312.934L346.179 313.142C343.558 313.421 340.928 313.627 338.295 313.723C335.57 313.821 332.761 313.797 330.06 313.418C328.103 313.144 326.273 312.629 324.431 312.061C325.29 310.236 324.712 307.94 324.205 305.921L324.178 305.814C324.14 305.664 324.103 305.515 324.067 305.369L323.899 304.674C323.215 301.891 322.335 299.164 321.152 296.549C319.911 293.803 318.392 291.278 316.614 288.844L316.43 288.59L315.742 287.646C314.695 286.218 313.544 284.732 312.199 283.629C311.806 282.871 311.455 282.082 311.108 281.297C309.968 278.695 309.032 275.994 308.169 273.29C307.633 271.607 307.121 269.895 306.665 268.163C305.448 263.491 304.669 258.673 305.051 253.868ZM329.401 240.443C326.683 240.443 324.116 241.33 322.061 243.747C322.794 244.445 323.379 245.255 323.702 246.205C324.709 245.655 325.775 245.224 326.865 244.918C330.194 243.989 334.746 244.003 337.544 246.286C339.01 247.478 337.401 249.618 335.822 249.249C335.323 249.133 334.847 248.981 334.374 248.831C333.509 248.556 332.657 248.285 331.698 248.239C330.411 248.176 329.148 248.345 327.914 248.716C326.031 249.285 324.319 250.361 323.06 251.845C322.639 252.343 322.271 252.883 321.962 253.465C319.613 257.926 321.384 264.323 324.628 267.995C323.355 263.765 324.624 258.778 327.16 255.275C330.213 251.057 334.778 250.578 339.588 251.237L339.747 251.259C344.401 251.915 350.163 253.061 353.642 256.481C353.295 255.692 352.895 254.927 352.445 254.187C349.809 249.846 345.435 246.458 340.897 244.041C340.136 243.631 339.368 243.252 338.603 242.902C335.696 241.565 332.456 240.443 329.401 240.443ZM330.877 207.358L330.888 207.308C331.021 207.347 331.137 207.432 331.235 207.561C331.684 208.126 332.08 208.655 332.448 209.286C335.105 213.855 336.133 218.973 337.159 224.082C337.198 224.278 337.238 224.475 337.277 224.672L337.471 225.626C338.003 228.225 338.389 230.848 338.775 233.472C339.101 235.688 339.427 237.905 339.841 240.107C339.119 239.798 338.393 239.507 337.663 239.23C335.629 238.465 333.392 237.746 331.155 237.532C331.615 236.133 331.795 234.574 331.961 233.131C332.005 232.752 332.047 232.381 332.094 232.023L332.151 231.572C332.532 228.412 332.598 225.12 332.427 221.947C332.298 219.511 331.972 217.088 331.646 214.668C331.531 213.809 331.415 212.95 331.309 212.092L331.282 211.888C331.237 211.552 331.182 211.205 331.126 210.852C330.941 209.695 330.747 208.479 330.87 207.386L330.877 207.358Z" fill="black"/>
<path fill-rule="evenodd" clip-rule="evenodd" d="M215.362 89.9617C235.233 89.9617 260.884 102.453 263.071 115.247C265.649 130.323 279.451 188.175 276.335 206.727C273.218 225.279 256.422 238.634 229.545 238.634C202.668 238.634 182.607 223.946 178.001 218.903C173.395 213.86 164.859 195.854 164.859 195.854C164.859 195.854 150.469 193.936 150.4 182.181C150.332 170.426 159.756 166.149 159.756 166.149C159.756 166.149 156.396 119.758 164.859 107.68C173.322 95.602 195.491 89.9617 215.362 89.9617Z" fill="#D08B5B"/>
<path fill-rule="evenodd" clip-rule="evenodd" d="M261.855 113.182C261.84 112.913 262.232 112.881 262.306 113.12C266.593 127.313 269.236 138.373 272.018 152.925L272.839 157.205C275.035 168.622 277.253 180.055 279.126 191.527L279.236 192.212C280.174 198.15 280.715 204.146 279.539 210.097C278.44 215.659 275.437 220.758 271.538 224.819C264.004 232.668 253.532 237.571 242.999 239.763C237.672 240.871 232.178 241.299 226.75 240.913C224.044 240.723 221.343 240.341 218.694 239.777L218.401 239.714C215.731 239.136 213.361 238.447 211.942 235.929C211.586 235.295 211.729 234.208 212.478 233.881C213.892 233.271 214.931 233.015 216.474 233.191C217.948 233.359 219.387 233.804 220.842 234.081C223.625 234.611 226.452 234.877 229.284 234.941C234.844 235.063 240.419 234.365 245.735 232.703C254.869 229.845 264.151 224.377 269.488 216.199C275.766 206.578 273.266 194.902 271.602 184.277L271.552 183.955C269.868 173.095 268.203 162.235 266.586 151.368L265.897 146.71C264.084 134.404 262.373 125.619 261.855 113.182ZM169.117 83.0607C173.676 80.0496 179.341 79.3097 184.696 79.3512L185.366 79.3597C192.222 79.4644 226.735 80.2875 238.29 80.5407L241.039 80.5988C244.677 80.6676 252.015 80.7394 255.796 80.8086L256.014 80.8127C257.869 80.8478 259.724 80.8618 261.578 80.9214L261.85 80.9312C263.24 80.9907 264.396 81.199 265.484 82.1804C266.037 82.6779 266.253 83.4365 266.203 84.1591L266.194 84.2531L268.949 84.4951C270.819 84.6608 271.808 86.3417 271.065 88.0426L271.027 88.1249C269.708 90.9446 268.7 99.1511 267.993 102.185C267.622 103.78 267.324 105.401 267.149 107.031C267.01 108.315 266.996 109.602 266.282 110.731C264.759 113.141 260.476 113.12 260.399 109.707C260.396 109.599 260.399 109.493 260.41 109.392C249.631 108.918 234.915 108.964 224.15 109.609C214.095 110.212 204.086 111.58 194.234 113.674C191.739 114.203 189.251 114.782 186.78 115.41C184.754 115.922 182.266 116.227 180.453 117.325C178.423 118.559 178.462 120.772 178.682 122.88C178.919 125.114 179.313 123.963 179.872 125.999L179.907 126.127C180.484 128.337 181.198 130.522 182.143 132.598C182.682 133.783 183.55 134.923 183.221 136.287C183.036 137.055 182.43 137.876 181.874 138.413C179.34 140.85 175.056 139.296 173.335 142.635C171.533 146.126 171.488 150.856 171.335 154.719L171.326 154.945C171.214 157.607 171.245 160.276 171.42 162.93C171.578 165.35 172.221 167.746 171.396 170.071C170.793 171.761 168.827 171.919 167.798 170.544C167.68 170.386 167.572 170.225 167.47 170.062L167.371 169.899L167.364 169.902C167.462 170.057 167.553 170.215 167.641 170.376C167.735 170.555 167.501 170.751 167.357 170.597C164.935 167.956 161.397 168.482 158.657 170.33C155.882 172.21 154.786 175.78 154.643 178.983C154.482 182.534 154.797 186.698 156.274 189.98C156.897 191.369 157.785 192.646 159.259 193.175C159.928 193.414 160.564 193.382 161.261 193.438C161.985 193.494 162.857 193.859 163.56 193.81C164.474 193.745 165.294 194.791 165.035 195.667L165.016 195.725C165.002 195.767 164.988 195.809 164.974 195.848C165.009 195.879 165.044 195.918 165.068 195.974C167.728 201.42 171.375 206.267 175.406 210.763C177.426 213.011 179.665 215.077 182.007 216.988C183.162 217.932 184.379 218.875 185.664 219.636C186.091 219.885 186.482 220.053 186.963 220.19C187.186 220.253 187.442 220.285 187.659 220.358L187.884 220.436C187.899 220.441 187.914 220.445 187.928 220.45C188.572 220.523 189.114 220.951 189.328 221.621C189.884 223.367 188.873 224.911 187.144 225.391C185.271 225.916 183.506 224.994 182.021 223.936L181.923 223.865C178.895 221.681 176.106 219.229 173.692 216.367C168.914 210.718 165.922 204.177 164.537 196.942C164.193 197.682 163.731 198.327 162.93 198.776C161.684 199.477 160.197 199.477 158.832 199.242C156.085 198.776 153.743 197.096 152.179 194.824C150.555 192.467 149.95 189.605 149.582 186.817C149.218 184.025 149.04 181.223 149.404 178.425C149.926 174.405 151.609 170.432 154.881 168.23C152.431 162.881 152.001 156.884 152.176 151.027C152.389 143.817 153.631 136.526 154.587 129.382L157.303 109.073L157.414 108.254C158.07 103.476 158.867 98.6729 160.652 94.1711C162.412 89.7346 165.086 85.7226 169.117 83.0607ZM157.688 179.14C162.174 176.958 167.021 178.968 169.436 183.201C171.535 186.881 165.293 189.314 164.251 185.52L164.221 185.403C163.535 182.531 160.742 180.048 157.827 179.662C157.586 179.628 157.407 179.277 157.688 179.14Z" fill="black"/>
<path fill-rule="evenodd" clip-rule="evenodd" d="M231.233 215.31C231.233 215.31 236.202 219.146 245.469 219.146C254.735 219.146 260.118 215.714 260.118 215.714C260.118 215.714 251.995 210.78 245.469 210.381C238.942 209.981 231.233 215.31 231.233 215.31Z" fill="#FF6C6C"/>
<path fill-rule="evenodd" clip-rule="evenodd" d="M220.186 205.558C220.222 201.694 223.571 201.027 226.752 201.543C232.137 202.414 237.542 203.027 243 203.137L243.941 203.154C244.092 202.933 244.345 202.765 244.689 202.728C247.715 202.401 250.805 202.454 253.847 202.365C256.501 202.287 259.228 202.021 261.882 202.23L262.093 202.248C265.336 202.562 268.758 204.217 268.367 208.023C268.006 211.547 264.637 214.667 261.947 216.626C261.403 217.018 260.847 217.386 260.275 217.721C260.095 217.95 259.833 218.11 259.531 218.142C256.881 219.573 253.958 220.42 250.932 220.702C244.517 221.299 237.059 220.653 230.898 217.873C228.895 216.969 227.026 215.84 225.374 214.454C222.827 212.316 220.157 209.074 220.186 205.558ZM245.812 212.518C243.24 212.441 240.673 212.8 238.224 213.594C236.564 214.129 235.051 215.159 233.46 215.875C238.82 217.919 245.048 218.365 250.547 217.993C252.959 217.83 255.298 217.273 257.477 216.317C257.138 216.072 256.794 215.822 256.434 215.605C255.347 214.947 254.21 214.387 253.024 213.941C250.715 213.074 248.278 212.596 245.812 212.518ZM246.324 179.429C245.63 178.931 246.18 177.282 247.663 177.537C261.129 179.85 254.152 203.046 236.959 190.317C234.912 188.666 237.391 185.029 239.597 186.443L240.38 187.047C242.927 188.999 247.14 191.95 250.158 188.783C253.007 184.793 248.972 181.039 246.324 179.429ZM255.44 161.874C258.303 159.431 261.893 161.231 264 163.705L264.372 164.147C264.793 164.652 265.26 165.24 265.541 165.868C267.876 163.88 271.043 162.48 274.073 163.389C277.012 164.273 278.688 167.079 278.184 170.091C277.611 173.516 275.019 175.818 272.234 177.599L271.445 178.1C268.098 180.234 264.967 182.383 262.213 185.315C261.763 185.792 260.792 185.729 260.498 185.094L260.26 184.584L260.021 184.073C258.067 179.907 255.973 175.769 254.255 171.504C252.982 168.344 252.568 164.322 255.44 161.874ZM223.245 163.582C225.343 161.141 228.895 159.506 231.698 161.874C234.682 164.395 234.096 168.565 232.767 171.781C231.166 175.66 229.297 179.453 227.501 183.258L227.117 184.073C226.956 184.413 226.798 184.754 226.641 185.094C226.346 185.729 225.371 185.792 224.925 185.315C222.257 182.474 219.237 180.372 216.013 178.306L215.039 177.687C212.209 175.891 209.533 173.573 208.951 170.091C208.453 167.085 210.118 164.262 213.061 163.388C216.098 162.487 219.258 163.876 221.597 165.868C221.876 165.224 222.356 164.617 222.809 164.086L223.245 163.582ZM226.646 146.574C227.671 147.904 226.577 150.078 225.081 150.421C223.229 150.847 221.357 150.588 219.539 151.117C217.872 151.601 216.276 152.572 214.847 153.539C213.218 154.641 211.718 155.872 210.339 157.275C209.519 158.109 208.486 160.086 207.222 160.123C205.964 160.159 207.652 156.228 207.791 155.887C208.783 153.466 210.176 151.237 211.918 149.285C215.355 145.434 222.634 141.369 226.646 146.574ZM265.032 145.51L265.89 145.748C268.013 146.339 270.28 147.064 272.101 148.337L272.244 148.438L272.465 148.599C274.752 150.304 277.986 153.706 276.366 156.674C276.255 156.878 276.018 156.898 275.827 156.815C273.672 155.871 272.075 153.987 269.783 153.198L269.36 153.054C267.14 152.307 264.394 151.52 262.005 151.592C260.325 152.138 258.057 151.686 257.619 149.641L257.6 149.541L257.562 149.329C257.31 147.932 257.684 146.15 259.129 145.477C261.108 144.555 263.039 144.965 265.032 145.51Z" fill="black"/>
</svg>
