<svg width="445" height="565" viewBox="0 0 445 565" fill="none" xmlns="http://www.w3.org/2000/svg">
<path fill-rule="evenodd" clip-rule="evenodd" d="M128.982 315.574C132.383 314.434 135.661 313.117 138.647 311.18C147.257 305.154 152.87 296.087 158.174 287.495C165.646 275 170.968 261.685 174.648 247.795C176.229 241.827 176.766 234.908 180.358 229.617C188.501 218.538 212.378 219.974 225.057 221.918C233.547 223.331 235.302 232.265 237.23 238.876C238.836 244.369 239.887 249.925 240.77 255.554C242.869 256.852 245.238 257.906 247.497 258.824C272.115 265.922 276.441 279.08 285.844 299.407C301.725 328.95 344.818 340.518 351.327 375.482C355.521 398.565 343.595 420.281 331.299 439.471C319.848 460.432 303.861 470.492 278.402 465.54C254.522 460.503 231.573 452.077 208.113 445.567C196.751 442.94 185.407 436.108 173.455 438.49C148.827 443.69 123.523 446.135 98.2845 445.46C62.8484 446.808 62.8539 414.828 66.491 390.063C69.0385 351.522 89.7126 326.775 128.982 315.574Z" fill="#FDEA6B"/>
<path fill-rule="evenodd" clip-rule="evenodd" d="M126.613 371.342C123.652 373.183 121.161 375.975 119.162 378.913C127.508 378.096 135.84 377.155 144.154 376.083C143.065 375.429 141.967 374.79 140.843 374.186C136.744 372.014 131.19 368.496 126.613 371.342ZM265.283 394.54C266.812 393.977 267.404 391.785 268 390.528C269.869 386.587 271.574 382.578 273.349 378.599C266.611 376.793 260.059 374.789 253.079 373.827C245.575 372.793 237.959 372.542 230.385 372.775C215.043 373.245 199.844 375.603 184.761 378.131C169.695 380.656 154.631 383.082 139.46 384.985C124.596 386.851 109.686 388.216 94.7475 389.414C91.8452 389.647 87.0058 390.628 84.6717 388.481C82.8236 386.78 82.7637 383.643 85.0762 382.26C86.5166 381.398 88.6036 381.385 90.2493 381.187C92.3217 380.936 94.4025 380.769 96.4875 380.639C97.3369 380.586 98.1864 380.538 99.0362 380.489C92.2152 378.071 85.0911 376.752 77.6964 377.12C77.2781 379.509 75.394 381.966 74.3629 383.936C72.5621 387.376 71.1585 390.857 70.237 394.596C68.311 402.414 68.2272 410.527 68.7712 418.499C69.2709 425.147 70.3443 432.5 75.8898 437.208C80.0884 440.772 86.0122 442.092 91.5079 442.507C97.8954 442.99 104.382 442.474 110.715 441.669C119.599 440.54 128.524 439.046 137.233 437.045C154.101 433.168 170.269 426.999 185.186 418.636C192.46 414.557 199.402 409.969 206.776 406.046C214.29 402.047 222.286 398.946 230.681 397.02C240.077 394.865 249.899 393.945 259.556 394.476C261.232 394.568 263.653 395.14 265.283 394.54ZM276.171 390.538C275.183 393.551 274.428 396.991 272.321 399.522C270.233 402.03 267.084 402.916 263.822 403.139C259.888 403.407 255.909 403.235 251.966 403.373C243.881 403.655 235.907 404.89 228.178 407.155C220.975 409.266 214.289 412.559 207.848 416.212C201.892 419.59 196.111 423.217 190.153 426.585C191.739 427.268 193.306 428.008 194.883 428.652C198.189 430.002 201.515 431.304 204.857 432.574C211.446 435.078 218.063 437.521 224.747 439.791C238.227 444.368 251.927 448.367 265.793 451.773C272.406 453.398 279.113 455.295 285.983 455.566C292.075 455.805 297.718 454.186 302.632 450.78C312.823 443.716 320.931 433.519 327.485 423.461C331.379 417.486 334.777 411.207 337.588 404.716C339.009 401.433 340.299 398.099 341.459 394.727C342.003 393.144 342.52 391.551 343.008 389.952C343.223 389.248 343.429 388.543 343.633 387.837C333.213 384.846 322.668 382.147 311.876 380.649C306.114 379.849 300.275 379.444 294.45 379.503C291.559 379.532 288.669 379.679 285.793 379.959C284.244 380.11 282.703 380.305 281.167 380.545C280.533 380.644 279.881 380.791 279.227 380.899C278.228 384.118 277.221 387.334 276.171 390.538ZM60.7585 377.741C60.1968 376.672 59.9599 375.621 59.7586 374.458C59.6051 373.571 59.1978 372.323 59.5546 371.171C59.954 369.881 61.0424 368.727 61.8237 367.627C62.6864 366.411 63.5484 365.194 64.4092 363.977C66.1312 361.542 67.8493 359.106 69.5646 356.667C76.5697 346.71 83.5269 336.723 90.4952 326.743C96.679 317.887 102.759 308.951 109.131 300.213C114.58 292.741 120.519 285.393 127.977 279.582C137.407 272.235 148.636 268.774 160.364 266.073C161.646 264.823 163.357 264.14 165.185 264.279C167.769 261.523 169.823 259.599 170.754 256.094C171.2 254.416 171.06 249.7 172.799 248.707C174.864 247.527 175.942 249.089 176.512 250.848C178.417 256.737 176.23 264.653 171.198 270.551C173.318 277.441 176.129 287.234 181.144 292.754C186.514 298.664 193.94 300.504 201.953 300.625C217.234 300.856 232.498 295.516 244.153 286.262C247.696 283.449 250.986 280.308 253.963 276.967C256.196 274.46 258.837 270.592 260.583 267.668C260.583 266.528 262.014 265.337 247.448 264.416C232.882 263.496 231.778 244.742 231.454 242.19C231.191 240.118 230.071 236.901 231.624 235.211C232.284 234.493 233.636 234.377 234.472 234.865C236.048 235.785 236.566 238.138 237.061 239.736C237.755 241.975 240.024 255.867 244.323 257.476C246.335 258.229 248.643 258.243 250.772 258.382C253.401 258.555 256.036 258.681 258.654 258.969C259.62 259.075 260.674 259.368 261.626 259.377C262.246 259.382 262.886 259.099 263.485 258.9C265.507 258.228 267.528 258.733 269.612 258.996C288.032 261.323 306.999 266.636 322.711 276.195C336.56 284.621 346.317 296.738 352.755 310.904C359.324 325.362 363.089 340.997 366.244 356.388C367.301 361.545 368.224 366.725 369.017 371.924C369.784 376.947 370.742 382.082 370.972 387.156C371.063 389.164 370.552 391.029 369.767 392.863C368.883 394.927 366.793 395.741 364.788 396.705C360.387 398.821 355.745 400.463 350.962 401.625C348.04 406.624 345.581 411.817 343.605 417.207C344.338 418.573 344.353 420.612 344.494 421.94C344.844 425.245 344.994 428.568 345.025 431.889C345.088 438.545 344.662 445.195 344.329 451.84C343.99 458.58 342.865 485.174 342.682 488.422C342.54 490.945 342.731 494.474 341.318 496.713C339.146 500.156 333.785 500.04 331.303 497.249C269.612 509.719 153.65 505.963 106.947 499.689C100.87 498.872 102.778 499.778 101.233 498.334C100.073 497.25 99.0864 495.394 98.7656 493.902C98.3372 491.911 99.0288 490.108 100.241 488.497C101.516 486.803 101.748 484.06 102.222 482.046C103.341 477.284 103.898 456.371 104.421 454.054C104.584 453.332 104.742 452.569 104.932 451.805C96.3653 452.568 87.4389 452.568 79.2888 449.874C74.6671 448.346 70.3569 445.946 67.039 442.52C63.0217 438.371 60.7867 433.148 59.6372 427.696C58.1541 420.666 57.8393 413.384 58.1306 406.237C58.5356 397.791 60.0253 389.226 63.7231 381.472C62.5063 380.409 61.4865 379.127 60.7585 377.741Z" fill="#FDEA6B"/>
<path fill-rule="evenodd" clip-rule="evenodd" d="M139.838 159.104C141.289 148.196 145.845 136.615 150.638 126.446C161.414 104.946 186.084 101.986 208.2 97.5528C230.024 94.559 253.134 91.8557 274.629 97.829C286.713 100.618 291.433 114.179 289.525 124.881C288.437 131.549 285.216 137.86 282.469 144.041C277.009 156.732 273.545 170.32 273.539 184.061C273.914 193.041 275.259 203.291 264.307 207.094C253.885 211.978 253.005 225.215 239.956 232.726C234.679 242.797 220.306 243.683 209.961 246.019C203.422 247.198 196.81 248.066 190.18 248.627C170.981 250.945 155.622 245.703 145.573 229.588C138.847 219.781 133.839 208.457 135.076 196.571C136.309 184.054 138.362 171.603 139.838 159.104Z" fill="#FDEA6B"/>
<path fill-rule="evenodd" clip-rule="evenodd" d="M208.034 71.4234C206.938 70.2531 205.25 70.6545 204.226 71.5799C203.558 71.7651 202.912 72.0406 202.302 72.4051C200.922 72.2383 199.476 72.2383 198.123 72.2851C197.794 72.1116 197.443 71.9573 197.06 71.8248C194.324 70.8825 191.902 71.3612 189.903 72.6228C188.941 71.7648 187.727 71.2264 186.174 71.3078C184.789 71.3807 183.802 71.9949 182.956 72.8039C182.112 71.6576 180.748 70.8397 179.049 70.7259C176.674 70.5669 174.391 71.4643 172.499 72.8536C171.396 71.662 169.893 70.9771 168.218 70.9705C167.116 70.7819 165.953 70.8563 164.902 71.1553C163.376 71.5895 162.037 72.4029 160.97 73.4587C159.282 71.9356 157.216 70.8397 154.834 70.9996C151.75 71.2095 149.194 73.3456 148.006 75.9749C145.919 76.7625 143.993 77.886 142.383 79.4879C142.297 79.5722 142.215 79.6606 142.129 79.7493C141.261 80.0509 140.444 80.4784 139.725 81.0415C137.447 82.8278 136.939 85.4129 137.693 87.946C137.587 88.3514 137.498 88.7639 137.415 89.1759C135.282 89.4816 133.343 90.6419 132.241 92.531C130.733 95.1234 131.03 98.5403 132.663 101.015C133.366 102.08 134.257 102.977 135.258 103.761C134.126 106.184 134.669 109.076 136.495 111.035C136.939 111.711 137.485 112.321 138.1 112.873C137.422 115.378 138.628 117.963 141.035 119.301L141.241 119.787C141.276 119.868 141.311 119.948 141.347 120.027C141.374 120.131 141.406 120.23 141.439 120.331C141.496 121.22 141.807 122.092 142.424 122.914C143.686 124.599 145.251 125.697 146.081 127.663L146.164 127.87C146.521 128.8 147.673 129.457 148.655 129.17C143.204 139.717 140.347 151.452 138.385 162.953C137.406 168.691 136.651 174.448 136.039 180.228L135.439 185.983C134.911 191.099 134.441 196.231 134.438 201.364C134.43 212.975 137.955 224.144 145.521 233.383C152.676 242.117 162.802 248.447 174.241 250.94C186.051 253.511 199.905 252.498 210.496 246.614C213.618 244.883 210.882 240.722 207.705 242.114C201.691 244.751 195.579 246.71 188.912 247.148C182.412 247.578 175.898 246.812 169.735 244.809C159.539 241.492 150.863 234.543 145.286 225.889C142.539 221.625 140.55 216.996 139.491 212.106C138.172 206.01 138.371 199.71 138.855 193.537L138.889 193.116C139.846 181.221 141.109 169.254 143.149 157.478C144.952 147.064 147.724 136.862 151.324 126.885C152.734 125.715 154.311 124.748 155.999 124.013C168.359 123.526 180.741 123.668 193.085 124.472C203.613 125.162 214.089 126.328 224.486 128.029L225.6 128.213C227.902 128.6 230.458 128.821 232.627 129.694C234.487 130.445 235.241 131.889 235.71 133.663C236.89 138.152 237.07 143.065 237.269 147.668C237.465 152.167 237.023 156.704 237.406 161.189C237.731 164.941 238.751 168.782 241.701 171.496C243.245 172.918 245.144 173.695 246.926 174.773C248.079 175.47 248.568 176.188 248.419 177.476C248.099 180.297 245.687 183.851 248.396 186.266C248.872 186.69 249.697 186.745 250.166 186.266C251.284 185.121 252.827 184.248 254.152 183.324C254.707 182.941 254.246 182.198 253.617 182.462C252.788 182.813 251.944 183.225 251.08 183.586C252.987 182.106 255.7 181.38 257.958 180.949C259.096 180.735 260.292 180.673 261.476 180.772C262.351 181.166 263.246 181.531 264.141 181.888C265.278 182.338 266.427 182.746 267.584 183.133C271.597 186.215 273.512 191.227 272.676 196.128C272.219 198.834 270.894 201.777 268.397 203.357C265.438 205.227 261.476 204.424 258.279 205.813C255.285 207.112 253.464 209.738 252.1 212.456L251.532 213.587C250.266 216.092 248.965 218.531 247.235 220.811C245.234 223.451 242.784 225.823 240.111 227.859C238.814 228.845 237.432 229.732 236.003 230.539L235.612 230.757C234.166 231.557 233.131 232.318 233.033 234.009C233.002 234.598 233.397 235.135 233.905 235.441C236.093 236.748 238.27 235.113 240.091 233.972C242.057 232.742 243.936 231.358 245.676 229.848C248.982 226.983 251.842 223.58 254.043 219.887C255.719 217.074 256.673 213.115 259.322 210.935C260.94 209.605 263.227 209.595 265.247 209.351C267.127 209.123 268.905 208.755 270.577 207.882C277.381 204.321 279.304 195.701 277.69 189.039C277.417 187.916 277.034 186.822 276.561 185.769C279.093 186.167 281.938 183.7 280.91 181.21C280.832 181.023 280.742 180.846 280.656 180.665C282.325 179.631 283.642 178.062 284.267 176.011C284.588 174.95 284.635 173.879 284.467 172.844C285.276 172.332 285.944 171.629 286.374 170.763C287.718 170.178 288.91 169.302 289.621 168.05C290.606 166.322 290.481 164.732 289.731 163.299C289.836 163.119 289.938 162.935 290.036 162.747C292.791 161.101 294.713 158.265 294.495 155.12C294.424 154.078 294.151 153.139 293.729 152.293C293.764 152.186 293.799 152.075 293.83 151.968C296.136 150.864 298.043 149.049 298.723 146.626C299.403 144.187 298.602 141.757 297 139.886C299.344 138.27 300.755 136.013 299.899 132.599C299.552 131.211 298.852 129.948 297.906 128.883C297.91 128.851 297.918 128.817 297.926 128.784L298.145 128.624C301.04 126.471 302.704 123.728 300.927 120.355C300.13 118.838 298.993 117.781 297.656 117.085L297.59 116.886C298.547 114.953 298.872 112.806 298.211 110.549C297.672 108.689 296.394 107.209 294.76 106.226C294.87 105.393 294.854 104.506 294.678 103.545C294.385 101.921 293.529 100.503 292.279 99.4981C292.232 99.2841 292.173 99.0746 292.107 98.8643C291.685 97.5795 290.895 96.1839 289.981 95.1488C289.227 94.2908 288.382 93.9778 287.351 93.9446C287.413 93.1533 287.37 92.3502 287.198 91.5363C286.671 89.0253 284.975 86.6645 282.462 85.5929C281.43 85.1547 280.344 85.0262 279.296 85.1326C278.405 83.3651 276.666 82.084 274.529 81.8078C273.696 81.6973 272.922 81.7043 272.211 81.8041C271.809 81.627 271.39 81.469 270.953 81.325C270.663 81.2293 270.37 81.1409 270.077 81.0529C269.089 79.8966 267.787 78.972 266.267 78.4163C264.512 77.7719 262.726 77.8378 261.144 78.3791L260.639 78.2797C259.85 76.9908 258.592 75.9929 256.657 75.54C254.461 75.0281 252.206 75.7425 250.479 77.0428C250.471 77.0428 250.463 77.0428 250.451 77.0387C249.548 75.1349 248.005 73.8092 245.414 73.9013C243.8 73.9602 242.342 74.7155 241.217 75.7907C240.591 75.7167 239.966 75.6504 239.337 75.5845C238.672 74.8514 237.934 74.1668 237.117 73.5518C235.78 72.5425 234.041 72.6239 233.057 74.0449C232.842 74.3542 232.642 74.6672 232.443 74.9802L231.54 74.9213C230.477 73.5699 229.027 72.6566 227.042 72.5834C225.221 72.513 223.924 73.353 222.935 74.5273C222.13 74.5089 221.321 74.4945 220.512 74.4831C219.57 73.4557 218.46 72.5498 217.194 71.7986C216.225 71.2242 214.794 71.4197 214.009 72.1857C213.478 72.7063 212.984 73.2499 212.525 73.8125C211.341 72.562 209.742 71.7382 208.034 71.4234ZM265.552 188.358C263.727 187.378 261.272 188.439 259.506 189.271C257.353 190.284 255.215 191.812 253.898 193.727C252.104 196.334 256.321 198.44 258.209 196.102C259.369 194.662 260.295 193.211 261.702 191.952C262.988 190.796 264.852 190.022 265.591 188.498C265.618 188.446 265.61 188.387 265.552 188.358ZM264.27 125.075L264.236 124.983C263.717 123.646 265.982 123.069 266.496 124.396C267.276 126.407 266.377 128.593 264.269 129.461C263.685 129.702 263.017 129.619 262.665 129.065C262.37 128.599 262.507 127.792 263.086 127.554C264.272 127.065 264.669 126.202 264.27 125.075ZM283.783 121.335C282.649 120.392 284.313 118.834 285.441 119.773C286.494 120.648 287.275 121.838 287.072 123.206C286.865 124.6 285.75 125.584 284.528 126.28C283.234 127.018 282.054 125.108 283.345 124.372L283.49 124.288C284.032 123.971 284.666 123.535 284.758 122.912C284.855 122.249 284.26 121.731 283.783 121.335ZM277.348 104.701L277.267 104.645C276.049 103.826 277.219 101.909 278.451 102.737C279.58 103.497 280.486 104.484 280.582 105.845C280.674 107.167 279.96 108.314 279.026 109.245C277.987 110.28 276.33 108.716 277.368 107.683C278.378 106.676 278.576 105.577 277.348 104.701Z" fill="#FDEA6B"/>
<path fill-rule="evenodd" clip-rule="evenodd" d="M179.638 223.495C182.27 222.485 184.619 220.801 186.337 218.649C186.934 217.901 187.088 217.111 186.963 216.388C186.822 215.576 186.311 214.84 185.614 214.346C184.915 213.85 184.04 213.606 183.195 213.731C182.46 213.839 181.728 214.217 181.149 215.002L181.028 215.159C180.007 216.457 178.677 217.523 177.161 218.21C175.7 218.872 174.066 219.181 172.375 219.001C169.154 218.659 166.934 217.021 164.575 214.797C164.282 214.517 163.99 214.227 163.696 213.933C163.51 213.666 163.252 213.495 162.966 213.405C162.648 213.305 162.289 213.31 161.96 213.418C161.642 213.523 161.358 213.72 161.168 213.983C160.987 214.232 160.885 214.541 160.918 214.896C161.134 217.201 162.415 219.258 164.236 220.873C166.258 222.667 168.938 223.908 171.461 224.343C174.24 224.822 177.073 224.479 179.638 223.495ZM170.149 187.938C167.192 189.628 162.686 193.57 165.867 197.76C169.612 201.455 175.004 197.218 177.661 195.302C180.125 193.818 182.893 197.637 180.607 199.37C161.408 212.736 153.616 188.38 168.654 185.951C170.309 185.683 170.924 187.415 170.149 187.938ZM204.554 172.391C204.228 168.577 198.051 167.711 197.436 171.485C196.886 174.865 197.534 177.971 199.153 181.014C200.7 183.922 204.589 182.565 204.884 179.918C205.278 176.369 204.758 174.763 204.554 172.391ZM157.534 170.702C156.673 169.642 155.429 168.918 153.94 169.327C149.285 170.606 150.657 176.819 152.292 179.844C153.18 181.486 156.051 181.902 157.348 180.456C159.463 178.098 160.476 173.389 157.787 171.066C157.714 170.946 157.633 170.825 157.534 170.702ZM199.219 155.704L198.483 155.583C196.209 155.213 193.381 154.857 191.772 156.577C190.918 157.488 190.625 159.183 191.772 160.056C193.789 161.591 196.02 160.996 198.438 161.126C200.431 161.234 202.346 161.544 204.265 162.06C208.476 163.191 211.907 165.257 215.503 167.526C215.975 167.823 216.457 167.256 216.232 166.841C214.156 163.017 210.132 159.876 206.103 157.962C203.952 156.94 201.598 156.092 199.219 155.704ZM161.777 153.991L161.214 154.099C155.09 155.303 147.134 157.707 144.234 163.363C144.123 164.163 144.24 164.334 144.335 164.446L144.367 164.483C144.445 164.579 144.507 164.711 144.876 164.82C144.978 164.797 145.082 164.773 145.186 164.747C146.515 164.419 147.567 163.968 148.585 163.5L149.689 162.988C150.97 162.398 152.262 161.829 153.632 161.409C156.554 160.512 159.56 159.881 162.612 159.544C163.274 159.471 163.911 159.261 164.414 158.901C164.891 158.56 165.255 158.087 165.421 157.458C165.637 156.645 165.575 156.029 165.111 155.295C164.762 154.744 164.262 154.362 163.689 154.142C163.104 153.919 162.439 153.866 161.777 153.991Z" fill="#FDEA6B"/>
<path fill-rule="evenodd" clip-rule="evenodd" d="M205.04 225.802C201.869 218.818 194.949 213.684 186.981 211.808C181.13 210.433 174.989 210.477 169.025 211.023C165.9 211.306 162.548 211.539 159.603 212.63C157.088 213.562 155.039 215.324 153.498 217.393C151.664 219.844 150.416 222.649 149.54 225.525C149.416 225.933 149.299 226.345 149.19 226.759C149.57 228.929 150.379 230.775 152.516 232.139C154.602 233.471 157.09 234.016 159.57 234.209C159.814 234.099 160.049 233.987 160.264 233.871C164.13 231.79 166.85 226.873 171.729 227.539C176.083 228.133 178.949 233.284 181.538 236.305C189.849 237.215 198.154 234.867 204.916 230.398C205.259 228.869 205.279 227.326 205.04 225.802ZM143.541 220.504C144.206 218.749 145.043 217.05 146.036 215.45C149.317 210.156 154.354 205.939 160.334 203.528C174.481 197.833 192.785 201.847 204.209 211.188C208.112 214.381 212.057 219.074 213.251 224.121C213.607 224.187 213.943 224.362 214.22 224.607C222.474 219.721 230.974 215.02 237.625 208.247C242.456 203.325 245.815 197.501 247.872 191.101C248.041 190.575 248.944 190.652 248.917 191.234C248.909 191.371 248.901 191.507 248.893 191.643C248.979 191.393 249.386 191.522 249.417 191.765C250.524 199.539 251.909 207.782 250.634 215.597C249.871 220.26 247.618 223.674 244.607 227.361C241.38 231.312 237.727 234.987 233.992 238.512C231.622 240.749 229.146 243.329 226.244 244.97C222.869 246.876 219.04 248.325 215.438 249.795C211.773 251.296 208.054 252.682 204.264 253.883C196.688 256.294 188.858 257.961 180.891 258.69C174.512 259.273 167.222 259.907 161.109 257.651C156.423 255.922 152.641 252.796 149.642 249.036C146.376 244.94 143.794 240.275 142.367 235.356C140.884 230.246 143.228 221.328 143.541 220.504Z" fill="#FDEA6B"/>
<path fill-rule="evenodd" clip-rule="evenodd" d="M124.673 159.902C124.996 159.851 125.318 159.804 125.641 159.759C125.893 159.625 126.188 159.521 126.532 159.459C127.318 159.272 128.097 159.145 128.876 159.077C140.05 156.713 165.9 160.07 166.967 169.036C170.525 170.153 173.604 169.153 177.728 169.252C180.868 156.914 235.141 158.655 237.751 166.094C237.761 166.091 237.771 166.089 237.781 166.086C240.289 165.356 243.986 165.532 246.857 165.417C252.986 165.296 259.122 165.81 265.12 167.025C276.349 168.703 291.676 170.668 283.866 183.854C283.864 183.856 283.863 183.859 283.861 183.861L283.86 183.86C282.514 185.157 280.229 184.112 280.144 182.356C282.77 176.109 276.839 175.359 272.276 173.564C260.922 169.728 249.362 169.197 237.618 170.383C236.735 171.361 235.394 172.214 233.977 172.66C226.125 173.886 230.263 179.362 225.3 180.159C226.212 199.249 201.562 209.67 187.28 197.12C181.578 191.878 180.218 184.112 178.896 177.112C178.197 176.965 177.753 176.605 177.493 176.13C175.812 174.551 174.756 173.094 171.431 172.66C168.106 172.227 165.547 173.097 165.201 173.363C165.114 173.528 165.02 173.694 164.911 173.86C164.759 174.107 164.552 174.304 164.317 174.459C167.6 193.469 151.905 205.491 136.06 195.632C129.175 189.542 127.721 180.219 127.433 171.897C126.5 171.368 125.909 170.342 126.232 169.051C126.677 167.273 125.633 165.733 123.97 164.959C121.81 163.955 122.192 160.288 124.673 159.902ZM192.757 168.92C194.724 168.514 195.564 171.365 193.59 171.773C192.193 172.062 191.009 172.724 190.209 173.846L190.125 173.968C189.051 175.575 186.337 174.092 187.418 172.475C188.634 170.656 190.524 169.382 192.757 168.92ZM135.154 167.153C135.847 166.693 136.896 167.034 137.299 167.683C137.742 168.398 137.451 169.193 136.802 169.661L136.736 169.707C136.14 170.101 135.56 170.809 135.487 171.534L135.481 171.624C135.403 173.522 132.267 173.531 132.346 171.624C132.422 169.759 133.571 168.201 135.154 167.153Z" fill="#FDEA6B"/>
<path fill-rule="evenodd" clip-rule="evenodd" d="M137.811 313.988C140.856 312.902 143.792 311.648 146.466 309.803C154.176 304.064 159.203 295.428 163.953 287.246C170.643 275.346 175.41 262.665 178.705 249.436C180.12 243.753 180.601 237.163 183.818 232.124C191.11 221.573 212.492 222.94 223.846 224.792C231.449 226.137 233.021 234.646 234.748 240.942C236.186 246.174 237.127 251.465 237.917 256.826C239.797 258.062 241.919 259.066 243.942 259.94C265.987 266.7 269.861 279.232 278.281 298.59C292.503 326.727 331.093 337.744 336.922 371.043C340.678 393.027 329.998 413.709 318.986 431.985C308.732 451.948 294.416 461.529 271.617 456.812C250.232 452.016 229.681 443.991 208.673 437.79C198.498 435.289 188.339 428.782 177.636 431.05C155.582 436.003 132.922 438.332 110.321 437.689C78.5876 438.972 78.5925 408.515 81.8495 384.929C84.1309 348.224 102.645 324.655 137.811 313.988Z" fill="#D08B5B"/>
<path fill-rule="evenodd" clip-rule="evenodd" d="M135.689 367.1C133.037 368.853 130.807 371.512 129.017 374.31C136.491 373.532 143.952 372.636 151.397 371.615C150.422 370.992 149.439 370.383 148.433 369.808C144.762 367.74 139.788 364.389 135.689 367.1ZM259.869 389.193C261.238 388.657 261.768 386.569 262.302 385.372C263.975 381.619 265.503 377.801 267.092 374.011C261.058 372.291 255.191 370.383 248.941 369.466C242.22 368.481 235.4 368.243 228.618 368.464C214.879 368.913 201.268 371.158 187.761 373.565C174.27 375.97 160.779 378.281 147.194 380.094C133.883 381.87 120.531 383.17 107.154 384.311C104.554 384.533 100.221 385.468 98.1306 383.423C96.4756 381.803 96.4219 378.815 98.4928 377.498C99.7827 376.677 101.652 376.665 103.125 376.476C104.981 376.237 106.845 376.078 108.712 375.954C109.472 375.904 110.233 375.858 110.994 375.812C104.886 373.509 98.5062 372.253 91.8842 372.603C91.5096 374.878 89.8224 377.218 88.899 379.095C87.2864 382.37 86.0295 385.685 85.2043 389.247C83.4795 396.692 83.4044 404.419 83.8916 412.012C84.3391 418.343 85.3004 425.346 90.2663 429.829C94.0262 433.224 99.331 434.481 104.252 434.876C109.972 435.336 115.781 434.845 121.453 434.079C129.408 433.003 137.401 431.58 145.2 429.674C160.305 425.982 174.784 420.107 188.142 412.142C194.656 408.257 200.872 403.888 207.476 400.151C214.205 396.343 221.365 393.389 228.883 391.555C237.297 389.502 246.093 388.626 254.74 389.133C256.241 389.22 258.409 389.765 259.869 389.193ZM269.619 385.382C268.735 388.251 268.058 391.527 266.171 393.938C264.302 396.327 261.482 397.17 258.56 397.382C255.038 397.638 251.474 397.474 247.944 397.605C240.704 397.874 233.562 399.05 226.641 401.208C220.191 403.218 214.203 406.354 208.435 409.833C203.102 413.05 197.925 416.505 192.59 419.712C194.01 420.363 195.413 421.067 196.825 421.68C199.786 422.966 202.765 424.206 205.757 425.416C211.657 427.801 217.583 430.128 223.569 432.289C235.64 436.648 247.909 440.457 260.326 443.701C266.248 445.248 272.254 447.055 278.406 447.313C283.862 447.541 288.915 445.999 293.315 442.755C302.441 436.027 309.702 426.316 315.571 416.737C319.058 411.046 322.101 405.067 324.618 398.884C325.891 395.758 327.046 392.583 328.085 389.371C328.572 387.863 329.035 386.347 329.472 384.823C329.665 384.153 329.849 383.481 330.032 382.809C320.7 379.961 311.257 377.39 301.593 375.963C296.433 375.201 291.204 374.816 285.988 374.872C283.399 374.899 280.811 375.039 278.235 375.306C276.849 375.45 275.468 375.635 274.094 375.865C273.525 375.959 272.941 376.099 272.356 376.201C271.461 379.267 270.559 382.33 269.619 385.382ZM76.7161 373.194C76.2132 372.177 76.001 371.176 75.8207 370.068C75.6833 369.223 75.3185 368.034 75.638 366.937C75.9957 365.708 76.9703 364.61 77.67 363.562C78.4426 362.404 79.2145 361.245 79.9854 360.086C81.5274 357.767 83.0659 355.446 84.6021 353.124C90.8751 343.641 97.1054 334.13 103.346 324.625C108.883 316.19 114.328 307.68 120.034 299.358C124.913 292.242 130.232 285.244 136.91 279.71C145.355 272.713 155.411 269.416 165.914 266.844C167.061 265.654 168.593 265.003 170.231 265.135C172.545 262.511 174.384 260.678 175.218 257.34C175.617 255.742 175.492 251.25 177.049 250.305C178.898 249.181 179.864 250.668 180.374 252.344C182.08 257.952 180.122 265.492 175.615 271.109C177.514 277.671 180.031 286.997 184.522 292.254C189.331 297.883 195.981 299.635 203.157 299.751C216.84 299.971 230.51 294.885 240.947 286.071C244.12 283.393 247.066 280.401 249.732 277.219C251.731 274.832 254.096 271.147 255.66 268.363C255.66 267.278 256.942 266.143 243.898 265.266C230.854 264.389 229.865 246.529 229.575 244.098C229.339 242.124 228.337 239.061 229.728 237.451C230.318 236.768 231.529 236.658 232.278 237.122C233.689 237.998 234.152 240.239 234.596 241.761C235.217 243.893 237.249 257.124 241.099 258.656C242.901 259.373 244.968 259.386 246.875 259.519C249.229 259.683 251.588 259.804 253.933 260.078C254.798 260.179 255.741 260.459 256.594 260.467C257.15 260.472 257.722 260.202 258.259 260.013C260.07 259.373 261.88 259.853 263.745 260.104C280.241 262.32 297.226 267.38 311.296 276.484C323.698 284.508 332.435 296.048 338.2 309.54C344.083 323.31 347.454 338.2 350.28 352.858C351.227 357.769 352.053 362.703 352.763 367.654C353.45 372.438 354.308 377.329 354.514 382.161C354.595 384.074 354.138 385.85 353.435 387.596C352.643 389.562 350.771 390.337 348.976 391.255C345.035 393.271 340.878 394.834 336.595 395.941C333.978 400.702 331.776 405.648 330.007 410.781C330.663 412.082 330.677 414.024 330.803 415.288C331.116 418.437 331.25 421.601 331.278 424.764C331.335 431.103 330.953 437.436 330.655 443.765C330.352 450.184 329.344 475.512 329.18 478.605C329.053 481.007 329.224 484.368 327.959 486.501C326.014 489.78 321.213 489.67 318.99 487.011C263.745 498.887 159.901 495.31 118.078 489.335C112.636 488.558 114.345 489.42 112.961 488.045C111.923 487.013 111.039 485.245 110.752 483.824C110.368 481.927 110.987 480.211 112.073 478.676C113.215 477.063 113.423 474.45 113.847 472.532C114.849 467.997 115.348 448.08 115.816 445.873C115.962 445.186 116.103 444.459 116.274 443.731C108.602 444.458 100.609 444.458 93.3101 441.892C89.1714 440.437 85.3115 438.152 82.3404 434.888C78.7428 430.937 76.7413 425.962 75.712 420.77C74.3839 414.075 74.1019 407.14 74.3629 400.334C74.7255 392.29 76.0595 384.133 79.3709 376.747C78.2813 375.735 77.368 374.515 76.7161 373.194Z" fill="black"/>
<path fill-rule="evenodd" clip-rule="evenodd" d="M147.532 164.969C148.831 154.581 152.912 143.551 157.203 133.866C166.853 113.39 188.946 110.571 208.751 106.349C228.294 103.498 248.989 100.923 268.238 106.612C279.059 109.269 283.286 122.184 281.578 132.376C280.603 138.727 277.719 144.737 275.259 150.623C270.369 162.711 267.267 175.651 267.262 188.738C267.598 197.291 268.802 207.052 258.995 210.674C249.662 215.325 248.874 227.932 237.188 235.085C232.463 244.677 219.592 245.521 210.328 247.746C204.472 248.869 198.551 249.695 192.613 250.229C175.421 252.437 161.667 247.445 152.668 232.097C146.645 222.757 142.16 211.972 143.268 200.652C144.372 188.731 146.21 176.873 147.532 164.969Z" fill="#D08B5B"/>
<path fill-rule="evenodd" clip-rule="evenodd" d="M208.602 81.4638C207.621 80.3492 206.109 80.7315 205.192 81.6128C204.594 81.7892 204.015 82.0515 203.469 82.3987C202.233 82.2399 200.938 82.2399 199.727 82.2844C199.433 82.1192 199.118 81.9723 198.775 81.846C196.325 80.9486 194.155 81.4045 192.366 82.606C191.504 81.7889 190.417 81.2761 189.027 81.3536C187.786 81.4231 186.902 82.0081 186.144 82.7786C185.389 81.6868 184.167 80.9079 182.646 80.7995C180.519 80.648 178.474 81.5027 176.78 82.8259C175.793 81.691 174.447 81.0387 172.947 81.0324C171.96 80.8528 170.918 80.9237 169.977 81.2084C168.611 81.6219 167.411 82.3966 166.456 83.4021C164.944 81.9516 163.094 80.9079 160.961 81.0601C158.2 81.26 155.911 83.2944 154.847 85.7985C152.978 86.5486 151.253 87.6186 149.811 89.1442C149.734 89.2245 149.66 89.3087 149.583 89.3932C148.806 89.6804 148.075 90.0876 147.431 90.6238C145.391 92.3251 144.936 94.7871 145.611 97.1996C145.517 97.5857 145.436 97.9785 145.363 98.3709C143.452 98.662 141.716 99.7671 140.729 101.566C139.378 104.035 139.644 107.289 141.107 109.646C141.736 110.66 142.534 111.515 143.431 112.262C142.417 114.569 142.904 117.323 144.538 119.19C144.937 119.833 145.425 120.414 145.976 120.94C145.368 123.325 146.448 125.787 148.604 127.062L148.789 127.524C148.82 127.601 148.851 127.678 148.883 127.753C148.907 127.852 148.937 127.947 148.966 128.042C149.017 128.889 149.295 129.72 149.848 130.503C150.978 132.107 152.38 133.153 153.123 135.026L153.197 135.222C153.517 136.109 154.548 136.734 155.427 136.46C150.547 146.505 147.988 157.682 146.231 168.635C145.355 174.099 144.679 179.582 144.13 185.087L143.593 190.568C143.12 195.44 142.699 200.329 142.696 205.217C142.689 216.275 145.846 226.912 152.621 235.711C159.029 244.029 168.097 250.058 178.34 252.432C188.916 254.88 201.322 253.916 210.806 248.312C213.603 246.664 211.153 242.7 208.308 244.026C202.922 246.537 197.448 248.403 191.478 248.82C185.658 249.23 179.824 248.501 174.305 246.593C165.174 243.434 157.405 236.816 152.411 228.574C149.951 224.513 148.17 220.105 147.221 215.447C146.041 209.642 146.218 203.641 146.652 197.762L146.682 197.361C147.54 186.033 148.67 174.635 150.497 163.42C152.112 153.503 154.595 143.786 157.818 134.284C159.081 133.17 160.493 132.249 162.005 131.549C173.073 131.085 184.161 131.221 195.215 131.986C204.643 132.643 214.024 133.754 223.335 135.374L224.333 135.55C226.394 135.917 228.683 136.128 230.625 136.959C232.291 137.675 232.966 139.05 233.386 140.74C234.443 145.015 234.604 149.694 234.783 154.077C234.958 158.363 234.562 162.684 234.905 166.955C235.196 170.529 236.109 174.186 238.751 176.771C240.134 178.125 241.834 178.865 243.43 179.892C244.463 180.556 244.9 181.239 244.767 182.467C244.48 185.153 242.321 188.537 244.746 190.838C245.173 191.241 245.911 191.294 246.331 190.838C247.332 189.748 248.715 188.916 249.901 188.036C250.398 187.671 249.985 186.963 249.422 187.215C248.68 187.549 247.924 187.941 247.15 188.285C248.858 186.875 251.287 186.184 253.31 185.774C254.328 185.57 255.399 185.511 256.459 185.606C257.243 185.981 258.045 186.328 258.846 186.668C259.865 187.096 260.894 187.485 261.929 187.854C265.524 190.789 267.238 195.562 266.489 200.23C266.08 202.808 264.894 205.61 262.657 207.115C260.008 208.896 256.459 208.131 253.597 209.454C250.916 210.691 249.285 213.192 248.064 215.78L247.555 216.858C246.421 219.244 245.256 221.566 243.707 223.738C241.915 226.252 239.721 228.511 237.327 230.45C236.166 231.389 234.928 232.234 233.649 233.003L233.299 233.211C232.004 233.972 231.076 234.697 230.989 236.307C230.961 236.868 231.314 237.38 231.769 237.671C233.729 238.916 235.678 237.359 237.309 236.272C239.07 235.1 240.753 233.782 242.31 232.344C245.271 229.616 247.833 226.375 249.803 222.857C251.304 220.178 252.158 216.408 254.531 214.332C255.98 213.066 258.027 213.055 259.837 212.824C261.52 212.607 263.112 212.256 264.61 211.425C270.703 208.033 272.425 199.823 270.98 193.479C270.735 192.409 270.392 191.368 269.968 190.364C272.236 190.743 274.784 188.394 273.863 186.023C273.793 185.844 273.713 185.676 273.636 185.504C275.13 184.518 276.309 183.025 276.869 181.071C277.156 180.061 277.198 179.04 277.048 178.055C277.772 177.568 278.371 176.897 278.756 176.073C279.96 175.516 281.027 174.681 281.664 173.489C282.546 171.844 282.434 170.329 281.762 168.964C281.856 168.793 281.947 168.618 282.035 168.438C284.502 166.871 286.224 164.17 286.028 161.175C285.965 160.183 285.72 159.288 285.342 158.482C285.374 158.381 285.405 158.275 285.433 158.173C287.498 157.121 289.206 155.392 289.815 153.085C290.424 150.763 289.706 148.448 288.271 146.667C290.371 145.127 291.634 142.978 290.868 139.726C290.557 138.404 289.93 137.201 289.083 136.188C289.087 136.156 289.094 136.125 289.101 136.093L289.297 135.94C291.889 133.89 293.38 131.278 291.788 128.065C291.075 126.621 290.056 125.614 288.859 124.951L288.8 124.762C289.657 122.92 289.948 120.876 289.356 118.726C288.873 116.955 287.729 115.545 286.266 114.609C286.364 113.816 286.35 112.971 286.193 112.055C285.93 110.509 285.164 109.159 284.044 108.202C284.002 107.998 283.949 107.798 283.89 107.598C283.512 106.374 282.805 105.045 281.986 104.059C281.311 103.242 280.555 102.944 279.631 102.913C279.687 102.159 279.648 101.394 279.494 100.619C279.022 98.2275 277.503 95.9791 275.253 94.9586C274.329 94.5412 273.356 94.4188 272.418 94.5202C271.62 92.8368 270.063 91.6167 268.148 91.3537C267.403 91.2484 266.71 91.2551 266.073 91.3501C265.713 91.1815 265.338 91.031 264.946 90.8939C264.687 90.8027 264.425 90.7185 264.162 90.6347C263.277 89.5335 262.111 88.6529 260.75 88.1237C259.179 87.5099 257.579 87.5727 256.162 88.0882L255.711 87.9935C255.004 86.7661 253.877 85.8157 252.144 85.3843C250.178 84.8968 248.158 85.5772 246.611 86.8155C246.604 86.8155 246.597 86.8155 246.587 86.8117C245.778 84.9985 244.396 83.736 242.076 83.8237C240.63 83.8798 239.325 84.5991 238.317 85.6231C237.757 85.5526 237.197 85.4895 236.634 85.4267C236.039 84.7285 235.378 84.0765 234.646 83.4908C233.449 82.5296 231.892 82.6071 231.01 83.9604C230.817 84.255 230.639 84.5531 230.46 84.8512L229.652 84.7951C228.7 83.508 227.402 82.6383 225.624 82.5685C223.993 82.5015 222.831 83.3015 221.946 84.4199C221.225 84.4023 220.5 84.3886 219.776 84.3778C218.933 83.3993 217.939 82.5366 216.805 81.8211C215.937 81.274 214.656 81.4603 213.953 82.1897C213.477 82.6856 213.035 83.2033 212.624 83.7391C211.564 82.5481 210.132 81.7636 208.602 81.4638ZM260.109 192.83C258.475 191.897 256.277 192.907 254.696 193.7C252.767 194.664 250.853 196.12 249.674 197.944C248.067 200.427 251.843 202.433 253.534 200.206C254.573 198.834 255.402 197.453 256.662 196.253C257.814 195.152 259.483 194.415 260.144 192.964C260.169 192.914 260.162 192.858 260.109 192.83ZM258.961 132.561L258.931 132.474C258.466 131.2 260.495 130.65 260.955 131.914C261.654 133.829 260.849 135.911 258.961 136.738C258.438 136.968 257.84 136.888 257.525 136.361C257.26 135.917 257.383 135.149 257.901 134.922C258.963 134.456 259.319 133.635 258.961 132.561ZM276.436 128.998C275.421 128.1 276.91 126.617 277.921 127.51C278.864 128.344 279.563 129.477 279.381 130.78C279.196 132.108 278.197 133.045 277.103 133.708C275.944 134.41 274.888 132.592 276.043 131.891L276.173 131.811C276.659 131.509 277.226 131.094 277.309 130.5C277.396 129.869 276.863 129.376 276.436 128.998ZM270.673 113.156L270.601 113.103C269.51 112.323 270.558 110.498 271.661 111.286C272.672 112.01 273.484 112.95 273.569 114.246C273.652 115.506 273.012 116.598 272.176 117.484C271.245 118.47 269.762 116.98 270.691 115.996C271.596 115.037 271.773 113.991 270.673 113.156Z" fill="black"/>
<path fill-rule="evenodd" clip-rule="evenodd" d="M183.173 226.293C185.531 225.332 187.634 223.727 189.172 221.678C189.707 220.965 189.845 220.213 189.733 219.525C189.607 218.751 189.149 218.05 188.525 217.58C187.899 217.108 187.116 216.875 186.358 216.994C185.7 217.097 185.045 217.457 184.527 218.204L184.418 218.354C183.504 219.591 182.313 220.606 180.955 221.26C179.647 221.89 178.183 222.185 176.669 222.013C173.785 221.688 171.797 220.128 169.684 218.01C169.422 217.742 169.16 217.466 168.897 217.186C168.731 216.932 168.5 216.769 168.243 216.683C167.959 216.588 167.637 216.594 167.342 216.696C167.058 216.796 166.804 216.984 166.633 217.234C166.471 217.472 166.38 217.766 166.409 218.104C166.603 220.299 167.75 222.258 169.381 223.796C171.191 225.504 173.591 226.686 175.851 227.101C178.34 227.557 180.876 227.23 183.173 226.293ZM174.676 192.43C172.028 194.039 167.993 197.793 170.842 201.784C174.195 205.302 179.024 201.268 181.403 199.443C183.609 198.029 186.088 201.666 184.041 203.317C166.848 216.046 159.871 192.85 173.337 190.537C174.819 190.282 175.37 191.932 174.676 192.43ZM205.486 177.623C205.193 173.991 199.662 173.166 199.112 176.76C198.619 179.979 199.199 182.937 200.649 185.836C202.035 188.605 205.517 187.313 205.781 184.791C206.134 181.411 205.668 179.882 205.486 177.623ZM163.379 176.015C162.608 175.005 161.494 174.315 160.16 174.705C155.992 175.923 157.221 181.841 158.685 184.721C159.48 186.285 162.051 186.682 163.213 185.304C165.107 183.059 166.014 178.573 163.606 176.361C163.541 176.247 163.468 176.131 163.379 176.015ZM200.708 161.73L200.049 161.615C198.013 161.263 195.48 160.924 194.039 162.562C193.275 163.43 193.012 165.044 194.039 165.875C195.846 167.338 197.844 166.771 200.009 166.895C201.793 166.997 203.508 167.292 205.227 167.784C208.998 168.861 212.07 170.829 215.291 172.989C215.714 173.273 216.145 172.732 215.943 172.337C214.084 168.696 210.481 165.704 206.873 163.881C204.947 162.908 202.839 162.101 200.708 161.73ZM167.179 160.099L166.675 160.202C161.191 161.348 154.066 163.638 151.469 169.025C151.37 169.787 151.474 169.95 151.559 170.057L151.588 170.092C151.658 170.183 151.714 170.309 152.044 170.412C152.135 170.39 152.228 170.367 152.321 170.343C153.512 170.031 154.454 169.601 155.365 169.155L156.354 168.668C157.501 168.106 158.658 167.564 159.884 167.164C162.501 166.31 165.193 165.709 167.927 165.388C168.519 165.318 169.09 165.118 169.54 164.776C169.967 164.45 170.294 164 170.442 163.401C170.635 162.627 170.58 162.04 170.164 161.341C169.852 160.816 169.404 160.452 168.891 160.243C168.367 160.03 167.771 159.98 167.179 160.099Z" fill="black"/>
<path fill-rule="evenodd" clip-rule="evenodd" d="M205.921 228.491C203.081 221.839 196.884 216.95 189.749 215.163C184.509 213.854 179.011 213.896 173.669 214.415C170.871 214.685 167.869 214.907 165.232 215.946C162.98 216.834 161.145 218.512 159.765 220.482C158.122 222.817 157.005 225.488 156.221 228.227C156.109 228.616 156.004 229.008 155.907 229.402C156.248 231.469 156.972 233.227 158.886 234.526C160.753 235.795 162.982 236.313 165.203 236.498C165.421 236.393 165.631 236.286 165.824 236.175C169.286 234.194 171.722 229.511 176.091 230.145C179.99 230.711 182.556 235.617 184.875 238.493C192.317 239.36 199.754 237.124 205.81 232.868C206.117 231.412 206.135 229.943 205.921 228.491ZM150.848 223.445C151.443 221.774 152.193 220.156 153.082 218.631C156.021 213.59 160.532 209.573 165.887 207.277C178.555 201.853 194.946 205.677 205.177 214.573C208.672 217.614 212.205 222.083 213.274 226.89C213.593 226.953 213.894 227.119 214.142 227.353C221.534 222.699 229.145 218.222 235.102 211.771C239.427 207.084 242.436 201.538 244.278 195.442C244.428 194.941 245.237 195.014 245.213 195.569C245.206 195.699 245.199 195.829 245.192 195.959C245.269 195.72 245.633 195.843 245.661 196.074C246.652 203.479 247.892 211.329 246.751 218.772C246.068 223.213 244.05 226.464 241.353 229.975C238.464 233.738 235.193 237.239 231.848 240.595C229.725 242.726 227.508 245.184 224.91 246.746C221.887 248.561 218.458 249.941 215.232 251.341C211.951 252.77 208.62 254.09 205.226 255.235C198.442 257.531 191.43 259.118 184.296 259.813C178.583 260.368 172.055 260.972 166.581 258.823C162.385 257.176 158.998 254.2 156.311 250.618C153.387 246.718 151.075 242.275 149.797 237.59C148.469 232.723 150.568 224.229 150.848 223.445Z" fill="black"/>
<path fill-rule="evenodd" clip-rule="evenodd" d="M133.952 165.728C134.241 165.68 134.53 165.635 134.819 165.593C135.044 165.465 135.309 165.366 135.617 165.307C136.32 165.128 137.019 165.008 137.716 164.943C147.722 162.691 170.871 165.889 171.826 174.428C175.013 175.491 177.77 174.539 181.464 174.633C184.275 162.883 232.877 164.541 235.214 171.626C235.223 171.623 235.232 171.621 235.241 171.618C237.487 170.923 240.798 171.091 243.368 170.981C248.857 170.866 254.352 171.355 259.723 172.513C269.779 174.111 283.504 175.982 276.51 188.54C276.509 188.542 276.508 188.544 276.506 188.547L276.505 188.546C275.299 189.781 273.254 188.786 273.178 187.114C275.529 181.164 270.218 180.45 266.132 178.74C255.964 175.087 245.611 174.581 235.095 175.711C234.304 176.642 233.104 177.454 231.835 177.88C224.803 179.047 228.509 184.262 224.064 185.021C224.881 203.202 202.807 213.126 190.017 201.175C184.911 196.182 183.693 188.786 182.509 182.12C181.883 181.979 181.485 181.637 181.253 181.183C179.747 179.68 178.801 178.292 175.824 177.88C172.847 177.467 170.555 178.295 170.245 178.549C170.167 178.706 170.083 178.864 169.986 179.022C169.85 179.257 169.664 179.445 169.454 179.592C172.394 197.697 158.339 209.147 144.149 199.757C137.984 193.957 136.681 185.078 136.424 177.153C135.588 176.649 135.059 175.671 135.348 174.442C135.747 172.748 134.812 171.282 133.323 170.545C131.388 169.589 131.73 166.096 133.952 165.728ZM194.922 174.317C196.683 173.93 197.435 176.645 195.668 177.034C194.417 177.309 193.357 177.94 192.64 179.009L192.565 179.125C191.604 180.655 189.173 179.242 190.141 177.703C191.23 175.97 192.922 174.757 194.922 174.317ZM143.338 172.634C143.959 172.196 144.898 172.521 145.259 173.139C145.655 173.82 145.395 174.578 144.814 175.023L144.755 175.066C144.221 175.442 143.702 176.116 143.637 176.806L143.631 176.893C143.561 178.7 140.753 178.709 140.823 176.893C140.891 175.116 141.92 173.632 143.338 172.634Z" fill="black"/>
</svg>
