<svg width="445" height="565" viewBox="0 0 445 565" fill="none" xmlns="http://www.w3.org/2000/svg">
<path fill-rule="evenodd" clip-rule="evenodd" d="M77.751 498.798C70.1824 498.454 73.2266 486.006 73.7697 481.434C79.7621 464.737 78.3534 446.519 80.7102 429.018C82.1784 412.679 84.0649 396.392 85.6518 380.067C88.7683 346.927 111.149 279.464 136.689 268.614C139.906 255.341 153.194 242.95 170.007 242.95C181.474 230.187 195.276 221.205 212.979 223.018C220.294 223.331 227.389 230.627 234.399 232.036C238.324 232.545 273.155 231.235 280.133 235.131C284.993 237.478 289.38 241.814 287.951 247.334C285.671 254.022 292.757 246.785 307.538 253.924C337.679 270.945 319.668 293.716 318.87 294.421C337.679 319.028 354.119 338.991 361.726 369.068C366.655 391.398 366.101 414.45 370.231 436.894C371.689 444.676 373.927 452.192 376.348 459.75C378.972 469.64 380.248 494.292 381.694 494.512C384.328 495.127 380.171 500.214 377.38 500.218C299.985 512.289 221.37 500.718 143.559 498.827C121.63 498.11 99.6783 497.945 77.751 498.798Z" fill="#FDEA6B"/>
<path fill-rule="evenodd" clip-rule="evenodd" d="M234.302 253.704C234.302 261.449 205.701 290.228 195.831 288.329C189.25 287.063 179.308 278.809 166.004 263.565V253.704L168.877 242.969C152.601 243.508 139.834 255.64 136.689 268.615C111.404 279.356 89.2163 345.584 85.751 379.062L85.6518 380.067C84.0649 396.392 82.1784 412.68 80.7102 429.018C78.3534 446.52 79.7621 464.737 73.7697 481.435L73.7343 481.718C73.109 486.499 70.3338 498.462 77.751 498.798C99.6783 497.945 121.63 498.11 143.559 498.827C221.37 500.718 299.985 512.289 377.38 500.218C380.171 500.214 384.328 495.128 381.694 494.512C380.248 494.292 378.972 469.641 376.348 459.75L375.85 458.187C373.622 451.155 371.589 444.14 370.231 436.894C366.101 414.45 366.655 391.398 361.726 369.069C354.119 338.992 337.679 319.029 318.87 294.422C319.668 293.716 337.679 270.945 307.538 253.924C292.757 246.786 285.671 254.022 287.951 247.334C289.38 241.814 284.993 237.478 280.133 235.132C273.155 231.235 238.324 232.545 234.399 232.036C232.576 231.67 230.747 230.905 228.909 229.969L229.228 230.966C232.61 241.625 234.302 249.205 234.302 253.704Z" fill="#FDEA6B"/>
<path fill-rule="evenodd" clip-rule="evenodd" d="M195.055 296.593C195.019 296.26 194.541 296.261 194.505 296.593L193.958 301.553C193.293 307.611 192.653 313.657 192.189 319.743C191.611 327.332 191.224 334.919 191.037 342.525C190.387 369.015 190.258 395.519 190.203 422.016C186.392 421.768 182.581 421.529 178.768 421.297C176.181 421.14 173.593 420.99 171.006 420.841L164.408 420.465L161.692 420.308C159.856 420.202 157.771 419.767 156.487 421.296C155.973 421.908 155.716 422.703 156.195 423.43C157.299 425.106 158.996 425.047 160.916 425.12C162.727 425.189 164.537 425.256 166.348 425.322C170.229 425.463 174.109 425.597 177.991 425.699C182.065 425.807 186.137 425.894 190.209 425.959C190.25 437.145 190.742 448.317 191.274 459.491L191.515 464.519C192.167 478.117 192.867 491.726 193.862 505.306C193.944 506.417 195.617 506.415 195.698 505.306C196.819 490.013 197.558 474.688 198.291 459.374C198.823 448.271 199.132 437.166 199.28 426.058C199.818 426.062 200.356 426.069 200.894 426.071C216.178 426.133 231.459 426.196 246.743 426.061C246.717 426.089 246.692 426.118 246.675 426.155C245.569 428.61 245.464 431.743 245.491 434.378C245.522 437.4 245.955 440.385 246.695 443.323C249.347 453.851 256.187 463.28 263.977 471.075L264.232 471.329C266.069 473.155 268.177 474.989 269.306 477.314C270.458 479.689 270.858 482.466 271.427 485.017L271.493 485.311L273.717 494.968C274.423 498.036 274.624 502.509 277.206 504.722C279.616 506.788 282.807 505.709 283.941 503.05C284.827 500.975 283.945 498.696 283.42 496.622L279.312 480.383C278.637 477.735 277.899 475.069 276.442 472.69C274.949 470.253 272.761 468.487 270.529 466.679C266.301 463.257 262.42 459.339 259.138 455.097C255.857 450.856 253.053 446.182 251.086 441.266C250.102 438.806 249.295 436.25 248.738 433.673C248.209 431.227 248.214 428.694 247.648 426.275C247.609 426.108 247.459 425.993 247.287 425.942C247.328 425.835 247.266 425.689 247.105 425.679L234.606 424.924C223.494 424.25 212.384 423.559 201.282 422.769L199.321 422.636C199.473 407.816 199.344 392.993 199.059 378.168C198.798 364.573 198.793 350.974 198.363 337.381C198.149 330.634 197.688 323.903 197.175 317.171C196.65 310.285 195.81 303.458 195.055 296.593ZM312.423 375.421C312.556 374.666 311.546 374.198 311.081 374.889C305.758 382.777 303.192 391.346 302.11 400.577C301.154 408.725 301.436 416.99 301.912 425.158C302.419 433.871 303.011 442.581 303.61 451.289L304.53 464.643L306.839 498.119C307.004 500.514 307.582 502.691 309.775 503.804C310.053 504.022 310.342 504.218 310.679 504.387C311.864 504.983 313.435 504.682 314.12 503.539L313.845 503.709C313.606 503.85 313.875 503.652 314.651 503.116L315.311 502.314C315.79 501.637 316.095 500.972 316.218 500.167C316.409 498.917 316.162 497.546 316.075 496.289L314.562 474.338C313.385 457.272 312.011 440.212 310.975 423.137C310.492 415.18 310.154 407.214 310.383 399.243C310.611 391.315 311.041 383.253 312.423 375.421ZM266.378 228.473L266.082 228.426C255.51 226.775 244.015 227.084 234.353 231.876C234.273 231.915 234.309 232.04 234.399 232.036L237.509 231.919C247.354 231.557 257.169 231.342 266.849 233.517L267.84 233.742C271.326 234.541 274.967 235.52 277.767 237.685C280.443 239.755 281.776 242.947 283.057 245.886L283.229 246.274C284.529 249.176 286.174 251.929 289.024 253.744C292.715 256.094 297.154 255.807 301.387 256.126C308.839 256.689 314.931 261.767 317.962 267.981C319.798 271.744 320.581 275.962 320.736 280.077C320.815 282.172 320.827 284.348 320.53 286.429C320.435 287.095 319.56 289.519 319.114 289.461C318.123 289.332 317.217 289.818 316.908 290.563C314.459 288.338 311.94 286.178 309.34 284.096C302.859 278.906 295.878 274.203 288.527 270.161C282.916 267.076 276.998 264.019 270.869 261.709C271.355 261.699 271.834 261.79 272.297 262.016C272.5 262.116 272.701 261.877 272.541 261.718C270.611 259.809 268.299 259.537 265.968 260.046C265.47 259.897 264.973 259.753 264.473 259.617C264.224 259.549 264.1 259.871 264.303 259.995L264.876 260.339C262.333 261.14 259.836 262.714 257.86 263.957C252.182 267.525 247.184 271.886 242.118 276.167L241.197 276.942C236.738 280.686 232.165 284.324 227.099 287.328C224.446 288.9 221.661 290.354 218.739 291.436C216.233 292.364 212.152 292.948 210.979 295.439C209.935 296.63 210.371 298.151 211.593 298.953C213.654 301.086 217.776 299.708 220.232 298.82C223.192 297.749 226.06 296.462 228.795 294.953C234.105 292.022 239.001 288.377 243.562 284.5C248.326 280.451 252.819 276.15 257.452 271.973C259.459 270.164 261.42 268.312 263.431 266.505L264.44 265.606C265.466 264.701 266.928 263.291 268.491 262.437C271.436 264.089 274.426 265.672 277.344 267.366C281.417 269.731 285.371 272.267 289.263 274.885C296.757 279.927 303.858 285.574 310.45 291.626C322.54 302.726 332.841 315.4 341.84 328.821L342.523 329.844C347.636 337.526 352.472 345.455 355.901 353.943C359.673 363.284 361.508 373.106 362.505 383.021C363.494 392.865 363.827 402.758 364.933 412.593C366.067 422.679 368.301 432.543 370.842 442.388L371.448 444.722C373.747 453.54 376.12 462.357 377.301 471.382C377.932 476.203 378.312 481.09 378.226 485.95C378.14 490.839 377.323 495.619 376.664 500.456C376.411 502.309 378.351 503.855 380.086 504.101C382.082 504.383 383.796 503.186 384.417 501.442C386.35 496.008 386.702 490.001 386.641 484.297C386.58 478.507 385.794 472.754 384.688 467.063C382.513 455.87 379.156 444.907 376.348 433.848C373.874 424.1 372.213 414.335 371.317 404.348C370.388 393.987 369.832 383.592 368.136 373.306C366.463 363.151 363.314 353.452 358.566 344.192C354.242 335.762 348.852 327.827 343.202 320.135C336.34 310.796 328.804 301.908 320.38 293.81C321.137 293.78 321.914 293.55 322.627 293.131C324.81 291.851 325.827 289.347 326.14 287.06C326.871 281.71 326.694 276.126 325.231 270.896C322.871 262.458 316.745 254.962 307.867 251.92C305.582 251.138 303.152 250.852 300.731 250.795C298.433 250.742 295.923 251.023 293.705 250.339C290.176 249.248 288.663 245.339 287.338 242.376L287.277 242.24C285.577 238.465 283.538 235.228 279.857 232.871C275.93 230.355 271.011 229.211 266.378 228.473ZM165.926 243.404C162.749 242.368 158.777 243.308 155.67 244.213C152.209 245.222 149.011 247.08 146.269 249.287C143.376 251.615 140.985 254.488 139.296 257.699L139.134 258.008C137.591 260.986 135.834 265.074 136.612 268.346C136.635 268.438 136.66 268.528 136.689 268.614C130.386 271.532 124.565 275.186 119.495 279.818C113.593 285.211 108.595 291.348 104.365 297.978C87.5667 324.31 84.6101 355.934 82.6261 385.964L82.1313 393.578C81.0541 410.019 79.7932 426.422 76.5184 442.637L76.2794 443.807C72.7788 460.784 67.7677 477.891 68.2754 495.306C68.4277 500.524 76.6292 500.489 76.8669 495.306C77.7622 475.799 82.6035 456.965 85.8818 437.763C91.6501 403.98 88.7599 369.152 96.9332 335.708C100.141 322.583 105.109 309.852 112.204 298.136C115.709 292.349 119.719 286.756 124.416 281.763C128.457 277.467 132.658 273.332 137.38 269.721C138.89 271.142 141.905 270.418 142.693 268.346C143.234 266.922 143.076 265.257 143.423 263.765C143.746 262.381 144.19 261.008 144.782 259.705C145.963 257.107 147.695 254.612 149.695 252.509C151.856 250.237 154.339 248.348 157.118 246.789C159.916 245.219 162.975 244.751 165.926 243.603C166.025 243.565 166.035 243.44 165.926 243.404ZM153.583 423.95C153.579 423.813 153.407 423.749 153.301 423.84C152.187 424.804 151.514 426.187 150.694 427.373C149.749 428.739 148.756 430.078 147.715 431.383C145.629 433.996 143.307 436.459 140.967 438.872C138.79 441.116 136.47 443.265 134.064 445.291C131.456 447.487 128.534 449.446 126.165 451.877C121.222 456.95 120.424 463.912 119.381 470.45L119.267 471.157C118.631 475.037 118.061 478.927 117.547 482.822C117.297 484.717 117.048 486.614 116.844 488.514L116.782 489.116C116.601 490.976 116.552 492.862 117.687 494.487C118.903 496.226 121.668 496.835 123.312 495.168C126.136 492.304 125.606 487.218 125.974 483.533C126.277 480.487 126.621 477.444 127.007 474.406L127.203 472.887C127.657 469.431 128.026 465.906 128.867 462.509C129.608 459.518 131.021 457.261 133.339 455.094C135.673 452.912 138.1 450.874 140.255 448.524C142.541 446.031 144.603 443.358 146.46 440.568C148.049 438.182 149.323 435.585 150.49 432.991L150.684 432.559C151.812 430.03 153.671 426.737 153.583 423.95ZM112.81 315.303C112.785 314.95 112.231 314.945 112.223 315.303C112.152 318.337 112.085 321.372 112.018 324.406C111.479 348.858 111.811 373.368 109.202 397.736C107.972 409.226 105.706 420.546 103.084 431.819C101.742 437.588 100.335 443.343 98.9972 449.112C97.6939 454.735 96.2962 460.385 95.2623 466.059C94.2463 471.637 93.3364 477.258 92.928 482.907L92.8777 483.644C92.7018 486.38 91.8625 490.405 93.4651 492.831C95.2016 495.458 98.5261 495.505 100.387 492.997C102.134 490.642 101.699 486.453 102.008 483.644C102.322 480.781 102.653 477.917 103.03 475.061C103.765 469.491 104.734 463.933 105.741 458.4C107.839 446.879 110.882 435.502 113.128 423.999C115.43 412.212 117.066 400.341 117.135 388.34C117.204 376.237 115.841 364.158 115.153 352.081C114.455 339.816 113.661 327.56 112.81 315.303ZM235.656 239.249C234.958 237.039 232.494 235.657 230.09 236.277C227.887 236.847 226.068 239.361 226.93 241.512C227.869 243.859 229.512 245.86 230.897 247.993C232.176 249.965 234.041 251.517 235.344 253.453L233.909 254.908C233.19 255.634 232.47 256.356 231.741 257.065L229.237 259.504C227.287 261.4 225.324 263.286 223.306 265.115C217.372 270.497 211.344 275.702 204.699 280.311C203.186 281.36 201.661 282.403 200.094 283.379L199.51 283.744C198.434 284.406 197.235 285.056 195.936 284.944C192.779 284.672 189.927 281.52 187.758 279.558L187.645 279.456C182.27 274.647 177.293 269.389 172.941 263.736C171.975 262.48 171.039 261.202 170.128 259.91C172.232 257.599 171.73 253.089 171.846 250.286C171.928 248.316 171.934 246.345 171.945 244.373L171.951 243.976C171.977 242.699 172.038 241.475 171.157 240.425C171.106 240.364 170.999 240.366 170.934 240.398C169.728 240.992 169.356 241.988 168.841 243.104L168.787 243.22C168.161 244.56 167.561 245.913 166.954 247.261C166.318 248.672 165.735 250.103 165.145 251.531C164.87 252.196 164.607 252.863 164.351 253.533C164.195 253.961 164.033 254.387 163.867 254.813L163.828 254.846C163.608 255.02 163.422 255.205 163.262 255.396C162.589 255.713 162.054 256.29 161.803 257.137C161.257 258.983 162.387 260.487 163.396 261.952C167.492 267.903 172.162 273.573 177.352 278.717C179.931 281.273 182.643 283.713 185.467 286.029L185.96 286.431C188.497 288.48 191.251 290.422 194.638 290.901C198.602 291.462 201.829 289.608 204.863 287.473L205.166 287.258C208.043 285.211 210.862 283.091 213.593 280.874C219.162 276.353 224.46 271.5 229.161 266.174C233.734 260.995 238.255 255.203 241.074 248.971C241.246 248.591 240.794 248.194 240.44 248.511C239.063 249.743 237.738 251.043 236.429 252.359C236.392 250.422 236.773 248.468 236.561 246.518C236.303 244.149 236.378 241.531 235.656 239.249Z" fill="#FDEA6B"/>
<path fill-rule="evenodd" clip-rule="evenodd" d="M199.044 80.6368C176.854 80.6368 149.061 104.488 140.927 114.638C134.089 123.171 135.056 167.132 135.056 193.21C135.056 198.664 137.673 208.986 138.623 214.203C142.103 233.32 157.267 249.353 187.28 249.353C211.718 249.353 230.524 242.059 248.711 223.405C252.86 219.149 273.122 234.385 277.266 228.898C288.09 228.898 297.14 133.605 275.889 105.023C254.638 76.4409 221.234 80.6368 199.044 80.6368Z" fill="#FDEA6B"/>
<path fill-rule="evenodd" clip-rule="evenodd" d="M265.738 87.3487C252.915 76.3567 235.833 71.0688 218.599 71.4591C209.673 71.6616 200.778 73.2635 192.349 76.0069C188.132 77.3841 184.048 79.1811 180.144 81.2138C178.737 81.9446 177.44 82.8009 176.192 83.7104L175.88 83.9388H175.877C172.527 85.073 169.538 87.1093 166.826 89.4918C161.389 89.0831 155.91 89.5434 150.654 91.1231C143.338 93.3252 136.566 97.3575 131.81 103.084C126.27 109.75 124.428 117.836 125.085 126.184L125.206 127.602C125.856 134.976 127.02 144.46 133.443 149.305C133.932 149.673 134.471 149.953 135.03 150.123C130.891 156.803 127.495 164.219 125.463 171.709C117.706 200.318 123.669 230.152 132.998 257.726C133.764 259.998 137.41 261.508 139.266 259.288C142.58 255.318 147.395 252.291 152.811 251.724C156.153 251.374 159.478 252.008 162.636 250.579C163.875 250.015 165.071 249.095 165.931 247.975C171.261 249.879 177.002 250.778 182.696 250.557C192.04 250.196 202.029 247.147 208.458 240.46C209.489 239.386 209.751 238.181 209.513 237.095C208.707 236.824 207.879 236.622 207.027 236.495C198.874 241.023 189.888 244.048 180.231 244.238C174.651 244.347 169.207 243.612 164.683 240.329C163.704 239.618 162.803 238.831 161.971 237.986C152.511 232.251 145.841 222.512 142.67 212.079C139.716 202.35 140.079 192.22 141.095 182.241L141.631 176.975C142.413 169.246 143.137 161.493 143.341 153.731L143.279 153.729C141.281 153.607 141.267 150.66 143.279 150.783C148.484 151.1 153.65 150.295 158.839 150.646C158.882 148.335 159.059 146.033 159.78 143.804C160.192 142.53 162.545 142.279 162.795 143.804C163.129 145.844 163.25 147.873 163.287 149.922C171.052 149.825 178.811 149.209 186.577 149.462C188.01 148.022 188.466 145.469 189.136 143.693C189.234 143.432 189.332 143.174 189.433 142.913C190.022 145.45 190.857 147.933 191.955 150.363L193.86 150.369C204.668 150.417 215.695 150.721 226.249 152.836C226.982 152.305 227.419 151.38 227.537 150.539C228.302 145.068 229.395 139.743 231.331 134.53L231.608 133.795C231.631 133.734 231.655 133.669 231.68 133.6C233.106 135.771 234.809 137.793 236.665 139.677C237.76 140.787 238.907 141.849 240.085 142.88C241.228 144.077 242.411 145.256 243.556 146.456C243.512 146.674 243.472 146.896 243.441 147.122C243.09 149.613 243.054 152.14 243.311 154.64C243.775 159.161 245.129 163.517 247.305 167.547L247.374 167.951C247.705 169.84 248.175 171.791 249.273 173.214C247.903 174.66 246.847 176.388 246.235 178.307C245.69 180.016 248.2 181.498 249.501 180.099C250.535 178.988 251.683 178.068 252.945 177.335C253.024 177.437 253.168 177.487 253.33 177.402C256.843 175.564 262.811 176.12 266.32 177.851C270.685 180.002 272.389 184.417 271.904 188.891C271.439 193.166 269.454 198.163 265.605 200.354C263.838 201.36 262.463 201.444 260.587 200.962C259.987 200.809 259.243 200.338 258.924 200.104L258.61 199.867C257.38 198.951 256.235 198.324 254.783 198.3C253.299 197.863 251.806 198.469 251.239 199.936L251.204 200.03C250.938 200.778 250.453 201.717 250.559 202.858C250.668 204.081 251.262 205.193 252.149 206.088C252.302 206.243 252.466 206.397 252.634 206.541C237.354 222.129 235.392 246.418 243.227 265.89C243.567 266.745 243.931 267.588 244.31 268.424C245.619 271.289 250.66 270.401 251.301 267.562C251.493 266.711 251.704 265.864 251.934 265.025C252.358 263.473 252.844 261.936 253.391 260.422L253.599 259.855C254.064 258.603 254.498 257.34 254.967 256.088L255.014 255.945C255.032 255.888 255.051 255.823 255.073 255.749L255.866 257.38L258.277 262.304C259.406 264.601 262.991 263.352 263.124 261.138L263.127 261.063C263.139 260.654 263.154 260.249 263.182 259.847C263.354 256.839 263.905 253.915 264.78 251.054L265.096 251.424C269.799 256.902 275.318 262.037 282.89 263.302C284.789 263.618 286.939 261.748 285.633 259.939C285.094 259.192 284.574 258.426 284.082 257.649C284.508 257.461 284.91 257.266 285.282 257.067C288.154 255.546 290.546 253.381 292.523 250.925C296.717 245.718 298.217 239.163 298.585 232.749C298.975 225.969 298.342 218.822 296.377 212.282C295.525 209.454 294.372 206.74 293.039 204.107C293.133 203.871 293.223 203.635 293.313 203.4C294.751 199.622 295.931 195.759 296.912 191.852C298.889 183.964 299.952 175.826 300.081 167.721C300.316 153.201 297.658 138.449 292.058 124.909C286.274 110.946 277.575 97.4937 265.738 87.3487ZM272.94 214.296C274.002 212.72 276.659 214.14 275.673 215.727L275.637 215.784C273.952 218.284 273.163 221.127 272.194 223.915C271.572 225.708 268.551 224.942 269.181 223.13L269.389 222.525C270.353 219.699 271.233 216.826 272.94 214.296ZM263.69 184.218L262.984 183.896C260.758 182.896 258.808 182.214 256.179 183.088C252.657 184.255 248.886 187.97 251.266 191.576C252.142 192.905 253.697 193.435 255.299 193.122C258.001 192.594 258.698 190.302 260.068 188.421L260.304 188.102C261.14 186.964 262.197 185.39 263.588 184.944C263.905 184.84 264.038 184.376 263.69 184.218ZM261.705 107.676L261.478 107.484C259.965 106.225 262.185 104.148 263.69 105.4C270.576 111.133 272.967 120.107 276.539 127.756C277.341 129.475 274.648 130.978 273.839 129.243C270.432 121.945 268.17 113.215 261.705 107.676ZM178.956 105.168C180.755 104.404 182.329 106.871 180.6 107.683L180.535 107.712C174.454 110.301 171.867 116.163 169.389 121.606C168.6 123.344 165.907 121.845 166.689 120.122L167.136 119.145C169.721 113.537 172.737 107.82 178.956 105.168ZM169.424 101.626C171.332 101.003 172.148 103.846 170.257 104.468C165.102 106.159 161.565 109.804 158.584 113.973C157.466 115.534 154.758 114.061 155.887 112.485C159.35 107.646 163.461 103.585 169.424 101.626Z" fill="#FDEA6B"/>
<path fill-rule="evenodd" clip-rule="evenodd" d="M179.638 223.495C182.27 222.485 184.619 220.801 186.337 218.649C186.934 217.901 187.088 217.111 186.963 216.388C186.822 215.576 186.311 214.84 185.614 214.346C184.915 213.85 184.04 213.606 183.195 213.73C182.46 213.839 181.728 214.217 181.149 215.002L181.028 215.158C180.007 216.457 178.677 217.523 177.161 218.21C175.7 218.872 174.066 219.181 172.375 219.001C169.154 218.659 166.934 217.021 164.575 214.797C164.282 214.516 163.99 214.227 163.696 213.932C163.51 213.666 163.252 213.494 162.966 213.404C162.648 213.304 162.289 213.31 161.96 213.418C161.642 213.522 161.358 213.72 161.168 213.982C160.987 214.232 160.885 214.541 160.918 214.896C161.134 217.2 162.415 219.257 164.236 220.873C166.258 222.667 168.938 223.908 171.461 224.343C174.24 224.822 177.073 224.479 179.638 223.495ZM170.149 187.938C167.192 189.628 162.686 193.569 165.867 197.76C169.612 201.454 175.004 197.218 177.661 195.302C180.125 193.817 182.893 197.636 180.607 199.37C161.408 212.735 153.616 188.38 168.654 185.95C170.309 185.683 170.924 187.415 170.149 187.938ZM204.554 172.39C204.228 168.577 198.051 167.711 197.436 171.484C196.886 174.865 197.534 177.97 199.153 181.014C200.7 183.921 204.589 182.565 204.884 179.917C205.278 176.368 204.758 174.763 204.554 172.39ZM157.534 170.702C156.673 169.642 155.429 168.918 153.94 169.327C149.285 170.606 150.657 176.819 152.292 179.843C153.18 181.486 156.051 181.902 157.348 180.456C159.463 178.098 160.476 173.389 157.787 171.066C157.714 170.946 157.633 170.824 157.534 170.702ZM199.219 155.703L198.483 155.582C196.209 155.212 193.381 154.857 191.772 156.576C190.918 157.488 190.625 159.183 191.772 160.056C193.789 161.591 196.02 160.996 198.438 161.126C200.431 161.234 202.346 161.544 204.265 162.059C208.476 163.191 211.907 165.257 215.503 167.525C215.975 167.823 216.457 167.255 216.232 166.84C214.156 163.017 210.132 159.876 206.103 157.962C203.952 156.94 201.598 156.092 199.219 155.703ZM161.777 153.991L161.214 154.099C155.09 155.302 147.134 157.707 144.234 163.363C144.123 164.163 144.24 164.334 144.335 164.446L144.367 164.483C144.445 164.579 144.507 164.711 144.876 164.82C144.978 164.797 145.082 164.772 145.186 164.747C146.515 164.419 147.567 163.968 148.585 163.5L149.689 162.988C150.97 162.398 152.262 161.829 153.632 161.409C156.554 160.512 159.56 159.881 162.612 159.544C163.274 159.471 163.911 159.261 164.414 158.901C164.891 158.559 165.255 158.086 165.421 157.458C165.637 156.644 165.575 156.029 165.111 155.295C164.762 154.744 164.262 154.362 163.689 154.142C163.104 153.919 162.439 153.866 161.777 153.991Z" fill="#FDEA6B"/>
<path fill-rule="evenodd" clip-rule="evenodd" d="M91.9332 488.486C85.1555 488.159 87.8815 476.304 88.368 471.95C93.7341 456.047 92.4726 438.697 94.5832 422.029C95.8979 406.469 97.5873 390.957 99.0083 375.409C101.799 343.847 121.841 279.597 144.712 269.264C147.593 256.622 159.493 244.822 174.549 244.822C184.818 232.666 197.178 224.112 213.03 225.839C219.582 226.137 225.935 233.085 232.212 234.427C235.727 234.912 266.919 233.664 273.167 237.375C277.519 239.61 281.448 243.74 280.168 248.997C278.127 255.366 284.472 248.474 297.709 255.273C324.7 271.484 308.571 293.17 307.856 293.842C324.7 317.277 339.422 336.29 346.234 364.934C350.649 386.201 350.152 408.155 353.851 429.53C355.157 436.942 357.16 444.1 359.328 451.298C361.678 460.717 362.821 484.195 364.116 484.404C366.475 484.99 362.752 489.835 360.252 489.838C290.945 501.335 220.545 490.315 150.864 488.514C131.227 487.831 111.569 487.674 91.9332 488.486Z" fill="#D08B5B"/>
<path fill-rule="evenodd" clip-rule="evenodd" d="M232.125 255.064C232.125 262.44 206.513 289.848 197.674 288.04C191.781 286.834 182.878 278.973 170.964 264.455V255.064L173.537 244.84C158.962 245.353 147.529 256.907 144.712 269.264C122.07 279.494 102.2 342.568 99.0972 374.452L99.0083 375.409C97.5873 390.957 95.8979 406.469 94.5832 422.029C92.4726 438.697 93.7341 456.048 88.368 471.95L88.3362 472.22C87.7763 476.774 85.291 488.166 91.9332 488.487C111.569 487.674 131.227 487.832 150.864 488.514C220.545 490.315 290.945 501.335 360.252 489.839C362.752 489.835 366.475 484.991 364.116 484.405C362.821 484.195 361.678 460.717 359.328 451.298L358.882 449.809C356.887 443.112 355.067 436.431 353.851 429.53C350.152 408.155 350.649 386.201 346.234 364.935C339.422 336.29 324.7 317.277 307.856 293.842C308.571 293.17 324.7 271.484 297.709 255.273C284.472 248.475 278.127 255.367 280.168 248.997C281.448 243.74 277.519 239.61 273.167 237.376C266.919 233.665 235.727 234.912 232.212 234.428C230.579 234.079 228.942 233.35 227.296 232.458L227.582 233.409C230.611 243.56 232.125 250.778 232.125 255.064Z" fill="#78E185"/>
<path fill-rule="evenodd" clip-rule="evenodd" d="M196.98 295.911C196.947 295.593 196.52 295.594 196.487 295.911L195.997 300.634C195.402 306.404 194.829 312.161 194.413 317.958C193.895 325.185 193.549 332.411 193.382 339.655C192.8 364.884 192.684 390.126 192.635 415.361C189.222 415.124 185.809 414.897 182.394 414.676C180.077 414.527 177.76 414.383 175.443 414.242L169.535 413.884L167.102 413.734C165.459 413.633 163.591 413.219 162.442 414.675C161.982 415.258 161.751 416.015 162.18 416.707C163.169 418.303 164.689 418.248 166.408 418.317C168.029 418.382 169.651 418.447 171.273 418.509C174.748 418.644 178.223 418.771 181.699 418.869C185.347 418.971 188.993 419.054 192.64 419.116C192.677 429.77 193.117 440.41 193.594 451.051L193.81 455.84C194.393 468.79 195.02 481.751 195.911 494.684C195.985 495.743 197.483 495.741 197.555 494.684C198.559 480.12 199.221 465.524 199.878 450.94C200.354 440.366 200.631 429.789 200.763 419.211C201.245 419.214 201.727 419.221 202.209 419.222C215.896 419.282 229.579 419.342 243.266 419.213C243.243 419.24 243.221 419.267 243.206 419.303C242.215 421.641 242.121 424.625 242.145 427.134C242.173 430.012 242.561 432.855 243.223 435.654C245.598 445.68 251.723 454.66 258.7 462.084L258.928 462.325C260.573 464.064 262.461 465.811 263.471 468.026C264.503 470.287 264.862 472.932 265.371 475.362L265.43 475.641L267.422 484.839C268.054 487.76 268.234 492.021 270.546 494.129C272.704 496.096 275.562 495.068 276.578 492.536C277.37 490.56 276.581 488.39 276.111 486.414L272.432 470.948C271.827 468.426 271.167 465.887 269.862 463.622C268.525 461.301 266.566 459.619 264.567 457.897C260.781 454.638 257.305 450.906 254.366 446.866C251.428 442.828 248.917 438.376 247.156 433.695C246.274 431.351 245.552 428.917 245.053 426.462C244.58 424.133 244.584 421.721 244.077 419.417C244.042 419.258 243.908 419.149 243.754 419.1C243.79 418.998 243.735 418.859 243.591 418.85L232.397 418.13C222.447 417.488 212.497 416.83 202.556 416.078L200.8 415.951C200.936 401.837 200.82 387.72 200.565 373.6C200.332 360.653 200.327 347.702 199.942 334.756C199.75 328.33 199.337 321.92 198.878 315.508C198.408 308.951 197.656 302.449 196.98 295.911ZM302.083 370.984C302.203 370.265 301.298 369.82 300.881 370.478C296.115 377.99 293.817 386.151 292.848 394.943C291.992 402.702 292.244 410.573 292.67 418.353C293.125 426.651 293.655 434.946 294.191 443.24L295.015 455.957L297.083 487.84C297.231 490.12 297.748 492.194 299.712 493.254C299.961 493.462 300.22 493.648 300.522 493.809C301.583 494.376 302.99 494.09 303.603 493.001L303.357 493.163C303.143 493.298 303.383 493.109 304.079 492.599L304.669 491.835C305.098 491.19 305.372 490.556 305.482 489.79C305.653 488.599 305.432 487.293 305.354 486.097L303.999 465.191C302.945 448.938 301.714 432.69 300.786 416.428C300.354 408.85 300.052 401.264 300.257 393.672C300.461 386.122 300.845 378.444 302.083 370.984ZM260.849 231.033L260.585 230.989C251.118 229.416 240.823 229.711 232.171 234.274C232.099 234.312 232.132 234.431 232.212 234.427L234.997 234.316C243.814 233.971 252.603 233.767 261.271 235.838L262.159 236.052C265.281 236.813 268.541 237.745 271.048 239.807C273.445 241.778 274.638 244.818 275.786 247.617L275.939 247.987C277.104 250.751 278.577 253.373 281.129 255.101C284.435 257.34 288.41 257.066 292.2 257.37C298.873 257.906 304.329 262.742 307.044 268.66C308.687 272.244 309.389 276.262 309.527 280.18C309.599 282.176 309.609 284.249 309.343 286.23C309.258 286.864 308.475 289.173 308.075 289.117C307.187 288.994 306.376 289.457 306.099 290.167C303.907 288.049 301.651 285.991 299.323 284.008C293.519 279.066 287.267 274.586 280.684 270.737C275.659 267.798 270.36 264.888 264.871 262.687C265.306 262.678 265.735 262.764 266.15 262.98C266.332 263.075 266.512 262.847 266.369 262.696C264.64 260.877 262.57 260.618 260.482 261.103C260.037 260.962 259.591 260.825 259.144 260.695C258.921 260.63 258.81 260.937 258.992 261.055L259.504 261.383C257.227 262.145 254.992 263.645 253.222 264.828C248.137 268.226 243.662 272.38 239.125 276.456L238.3 277.195C234.307 280.761 230.212 284.226 225.675 287.086C223.3 288.583 220.805 289.968 218.189 290.998C215.944 291.882 212.29 292.439 211.239 294.811C210.305 295.946 210.695 297.394 211.79 298.158C213.635 300.189 217.327 298.877 219.525 298.031C222.176 297.011 224.745 295.785 227.194 294.348C231.949 291.556 236.334 288.085 240.418 284.393C244.684 280.537 248.707 276.44 252.856 272.463C254.654 270.739 256.41 268.976 258.21 267.255L259.115 266.398C260.033 265.537 261.343 264.194 262.742 263.381C265.379 264.953 268.057 266.462 270.67 268.075C274.318 270.327 277.858 272.742 281.344 275.236C288.054 280.038 294.413 285.415 300.316 291.18C311.143 301.751 320.368 313.822 328.426 326.604L329.038 327.578C333.617 334.894 337.947 342.446 341.018 350.53C344.396 359.425 346.039 368.78 346.932 378.222C347.817 387.597 348.116 397.02 349.106 406.386C350.122 415.992 352.122 425.386 354.397 434.763L354.94 436.986C356.999 445.383 359.124 453.781 360.182 462.376C360.747 466.968 361.087 471.622 361.01 476.25C360.933 480.906 360.202 485.459 359.611 490.065C359.385 491.83 361.122 493.303 362.676 493.537C364.463 493.805 365.998 492.665 366.554 491.005C368.286 485.829 368.6 480.108 368.546 474.676C368.491 469.161 367.787 463.683 366.797 458.263C364.849 447.602 361.843 437.162 359.329 426.629C357.113 417.345 355.625 408.045 354.823 398.534C353.991 388.667 353.493 378.766 351.975 368.97C350.476 359.299 347.656 350.061 343.404 341.243C339.532 333.214 334.706 325.656 329.646 318.331C323.501 309.436 316.753 300.972 309.209 293.26C309.887 293.231 310.582 293.012 311.221 292.613C313.176 291.394 314.087 289.009 314.366 286.831C315.022 281.736 314.863 276.417 313.553 271.436C311.439 263.401 305.954 256.261 298.003 253.365C295.957 252.619 293.781 252.347 291.613 252.293C289.555 252.242 287.307 252.51 285.321 251.858C282.161 250.819 280.806 247.097 279.619 244.275L279.564 244.145C278.043 240.55 276.216 237.468 272.92 235.222C269.404 232.827 264.998 231.737 260.849 231.033ZM170.894 245.254C168.049 244.267 164.493 245.163 161.71 246.025C158.611 246.986 155.747 248.755 153.291 250.857C150.7 253.074 148.559 255.811 147.047 258.868L146.902 259.163C145.52 261.999 143.947 265.892 144.644 269.008C144.664 269.096 144.686 269.182 144.712 269.264C139.068 272.043 133.855 275.523 129.315 279.934C124.03 285.07 119.554 290.915 115.766 297.229C100.723 322.307 98.0755 352.425 96.2988 381.025L95.8557 388.277C94.8911 403.935 93.762 419.557 90.8293 434.999L90.6153 436.114C87.4805 452.283 82.9931 468.575 83.4477 485.161C83.5841 490.13 90.9286 490.097 91.1414 485.161C91.9431 466.583 96.2786 448.646 99.2143 430.358C104.38 398.184 101.792 365.014 109.111 333.162C111.983 320.663 116.433 308.538 122.786 297.38C125.925 291.868 129.516 286.542 133.722 281.787C137.341 277.695 141.102 273.757 145.331 270.317C146.683 271.671 149.383 270.981 150.089 269.008C150.573 267.652 150.432 266.066 150.743 264.645C151.032 263.327 151.43 262.02 151.96 260.779C153.017 258.304 154.569 255.928 156.36 253.926C158.295 251.761 160.518 249.963 163.007 248.478C165.512 246.983 168.252 246.536 170.894 245.444C170.983 245.407 170.992 245.288 170.894 245.254ZM159.841 417.203C159.837 417.073 159.683 417.011 159.588 417.098C158.591 418.016 157.988 419.333 157.254 420.462C156.408 421.764 155.519 423.039 154.586 424.281C152.718 426.77 150.639 429.115 148.543 431.414C146.594 433.551 144.517 435.598 142.361 437.527C140.026 439.619 137.41 441.484 135.288 443.799C130.862 448.631 130.147 455.262 129.213 461.488L129.11 462.161C128.541 465.856 128.031 469.561 127.57 473.271C127.347 475.076 127.124 476.883 126.941 478.692L126.886 479.265C126.723 481.036 126.679 482.833 127.696 484.381C128.785 486.037 131.261 486.617 132.733 485.029C135.262 482.302 134.788 477.457 135.117 473.949C135.388 471.047 135.697 468.149 136.042 465.256L136.217 463.809C136.624 460.518 136.955 457.16 137.708 453.926C138.371 451.077 139.636 448.928 141.712 446.864C143.803 444.785 145.975 442.845 147.905 440.606C149.952 438.232 151.799 435.686 153.463 433.029C154.886 430.757 156.026 428.284 157.071 425.813L157.245 425.402C158.255 422.993 159.92 419.857 159.841 417.203ZM123.329 313.729C123.306 313.393 122.81 313.388 122.802 313.729C122.74 316.619 122.679 319.509 122.619 322.399C122.137 345.687 122.434 369.029 120.098 392.237C118.996 403.179 116.967 413.961 114.619 424.697C113.417 430.191 112.157 435.672 110.959 441.166C109.792 446.521 108.54 451.902 107.614 457.307C106.705 462.619 105.89 467.972 105.524 473.352L105.479 474.054C105.322 476.66 104.57 480.493 106.005 482.803C107.56 485.306 110.537 485.351 112.203 482.962C113.768 480.719 113.379 476.729 113.655 474.054C113.936 471.328 114.233 468.6 114.571 465.88C115.229 460.575 116.096 455.282 116.998 450.013C118.877 439.04 121.602 428.205 123.613 417.25C125.675 406.024 127.14 394.718 127.202 383.288C127.263 371.762 126.043 360.258 125.427 348.756C124.802 337.075 124.09 325.402 123.329 313.729ZM233.338 241.297C232.713 239.192 230.506 237.876 228.353 238.467C226.381 239.009 224.752 241.403 225.523 243.452C226.365 245.687 227.836 247.593 229.076 249.625C230.221 251.502 231.892 252.98 233.059 254.824L231.773 256.211C231.13 256.902 230.485 257.589 229.832 258.265L227.59 260.588C225.843 262.393 224.086 264.189 222.278 265.932C216.965 271.057 211.567 276.014 205.615 280.404C204.261 281.403 202.895 282.396 201.492 283.326L200.968 283.673C200.006 284.303 198.931 284.923 197.768 284.816C194.941 284.557 192.388 281.555 190.445 279.686L190.344 279.589C185.53 275.009 181.073 270.002 177.176 264.618C176.311 263.422 175.473 262.205 174.658 260.974C176.542 258.773 176.092 254.478 176.195 251.809C176.269 249.932 176.274 248.055 176.285 246.177L176.29 245.798C176.313 244.583 176.367 243.417 175.579 242.417C175.533 242.359 175.438 242.361 175.379 242.391C174.299 242.957 173.966 243.905 173.505 244.969L173.456 245.079C172.895 246.355 172.358 247.643 171.814 248.927C171.245 250.271 170.723 251.634 170.195 252.994C169.948 253.627 169.713 254.262 169.484 254.901C169.344 255.309 169.199 255.714 169.05 256.12L169.015 256.151C168.819 256.317 168.652 256.493 168.509 256.675C167.906 256.977 167.427 257.526 167.202 258.334C166.713 260.091 167.725 261.524 168.628 262.919C172.297 268.586 176.478 273.987 181.127 278.886C183.436 281.319 185.864 283.644 188.393 285.849L188.835 286.232C191.106 288.184 193.573 290.033 196.606 290.489C200.156 291.024 203.045 289.258 205.763 287.224L206.034 287.02C208.61 285.07 211.135 283.051 213.581 280.94C218.567 276.634 223.311 272.012 227.522 266.94C231.617 262.007 235.665 256.491 238.19 250.556C238.344 250.194 237.939 249.816 237.622 250.118C236.389 251.291 235.202 252.529 234.03 253.782C233.997 251.937 234.338 250.077 234.148 248.22C233.917 245.963 233.984 243.47 233.338 241.297Z" fill="black"/>
<path fill-rule="evenodd" clip-rule="evenodd" d="M200.551 90.2373C180.68 90.2373 155.792 112.953 148.508 122.619C142.384 130.746 143.25 172.614 143.25 197.45C143.25 202.644 145.593 212.475 146.444 217.443C149.561 235.65 163.14 250.919 190.017 250.919C211.901 250.919 228.742 243.973 245.028 226.207C248.744 222.154 266.889 236.664 270.6 231.438C280.293 231.438 288.397 140.684 269.367 113.462C250.336 86.2413 220.423 90.2373 200.551 90.2373Z" fill="#D08B5B"/>
<path fill-rule="evenodd" clip-rule="evenodd" d="M260.276 96.6299C248.794 86.1613 233.497 81.1252 218.063 81.4969C210.07 81.6898 202.105 83.2154 194.556 85.8282C190.78 87.1398 187.123 88.8512 183.627 90.7871C182.367 91.4832 181.205 92.2987 180.087 93.1648L179.809 93.3824H179.805C176.806 94.4625 174.129 96.4019 171.7 98.671C166.832 98.2817 161.925 98.7201 157.218 100.225C150.667 102.322 144.602 106.162 140.343 111.616C135.382 117.964 133.733 125.666 134.321 133.615L134.43 134.966C135.012 141.989 136.054 151.022 141.806 155.636C142.243 155.987 142.726 156.253 143.227 156.415C139.521 162.776 136.479 169.84 134.66 176.973C127.713 204.219 133.053 232.634 141.407 258.894C142.093 261.058 145.358 262.496 147.02 260.381C149.988 256.601 154.3 253.718 159.15 253.178C162.142 252.845 165.121 253.448 167.948 252.087C169.058 251.551 170.129 250.674 170.898 249.608C175.672 251.421 180.813 252.277 185.912 252.066C194.28 251.722 203.225 248.819 208.982 242.45C209.906 241.427 210.14 240.28 209.927 239.245C209.205 238.987 208.464 238.795 207.7 238.674C200.4 242.986 192.353 245.867 183.704 246.048C178.707 246.153 173.833 245.452 169.781 242.325C168.904 241.648 168.098 240.899 167.353 240.094C158.881 234.633 152.908 225.357 150.068 215.421C147.423 206.155 147.748 196.507 148.658 187.003L149.138 181.988C149.838 174.627 150.487 167.244 150.669 159.852L150.614 159.849C148.825 159.733 148.812 156.926 150.614 157.043C155.275 157.345 159.901 156.579 164.548 156.913C164.587 154.712 164.745 152.52 165.391 150.397C165.759 149.184 167.867 148.945 168.09 150.397C168.389 152.34 168.498 154.272 168.531 156.224C175.485 156.131 182.433 155.545 189.388 155.786C190.671 154.414 191.079 151.983 191.679 150.291C191.767 150.042 191.854 149.797 191.945 149.548C192.473 151.965 193.22 154.329 194.204 156.643L195.909 156.649C205.588 156.695 215.463 156.985 224.914 158.999C225.57 158.493 225.961 157.612 226.067 156.811C226.753 151.601 227.731 146.529 229.465 141.565L229.713 140.864C229.733 140.806 229.755 140.744 229.777 140.679C231.055 142.746 232.579 144.672 234.242 146.466C235.222 147.524 236.249 148.535 237.304 149.517C238.328 150.657 239.387 151.779 240.413 152.923C240.373 153.131 240.338 153.342 240.309 153.557C239.995 155.929 239.963 158.335 240.193 160.717C240.608 165.023 241.821 169.172 243.77 173.01L243.832 173.394C244.128 175.193 244.549 177.052 245.532 178.406C244.305 179.784 243.36 181.429 242.812 183.257C242.324 184.885 244.571 186.295 245.736 184.964C246.662 183.905 247.69 183.03 248.82 182.331C248.891 182.428 249.02 182.476 249.165 182.395C252.311 180.645 257.655 181.174 260.798 182.823C264.707 184.871 266.233 189.076 265.799 193.337C265.382 197.409 263.604 202.168 260.157 204.254C258.575 205.212 257.343 205.293 255.664 204.833C255.127 204.687 254.461 204.239 254.175 204.016L253.894 203.79C252.792 202.918 251.767 202.32 250.467 202.297C249.137 201.882 247.801 202.458 247.292 203.856L247.261 203.946C247.023 204.658 246.589 205.552 246.684 206.639C246.782 207.804 247.313 208.863 248.108 209.715C248.244 209.862 248.391 210.009 248.542 210.146C234.858 224.992 233.101 248.124 240.118 266.669C240.423 267.483 240.748 268.286 241.088 269.082C242.26 271.811 246.775 270.966 247.348 268.262C247.52 267.452 247.709 266.645 247.915 265.845C248.295 264.368 248.73 262.904 249.22 261.461L249.406 260.921C249.823 259.729 250.211 258.526 250.631 257.334L250.673 257.197C250.689 257.143 250.706 257.081 250.726 257.011L251.436 258.565L253.595 263.254C254.606 265.442 257.816 264.253 257.936 262.144L257.938 262.072C257.949 261.682 257.963 261.297 257.987 260.914C258.141 258.049 258.635 255.265 259.419 252.54L259.702 252.892C263.913 258.109 268.856 263 275.636 264.204C277.337 264.506 279.262 262.724 278.093 261.002C277.61 260.29 277.145 259.561 276.704 258.821C277.085 258.642 277.446 258.456 277.778 258.267C280.35 256.818 282.492 254.756 284.263 252.417C288.018 247.458 289.362 241.215 289.691 235.106C290.041 228.65 289.474 221.842 287.714 215.614C286.951 212.92 285.918 210.336 284.725 207.828C284.809 207.604 284.889 207.379 284.97 207.155C286.258 203.557 287.315 199.878 288.193 196.157C289.964 188.645 290.916 180.894 291.031 173.175C291.241 159.347 288.861 145.297 283.846 132.402C278.667 119.103 270.877 106.292 260.276 96.6299ZM266.726 217.532C267.677 216.031 270.057 217.384 269.174 218.895L269.141 218.949C267.632 221.33 266.926 224.038 266.058 226.692C265.501 228.4 262.796 227.671 263.359 225.945L263.546 225.369C264.41 222.677 265.197 219.941 266.726 217.532ZM258.442 188.886L257.811 188.58C255.817 187.627 254.071 186.978 251.716 187.81C248.563 188.921 245.186 192.46 247.317 195.894C248.101 197.16 249.494 197.665 250.929 197.366C253.348 196.864 253.972 194.681 255.199 192.889L255.411 192.585C256.159 191.501 257.105 190.002 258.351 189.577C258.635 189.479 258.754 189.037 258.442 188.886ZM256.665 115.989L256.462 115.807C255.107 114.607 257.095 112.629 258.442 113.822C264.609 119.282 266.751 127.829 269.949 135.113C270.667 136.751 268.255 138.182 267.531 136.53C264.48 129.579 262.455 121.264 256.665 115.989ZM182.563 113.601C184.174 112.873 185.584 115.223 184.035 115.996L183.977 116.024C178.531 118.489 176.214 124.073 173.996 129.256C173.289 130.911 170.877 129.484 171.577 127.843L171.978 126.913C174.293 121.571 176.993 116.126 182.563 113.601ZM174.027 110.227C175.735 109.634 176.466 112.342 174.773 112.934C170.157 114.544 166.989 118.016 164.319 121.986C163.318 123.473 160.893 122.07 161.904 120.569C165.005 115.961 168.687 112.093 174.027 110.227Z" fill="black"/>
<path fill-rule="evenodd" clip-rule="evenodd" d="M183.173 226.293C185.531 225.331 187.634 223.727 189.172 221.678C189.707 220.965 189.845 220.213 189.733 219.525C189.607 218.751 189.149 218.05 188.525 217.58C187.899 217.108 187.116 216.875 186.358 216.994C185.7 217.097 185.045 217.457 184.527 218.204L184.418 218.354C183.504 219.591 182.313 220.605 180.955 221.26C179.647 221.89 178.183 222.184 176.669 222.013C173.785 221.687 171.797 220.128 169.684 218.01C169.422 217.742 169.16 217.466 168.897 217.186C168.731 216.932 168.5 216.769 168.243 216.683C167.959 216.588 167.637 216.593 167.342 216.696C167.058 216.795 166.804 216.983 166.633 217.234C166.471 217.472 166.38 217.765 166.409 218.103C166.603 220.298 167.75 222.258 169.381 223.796C171.191 225.504 173.591 226.686 175.851 227.101C178.34 227.557 180.876 227.23 183.173 226.293ZM174.676 192.429C172.028 194.039 167.993 197.793 170.842 201.784C174.195 205.302 179.024 201.268 181.403 199.443C183.609 198.029 186.088 201.666 184.041 203.317C166.848 216.046 159.871 192.85 173.337 190.537C174.819 190.282 175.37 191.931 174.676 192.429ZM205.486 177.622C205.193 173.99 199.662 173.165 199.112 176.759C198.619 179.979 199.199 182.936 200.649 185.835C202.035 188.604 205.517 187.312 205.781 184.791C206.134 181.411 205.668 179.882 205.486 177.622ZM163.379 176.014C162.608 175.004 161.494 174.315 160.16 174.704C155.992 175.922 157.221 181.84 158.685 184.72C159.48 186.284 162.051 186.681 163.213 185.304C165.107 183.058 166.014 178.573 163.606 176.36C163.541 176.246 163.468 176.131 163.379 176.014ZM200.708 161.73L200.049 161.614C198.013 161.262 195.48 160.924 194.039 162.561C193.275 163.43 193.012 165.044 194.039 165.875C195.846 167.337 197.844 166.77 200.009 166.894C201.793 166.997 203.508 167.292 205.227 167.783C208.998 168.861 212.07 170.828 215.291 172.989C215.714 173.272 216.145 172.732 215.943 172.336C214.084 168.695 210.481 165.704 206.873 163.881C204.947 162.907 202.839 162.1 200.708 161.73ZM167.179 160.098L166.675 160.202C161.191 161.348 154.066 163.638 151.469 169.024C151.37 169.786 151.474 169.949 151.559 170.056L151.588 170.092C151.658 170.183 151.714 170.308 152.044 170.412C152.135 170.39 152.228 170.367 152.321 170.342C153.512 170.03 154.454 169.601 155.365 169.155L156.354 168.668C157.501 168.105 158.658 167.563 159.884 167.163C162.501 166.31 165.193 165.708 167.927 165.387C168.519 165.318 169.09 165.118 169.54 164.775C169.967 164.45 170.294 163.999 170.442 163.401C170.635 162.626 170.58 162.039 170.164 161.341C169.852 160.816 169.404 160.452 168.891 160.243C168.367 160.03 167.771 159.98 167.179 160.098Z" fill="black"/>
</svg>
