<svg width="445" height="565" viewBox="0 0 445 565" fill="none" xmlns="http://www.w3.org/2000/svg">
<path fill-rule="evenodd" clip-rule="evenodd" d="M371.716 249.792C367.901 239.411 370.766 226.269 362.904 217.679C360.578 216.283 359.345 217.06 358.388 219.495C357.81 222.699 356.456 233.732 361.325 233.727C361.938 240.618 361.555 247.558 360.055 254.321C356.462 253.751 353.842 255.576 351.221 256.933C349.266 257.945 347.31 258.697 344.95 258.002C335.204 256.305 332.427 266.416 332.309 274.67C332.166 278.697 331.783 288.084 329.987 291.992C321.862 275.364 304.796 267.795 288.536 264.057C285.987 263.36 283.812 262.408 282.177 260.781C268.477 255.437 275.058 237.926 268.755 227.862C258.89 215.898 247.042 212.455 232.115 214.505C219.056 215.932 210.179 229.039 210.984 241.412C211.225 243.936 209.692 246.592 208.79 249.19C199.775 259.847 185.748 264.615 173.684 271.055C133.445 290.487 119.5 305.336 103.863 346.684C96.5475 362.241 87.793 377.34 84.8855 394.473C81.4689 414.663 81.4582 435.331 82.6476 455.72C80.4271 455.983 82.8435 471.656 84.7912 477.086C85.4585 478.947 87.0576 480.288 89.05 480.257C93.0577 482.182 102.467 489.938 106.659 489.681C120.203 488.856 133.368 490.131 146.417 489.472C160.534 488.759 174.515 486.157 188.692 486.494C213.416 487.083 195.715 488.533 221.294 489.681C237.442 490.416 296.352 481.703 312.453 483.125C325.55 485.848 331.525 481.258 329.527 467.74C328.789 462.558 326.43 451.034 334.19 450.544C337.86 450.965 340.898 454.589 343.649 456.707C367.938 474.574 392.753 461.709 394.708 432.335C398.39 407.699 403.551 401.879 392.331 377.277C356.831 285.691 410.316 298.134 374.204 255.237C371.384 257.663 372.101 251.188 371.716 249.792Z" fill="#DB79E2"/>
<path fill-rule="evenodd" clip-rule="evenodd" d="M201.265 269.337C224.402 280.996 242.699 286.826 256.156 286.826C269.613 286.826 293.315 289.541 327.262 294.97L344.024 331.368L381.013 338.508L381.177 339.459C382.979 349.674 386.422 362.034 392.331 377.277C403.551 401.879 398.389 407.699 394.708 432.335C392.753 461.709 367.938 474.575 343.649 456.707C340.898 454.589 337.86 450.965 334.189 450.544C326.585 451.024 328.698 462.101 329.481 467.422L329.527 467.74C331.525 481.259 325.55 485.848 312.453 483.126C296.352 481.703 237.442 490.417 221.294 489.681C195.715 488.533 213.416 487.083 188.692 486.495C174.515 486.157 160.534 488.759 146.417 489.472C134.055 490.096 121.588 488.985 108.793 489.568L89.0499 480.258C81.7479 428.599 82.8572 394.726 92.378 378.641C101.851 362.637 114.536 336.327 130.433 299.712C130.676 299.454 130.922 299.2 131.17 298.946L201.265 269.337Z" fill="#DB79E2"/>
<path fill-rule="evenodd" clip-rule="evenodd" d="M358.225 216.993C360.162 215.112 363.242 215.58 365.131 217.253C367.054 218.951 368.211 221.622 369.198 223.924C371.97 230.401 372.603 237.262 373.238 244.145C373.618 248.259 373.998 252.38 374.836 256.431C378.937 258.619 382.638 261.476 385.259 265.319C389.241 271.156 391.13 277.955 389.133 284.873C388.526 286.98 387.669 288.996 386.812 291.013L386.812 291.013L386.812 291.014L386.811 291.014C386.213 292.423 385.614 293.832 385.1 295.273C383.765 299.003 382.948 302.878 382.556 306.817C382.172 310.682 382.12 314.568 382.231 318.447C382.29 320.456 382.397 322.462 382.504 324.467C382.526 324.876 382.56 325.288 382.593 325.702C382.708 327.111 382.824 328.54 382.488 329.902L382.434 330.104C382.604 330.078 382.77 330.046 382.937 330.009C383.261 329.938 383.577 329.857 383.889 329.778C384.948 329.508 385.96 329.249 387.111 329.399C388.272 329.549 388.875 330.506 388.383 331.587C388.168 332.058 387.884 332.453 387.54 332.789C389.204 344.945 391.557 356.992 393.911 369.04L393.912 369.041L393.912 369.042C395.795 378.681 397.678 388.319 399.208 398.013C400.768 407.909 401.719 417.834 401.182 427.854L401.126 428.847C400.58 438.047 399.237 448.185 394.505 456.23C392.294 459.997 389.255 463.339 385.573 465.746C383.887 466.849 382.079 467.711 380.116 468.142C369.941 472.146 359.182 471.163 349.588 465.871C345.274 463.492 340.97 460.719 337.447 457.278C335.735 455.605 334.083 453.476 333.069 451.149C333.07 451.321 333.061 451.494 333.051 451.667C333.032 452.02 333.012 452.375 333.084 452.72L333.297 453.738C333.601 455.173 334.066 457.344 334.621 459.934L334.624 459.944C336.994 470.999 341.001 489.691 341.066 491.591C341.105 492.706 332.737 492.815 329.947 492.851H329.947L329.94 492.852L329.929 492.852C329.562 492.856 329.294 492.86 329.157 492.864L329.124 492.866C311.66 493.585 294.185 493.201 276.73 492.488L275.353 492.431C270.146 492.213 264.798 491.972 259.395 491.729L259.391 491.729C247.23 491.181 234.791 490.621 223.059 490.283H223.059C223.033 490.286 223.013 490.288 222.993 490.289C222.922 490.294 222.85 490.29 222.526 490.276C222.109 490.256 221.276 490.218 219.492 490.153C213.941 490.026 208.389 489.44 202.838 488.853C195.182 488.044 187.527 487.236 179.873 487.631C171.877 488.044 163.897 488.685 155.918 489.327L155.885 489.33L155.884 489.33L155.884 489.33C153.405 489.529 150.927 489.729 148.447 489.921L148.183 487.7C147.869 485.085 147.536 482.381 147.195 479.606C144.376 456.71 140.966 429.018 142.914 407.683C143.085 405.811 140.126 405.822 139.957 407.683C138.012 428.98 141.406 456.573 144.223 479.468C144.677 483.165 145.117 486.739 145.517 490.144C141.059 490.478 136.599 490.782 132.135 491.014L130.996 491.071C115.804 491.822 100.123 491.866 85.2545 488.424C84.796 488.318 84.6407 487.865 84.7369 487.488C84.589 487.572 84.3671 487.525 84.3043 487.32C83.0704 483.302 82.2691 474.857 81.6265 468.085C81.367 465.35 81.1334 462.889 80.9076 461.101L80.8548 460.694C80.0488 454.656 79.5867 448.548 79.2539 442.473C78.5811 430.319 78.6624 418.151 79.5719 406.013C82.4668 367.295 93.9946 328.179 118.189 297.063C124.038 289.541 130.697 282.659 138.686 277.337C146.524 272.113 155.316 268.435 164.237 265.447C170.134 263.47 176.124 261.779 182.113 260.091C182.34 259.979 182.567 259.869 182.795 259.76L183.137 259.598C183.798 259.289 184.456 258.97 185.114 258.651L185.115 258.651L185.115 258.651L185.116 258.65C186.577 257.942 188.041 257.233 189.545 256.621L190.027 256.427C193.188 255.174 196.87 254.066 200.292 254.104C205.834 251.346 210.489 247.178 210.038 240.493C209.853 237.746 214.216 237.75 214.371 240.493C214.778 247.792 210.227 252.968 204.426 256.442L204.454 256.47L204.481 256.5C205.387 257.516 206.356 258.458 207.402 259.335C213.665 264.603 221.588 268.976 229.507 271.854C238.798 275.233 248.082 276.245 257.691 273.513C262.716 272.084 267.459 269.881 271.818 267.032C273.149 266.162 274.425 265.231 275.648 264.234C274.491 262.67 273.567 260.986 272.79 259.2C271.231 255.605 269.94 250.736 271.533 246.941C271.925 246.005 273.482 245.428 274.025 246.619C274.681 248.046 275.17 249.524 275.658 251.002C276.285 252.898 276.912 254.794 277.892 256.585C278.558 257.797 279.323 258.948 280.181 260.033C280.181 260.091 286.732 261.198 286.732 261.198C294.652 261.194 302.109 264.201 309.115 267.956C313.257 270.176 317.327 272.537 321.385 274.902L329.317 279.525C329.715 279.757 330.147 279.984 330.588 280.216L330.59 280.216L330.597 280.22C330.8 280.327 331.005 280.435 331.21 280.545C330.444 276.811 330.071 273.004 330.322 269.231C330.703 263.54 332.944 257.315 338.878 255.288C341.684 254.327 344.93 254.623 347.655 255.689C348.912 256.183 350.28 256.836 351.448 257.709C352.014 255.196 354.398 253.311 356.794 252.479C357.57 252.208 358.365 252.036 359.171 251.952C359.148 251.549 359.145 251.141 359.151 250.721L359.157 250.404C359.194 248.541 359.179 246.677 359.138 244.818C359.064 241.293 358.894 237.841 358.532 234.327C358.344 232.517 358.069 230.721 357.795 228.924L357.794 228.923L357.794 228.921C357.627 227.83 357.461 226.739 357.313 225.645L357.152 224.399C357.134 224.263 357.115 224.125 357.095 223.985L357.095 223.984L357.095 223.978C356.768 221.604 356.381 218.783 358.225 216.993ZM353.742 343.928C353.751 342.048 350.793 342.046 350.784 343.928C350.724 356.947 347.329 369.427 343.931 381.919C341.11 392.288 338.287 402.665 337.368 413.364C337.207 415.238 340.166 415.227 340.325 413.364C341.245 402.665 344.066 392.299 346.886 381.939L346.886 381.939C350.285 369.451 353.682 356.971 353.742 343.928ZM334.385 268.972C334.833 263.459 337.968 257.735 344.445 258.674C346.616 258.988 351.433 260.639 350.416 263.532C350.376 263.65 350.331 263.763 350.28 263.868C349.88 264.292 349.51 264.742 349.178 265.216C347.479 266.457 344.679 266.3 342.527 266.179L342.526 266.179C342.282 266.165 342.046 266.152 341.821 266.141L341.55 266.13C339.868 266.068 339.48 268.694 341.151 269.056C343.092 269.479 345.192 269.805 347.2 269.578C347.104 269.958 347.026 270.341 346.967 270.725L346.966 270.725C346.874 270.744 346.786 270.762 346.693 270.776C346.024 270.886 345.347 270.882 344.675 270.827C343.495 270.74 342.656 272.029 342.944 273.074C343.259 274.195 344.564 274.671 345.58 274.13C346.006 273.907 346.412 273.658 346.804 273.381C346.982 278.374 349.873 283.131 355.186 284.566C355.237 284.581 355.285 284.577 355.326 284.559C355.899 285.998 356.809 287.303 357.944 288.358C356.31 288.573 354.705 289.94 353.821 291.131C352.161 293.381 351.574 296.899 353.463 299.12C354.753 300.639 356.983 299.602 357.56 298.053C357.895 297.158 357.91 296.136 357.925 295.116C357.936 294.382 357.947 293.649 358.077 292.965C358.22 292.211 358.477 291.49 358.733 290.773L358.733 290.772C358.9 290.304 359.067 289.837 359.201 289.363C360.868 290.502 362.865 291.152 364.954 291.065C367.305 290.966 369.934 289.827 370.851 287.54C371.161 286.769 371.206 286.035 371.113 285.315C373.235 286.732 376.685 287.551 378.722 286.155C379.498 285.622 379.665 284.376 378.722 283.879C377.701 283.341 376.783 283.285 375.729 283.274L374.988 283.269C374.47 283.264 373.955 283.23 373.44 283.196C372.605 283.14 371.771 283.085 370.932 283.152C370.81 283.164 370.695 283.196 370.592 283.247L370.573 283.187L370.572 283.186C370.405 282.673 370.236 282.156 370.115 281.629C371.032 281.429 371.912 281.099 372.755 280.607C373.172 280.358 373.568 279.821 373.505 279.31C373.268 277.372 371.41 277.853 369.806 278.269C369.233 278.417 368.692 278.557 368.27 278.575L368.189 278.58C367.307 278.653 366.613 279.329 366.595 280.226C366.573 281.249 366.769 282.214 367.068 283.193C367.126 283.378 367.204 283.586 367.288 283.807L367.288 283.808C367.577 284.572 367.926 285.496 367.671 286.17C366.939 288.077 363.689 287.708 362.266 287.105C357.675 285.168 357.335 279.706 358.819 275.613L358.912 275.364C359.748 273.206 361.134 270.956 363.334 269.943C365.367 269.011 367.764 269.13 369.964 269.374L370.525 269.439C373.165 269.753 375.809 270.283 378.389 270.93C378.777 271.026 379.163 271.126 379.549 271.225C381.585 271.749 383.608 272.27 385.724 272.347C385.78 272.351 385.828 272.329 385.865 272.299C386.667 274.254 387.14 276.321 387.211 278.447C387.322 281.794 386.297 284.946 385.055 288.015C384.815 288.609 384.57 289.201 384.326 289.792L384.323 289.8L384.318 289.811C383.289 292.302 382.265 294.781 381.547 297.388C380.663 300.577 380.097 303.861 379.735 307.145C379.317 310.897 379.214 314.678 379.262 318.447C379.288 320.457 379.35 322.462 379.454 324.468L379.464 324.668C379.477 324.988 379.486 325.312 379.495 325.638V325.639V325.64C379.535 327.157 379.576 328.722 380.16 330.104C380.208 330.221 380.275 330.327 380.352 330.422C380.246 330.435 380.14 330.448 380.033 330.46C379.934 330.472 379.834 330.484 379.734 330.495L377.743 330.711C374.979 331.002 372.207 331.216 369.431 331.317C366.558 331.419 363.597 331.394 360.75 330.999C358.687 330.714 356.757 330.177 354.816 329.586C355.721 327.685 355.112 325.293 354.577 323.19C354.528 322.996 354.479 322.804 354.432 322.615L354.255 321.892C353.533 318.992 352.606 316.152 351.359 313.428C350.05 310.568 348.449 307.938 346.575 305.403L346.38 305.138L345.656 304.155C344.552 302.668 343.339 301.12 341.92 299.971C341.506 299.182 341.136 298.36 340.77 297.541C339.569 294.831 338.582 292.019 337.672 289.202C337.106 287.448 336.567 285.666 336.086 283.861C334.803 278.995 333.982 273.976 334.385 268.972ZM360.055 254.988C357.19 254.988 354.483 255.912 352.317 258.429C353.089 259.156 353.707 260 354.047 260.99C355.108 260.416 356.232 259.967 357.382 259.649C360.891 258.681 365.689 258.696 368.64 261.074C370.185 262.316 368.488 264.544 366.824 264.16C366.298 264.039 365.796 263.881 365.298 263.725C364.386 263.438 363.488 263.156 362.477 263.108C361.12 263.043 359.789 263.218 358.487 263.605C356.502 264.197 354.698 265.318 353.37 266.864C352.927 267.382 352.539 267.945 352.213 268.552C349.736 273.198 351.603 279.861 355.023 283.686C353.681 279.28 355.019 274.086 357.692 270.437C360.911 266.043 365.724 265.545 370.795 266.231L370.962 266.254C375.868 266.937 381.942 268.131 385.61 271.693C385.244 270.871 384.822 270.075 384.349 269.304C381.569 264.781 376.958 261.253 372.174 258.736C371.372 258.308 370.562 257.914 369.756 257.549C366.691 256.157 363.275 254.988 360.055 254.988ZM361.611 220.526L361.623 220.475C361.763 220.515 361.885 220.603 361.989 220.738C362.462 221.326 362.88 221.877 363.268 222.535C366.069 227.293 367.152 232.625 368.233 237.945C368.275 238.15 368.317 238.355 368.359 238.56L368.562 239.554C369.123 242.261 369.53 244.994 369.937 247.727C370.281 250.036 370.625 252.344 371.062 254.638C370.3 254.316 369.535 254.013 368.766 253.724C366.621 252.928 364.262 252.179 361.904 251.956C362.39 250.498 362.579 248.875 362.754 247.372C362.8 246.977 362.845 246.59 362.894 246.217L362.954 245.748C363.356 242.456 363.426 239.028 363.246 235.722C363.109 233.186 362.766 230.661 362.422 228.141C362.301 227.246 362.179 226.351 362.066 225.457L362.039 225.245C361.991 224.894 361.933 224.533 361.873 224.165C361.679 222.961 361.474 221.693 361.604 220.555L361.611 220.526Z" fill="#DB79E2"/>
<path fill-rule="evenodd" clip-rule="evenodd" d="M239.833 98.2458C260.782 98.2458 287.823 111.257 290.129 124.583C292.846 140.287 307.397 200.545 304.111 219.869C300.826 239.193 283.119 253.104 254.785 253.104C226.451 253.104 205.303 237.805 200.447 232.552C195.591 227.299 186.592 208.544 186.592 208.544C186.592 208.544 171.422 206.547 171.35 194.302C171.278 182.058 181.213 177.603 181.213 177.603C181.213 177.603 177.671 129.282 186.592 116.701C195.514 104.121 218.885 98.2458 239.833 98.2458Z" fill="#DB79E2"/>
<path fill-rule="evenodd" clip-rule="evenodd" d="M288.846 122.433C288.831 122.152 289.245 122.119 289.322 122.367C293.841 137.151 296.627 148.672 299.56 163.828L300.426 168.287C302.741 180.178 305.079 192.087 307.054 204.037L307.169 204.75C308.159 210.935 308.729 217.181 307.489 223.379C306.33 229.173 303.165 234.484 299.055 238.714C291.112 246.89 280.073 251.996 268.968 254.28C263.353 255.434 257.56 255.88 251.838 255.478C248.986 255.28 246.138 254.882 243.345 254.294L243.037 254.229C240.222 253.627 237.723 252.909 236.228 250.286C235.852 249.626 236.003 248.493 236.793 248.153C238.283 247.518 239.379 247.251 241.006 247.434C242.559 247.609 244.076 248.073 245.611 248.362C248.544 248.913 251.525 249.191 254.509 249.257C260.372 249.385 266.249 248.658 271.853 246.926C281.482 243.949 291.267 238.254 296.893 229.735C303.511 219.714 300.876 207.552 299.122 196.485L299.069 196.15C297.294 184.838 295.538 173.526 293.834 162.207L293.107 157.355C291.197 144.537 289.392 135.386 288.846 122.433ZM191.082 91.0574C195.887 87.921 201.859 87.1503 207.504 87.1936L208.211 87.2024C215.439 87.3115 251.823 88.1688 264.004 88.4326L266.902 88.493C270.738 88.5647 278.473 88.6395 282.459 88.7116L282.689 88.7158C284.644 88.7524 286.6 88.767 288.555 88.8291L288.842 88.8393C290.306 88.9012 291.525 89.1182 292.672 90.1405C293.256 90.6586 293.483 91.4488 293.43 92.2015L293.421 92.2994L296.325 92.5515C298.296 92.724 299.339 94.4748 298.556 96.2465L298.516 96.3323C297.125 99.2693 296.063 107.817 295.318 110.977C294.927 112.639 294.613 114.327 294.428 116.025C294.281 117.363 294.266 118.703 293.514 119.879C291.908 122.389 287.393 122.367 287.312 118.813C287.308 118.699 287.312 118.59 287.323 118.484C275.959 117.991 260.446 118.038 249.097 118.71C238.497 119.339 227.946 120.763 217.56 122.944C214.93 123.496 212.307 124.098 209.702 124.752C207.566 125.286 204.943 125.604 203.031 126.747C200.892 128.033 200.932 130.338 201.165 132.533C201.414 134.86 201.83 133.661 202.42 135.782L202.456 135.916C203.065 138.217 203.817 140.493 204.813 142.656C205.382 143.89 206.297 145.077 205.95 146.498C205.754 147.298 205.116 148.153 204.529 148.712C201.858 151.251 197.342 149.633 195.527 153.11C193.628 156.747 193.58 161.673 193.419 165.697L193.41 165.932C193.292 168.705 193.325 171.485 193.509 174.25C193.675 176.77 194.354 179.266 193.483 181.688C192.848 183.448 190.775 183.613 189.691 182.181C189.566 182.016 189.452 181.848 189.345 181.678L189.241 181.509L189.234 181.512C189.336 181.673 189.432 181.838 189.525 182.005C189.624 182.192 189.377 182.396 189.226 182.235C186.673 179.485 182.943 180.033 180.054 181.958C177.128 183.916 175.973 187.635 175.822 190.97C175.653 194.67 175.985 199.007 177.541 202.425C178.198 203.872 179.135 205.202 180.689 205.753C181.394 206.002 182.065 205.969 182.799 206.027C183.562 206.085 184.481 206.466 185.222 206.414C186.186 206.347 187.051 207.436 186.778 208.348L186.758 208.409C186.743 208.453 186.728 208.497 186.714 208.537C186.75 208.57 186.787 208.61 186.813 208.668C189.617 214.341 193.461 219.39 197.711 224.073C199.84 226.414 202.201 228.566 204.67 230.557C205.887 231.54 207.171 232.523 208.525 233.315C208.975 233.574 209.388 233.75 209.894 233.892C210.13 233.958 210.399 233.991 210.628 234.067L210.865 234.148C210.882 234.153 210.897 234.158 210.912 234.162C211.591 234.239 212.163 234.685 212.388 235.383C212.974 237.202 211.908 238.809 210.086 239.309C208.111 239.856 206.25 238.896 204.685 237.794L204.581 237.72C201.39 235.445 198.449 232.891 195.904 229.91C190.868 224.025 187.713 217.213 186.252 209.677C185.891 210.447 185.404 211.12 184.559 211.587C183.245 212.318 181.677 212.318 180.238 212.073C177.342 211.587 174.874 209.837 173.225 207.47C171.513 205.015 170.875 202.035 170.487 199.13C170.104 196.222 169.916 193.304 170.299 190.389C170.849 186.203 172.624 182.064 176.073 179.77C173.491 174.199 173.037 167.952 173.221 161.852C173.446 154.341 174.756 146.747 175.763 139.306L178.627 118.151L178.744 117.299C179.435 112.322 180.276 107.319 182.157 102.63C184.013 98.009 186.831 93.83 191.082 91.0574ZM179.032 191.134C183.762 188.862 188.872 190.955 191.417 195.364C193.631 199.198 187.05 201.731 185.952 197.78L185.92 197.658C185.197 194.667 182.252 192.08 179.18 191.678C178.925 191.642 178.736 191.277 179.032 191.134Z" fill="#DB79E2"/>
<path fill-rule="evenodd" clip-rule="evenodd" d="M244.444 198.242C254.245 198.242 262.19 191.373 262.19 182.9C262.19 174.426 254.245 167.557 244.444 167.557C234.642 167.557 224.035 174.148 224.035 182.621C224.035 186.216 226.902 192.499 229.298 195.114C232.548 198.663 238.801 198.242 244.444 198.242Z" fill="white"/>
<path fill-rule="evenodd" clip-rule="evenodd" d="M286.686 195.306C294.189 195.306 300.271 189.094 300.271 181.431C300.271 173.769 294.189 167.557 286.686 167.557C279.183 167.557 271.063 173.517 271.063 181.179C271.063 184.431 273.258 190.112 275.092 192.477C277.58 195.686 282.367 195.306 286.686 195.306Z" fill="white"/>
<path fill-rule="evenodd" clip-rule="evenodd" d="M244.196 207.773C244.274 207.702 244.396 207.677 244.49 207.735C246.09 208.735 246.279 212.096 246.297 214.037C246.959 214.207 247.612 214.401 248.231 214.536C249.543 214.823 250.863 215.073 252.181 215.337L253.168 215.539C256.468 216.226 259.83 216.734 263.193 216.989C266.457 217.236 269.815 217.326 273.07 216.911C274.467 216.732 275.857 216.434 277.207 216.036C278.804 215.566 280.075 214.786 281.56 214.103C285.277 212.392 288.392 217.405 284.815 219.605C281.744 221.492 277.554 222.173 274.01 222.465C270.386 222.763 266.777 222.436 263.198 221.87C259.328 221.257 255.537 220.316 251.867 218.952C250.315 218.376 248.813 217.677 247.347 216.912L246.948 216.702C246.704 216.573 246.45 216.442 246.195 216.309C245.92 218.729 245.129 221.068 244.172 223.315L244.15 223.276C243.627 225.049 241.737 226.146 239.856 225.363C237.649 224.444 237.481 222.033 238.766 220.321L238.827 220.241C240.337 218.322 241.283 215.941 242.105 213.671C242.527 212.508 242.917 211.316 243.256 210.126C243.501 209.265 243.51 208.399 244.196 207.773ZM301.07 188.495C299.762 192.402 296.909 195.41 292.934 196.733C288.995 198.044 284.615 197.566 280.588 196.857C279.707 196.702 278.815 196.531 277.923 196.331C278.653 196.777 279.297 197.406 279.913 198.07C280.825 199.052 281.652 200.087 281.902 201.316C282.151 202.536 281.759 203.464 281.044 204.165C279.944 205.242 278.17 205.822 276.668 206.143C273.302 206.862 269.932 206.75 266.583 206.013C265.728 205.825 265.148 205.372 264.823 204.781C264.428 204.064 264.395 203.171 264.622 202.358C264.849 201.546 265.339 200.797 266.05 200.382C266.635 200.041 267.367 199.948 268.198 200.221C269.865 200.769 271.521 201.132 273.282 201.174C274.028 201.191 274.778 201.169 275.522 201.102C275.943 201.064 276.363 201.011 276.781 200.944C276.535 200.621 276.296 200.291 276.063 199.958C275.787 199.565 275.518 199.166 275.261 198.761C274.52 197.587 273.902 196.381 273.359 195.107C273.185 194.699 273.024 194.289 272.869 193.878C272.847 193.819 272.824 193.76 272.802 193.7C272.754 193.661 272.707 193.621 272.66 193.581C271.598 192.673 270.708 191.556 270.079 190.171C268.374 186.421 268.652 181.766 269.686 177.872C270.515 174.751 272.344 171.864 274.761 169.903C275.183 169.217 275.462 168.801 275.803 168.45C277.192 167.022 279.131 166.059 281.022 165.474C285.247 164.165 289.848 165.104 293.429 167.596C296.735 169.897 299.324 173.348 300.722 177.186C302.047 180.821 302.306 184.808 301.07 188.495ZM243.528 164.756C248.552 164.713 253.663 166.179 257.74 169.112C261.641 171.919 264.703 176.062 264.699 180.998C264.695 185.803 262.096 190.528 259.212 194.248C255.976 198.425 251.746 200.439 246.428 200.486C243.664 200.51 240.879 200.268 238.135 199.936L236.662 199.752C234.635 199.494 232.586 199.188 230.664 198.5C221.516 195.221 221.232 183.39 224.62 175.827C227.237 169.988 233.858 164.294 240.46 164.978C241.455 164.84 242.477 164.765 243.528 164.756ZM252.013 170.319C245.721 167.529 238.077 168.365 231.974 171.342C229.557 173.948 227.79 177.233 227.075 180.248C226.311 183.466 226.423 186.934 227.571 190.053C228.972 193.861 232.424 194.805 236.147 195.39L237.592 195.614L238.199 195.705C241.857 196.244 245.856 196.663 249.372 195.988C253.29 195.236 255.778 192.108 257.737 188.902L257.828 188.752C259.862 185.392 261.565 181.306 259.859 177.457C258.408 174.185 255.24 171.751 252.013 170.319ZM289.148 171.292C286.989 170.11 284.526 169.895 282.194 170.686C281.191 171.026 280.325 171.578 279.484 172.197L279.149 172.447C278.115 173.231 277.15 173.628 276.375 174.687L276.275 174.828C275.884 175.406 275.199 175.637 274.576 175.56C273.849 177.539 273.55 179.679 273.544 181.785L273.544 182.064L273.548 182.349C273.594 184.839 274.034 187.885 276.017 189.554C277.826 191.076 280.565 191.442 283.01 191.654L284.894 191.809L285.395 191.846C287.972 192.023 290.796 191.963 292.956 190.456C294.837 189.143 295.724 186.914 295.954 184.714C296.498 179.516 293.835 173.858 289.148 171.292ZM242.149 171.772C245.614 170.024 249.776 170.462 252.711 172.653C252.45 172.703 252.194 172.767 251.938 172.894C251.272 173.224 250.859 173.884 250.701 174.587C250.524 175.382 250.94 176.134 251.734 176.384C252.425 176.602 253.244 176.702 253.885 176.287C254.221 176.07 254.456 175.784 254.61 175.424L254.632 175.371L254.659 175.332L254.669 175.314C254.672 175.307 254.66 175.32 254.64 175.35C254.66 175.305 254.678 175.26 254.696 175.214C254.723 175.16 254.749 175.105 254.77 175.049C254.808 175.017 254.842 174.981 254.876 174.946C255.409 175.757 255.828 176.672 256.093 177.69C257.799 184.227 250.804 191.011 244.555 191.69C242.193 191.946 240.04 191.391 238.252 190.296C238.269 190.274 238.287 190.255 238.301 190.232C239.019 190.36 239.876 190.042 240.137 189.251C240.802 187.233 240.12 184.872 237.894 184.212C236.462 183.788 234.997 184.257 233.973 185.224C233.199 183.352 232.922 181.244 233.288 179.133C233.805 176.155 235.623 173.471 238.453 172.232C239.831 171.628 241.019 171.502 242.149 171.772ZM278.636 175.805L278.742 175.641C279.812 174.013 281.859 172.016 283.98 172.565C284.278 172.643 284.57 172.767 284.833 172.928C285.998 172.771 287.218 173.033 288.22 173.642L288.193 173.71C288.189 173.722 288.185 173.733 288.182 173.745C288.091 174.141 288.144 174.507 288.331 174.871C288.534 175.265 288.823 175.639 289.215 175.865C289.484 176.02 289.8 176.101 290.11 176.095C290.564 176.087 290.964 175.89 291.293 175.588C291.471 175.424 291.596 175.184 291.665 174.937C291.827 175.091 291.984 175.262 292.133 175.456C294.592 178.651 294.253 183.784 291.368 186.632C291.251 186.747 291.127 186.851 291.005 186.957C289.834 188.55 288.028 189.631 285.86 189.85C283.852 190.053 281.845 189.466 280.305 188.263C280.429 188.198 280.545 188.114 280.645 188.002C280.908 187.708 281.124 187.418 281.284 187.059C281.324 186.969 281.363 186.878 281.399 186.786L281.453 186.647C281.462 186.622 281.544 186.388 281.522 186.429L281.517 186.439L281.546 186.371C281.822 185.692 281.71 184.915 281.056 184.489L280.984 184.445C280.77 184.321 280.506 184.263 280.238 184.263C279.57 183.455 278.576 183.27 277.643 183.506L277.611 183.245C277.606 183.201 277.601 183.158 277.598 183.114C276.875 180.747 277.224 178.056 278.636 175.805ZM246.545 151.97L246.786 151.933C248.6 151.673 249.834 151.972 251.014 153.504C251.576 154.234 251.403 155.337 251.014 156.083C249.758 158.495 246.301 157.996 243.974 158.475C241.701 158.942 239.434 159.578 237.307 160.504C235.137 161.449 233.101 162.566 231.115 163.842C229.318 164.997 227.689 166.732 225.636 167.404C225.544 167.434 225.433 167.353 225.439 167.256C225.585 164.95 227.534 162.833 229.044 161.19C230.791 159.291 232.915 157.605 235.127 156.264C237.409 154.881 239.877 153.743 242.432 152.949C243.777 152.53 245.153 152.198 246.545 151.97ZM274.192 155.101C276.476 151.8 282.156 152.433 285.508 153.315C289.71 154.42 294.264 156.656 297.21 159.893C299.85 162.792 295.901 166.559 292.933 164.119L292.141 163.47L291.634 163.059C289.355 161.22 287.099 159.556 284.322 158.33C281.066 156.893 277.767 156.193 274.326 155.428C274.191 155.398 274.111 155.217 274.192 155.101Z" fill="#DB79E2"/>
<path fill-rule="evenodd" clip-rule="evenodd" d="M364.462 248.455C360.844 238.489 363.562 225.871 356.104 217.625C353.898 216.284 352.728 217.03 351.82 219.368C351.271 222.444 349.987 233.036 354.606 233.031C355.187 239.647 354.824 246.31 353.401 252.803C349.993 252.256 347.508 254.008 345.021 255.31C343.167 256.282 341.312 257.004 339.073 256.337C329.828 254.708 327.194 264.415 327.082 272.339C326.946 276.205 326.583 285.217 324.879 288.969C317.172 273.006 300.984 265.738 285.559 262.15C283.142 261.481 281.078 260.567 279.528 259.005C266.532 253.874 272.775 237.062 266.796 227.401C257.438 215.914 246.199 212.609 232.041 214.578C219.653 215.948 211.232 228.531 211.996 240.409C212.225 242.833 210.77 245.382 209.914 247.877C201.363 258.108 188.058 262.686 176.614 268.869C138.444 287.524 125.216 301.781 110.383 341.477C103.444 356.413 95.14 370.908 92.382 387.357C89.1412 406.741 89.131 426.583 90.2592 446.157C88.1529 446.41 90.4451 461.457 92.2926 466.67C92.9256 468.456 94.4424 469.744 96.3324 469.715C100.134 471.562 109.06 479.008 113.036 478.761C125.884 477.97 138.372 479.194 150.749 478.561C164.14 477.877 177.402 475.378 190.851 475.702C214.303 476.268 197.512 477.66 221.776 478.761C237.093 479.468 292.974 471.102 308.247 472.468C320.671 475.081 326.338 470.676 324.443 457.697C323.742 452.722 321.505 441.658 328.866 441.188C332.347 441.592 335.23 445.072 337.838 447.105C360.879 464.259 384.417 451.907 386.272 423.707C389.764 400.054 394.66 394.467 384.017 370.847C350.342 282.92 401.077 294.866 366.822 253.682C364.147 256.011 364.827 249.795 364.462 248.455Z" fill="#D08B5B"/>
<path fill-rule="evenodd" clip-rule="evenodd" d="M202.777 267.219C224.724 278.413 242.08 284.009 254.845 284.009C267.61 284.009 290.093 286.616 322.294 291.828L338.195 326.772L373.281 333.627L373.437 334.541C375.146 344.347 378.412 356.214 384.017 370.847C394.66 394.467 389.764 400.054 386.272 423.707C384.417 451.907 360.879 464.259 337.838 447.105C335.229 445.072 332.347 441.592 328.865 441.188C321.652 441.649 323.657 452.284 324.399 457.391L324.443 457.697C326.338 470.676 320.671 475.082 308.247 472.468C292.974 471.102 237.093 479.468 221.776 478.762C197.512 477.66 214.303 476.268 190.851 475.703C177.402 475.379 164.14 477.877 150.749 478.561C139.023 479.16 127.197 478.094 115.06 478.653L96.3322 469.715C89.4057 420.119 90.4581 387.6 99.4892 372.157C108.475 356.792 120.508 331.533 135.587 296.381C135.818 296.133 136.051 295.889 136.286 295.646L202.777 267.219Z" fill="#DB79E2"/>
<path fill-rule="evenodd" clip-rule="evenodd" d="M351.665 216.966C353.503 215.16 356.424 215.609 358.216 217.215C360.04 218.846 361.137 221.41 362.074 223.62C364.703 229.838 365.304 236.426 365.906 243.033C366.266 246.983 366.627 250.939 367.422 254.829C371.311 256.929 374.822 259.672 377.308 263.361C381.086 268.965 382.878 275.492 380.984 282.134C380.408 284.157 379.595 286.093 378.782 288.029L378.782 288.029C378.214 289.382 377.645 290.735 377.158 292.119C375.892 295.7 375.117 299.421 374.745 303.202C374.38 306.912 374.331 310.643 374.436 314.368C374.492 316.297 374.594 318.222 374.696 320.147C374.716 320.538 374.748 320.932 374.78 321.328L374.78 321.33L374.78 321.331L374.78 321.333V321.333C374.889 322.686 374.999 324.058 374.68 325.365L374.629 325.559C374.79 325.534 374.948 325.503 375.106 325.468C375.414 325.399 375.713 325.322 376.009 325.246C377.014 324.986 377.973 324.738 379.065 324.882C380.167 325.026 380.738 325.945 380.272 326.983C380.068 327.435 379.798 327.814 379.472 328.137C381.05 339.807 383.283 351.373 385.516 362.94L385.516 362.94L385.517 362.942C387.303 372.195 389.089 381.448 390.541 390.755C392.021 400.256 392.922 409.785 392.413 419.404L392.36 420.358C391.841 429.19 390.568 438.923 386.08 446.647C383.982 450.263 381.1 453.472 377.607 455.783C376.007 456.842 374.292 457.67 372.43 458.083C362.779 461.927 352.573 460.984 343.472 455.902C339.38 453.619 335.297 450.957 331.955 447.653C330.331 446.047 328.764 444.003 327.803 441.769C327.804 441.933 327.795 442.099 327.786 442.265V442.266V442.266C327.767 442.605 327.749 442.945 327.817 443.277L328.019 444.254C328.307 445.634 328.75 447.721 329.277 450.212L329.277 450.213C331.526 460.827 335.327 478.771 335.389 480.595C335.425 481.666 327.488 481.771 324.841 481.806C324.484 481.81 324.224 481.814 324.092 481.818L324.061 481.819C307.495 482.51 290.918 482.141 274.361 481.457L273.054 481.402C268.122 481.193 263.057 480.962 257.94 480.729L257.918 480.728C246.381 480.202 234.58 479.664 223.45 479.34C223.434 479.342 223.421 479.343 223.408 479.344L223.387 479.346C223.32 479.35 223.252 479.347 222.944 479.333L222.942 479.332C222.547 479.314 221.756 479.278 220.066 479.215C214.801 479.093 209.535 478.53 204.268 477.967C197.007 477.191 189.745 476.414 182.484 476.794C174.9 477.19 167.331 477.806 159.762 478.422L159.73 478.425C157.378 478.616 155.027 478.807 152.675 478.992L152.424 476.86C152.127 474.35 151.811 471.753 151.487 469.089C148.813 447.108 145.579 420.522 147.427 400.039C147.589 398.241 144.782 398.252 144.621 400.039C142.777 420.486 145.996 446.976 148.668 468.957C149.099 472.506 149.516 475.937 149.895 479.206C145.667 479.527 141.436 479.819 137.201 480.041L136.121 480.097C121.71 480.817 106.835 480.86 92.7319 477.555C92.297 477.453 92.1497 477.018 92.2409 476.657C92.1006 476.737 91.8902 476.692 91.8306 476.495C90.6602 472.637 89.9001 464.53 89.2905 458.028C89.0443 455.403 88.8227 453.04 88.6086 451.323L88.5585 450.933C87.794 445.135 87.3556 439.272 87.04 433.439C86.4017 421.771 86.4788 410.089 87.3416 398.435C90.0876 361.264 101.023 323.711 123.973 293.838C129.521 286.616 135.837 280.009 143.416 274.899C150.851 269.885 159.191 266.353 167.653 263.484C173.247 261.587 178.928 259.963 184.61 258.343C184.825 258.235 185.04 258.129 185.256 258.025L185.581 257.869C186.208 257.572 186.833 257.266 187.457 256.96L187.457 256.959L187.458 256.959L187.458 256.959L187.458 256.959L187.458 256.959L187.458 256.959C188.845 256.279 190.233 255.598 191.659 255.011L192.116 254.825C195.115 253.622 198.608 252.558 201.854 252.595C207.111 249.947 211.526 245.946 211.099 239.527C210.923 236.89 215.062 236.893 215.209 239.527C215.595 246.534 211.278 251.504 205.775 254.839L205.801 254.866L205.827 254.895C206.687 255.87 207.606 256.775 208.598 257.617C214.539 262.674 222.055 266.872 229.567 269.635C238.38 272.879 247.186 273.851 256.301 271.228C261.067 269.856 265.567 267.741 269.701 265.006C270.964 264.171 272.174 263.277 273.335 262.32C272.237 260.819 271.36 259.202 270.624 257.487C269.144 254.036 267.92 249.361 269.431 245.717C269.803 244.819 271.28 244.265 271.795 245.409C272.417 246.779 272.881 248.197 273.344 249.616C273.939 251.436 274.533 253.257 275.464 254.976C276.095 256.14 276.821 257.245 277.634 258.286C277.634 258.343 283.849 259.405 283.849 259.405C291.361 259.402 298.435 262.288 305.081 265.893C309.009 268.025 312.87 270.292 316.719 272.562L324.243 277C324.621 277.223 325.03 277.44 325.449 277.663L325.45 277.663C325.645 277.767 325.842 277.872 326.039 277.979C325.313 274.394 324.959 270.74 325.197 267.117C325.558 261.653 327.684 255.678 333.312 253.731C335.974 252.808 339.053 253.093 341.638 254.117C342.831 254.59 344.128 255.218 345.236 256.056C345.773 253.643 348.035 251.833 350.308 251.034C351.044 250.774 351.798 250.61 352.563 250.529C352.54 250.142 352.538 249.75 352.543 249.347L352.549 249.042C352.584 247.253 352.57 245.465 352.531 243.68C352.461 240.295 352.3 236.981 351.956 233.607C351.777 231.87 351.517 230.146 351.257 228.421L351.257 228.42L351.257 228.42L351.257 228.419L351.256 228.416L351.256 228.414C351.098 227.368 350.94 226.321 350.8 225.272L350.647 224.076C350.636 223.99 350.624 223.904 350.612 223.816L350.593 223.672C350.283 221.393 349.915 218.684 351.665 216.966ZM347.412 338.831C347.421 337.025 344.615 337.023 344.607 338.831C344.55 351.329 341.329 363.311 338.106 375.304C335.43 385.259 332.752 395.221 331.88 405.493C331.728 407.292 334.534 407.282 334.686 405.493C335.558 395.221 338.234 385.269 340.909 375.323C344.134 363.334 347.356 351.353 347.412 338.831ZM329.051 266.868C329.476 261.576 332.45 256.08 338.594 256.982C340.653 257.283 345.222 258.869 344.258 261.646C344.219 261.759 344.177 261.867 344.128 261.969C343.749 262.376 343.399 262.807 343.083 263.263C341.472 264.454 338.815 264.303 336.774 264.187C336.542 264.174 336.318 264.161 336.104 264.151L335.848 264.14C334.252 264.08 333.884 266.602 335.469 266.949C337.31 267.356 339.302 267.668 341.207 267.45C341.116 267.815 341.042 268.183 340.986 268.551L340.985 268.552C340.898 268.57 340.814 268.587 340.726 268.601C340.092 268.706 339.45 268.702 338.811 268.65C337.693 268.566 336.897 269.804 337.17 270.807C337.468 271.883 338.706 272.339 339.671 271.82C340.074 271.606 340.46 271.368 340.832 271.101C341 275.895 343.742 280.462 348.782 281.84C348.831 281.854 348.877 281.85 348.915 281.833C349.459 283.215 350.322 284.467 351.398 285.48C349.848 285.687 348.326 286.999 347.488 288.142C345.913 290.302 345.356 293.68 347.148 295.812C348.372 297.271 350.486 296.275 351.034 294.788C351.352 293.929 351.366 292.948 351.381 291.968C351.391 291.264 351.401 290.56 351.525 289.903C351.66 289.179 351.904 288.487 352.147 287.798C352.305 287.349 352.463 286.9 352.591 286.444C354.172 287.539 356.066 288.163 358.048 288.079C360.278 287.984 362.772 286.89 363.641 284.694C363.936 283.954 363.978 283.25 363.89 282.559C365.904 283.919 369.176 284.705 371.108 283.365C371.844 282.853 372.002 281.657 371.108 281.18C370.139 280.663 369.268 280.61 368.269 280.6L367.566 280.595C367.075 280.59 366.586 280.557 366.098 280.524C365.306 280.471 364.515 280.417 363.719 280.483C363.603 280.493 363.494 280.525 363.396 280.574L363.378 280.517C363.219 280.024 363.058 279.527 362.944 279.02C363.813 278.828 364.648 278.512 365.448 278.038C365.844 277.8 366.219 277.284 366.16 276.793C365.935 274.933 364.172 275.395 362.651 275.794C362.107 275.936 361.594 276.071 361.194 276.088L361.117 276.093C360.28 276.162 359.622 276.812 359.605 277.673C359.584 278.655 359.77 279.581 360.054 280.521C360.108 280.698 360.182 280.896 360.26 281.107L360.262 281.111L360.262 281.112C360.536 281.846 360.867 282.732 360.625 283.379C359.931 285.21 356.848 284.856 355.498 284.277C351.143 282.418 350.821 277.173 352.229 273.244L352.317 273.005C353.11 270.933 354.425 268.773 356.512 267.801C358.44 266.906 360.714 267.02 362.801 267.255L363.333 267.317C365.837 267.619 368.344 268.127 370.792 268.748C371.16 268.841 371.526 268.936 371.892 269.031L371.893 269.032C373.824 269.535 375.743 270.035 377.75 270.109C377.803 270.112 377.848 270.091 377.884 270.063C378.645 271.939 379.094 273.924 379.16 275.965C379.266 279.178 378.294 282.204 377.116 285.15C376.886 285.724 376.653 286.294 376.421 286.864L376.419 286.869L376.416 286.875C375.44 289.266 374.469 291.646 373.787 294.149C372.949 297.211 372.412 300.364 372.069 303.517C371.673 307.119 371.574 310.748 371.62 314.368C371.645 316.297 371.704 318.222 371.802 320.147L371.811 320.34C371.825 320.647 371.833 320.959 371.841 321.273C371.879 322.73 371.919 324.231 372.472 325.559C372.518 325.671 372.581 325.773 372.655 325.864C372.459 325.888 372.264 325.912 372.068 325.934L370.179 326.142C367.558 326.421 364.928 326.627 362.295 326.723C359.57 326.821 356.761 326.797 354.06 326.418C352.103 326.144 350.273 325.629 348.431 325.061C349.29 323.236 348.712 320.94 348.205 318.921L348.178 318.814C348.14 318.664 348.103 318.515 348.067 318.369L347.899 317.674C347.215 314.891 346.335 312.164 345.152 309.549C343.911 306.803 342.392 304.278 340.614 301.844L340.43 301.59L339.742 300.646C338.695 299.218 337.544 297.732 336.199 296.629C335.806 295.871 335.455 295.082 335.108 294.297C333.968 291.695 333.032 288.994 332.169 286.29C331.633 284.607 331.121 282.895 330.665 281.163C329.448 276.491 328.669 271.673 329.051 266.868ZM353.401 253.443C350.683 253.443 348.116 254.33 346.061 256.747C346.794 257.445 347.379 258.255 347.702 259.205C348.709 258.655 349.775 258.224 350.865 257.918C354.194 256.989 358.746 257.003 361.544 259.286C363.01 260.478 361.401 262.618 359.822 262.249C359.323 262.133 358.847 261.981 358.374 261.831C357.509 261.556 356.657 261.285 355.698 261.239C354.411 261.176 353.148 261.345 351.914 261.716C350.031 262.285 348.319 263.361 347.06 264.845C346.639 265.343 346.271 265.883 345.962 266.465C343.613 270.926 345.384 277.323 348.628 280.995C347.355 276.765 348.624 271.778 351.16 268.275C354.213 264.057 358.778 263.578 363.588 264.237L363.747 264.259C368.401 264.915 374.163 266.061 377.642 269.481C377.295 268.692 376.895 267.927 376.445 267.187C373.809 262.846 369.435 259.458 364.897 257.041C364.136 256.631 363.368 256.252 362.603 255.902C359.696 254.565 356.456 253.443 353.401 253.443ZM354.877 220.358L354.888 220.308C355.021 220.347 355.137 220.432 355.235 220.561C355.684 221.126 356.08 221.655 356.448 222.286C359.105 226.855 360.133 231.973 361.159 237.082C361.198 237.278 361.238 237.475 361.277 237.672L361.471 238.626C362.003 241.225 362.389 243.848 362.775 246.472C363.101 248.688 363.427 250.905 363.841 253.107C363.119 252.798 362.393 252.507 361.663 252.23C359.629 251.465 357.392 250.746 355.155 250.532C355.615 249.133 355.795 247.574 355.961 246.131C356.005 245.752 356.047 245.381 356.094 245.023L356.151 244.572C356.532 241.412 356.598 238.12 356.427 234.947C356.298 232.511 355.972 230.088 355.646 227.668C355.531 226.809 355.415 225.95 355.309 225.092L355.282 224.888C355.237 224.552 355.182 224.205 355.126 223.852C354.941 222.695 354.747 221.479 354.87 220.386L354.877 220.358Z" fill="black"/>
<path fill-rule="evenodd" clip-rule="evenodd" d="M239.362 102.962C259.233 102.962 284.884 115.453 287.071 128.247C289.649 143.323 303.451 201.175 300.335 219.727C297.218 238.279 280.422 251.634 253.545 251.634C226.668 251.634 206.607 236.946 202.001 231.903C197.395 226.86 188.859 208.854 188.859 208.854C188.859 208.854 174.469 206.936 174.4 195.181C174.332 183.426 183.756 179.149 183.756 179.149C183.756 179.149 180.396 132.758 188.859 120.68C197.322 108.602 219.491 102.962 239.362 102.962Z" fill="#D08B5B"/>
<path fill-rule="evenodd" clip-rule="evenodd" d="M285.855 126.182C285.84 125.913 286.232 125.881 286.306 126.12C290.593 140.313 293.236 151.373 296.018 165.925L296.839 170.205C299.035 181.622 301.253 193.055 303.126 204.527L303.236 205.212C304.174 211.15 304.715 217.146 303.539 223.097C302.44 228.659 299.437 233.758 295.538 237.819C288.004 245.668 277.532 250.571 266.999 252.763C261.672 253.871 256.178 254.299 250.75 253.913C248.044 253.723 245.343 253.341 242.694 252.777L242.401 252.714C239.731 252.136 237.361 251.447 235.942 248.929C235.586 248.295 235.729 247.208 236.478 246.881C237.892 246.271 238.931 246.015 240.474 246.191C241.948 246.359 243.387 246.804 244.842 247.081C247.625 247.611 250.452 247.877 253.284 247.941C258.844 248.063 264.419 247.365 269.735 245.703C278.869 242.845 288.151 237.377 293.488 229.199C299.766 219.578 297.266 207.902 295.602 197.277L295.552 196.955C293.868 186.095 292.203 175.235 290.586 164.368L289.897 159.71C288.084 147.404 286.373 138.619 285.855 126.182ZM193.117 96.0607C197.676 93.0496 203.341 92.3097 208.696 92.3512L209.366 92.3597C216.222 92.4644 250.735 93.2875 262.29 93.5407L265.039 93.5988C268.677 93.6676 276.015 93.7394 279.796 93.8086L280.014 93.8127C281.869 93.8478 283.724 93.8618 285.578 93.9214L285.85 93.9312C287.24 93.9907 288.396 94.199 289.484 95.1804C290.037 95.6779 290.253 96.4365 290.203 97.1591L290.194 97.2531L292.949 97.4951C294.819 97.6608 295.808 99.3417 295.065 101.043L295.027 101.125C293.708 103.945 292.7 112.151 291.993 115.185C291.622 116.78 291.324 118.401 291.149 120.031C291.01 121.315 290.996 122.602 290.282 123.731C288.759 126.141 284.476 126.12 284.399 122.707C284.396 122.599 284.399 122.493 284.41 122.392C273.631 121.918 258.915 121.964 248.15 122.609C238.095 123.212 228.086 124.58 218.234 126.674C215.739 127.203 213.251 127.782 210.78 128.41C208.754 128.922 206.266 129.227 204.453 130.325C202.423 131.559 202.462 133.772 202.682 135.88C202.919 138.114 203.313 136.963 203.872 138.999L203.907 139.127C204.484 141.337 205.198 143.522 206.143 145.598C206.682 146.783 207.55 147.923 207.221 149.287C207.036 150.055 206.43 150.876 205.874 151.413C203.34 153.85 199.056 152.296 197.335 155.635C195.533 159.126 195.488 163.856 195.335 167.719L195.326 167.945C195.214 170.607 195.245 173.276 195.42 175.93C195.578 178.35 196.221 180.746 195.396 183.071C194.793 184.761 192.827 184.919 191.798 183.544C191.68 183.386 191.572 183.225 191.47 183.062L191.371 182.899L191.364 182.902C191.462 183.057 191.553 183.215 191.641 183.376C191.735 183.555 191.501 183.751 191.357 183.597C188.935 180.956 185.397 181.482 182.657 183.33C179.882 185.21 178.786 188.78 178.643 191.983C178.482 195.534 178.797 199.698 180.274 202.98C180.897 204.369 181.785 205.646 183.259 206.175C183.928 206.414 184.564 206.382 185.261 206.438C185.985 206.494 186.857 206.859 187.56 206.81C188.474 206.745 189.294 207.791 189.035 208.667L189.016 208.725C189.002 208.767 188.988 208.809 188.974 208.848C189.009 208.879 189.044 208.918 189.068 208.974C191.728 214.42 195.375 219.267 199.406 223.763C201.426 226.011 203.665 228.077 206.007 229.988C207.162 230.932 208.379 231.875 209.664 232.636C210.091 232.885 210.482 233.053 210.963 233.19C211.186 233.253 211.442 233.285 211.659 233.358L211.884 233.436C211.899 233.441 211.914 233.445 211.928 233.45C212.572 233.523 213.114 233.951 213.328 234.621C213.884 236.367 212.873 237.911 211.144 238.391C209.271 238.916 207.506 237.994 206.021 236.936L205.923 236.865C202.895 234.681 200.106 232.229 197.692 229.367C192.914 223.718 189.922 217.177 188.537 209.942C188.193 210.682 187.731 211.327 186.93 211.776C185.684 212.477 184.197 212.477 182.832 212.242C180.085 211.776 177.743 210.096 176.179 207.824C174.555 205.467 173.95 202.605 173.582 199.817C173.218 197.025 173.04 194.223 173.404 191.425C173.926 187.405 175.609 183.432 178.881 181.23C176.431 175.881 176.001 169.884 176.176 164.027C176.389 156.817 177.631 149.526 178.587 142.382L181.303 122.073L181.414 121.254C182.07 116.476 182.867 111.673 184.652 107.171C186.412 102.735 189.086 98.7226 193.117 96.0607ZM181.688 192.14C186.174 189.958 191.021 191.968 193.436 196.201C195.535 199.881 189.293 202.314 188.251 198.52L188.221 198.403C187.535 195.531 184.742 193.048 181.827 192.662C181.586 192.628 181.407 192.277 181.688 192.14Z" fill="black"/>
<path fill-rule="evenodd" clip-rule="evenodd" d="M255.233 228.31C255.233 228.31 260.202 232.146 269.469 232.146C278.735 232.146 284.118 228.714 284.118 228.714C284.118 228.714 275.995 223.78 269.469 223.381C262.942 222.981 255.233 228.31 255.233 228.31Z" fill="#FF6C6C"/>
<path fill-rule="evenodd" clip-rule="evenodd" d="M244.186 218.558C244.222 214.694 247.571 214.027 250.752 214.543C256.137 215.414 261.542 216.027 267 216.137L267.941 216.154C268.092 215.933 268.345 215.765 268.689 215.728C271.715 215.401 274.805 215.454 277.847 215.365C280.501 215.287 283.228 215.021 285.882 215.23L286.093 215.248C289.336 215.562 292.758 217.217 292.367 221.023C292.006 224.547 288.637 227.667 285.947 229.626C285.403 230.018 284.847 230.386 284.275 230.721C284.095 230.95 283.833 231.11 283.531 231.142C280.881 232.573 277.958 233.42 274.932 233.702C268.517 234.299 261.059 233.653 254.898 230.873C252.895 229.969 251.026 228.84 249.374 227.454C246.827 225.316 244.157 222.074 244.186 218.558ZM269.812 225.518C267.24 225.441 264.673 225.8 262.224 226.594C260.564 227.129 259.051 228.159 257.46 228.875C262.82 230.919 269.048 231.365 274.547 230.993C276.959 230.83 279.298 230.273 281.477 229.317C281.138 229.072 280.794 228.822 280.434 228.605C279.347 227.947 278.21 227.387 277.024 226.941C274.715 226.074 272.278 225.596 269.812 225.518ZM270.324 192.429C269.63 191.931 270.18 190.282 271.663 190.537C285.129 192.85 278.152 216.046 260.959 203.317C258.912 201.666 261.391 198.029 263.597 199.443L264.38 200.047C266.927 201.999 271.14 204.95 274.158 201.783C277.007 197.793 272.972 194.039 270.324 192.429ZM279.44 174.874C282.303 172.431 285.893 174.231 288 176.705L288.372 177.147C288.793 177.652 289.26 178.24 289.541 178.868C291.876 176.88 295.043 175.48 298.073 176.389C301.012 177.273 302.688 180.079 302.184 183.091C301.611 186.516 299.019 188.818 296.234 190.599L295.445 191.1C292.098 193.234 288.967 195.383 286.213 198.315C285.763 198.792 284.792 198.729 284.498 198.094L284.26 197.584L284.021 197.073C282.067 192.907 279.973 188.769 278.255 184.504C276.982 181.344 276.568 177.322 279.44 174.874ZM247.245 176.582C249.343 174.141 252.895 172.506 255.698 174.874C258.682 177.395 258.096 181.565 256.767 184.781C255.166 188.66 253.297 192.453 251.501 196.258L251.117 197.073C250.956 197.413 250.798 197.754 250.641 198.094C250.346 198.729 249.371 198.792 248.925 198.315C246.257 195.474 243.237 193.372 240.013 191.306L239.039 190.687C236.209 188.891 233.533 186.573 232.951 183.091C232.453 180.085 234.118 177.262 237.061 176.388C240.098 175.487 243.258 176.876 245.597 178.868C245.876 178.224 246.356 177.617 246.809 177.086L247.245 176.582ZM250.646 159.574C251.671 160.904 250.577 163.078 249.081 163.421C247.229 163.847 245.357 163.588 243.539 164.117C241.872 164.601 240.276 165.572 238.847 166.539C237.218 167.641 235.718 168.872 234.339 170.275C233.519 171.109 232.486 173.086 231.222 173.123C229.964 173.159 231.652 169.228 231.791 168.887C232.783 166.466 234.176 164.237 235.918 162.285C239.355 158.434 246.634 154.369 250.646 159.574ZM289.032 158.51L289.89 158.748C292.013 159.339 294.28 160.064 296.101 161.337L296.244 161.438L296.465 161.599C298.752 163.304 301.986 166.706 300.366 169.674C300.255 169.878 300.018 169.898 299.827 169.815C297.672 168.871 296.075 166.987 293.783 166.198L293.36 166.054C291.14 165.307 288.394 164.52 286.005 164.592C284.325 165.138 282.057 164.686 281.619 162.641L281.6 162.541L281.562 162.329C281.31 160.932 281.684 159.15 283.129 158.477C285.108 157.555 287.039 157.965 289.032 158.51Z" fill="black"/>
</svg>
