<svg width="963" height="318" viewBox="0 0 963 318" fill="none" xmlns="http://www.w3.org/2000/svg">
<rect y="131.658" width="946" height="188" rx="94" transform="rotate(-8 0 131.658)" fill="#DDFF53"/>
<rect x="23.4559" y="140.479" width="902" height="164" rx="82" transform="rotate(-8 23.4559 140.479)" stroke="#1A1A1A" stroke-opacity="0.8" stroke-width="4" stroke-linecap="round" stroke-dasharray="40 40"/>
<path d="M88.1532 260.644L75.5407 170.902L138.664 162.031L141.141 179.65L99.6919 185.475L102.079 202.46L116.022 200.501C126.078 199.087 134.547 200.181 141.43 203.78C148.385 207.284 152.528 213.768 153.858 223.232C155.152 232.443 152.915 239.823 147.146 245.374C141.45 250.827 133.7 254.243 123.898 255.621L88.1532 260.644ZM107.405 240.36L119.067 238.721C128.7 237.367 133.024 233.183 132.038 226.169C131.053 219.156 125.743 216.326 116.11 217.68L104.448 219.318L107.405 240.36ZM173.069 248.71L160.456 158.968L220.791 150.489L223.374 168.868L183.954 174.408L186.323 191.267L223.589 186.029L226.029 203.395L188.764 208.632L191.382 227.265L233.084 221.404L235.685 239.91L173.069 248.71ZM295.501 233.959C281.558 235.919 269.406 233.146 259.045 225.64C248.671 218.05 242.505 207.284 240.545 193.341C238.562 179.229 241.57 167.216 249.57 157.302C257.642 147.292 268.649 141.307 282.592 139.347C289.099 138.433 295.561 138.731 301.977 140.242C308.467 141.657 313.819 144.179 318.035 147.809L305.398 164.579C303.074 162.148 300.169 160.488 296.684 159.599C293.271 158.614 289.747 158.377 286.114 158.887C278.593 159.944 272.75 163.437 268.585 169.365C264.493 175.196 263.005 182.084 264.122 190.027C265.262 198.139 268.56 204.44 274.017 208.93C279.461 213.335 285.944 215.009 293.465 213.952C301.831 212.776 307.741 208.844 311.195 202.154L328.274 214.23C321.129 225.317 310.205 231.893 295.501 233.959ZM340.3 225.207L327.688 135.465L405.515 124.528L418.127 214.27L396.452 217.316L386.423 145.953L351.946 150.799L361.975 222.161L340.3 225.207ZM441.775 211.851C436.62 212.575 432.414 212.693 429.157 212.202L428.402 193.954C430.175 194.308 431.991 194.354 433.85 194.093C437.315 193.606 439.955 192.158 441.771 189.748C443.671 187.327 444.827 182.985 445.24 176.723C445.725 170.364 445.231 161.946 443.758 151.467L439.305 119.779L507.752 110.159L520.365 199.901L498.69 202.947L488.66 131.585L462.676 135.237L464.421 147.658C467.45 169.207 467.161 184.931 463.554 194.83C459.935 204.645 452.676 210.319 441.775 211.851ZM528.812 198.714L553.845 103.681L574.886 100.724L624.765 185.229L600.681 188.613L591.234 171.974L556.503 176.855L552.388 195.401L528.812 198.714ZM560.273 158.617L582.836 155.446L567.352 126.213L560.273 158.617ZM642.353 182.757L632.341 111.521L606.99 115.084L604.389 96.5775L676.766 86.4057L679.367 104.912L654.016 108.475L664.028 179.711L642.353 182.757ZM700.263 174.618L687.65 84.876L709.325 81.8298L714.099 115.8L749.084 110.883L744.309 76.9131L765.984 73.8669L778.597 163.609L756.922 166.655L751.649 129.136L716.665 134.053L721.938 171.572L700.263 174.618ZM843.008 157.012C828.896 158.996 816.617 156.241 806.171 148.747C795.713 141.168 789.492 130.323 787.509 116.211C785.514 102.015 788.48 90.0079 796.406 80.1905C804.418 70.3612 815.522 64.4489 829.718 62.4537C843.999 60.4467 856.303 63.0692 866.628 70.3214C877.039 77.5617 883.241 88.2801 885.237 102.477C887.22 116.589 884.23 128.728 876.266 138.896C868.29 148.978 857.204 155.017 843.008 157.012ZM820.618 131.981C826.171 136.543 832.708 138.296 840.229 137.239C847.749 136.182 853.55 132.695 857.63 126.779C861.711 120.863 863.181 113.849 862.041 105.737C860.924 97.7933 857.595 91.5828 852.054 87.1051C846.513 82.6273 839.982 80.9169 832.462 81.9739C824.941 83.0309 819.134 86.4752 815.042 92.3068C811.034 98.1265 809.589 105.008 810.705 112.951C811.845 121.064 815.149 127.407 820.618 131.981Z" fill="#1A1A1A"/>
</svg>
