<svg width="396" height="495" viewBox="0 0 396 495" fill="none" xmlns="http://www.w3.org/2000/svg">
<path fill-rule="evenodd" clip-rule="evenodd" d="M267.018 315.574C263.617 314.434 260.339 313.117 257.353 311.18C248.743 305.155 243.13 296.087 237.826 287.495C230.354 275 225.031 261.685 221.352 247.795C219.771 241.827 219.234 234.908 215.642 229.617C207.499 218.538 183.622 219.974 170.943 221.919C162.453 223.331 160.698 232.265 158.769 238.876C157.164 244.369 156.113 249.925 155.23 255.554C153.131 256.852 150.761 257.906 148.502 258.824C123.885 265.922 119.558 279.081 110.156 299.407C94.2748 328.95 51.182 340.518 44.6727 375.482C40.4788 398.565 52.4051 420.281 64.701 439.471C76.1522 460.432 92.1389 470.492 117.598 465.54C141.478 460.503 164.427 452.077 187.887 445.567C199.249 442.94 210.593 436.108 222.545 438.49C247.173 443.69 272.476 446.136 297.715 445.461C333.151 446.808 333.146 414.828 329.509 390.063C326.961 351.522 306.287 326.775 267.018 315.574Z" fill="#DDFF53"/>
<path fill-rule="evenodd" clip-rule="evenodd" d="M269.387 371.342C272.348 373.183 274.839 375.975 276.838 378.913C268.492 378.096 260.16 377.155 251.846 376.084C252.935 375.43 254.033 374.79 255.157 374.186C259.256 372.014 264.81 368.496 269.387 371.342ZM130.718 394.54C129.188 393.977 128.597 391.785 128 390.528C126.132 386.587 124.426 382.579 122.652 378.599C129.389 376.793 135.941 374.79 142.921 373.827C150.426 372.793 158.041 372.542 165.615 372.775C180.957 373.245 196.156 375.603 211.239 378.131C226.305 380.656 241.37 383.082 256.54 384.986C271.404 386.851 286.314 388.216 301.253 389.414C304.155 389.647 308.994 390.629 311.328 388.481C313.177 386.78 313.237 383.643 310.924 382.26C309.484 381.398 307.397 381.386 305.751 381.187C303.678 380.936 301.598 380.769 299.513 380.639C298.663 380.587 297.814 380.538 296.964 380.49C303.785 378.071 310.909 376.753 318.304 377.12C318.722 379.509 320.606 381.967 321.637 383.937C323.438 387.376 324.842 390.857 325.763 394.597C327.689 402.414 327.773 410.527 327.229 418.5C326.729 425.147 325.656 432.5 320.11 437.208C315.912 440.773 309.988 442.092 304.492 442.508C298.105 442.99 291.619 442.475 285.285 441.67C276.401 440.54 267.476 439.047 258.767 437.045C241.899 433.168 225.731 426.999 210.814 418.636C203.54 414.558 196.599 409.969 189.224 406.046C181.71 402.048 173.714 398.946 165.319 397.02C155.923 394.865 146.101 393.945 136.444 394.477C134.769 394.569 132.348 395.14 130.718 394.54ZM119.829 390.538C120.817 393.551 121.572 396.991 123.68 399.522C125.767 402.031 128.916 402.916 132.178 403.139C136.112 403.407 140.092 403.235 144.034 403.373C152.119 403.656 160.093 404.89 167.822 407.155C175.025 409.266 181.711 412.559 188.152 416.212C194.108 419.59 199.889 423.217 205.847 426.585C204.261 427.269 202.694 428.008 201.117 428.652C197.811 430.002 194.485 431.304 191.143 432.574C184.554 435.078 177.937 437.522 171.253 439.791C157.774 444.368 144.073 448.367 130.207 451.773C123.594 453.398 116.887 455.295 110.017 455.566C103.925 455.805 98.2816 454.186 93.3683 450.78C83.1773 443.716 75.0694 433.519 68.5151 423.461C64.6212 417.486 61.223 411.207 58.4123 404.716C56.9907 401.433 55.7014 398.1 54.541 394.727C53.9967 393.144 53.4805 391.552 52.9918 389.952C52.7768 389.249 52.5708 388.543 52.3667 387.837C62.7876 384.847 73.3322 382.147 84.1243 380.649C89.8863 379.849 95.7251 379.444 101.55 379.503C104.442 379.532 107.331 379.679 110.208 379.959C111.756 380.11 113.297 380.305 114.833 380.546C115.467 380.645 116.119 380.791 116.773 380.899C117.772 384.118 118.779 387.334 119.829 390.538ZM335.242 377.741C335.803 376.672 336.04 375.621 336.241 374.458C336.395 373.571 336.802 372.323 336.445 371.171C336.046 369.881 334.958 368.727 334.176 367.627C333.314 366.411 332.452 365.194 331.591 363.977C329.869 361.542 328.151 359.106 326.435 356.667C319.43 346.71 312.473 336.723 305.505 326.743C299.321 317.887 293.241 308.951 286.869 300.213C281.42 292.741 275.481 285.393 268.023 279.582C258.593 272.235 247.364 268.774 235.636 266.073C234.355 264.823 232.644 264.14 230.815 264.279C228.231 261.523 226.177 259.599 225.246 256.094C224.8 254.416 224.94 249.7 223.201 248.707C221.136 247.527 220.058 249.089 219.488 250.848C217.583 256.737 219.77 264.653 224.802 270.551C222.682 277.441 219.871 287.234 214.856 292.754C209.486 298.664 202.06 300.504 194.047 300.625C178.766 300.856 163.502 295.516 151.847 286.262C148.304 283.449 145.014 280.308 142.037 276.967C139.804 274.46 137.163 270.592 135.417 267.668C135.417 266.528 133.986 265.337 148.552 264.416C163.118 263.496 164.222 244.742 164.546 242.19C164.81 240.118 165.929 236.901 164.376 235.211C163.716 234.493 162.364 234.377 161.528 234.865C159.952 235.785 159.434 238.138 158.939 239.736C158.245 241.975 155.976 255.867 151.677 257.476C149.665 258.229 147.357 258.243 145.228 258.382C142.599 258.555 139.964 258.681 137.346 258.969C136.38 259.075 135.327 259.368 134.374 259.377C133.754 259.382 133.114 259.099 132.515 258.9C130.493 258.228 128.472 258.733 126.388 258.996C107.968 261.323 89.0008 266.636 73.2887 276.195C59.4399 284.621 49.6832 296.738 43.2453 310.904C36.6765 325.362 32.9114 340.997 29.756 356.388C28.699 361.545 27.7759 366.725 26.9829 371.924C26.2165 376.947 25.2578 382.082 25.0283 387.156C24.9374 389.164 25.4477 391.029 26.2329 392.863C27.1172 394.927 29.2073 395.741 31.2121 396.705C35.6128 398.821 40.2552 400.463 45.0381 401.625C47.9601 406.624 50.4191 411.817 52.3953 417.207C51.6621 418.573 51.6469 420.612 51.5059 421.94C51.1562 425.245 51.0066 428.568 50.9752 431.889C50.9122 438.545 51.3379 445.195 51.6715 451.84C52.0099 458.58 53.1347 485.174 53.318 488.422C53.4605 490.945 53.2686 494.474 54.682 496.713C56.854 500.156 62.2146 500.04 64.6975 497.249C126.388 509.719 242.35 505.963 289.053 499.689C295.13 498.872 293.222 499.778 294.767 498.334C295.927 497.25 296.914 495.394 297.234 493.902C297.663 491.911 296.971 490.108 295.759 488.497C294.484 486.803 294.252 484.06 293.778 482.046C292.659 477.284 292.102 456.371 291.579 454.054C291.416 453.332 291.258 452.569 291.068 451.805C299.635 452.568 308.561 452.568 316.711 449.874C321.333 448.346 325.643 445.946 328.961 442.52C332.978 438.371 335.213 433.148 336.363 427.696C337.846 420.666 338.161 413.384 337.869 406.237C337.464 397.791 335.975 389.226 332.277 381.472C333.494 380.409 334.514 379.127 335.242 377.741Z" fill="#DDFF53"/>
<path fill-rule="evenodd" clip-rule="evenodd" d="M256.162 159.104C254.711 148.196 250.155 136.615 245.362 126.447C234.586 104.946 209.916 101.986 187.8 97.5534C165.976 94.5596 142.866 91.8564 121.371 97.8296C109.287 100.619 104.568 114.18 106.475 124.881C107.563 131.55 110.784 137.861 113.531 144.041C118.991 156.733 122.455 170.321 122.461 184.062C122.086 193.042 120.741 203.292 131.693 207.095C142.115 211.978 142.995 225.216 156.044 232.727C161.321 242.798 175.694 243.684 186.039 246.02C192.578 247.199 199.19 248.067 205.821 248.628C225.019 250.946 240.378 245.704 250.428 229.589C257.153 219.781 262.161 208.457 260.924 196.571C259.691 184.055 257.639 171.604 256.162 159.104Z" fill="#DDFF53"/>
<path fill-rule="evenodd" clip-rule="evenodd" d="M187.966 71.4235C189.062 70.2533 190.75 70.6546 191.775 71.58C192.442 71.7652 193.088 72.0407 193.699 72.4052C195.078 72.2384 196.524 72.2384 197.877 72.2852C198.206 72.1118 198.557 71.9575 198.94 71.8249C201.676 70.8826 204.099 71.3613 206.097 72.6229C207.059 71.7649 208.274 71.2265 209.826 71.3079C211.211 71.3808 212.198 71.995 213.044 72.8041C213.888 71.6577 215.252 70.8399 216.951 70.7261C219.326 70.567 221.609 71.4644 223.502 72.8538C224.604 71.6621 226.107 70.9772 227.782 70.9706C228.884 70.782 230.047 70.8564 231.098 71.1554C232.624 71.5896 233.963 72.403 235.03 73.4588C236.718 71.9357 238.784 70.8399 241.167 70.9997C244.25 71.2096 246.806 73.3457 247.994 75.975C250.081 76.7626 252.007 77.8861 253.618 79.488C253.704 79.5723 253.786 79.6607 253.872 79.7494C254.739 80.051 255.556 80.4786 256.275 81.0416C258.553 82.8279 259.061 85.413 258.307 87.9461C258.413 88.3515 258.503 88.764 258.585 89.176C260.718 89.4817 262.657 90.642 263.759 92.5311C265.267 95.1235 264.97 98.5404 263.337 101.015C262.635 102.08 261.743 102.977 260.742 103.761C261.874 106.184 261.331 109.076 259.505 111.036C259.061 111.711 258.515 112.321 257.9 112.873C258.578 115.378 257.372 117.963 254.965 119.301L254.759 119.787C254.725 119.868 254.689 119.948 254.653 120.028C254.627 120.131 254.594 120.231 254.561 120.331C254.504 121.22 254.193 122.092 253.577 122.914C252.314 124.599 250.749 125.697 249.919 127.663L249.836 127.87C249.479 128.801 248.327 129.457 247.346 129.17C252.796 139.717 255.654 151.452 257.615 162.953C258.594 168.691 259.349 174.448 259.961 180.228L260.561 185.983C261.089 191.099 261.56 196.232 261.563 201.364C261.57 212.975 258.045 224.144 250.479 233.383C243.324 242.117 233.198 248.448 221.759 250.941C209.949 253.511 196.095 252.498 185.505 246.614C182.382 244.883 185.118 240.722 188.295 242.114C194.309 244.751 200.422 246.71 207.089 247.148C213.588 247.578 220.102 246.813 226.265 244.809C236.461 241.492 245.137 234.543 250.714 225.889C253.461 221.625 255.45 216.996 256.509 212.106C257.828 206.01 257.629 199.71 257.145 193.537L257.111 193.116C256.154 181.221 254.892 169.254 252.852 157.478C251.048 147.064 248.276 136.862 244.676 126.885C243.266 125.715 241.689 124.748 240.001 124.013C227.641 123.526 215.259 123.668 202.915 124.472C192.387 125.162 181.911 126.329 171.514 128.029L170.4 128.214C168.098 128.6 165.542 128.821 163.373 129.694C161.513 130.445 160.759 131.889 160.29 133.663C159.11 138.152 158.93 143.065 158.731 147.668C158.535 152.167 158.977 156.704 158.594 161.189C158.27 164.942 157.25 168.782 154.299 171.497C152.755 172.918 150.856 173.695 149.074 174.774C147.921 175.47 147.433 176.188 147.581 177.476C147.902 180.297 150.313 183.851 147.605 186.266C147.128 186.69 146.303 186.745 145.834 186.266C144.717 185.122 143.173 184.248 141.848 183.324C141.293 182.942 141.754 182.198 142.383 182.462C143.212 182.813 144.056 183.225 144.92 183.586C143.013 182.106 140.3 181.38 138.042 180.949C136.904 180.735 135.709 180.673 134.524 180.773C133.649 181.166 132.754 181.531 131.859 181.888C130.722 182.338 129.573 182.746 128.416 183.133C124.403 186.215 122.488 191.227 123.324 196.128C123.781 198.834 125.106 201.777 127.603 203.357C130.562 205.227 134.524 204.424 137.721 205.813C140.715 207.113 142.536 209.738 143.9 212.456L144.468 213.587C145.734 216.093 147.036 218.531 148.765 220.811C150.766 223.451 153.216 225.823 155.89 227.86C157.186 228.845 158.569 229.732 159.997 230.539L160.388 230.758C161.834 231.557 162.869 232.319 162.967 234.009C162.998 234.598 162.604 235.136 162.096 235.441C159.907 236.749 157.73 235.114 155.909 233.972C153.943 232.742 152.064 231.358 150.325 229.848C147.018 226.983 144.158 223.581 141.957 219.887C140.281 217.074 139.327 213.115 136.678 210.935C135.06 209.605 132.774 209.595 130.753 209.351C128.873 209.123 127.095 208.755 125.423 207.882C118.619 204.322 116.696 195.701 118.31 189.04C118.584 187.916 118.967 186.822 119.439 185.769C116.907 186.167 114.062 183.7 115.09 181.21C115.168 181.023 115.258 180.846 115.344 180.665C113.675 179.631 112.358 178.062 111.733 176.011C111.412 174.95 111.365 173.879 111.534 172.844C110.725 172.333 110.056 171.629 109.626 170.763C108.282 170.178 107.09 169.302 106.379 168.05C105.394 166.322 105.519 164.732 106.269 163.299C106.164 163.119 106.062 162.935 105.965 162.747C103.209 161.101 101.287 158.265 101.506 155.121C101.576 154.078 101.849 153.139 102.271 152.293C102.236 152.186 102.201 152.075 102.17 151.968C99.8641 150.864 97.957 149.049 97.277 146.626C96.597 144.188 97.3982 141.757 99.0005 139.886C96.6557 138.27 95.2449 136.013 96.1007 132.599C96.4485 131.211 97.1481 129.948 98.0938 128.883C98.0899 128.851 98.0821 128.818 98.0743 128.784L97.8549 128.624C94.9602 126.471 93.2962 123.728 95.0729 120.355C95.8701 118.838 97.0074 117.781 98.3439 117.085L98.4104 116.886C97.4529 114.953 97.1285 112.806 97.789 110.549C98.3283 108.689 99.6062 107.209 101.24 106.226C101.13 105.393 101.146 104.506 101.322 103.545C101.615 101.921 102.471 100.503 103.721 99.4982C103.768 99.2842 103.827 99.0747 103.893 98.8645C104.315 97.5797 105.105 96.184 106.019 95.1489C106.774 94.2909 107.618 93.9779 108.649 93.9448C108.587 93.1534 108.63 92.3503 108.802 91.5365C109.329 89.0254 111.025 86.6646 113.538 85.5931C114.57 85.1549 115.656 85.0263 116.704 85.1328C117.595 83.3652 119.334 82.0841 121.472 81.8079C122.304 81.6974 123.078 81.7044 123.789 81.8042C124.192 81.6271 124.61 81.4691 125.047 81.3251C125.337 81.2294 125.63 81.141 125.923 81.053C126.912 79.8967 128.213 78.9721 129.733 78.4164C131.488 77.772 133.274 77.8379 134.857 78.3792L135.361 78.2798C136.15 76.991 137.409 75.993 139.343 75.5401C141.539 75.0282 143.794 75.7426 145.522 77.0429C145.529 77.0429 145.537 77.0429 145.549 77.0388C146.452 75.135 147.995 73.8094 150.586 73.9014C152.2 73.9603 153.658 74.7156 154.784 75.7909C155.409 75.7168 156.034 75.6506 156.663 75.5846C157.328 74.8515 158.066 74.1669 158.883 73.552C160.22 72.5426 161.959 72.624 162.944 74.045C163.159 74.3543 163.358 74.6674 163.557 74.9804L164.46 74.9214C165.523 73.57 166.973 72.6568 168.958 72.5835C170.779 72.5131 172.077 73.3531 173.065 74.5274C173.87 74.509 174.679 74.4946 175.488 74.4832C176.43 73.4558 177.54 72.55 178.806 71.7988C179.775 71.2243 181.206 71.4198 181.991 72.1858C182.522 72.7065 183.016 73.25 183.475 73.8127C184.659 72.5621 186.258 71.7384 187.966 71.4235ZM130.448 188.358C132.273 187.379 134.728 188.439 136.494 189.271C138.647 190.284 140.785 191.812 142.102 193.727C143.896 196.334 139.679 198.441 137.792 196.102C136.631 194.662 135.705 193.212 134.298 191.952C133.012 190.796 131.148 190.023 130.409 188.498C130.382 188.447 130.39 188.388 130.448 188.358ZM131.73 125.076L131.764 124.984C132.283 123.646 130.018 123.069 129.504 124.396C128.724 126.407 129.623 128.593 131.731 129.462C132.315 129.702 132.983 129.619 133.335 129.065C133.63 128.6 133.493 127.792 132.914 127.554C131.728 127.065 131.331 126.203 131.73 125.076ZM112.217 121.335C113.351 120.392 111.687 118.834 110.559 119.773C109.506 120.649 108.725 121.838 108.928 123.206C109.135 124.6 110.25 125.584 111.472 126.28C112.766 127.018 113.946 125.108 112.655 124.372L112.51 124.289C111.968 123.972 111.334 123.536 111.242 122.912C111.145 122.249 111.74 121.732 112.217 121.335ZM118.652 104.701L118.733 104.645C119.95 103.826 118.781 101.909 117.549 102.737C116.419 103.497 115.514 104.484 115.418 105.845C115.326 107.168 116.04 108.314 116.974 109.245C118.013 110.28 119.669 108.716 118.632 107.683C117.622 106.676 117.424 105.578 118.652 104.701Z" fill="#DDFF53"/>
<path fill-rule="evenodd" clip-rule="evenodd" d="M216.362 223.495C213.73 222.485 211.381 220.801 209.663 218.649C209.066 217.901 208.912 217.111 209.037 216.388C209.178 215.576 209.689 214.84 210.386 214.346C211.085 213.85 211.96 213.606 212.805 213.731C213.54 213.839 214.272 214.217 214.851 215.002L214.972 215.159C215.993 216.457 217.323 217.523 218.839 218.21C220.3 218.872 221.934 219.181 223.625 219.001C226.846 218.659 229.066 217.021 231.425 214.797C231.718 214.517 232.01 214.227 232.304 213.933C232.49 213.666 232.748 213.495 233.034 213.405C233.352 213.305 233.711 213.31 234.04 213.418C234.358 213.523 234.642 213.72 234.832 213.983C235.013 214.232 235.115 214.541 235.082 214.896C234.866 217.201 233.585 219.258 231.764 220.873C229.742 222.667 227.062 223.908 224.539 224.343C221.76 224.822 218.927 224.479 216.362 223.495ZM225.851 187.938C228.808 189.628 233.314 193.57 230.133 197.76C226.388 201.455 220.996 197.218 218.339 195.302C215.876 193.818 213.108 197.637 215.393 199.37C234.592 212.736 242.384 188.38 227.346 185.951C225.691 185.683 225.076 187.415 225.851 187.938ZM191.446 172.391C191.772 168.577 197.949 167.711 198.564 171.485C199.114 174.865 198.466 177.971 196.847 181.014C195.3 183.922 191.411 182.565 191.116 179.918C190.722 176.369 191.242 174.763 191.446 172.391ZM238.466 170.702C239.327 169.642 240.571 168.918 242.06 169.327C246.715 170.606 245.343 176.819 243.708 179.843C242.82 181.486 239.949 181.902 238.652 180.456C236.537 178.098 235.524 173.389 238.213 171.066C238.285 170.946 238.366 170.825 238.466 170.702ZM196.781 155.704L197.517 155.583C199.791 155.213 202.619 154.857 204.228 156.577C205.082 157.488 205.375 159.183 204.228 160.056C202.211 161.591 199.98 160.996 197.562 161.126C195.569 161.234 193.654 161.544 191.735 162.06C187.524 163.191 184.093 165.257 180.497 167.526C180.025 167.823 179.543 167.256 179.768 166.841C181.844 163.017 185.868 159.876 189.897 157.962C192.048 156.94 194.402 156.092 196.781 155.704ZM234.223 153.991L234.786 154.099C240.91 155.303 248.866 157.707 251.766 163.363C251.877 164.163 251.76 164.334 251.665 164.446L251.633 164.483C251.555 164.579 251.493 164.711 251.124 164.82C251.022 164.797 250.918 164.773 250.814 164.747C249.485 164.419 248.433 163.968 247.415 163.5L246.311 162.988C245.03 162.398 243.738 161.829 242.368 161.409C239.446 160.512 236.44 159.881 233.388 159.544C232.726 159.471 232.089 159.261 231.586 158.901C231.109 158.56 230.745 158.087 230.579 157.458C230.363 156.645 230.425 156.029 230.889 155.295C231.238 154.744 231.738 154.362 232.311 154.142C232.896 153.919 233.561 153.866 234.223 153.991Z" fill="#DDFF53"/>
<path fill-rule="evenodd" clip-rule="evenodd" d="M190.96 225.803C194.131 218.818 201.051 213.685 209.019 211.808C214.87 210.433 221.011 210.477 226.975 211.023C230.1 211.307 233.452 211.539 236.397 212.63C238.912 213.563 240.961 215.325 242.502 217.393C244.336 219.844 245.584 222.65 246.46 225.525C246.584 225.934 246.701 226.346 246.81 226.759C246.43 228.929 245.621 230.775 243.484 232.139C241.398 233.471 238.91 234.016 236.43 234.21C236.186 234.1 235.951 233.987 235.736 233.871C231.87 231.791 229.15 226.874 224.271 227.539C219.917 228.133 217.051 233.284 214.462 236.305C206.151 237.215 197.846 234.867 191.084 230.399C190.741 228.869 190.721 227.327 190.96 225.803ZM252.459 220.504C251.794 218.75 250.957 217.051 249.964 215.45C246.683 210.157 241.646 205.939 235.666 203.529C221.519 197.833 203.215 201.848 191.791 211.189C187.888 214.382 183.943 219.074 182.749 224.122C182.393 224.188 182.057 224.362 181.78 224.608C173.526 219.722 165.026 215.02 158.375 208.247C153.544 203.326 150.185 197.502 148.128 191.102C147.959 190.575 147.056 190.652 147.083 191.235C147.091 191.371 147.099 191.507 147.107 191.644C147.021 191.393 146.614 191.522 146.583 191.765C145.476 199.54 144.091 207.783 145.366 215.598C146.129 220.261 148.382 223.675 151.393 227.361C154.62 231.313 158.273 234.988 162.008 238.512C164.378 240.75 166.854 243.33 169.756 244.971C173.131 246.876 176.96 248.325 180.562 249.796C184.227 251.296 187.946 252.682 191.736 253.884C199.312 256.295 207.142 257.961 215.109 258.691C221.488 259.274 228.778 259.908 234.891 257.652C239.577 255.923 243.359 252.797 246.358 249.037C249.624 244.941 252.206 240.276 253.633 235.357C255.116 230.247 252.772 221.328 252.459 220.504Z" fill="#DDFF53"/>
<path fill-rule="evenodd" clip-rule="evenodd" d="M271.327 159.902C271.004 159.851 270.681 159.804 270.359 159.759C270.107 159.625 269.811 159.521 269.467 159.459C268.682 159.272 267.902 159.145 267.124 159.077C255.95 156.713 230.1 160.07 229.033 169.036C225.475 170.153 222.396 169.153 218.271 169.252C215.132 156.914 160.859 158.656 158.249 166.094C158.239 166.091 158.229 166.089 158.219 166.086C155.711 165.356 152.014 165.532 149.143 165.417C143.014 165.296 136.877 165.81 130.88 167.025C119.65 168.703 104.324 170.668 112.134 183.854C112.136 183.856 112.137 183.859 112.139 183.861L112.14 183.86C113.486 185.157 115.77 184.112 115.855 182.356C113.23 176.109 119.16 175.359 123.724 173.564C135.078 169.729 146.638 169.197 158.382 170.383C159.265 171.361 160.606 172.214 162.023 172.661C169.874 173.886 165.736 179.362 170.699 180.159C169.788 199.249 194.437 209.67 208.72 197.121C214.422 191.878 215.781 184.112 217.104 177.113C217.803 176.965 218.247 176.605 218.507 176.13C220.188 174.551 221.244 173.094 224.569 172.661C227.893 172.227 230.453 173.097 230.799 173.363C230.886 173.528 230.98 173.694 231.089 173.86C231.241 174.107 231.447 174.304 231.682 174.459C228.399 193.469 244.095 205.491 259.94 195.632C266.824 189.542 268.279 180.219 268.567 171.898C269.5 171.368 270.091 170.342 269.768 169.051C269.323 167.273 270.367 165.733 272.029 164.959C274.19 163.955 273.808 160.288 271.327 159.902ZM203.243 168.92C201.276 168.514 200.436 171.365 202.409 171.773C203.806 172.062 204.99 172.724 205.79 173.846L205.875 173.968C206.948 175.575 209.663 174.092 208.582 172.475C207.366 170.656 205.476 169.382 203.243 168.92ZM260.846 167.152C260.153 166.693 259.104 167.034 258.701 167.683C258.258 168.398 258.548 169.193 259.198 169.661L259.264 169.706C259.859 170.101 260.44 170.809 260.512 171.534L260.519 171.624C260.597 173.522 263.733 173.531 263.654 171.624C263.578 169.759 262.429 168.2 260.846 167.152Z" fill="#DDFF53"/>
<path fill-rule="evenodd" clip-rule="evenodd" d="M258.189 313.988C255.144 312.902 252.208 311.648 249.534 309.803C241.824 304.064 236.797 295.428 232.047 287.246C225.356 275.345 220.59 262.665 217.295 249.436C215.879 243.752 215.399 237.163 212.182 232.124C204.89 221.573 183.508 222.94 172.154 224.792C164.55 226.137 162.979 234.646 161.252 240.942C159.814 246.174 158.873 251.464 158.083 256.826C156.203 258.062 154.081 259.066 152.058 259.94C130.013 266.7 126.138 279.232 117.718 298.59C103.497 326.727 64.9069 337.744 59.0778 371.043C55.3221 393.027 66.0022 413.709 77.0133 431.985C87.2679 451.947 101.584 461.529 124.383 456.812C145.767 452.015 166.319 443.991 187.327 437.79C197.502 435.289 207.661 428.782 218.364 431.05C240.418 436.003 263.077 438.332 285.679 437.689C317.412 438.972 317.407 408.515 314.15 384.929C311.869 348.224 293.355 324.655 258.189 313.988Z" fill="#D08B5B"/>
<path fill-rule="evenodd" clip-rule="evenodd" d="M260.311 367.1C262.963 368.854 265.193 371.512 266.983 374.31C259.509 373.533 252.048 372.636 244.603 371.616C245.578 370.993 246.561 370.384 247.568 369.809C251.238 367.74 256.212 364.39 260.311 367.1ZM136.131 389.194C134.762 388.657 134.232 386.569 133.698 385.372C132.025 381.619 130.497 377.801 128.908 374.011C134.942 372.291 140.809 370.383 147.059 369.466C153.78 368.482 160.6 368.243 167.382 368.465C181.121 368.913 194.732 371.158 208.239 373.566C221.73 375.97 235.221 378.281 248.806 380.094C262.117 381.87 275.469 383.17 288.847 384.312C291.446 384.534 295.779 385.468 297.869 383.423C299.524 381.803 299.578 378.815 297.507 377.498C296.217 376.677 294.348 376.665 292.875 376.476C291.019 376.237 289.155 376.078 287.288 375.955C286.528 375.904 285.767 375.858 285.006 375.812C291.114 373.509 297.494 372.253 304.116 372.603C304.49 374.878 306.178 377.218 307.101 379.095C308.714 382.37 309.971 385.686 310.796 389.247C312.521 396.692 312.596 404.419 312.108 412.012C311.661 418.343 310.7 425.346 305.734 429.83C301.974 433.224 296.669 434.481 291.748 434.877C286.028 435.336 280.219 434.845 274.547 434.079C266.592 433.003 258.599 431.581 250.8 429.674C235.695 425.982 221.216 420.107 207.858 412.142C201.344 408.258 195.128 403.888 188.524 400.151C181.795 396.344 174.635 393.39 167.117 391.555C158.703 389.503 149.907 388.627 141.26 389.133C139.759 389.221 137.591 389.765 136.131 389.194ZM126.381 385.382C127.265 388.251 127.942 391.527 129.829 393.938C131.698 396.327 134.518 397.17 137.44 397.383C140.962 397.638 144.526 397.475 148.056 397.606C155.296 397.875 162.438 399.051 169.359 401.208C175.809 403.218 181.797 406.354 187.565 409.833C192.898 413.051 198.075 416.505 203.41 419.712C201.99 420.363 200.587 421.068 199.175 421.681C196.214 422.966 193.235 424.207 190.243 425.416C184.343 427.801 178.417 430.128 172.431 432.29C160.36 436.649 148.091 440.457 135.675 443.701C129.752 445.248 123.746 447.056 117.594 447.313C112.138 447.541 107.085 445.999 102.685 442.755C93.559 436.027 86.2983 426.316 80.4289 416.737C76.9418 411.047 73.8988 405.067 71.3818 398.884C70.1087 395.758 68.9542 392.583 67.915 389.372C67.4276 387.864 66.9653 386.347 66.5276 384.824C66.3351 384.154 66.1506 383.482 65.9679 382.809C75.2998 379.961 84.7426 377.391 94.407 375.964C99.5669 375.202 104.796 374.816 110.012 374.872C112.601 374.9 115.189 375.04 117.765 375.307C119.151 375.451 120.532 375.636 121.907 375.865C122.475 375.96 123.059 376.099 123.644 376.202C124.539 379.267 125.441 382.33 126.381 385.382ZM319.284 373.194C319.787 372.177 319.999 371.176 320.179 370.068C320.317 369.223 320.681 368.034 320.362 366.937C320.004 365.708 319.03 364.61 318.33 363.562C317.557 362.404 316.785 361.245 316.015 360.086C314.473 357.767 312.934 355.446 311.398 353.124C305.125 343.641 298.895 334.13 292.654 324.625C287.117 316.19 281.672 307.68 275.966 299.358C271.087 292.242 265.768 285.244 259.09 279.71C250.645 272.713 240.589 269.416 230.086 266.844C228.939 265.654 227.407 265.003 225.769 265.135C223.455 262.511 221.616 260.678 220.782 257.34C220.383 255.742 220.508 251.25 218.951 250.305C217.102 249.181 216.136 250.668 215.626 252.344C213.92 257.952 215.878 265.492 220.385 271.109C218.486 277.671 215.969 286.997 211.478 292.254C206.669 297.883 200.019 299.635 192.843 299.751C179.16 299.971 165.49 294.885 155.053 286.071C151.88 283.393 148.934 280.401 146.268 277.219C144.269 274.832 141.904 271.147 140.34 268.363C140.34 267.278 139.058 266.143 152.102 265.266C165.146 264.389 166.135 246.529 166.425 244.098C166.661 242.124 167.663 239.061 166.272 237.451C165.682 236.768 164.471 236.658 163.722 237.122C162.311 237.998 161.848 240.239 161.404 241.761C160.783 243.893 158.751 257.124 154.901 258.656C153.099 259.373 151.032 259.386 149.125 259.519C146.771 259.683 144.412 259.804 142.067 260.078C141.202 260.179 140.259 260.459 139.406 260.467C138.85 260.472 138.278 260.202 137.741 260.013C135.93 259.373 134.12 259.853 132.255 260.104C115.759 262.32 98.7739 267.38 84.7036 276.484C72.302 284.508 63.5648 296.048 57.7996 309.54C51.9172 323.31 48.5455 338.2 45.7199 352.858C44.7733 357.769 43.9467 362.703 43.2365 367.654C42.5502 372.438 41.6917 377.329 41.4862 382.161C41.4048 384.074 41.8618 385.85 42.5649 387.596C43.3568 389.562 45.2285 390.337 47.0238 391.255C50.9647 393.271 55.1219 394.834 59.4051 395.941C62.0217 400.702 64.2238 405.648 65.9935 410.781C65.3369 412.082 65.3233 414.024 65.197 415.288C64.8838 418.437 64.7499 421.601 64.7218 424.764C64.6653 431.103 65.0466 437.436 65.3454 443.765C65.6484 450.184 66.6556 475.512 66.8197 478.605C66.9474 481.007 66.7755 484.368 68.0412 486.501C69.9862 489.78 74.7867 489.67 77.0102 487.011C132.255 498.887 236.099 495.31 277.922 489.335C283.364 488.558 281.655 489.42 283.039 488.045C284.077 487.013 284.961 485.245 285.248 483.824C285.632 481.927 285.013 480.211 283.927 478.676C282.785 477.063 282.577 474.45 282.153 472.532C281.151 467.997 280.652 448.08 280.184 445.873C280.038 445.186 279.897 444.459 279.726 443.731C287.398 444.458 295.391 444.458 302.69 441.892C306.829 440.437 310.688 438.152 313.66 434.888C317.257 430.937 319.259 425.962 320.288 420.77C321.616 414.075 321.898 407.14 321.637 400.334C321.275 392.29 319.94 384.133 316.629 376.747C317.719 375.735 318.632 374.515 319.284 373.194Z" fill="black"/>
<path fill-rule="evenodd" clip-rule="evenodd" d="M248.468 164.968C247.169 154.58 243.088 143.551 238.797 133.866C229.147 113.39 207.054 110.57 187.249 106.349C167.706 103.497 147.011 100.923 127.762 106.612C116.941 109.268 112.714 122.183 114.422 132.375C115.397 138.726 118.281 144.737 120.741 150.623C125.631 162.71 128.733 175.651 128.738 188.738C128.402 197.29 127.198 207.052 137.005 210.674C146.338 215.325 147.126 227.932 158.812 235.085C163.537 244.676 176.408 245.52 185.672 247.745C191.528 248.868 197.449 249.695 203.387 250.229C220.579 252.436 234.333 247.444 243.332 232.097C249.355 222.756 253.84 211.971 252.732 200.651C251.628 188.731 249.79 176.873 248.468 164.968Z" fill="#D08B5B"/>
<path fill-rule="evenodd" clip-rule="evenodd" d="M187.398 81.4633C188.379 80.3487 189.891 80.731 190.808 81.6123C191.406 81.7887 191.985 82.0511 192.531 82.3983C193.767 82.2394 195.062 82.2394 196.273 82.2839C196.567 82.1187 196.882 81.9718 197.225 81.8455C199.675 80.9481 201.845 81.404 203.634 82.6055C204.496 81.7884 205.583 81.2756 206.973 81.3532C208.214 81.4226 209.098 82.0076 209.856 82.7781C210.611 81.6863 211.833 80.9074 213.354 80.799C215.481 80.6475 217.526 81.5022 219.22 82.8254C220.207 81.6905 221.553 81.0382 223.053 81.0319C224.04 80.8523 225.082 80.9232 226.023 81.208C227.389 81.6214 228.589 82.3961 229.544 83.4016C231.056 81.9511 232.906 80.9074 235.039 81.0596C237.8 81.2595 240.089 83.294 241.153 85.798C243.022 86.5482 244.747 87.6182 246.189 89.1437C246.266 89.224 246.34 89.3082 246.417 89.3927C247.194 89.68 247.925 90.0871 248.569 90.6233C250.609 92.3246 251.064 94.7866 250.389 97.1991C250.483 97.5852 250.564 97.978 250.637 98.3704C252.548 98.6615 254.284 99.7666 255.271 101.566C256.622 104.035 256.356 107.289 254.893 109.646C254.264 110.66 253.466 111.514 252.569 112.261C253.583 114.569 253.096 117.323 251.462 119.189C251.063 119.833 250.575 120.413 250.024 120.939C250.632 123.325 249.552 125.786 247.396 127.061L247.211 127.524C247.18 127.601 247.149 127.677 247.117 127.753C247.093 127.851 247.063 127.946 247.034 128.042C246.983 128.888 246.705 129.719 246.152 130.502C245.022 132.106 243.62 133.152 242.877 135.025L242.803 135.222C242.483 136.108 241.452 136.733 240.573 136.46C245.453 146.504 248.012 157.681 249.769 168.634C250.645 174.099 251.321 179.582 251.87 185.086L252.407 190.568C252.88 195.44 253.301 200.328 253.304 205.216C253.311 216.274 250.154 226.911 243.379 235.711C236.971 244.029 227.903 250.058 217.66 252.432C207.084 254.88 194.678 253.915 185.194 248.311C182.397 246.663 184.847 242.7 187.692 244.026C193.078 246.537 198.552 248.403 204.522 248.82C210.342 249.23 216.176 248.5 221.695 246.593C230.826 243.433 238.595 236.815 243.589 228.574C246.049 224.512 247.83 220.104 248.779 215.446C249.959 209.641 249.782 203.641 249.348 197.762L249.318 197.361C248.46 186.033 247.33 174.635 245.503 163.42C243.888 153.502 241.405 143.785 238.182 134.284C236.919 133.17 235.507 132.248 233.995 131.548C222.927 131.085 211.839 131.22 200.785 131.986C191.357 132.642 181.976 133.754 172.665 135.374L171.667 135.549C169.606 135.917 167.317 136.127 165.375 136.959C163.709 137.674 163.034 139.049 162.614 140.739C161.557 145.014 161.396 149.693 161.217 154.077C161.042 158.362 161.438 162.683 161.095 166.954C160.804 170.528 159.891 174.186 157.249 176.771C155.866 178.124 154.166 178.864 152.57 179.892C151.537 180.555 151.1 181.239 151.233 182.466C151.52 185.153 153.679 188.537 151.254 190.837C150.827 191.241 150.089 191.293 149.669 190.837C148.668 189.747 147.285 188.916 146.099 188.035C145.602 187.671 146.015 186.963 146.578 187.215C147.32 187.548 148.076 187.941 148.85 188.285C147.142 186.875 144.713 186.184 142.69 185.773C141.672 185.57 140.601 185.51 139.541 185.605C138.757 185.98 137.955 186.328 137.154 186.668C136.135 187.096 135.106 187.485 134.071 187.853C130.476 190.788 128.762 195.562 129.511 200.23C129.92 202.807 131.106 205.61 133.343 207.114C135.992 208.896 139.541 208.131 142.403 209.453C145.084 210.691 146.715 213.192 147.936 215.78L148.445 216.858C149.579 219.243 150.744 221.566 152.293 223.737C154.085 226.252 156.279 228.51 158.673 230.45C159.834 231.389 161.072 232.233 162.351 233.002L162.701 233.21C163.996 233.971 164.924 234.697 165.011 236.306C165.039 236.868 164.686 237.38 164.231 237.671C162.271 238.916 160.322 237.359 158.691 236.271C156.93 235.1 155.247 233.782 153.69 232.344C150.729 229.615 148.167 226.375 146.197 222.857C144.696 220.178 143.842 216.408 141.469 214.332C140.02 213.065 137.973 213.055 136.163 212.823C134.48 212.606 132.888 212.255 131.39 211.424C125.297 208.033 123.575 199.823 125.02 193.479C125.265 192.409 125.608 191.367 126.032 190.364C123.764 190.743 121.216 188.393 122.137 186.022C122.207 185.843 122.287 185.675 122.364 185.503C120.87 184.518 119.691 183.024 119.131 181.07C118.844 180.06 118.802 179.04 118.952 178.054C118.228 177.567 117.629 176.897 117.244 176.073C116.04 175.515 114.973 174.681 114.336 173.488C113.454 171.843 113.566 170.328 114.238 168.964C114.144 168.792 114.053 168.617 113.965 168.438C111.498 166.871 109.776 164.17 109.972 161.175C110.035 160.182 110.28 159.288 110.658 158.482C110.626 158.38 110.595 158.274 110.567 158.173C108.502 157.121 106.794 155.392 106.185 153.084C105.576 150.762 106.294 148.448 107.729 146.666C105.629 145.127 104.366 142.977 105.132 139.726C105.443 138.404 106.07 137.201 106.917 136.187C106.913 136.156 106.906 136.124 106.899 136.092L106.703 135.94C104.111 133.89 102.62 131.277 104.212 128.065C104.925 126.62 105.944 125.613 107.141 124.95L107.2 124.761C106.343 122.92 106.052 120.875 106.644 118.725C107.127 116.955 108.271 115.544 109.734 114.608C109.636 113.816 109.65 112.971 109.807 112.055C110.07 110.509 110.836 109.158 111.956 108.201C111.998 107.997 112.051 107.798 112.11 107.597C112.488 106.374 113.195 105.045 114.014 104.059C114.689 103.242 115.445 102.944 116.369 102.912C116.313 102.158 116.352 101.394 116.506 100.618C116.978 98.227 118.497 95.9786 120.747 94.9581C121.671 94.5407 122.644 94.4183 123.582 94.5197C124.38 92.8363 125.937 91.6162 127.852 91.3532C128.597 91.248 129.29 91.2546 129.927 91.3497C130.287 91.181 130.662 91.0305 131.054 90.8934C131.313 90.8022 131.575 90.718 131.838 90.6342C132.723 89.533 133.889 88.6524 135.25 88.1232C136.821 87.5094 138.421 87.5722 139.838 88.0877L140.289 87.9931C140.996 86.7656 142.123 85.8152 143.856 85.3838C145.822 84.8963 147.842 85.5767 149.389 86.815C149.396 86.815 149.403 86.815 149.413 86.8112C150.222 84.998 151.604 83.7355 153.924 83.8232C155.37 83.8793 156.675 84.5986 157.683 85.6226C158.243 85.5521 158.803 85.489 159.366 85.4262C159.961 84.728 160.622 84.076 161.354 83.4903C162.551 82.5291 164.108 82.6066 164.99 83.9599C165.183 84.2545 165.361 84.5526 165.54 84.8507L166.348 84.7946C167.3 83.5075 168.598 82.6378 170.376 82.568C172.007 82.501 173.169 83.301 174.054 84.4194C174.775 84.4018 175.5 84.3882 176.224 84.3773C177.067 83.3988 178.061 82.5361 179.195 81.8206C180.063 81.2735 181.344 81.4598 182.047 82.1892C182.523 82.6851 182.965 83.2028 183.376 83.7386C184.436 82.5477 185.868 81.7631 187.398 81.4633ZM135.891 192.83C137.525 191.897 139.723 192.907 141.305 193.699C143.233 194.664 145.147 196.119 146.327 197.943C147.933 200.426 144.157 202.432 142.466 200.205C141.427 198.834 140.598 197.452 139.338 196.253C138.186 195.151 136.517 194.415 135.856 192.963C135.831 192.914 135.838 192.858 135.891 192.83ZM137.038 132.561L137.069 132.473C137.534 131.199 135.505 130.65 135.044 131.913C134.346 133.828 135.151 135.911 137.039 136.738C137.562 136.967 138.16 136.887 138.475 136.36C138.74 135.917 138.617 135.148 138.099 134.921C137.036 134.455 136.681 133.634 137.038 132.561ZM119.564 128.998C120.579 128.1 119.09 126.616 118.079 127.51C117.137 128.344 116.437 129.477 116.619 130.78C116.804 132.108 117.803 133.045 118.897 133.708C120.056 134.41 121.112 132.591 119.957 131.891L119.827 131.811C119.341 131.509 118.774 131.094 118.691 130.5C118.604 129.868 119.137 129.376 119.564 128.998ZM125.327 113.156L125.399 113.103C126.49 112.323 125.442 110.497 124.339 111.286C123.328 112.009 122.516 112.949 122.431 114.245C122.348 115.505 122.988 116.597 123.824 117.484C124.755 118.469 126.238 116.98 125.309 115.996C124.404 115.037 124.227 113.991 125.327 113.156Z" fill="black"/>
<path fill-rule="evenodd" clip-rule="evenodd" d="M212.827 226.293C210.469 225.332 208.365 223.727 206.828 221.678C206.293 220.965 206.154 220.213 206.266 219.525C206.393 218.751 206.85 218.05 207.475 217.58C208.101 217.108 208.884 216.875 209.641 216.994C210.299 217.097 210.954 217.457 211.473 218.204L211.581 218.354C212.495 219.591 213.687 220.606 215.044 221.26C216.353 221.89 217.816 222.185 219.33 222.013C222.215 221.688 224.203 220.128 226.315 218.01C226.577 217.742 226.839 217.466 227.103 217.186C227.269 216.932 227.5 216.769 227.756 216.683C228.041 216.588 228.362 216.593 228.657 216.696C228.942 216.796 229.196 216.984 229.366 217.234C229.528 217.472 229.62 217.766 229.59 218.103C229.397 220.299 228.249 222.258 226.619 223.796C224.808 225.504 222.409 226.686 220.149 227.101C217.66 227.557 215.123 227.23 212.827 226.293ZM221.323 192.429C223.972 194.039 228.007 197.793 225.158 201.783C221.804 205.302 216.976 201.268 214.597 199.443C212.391 198.029 209.912 201.666 211.959 203.317C229.152 216.046 236.129 192.85 222.663 190.537C221.18 190.282 220.629 191.931 221.323 192.429ZM190.514 177.622C190.806 173.99 196.338 173.166 196.888 176.76C197.381 179.979 196.801 182.937 195.351 185.835C193.965 188.604 190.482 187.312 190.219 184.791C189.866 181.411 190.332 179.882 190.514 177.622ZM232.62 176.014C233.392 175.004 234.505 174.315 235.839 174.705C240.007 175.923 238.779 181.84 237.315 184.72C236.52 186.284 233.949 186.681 232.787 185.304C230.893 183.058 229.986 178.573 232.394 176.361C232.459 176.246 232.531 176.131 232.62 176.014ZM195.292 161.73L195.95 161.614C197.987 161.262 200.52 160.924 201.961 162.561C202.725 163.43 202.988 165.044 201.961 165.875C200.154 167.337 198.156 166.77 195.991 166.894C194.206 166.997 192.491 167.292 190.773 167.783C187.002 168.861 183.929 170.828 180.709 172.989C180.286 173.272 179.855 172.732 180.057 172.336C181.916 168.695 185.518 165.704 189.127 163.881C191.053 162.907 193.161 162.1 195.292 161.73ZM228.821 160.099L229.325 160.202C234.809 161.348 241.934 163.638 244.531 169.025C244.63 169.786 244.526 169.949 244.441 170.056L244.412 170.092C244.342 170.183 244.286 170.308 243.956 170.412C243.865 170.39 243.772 170.367 243.679 170.342C242.488 170.031 241.546 169.601 240.634 169.155L239.646 168.668C238.499 168.105 237.342 167.563 236.115 167.163C233.498 166.31 230.807 165.708 228.073 165.387C227.481 165.318 226.91 165.118 226.46 164.775C226.033 164.45 225.706 164 225.558 163.401C225.365 162.626 225.42 162.04 225.836 161.341C226.148 160.816 226.596 160.452 227.109 160.243C227.633 160.03 228.229 159.98 228.821 160.099Z" fill="black"/>
<path fill-rule="evenodd" clip-rule="evenodd" d="M190.079 228.491C192.919 221.839 199.116 216.95 206.251 215.163C211.491 213.854 216.989 213.895 222.331 214.415C225.129 214.685 228.131 214.907 230.768 215.946C233.02 216.834 234.855 218.512 236.235 220.482C237.878 222.816 238.995 225.488 239.78 228.227C239.891 228.616 239.996 229.008 240.093 229.402C239.752 231.468 239.028 233.227 237.114 234.526C235.247 235.794 233.018 236.313 230.797 236.498C230.579 236.393 230.369 236.286 230.176 236.175C226.715 234.194 224.278 229.511 219.909 230.145C216.01 230.711 213.444 235.616 211.125 238.493C203.683 239.36 196.246 237.124 190.19 232.868C189.883 231.412 189.865 229.943 190.079 228.491ZM245.152 223.445C244.556 221.774 243.806 220.156 242.918 218.632C239.979 213.59 235.468 209.574 230.113 207.278C217.445 201.853 201.053 205.677 190.823 214.573C187.328 217.614 183.794 222.083 182.726 226.89C182.407 226.953 182.106 227.119 181.858 227.353C174.466 222.699 166.854 218.222 160.898 211.771C156.573 207.084 153.564 201.538 151.722 195.443C151.571 194.941 150.762 195.014 150.787 195.569C150.794 195.699 150.801 195.829 150.808 195.959C150.731 195.72 150.367 195.843 150.338 196.075C149.347 203.479 148.107 211.329 149.249 218.772C149.932 223.213 151.95 226.464 154.646 229.975C157.536 233.739 160.807 237.239 164.152 240.595C166.274 242.726 168.491 245.184 171.09 246.746C174.113 248.561 177.542 249.941 180.767 251.342C184.049 252.771 187.38 254.091 190.774 255.235C197.558 257.531 204.57 259.118 211.704 259.813C217.417 260.368 223.945 260.972 229.419 258.823C233.615 257.177 237.002 254.2 239.688 250.618C242.613 246.718 244.925 242.275 246.203 237.59C247.531 232.723 245.432 224.23 245.152 223.445Z" fill="black"/>
<path fill-rule="evenodd" clip-rule="evenodd" d="M262.048 165.728C261.759 165.68 261.47 165.635 261.181 165.592C260.955 165.464 260.691 165.366 260.383 165.306C259.68 165.128 258.981 165.008 258.284 164.943C248.278 162.691 225.129 165.888 224.173 174.427C220.987 175.491 218.23 174.538 214.536 174.633C211.725 162.883 163.123 164.541 160.786 171.625C160.777 171.623 160.768 171.621 160.759 171.618C158.513 170.923 155.202 171.091 152.632 170.981C147.143 170.865 141.647 171.355 136.277 172.512C126.221 174.111 112.496 175.982 119.49 188.54C119.491 188.542 119.492 188.544 119.494 188.546L119.495 188.545C120.701 189.781 122.746 188.786 122.822 187.113C120.471 181.164 125.782 180.45 129.868 178.74C140.036 175.087 150.388 174.581 160.905 175.71C161.696 176.642 162.896 177.454 164.165 177.879C171.197 179.046 167.491 184.262 171.935 185.021C171.119 203.202 193.193 213.126 205.983 201.175C211.089 196.182 212.307 188.786 213.491 182.119C214.117 181.979 214.515 181.636 214.747 181.183C216.253 179.68 217.199 178.292 220.176 177.879C223.153 177.467 225.445 178.295 225.755 178.548C225.833 178.706 225.917 178.864 226.014 179.022C226.15 179.257 226.335 179.444 226.546 179.592C223.606 197.697 237.661 209.147 251.85 199.757C258.016 193.957 259.319 185.078 259.576 177.153C260.412 176.648 260.941 175.671 260.652 174.442C260.253 172.748 261.188 171.281 262.677 170.545C264.612 169.589 264.27 166.096 262.048 165.728ZM201.078 174.317C199.317 173.93 198.565 176.645 200.332 177.034C201.583 177.309 202.643 177.94 203.359 179.009L203.435 179.125C204.396 180.654 206.827 179.242 205.859 177.703C204.77 175.97 203.078 174.757 201.078 174.317ZM252.662 172.634C252.041 172.196 251.102 172.521 250.741 173.139C250.345 173.819 250.605 174.577 251.186 175.022L251.245 175.066C251.779 175.442 252.298 176.116 252.363 176.806L252.369 176.893C252.439 178.699 255.247 178.709 255.177 176.893C255.109 175.116 254.08 173.632 252.662 172.634Z" fill="black"/>
</svg>
