<svg width="145" height="145" viewBox="0 0 145 145" fill="none" xmlns="http://www.w3.org/2000/svg">
<path d="M116.819 112.991C117.009 113.105 117.176 113.254 117.312 113.429C117.557 113.714 117.304 113.827 117.168 113.987C117.08 114.086 116.985 114.178 116.882 114.262L116.688 114.376L115.839 114.743C115.209 115.012 114.558 115.232 113.893 115.399L111.889 115.95C110.913 116.172 109.924 116.33 108.927 116.423C107.905 116.595 106.871 116.605 105.836 116.732C98.2493 117.597 90.5695 117.096 83.1598 115.253C79.8028 114.39 76.5341 113.214 73.3969 111.74C69.3587 109.889 65.6565 107.469 61.4343 105.969C60.1143 105.53 59.1936 107.313 59.2219 109.631C59.1945 110.936 59.502 112.226 60.1152 113.377C60.7284 114.529 61.6267 115.505 62.7243 116.21C67.0151 118.605 71.5238 120.587 76.1897 122.129C80.9174 123.658 85.8088 124.627 90.7628 125.013C96.6598 125.424 102.885 126.402 109.116 125.595C112.551 125.158 115.925 124.333 119.173 123.135L120.661 122.544C121.251 122.341 121.828 122.1 122.388 121.825C123.394 121.299 124.359 120.696 125.272 120.022C126.171 119.425 127.018 118.755 127.807 118.019C128.261 117.042 128.356 115.935 128.075 114.895C127.77 113.528 127.252 112.218 126.542 111.012C126.185 110.37 125.799 109.742 125.398 109.115C124.997 108.487 124.538 107.784 124.309 107.454C123.13 105.837 121.963 104.338 120.815 102.691C117.336 97.8991 113.618 93.3087 110.554 88.436C108.206 84.6882 106.079 80.8066 104.183 76.8109C103.743 75.9608 103.391 75.0829 102.935 74.2325C101.24 71.0695 100.266 70.3123 98.2727 70.3322C97.8262 70.293 97.3776 70.2842 96.9299 70.3058C95.5381 70.5147 95.0282 72.4238 95.6818 75.2268C96.7543 79.4068 98.201 83.4817 100.004 87.4022C100.911 89.3686 101.876 91.3067 102.843 93.2301C103.809 95.1534 105.102 96.9356 106.263 98.7446C108.011 101.421 109.849 104.041 111.734 106.558L114.494 110.318L115.816 112.174L116.419 113.028L116.819 112.991Z" fill="#1A1A1A"/>
<path d="M39.1587 65.3039C41.2695 67.5745 43.3203 69.8882 45.4916 72.0862C47.6628 74.2841 49.8335 76.5116 52.1254 78.5791C53.8082 80.0884 55.175 81.9015 56.9482 83.324C63.0256 88.4961 69.5846 93.074 76.5354 96.9948C78.0835 97.8519 79.5403 98.8401 81.0736 99.6969C82.6068 100.554 84.1392 101.455 85.6424 102.34C86.59 102.95 87.629 103.413 88.5648 103.874C89.5522 104.446 90.5724 104.959 91.62 105.41C93.7677 106.189 95.995 106.728 98.2611 107.017C99.7336 107.208 99.909 105.795 99.3555 103.909C98.7727 101.66 97.4492 99.6735 95.5984 98.2696C95.1615 97.9657 94.7399 97.6327 94.2877 97.3581L92.9147 96.6077L90.1547 95.0773C88.3607 93.9644 86.5509 92.9103 84.7112 91.8703C82.8715 90.8303 81.1392 89.5858 79.3001 88.5163C77.461 87.4468 75.6995 86.1869 73.8167 85.0871C72.7073 84.3851 71.6427 83.6148 70.629 82.7806C69.5818 81.9776 68.5353 81.1451 67.5335 80.284L61.7206 74.8406C57.5188 70.8017 53.1711 66.6714 49.2875 62.2107C46.8009 59.5342 44.5096 56.6843 42.2183 53.8344L37.3154 47.1541C35.7662 44.8502 34.187 42.5753 32.8318 40.1719C31.7907 38.3061 30.8839 36.3692 29.9919 34.4326C29.0999 32.4959 28.3415 30.5176 27.3445 28.6675C26.8879 27.8613 26.5503 27.0132 26.0937 26.2071C24.3808 23.221 23.2139 22.5042 21.0842 22.6986C20.5885 22.7041 20.094 22.7486 19.6054 22.832C18.1227 23.1572 17.5252 25.0203 17.9585 27.7599C18.3179 29.7599 18.6462 31.8331 19.1974 33.8368C19.7486 35.8406 20.5972 37.7321 21.3717 39.6369C22.1463 41.5417 23.2927 43.3062 24.3195 45.1422C25.3464 46.9781 26.5084 48.6986 27.6397 50.4776C31.1172 55.671 34.8727 60.6728 38.8899 65.461L39.1587 65.3039Z" fill="#1A1A1A"/>
</svg>
