<svg width="159" height="202" viewBox="0 0 159 202" fill="none" xmlns="http://www.w3.org/2000/svg">
<path fill-rule="evenodd" clip-rule="evenodd" d="M46.0653 112.705C47.2799 112.298 48.4506 111.827 49.5172 111.136C52.5919 108.984 54.5968 105.745 56.4911 102.677C59.1595 98.214 61.0605 93.4587 62.3745 88.498C62.9392 86.3667 63.1309 83.8955 64.4138 82.0059C67.3219 78.0493 75.8495 78.5619 80.3777 79.2565C83.41 79.761 84.0367 82.9518 84.7255 85.3128C85.2989 87.2747 85.6743 89.2587 85.9894 91.2693C86.7391 91.7327 87.5855 92.1091 88.3922 92.437C97.1841 94.9719 98.7294 99.6715 102.087 106.931C107.759 117.482 123.15 121.613 125.474 134.101C126.972 142.345 122.713 150.1 118.321 156.954C114.232 164.44 108.522 168.033 99.4294 166.264C90.901 164.465 82.7048 161.456 74.3265 159.131C70.2685 158.193 66.2169 155.753 61.9483 156.603C53.1528 158.461 44.1158 159.334 35.1019 159.093C22.4462 159.574 22.4481 148.153 23.7471 139.308C24.6569 125.544 32.0405 116.705 46.0653 112.705Z" fill="#DDFF53"/>
<path fill-rule="evenodd" clip-rule="evenodd" d="M45.2191 132.622C44.1616 133.28 43.2722 134.277 42.5581 135.326C45.539 135.034 48.5147 134.698 51.4838 134.315C51.0951 134.082 50.7028 133.853 50.3015 133.638C48.8375 132.862 46.8539 131.606 45.2191 132.622ZM94.7441 140.907C95.2903 140.706 95.5016 139.923 95.7145 139.474C96.3819 138.067 96.9911 136.635 97.6248 135.214C95.2185 134.569 92.8785 133.853 90.3858 133.51C87.7055 133.14 84.9857 133.051 82.2807 133.134C76.8015 133.302 71.3732 134.144 65.9864 135.047C60.6058 135.949 55.2255 136.815 49.8074 137.495C44.499 138.161 39.1738 138.649 33.8387 139.077C32.8022 139.16 31.0738 139.51 30.2402 138.743C29.5802 138.136 29.5588 137.015 30.3847 136.522C30.8991 136.214 31.6445 136.209 32.2322 136.138C32.9724 136.049 33.7155 135.989 34.4601 135.943C34.7635 135.924 35.0669 135.907 35.3704 135.889C32.9343 135.026 30.39 134.555 27.749 134.686C27.5996 135.539 26.9267 136.417 26.5585 137.12C25.9154 138.349 25.4141 139.592 25.085 140.927C24.3971 143.719 24.3672 146.617 24.5614 149.464C24.7399 151.838 25.1233 154.464 27.1038 156.146C28.6033 157.419 30.719 157.89 32.6817 158.038C34.963 158.211 37.2794 158.027 39.5415 157.739C42.7143 157.336 45.9018 156.802 49.0122 156.088C55.0364 154.703 60.8107 152.5 66.1381 149.513C68.7362 148.056 71.2152 146.418 73.8489 145.017C76.5325 143.589 79.3881 142.481 82.3865 141.793C85.7421 141.023 89.25 140.695 92.6988 140.885C93.2973 140.917 94.162 141.122 94.7441 140.907ZM98.6327 139.478C98.2801 140.554 98.0103 141.782 97.2577 142.686C96.5122 143.582 95.3875 143.898 94.2224 143.978C92.8176 144.074 91.3962 144.013 89.9883 144.062C87.1008 144.163 84.2528 144.604 81.4924 145.413C78.9199 146.167 76.532 147.343 74.2317 148.647C72.1046 149.854 70.0399 151.149 67.9121 152.352C68.4784 152.596 69.0383 152.86 69.6013 153.09C70.782 153.572 71.9701 154.037 73.1634 154.491C75.5167 155.385 77.8799 156.258 80.2673 157.068C85.0812 158.703 89.9743 160.131 94.9263 161.348C97.2881 161.928 99.6835 162.605 102.137 162.702C104.313 162.787 106.328 162.209 108.083 160.993C111.723 158.47 114.618 154.828 116.959 151.236C118.35 149.102 119.564 146.86 120.567 144.541C121.075 143.369 121.536 142.178 121.95 140.974C122.144 140.408 122.329 139.84 122.503 139.268C122.58 139.017 122.654 138.765 122.727 138.513C119.005 137.445 115.239 136.481 111.385 135.946C109.327 135.66 107.241 135.516 105.161 135.537C104.128 135.547 103.096 135.599 102.069 135.7C101.516 135.754 100.966 135.823 100.417 135.909C100.191 135.944 99.9578 135.997 99.7242 136.035C99.3674 137.185 99.0077 138.334 98.6327 139.478ZM21.6999 134.907C21.4994 134.526 21.4147 134.151 21.3428 133.735C21.288 133.418 21.1426 132.972 21.27 132.561C21.4126 132.1 21.8013 131.688 22.0804 131.295C22.3885 130.861 22.6964 130.427 23.0038 129.992C23.6188 129.122 24.2324 128.252 24.845 127.381C27.3468 123.825 29.8315 120.258 32.3202 116.694C34.5287 113.531 36.7 110.34 38.9758 107.219C40.9218 104.551 43.0428 101.926 45.7065 99.8508C49.0743 97.2269 53.0846 95.9908 57.2735 95.0262C57.731 94.5797 58.3421 94.3359 58.9953 94.3854C59.9181 93.4012 60.6516 92.7138 60.9841 91.4623C61.1434 90.8629 61.0934 89.1786 61.7143 88.8239C62.4518 88.4025 62.837 88.9602 63.0404 89.5888C63.7208 91.6917 62.9398 94.519 61.1425 96.6254C61.8998 99.0862 62.9037 102.583 64.6947 104.555C66.6126 106.666 69.2649 107.323 72.1266 107.366C77.5839 107.449 83.0355 105.542 87.1981 102.236C88.4634 101.232 89.6384 100.11 90.7015 98.9167C91.4989 98.0215 92.4422 96.6399 93.066 95.5957C93.066 95.1888 93.577 94.7632 88.3748 94.4344C83.1727 94.1056 82.7782 87.408 82.6625 86.4965C82.5685 85.7563 82.1688 84.6074 82.7235 84.0039C82.9589 83.7475 83.442 83.7062 83.7405 83.8804C84.3033 84.209 84.4882 85.0494 84.6651 85.62C84.913 86.4195 85.7232 91.3812 87.2586 91.9556C87.9773 92.2246 88.8017 92.2296 89.562 92.2793C90.501 92.341 91.4419 92.3861 92.377 92.4888C92.7219 92.5267 93.0982 92.6316 93.4385 92.6346C93.6599 92.6366 93.8883 92.5355 94.1023 92.4645C94.8245 92.2244 95.5463 92.4045 96.2904 92.4985C102.869 93.3298 109.643 95.2272 115.255 98.6412C120.201 101.65 123.685 105.978 125.984 111.037C128.33 116.201 129.675 121.785 130.802 127.281C131.179 129.123 131.509 130.973 131.792 132.83C132.066 134.624 132.408 136.458 132.49 138.27C132.523 138.987 132.341 139.653 132.06 140.308C131.744 141.045 130.998 141.336 130.282 141.68C128.71 142.436 127.052 143.022 125.344 143.438C124.3 145.223 123.422 147.077 122.716 149.002C122.978 149.49 122.984 150.219 123.034 150.693C123.159 151.873 123.212 153.06 123.224 154.246C123.246 156.623 123.094 158.998 122.975 161.372C122.854 163.779 122.452 173.277 122.387 174.436C122.336 175.337 122.405 176.598 121.9 177.398C121.124 178.627 119.21 178.586 118.323 177.589C96.2904 182.042 54.8755 180.701 38.1957 178.46C36.0255 178.169 36.707 178.492 36.1551 177.977C35.7409 177.589 35.3885 176.926 35.2739 176.394C35.1209 175.682 35.3679 175.039 35.8009 174.463C36.2562 173.858 36.3391 172.879 36.5082 172.159C36.9081 170.459 37.1069 162.99 37.2937 162.162C37.3519 161.904 37.4083 161.632 37.4763 161.359C34.4167 161.631 31.2287 161.631 28.3179 160.669C26.6673 160.124 25.1279 159.267 23.943 158.043C22.5082 156.561 21.71 154.696 21.2995 152.749C20.7698 150.238 20.6574 147.637 20.7614 145.085C20.906 142.068 21.4381 139.009 22.7587 136.24C22.3242 135.86 21.9599 135.403 21.6999 134.907Z" fill="#DDFF53"/>
<path fill-rule="evenodd" clip-rule="evenodd" d="M49.9423 56.8229C50.4604 52.9273 52.0878 48.7912 53.7994 45.1595C57.6479 37.4809 66.4587 36.4237 74.3573 34.8405C82.1515 33.7713 90.4051 32.8058 98.0819 34.9391C102.398 35.9354 104.083 40.7785 103.402 44.6005C103.013 46.982 101.863 49.2361 100.882 51.4433C98.9319 55.9761 97.6947 60.8288 97.6926 65.7364C97.8265 68.9435 98.3069 72.6041 94.3955 73.9625C90.6735 75.7065 90.3591 80.4342 85.6986 83.1166C83.8141 86.7134 78.6808 87.0299 74.9862 87.8643C72.651 88.2854 70.2894 88.5954 67.9214 88.7955C61.0648 89.6234 55.5796 87.7513 51.9904 81.996C49.5885 78.4933 47.7999 74.449 48.2417 70.204C48.6818 65.7338 49.415 61.287 49.9423 56.8229Z" fill="#DDFF53"/>
<path fill-rule="evenodd" clip-rule="evenodd" d="M74.2979 25.5084C73.9066 25.0905 73.3036 25.2338 72.9377 25.5643C72.6994 25.6305 72.4686 25.7289 72.2505 25.8591C71.7578 25.7995 71.2413 25.7995 70.7581 25.8162C70.6409 25.7542 70.5152 25.6991 70.3785 25.6518C69.4014 25.3152 68.5362 25.4862 67.8226 25.9368C67.4788 25.6304 67.0452 25.4381 66.4908 25.4671C65.996 25.4932 65.6435 25.7126 65.3413 26.0015C65.04 25.5921 64.5528 25.3 63.946 25.2594C63.0978 25.2025 62.2824 25.523 61.6066 26.0192C61.2129 25.5937 60.6761 25.349 60.0779 25.3467C59.6843 25.2793 59.2689 25.3059 58.8936 25.4127C58.3487 25.5678 57.8703 25.8583 57.4892 26.2353C56.8864 25.6914 56.1485 25.3 55.2977 25.3571C54.1964 25.432 53.2836 26.1949 52.8593 27.134C52.114 27.4153 51.4259 27.8165 50.8509 28.3886C50.8202 28.4187 50.7909 28.4503 50.7602 28.482C50.4503 28.5897 50.1586 28.7424 49.9018 28.9435C49.0881 29.5814 48.9067 30.5047 49.176 31.4094C49.1383 31.5542 49.1062 31.7015 49.0769 31.8486C48.3149 31.9578 47.6226 32.3722 47.229 33.0469C46.6902 33.9727 46.7963 35.193 47.3797 36.077C47.6305 36.4572 47.9489 36.7775 48.3065 37.0577C47.9022 37.923 48.0962 38.9557 48.7481 39.6556C48.9069 39.8969 49.1019 40.1147 49.3213 40.3119C49.0792 41.2066 49.5099 42.1297 50.3696 42.6077L50.4432 42.7811C50.4556 42.81 50.4681 42.8386 50.481 42.8671C50.4905 42.9039 50.5022 42.9395 50.5138 42.9754C50.5343 43.2929 50.6453 43.6045 50.8656 43.898C51.3165 44.4996 51.8753 44.8919 52.1717 45.5941L52.2014 45.6679C52.3288 46.0003 52.7403 46.2347 53.0909 46.1322C51.1443 49.8989 50.1237 54.0901 49.4231 58.1976C49.0737 60.2467 48.8041 62.3029 48.5854 64.3671L48.371 66.4226C48.1824 68.2496 48.0145 70.0828 48.0134 71.9159C48.0106 76.0626 49.2695 80.0514 51.9717 83.3512C54.5272 86.4706 58.1435 88.7313 62.2288 89.6217C66.4467 90.5396 71.3945 90.178 75.1769 88.0764C76.2921 87.4584 75.3151 85.9721 74.1804 86.4694C72.0324 87.411 69.8495 88.1107 67.4684 88.2672C65.1473 88.4209 62.8206 88.1474 60.6196 87.432C56.9781 86.2471 53.8796 83.7655 51.8879 80.6749C50.9067 79.1518 50.1963 77.4988 49.8181 75.7521C49.3472 73.5752 49.4182 71.3251 49.5912 69.1203L49.6031 68.9701C49.9451 64.722 50.3959 60.4478 51.1245 56.2421C51.7684 52.523 52.7587 48.8792 54.0443 45.3161C54.5479 44.8984 55.1112 44.5528 55.714 44.2903C60.1283 44.1166 64.5505 44.1673 68.959 44.4543C72.7188 44.7006 76.4604 45.1174 80.1737 45.7248L80.5714 45.7906C81.3935 45.9286 82.3063 46.0075 83.0809 46.3193C83.7453 46.5876 84.0147 47.1031 84.1822 47.7369C84.6037 49.3401 84.6679 51.0946 84.739 52.7385C84.8088 54.3455 84.6511 55.9659 84.7879 57.5676C84.9037 58.9078 85.268 60.2794 86.3218 61.2488C86.8731 61.7564 87.5514 62.0339 88.1879 62.4192C88.5996 62.6679 88.7741 62.9242 88.721 63.3845C88.6066 64.3919 87.7454 65.661 88.7127 66.5238C88.8829 66.675 89.1774 66.6947 89.3449 66.5238C89.7441 66.1149 90.2954 65.8031 90.7686 65.473C90.9668 65.3363 90.8021 65.0707 90.5774 65.1652C90.2815 65.2903 89.98 65.4376 89.6715 65.5665C90.3526 65.0378 91.3213 64.7786 92.128 64.6247C92.5342 64.5484 92.9613 64.5261 93.3842 64.5617C93.6968 64.7023 94.0164 64.8326 94.336 64.9601C94.7422 65.1206 95.1525 65.2665 95.5657 65.4047C96.9991 66.5054 97.683 68.2954 97.3843 70.0459C97.221 71.0124 96.7478 72.0633 95.856 72.6275C94.7994 73.2956 93.3842 73.0087 92.2425 73.5047C91.1733 73.9688 90.5229 74.9066 90.0358 75.8772L89.8327 76.2813C89.3806 77.176 88.9159 78.0469 88.2981 78.8611C87.5835 79.8041 86.7084 80.6511 85.7537 81.3785C85.2906 81.7305 84.797 82.0471 84.2868 82.3355L84.1473 82.4135C83.6308 82.6989 83.261 82.971 83.2261 83.5746C83.2149 83.7851 83.3559 83.9771 83.5373 84.0862C84.3189 84.5531 85.0964 83.9692 85.7468 83.5615C86.4488 83.1222 87.1202 82.6279 87.7412 82.0886C88.922 81.0655 89.9437 79.8503 90.7295 78.531C91.3283 77.5264 91.6688 76.1126 92.6151 75.3341C93.1929 74.8592 94.0094 74.8553 94.731 74.7684C95.4024 74.687 96.0374 74.5555 96.6348 74.2438C99.0647 72.9721 99.7514 69.8933 99.175 67.5142C99.0773 67.1129 98.9405 66.7224 98.7716 66.3462C99.6761 66.4883 100.692 65.6072 100.325 64.7181C100.297 64.651 100.265 64.588 100.234 64.5234C100.83 64.1539 101.301 63.5938 101.524 62.8611C101.638 62.4823 101.655 62.0996 101.595 61.7301C101.884 61.5474 102.123 61.2961 102.276 60.987C102.756 60.7779 103.182 60.465 103.436 60.0179C103.788 59.4009 103.743 58.8328 103.475 58.3212C103.513 58.2569 103.549 58.1911 103.584 58.1239C104.568 57.5362 105.255 56.5234 105.177 55.4003C105.151 55.0281 105.054 54.6927 104.903 54.3904C104.916 54.3522 104.928 54.3126 104.939 54.2745C105.763 53.88 106.444 53.2317 106.687 52.3664C106.93 51.4956 106.644 50.6276 106.071 49.9595C106.909 49.3823 107.413 48.5761 107.107 47.3568C106.983 46.8612 106.733 46.4099 106.395 46.0298C106.396 46.0181 106.399 46.0063 106.402 45.9943L106.48 45.9371C107.514 45.1684 108.109 44.1888 107.474 42.984C107.189 42.4423 106.783 42.0647 106.306 41.8161L106.282 41.7451C106.624 41.0547 106.74 40.2879 106.504 39.4817C106.311 38.8177 105.855 38.2889 105.272 37.9379C105.311 37.6405 105.305 37.3237 105.242 36.9803C105.138 36.4005 104.832 35.8942 104.385 35.5351C104.368 35.4587 104.348 35.3839 104.324 35.3088C104.173 34.8499 103.891 34.3515 103.565 33.9818C103.295 33.6754 102.994 33.5636 102.625 33.5517C102.648 33.2691 102.632 32.9823 102.571 32.6916C102.382 31.7948 101.777 30.9517 100.879 30.569C100.511 30.4125 100.123 30.3666 99.7487 30.4046C99.4304 29.7733 98.8093 29.3158 98.0459 29.2172C97.7486 29.1777 97.4722 29.1802 97.2182 29.2158C97.0744 29.1526 96.9251 29.0962 96.7688 29.0447C96.6655 29.0105 96.5608 28.979 96.4561 28.9475C96.103 28.5346 95.6382 28.2044 95.0953 28.0059C94.4686 27.7758 93.8308 27.7993 93.2655 27.9926L93.0855 27.9571C92.8035 27.4968 92.3541 27.1404 91.6632 26.9786C90.8788 26.7958 90.0735 27.051 89.4566 27.5154C89.4538 27.5154 89.451 27.5154 89.4468 27.5139C89.1244 26.834 88.5731 26.3605 87.6477 26.3934C87.0713 26.4144 86.5507 26.6842 86.1487 27.0682C85.9254 27.0418 85.7021 27.0181 85.4774 26.9946C85.2401 26.7327 84.9763 26.4882 84.6846 26.2686C84.2073 25.9081 83.5862 25.9372 83.2345 26.4447C83.1577 26.5552 83.0865 26.667 83.0153 26.7787L82.6929 26.7577C82.3133 26.275 81.7955 25.9489 81.0864 25.9227C80.436 25.8976 79.9727 26.1976 79.6195 26.617C79.332 26.6104 79.0431 26.6053 78.7542 26.6012C78.4178 26.2343 78.0214 25.9107 77.5692 25.6425C77.2231 25.4373 76.7122 25.5071 76.4317 25.7807C76.2422 25.9666 76.0657 26.1608 75.9018 26.3617C75.479 25.9151 74.908 25.6209 74.2979 25.5084ZM94.8398 67.2709C94.188 66.9211 93.3115 67.2999 92.6807 67.5971C91.9116 67.9587 91.1481 68.5045 90.6778 69.1884C90.0372 70.1195 91.5431 70.8718 92.2173 70.0367C92.6318 69.5225 92.9626 69.0043 93.465 68.5545C93.9242 68.1415 94.59 67.8654 94.8538 67.3209C94.8636 67.3025 94.8608 67.2814 94.8398 67.2709ZM94.3821 44.6699L94.3699 44.6371C94.1846 44.1593 94.9935 43.9533 95.1773 44.4272C95.4559 45.1454 95.1348 45.9262 94.3819 46.2363C94.1732 46.3223 93.9349 46.2924 93.8091 46.0948C93.7034 45.9284 93.7524 45.6401 93.9593 45.555C94.3829 45.3805 94.5248 45.0724 94.3821 44.6699ZM101.352 43.3339C100.947 42.9972 101.541 42.4408 101.944 42.776C102.32 43.0887 102.599 43.5135 102.526 44.0021C102.452 44.5 102.054 44.8516 101.618 45.1C101.156 45.3634 100.734 44.6814 101.195 44.4186L101.247 44.3888C101.44 44.2755 101.667 44.1198 101.7 43.897C101.734 43.6603 101.522 43.4755 101.352 43.3339ZM99.0527 37.3931L99.024 37.3732C98.5891 37.0807 99.0068 36.3961 99.4467 36.6918C99.8501 36.9632 100.174 37.3156 100.208 37.8017C100.241 38.2741 99.9856 38.6836 99.6521 39.016C99.2809 39.3857 98.6894 38.827 99.0598 38.4581C99.4208 38.0985 99.4913 37.7062 99.0527 37.3931Z" fill="#DDFF53"/>
<path fill-rule="evenodd" clip-rule="evenodd" d="M64.1566 79.8197C65.0969 79.459 65.9358 78.8574 66.5491 78.0889C66.7623 77.8217 66.8176 77.5396 66.7729 77.2816C66.7226 76.9914 66.54 76.7285 66.2911 76.5521C66.0413 76.3751 65.729 76.2879 65.4269 76.3324C65.1645 76.371 64.9033 76.5061 64.6965 76.7863L64.6533 76.8424C64.2887 77.3062 63.8135 77.6868 63.2721 77.9321C62.7503 78.1685 62.1667 78.2789 61.5627 78.2147C60.4125 78.0925 59.6197 77.5076 58.777 76.7133C58.6726 76.613 58.5681 76.5096 58.463 76.4045C58.3967 76.3093 58.3047 76.248 58.2025 76.2159C58.089 76.1802 57.9606 76.1822 57.8431 76.2208C57.7297 76.258 57.6283 76.3285 57.5604 76.4224C57.4958 76.5116 57.4591 76.6218 57.471 76.7485C57.5481 77.5717 58.0058 78.3063 58.656 78.8831C59.378 79.5238 60.3352 79.967 61.2363 80.1225C62.229 80.2937 63.2406 80.171 64.1566 79.8197ZM60.7681 67.1207C59.7119 67.7243 58.1026 69.1319 59.2389 70.6285C60.5763 71.948 62.5019 70.4351 63.4508 69.7508C64.3307 69.2205 65.3193 70.5844 64.5029 71.2036C57.6461 75.977 54.8635 67.2785 60.2339 66.4109C60.8252 66.3153 61.0449 66.9339 60.7681 67.1207ZM73.056 61.568C72.9393 60.206 70.7332 59.8967 70.5137 61.2445C70.3172 62.4518 70.5486 63.5609 71.1269 64.6478C71.6795 65.6863 73.0685 65.2018 73.1735 64.2562C73.3143 62.9887 73.1285 62.4153 73.056 61.568ZM56.2628 60.9651C55.9552 60.5863 55.5111 60.3278 54.9791 60.4739C53.3167 60.9307 53.8067 63.1497 54.3905 64.2298C54.7077 64.8164 55.7331 64.9651 56.1965 64.4487C56.9518 63.6065 57.3135 61.9245 56.3533 61.0949C56.3272 61.052 56.2983 61.0088 56.2628 60.9651ZM71.1501 55.6084L70.8875 55.5652C70.0752 55.4331 69.0651 55.3062 68.4905 55.9202C68.1857 56.2459 68.0808 56.8511 68.4905 57.1628C69.2111 57.7112 70.0078 57.4987 70.8713 57.5451C71.583 57.5835 72.2669 57.6942 72.9524 57.8785C74.4562 58.2826 75.6816 59.0204 76.966 59.8306C77.1346 59.9368 77.3066 59.7342 77.2262 59.586C76.4847 58.2204 75.0479 57.0988 73.6087 56.415C72.8405 56.0501 71.9999 55.7473 71.1501 55.6084ZM57.7778 54.9967L57.5768 55.0354C55.3897 55.4652 52.5481 56.3239 51.5124 58.3439C51.4729 58.6296 51.5146 58.6908 51.5485 58.7308L51.5598 58.7441C51.5877 58.7782 51.61 58.8253 51.7417 58.8642C51.7782 58.856 51.8151 58.8473 51.8524 58.8382C52.3272 58.7212 52.7028 58.56 53.0665 58.3928L53.4607 58.2101C53.9182 57.9992 54.3797 57.796 54.8687 57.646C55.9124 57.3259 56.986 57.1004 58.0762 56.98C58.3124 56.9539 58.54 56.8789 58.7195 56.7504C58.8899 56.6284 59.02 56.4595 59.0794 56.2351C59.1563 55.9445 59.1342 55.7246 58.9684 55.4625C58.8438 55.2657 58.6654 55.1292 58.4606 55.0509C58.2518 54.971 58.0141 54.9522 57.7778 54.9967Z" fill="#DDFF53"/>
<path fill-rule="evenodd" clip-rule="evenodd" d="M73.2285 80.6439C72.0961 78.1494 69.6245 76.3161 66.7789 75.6458C64.6893 75.1549 62.4963 75.1706 60.3661 75.3654C59.2501 75.4668 58.053 75.5499 57.0012 75.9396C56.1031 76.2725 55.3711 76.9018 54.8208 77.6405C54.1657 78.5159 53.7201 79.5178 53.4072 80.5447C53.3628 80.6907 53.321 80.8378 53.2821 80.9856C53.4181 81.7604 53.707 82.4199 54.4702 82.907C55.215 83.3827 56.1036 83.5773 56.9895 83.6464C57.0764 83.6072 57.1603 83.5669 57.2373 83.5255C58.6178 82.7825 59.5894 81.0265 61.3318 81.2641C62.8867 81.4763 63.9103 83.3159 64.835 84.3947C67.8032 84.7199 70.7692 83.8813 73.1843 82.2853C73.307 81.7391 73.3141 81.1883 73.2285 80.6439ZM51.2646 78.7515C51.5021 78.125 51.8012 77.5182 52.1557 76.9465C53.3276 75.0561 55.1267 73.5498 57.2624 72.6888C62.3147 70.6547 68.8518 72.0886 72.9319 75.4246C74.3257 76.565 75.7349 78.2408 76.1611 80.0434C76.2884 80.0671 76.4085 80.1294 76.5074 80.2171C79.4552 78.472 82.4909 76.793 84.8664 74.374C86.5914 72.6164 87.7913 70.5363 88.526 68.2507C88.5861 68.0625 88.9087 68.0901 88.899 68.2982C88.8962 68.3469 88.8934 68.3955 88.8906 68.4442C88.9213 68.3547 89.0666 68.4008 89.0778 68.4877C89.4731 71.2643 89.9675 74.2081 89.5122 76.9992C89.2398 78.6646 88.4352 79.8839 87.3597 81.2004C86.2073 82.6116 84.9027 83.9242 83.5687 85.183C82.7222 85.982 81.8381 86.9036 80.8016 87.4895C79.5962 88.1701 78.2287 88.6877 76.9422 89.2128C75.6334 89.7487 74.305 90.2437 72.9515 90.6729C70.2459 91.5339 67.4494 92.129 64.6041 92.3897C62.3259 92.5977 59.7222 92.8243 57.539 92.0184C55.8656 91.4009 54.5149 90.2846 53.4435 88.9416C52.2772 87.4789 51.3552 85.8128 50.8455 84.0559C50.3158 82.2309 51.153 79.0458 51.2646 78.7515Z" fill="#DDFF53"/>
<path fill-rule="evenodd" clip-rule="evenodd" d="M44.5259 57.1078C44.641 57.0898 44.7563 57.0728 44.8715 57.0569C44.9615 57.0089 45.0671 56.972 45.1899 56.9497C45.4703 56.8828 45.7488 56.8377 46.0268 56.8134C50.0175 55.9689 59.2498 57.1679 59.6308 60.37C60.9016 60.7689 62.0012 60.4117 63.4742 60.4472C64.5953 56.0408 83.9786 56.6628 84.9108 59.3194C84.9143 59.3184 84.9178 59.3177 84.9214 59.3166C85.8171 59.0559 87.1376 59.1188 88.1629 59.0775C90.3519 59.0344 92.5435 59.2178 94.6853 59.652C98.696 60.2513 104.17 60.9529 101.38 65.6622C101.38 65.663 101.379 65.6639 101.379 65.6647L101.378 65.6643C100.898 66.1276 100.082 65.7545 100.051 65.1273C100.989 62.8963 98.871 62.6284 97.2412 61.9873C93.1861 60.6174 89.0575 60.4275 84.8634 60.8512C84.5478 61.2005 84.0691 61.5051 83.563 61.6645C80.7588 62.1022 82.2367 64.0581 80.4641 64.3426C80.7898 71.1605 71.9864 74.8821 66.8855 70.4003C64.8489 68.528 64.3634 65.7545 63.8913 63.2545C63.6416 63.2018 63.4828 63.0734 63.3901 62.9035C62.7897 62.3399 62.4124 61.8193 61.2251 61.6645C60.0378 61.5099 59.1237 61.8204 59.0001 61.9155C58.9689 61.9745 58.9355 62.0337 58.8966 62.0929C58.8423 62.1811 58.7685 62.2515 58.6846 62.3068C59.8571 69.0962 54.2516 73.3898 48.5927 69.8685C46.1338 67.6937 45.6142 64.364 45.5116 61.392C45.1783 61.2029 44.9672 60.8364 45.0826 60.3756C45.2416 59.7403 44.8687 59.1903 44.2749 58.9142C43.5032 58.5555 43.6397 57.2458 44.5259 57.1078ZM68.8413 60.3287C69.5437 60.1834 69.8436 61.2017 69.139 61.3474C68.64 61.4505 68.2171 61.6871 67.9314 62.088L67.9013 62.1315C67.5179 62.7052 66.5484 62.1757 66.9345 61.5983C67.3688 60.9486 68.0438 60.4935 68.8413 60.3287ZM48.2687 59.6973C48.5163 59.5333 48.891 59.655 49.0348 59.8868C49.193 60.142 49.0893 60.4261 48.8574 60.5931L48.8338 60.6094C48.621 60.7504 48.4139 61.0031 48.3878 61.262L48.3856 61.2944C48.3577 61.972 47.2377 61.9754 47.2657 61.2944C47.293 60.6281 47.7033 60.0715 48.2687 59.6973Z" fill="#DDFF53"/>
<path fill-rule="evenodd" clip-rule="evenodd" d="M49.608 112.138C50.6956 111.751 51.744 111.303 52.6992 110.644C55.4526 108.594 57.248 105.51 58.9444 102.588C61.3339 98.3375 63.0362 93.8087 64.213 89.0842C64.7186 87.0543 64.8903 84.7009 66.0391 82.9012C68.6434 79.133 76.2799 79.6213 80.3349 80.2827C83.0504 80.7632 83.6116 83.802 84.2284 86.0507C84.7419 87.9191 85.0781 89.8086 85.3603 91.7235C86.0316 92.1649 86.7895 92.5233 87.512 92.8356C95.3852 95.2498 96.769 99.7256 99.7761 106.639C104.855 116.688 118.637 120.623 120.719 132.515C122.06 140.367 118.246 147.753 114.314 154.28C110.651 161.41 105.538 164.832 97.3958 163.147C89.7586 161.434 82.4188 158.568 74.916 156.354C71.2821 155.46 67.6539 153.136 63.8313 153.946C55.9548 155.715 47.8622 156.547 39.7902 156.317C28.4569 156.776 28.4587 145.898 29.6219 137.475C30.4366 124.366 37.0487 115.948 49.608 112.138Z" fill="#D08B5B"/>
<path fill-rule="evenodd" clip-rule="evenodd" d="M48.8499 131.107C47.9029 131.733 47.1064 132.683 46.467 133.682C49.1363 133.405 51.8011 133.084 54.4599 132.72C54.1118 132.497 53.7605 132.28 53.4012 132.075C52.0902 131.336 50.3138 130.139 48.8499 131.107ZM93.1995 138.998C93.6886 138.806 93.8779 138.06 94.0685 137.633C94.6662 136.292 95.2117 134.929 95.7792 133.575C93.6244 132.961 91.5289 132.28 89.2967 131.952C86.8965 131.601 84.4608 131.515 82.0384 131.594C77.1318 131.755 72.2708 132.556 67.4468 133.416C62.6285 134.275 57.8104 135.1 52.9584 135.748C48.2047 136.382 43.436 136.847 38.6584 137.254C37.7302 137.333 36.1824 137.667 35.4359 136.937C34.8449 136.358 34.8257 135.291 35.5653 134.821C36.026 134.528 36.6935 134.523 37.2198 134.456C37.8826 134.37 38.5481 134.314 39.2149 134.269C39.4866 134.252 39.7582 134.235 40.03 134.218C37.8485 133.396 35.5701 132.947 33.2051 133.072C33.0713 133.885 32.4687 134.721 32.1389 135.391C31.563 136.561 31.1141 137.745 30.8194 139.017C30.2034 141.676 30.1766 144.435 30.3506 147.147C30.5104 149.408 30.8537 151.909 32.6273 153.511C33.9701 154.723 35.8647 155.172 37.6223 155.313C39.6652 155.477 41.7396 155.302 43.7653 155.028C46.6065 154.644 49.461 154.136 52.2464 153.455C57.6411 152.136 62.812 150.038 67.5827 147.193C69.9093 145.806 72.1292 144.246 74.4877 142.911C76.8909 141.551 79.4481 140.496 82.1332 139.841C85.1382 139.108 88.2795 138.795 91.3679 138.976C91.9039 139.007 92.6782 139.202 93.1995 138.998ZM96.6816 137.637C96.3658 138.661 96.1242 139.831 95.4502 140.692C94.7826 141.545 93.7755 141.846 92.7321 141.922C91.4741 142.014 90.2013 141.955 88.9405 142.002C86.3547 142.098 83.8043 142.518 81.3323 143.289C79.0287 144.007 76.8903 145.127 74.8304 146.369C72.9255 147.518 71.0766 148.752 69.1711 149.897C69.6783 150.13 70.1796 150.381 70.6838 150.6C71.7412 151.059 72.8051 151.502 73.8737 151.934C75.9811 152.786 78.0973 153.617 80.2353 154.389C84.5462 155.946 88.928 157.306 93.3625 158.465C95.4775 159.017 97.6226 159.663 99.8199 159.755C101.768 159.836 103.573 159.285 105.144 158.127C108.404 155.724 110.997 152.256 113.093 148.835C114.338 146.802 115.425 144.667 116.324 142.459C116.779 141.342 117.191 140.208 117.562 139.061C117.736 138.523 117.902 137.981 118.058 137.437C118.127 137.198 118.192 136.958 118.258 136.718C114.925 135.701 111.552 134.782 108.101 134.273C106.258 134.001 104.391 133.863 102.528 133.883C101.603 133.893 100.679 133.943 99.7589 134.038C99.2638 134.09 98.7707 134.156 98.2797 134.238C98.0768 134.271 97.8682 134.321 97.659 134.358C97.3395 135.453 97.0174 136.547 96.6816 137.637ZM27.7881 133.284C27.6085 132.92 27.5327 132.563 27.4683 132.167C27.4192 131.865 27.289 131.441 27.4031 131.049C27.5308 130.61 27.8789 130.218 28.1288 129.843C28.4047 129.43 28.6804 129.016 28.9557 128.602C29.5064 127.774 30.0559 126.945 30.6045 126.116C32.8449 122.729 35.07 119.332 37.2986 115.937C39.2763 112.925 41.2207 109.886 43.2587 106.914C45.0013 104.372 46.9008 101.873 49.2861 99.8963C52.302 97.3973 55.8932 96.2201 59.6444 95.3015C60.0541 94.8762 60.6013 94.644 61.1863 94.6911C62.0127 93.7539 62.6695 93.0992 62.9672 91.9073C63.1099 91.3364 63.0652 89.7323 63.6212 89.3945C64.2816 88.9932 64.6265 89.5243 64.8087 90.1229C65.418 92.1257 64.7186 94.8184 63.1091 96.8245C63.7873 99.1681 64.6863 102.499 66.2902 104.376C68.0076 106.387 70.3828 107.013 72.9454 107.054C77.8325 107.132 82.7145 105.316 86.4421 102.168C87.5751 101.212 88.6273 100.143 89.5794 99.0067C90.2934 98.1541 91.1381 96.8383 91.6968 95.8438C91.6968 95.4563 92.1544 95.051 87.4958 94.7378C82.8373 94.4247 82.484 88.046 82.3804 87.1779C82.2962 86.473 81.9383 85.3788 82.435 84.804C82.6458 84.5599 83.0784 84.5205 83.3457 84.6864C83.8497 84.9994 84.0153 85.7997 84.1738 86.3432C84.3957 87.1046 85.1213 91.83 86.4962 92.3771C87.1399 92.6332 87.8781 92.638 88.559 92.6853C89.3998 92.7441 90.2423 92.787 91.0798 92.8849C91.3887 92.9209 91.7256 93.0209 92.0303 93.0238C92.2286 93.0257 92.4331 92.9293 92.6248 92.8617C93.2716 92.6331 93.9179 92.8046 94.5842 92.8941C100.476 93.6859 106.542 95.4929 111.567 98.7443C115.996 101.61 119.116 105.731 121.175 110.55C123.276 115.468 124.48 120.786 125.49 126.021C125.828 127.775 126.123 129.537 126.376 131.305C126.622 133.014 126.928 134.76 127.002 136.486C127.031 137.169 126.867 137.803 126.616 138.427C126.333 139.129 125.665 139.406 125.024 139.734C123.616 140.454 122.132 141.012 120.602 141.408C119.667 143.108 118.881 144.874 118.249 146.707C118.483 147.172 118.488 147.866 118.533 148.317C118.645 149.442 118.693 150.572 118.703 151.701C118.723 153.965 118.587 156.227 118.48 158.487C118.372 160.78 118.012 169.826 117.954 170.93C117.908 171.788 117.97 172.989 117.518 173.75C116.823 174.921 115.108 174.882 114.314 173.933C94.5842 178.174 57.497 176.897 42.5602 174.762C40.6167 174.485 41.227 174.793 40.7327 174.302C40.3619 173.933 40.0462 173.302 39.9437 172.794C39.8066 172.117 40.0278 171.504 40.4156 170.956C40.8233 170.38 40.8976 169.447 41.049 168.761C41.4071 167.142 41.5851 160.029 41.7524 159.24C41.8045 158.995 41.855 158.735 41.9159 158.475C39.176 158.735 36.3211 158.735 33.7145 157.819C32.2364 157.299 30.8579 156.483 29.7968 155.317C28.5119 153.906 27.7971 152.129 27.4295 150.275C26.9552 147.884 26.8545 145.407 26.9476 142.976C27.0772 140.103 27.5536 137.19 28.7362 134.553C28.3471 134.191 28.0209 133.755 27.7881 133.284Z" fill="black"/>
<path fill-rule="evenodd" clip-rule="evenodd" d="M53.0795 58.9173C53.5434 55.2072 55.0008 51.2681 56.5335 47.8093C59.9799 40.4963 67.87 39.4895 74.9432 37.9817C81.923 36.9634 89.3142 36.0439 96.1887 38.0756C100.053 39.0244 101.563 43.6369 100.953 47.2769C100.605 49.5451 99.5747 51.6917 98.6961 53.7939C96.9499 58.1108 95.842 62.7325 95.8402 67.4064C95.96 70.4608 96.3902 73.947 92.8876 75.2407C89.5545 76.9017 89.2729 81.4043 85.0995 83.9589C83.4119 87.3844 78.815 87.6859 75.5064 88.4805C73.4152 88.8816 71.3004 89.1768 69.1799 89.3674C63.0397 90.1559 58.1277 88.3729 54.9135 82.8916C52.7626 79.5558 51.1609 75.7041 51.5566 71.6612C51.9507 67.4039 52.6073 63.1688 53.0795 58.9173Z" fill="#D08B5B"/>
<path fill-rule="evenodd" clip-rule="evenodd" d="M74.8906 29.094C74.5401 28.6959 74.0002 28.8324 73.6725 29.1472C73.4591 29.2102 73.2524 29.3039 73.0571 29.4279C72.6159 29.3711 72.1534 29.3711 71.7206 29.387C71.6157 29.3281 71.5032 29.2756 71.3807 29.2305C70.5058 28.91 69.731 29.0728 69.0919 29.5019C68.7841 29.2101 68.3957 29.0269 67.8993 29.0546C67.4562 29.0794 67.1405 29.2883 66.8699 29.5635C66.6 29.1736 66.1638 28.8954 65.6204 28.8567C64.8608 28.8026 64.1306 29.1079 63.5255 29.5804C63.1729 29.1751 62.6922 28.9422 62.1565 28.9399C61.804 28.8758 61.432 28.9011 61.0959 29.0028C60.608 29.1504 60.1795 29.4271 59.8383 29.7862C59.2985 29.2682 58.6377 28.8954 57.8758 28.9498C56.8896 29.0212 56.0722 29.7478 55.6922 30.6421C55.0248 30.91 54.4086 31.2921 53.8937 31.837C53.8662 31.8657 53.8399 31.8957 53.8124 31.9259C53.5349 32.0285 53.2737 32.1739 53.0437 32.3654C52.3151 32.973 52.1526 33.8523 52.3938 34.7139C52.3601 34.8518 52.3313 34.9921 52.3051 35.1322C51.6226 35.2362 51.0027 35.6309 50.6502 36.2734C50.1678 37.1552 50.2628 38.3174 50.7852 39.1592C51.0098 39.5213 51.2949 39.8264 51.6151 40.0932C51.253 40.9174 51.4268 41.9008 52.0106 42.5674C52.1528 42.7973 52.3274 43.0047 52.5239 43.1924C52.3071 44.0445 52.6928 44.9237 53.4627 45.379L53.5285 45.5441C53.5396 45.5716 53.5508 45.5989 53.5624 45.626C53.5709 45.661 53.5814 45.695 53.5918 45.7292C53.6102 46.0315 53.7095 46.3283 53.9068 46.6078C54.3106 47.1807 54.8111 47.5544 55.0764 48.2232L55.103 48.2935C55.2171 48.61 55.5856 48.8333 55.8996 48.7356C54.1564 52.3229 53.2425 56.3146 52.615 60.2265C52.3022 62.178 52.0607 64.1363 51.8649 66.1022L51.6729 68.0598C51.504 69.7999 51.3536 71.5457 51.3526 73.2915C51.3502 77.2408 52.4775 81.0396 54.8973 84.1823C57.1858 87.1531 60.4243 89.3062 64.0827 90.1542C67.8598 91.0284 72.2906 90.684 75.6778 88.6825C76.6764 88.0939 75.8015 86.6784 74.7854 87.152C72.8618 88.0488 70.907 88.7151 68.7747 88.8642C66.6961 89.0106 64.6126 88.7501 62.6415 88.0687C59.3806 86.9403 56.6059 84.5768 54.8223 81.6334C53.9436 80.1829 53.3075 78.6086 52.9687 76.9451C52.5471 74.8718 52.6106 72.7289 52.7656 70.6291L52.7763 70.486C53.0825 66.4402 53.4862 62.3695 54.1386 58.3641C54.7153 54.8221 55.6021 51.3519 56.7534 47.9584C57.2043 47.5606 57.7088 47.2314 58.2486 46.9814C62.2016 46.816 66.1617 46.8643 70.1096 47.1376C73.4765 47.3722 76.8271 47.7692 80.1524 48.3476L80.5085 48.4103C81.2447 48.5417 82.0621 48.6169 82.7558 48.9138C83.3508 49.1693 83.592 49.6603 83.742 50.2639C84.1194 51.7907 84.1769 53.4617 84.2407 55.0274C84.3032 56.5578 84.1619 58.1011 84.2844 59.6265C84.3882 60.9028 84.7144 62.2092 85.658 63.1324C86.1517 63.6158 86.7592 63.8801 87.3291 64.2471C87.6978 64.4839 87.8541 64.728 87.8066 65.1664C87.7041 66.1258 86.9329 67.3345 87.7991 68.1562C87.9516 68.3002 88.2153 68.319 88.3653 68.1562C88.7227 67.7668 89.2164 67.4698 89.6401 67.1554C89.8176 67.0253 89.6701 66.7723 89.4689 66.8623C89.2039 66.9814 88.934 67.1217 88.6577 67.2445C89.2677 66.7409 90.1351 66.4941 90.8575 66.3475C91.2212 66.2749 91.6037 66.2536 91.9824 66.2875C92.2624 66.4214 92.5486 66.5455 92.8348 66.6669C93.1985 66.8199 93.566 66.9588 93.936 67.0904C95.2196 68.1386 95.832 69.8434 95.5646 71.5105C95.4183 72.431 94.9946 73.4319 94.1959 73.9692C93.2498 74.6055 91.9824 74.3323 90.96 74.8047C90.0026 75.2467 89.4202 76.1399 88.984 77.0642L88.8021 77.4491C88.3972 78.3011 87.9811 79.1306 87.4279 79.9061C86.7879 80.8041 86.0042 81.6107 85.1493 82.3035C84.7346 82.6388 84.2925 82.9403 83.8357 83.215L83.7107 83.2892C83.2483 83.561 82.9171 83.8202 82.8858 84.3951C82.8758 84.5955 83.002 84.7784 83.1645 84.8823C83.8645 85.327 84.5606 84.7708 85.1431 84.3826C85.7718 83.9642 86.373 83.4934 86.9292 82.9799C87.9866 82.0054 88.9015 80.8481 89.6051 79.5917C90.1413 78.6349 90.4463 77.2884 91.2937 76.5469C91.8112 76.0946 92.5424 76.091 93.1885 76.0082C93.7897 75.9307 94.3584 75.8054 94.8934 75.5086C97.0694 74.2974 97.6844 71.3652 97.1682 69.0994C97.0807 68.7173 96.9582 68.3453 96.8069 67.9871C97.6169 68.1223 98.5268 67.2833 98.1981 66.4365C98.1731 66.3726 98.1443 66.3126 98.1168 66.2511C98.6505 65.8991 99.0717 65.3657 99.2717 64.6679C99.3742 64.3072 99.3892 63.9427 99.3354 63.5907C99.5942 63.4168 99.8079 63.1774 99.9454 62.8831C100.375 62.6839 100.757 62.3859 100.984 61.9601C101.299 61.3725 101.259 60.8314 101.019 60.3442C101.053 60.283 101.085 60.2203 101.117 60.1563C101.998 59.5966 102.613 58.632 102.543 57.5624C102.52 57.2079 102.433 56.8885 102.298 56.6005C102.309 56.5642 102.32 56.5265 102.33 56.4902C103.068 56.1144 103.678 55.4971 103.895 54.6729C104.112 53.8436 103.856 53.017 103.344 52.3807C104.094 51.8309 104.545 51.0632 104.271 49.9019C104.16 49.4299 103.936 49.0001 103.634 48.6381C103.635 48.627 103.638 48.6157 103.64 48.6043L103.71 48.5498C104.636 47.8177 105.168 46.8847 104.6 45.7373C104.345 45.2214 103.981 44.8618 103.554 44.6251L103.533 44.5574C103.839 43.8999 103.942 43.1696 103.731 42.4019C103.559 41.7695 103.15 41.2658 102.628 40.9315C102.663 40.6483 102.658 40.3466 102.601 40.0196C102.508 39.4673 102.234 38.9851 101.834 38.6432C101.819 38.5704 101.8 38.4991 101.779 38.4276C101.644 37.9906 101.391 37.5159 101.099 37.1638C100.858 36.872 100.588 36.7655 100.258 36.7542C100.278 36.4851 100.264 36.2119 100.209 35.9351C100.04 35.081 99.4979 34.278 98.6943 33.9135C98.3643 33.7645 98.0168 33.7208 97.6819 33.757C97.3969 33.1558 96.8407 32.72 96.157 32.6261C95.8908 32.5885 95.6433 32.5909 95.4158 32.6248C95.2871 32.5646 95.1534 32.5108 95.0134 32.4619C94.9209 32.4293 94.8271 32.3992 94.7334 32.3693C94.4172 31.976 94.001 31.6615 93.5148 31.4725C92.9536 31.2533 92.3824 31.2757 91.8762 31.4598L91.7149 31.426C91.4625 30.9876 91.06 30.6482 90.4413 30.4941C89.7389 30.32 89.0177 30.563 88.4653 31.0053C88.4628 31.0053 88.4603 31.0053 88.4565 31.0039C88.1678 30.3564 87.6741 29.9055 86.8454 29.9368C86.3292 29.9568 85.863 30.2137 85.503 30.5794C85.3031 30.5543 85.1031 30.5317 84.9019 30.5093C84.6894 30.2599 84.4532 30.0271 84.1919 29.8179C83.7645 29.4746 83.2083 29.5023 82.8933 29.9856C82.8246 30.0908 82.7608 30.1973 82.6971 30.3038L82.4084 30.2837C82.0684 29.824 81.6047 29.5134 80.9697 29.4885C80.3873 29.4646 79.9723 29.7503 79.6561 30.1497C79.3986 30.1434 79.1399 30.1386 78.8812 30.1347C78.58 29.7852 78.225 29.4771 77.8201 29.2216C77.5101 29.0262 77.0526 29.0927 76.8014 29.3532C76.6317 29.5303 76.4737 29.7152 76.3268 29.9066C75.9482 29.4812 75.4369 29.201 74.8906 29.094ZM93.2863 68.8678C92.7026 68.5346 91.9177 68.8953 91.3528 69.1784C90.6641 69.5228 89.9804 70.0426 89.5592 70.6939C88.9855 71.5807 90.3341 72.2972 90.9378 71.5018C91.309 71.0121 91.6052 70.5186 92.0552 70.0902C92.4664 69.6969 93.0626 69.4339 93.2988 68.9154C93.3076 68.8978 93.3051 68.8778 93.2863 68.8678ZM92.8761 47.3431L92.8652 47.3118C92.6992 46.8568 93.4236 46.6606 93.5882 47.1119C93.8377 47.7959 93.5501 48.5395 92.8759 48.8349C92.689 48.9168 92.4756 48.8884 92.363 48.7001C92.2683 48.5417 92.3122 48.2671 92.4974 48.1861C92.8768 48.0199 93.0038 47.7265 92.8761 47.3431ZM99.1168 46.0706C98.7542 45.75 99.2862 45.2201 99.6471 45.5393C99.9838 45.8372 100.234 46.2417 100.169 46.7071C100.103 47.1813 99.7457 47.5161 99.3551 47.7527C98.9412 48.0035 98.5638 47.354 98.9766 47.1037L99.023 47.0753C99.1963 46.9674 99.3991 46.8192 99.4285 46.607C99.4596 46.3815 99.2692 46.2055 99.1168 46.0706ZM97.0583 40.4128L97.0326 40.3939C96.6432 40.1153 97.0173 39.4632 97.4112 39.7449C97.7724 40.0033 98.0622 40.339 98.0927 40.8019C98.1223 41.2518 97.8938 41.6419 97.5951 41.9584C97.2627 42.3105 96.733 41.7784 97.0648 41.4271C97.388 41.0846 97.4511 40.711 97.0583 40.4128Z" fill="black"/>
<path fill-rule="evenodd" clip-rule="evenodd" d="M65.8086 80.8191C66.6506 80.4756 67.4018 79.9027 67.9511 79.1708C68.142 78.9163 68.1915 78.6476 68.1515 78.4019C68.1064 78.1256 67.943 77.8751 67.72 77.7071C67.4964 77.5386 67.2166 77.4555 66.9462 77.4979C66.7111 77.5347 66.4772 77.6634 66.2921 77.9302L66.2534 77.9836C65.9268 78.4253 65.5013 78.7878 65.0165 79.0214C64.5492 79.2466 64.0266 79.3517 63.4858 79.2906C62.4557 79.1742 61.7457 78.6172 60.9911 77.8607C60.8976 77.7652 60.804 77.6667 60.7099 77.5666C60.6505 77.4759 60.5681 77.4175 60.4766 77.387C60.375 77.353 60.2601 77.3549 60.1548 77.3916C60.0532 77.4271 59.9625 77.4942 59.9016 77.5836C59.8437 77.6685 59.8109 77.7735 59.8216 77.8942C59.8907 78.6781 60.3005 79.3778 60.8827 79.9272C61.5293 80.5373 62.3865 80.9595 63.1934 81.1075C64.0824 81.2706 64.9883 81.1537 65.8086 80.8191ZM62.774 68.7249C61.8282 69.2999 60.387 70.6404 61.4045 72.0657C62.6022 73.3224 64.3266 71.8815 65.1763 71.2299C65.9643 70.7248 66.8496 72.0237 66.1185 72.6135C59.9782 77.1595 57.4863 68.8753 62.2956 68.049C62.8251 67.9579 63.0218 68.5471 62.774 68.7249ZM73.7773 63.4366C73.6728 62.1395 71.6973 61.8449 71.5007 63.1285C71.3248 64.2783 71.5319 65.3346 72.0498 66.3698C72.5447 67.3588 73.7885 66.8974 73.8826 65.9968C74.0087 64.7896 73.8423 64.2435 73.7773 63.4366ZM58.7389 62.8625C58.4634 62.5018 58.0658 62.2555 57.5893 62.3947C56.1007 62.8297 56.5395 64.943 57.0623 65.9717C57.3463 66.5304 58.2645 66.672 58.6795 66.1802C59.3559 65.378 59.6798 63.7762 58.8199 62.9861C58.7966 62.9453 58.7707 62.9041 58.7389 62.8625ZM72.0708 57.7608L71.8357 57.7197C71.1082 57.5939 70.2037 57.473 69.6891 58.0578C69.4162 58.3679 69.3223 58.9443 69.6891 59.2412C70.3344 59.7635 71.0479 59.5611 71.8212 59.6053C72.4585 59.6419 73.0709 59.7473 73.6848 59.9228C75.0315 60.3077 76.1288 61.0104 77.279 61.7819C77.43 61.8831 77.584 61.6901 77.512 61.5489C76.848 60.2484 75.5613 59.1802 74.2725 58.529C73.5846 58.1814 72.8318 57.8931 72.0708 57.7608ZM60.096 57.1782L59.916 57.215C57.9574 57.6244 55.4127 58.4422 54.4853 60.366C54.4499 60.6381 54.4873 60.6964 54.5176 60.7345L54.5277 60.7471C54.5528 60.7797 54.5727 60.8245 54.6906 60.8615C54.7234 60.8537 54.7564 60.8455 54.7898 60.8367C55.2149 60.7253 55.5513 60.5718 55.877 60.4126L56.23 60.2386C56.6397 60.0378 57.0529 59.8442 57.4909 59.7013C58.4255 59.3965 59.3869 59.1817 60.3632 59.067C60.5748 59.0422 60.7785 58.9708 60.9393 58.8484C61.0918 58.7322 61.2084 58.5714 61.2616 58.3576C61.3304 58.0809 61.3106 57.8714 61.1622 57.6218C61.0506 57.4343 60.8908 57.3044 60.7074 57.2298C60.5204 57.1537 60.3076 57.1358 60.096 57.1782Z" fill="black"/>
<path fill-rule="evenodd" clip-rule="evenodd" d="M73.9326 81.6039C72.9185 79.2282 70.7053 77.4822 68.157 76.8439C66.2857 76.3763 64.3219 76.3913 62.4143 76.5768C61.4149 76.6734 60.3429 76.7525 59.401 77.1236C58.5967 77.4407 57.9413 78.0401 57.4484 78.7436C56.8618 79.5773 56.4628 80.5315 56.1826 81.5095C56.1428 81.6486 56.1054 81.7886 56.0705 81.9294C56.1923 82.6673 56.451 83.2954 57.1345 83.7593C57.8014 84.2123 58.5972 84.3977 59.3905 84.4635C59.4683 84.4261 59.5435 84.3877 59.6124 84.3484C60.8486 83.6407 61.7187 81.9683 63.2791 82.1946C64.6715 82.3967 65.5881 84.1488 66.4162 85.1762C69.0743 85.4859 71.7304 84.6872 73.8931 83.1672C74.0029 82.647 74.0093 82.1224 73.9326 81.6039ZM54.2642 79.8017C54.4769 79.205 54.7447 78.6271 55.0621 78.0827C56.1116 76.2823 57.7227 74.8477 59.6353 74.0277C64.1596 72.0905 70.0136 73.4561 73.6674 76.6332C74.9155 77.7193 76.1775 79.3154 76.5591 81.0321C76.6731 81.0547 76.7807 81.114 76.8692 81.1975C79.509 79.5355 82.2275 77.9365 84.3547 75.6326C85.8995 73.9587 86.974 71.9778 87.632 69.8009C87.6858 69.6218 87.9747 69.648 87.966 69.8462C87.9635 69.8926 87.961 69.9389 87.9585 69.9853C87.986 69.9 88.1161 69.9439 88.1261 70.0266C88.4801 72.671 88.9229 75.4747 88.5151 78.1328C88.2712 79.719 87.5507 80.8802 86.5875 82.134C85.5556 83.478 84.3873 84.7281 83.1927 85.927C82.4347 86.6879 81.6429 87.5656 80.7147 88.1236C79.6352 88.7718 78.4107 89.2647 77.2586 89.7649C76.0866 90.2752 74.897 90.7467 73.6849 91.1554C71.262 91.9754 68.7578 92.5422 66.2098 92.7905C64.1696 92.9886 61.838 93.2044 59.8829 92.4369C58.3844 91.8488 57.1748 90.7857 56.2154 89.5066C55.171 88.1136 54.3453 86.5268 53.8888 84.8535C53.4145 83.1154 54.1643 80.082 54.2642 79.8017Z" fill="black"/>
<path fill-rule="evenodd" clip-rule="evenodd" d="M48.2296 59.1886C48.3327 59.1715 48.4359 59.1553 48.5391 59.1401C48.6196 59.0944 48.7142 59.0592 48.8242 59.0381C49.0753 58.9743 49.3247 58.9313 49.5737 58.9082C53.1474 58.1039 61.4149 59.2459 61.7561 62.2955C62.8941 62.6754 63.8788 62.3352 65.1979 62.369C66.2019 58.1724 83.5597 58.7648 84.3945 61.2948C84.3976 61.294 84.4008 61.2932 84.404 61.2922C85.2061 61.044 86.3886 61.1038 87.3067 61.0645C89.267 61.0234 91.2296 61.1982 93.1476 61.6116C96.7392 62.1824 101.641 62.8506 99.143 67.3356C99.1425 67.3364 99.1422 67.3373 99.1415 67.338L99.1412 67.3376C98.7107 67.7789 97.9801 67.4236 97.9529 66.8262C98.7927 64.7014 96.8959 64.4463 95.4365 63.8357C91.805 62.5311 88.1078 62.3502 84.352 62.7538C84.0695 63.0865 83.6407 63.3765 83.1876 63.5283C80.6764 63.9452 81.9998 65.8079 80.4125 66.0788C80.7041 72.5722 72.8206 76.1165 68.2528 71.8481C66.429 70.065 65.9942 67.4236 65.5714 65.0426C65.3478 64.9924 65.2056 64.8702 65.1226 64.7083C64.5849 64.1715 64.2471 63.6758 63.1838 63.5283C62.1206 63.381 61.302 63.6768 61.1913 63.7673C61.1634 63.8236 61.1334 63.8799 61.0986 63.9363C61.05 64.0203 60.9839 64.0873 60.9087 64.1401C61.9587 70.6061 56.939 74.6953 51.8714 71.3417C49.6695 69.2704 49.2042 66.0993 49.1123 63.2688C48.8138 63.0887 48.6248 62.7396 48.7281 62.3007C48.8705 61.6958 48.5366 61.172 48.0048 60.9089C47.3138 60.5674 47.436 59.32 48.2296 59.1886ZM70.0043 62.2562C70.6334 62.1179 70.902 63.0877 70.271 63.2264C69.8241 63.3247 69.4454 63.55 69.1896 63.9317L69.1626 63.9732C68.8193 64.5196 67.9511 64.0152 68.2968 63.4654C68.6858 62.8466 69.2902 62.4132 70.0043 62.2562ZM51.5815 61.6549C51.8033 61.4987 52.1388 61.6146 52.2676 61.8354C52.4093 62.0784 52.3164 62.349 52.1087 62.508L52.0876 62.5236C51.8971 62.6578 51.7116 62.8985 51.6883 63.1451L51.6862 63.1759C51.6613 63.8212 50.6583 63.8245 50.6834 63.1759C50.7078 62.5414 51.0752 62.0113 51.5815 61.6549Z" fill="black"/>
</svg>
