<svg width="188" height="121" viewBox="0 0 188 121" fill="none" xmlns="http://www.w3.org/2000/svg">
<mask id="mask0_41_7270" style="mask-type:luminance" maskUnits="userSpaceOnUse" x="-51" y="-47" width="239" height="168">
<path d="M-49.7301 55.2501C-49.6801 51.1701 -48.7201 47.0901 -47.5201 43.2101C-46.7801 40.8501 -45.6501 38.3701 -44.3401 36.2701C-43.2701 34.5601 -42.4901 32.6501 -41.4101 30.9701C-39.8501 28.5501 -37.7701 27.02 -34.8201 27.93C-31.2601 29.03 -28.1701 31.8901 -24.5201 32.7101C-21.2401 33.4401 -17.1701 33.6801 -14.3501 31.7401C-12.7601 30.6401 -11.1401 29.91 -9.74006 28.5301C-8.08006 26.9001 -6.86006 24.84 -5.65006 22.87C-4.81006 21.51 -4.27006 19.5801 -3.73006 18.1001C-3.02006 16.1601 -2.36005 14.1701 -1.59005 12.2501C-0.880054 10.4801 0.159943 8.93006 1.02994 7.25006C1.89994 5.57006 3.50994 3.78006 5.56994 3.55006C8.82994 3.19006 11.8499 4.74006 14.8899 5.67006C18.7299 6.86005 23.3399 7.02005 26.4199 3.99006C29.6699 0.810055 31.4299 -3.16994 33.9499 -6.86995C35.3499 -8.91994 36.02 -11.1799 37.0099 -13.4599C37.7999 -15.2999 38.8899 -16.8599 39.9699 -18.5199C41.9299 -21.5399 44.7999 -23.5199 48.4499 -23.8999C49.2899 -23.9899 50.09 -24.1699 50.91 -24.2799C52.02 -24.4199 53.0199 -24.0999 54.0999 -23.9099C56.1299 -23.5599 58.2299 -22.8099 60.27 -22.8399C64.8999 -22.9099 70.3699 -23.1699 74.3999 -25.7299C78.0799 -28.0699 81.1399 -31.0499 84.0499 -34.2499C86.4199 -36.8499 88.64 -39.8299 91.3199 -42.0999C94.9799 -45.1999 99.8199 -46.0999 104.49 -46.3599C107.21 -46.5199 109.95 -46.5999 112.69 -46.7299C116.06 -46.8799 119.32 -46.9399 122.68 -46.6399C125.71 -46.3699 128.56 -46.1599 131.54 -45.5599C134.89 -44.8899 138.25 -44.4599 141.58 -43.6799C145.22 -42.8299 148.56 -42.0199 152.03 -40.5499C153.16 -40.0699 154.34 -39.7599 155.44 -39.2199C157.11 -38.3999 158.71 -37.2399 160.28 -36.2599C165.08 -33.2499 169.19 -29.2199 173.33 -25.3699C177.18 -21.7799 174.12 -15.8899 172.42 -11.9799C170.72 -8.06995 168.21 -4.50994 166.18 -0.679943C164.15 3.15005 161.17 6.59005 160.53 10.9901C159.73 16.5801 160.42 23.0201 163.64 27.79C167.1 32.91 171.97 36.86 175.95 41.54C177.6 43.48 179.24 45.41 180.79 47.43C182.67 49.88 183.94 52.9301 185.29 55.7101C186.25 57.7001 187.15 60.1701 187.39 62.4101C187.63 64.6501 187.13 67.0201 186.93 69.23C186.87 69.8801 186.87 70.4601 186.71 71.1101C186.02 73.9301 184.82 77.1101 183.16 79.5201C180.85 82.8801 178.8 86.3401 175.95 89.2801C173.95 91.3501 171.48 92.6701 169.11 94.2401C167.63 95.2201 166.35 96.2501 164.77 97.0401C162.36 98.2501 159.85 99.2501 157.42 100.4C156.24 100.96 155.25 101.46 153.95 101.73C151.34 102.27 148.61 101.94 146.01 102.48C145.07 102.67 144.94 102.74 143.78 102.62C141.67 102.41 139.07 102.27 137.1 101.42C134.45 100.29 132.07 98.6901 129.61 97.2101C127.94 96.2101 126.19 95.2901 124.62 94.1401C121.35 91.7301 118.77 88.3801 116.11 85.3201C114.28 83.2201 112.41 81.16 110.87 78.8301C110.38 78.0901 110.03 77.26 109.5 76.54C107.86 74.28 105.22 72.2901 102.67 71.1901C97.1299 68.8101 91.6899 70.01 87.4999 74.37C84.7499 77.23 82.9299 81.4001 81.2599 84.9601C79.4399 88.8101 77.5899 91.9301 75.1699 95.4801C72.3299 99.6501 68.9899 103.48 65.2799 106.98C62.1499 109.93 58.8399 112.03 55.1299 114.26C52.0999 116.08 48.6499 117.81 45.2299 118.7C44.02 119.01 42.6399 119.04 41.3999 119.23C38.7899 119.63 36.31 120.13 33.66 120.02C28 119.78 21.4899 118.7 17.0399 114.88C15.3199 113.4 14.0999 112.39 13.8399 109.97C13.6799 108.45 13.7099 107.03 13.3199 105.52C10.4499 107.87 7.80994 110.49 4.91994 112.83C2.20994 115.02 -1.19006 116.25 -4.39006 117.52C-8.27006 119.06 -12.3401 118.73 -16.4801 118.59C-18.3901 118.53 -19.8801 117.9 -21.7201 117.31C-23.1301 116.86 -24.4101 116.52 -25.6901 115.81C-31.5801 112.51 -32.6001 104.98 -32.9201 98.8701C-33.0401 96.5101 -32.6601 94.0701 -32.0401 91.7901C-31.6201 90.2301 -31.0501 88.6701 -30.6001 87.1101C-30.4001 86.4301 -29.9901 85.5701 -30.0801 84.8401C-30.3301 82.7401 -34.8101 83.8901 -36.0901 84.0801C-37.1501 84.2401 -38.4401 84.7001 -39.5401 84.5601C-40.7601 84.4101 -42.2501 83.7301 -43.3101 83.0901C-44.3701 82.4501 -44.4801 82.05 -45.0301 80.7201C-45.3401 79.9701 -45.8001 79.34 -46.1401 78.62C-46.7601 77.3 -46.9401 75.6001 -47.3101 74.2001C-47.5901 73.15 -47.7001 72.3101 -47.7401 71.2101C-47.8201 69.0501 -48.2601 66.9501 -48.3501 64.79C-48.4201 63.09 -48.2601 61.15 -48.9101 59.59C-49.3601 58.5201 -49.8001 56.82 -49.9801 55.62C-50.1501 54.5 -50.1101 53.26 -48.9001 52.98" fill="white"/>
</mask>
<g mask="url(#mask0_41_7270)">
<path d="M-49.7301 55.2499C-49.6801 51.1699 -48.7201 47.0899 -47.5201 43.2099C-46.7801 40.8499 -45.6501 38.3699 -44.3401 36.2699C-43.2701 34.5599 -42.4901 32.6499 -41.4101 30.9699C-39.8501 28.5499 -37.7701 27.0199 -34.8201 27.9299C-31.2601 29.0299 -28.1701 31.8899 -24.5201 32.7099C-21.2401 33.4399 -17.1701 33.6799 -14.3501 31.7399C-12.7601 30.6399 -11.1401 29.9099 -9.74006 28.5299C-8.08006 26.8999 -6.86006 24.8399 -5.65006 22.8699C-4.81006 21.5099 -4.27006 19.5799 -3.73006 18.0999C-3.02006 16.1599 -2.36005 14.1699 -1.59005 12.2499C-0.880054 10.4799 0.159943 8.92994 1.02994 7.24994C1.89994 5.56993 3.50994 3.77994 5.56994 3.54994C8.82994 3.18994 11.8499 4.73993 14.8899 5.66993C18.7299 6.85993 23.3399 7.01993 26.4199 3.98993C29.6699 0.809933 31.4299 -3.17007 33.9499 -6.87007C35.3499 -8.92007 36.02 -11.1801 37.0099 -13.4601C37.7999 -15.3001 38.8899 -16.8601 39.9699 -18.5201C41.9299 -21.5401 44.7999 -23.5201 48.4499 -23.9001C49.2899 -23.9901 50.09 -24.1701 50.91 -24.2801C52.02 -24.4201 53.0199 -24.1001 54.0999 -23.9101C56.1299 -23.5601 58.2299 -22.8101 60.27 -22.8401C64.8999 -22.9101 70.3699 -23.1701 74.3999 -25.7301C78.0799 -28.0701 81.1399 -31.0501 84.0499 -34.2501C86.4199 -36.8501 88.64 -39.8301 91.3199 -42.1001C94.9799 -45.2001 99.8199 -46.1001 104.49 -46.3601C107.21 -46.5201 109.95 -46.6001 112.69 -46.7301C116.06 -46.8801 119.32 -46.9401 122.68 -46.6401C125.71 -46.3701 128.56 -46.1601 131.54 -45.5601C134.89 -44.8901 138.25 -44.4601 141.58 -43.6801C145.22 -42.8301 148.56 -42.0201 152.03 -40.5501C153.16 -40.0701 154.34 -39.7601 155.44 -39.2201C157.11 -38.4001 158.71 -37.2401 160.28 -36.2601C165.08 -33.2501 169.19 -29.2201 173.33 -25.3701C177.18 -21.7801 174.12 -15.8901 172.42 -11.9801C170.72 -8.07007 168.21 -4.51006 166.18 -0.680065C164.15 3.14993 161.17 6.58993 160.53 10.9899C159.73 16.5799 160.42 23.0199 163.64 27.7899C167.1 32.9099 171.97 36.8599 175.95 41.5399C177.6 43.4799 179.24 45.4099 180.79 47.4299C182.67 49.8799 183.94 52.9299 185.29 55.7099C186.25 57.6999 187.15 60.1699 187.39 62.4099C187.63 64.6499 187.13 67.0199 186.93 69.2299C186.87 69.8799 186.87 70.4599 186.71 71.1099C186.02 73.9299 184.82 77.1099 183.16 79.5199C180.85 82.8799 178.8 86.3399 175.95 89.2799C173.95 91.3499 171.48 92.6699 169.11 94.2399C167.63 95.2199 166.35 96.2499 164.77 97.0399C162.36 98.2499 159.85 99.2499 157.42 100.4C156.24 100.96 155.25 101.46 153.95 101.73C151.34 102.27 148.61 101.94 146.01 102.48C145.07 102.67 144.94 102.74 143.78 102.62C141.67 102.41 139.07 102.27 137.1 101.42C134.45 100.29 132.07 98.6899 129.61 97.2099C127.94 96.2099 126.19 95.2899 124.62 94.1399C121.35 91.7299 118.77 88.3799 116.11 85.3199C114.28 83.2199 112.41 81.1599 110.87 78.8299C110.38 78.0899 110.03 77.2599 109.5 76.5399C107.86 74.2799 105.22 72.2899 102.67 71.1899C97.1299 68.8099 91.6899 70.0099 87.4999 74.3699C84.7499 77.2299 82.9299 81.3999 81.2599 84.9599C79.4399 88.81 77.5899 91.9299 75.1699 95.4799C72.3299 99.6499 68.9899 103.48 65.2799 106.98C62.1499 109.93 58.8399 112.03 55.1299 114.26C52.0999 116.08 48.6499 117.81 45.2299 118.7C44.02 119.01 42.6399 119.04 41.3999 119.23C38.7899 119.63 36.31 120.13 33.66 120.02C28 119.78 21.4899 118.7 17.0399 114.88C15.3199 113.4 14.0999 112.39 13.8399 109.97C13.6799 108.45 13.7099 107.03 13.3199 105.52C10.4499 107.87 7.80994 110.49 4.91994 112.83C2.20994 115.02 -1.19006 116.25 -4.39006 117.52C-8.27006 119.06 -12.3401 118.73 -16.4801 118.59C-18.3901 118.53 -19.8801 117.9 -21.7201 117.31C-23.1301 116.86 -24.4101 116.52 -25.6901 115.81C-31.5801 112.51 -32.6001 104.98 -32.9201 98.8699C-33.0401 96.5099 -32.6601 94.0699 -32.0401 91.7899C-31.6201 90.2299 -31.0501 88.6699 -30.6001 87.1099C-30.4001 86.4299 -29.9901 85.5699 -30.0801 84.8399C-30.3301 82.7399 -34.8101 83.8899 -36.0901 84.0799C-37.1501 84.2399 -38.4401 84.6999 -39.5401 84.5599C-40.7601 84.4099 -42.2501 83.7299 -43.3101 83.0899C-44.3701 82.4499 -44.4801 82.0499 -45.0301 80.7199C-45.3401 79.9699 -45.8001 79.3399 -46.1401 78.6199C-46.7601 77.2999 -46.9401 75.5999 -47.3101 74.1999C-47.5901 73.1499 -47.7001 72.3099 -47.7401 71.2099C-47.8201 69.0499 -48.2601 66.9499 -48.3501 64.7899C-48.4201 63.0899 -48.2601 61.1499 -48.9101 59.5899C-49.3601 58.5199 -49.8001 56.8199 -49.9801 55.6199C-50.1501 54.4999 -50.1101 53.2599 -48.9001 52.9799" fill="#DB79E2"/>
<path d="M-48.48 55.25C-48.37 49.71 -46.92 43.77 -44.36 38.84C-43.16 36.54 -41.9 34.17 -40.55 31.96C-39.43 30.14 -37.84 28.5 -35.52 29.02C-33.2 29.54 -31.02 31.17 -28.88 32.29C-26.74 33.41 -24.78 34.01 -22.49 34.3C-20.2 34.59 -17.92 34.58 -15.79 33.83C-14.75 33.46 -13.89 32.91 -12.97 32.32C-11.85 31.61 -10.71 30.96 -9.68002 30.13C-5.76002 26.97 -3.83002 22.1 -2.19002 17.52C-1.23002 14.85 -0.330017 12.24 1.06998 9.76999C2.12999 7.88999 3.15998 5.25 5.55998 4.8C8.15998 4.30999 10.94 5.62999 13.33 6.45999C15.44 7.18999 17.63 7.71999 19.88 7.70999C21.99 7.69999 24.16 7.19999 25.92 6.00999C27.86 4.69999 29.34 2.71999 30.64 0.80999C32.07 -1.31001 33.29 -3.56001 34.7 -5.69001C36.11 -7.82001 37.01 -10.19 38.01 -12.57C39.01 -14.95 40.37 -17.22 41.98 -19.1C43.39 -20.75 45.23 -21.95 47.35 -22.45C48.49 -22.72 49.71 -22.88 50.87 -23.02C52.26 -23.19 53.77 -22.75 55.12 -22.45C57.68 -21.88 60 -21.56 62.62 -21.67C67.43 -21.86 72.12 -22.6 76.15 -25.39C80.18 -28.18 83.8 -31.97 87.08 -35.8C88.74 -37.74 90.41 -39.75 92.4 -41.37C94.39 -42.99 96.67 -43.86 99.06 -44.41C101.45 -44.96 103.97 -45.12 106.45 -45.23C109.34 -45.37 112.22 -45.51 115.11 -45.59C120.83 -45.74 126.57 -45.25 132.2 -44.19C137.75 -43.14 143.34 -42.29 148.72 -40.5C151.29 -39.64 154.03 -38.72 156.36 -37.32C158.56 -36 160.76 -34.58 162.81 -33.03C164.99 -31.39 167.04 -29.56 169.04 -27.7C169.97 -26.84 170.9 -25.97 171.82 -25.1C172.69 -24.29 173.45 -23.55 173.78 -22.37C174.3 -20.47 173.69 -18.41 173.05 -16.62C172.32 -14.57 171.4 -12.54 170.42 -10.6C169.21 -8.22001 167.78 -5.97001 166.44 -3.66001C165.17 -1.47001 163.94 0.71999 162.62 2.87999C161.3 5.03999 160.17 7.07999 159.59 9.43999C159.01 11.8 158.93 14.17 159.03 16.5C159.24 21.27 160.6 25.8 163.46 29.65C166.53 33.78 170.37 37.19 173.82 40.98C175.64 42.98 177.38 45.07 179.06 47.19C180.74 49.31 181.99 51.6 183.14 54.03C184.29 56.46 185.49 58.83 186.01 61.47C186.53 64.11 185.9 66.92 185.67 69.63C185.24 74.8 181.93 79.26 179.09 83.39C177.56 85.61 175.93 87.84 173.85 89.58C171.92 91.19 169.67 92.37 167.61 93.8C165.35 95.37 163.03 96.57 160.51 97.69C158.16 98.73 155.75 100.22 153.19 100.65C151.75 100.89 150.28 100.87 148.84 100.95C147.58 101.02 146.38 101.28 145.14 101.44C144.2 101.56 143.2 101.36 142.27 101.27C141.03 101.15 139.78 101 138.57 100.65C136.02 99.91 133.69 98.26 131.44 96.89C129.19 95.52 126.65 94.26 124.55 92.54C122.58 90.92 120.89 89 119.23 87.07C117.49 85.04 115.7 83.05 114.01 80.98C112.32 78.91 111.2 76.42 109.38 74.46C107.75 72.7 105.7 71.23 103.52 70.26C99.37 68.41 94.74 68.29 90.68 70.45C86.29 72.79 83.69 77.11 81.6 81.45C79.35 86.11 77.05 90.62 74.12 94.91C71.19 99.2 67.49 103.5 63.45 107.05C59.41 110.6 54.97 113.29 50.35 115.51C47.83 116.73 45.28 117.61 42.49 117.91C39.86 118.19 37.28 118.82 34.62 118.84C30.03 118.88 24.97 118.13 20.86 115.98C19.11 115.06 17.22 113.78 16 112.19C14.55 110.31 15.08 107.45 14.56 105.24C14.33 104.25 13.15 104.13 12.47 104.69C8.97998 107.57 5.83998 111.18 1.89999 113.44C-1.84002 115.58 -6.21001 117.33 -10.54 117.5C-12.76 117.59 -15.19 117.65 -17.39 117.32C-19.41 117.01 -21.49 116.2 -23.41 115.52C-26.83 114.3 -29.04 111.5 -30.18 108.12C-31.25 104.93 -31.68 101.4 -31.68 98.05C-31.68 95.74 -31.21 93.46 -30.55 91.25C-30.2 90.08 -29.81 88.91 -29.44 87.74C-29.16 86.82 -28.74 85.89 -28.8 84.91C-28.99 81.84 -33.02 82.36 -35.07 82.71C-36.49 82.95 -38.13 83.58 -39.55 83.36C-41.11 83.12 -43.02 82.3 -43.65 80.8C-44.08 79.78 -44.71 78.85 -45.12 77.83C-45.56 76.71 -45.71 75.49 -45.98 74.33C-46.57 71.85 -46.66 69.25 -46.93 66.71C-47.17 64.47 -46.85 62.07 -47.49 59.9C-47.71 59.17 -49.59 54.61 -48.55 54.27C-47.03 53.77 -47.68 51.36 -49.21 51.86C-53.54 53.27 -49.87 59.2 -49.65 62.02C-49.46 64.35 -49.42 66.66 -49.15 69C-49.01 70.2 -49 71.41 -48.86 72.6C-48.72 73.79 -48.4 74.88 -48.16 76.02C-47.94 77.09 -47.71 78.15 -47.26 79.15C-46.81 80.15 -46.24 81.07 -45.8 82.07C-45.07 83.76 -43.56 84.55 -41.92 85.23C-41.04 85.59 -40.09 85.9 -39.12 85.92C-37.97 85.94 -36.83 85.57 -35.71 85.37C-34.59 85.17 -33.33 84.88 -32.14 84.94C-31.92 84.95 -31.52 84.94 -31.33 85.07C-31.18 85.18 -31.27 85.03 -31.3 85.36C-31.41 86.52 -32.07 87.86 -32.43 88.97C-33.2 91.37 -33.85 93.77 -34.08 96.28C-34.42 99.98 -33.91 104.11 -32.91 107.68C-31.91 111.25 -30.1 114.46 -27.02 116.52C-25.14 117.77 -22.9 118.31 -20.79 119.01C-18.68 119.71 -16.48 119.94 -14.15 120.01C-11.42 120.1 -8.65002 120.09 -5.98002 119.43C-3.49002 118.81 -1.00002 117.69 1.30998 116.59C6.30998 114.22 10.03 109.96 14.25 106.49L12.16 105.94C12.73 108.36 12.25 111.07 13.68 113.24C14.79 114.93 16.6 116.33 18.29 117.4C22.3 119.95 27.16 120.89 31.83 121.24C34.5 121.44 37.08 121.25 39.72 120.84C42.36 120.43 45.13 120.24 47.74 119.32C52.81 117.53 57.62 114.59 61.96 111.44C70.55 105.18 77.37 95.99 81.99 86.49C84.2 81.95 86.1 76.77 90.32 73.66C94.54 70.55 99.44 70.73 103.73 73.18C106.14 74.55 108.01 76.39 109.38 78.79C110.75 81.19 112.69 83.33 114.51 85.42C117.98 89.39 121.18 93.63 125.72 96.44C128.09 97.9 130.49 99.33 132.9 100.73C135.11 102.02 137.35 103.13 139.9 103.52C142.05 103.85 144.24 104.18 146.39 103.77C149.15 103.24 152.02 103.63 154.75 102.92C157.48 102.21 159.95 100.72 162.44 99.61C164.93 98.5 167.16 97.18 169.43 95.64C171.7 94.1 173.96 92.88 175.96 91.12C177.96 89.36 179.53 87.22 181.02 85.07C183.99 80.8 187.12 76.37 188.05 71.13C188.26 69.94 188.29 68.7 188.44 67.5C188.62 66.06 188.81 64.61 188.74 63.15C188.62 60.49 187.72 57.92 186.61 55.52C185.5 53.12 184.41 50.67 183.01 48.43C181.53 46.06 179.62 43.93 177.82 41.81C174.36 37.73 170.35 34.15 166.92 30.04C165.3 28.11 163.83 26.04 162.95 23.66C162.07 21.28 161.62 18.71 161.55 16.16C161.48 13.77 161.61 11.27 162.38 8.98999C163.22 6.50999 164.75 4.32999 166.1 2.10999C167.45 -0.110008 168.66 -2.41001 169.99 -4.64001C171.32 -6.87001 172.66 -9.26001 173.75 -11.72C175.33 -15.3 177.52 -19.62 176.03 -23.59C175.18 -25.85 173.05 -27.37 171.34 -28.96C169.31 -30.84 167.25 -32.7 165.07 -34.4C162.89 -36.1 160.68 -37.52 158.41 -38.96C156.14 -40.4 153.64 -41.28 151.14 -42.24C145.74 -44.3 140.01 -45.29 134.34 -46.29C128.67 -47.29 122.88 -48.11 117.05 -48.07C114.09 -48.05 111.13 -47.88 108.18 -47.76C105.52 -47.65 102.85 -47.55 100.22 -47.12C97.81 -46.73 95.42 -46.02 93.26 -44.85C91.1 -43.68 89.17 -41.84 87.47 -39.96C83.9 -36.02 80.62 -31.87 76.4 -28.59C74.34 -26.98 72.19 -25.69 69.65 -25.03C67.11 -24.37 64.74 -24.2 62.26 -24.12C60.99 -24.08 59.73 -24.03 58.47 -24.24C57.14 -24.47 55.83 -24.84 54.5 -25.1C53.17 -25.36 51.97 -25.63 50.64 -25.47C49.31 -25.31 47.98 -25.15 46.71 -24.84C41.93 -23.71 39.05 -19.78 36.79 -15.7C35.53 -13.42 34.87 -10.86 33.6 -8.58001C32.33 -6.30001 30.82 -4.08001 29.43 -1.86001C28.04 0.359993 26.56 2.71999 24.38 4.05999C22.46 5.23999 20.09 5.40999 17.91 5.08999C13.31 4.41999 8.09998 0.569988 3.45998 2.94999C1.32998 4.03999 0.289989 6.15999 -0.840012 8.14999C-2.22001 10.59 -3.23001 13.1 -4.17001 15.75C-5.91002 20.65 -7.80001 26.07 -12.39 29.06C-14.57 30.48 -16.55 31.85 -19.22 31.99C-21.52 32.11 -24 31.78 -26.13 30.88C-30.06 29.22 -34.56 24.81 -39.08 27.07C-41.1 28.08 -42.39 30.11 -43.42 32.04C-44.7 34.44 -46.17 36.77 -47.28 39.25C-49.51 44.2 -50.84 49.84 -50.95 55.28C-50.98 56.89 -48.48 56.89 -48.45 55.28L-48.48 55.25Z" fill="#231F20"/>
<path d="M48.5598 -103.2L238.5 69.75" stroke="#231F20" stroke-width="0.5" stroke-miterlimit="10"/>
<path d="M42.28 -96.2999L232.22 76.6501" stroke="#231F20" stroke-width="0.5" stroke-miterlimit="10"/>
<path d="M35.99 -89.3999L225.94 83.5601" stroke="#231F20" stroke-width="0.5" stroke-miterlimit="10"/>
<path d="M29.71 -82.5L219.65 90.46" stroke="#231F20" stroke-width="0.5" stroke-miterlimit="10"/>
<path d="M23.4299 -75.6L213.37 97.36" stroke="#231F20" stroke-width="0.5" stroke-miterlimit="10"/>
<path d="M17.1399 -68.7L207.09 104.26" stroke="#231F20" stroke-width="0.5" stroke-miterlimit="10"/>
<path d="M10.8599 -61.7899L200.8 111.16" stroke="#231F20" stroke-width="0.5" stroke-miterlimit="10"/>
<path d="M4.56982 -54.8899L194.52 118.06" stroke="#231F20" stroke-width="0.5" stroke-miterlimit="10"/>
<path d="M-1.70996 -47.99L188.23 124.96" stroke="#231F20" stroke-width="0.5" stroke-miterlimit="10"/>
<path d="M-7.98999 -41.09L181.95 131.86" stroke="#231F20" stroke-width="0.5" stroke-miterlimit="10"/>
<path d="M-14.28 -34.1899L175.67 138.76" stroke="#231F20" stroke-width="0.5" stroke-miterlimit="10"/>
<path d="M-20.5601 -27.2899L169.38 145.67" stroke="#231F20" stroke-width="0.5" stroke-miterlimit="10"/>
<path d="M-26.8501 -20.3899L163.1 152.57" stroke="#231F20" stroke-width="0.5" stroke-miterlimit="10"/>
<path d="M-33.1301 -13.49L156.82 159.47" stroke="#231F20" stroke-width="0.5" stroke-miterlimit="10"/>
<path d="M-39.4102 -6.58997L150.53 166.37" stroke="#231F20" stroke-width="0.5" stroke-miterlimit="10"/>
<path d="M-45.7002 0.320068L144.25 173.27" stroke="#231F20" stroke-width="0.5" stroke-miterlimit="10"/>
<path d="M-51.98 7.22009L137.96 180.17" stroke="#231F20" stroke-width="0.5" stroke-miterlimit="10"/>
<path d="M-58.26 14.12L131.68 187.07" stroke="#231F20" stroke-width="0.5" stroke-miterlimit="10"/>
<path d="M-64.55 21.02L125.4 193.97" stroke="#231F20" stroke-width="0.5" stroke-miterlimit="10"/>
<path d="M-70.8301 27.92L119.11 200.87" stroke="#231F20" stroke-width="0.5" stroke-miterlimit="10"/>
<path d="M-68.2002 84.11L104.75 -105.83" stroke="#231F20" stroke-width="0.5" stroke-miterlimit="10"/>
<path d="M-61.3 90.4001L111.65 -99.5499" stroke="#231F20" stroke-width="0.5" stroke-miterlimit="10"/>
<path d="M-54.4001 96.68L118.56 -93.26" stroke="#231F20" stroke-width="0.5" stroke-miterlimit="10"/>
<path d="M-47.5 102.96L125.46 -86.98" stroke="#231F20" stroke-width="0.5" stroke-miterlimit="10"/>
<path d="M-40.6001 109.25L132.36 -80.7" stroke="#231F20" stroke-width="0.5" stroke-miterlimit="10"/>
<path d="M-33.7002 115.53L139.26 -74.4099" stroke="#231F20" stroke-width="0.5" stroke-miterlimit="10"/>
<path d="M-26.79 121.82L146.16 -68.13" stroke="#231F20" stroke-width="0.5" stroke-miterlimit="10"/>
<path d="M-19.8901 128.1L153.06 -61.85" stroke="#231F20" stroke-width="0.5" stroke-miterlimit="10"/>
<path d="M-12.99 134.38L159.96 -55.5599" stroke="#231F20" stroke-width="0.5" stroke-miterlimit="10"/>
<path d="M-6.09009 140.67L166.86 -49.2799" stroke="#231F20" stroke-width="0.5" stroke-miterlimit="10"/>
<path d="M0.809814 146.95L173.76 -42.99" stroke="#231F20" stroke-width="0.5" stroke-miterlimit="10"/>
<path d="M7.70996 153.23L180.67 -36.71" stroke="#231F20" stroke-width="0.5" stroke-miterlimit="10"/>
<path d="M14.6099 159.52L187.57 -30.4299" stroke="#231F20" stroke-width="0.5" stroke-miterlimit="10"/>
<path d="M21.51 165.8L194.47 -24.1399" stroke="#231F20" stroke-width="0.5" stroke-miterlimit="10"/>
<path d="M28.4099 172.09L201.37 -17.86" stroke="#231F20" stroke-width="0.5" stroke-miterlimit="10"/>
<path d="M35.3198 178.37L208.27 -11.5699" stroke="#231F20" stroke-width="0.5" stroke-miterlimit="10"/>
<path d="M42.22 184.65L215.17 -5.28992" stroke="#231F20" stroke-width="0.5" stroke-miterlimit="10"/>
<path d="M49.1199 190.94L222.07 0.98999" stroke="#231F20" stroke-width="0.5" stroke-miterlimit="10"/>
<path d="M56.02 197.22L228.97 7.28003" stroke="#231F20" stroke-width="0.5" stroke-miterlimit="10"/>
<path d="M62.9199 203.5L235.87 13.5601" stroke="#231F20" stroke-width="0.5" stroke-miterlimit="10"/>
</g>
</svg>
