<svg width="441" height="560" viewBox="0 0 441 560" fill="none" xmlns="http://www.w3.org/2000/svg">
<path fill-rule="evenodd" clip-rule="evenodd" d="M76.8693 494.81C69.3759 494.469 72.3898 482.121 72.9276 477.585C78.8603 461.021 77.4656 442.949 79.799 425.588C81.2527 409.38 83.1204 393.223 84.6914 377.028C87.777 344.153 109.935 277.23 135.221 266.467C138.406 253.299 151.562 241.008 168.208 241.008C179.561 228.347 193.226 219.436 210.752 221.235C217.995 221.546 225.019 228.783 231.959 230.181C235.845 230.686 270.33 229.386 277.238 233.251C282.05 235.579 286.394 239.88 284.979 245.357C282.721 251.991 289.737 244.812 304.371 251.894C334.212 268.779 316.38 291.367 315.59 292.067C334.212 316.478 350.489 336.281 358.02 366.118C362.901 388.269 362.351 411.136 366.441 433.401C367.884 441.121 370.1 448.577 372.497 456.074C375.094 465.886 376.358 490.34 377.789 490.558C380.398 491.169 376.282 496.214 373.518 496.218C296.893 508.193 219.06 496.714 142.023 494.839C120.312 494.128 98.5785 493.964 76.8693 494.81Z" fill="#DB79E2"/>
<path fill-rule="evenodd" clip-rule="evenodd" d="M231.863 251.676C231.863 259.358 203.547 287.907 193.774 286.024C187.26 284.768 177.416 276.579 164.245 261.458V251.676L167.089 241.026C150.975 241.561 138.335 253.596 135.221 266.467C110.188 277.122 88.2205 342.821 84.7897 376.032L84.6914 377.028C83.1204 393.223 81.2527 409.38 79.799 425.588C77.4656 442.949 78.8603 461.021 72.9276 477.585L72.8925 477.867C72.2735 482.61 69.5258 494.476 76.8693 494.81C98.5785 493.964 120.312 494.128 142.023 494.839C219.06 496.715 296.893 508.193 373.518 496.218C376.282 496.214 380.398 491.169 377.789 490.558C376.358 490.34 375.094 465.886 372.497 456.074L372.003 454.524C369.798 447.548 367.785 440.589 366.441 433.401C362.351 411.136 362.901 388.269 358.02 366.118C350.489 336.281 334.212 316.478 315.59 292.067C316.38 291.368 334.212 268.779 304.371 251.894C289.737 244.812 282.721 251.991 284.979 245.357C286.394 239.881 282.05 235.579 277.238 233.252C270.33 229.386 235.845 230.686 231.959 230.181C230.154 229.817 228.343 229.059 226.524 228.13L226.84 229.119C230.189 239.693 231.863 247.212 231.863 251.676Z" fill="#DB79E2"/>
<path fill-rule="evenodd" clip-rule="evenodd" d="M193.007 294.222C192.971 293.891 192.498 293.892 192.462 294.222L191.921 299.142C191.262 305.151 190.629 311.149 190.169 317.186C189.597 324.714 189.214 332.241 189.029 339.786C188.385 366.065 188.257 392.357 188.203 418.642C184.43 418.396 180.657 418.158 176.881 417.929C174.32 417.773 171.758 417.624 169.197 417.477L162.664 417.103L159.975 416.948C158.158 416.842 156.093 416.411 154.822 417.928C154.314 418.535 154.059 419.324 154.533 420.044C155.626 421.707 157.307 421.649 159.207 421.721C161 421.789 162.793 421.856 164.585 421.921C168.428 422.062 172.269 422.194 176.112 422.296C180.146 422.402 184.177 422.489 188.209 422.554C188.249 433.65 188.737 444.733 189.264 455.817L189.502 460.805C190.147 474.294 190.84 487.795 191.826 501.266C191.907 502.368 193.563 502.366 193.643 501.266C194.753 486.095 195.485 470.892 196.211 455.701C196.737 444.687 197.043 433.67 197.189 422.652C197.722 422.655 198.255 422.662 198.788 422.664C213.92 422.726 229.048 422.788 244.18 422.655C244.155 422.683 244.13 422.711 244.114 422.748C243.019 425.183 242.914 428.291 242.941 430.905C242.972 433.903 243.4 436.864 244.133 439.779C246.758 450.222 253.53 459.576 261.243 467.309L261.495 467.56C263.315 469.372 265.402 471.191 266.519 473.498C267.66 475.853 268.056 478.609 268.619 481.139L268.685 481.43L270.886 491.011C271.586 494.054 271.784 498.492 274.341 500.687C276.726 502.736 279.886 501.666 281.009 499.028C281.885 496.97 281.012 494.709 280.493 492.652L276.425 476.542C275.757 473.915 275.027 471.271 273.584 468.911C272.106 466.493 269.94 464.741 267.73 462.948C263.544 459.553 259.702 455.666 256.452 451.458C253.204 447.251 250.427 442.614 248.481 437.738C247.506 435.297 246.707 432.762 246.156 430.205C245.632 427.779 245.637 425.267 245.077 422.867C245.038 422.701 244.89 422.587 244.72 422.537C244.76 422.43 244.698 422.285 244.539 422.276L232.164 421.527C221.163 420.858 210.163 420.172 199.172 419.389L197.23 419.257C197.381 404.555 197.253 389.851 196.971 375.144C196.713 361.658 196.707 348.168 196.282 334.683C196.07 327.99 195.613 321.313 195.106 314.635C194.586 307.804 193.754 301.032 193.007 294.222ZM309.208 372.419C309.339 371.67 308.339 371.206 307.878 371.891C302.609 379.717 300.068 388.217 298.997 397.375C298.051 405.457 298.33 413.655 298.801 421.759C299.303 430.402 299.89 439.042 300.482 447.681L301.393 460.927L303.679 494.136C303.842 496.512 304.415 498.672 306.586 499.776C306.861 499.992 307.147 500.186 307.481 500.354C308.654 500.945 310.209 500.647 310.888 499.513L310.616 499.681C310.379 499.822 310.645 499.625 311.414 499.093L312.066 498.298C312.54 497.626 312.843 496.966 312.965 496.168C313.154 494.928 312.909 493.567 312.823 492.321L311.325 470.545C310.16 453.616 308.799 436.692 307.774 419.754C307.296 411.86 306.961 403.958 307.188 396.05C307.413 388.186 307.839 380.189 309.208 372.419ZM263.62 226.646L263.328 226.599C252.861 224.961 241.479 225.268 231.914 230.022C231.834 230.061 231.871 230.184 231.959 230.181L235.038 230.065C244.785 229.705 254.503 229.492 264.087 231.65L265.068 231.873C268.519 232.666 272.123 233.637 274.896 235.784C277.546 237.837 278.865 241.004 280.134 243.92L280.303 244.304C281.591 247.184 283.22 249.914 286.041 251.715C289.696 254.047 294.091 253.761 298.281 254.078C305.659 254.636 311.691 259.674 314.692 265.838C316.509 269.571 317.284 273.756 317.438 277.837C317.516 279.916 317.528 282.075 317.234 284.139C317.14 284.799 316.274 287.204 315.832 287.146C314.851 287.018 313.953 287.5 313.647 288.239C311.223 286.033 308.729 283.89 306.155 281.824C299.739 276.676 292.827 272.01 285.549 268.001C279.994 264.94 274.134 261.908 268.067 259.616C268.547 259.607 269.022 259.696 269.48 259.921C269.681 260.02 269.881 259.783 269.722 259.626C267.811 257.731 265.522 257.462 263.214 257.967C262.722 257.819 262.229 257.676 261.734 257.541C261.488 257.473 261.365 257.793 261.566 257.916L262.133 258.257C259.616 259.052 257.144 260.614 255.187 261.846C249.566 265.386 244.618 269.712 239.602 273.958L238.69 274.728C234.275 278.442 229.748 282.051 224.732 285.03C222.106 286.59 219.348 288.032 216.455 289.105C213.974 290.026 209.934 290.606 208.772 293.076C207.739 294.259 208.171 295.767 209.38 296.563C211.421 298.678 215.502 297.312 217.933 296.431C220.864 295.368 223.703 294.092 226.411 292.594C231.669 289.687 236.516 286.071 241.032 282.225C245.748 278.209 250.196 273.942 254.783 269.799C256.77 268.004 258.712 266.166 260.702 264.374L261.702 263.482C262.718 262.584 264.165 261.185 265.713 260.339C268.628 261.977 271.588 263.548 274.477 265.228C278.51 267.574 282.424 270.089 286.278 272.687C293.697 277.689 300.727 283.29 307.254 289.294C319.224 300.305 329.422 312.878 338.331 326.192L339.008 327.207C344.07 334.827 348.858 342.693 352.253 351.113C355.988 360.379 357.804 370.123 358.791 379.958C359.77 389.723 360.101 399.538 361.195 409.294C362.318 419.3 364.529 429.085 367.045 438.851L367.645 441.167C369.921 449.913 372.271 458.66 373.441 467.613C374.065 472.396 374.441 477.244 374.356 482.065C374.271 486.914 373.462 491.656 372.809 496.454C372.559 498.293 374.479 499.827 376.197 500.07C378.173 500.35 379.871 499.162 380.485 497.433C382.4 492.042 382.747 486.083 382.687 480.425C382.627 474.681 381.849 468.974 380.754 463.329C378.6 452.225 375.277 441.35 372.497 430.379C370.047 420.709 368.402 411.022 367.516 401.115C366.596 390.837 366.045 380.525 364.367 370.321C362.71 360.248 359.592 350.626 354.891 341.44C350.611 333.077 345.275 325.205 339.68 317.575C332.887 308.31 325.426 299.494 317.086 291.461C317.835 291.43 318.604 291.203 319.31 290.788C321.472 289.517 322.478 287.033 322.788 284.765C323.512 279.458 323.337 273.918 321.888 268.729C319.552 260.36 313.487 252.923 304.697 249.906C302.434 249.129 300.029 248.846 297.631 248.79C295.356 248.737 292.871 249.016 290.676 248.337C287.181 247.255 285.684 243.377 284.372 240.438L284.311 240.303C282.629 236.558 280.609 233.348 276.966 231.009C273.078 228.513 268.207 227.378 263.62 226.646ZM164.167 241.458C161.022 240.43 157.09 241.363 154.014 242.261C150.587 243.262 147.42 245.105 144.705 247.294C141.841 249.603 139.474 252.453 137.802 255.638L137.642 255.945C136.115 258.899 134.375 262.955 135.145 266.2C135.167 266.292 135.192 266.381 135.221 266.467C128.981 269.361 123.217 272.986 118.198 277.581C112.354 282.931 107.406 289.018 103.219 295.595C86.5873 321.716 83.6601 353.088 81.6959 382.878L81.206 390.431C80.1395 406.741 78.8912 423.013 75.6489 439.098L75.4123 440.259C71.9465 457.1 66.9853 474.07 67.4879 491.346C67.6387 496.522 75.7586 496.487 75.994 491.346C76.8803 471.995 81.6735 453.312 84.9192 434.263C90.6301 400.75 87.7686 366.201 95.8607 333.024C99.0362 320.004 103.955 307.374 110.98 295.752C114.45 290.011 118.42 284.463 123.07 279.51C127.071 275.248 131.23 271.147 135.905 267.564C137.4 268.974 140.385 268.255 141.165 266.2C141.701 264.787 141.545 263.136 141.889 261.656C142.208 260.283 142.648 258.921 143.234 257.628C144.403 255.051 146.118 252.576 148.098 250.49C150.237 248.236 152.696 246.363 155.447 244.816C158.217 243.259 161.246 242.794 164.167 241.656C164.266 241.617 164.275 241.493 164.167 241.458ZM151.947 420.561C151.943 420.425 151.773 420.361 151.668 420.452C150.565 421.408 149.899 422.78 149.087 423.956C148.151 425.312 147.168 426.64 146.138 427.934C144.073 430.526 141.774 432.969 139.457 435.363C137.302 437.589 135.005 439.721 132.622 441.731C130.04 443.909 127.148 445.852 124.802 448.264C119.908 453.296 119.117 460.203 118.085 466.688L117.972 467.39C117.342 471.238 116.778 475.097 116.269 478.962C116.022 480.842 115.775 482.723 115.574 484.608L115.512 485.205C115.332 487.05 115.284 488.922 116.408 490.534C117.612 492.258 120.349 492.863 121.977 491.209C124.773 488.368 124.248 483.322 124.612 479.667C124.913 476.645 125.254 473.627 125.635 470.613L125.829 469.106C126.279 465.678 126.644 462.181 127.477 458.811C128.211 455.844 129.609 453.605 131.904 451.456C134.216 449.291 136.618 447.27 138.751 444.938C141.014 442.465 143.056 439.813 144.895 437.046C146.469 434.678 147.73 432.102 148.885 429.53L149.077 429.101C150.193 426.592 152.035 423.325 151.947 420.561ZM111.58 312.782C111.555 312.432 111.006 312.427 110.998 312.782C110.929 315.792 110.862 318.802 110.796 321.813C110.262 346.069 110.591 370.383 108.008 394.556C106.789 405.954 104.546 417.183 101.95 428.367C100.622 434.089 99.2283 439.798 97.9042 445.521C96.6138 451.099 95.23 456.703 94.2064 462.333C93.2005 467.866 92.2997 473.442 91.8954 479.046L91.8455 479.777C91.6714 482.491 90.8405 486.484 92.4271 488.89C94.1463 491.497 97.4377 491.544 99.2799 489.055C101.01 486.719 100.58 482.564 100.885 479.777C101.196 476.937 101.524 474.096 101.897 471.263C102.625 465.737 103.584 460.223 104.581 454.735C106.658 443.306 109.671 432.02 111.894 420.609C114.173 408.916 115.793 397.14 115.862 385.235C115.93 373.229 114.581 361.246 113.9 349.266C113.208 337.099 112.422 324.941 111.58 312.782ZM233.204 237.336C232.513 235.143 230.073 233.772 227.693 234.388C225.512 234.953 223.712 237.447 224.564 239.58C225.495 241.909 227.121 243.894 228.492 246.01C229.758 247.966 231.605 249.505 232.895 251.426L231.474 252.87C230.763 253.59 230.049 254.306 229.328 255.01L226.849 257.429C224.918 259.31 222.975 261.18 220.977 262.995C215.102 268.334 209.134 273.498 202.554 278.07C201.057 279.11 199.547 280.145 197.995 281.113L197.417 281.475C196.352 282.131 195.165 282.777 193.879 282.666C190.754 282.395 187.93 279.269 185.783 277.323L185.67 277.221C180.349 272.451 175.421 267.235 171.113 261.627C170.156 260.381 169.23 259.114 168.328 257.832C170.411 255.539 169.913 251.065 170.028 248.285C170.109 246.33 170.115 244.375 170.127 242.419L170.132 242.025C170.158 240.758 170.218 239.544 169.346 238.502C169.295 238.442 169.19 238.444 169.126 238.476C167.931 239.065 167.563 240.053 167.053 241.16L167 241.275C166.38 242.605 165.786 243.946 165.185 245.283C164.555 246.683 163.978 248.103 163.394 249.52C163.122 250.179 162.862 250.841 162.608 251.506C162.453 251.931 162.293 252.353 162.129 252.775L162.09 252.808C161.873 252.981 161.688 253.165 161.53 253.354C160.863 253.668 160.334 254.24 160.085 255.081C159.544 256.912 160.664 258.404 161.662 259.857C165.718 265.76 170.341 271.386 175.48 276.488C178.033 279.024 180.718 281.445 183.514 283.741L184.002 284.14C186.514 286.173 189.24 288.099 192.594 288.575C196.519 289.131 199.713 287.292 202.718 285.174L203.017 284.961C205.866 282.93 208.657 280.827 211.361 278.628C216.874 274.144 222.119 269.329 226.773 264.046C231.301 258.908 235.777 253.162 238.568 246.98C238.738 246.603 238.291 246.209 237.94 246.523C236.577 247.746 235.265 249.035 233.969 250.341C233.933 248.419 234.309 246.481 234.1 244.547C233.845 242.196 233.918 239.599 233.204 237.336Z" fill="#DB79E2"/>
<path fill-rule="evenodd" clip-rule="evenodd" d="M142.544 129.199C155.302 112.137 187.362 110.215 207.625 110.323C247.64 110.009 256.018 153.433 258.108 183.863C262.376 184.548 266.527 185.953 269.343 189.12C272.773 192.976 273.957 199.595 270.742 203.907C268.607 206.771 265.235 207.728 261.707 207.887C250.026 206.835 247.631 216.665 241.878 224.036C227.115 242.866 201.54 248.974 178.083 249.068C170.115 249.268 160.517 249.832 155.415 242.755C139.299 216.382 138.948 181.404 137.955 151.517C137.818 143.866 137.853 135.766 142.544 129.199Z" fill="#DB79E2"/>
<path fill-rule="evenodd" clip-rule="evenodd" d="M115.008 143.998C114.846 144.287 114.727 144.607 114.661 144.955C114.45 146.06 114.882 146.905 115.448 147.725C115.374 148.298 115.332 148.852 115.3 149.34C115.12 152.078 115.785 155.831 118.342 156.949C118.382 156.995 118.422 157.039 118.464 157.084C118.662 157.388 118.963 157.65 119.359 157.841C119.457 157.906 119.556 157.967 119.657 158.02C119.702 158.057 119.753 158.087 119.8 158.122C119.769 158.091 119.739 158.06 119.709 158.029C119.687 158.006 119.665 157.983 119.642 157.96C121.057 158.493 122.423 158.603 123.881 158.441C124.783 158.748 125.686 158.978 126.449 159.156C128.829 159.711 131.898 160.155 134.217 159.209C134.893 158.934 135.454 158.569 135.875 158.134C135.84 159.828 135.788 161.523 135.71 163.218C135.551 167.503 135.559 171.784 135.594 176.073C135.633 180.898 135.776 185.728 136.05 190.55C136.178 192.971 136.383 195.39 136.658 197.801C136.89 200.15 137.161 202.495 137.474 204.833C138.213 209.64 139.432 214.484 140.918 219.13C141.564 221.147 142.272 223.189 143.077 225.183C143.417 226.1 143.777 227.006 144.168 227.905C146.23 232.614 148.799 237.158 152.27 241.081C154.166 243.222 156.259 245.147 158.596 246.765C160.473 248.146 162.504 249.315 164.736 250.235C169.534 252.215 174.889 252.661 180.078 252.588C182.057 252.563 184.155 252.233 186.117 251.924L186.237 251.905C187.769 251.667 189.321 251.35 190.857 250.977C192.219 250.677 193.565 250.33 194.893 249.925C196.491 249.527 198.023 248.953 199.481 248.212L202.066 247.295C203.146 246.911 204.194 246.455 205.212 245.932L208.021 244.694C209.185 244.164 210.319 243.583 211.426 242.944C211.542 242.886 211.673 242.787 211.723 242.677C211.843 242.615 211.963 242.554 212.083 242.492C212.251 242.407 212.419 242.321 212.586 242.232C212.633 242.21 212.598 242.082 212.536 241.958C212.586 241.859 212.579 241.75 212.439 241.651C212.335 241.574 212.168 241.596 211.994 241.647C212.01 241.636 212.021 241.625 212.033 241.614C212.094 241.583 212.155 241.552 212.216 241.522C212.347 241.455 212.476 241.39 212.606 241.322C212.799 241.224 212.83 240.968 212.648 240.833C212.598 240.796 212.54 240.778 212.482 240.774C212.485 240.774 212.487 240.772 212.49 240.771C212.491 240.771 212.492 240.771 212.493 240.771C212.528 240.749 212.501 240.646 212.451 240.533C212.548 240.416 212.579 240.274 212.408 240.15C212.175 239.977 211.652 240.26 211.407 240.392C211.388 240.402 211.371 240.412 211.356 240.42C211.204 240.5 211.05 240.577 210.897 240.653C210.805 240.7 210.712 240.746 210.621 240.792C210.605 240.76 210.574 240.73 210.524 240.701C210.884 240.522 211.239 240.34 211.595 240.157L211.596 240.157C211.816 240.047 212.103 239.817 211.812 239.602C211.58 239.426 210.981 239.726 210.694 239.879C210.659 239.854 210.621 239.843 210.574 239.835C210.698 239.77 210.83 239.708 210.953 239.638C211.302 239.456 211.066 238.886 210.706 239.076C210.663 239.101 210.621 239.123 210.578 239.149C210.332 239.128 209.991 239.308 209.815 239.401L209.789 239.415C208.578 240.135 207.316 240.763 206.009 241.304C205.127 241.698 204.241 242.089 203.351 242.469C202.476 242.878 201.575 243.233 200.65 243.532C198.325 244.387 195.976 245.183 193.604 245.921C190.281 246.78 186.841 247.47 183.39 247.74C182.941 247.773 182.492 247.803 182.043 247.817C181.553 247.814 181.063 247.811 180.574 247.808C180.081 247.805 179.59 247.803 179.099 247.799C177.362 247.629 175.625 247.463 173.891 247.296L173.38 247.247C172.715 247.16 172.065 247.05 171.422 246.922C171.086 246.845 170.749 246.765 170.416 246.674C170.339 246.664 170.262 246.651 170.184 246.638C170.146 246.632 170.107 246.625 170.068 246.619C169.252 246.414 168.451 246.17 167.65 245.885C167.147 245.691 166.648 245.487 166.152 245.271C164.516 244.551 162.906 243.602 161.39 242.513C160.442 241.622 159.494 240.731 158.546 239.841C157.594 238.947 156.642 238.053 155.69 237.158L153.953 234.922C151.709 231.894 149.933 228.519 148.459 225.074L146.114 218.696C145.87 217.929 145.638 217.161 145.418 216.391C144.973 214.666 144.528 212.942 144.083 211.222C143.936 210.59 143.793 209.961 143.653 209.333C142.798 205.421 142.326 201.45 141.92 197.479C141.177 190.254 140.976 183.006 140.922 175.751C140.887 171.415 140.926 167.079 141.018 162.747C141.073 160.234 141.111 157.72 141.15 155.207C141.2 152.54 141.254 149.87 141.328 147.203C141.332 147.145 141.309 147.094 141.278 147.05C141.285 146.736 141.289 146.422 141.293 146.104C141.297 145.896 141.212 145.804 141.088 145.786C141.111 143.883 141.127 141.983 141.131 140.084C141.131 139.96 141.069 139.879 140.987 139.832V139.35C141.324 138.027 141.781 136.73 142.373 135.496C142.574 135.05 142.798 134.615 143.046 134.192C143.352 133.556 143.75 132.979 144.238 132.449C144.644 131.803 145.143 131.229 145.723 130.718C145.841 130.637 145.96 130.557 146.079 130.477C146.198 130.396 146.317 130.316 146.435 130.235C146.633 130.137 146.923 129.965 147.178 129.768C147.408 129.634 147.638 129.5 147.867 129.366C148.096 129.232 148.325 129.098 148.556 128.964C148.823 128.833 148.648 128.504 148.459 128.416V128.405C148.501 128.387 148.548 128.365 148.598 128.325C149.155 127.828 149.736 127.361 150.339 126.922C150.448 126.962 150.575 126.948 150.672 126.871C151.028 126.557 151.392 126.254 151.763 125.961C152.595 125.446 153.466 124.975 154.375 124.559C155.833 123.908 157.327 123.35 158.859 122.875C159.157 122.782 159.457 122.699 159.755 122.615L159.853 122.588C160.034 122.58 160.214 122.571 160.395 122.563C160.685 122.549 160.975 122.535 161.266 122.523C178.798 121.797 196.376 122.102 213.869 123.434C218.178 123.763 222.482 124.154 226.779 124.607C227.589 124.693 228.434 124.759 229.295 124.827C232.454 125.076 235.837 125.343 238.568 126.628C238.715 126.697 238.855 126.771 238.991 126.846C238.756 128.271 238.19 129.667 237.641 131.023C237.558 131.229 237.475 131.434 237.393 131.639C236.44 134.026 235.586 136.46 235.671 139.045C235.73 140.848 236.141 142.582 236.732 144.276C237.035 146.692 237.833 149.025 238.679 151.317C242.845 162.596 245.113 174.143 244.88 186.115C244.874 186.435 244.952 186.715 245.086 186.953L245.08 187C245.006 187.508 244.932 188.016 244.845 188.523C244.497 190.54 247.315 191.544 248.287 190.206C248.353 190.267 248.443 190.309 248.527 190.316C248.775 190.338 249.181 189.954 249.297 189.779C249.448 189.516 249.606 189.26 249.777 189.015C249.8 189.004 249.819 188.997 249.839 188.99C249.788 189.089 249.736 189.19 249.684 189.29C249.63 189.395 249.577 189.499 249.525 189.6C249.355 189.921 250.009 190.078 250.202 189.782C250.376 189.523 250.55 189.275 250.725 189.037C250.825 189.107 250.937 189.125 251.011 189.012C251.634 188.04 252.353 187.207 253.143 186.498C254.385 185.541 255.743 184.961 257.287 184.621C258.502 184.456 259.747 184.449 260.951 184.581C262.332 184.734 263.787 185.059 265.037 185.655C266.054 186.316 267.076 186.977 268.097 187.638C268.349 187.887 268.588 188.146 268.813 188.416C269.521 189.282 270.09 190.206 270.558 191.189C270.577 191.251 270.597 191.313 270.616 191.372C270.902 192.197 271.088 193.045 271.169 193.914C271.175 194.464 271.18 195.013 271.185 195.562C271.19 196.111 271.194 196.659 271.2 197.209C271.045 198.637 270.658 200.025 270.066 201.344C269.788 202.122 269.351 202.816 268.759 203.43C268.441 203.949 268.082 204.42 267.679 204.858C266.863 205.37 265.973 205.804 265.025 206.148C264.793 206.206 264.561 206.265 264.325 206.308C263.106 206.75 261.845 206.988 260.541 207.021C258.892 207.127 257.279 206.992 255.7 206.615C254.725 206.451 253.781 206.184 252.868 205.815C251.994 205.399 251.17 204.898 250.4 204.314C250.314 204.263 250.187 204.292 250.047 204.358C250.018 204.337 249.988 204.317 249.958 204.297C249.818 204.201 249.678 204.105 249.541 204C249.463 203.949 249.394 204.011 249.359 204.077L249.312 204.044C249.007 203.846 248.167 204.464 248.546 204.829C248.384 204.924 248.221 205.037 248.074 205.154C247.401 205.18 246.043 206.349 246.298 206.531C246.677 206.842 247.076 207.127 247.482 207.397C247.122 207.649 246.65 208.04 246.871 208.197C247.266 208.551 247.695 208.858 248.152 209.121C248.461 209.344 248.778 209.556 249.111 209.75C249.471 209.951 249.839 210.122 250.218 210.283C249.556 211.492 248.925 212.712 248.337 213.954C247.947 214.835 247.494 215.686 246.971 216.504C246.306 217.75 245.509 218.919 244.576 220.007C243.818 221.213 242.928 222.319 241.911 223.331C240.653 224.683 239.303 225.954 237.867 227.13C237.295 227.514 236.71 227.887 236.103 228.23C234.551 229.333 232.899 230.279 231.147 231.068C230.942 231.174 230.779 231.408 231.019 231.591C231.022 231.592 231.024 231.593 231.027 231.594C231.032 231.595 231.037 231.597 231.042 231.602C230.47 231.908 229.893 232.212 229.313 232.511L229.293 232.521C229.059 232.641 228.626 232.862 228.964 233.121C229.189 233.297 229.881 232.982 230.295 232.778C230.238 232.807 230.177 232.839 230.115 232.872L230.114 232.873C230.108 232.876 230.1 232.88 230.092 232.884C229.921 232.971 229.272 233.3 229.703 233.512C229.932 233.549 230.148 233.512 230.357 233.406C230.574 233.329 230.791 233.245 231.003 233.158C230.996 233.224 231.034 233.286 231.147 233.337C231.236 233.351 231.321 233.351 231.406 233.344C230.934 233.596 230.462 233.845 229.986 234.089C229.847 234.159 229.189 234.502 229.622 234.714C229.835 234.754 230.04 234.721 230.237 234.619C230.597 234.491 230.953 234.341 231.298 234.177C231.338 234.155 231.379 234.134 231.419 234.113C231.46 234.092 231.501 234.071 231.541 234.049C231.603 234.049 231.665 234.042 231.727 234.031C231.348 234.224 230.965 234.411 230.578 234.593C230.35 234.71 229.967 234.948 230.295 235.189C230.524 235.353 231.139 235.057 231.503 234.864C231.526 234.889 231.553 234.919 231.592 234.948C231.829 235.117 232.393 234.81 232.677 234.655C232.717 234.634 232.752 234.615 232.779 234.601C234.699 233.629 236.552 232.624 238.336 231.474C239.427 230.813 240.491 230.119 241.531 229.362C243.524 227.908 245.335 226.217 246.995 224.435C248.128 223.214 248.744 222.528 249.842 221.048C251.607 218.666 252.938 216.182 254.218 213.549C254.238 213.508 254.199 213.406 254.141 213.304C254.404 212.694 254.659 212.077 254.915 211.437C255.58 211.521 256.25 211.58 256.911 211.616C258.471 211.7 259.983 211.569 261.45 211.266C263.226 211.05 264.982 210.575 266.538 209.83C267.47 209.388 268.368 208.917 269.219 208.391C269.981 208.007 270.717 207.569 271.421 207.057C274.419 204.895 276.048 201.538 276.447 198.053C276.752 196.519 276.818 194.94 276.636 193.417C276.505 192.31 276.242 191.214 275.859 190.159C275.151 187.817 273.831 185.651 271.92 184.011C271.599 183.7 271.262 183.404 270.902 183.127C269.838 182.305 268.631 181.644 267.346 181.161C267.099 181.048 266.847 180.942 266.596 180.844L266.902 180.179C267.01 180.208 267.385 180.15 267.432 180.025C267.508 179.83 267.581 179.633 267.653 179.435C267.699 179.311 267.745 179.187 267.791 179.065C267.861 179.105 267.95 179.127 268.047 179.13V179.499C268.043 179.605 268.256 180.263 268.372 179.919C268.445 179.727 268.514 179.533 268.583 179.338C268.627 179.214 268.671 179.09 268.716 178.966C268.813 178.908 268.886 178.838 268.913 178.758C268.925 178.725 268.937 178.692 268.952 178.659C268.96 178.656 268.972 178.656 268.979 178.652V178.765C268.975 178.835 269.169 179.361 269.204 179.258C269.873 177.519 270.419 175.744 270.844 173.94C271.134 172.946 271.363 171.941 271.537 170.922C271.726 170.005 271.893 169.085 272.036 168.157L272.071 167.927C272.073 167.918 272.075 167.909 272.077 167.901C272.078 167.893 272.08 167.885 272.082 167.876L272.085 167.849C272.096 167.758 272.107 167.666 272.121 167.576C272.276 166.528 272.403 165.476 272.5 164.416C272.705 162.239 272.787 160.051 272.763 157.866C272.795 157.878 272.825 157.892 272.855 157.907C272.873 157.915 272.891 157.924 272.91 157.932C273.916 158.336 274.978 158.666 276.058 158.929C277.917 161.466 280.885 163.183 284.442 163.363C285.647 163.424 286.91 163.286 288.079 162.965C288.2 162.991 288.326 163.012 288.456 163.028C289.067 163.104 289.558 162.98 290.067 162.853C290.352 162.781 290.643 162.708 290.963 162.668C291.078 162.653 291.192 162.64 291.305 162.626C292.583 162.471 293.673 162.339 294.522 161.62C294.807 161.626 295.079 161.587 295.338 161.514C297.786 162.068 300.388 160.847 301.248 158.287C302.717 157.474 303.887 156.269 304.673 154.871C306.189 153.037 307.4 150.788 308.151 148.426C308.156 148.417 308.161 148.408 308.166 148.4C308.173 148.386 308.18 148.373 308.187 148.359C308.568 147.579 308.75 146.742 308.765 145.903C309.171 143.511 309.064 141.117 308.293 139.013C308.325 137.872 308.041 136.683 307.521 135.604C306.891 134.296 305.93 132.792 304.683 131.92C304.68 130.579 304.069 129.103 303.27 128.103C301.674 126.105 299.359 125.049 296.854 124.897C295.58 121.814 291.721 121.094 288.392 122.12C287.009 120.786 284.984 120.149 282.962 120.376C281.253 120.567 279.792 121.339 278.582 122.403C278.263 122.489 277.946 122.578 277.628 122.672C276.569 122.233 275.334 122.134 274.204 122.409C272.245 122.885 270.967 124.287 270.083 125.894C269.801 126.077 269.525 126.266 269.256 126.464C268.961 126.589 268.693 126.756 268.45 126.952C268.096 127.13 267.796 127.423 267.613 127.847C267.114 128.333 266.649 128.847 266.238 129.399C265.931 128.727 265.613 128.06 265.286 127.397C264.752 127.549 264.107 127.353 263.839 126.68L263.77 126.509C262.054 122.209 258.999 114.553 256.117 111C259.525 113.191 263.686 114.346 267.819 114.23C267.996 114.224 268.174 114.218 268.354 114.208C270.576 114.57 272.833 114.604 274.905 114.211C276.3 113.733 277.66 113.163 278.977 112.519C279.298 112.361 279.615 112.196 279.932 112.03C280.031 111.951 280.125 111.865 280.219 111.78C280.256 111.746 280.293 111.713 280.33 111.679C280.602 111.698 280.887 111.678 281.191 111.602C282.331 111.317 283.386 110.601 284.048 109.681C284.171 109.509 284.27 109.333 284.358 109.155C285.076 108.492 285.697 107.742 286.154 106.864C286.692 105.837 287.021 104.683 287.056 103.529C287.28 102.396 287.265 101.231 286.847 100.15C286.818 100.076 286.785 100.004 286.753 99.9312C286.734 99.8885 286.715 99.8458 286.696 99.8025C286.687 99.7726 286.678 99.7421 286.67 99.7115C286.658 99.6673 286.646 99.6229 286.63 99.5797C286.508 99.1943 286.353 98.8509 286.164 98.5258C286.094 98.1916 285.979 97.8603 285.817 97.5377C285.799 97.3817 285.777 97.2257 285.75 97.0705C286.98 94.8805 286.544 92.0166 284.704 90.2365C284.958 89.0858 284.699 87.8657 283.957 86.8447C283.412 86.0944 282.655 85.5023 281.797 85.0913C281.708 85.0486 281.471 84.9751 281.188 84.8908C280.871 84.6259 280.536 84.3753 280.17 84.1547C280.083 82.0141 277.819 80.7793 275.86 79.7102C275.765 79.6586 275.671 79.6073 275.578 79.5563C274.94 79.2065 274.477 78.7039 274.013 78.201C273.527 77.673 273.04 77.1446 272.35 76.7925C271.143 76.1771 269.659 76.0356 268.266 75.9027C267.958 75.8734 267.655 75.8445 267.36 75.8109C263.519 75.3741 259.429 75.0365 255.569 75.4314C253.426 75.6506 251.651 76.6278 250.917 78.2285C249.074 78.4341 247.43 79.69 246.13 80.9817C244.508 82.5938 243.126 84.3099 242.65 86.4283C242.332 86.5901 242.044 86.7881 241.784 87.0117C241.793 88.5014 241.999 89.9936 242.435 91.3996C242.307 92.2402 242.575 93.0427 243.028 93.7704C242.959 94.4594 243.009 95.1377 243.162 95.8139C242.279 97.2915 243.105 99.5246 244.341 100.99L244.35 101.816C244.277 101.78 244.205 101.737 244.138 101.683C240.584 98.8277 236.966 98.0405 233.058 97.1902C230.802 96.6992 228.449 96.1872 225.955 95.2436C219.812 94.124 213.542 93.4113 207.249 93.1742C207.284 93.1693 207.32 93.1649 207.355 93.1605C207.403 93.1546 207.45 93.1487 207.498 93.1414C210.669 92.6511 213.715 91.4197 216.334 89.6506C217.028 89.4847 217.685 89.1892 218.274 88.695C218.845 88.215 219.241 87.6612 219.469 87.0672C219.572 86.9624 219.675 86.8568 219.776 86.7494C221.742 86.2935 223.24 84.6873 222.989 82.5759C224.234 81.1845 224.692 79.4665 224.271 77.6776C224.966 76.5682 225.027 75.1695 224.508 73.998C225.601 72.7443 225.686 70.9646 224.829 69.5461C225.612 68.4959 225.785 67.1041 224.819 65.8603C224.363 65.2729 223.732 64.9025 223.044 64.7235C222.85 64.0466 222.455 63.4179 221.834 62.9324C221.515 62.6829 221.18 62.4977 220.839 62.3596C220.71 61.6608 220.292 60.9982 219.487 60.4769C219.122 60.2405 218.748 60.0878 218.377 60.0031C218.025 59.1812 217.411 58.4604 216.548 57.9925C215.506 57.4281 214.294 57.3532 213.189 57.6491C211.747 55.591 208.582 54.7932 206.387 56.3198C204.56 55.2524 202.262 55.4774 200.62 56.7753C198.634 55.6674 196.169 56.1145 194.611 57.6593C192.116 56.372 188.823 57.3229 187.487 59.762C184.969 59.4983 182.596 61.0544 181.924 63.3068C181.815 63.3905 181.707 63.4766 181.599 63.5626L181.571 63.5852C180.063 63.6535 178.629 64.2117 177.784 65.5362C177.361 66.1978 177.166 66.9751 177.195 67.7368C176.293 68.1971 175.564 68.9521 175.252 69.9308C174.959 70.8484 175.07 71.7562 175.454 72.547C174.198 73.8084 173.866 75.7744 174.756 77.3587C174.388 77.9549 174.196 78.6595 174.227 79.392C174.271 80.4765 174.804 81.3507 175.529 82.097C174.617 83.6495 174.973 85.6411 176.454 86.7297C177.305 89.5775 179.458 91.4723 182.758 92.6347C184.415 93.2184 186.149 93.6681 187.916 93.9983C180.845 94.8966 173.888 96.4754 167.206 98.8294C166.843 98.9576 166.534 98.9076 166.299 98.7582C166.235 98.7903 166.17 98.8212 166.105 98.8522C166.023 98.8918 165.94 98.9313 165.858 98.9733C164.017 99.9268 162.214 100.961 160.457 102.067C160.457 101.885 160.453 101.702 160.445 101.516C160.48 100.013 160.312 98.532 159.889 97.1048C160.442 96.3929 160.856 95.5812 161.082 94.7446C161.644 92.6573 160.574 89.6871 158.653 88.9741C157.98 87.2111 156.449 85.9355 154.572 85.4336C154.424 85.3068 154.265 85.1837 154.088 85.0694C153.693 84.813 153.261 84.638 152.817 84.5364C152.586 83.5812 152.022 82.7019 151.085 82.0849C149.764 81.2137 148.201 81.1191 146.828 81.5943C146.567 81.5114 146.302 81.4394 146.035 81.377C143.825 79.6009 140.38 79.7317 138.435 81.8099C137.101 81.2338 135.527 81.2082 134.161 81.9834C133.067 82.6036 132.387 83.6038 132.121 84.7015C130.051 84.7615 128.157 86.0583 127.56 87.9936C125.652 88.1974 124.092 89.6067 123.761 91.3806C122.544 91.5406 121.42 92.0805 120.736 93.1541C120.42 93.6506 120.249 94.1938 120.204 94.7377C119.589 95.0164 119.037 95.4383 118.621 95.9896C117.891 96.9554 117.75 98.0831 118.018 99.1443C117.993 99.1924 117.967 99.24 117.941 99.2876C117.903 99.3565 117.866 99.4253 117.831 99.4957C117.632 99.8946 117.473 100.322 117.331 100.757C116.689 101.63 116.393 102.698 116.452 103.77C116.315 104.224 116.183 104.679 116.074 105.136C115.641 106.929 115.478 108.84 115.776 110.666C115.923 111.55 116.136 112.42 116.438 113.264C116.469 113.424 116.519 113.574 116.577 113.717C116.743 114.382 116.956 115.035 117.227 115.675C117.877 116.489 118.558 117.282 119.274 118.049C119.877 118.904 120.566 119.693 121.344 120.416C121.905 120.939 122.52 121.424 123.174 121.863C124.472 122.845 125.924 123.611 127.474 124.109C127.751 124.055 128.029 124.012 128.307 123.97C130.067 124.885 132.836 124.988 134.529 124.982C136.395 124.975 138.103 124.53 139.524 123.69C139.359 123.999 139.195 124.309 139.03 124.619C139.062 124.636 139.094 124.652 139.124 124.67C139.133 124.675 139.143 124.681 139.151 124.688C139.458 124.207 139.801 123.781 140.205 123.474C140.757 123.054 141.646 123.016 142.028 123.696C142.035 123.707 142.041 123.719 142.048 123.731C142.252 124.093 142.223 124.441 142.068 124.724C142.023 124.785 141.979 124.846 141.934 124.907L141.898 124.957C141.878 124.978 141.858 125.002 141.836 125.022L141.846 125.023C141.318 125.425 140.798 126.408 140.305 127.364C139.972 127.923 139.655 128.489 139.357 129.066C139.183 129.308 138.875 129.52 138.547 129.582C138.611 130.042 138.387 130.518 138.018 130.754C137.922 130.57 137.804 130.381 137.653 130.187C135.99 128.054 132.723 127.134 130.262 128.109C129.772 128.03 129.279 127.966 128.781 127.929C127.157 127.828 125.51 127.948 123.906 128.266C123.408 128.548 122.932 128.865 122.489 129.227C122.114 129.534 121.766 129.856 121.441 130.188C121.189 130.366 120.942 130.554 120.699 130.751C119.716 131.25 118.993 132.208 118.387 133.161C117.905 133.804 117.485 134.487 117.121 135.21C115.434 137.935 113.487 141.319 115.008 143.998ZM250.303 196.661C249.684 197.337 249.2 198.089 248.852 198.919C248.713 199.185 248.883 199.346 249.169 199.298C249.297 199.28 249.471 199.193 249.649 199.076C249.636 199.107 249.621 199.136 249.607 199.165C249.592 199.194 249.577 199.224 249.564 199.255C249.413 199.536 249.541 199.737 249.885 199.631C249.904 199.62 249.924 199.609 249.939 199.598C249.761 199.898 249.599 200.204 249.459 200.526C249.309 200.811 249.444 201.008 249.784 200.898C249.962 200.803 250.133 200.694 250.295 200.573C250.275 200.615 250.255 200.656 250.235 200.698C250.181 200.809 250.126 200.919 250.079 201.034C249.924 201.322 250.102 201.472 250.404 201.406C250.663 201.271 250.903 201.11 251.127 200.924C251.15 200.907 251.171 200.889 251.192 200.871C251.203 200.862 251.213 200.852 251.224 200.844C251.123 201.081 251.313 201.227 251.564 201.18C251.92 201.114 252.59 200.548 252.752 200.248C252.758 200.239 252.763 200.23 252.768 200.221C252.772 200.212 252.777 200.203 252.783 200.193C252.973 200.073 253.178 199.905 253.332 199.744C253.456 199.912 253.696 200.036 253.805 199.832C254.13 198.995 254.636 198.279 255.329 197.677C255.724 197.132 256.203 196.668 256.764 196.285C257.066 196.044 257.38 195.814 257.701 195.594C258.27 195.35 258.862 195.163 259.481 195.039C259.551 195.018 259.622 195.002 259.693 194.986C259.748 194.974 259.802 194.962 259.856 194.948L259.901 194.94C260.16 194.895 260.416 194.851 260.676 194.816C261.794 194.67 262.916 194.645 264.038 194.74C264.24 194.747 264.433 194.601 264.518 194.433C264.77 194.444 265.017 194.455 265.269 194.477C265.683 194.491 265.594 193.94 265.28 193.885C264.886 193.815 264.491 193.764 264.104 193.72C264.112 193.688 264.116 193.651 264.108 193.622C264.816 193.589 265.52 193.604 266.232 193.673C266.542 193.688 266.174 193.147 266.004 193.118C265.964 193.11 265.924 193.104 265.883 193.099C265.845 193.093 265.807 193.088 265.768 193.081C265.776 193.07 265.78 193.063 265.783 193.052H265.803C266.228 193.07 266.519 192.431 266.008 192.343C265.947 192.333 265.886 192.324 265.826 192.315C265.761 192.306 265.697 192.296 265.633 192.285C265.656 192.223 265.66 192.168 265.636 192.117C265.857 192.113 266.074 192.113 266.294 192.113C266.236 192.11 266.186 191.994 266.133 191.873C266.076 191.744 266.016 191.607 265.942 191.598C265.83 191.583 265.714 191.569 265.602 191.554C265.594 191.419 265.377 191.105 265.284 191.087C264.549 190.97 263.83 190.889 263.118 190.864C263.048 190.71 262.947 190.506 262.851 190.506C262.042 190.495 261.264 190.502 260.49 190.579C260.459 190.557 260.429 190.546 260.401 190.55C260.357 190.56 260.313 190.57 260.271 190.579C260.191 190.597 260.114 190.615 260.034 190.634C259.604 190.692 259.175 190.776 258.738 190.897C257.705 191.185 256.672 191.642 255.778 192.208C254.934 192.741 254.095 193.297 253.36 193.961C253.1 194.17 252.857 194.396 252.624 194.63C252.249 194.922 251.885 195.222 251.537 195.518C251.112 195.887 250.698 196.267 250.303 196.661Z" fill="#DB79E2"/>
<path fill-rule="evenodd" clip-rule="evenodd" d="M197.744 193.242C187.466 193.242 179.133 186.373 179.133 177.9C179.133 169.426 187.466 162.557 197.744 162.557C208.023 162.557 219.147 169.148 219.147 177.621C219.147 181.216 216.141 187.499 213.628 190.114C210.219 193.663 203.662 193.242 197.744 193.242Z" fill="#DB79E2"/>
<path fill-rule="evenodd" clip-rule="evenodd" d="M153.444 190.306C145.575 190.306 139.197 184.094 139.197 176.431C139.197 168.769 145.575 162.557 153.444 162.557C161.312 162.557 169.828 168.517 169.828 176.179C169.828 179.431 167.526 185.112 165.603 187.477C162.993 190.686 157.974 190.306 153.444 190.306Z" fill="#DB79E2"/>
<path fill-rule="evenodd" clip-rule="evenodd" d="M198.004 202.773C197.923 202.702 197.794 202.677 197.696 202.735C196.018 203.735 195.82 207.096 195.801 209.037C195.107 209.207 194.421 209.401 193.773 209.536C192.396 209.823 191.012 210.073 189.63 210.337L188.595 210.538C185.134 211.226 181.608 211.734 178.082 211.989C174.659 212.236 171.137 212.326 167.723 211.91C166.258 211.732 164.801 211.434 163.384 211.036C161.71 210.565 160.377 209.786 158.819 209.102C154.921 207.392 151.654 212.405 155.406 214.605C158.626 216.492 163.02 217.173 166.738 217.465C170.537 217.763 174.323 217.436 178.077 216.869C182.135 216.257 186.11 215.316 189.959 213.952C191.587 213.376 193.162 212.676 194.699 211.912L195.118 211.702C195.373 211.573 195.64 211.441 195.908 211.308C196.196 213.729 197.026 216.068 198.029 218.315L198.053 218.276C198.601 220.049 200.583 221.146 202.555 220.363C204.87 219.444 205.046 217.032 203.699 215.321L203.635 215.241C202.051 213.322 201.059 210.941 200.197 208.671C199.754 207.508 199.345 206.316 198.99 205.126C198.733 204.265 198.723 203.399 198.004 202.773ZM138.358 183.495C139.73 187.402 142.722 190.41 146.891 191.732C151.022 193.043 155.616 192.565 159.839 191.857C160.762 191.702 161.699 191.53 162.633 191.331C161.868 191.777 161.193 192.405 160.546 193.07C159.59 194.052 158.723 195.087 158.46 196.316C158.199 197.536 158.61 198.464 159.36 199.165C160.514 200.242 162.374 200.822 163.95 201.143C167.479 201.862 171.014 201.75 174.526 201.013C175.423 200.825 176.031 200.372 176.372 199.781C176.787 199.064 176.82 198.171 176.583 197.358C176.345 196.546 175.831 195.797 175.085 195.382C174.472 195.041 173.704 194.948 172.833 195.221C171.084 195.769 169.348 196.132 167.501 196.174C166.719 196.191 165.932 196.169 165.151 196.102C164.71 196.063 164.269 196.011 163.831 195.944C164.089 195.621 164.34 195.291 164.585 194.958C164.874 194.565 165.156 194.166 165.425 193.761C166.203 192.587 166.85 191.38 167.42 190.107C167.602 189.699 167.771 189.289 167.934 188.878C167.957 188.819 167.981 188.76 168.004 188.7C168.054 188.661 168.104 188.621 168.153 188.581C169.266 187.673 170.2 186.555 170.86 185.171C172.647 181.421 172.356 176.766 171.272 172.872C170.403 169.751 168.484 166.864 165.949 164.903C165.507 164.217 165.215 163.801 164.857 163.45C163.4 162.022 161.367 161.059 159.384 160.473C154.953 159.165 150.128 160.104 146.372 162.596C142.905 164.897 140.19 168.348 138.723 172.186C137.334 175.821 137.063 179.808 138.358 183.495ZM198.705 159.756C193.436 159.713 188.075 161.179 183.8 164.112C179.709 166.918 176.498 171.062 176.502 175.998C176.506 180.803 179.232 185.528 182.256 189.248C185.651 193.425 190.086 195.439 195.663 195.485C198.562 195.51 201.483 195.268 204.361 194.936L205.905 194.752C208.032 194.494 210.18 194.188 212.196 193.5C221.79 190.221 222.087 178.39 218.534 170.827C215.79 164.988 208.846 159.294 201.922 159.977C200.878 159.84 199.807 159.765 198.705 159.756ZM189.806 165.32C196.404 162.529 204.421 163.365 210.821 166.342C213.357 168.948 215.21 172.233 215.96 175.248C216.76 178.467 216.643 181.934 215.439 185.053C213.97 188.862 210.35 189.805 206.446 190.39L204.93 190.614L204.294 190.705C200.457 191.244 196.263 191.663 192.576 190.989C188.467 190.236 185.857 187.108 183.804 183.902L183.708 183.752C181.575 180.392 179.789 176.306 181.578 172.457C183.099 169.185 186.422 166.751 189.806 165.32ZM150.862 166.292C153.126 165.11 155.709 164.895 158.154 165.686C159.206 166.026 160.115 166.578 160.997 167.197L161.348 167.447C162.432 168.231 163.444 168.628 164.257 169.687L164.362 169.829C164.772 170.406 165.49 170.637 166.144 170.56C166.906 172.539 167.22 174.679 167.226 176.785L167.226 177.064L167.222 177.349C167.173 179.839 166.712 182.886 164.632 184.554C162.736 186.076 159.863 186.442 157.299 186.654L155.323 186.809L154.798 186.846C152.095 187.023 149.134 186.963 146.868 185.456C144.896 184.143 143.965 181.914 143.724 179.714C143.154 174.516 145.946 168.858 150.862 166.292ZM200.15 166.772C196.517 165.024 192.152 165.462 189.074 167.653C189.348 167.703 189.617 167.767 189.885 167.894C190.583 168.224 191.017 168.884 191.182 169.587C191.368 170.382 190.931 171.134 190.099 171.385C189.374 171.602 188.515 171.702 187.843 171.287C187.49 171.07 187.244 170.784 187.082 170.424L187.06 170.371L187.031 170.332L187.02 170.314C187.018 170.307 187.031 170.32 187.051 170.35C187.03 170.305 187.011 170.26 186.992 170.215C186.964 170.16 186.937 170.105 186.915 170.049C186.875 170.017 186.84 169.981 186.804 169.946C186.245 170.757 185.806 171.672 185.527 172.691C183.738 179.227 191.074 186.011 197.628 186.69C200.104 186.947 202.363 186.391 204.237 185.296C204.22 185.274 204.201 185.255 204.186 185.232C203.433 185.36 202.534 185.042 202.261 184.251C201.563 182.233 202.278 179.872 204.613 179.213C206.115 178.788 207.652 179.257 208.725 180.224C209.537 178.352 209.828 176.244 209.443 174.133C208.901 171.155 206.994 168.471 204.027 167.232C202.582 166.628 201.336 166.502 200.15 166.772ZM161.886 170.805L161.775 170.641C160.653 169.013 158.506 167.016 156.282 167.565C155.97 167.642 155.663 167.767 155.387 167.928C154.165 167.771 152.886 168.033 151.835 168.642L151.863 168.71C151.868 168.722 151.872 168.733 151.875 168.745C151.971 169.141 151.915 169.507 151.719 169.871C151.506 170.265 151.202 170.639 150.791 170.865C150.509 171.02 150.178 171.101 149.853 171.095C149.377 171.087 148.957 170.89 148.613 170.588C148.425 170.424 148.295 170.184 148.223 169.937C148.053 170.091 147.888 170.262 147.731 170.456C145.152 173.65 145.509 178.784 148.534 181.632C148.656 181.747 148.786 181.851 148.914 181.957C150.143 183.55 152.036 184.631 154.31 184.85C156.415 185.052 158.521 184.466 160.135 183.263C160.005 183.198 159.884 183.114 159.779 183.002C159.504 182.708 159.277 182.418 159.109 182.059C159.067 181.968 159.027 181.877 158.988 181.786L158.932 181.647C158.923 181.622 158.837 181.388 158.859 181.429L158.865 181.439L158.834 181.371C158.545 180.692 158.662 179.915 159.348 179.489L159.423 179.444C159.648 179.321 159.925 179.263 160.206 179.262C160.907 178.455 161.949 178.27 162.927 178.506L162.961 178.245C162.967 178.201 162.971 178.158 162.974 178.114C163.732 175.747 163.367 173.056 161.886 170.805ZM195.54 146.97L195.288 146.933C193.385 146.673 192.091 146.972 190.854 148.504C190.264 149.234 190.446 150.337 190.854 151.083C192.171 153.495 195.796 152.996 198.237 153.475C200.62 153.942 202.998 154.578 205.228 155.504C207.504 156.449 209.64 157.566 211.723 158.842C213.607 159.997 215.316 161.732 217.468 162.404C217.565 162.434 217.682 162.353 217.675 162.256C217.522 159.95 215.478 157.833 213.894 156.19C212.063 154.291 209.835 152.605 207.515 151.264C205.121 149.881 202.534 148.743 199.854 147.949C198.443 147.53 197 147.198 195.54 146.97ZM166.547 150.101C164.151 146.8 158.194 147.433 154.679 148.315C150.272 149.42 145.497 151.656 142.406 154.893C139.638 157.792 143.78 161.559 146.892 159.119L147.723 158.47L148.255 158.059C150.644 156.22 153.011 154.556 155.923 153.33C159.337 151.893 162.797 151.193 166.406 150.428C166.547 150.398 166.631 150.217 166.547 150.101Z" fill="#DB79E2"/>
<path fill-rule="evenodd" clip-rule="evenodd" d="M88.4936 489.644C81.6037 489.311 84.3749 477.26 84.8694 472.834C90.3243 456.668 89.042 439.031 91.1874 422.086C92.524 406.269 94.2413 390.5 95.6859 374.694C98.523 342.611 118.897 277.296 142.147 266.792C145.075 253.941 157.172 241.945 172.477 241.945C182.916 229.589 195.48 220.893 211.596 222.649C218.255 222.952 224.714 230.015 231.095 231.379C234.668 231.872 266.376 230.604 272.728 234.376C277.152 236.648 281.146 240.845 279.845 246.19C277.769 252.665 284.22 245.659 297.676 252.57C325.114 269.049 308.718 291.094 307.991 291.777C325.114 315.6 340.08 334.928 347.004 364.047C351.492 385.665 350.987 407.982 354.747 429.712C356.075 437.246 358.111 444.523 360.315 451.84C362.704 461.415 363.865 485.281 365.182 485.495C367.58 486.09 363.796 491.015 361.255 491.018C290.8 502.705 219.234 491.503 148.4 489.672C128.438 488.978 108.455 488.818 88.4936 489.644Z" fill="#EDB98A"/>
<path fill-rule="evenodd" clip-rule="evenodd" d="M231.006 252.357C231.006 259.855 204.97 287.717 195.985 285.879C189.995 284.653 180.944 276.662 168.833 261.904V252.357L171.449 241.964C156.632 242.486 145.009 254.231 142.147 266.792C119.129 277.191 98.9308 341.31 95.7763 373.722L95.6859 374.695C94.2413 390.5 92.524 406.269 91.1874 422.086C89.042 439.031 90.3243 456.668 84.8694 472.834L84.837 473.108C84.2679 477.737 81.7415 489.318 88.4936 489.644C108.455 488.818 128.438 488.978 148.4 489.672C219.234 491.503 290.8 502.705 361.255 491.018C363.796 491.015 367.58 486.09 365.182 485.495C363.865 485.281 362.704 461.415 360.315 451.84L359.862 450.326C357.834 443.518 355.983 436.727 354.747 429.712C350.987 407.982 351.492 385.665 347.004 364.047C340.08 334.928 325.114 315.6 307.991 291.777C308.718 291.094 325.114 269.049 297.676 252.57C284.22 245.659 277.769 252.665 279.845 246.19C281.146 240.846 277.152 236.648 272.728 234.376C266.376 230.604 234.668 231.872 231.095 231.379C229.435 231.024 227.77 230.284 226.098 229.377L226.388 230.343C229.467 240.663 231.006 248.001 231.006 252.357Z" fill="#78E185"/>
<path fill-rule="evenodd" clip-rule="evenodd" d="M195.279 293.88C195.246 293.557 194.811 293.558 194.778 293.88L194.28 298.682C193.675 304.547 193.092 310.4 192.67 316.292C192.143 323.639 191.791 330.985 191.621 338.348C191.03 363.995 190.912 389.655 190.862 415.307C187.393 415.067 183.923 414.836 180.452 414.612C178.097 414.46 175.742 414.314 173.386 414.17L167.38 413.806V413.806L164.907 413.654C163.236 413.551 161.338 413.13 160.169 414.61C159.702 415.203 159.467 415.973 159.903 416.676C160.909 418.299 162.454 418.242 164.201 418.312C165.849 418.379 167.498 418.444 169.146 418.508C172.679 418.645 176.211 418.774 179.745 418.874C183.453 418.978 187.16 419.062 190.867 419.125C190.905 429.955 191.353 440.771 191.837 451.589L192.056 456.457C192.649 469.621 193.287 482.797 194.193 495.944C194.268 497.021 195.79 497.018 195.864 495.944C196.884 481.139 197.557 466.301 198.225 451.476C198.709 440.727 198.991 429.975 199.125 419.221C199.615 419.224 200.105 419.231 200.595 419.233C214.508 419.294 228.418 419.354 242.332 419.224C242.308 419.251 242.286 419.279 242.27 419.315C241.264 421.692 241.168 424.725 241.192 427.276C241.22 430.201 241.614 433.091 242.288 435.936C244.702 446.128 250.929 455.257 258.021 462.804L258.252 463.05C259.925 464.817 261.844 466.593 262.871 468.844C263.921 471.143 264.285 473.832 264.802 476.302L264.863 476.586L266.887 485.936C267.53 488.906 267.713 493.237 270.064 495.379C272.257 497.379 275.162 496.335 276.195 493.761C277.001 491.752 276.198 489.545 275.72 487.537L271.98 471.815C271.366 469.251 270.694 466.67 269.368 464.367C268.009 462.008 266.017 460.298 263.985 458.548C260.136 455.235 256.603 451.442 253.615 447.335C250.628 443.229 248.076 438.703 246.286 433.945C245.389 431.563 244.655 429.088 244.148 426.593C243.667 424.225 243.671 421.773 243.156 419.431C243.121 419.269 242.984 419.158 242.828 419.109C242.865 419.004 242.808 418.863 242.662 418.854L231.283 418.123C221.168 417.47 211.054 416.801 200.948 416.036L199.162 415.907V415.907C199.301 401.56 199.183 387.209 198.924 372.856C198.686 359.694 198.681 346.528 198.29 333.368C198.095 326.836 197.676 320.32 197.209 313.802C196.731 307.136 195.966 300.526 195.279 293.88ZM302.123 370.197C302.244 369.466 301.324 369.013 300.9 369.681C296.055 377.319 293.719 385.614 292.734 394.552C291.864 402.439 292.121 410.441 292.554 418.35C293.016 426.785 293.555 435.218 294.1 443.648L294.937 456.576V456.576L297.039 488.986C297.19 491.305 297.716 493.413 299.712 494.49C299.965 494.701 300.228 494.891 300.535 495.055C301.613 495.631 303.044 495.34 303.667 494.233L303.417 494.398C303.2 494.535 303.444 494.343 304.151 493.824L304.751 493.048V493.048C305.187 492.392 305.466 491.748 305.578 490.969C305.752 489.759 305.526 488.431 305.447 487.215L304.069 465.962V465.962C302.998 449.441 301.747 432.923 300.804 416.393C300.365 408.689 300.057 400.977 300.266 393.259C300.473 385.584 300.864 377.779 302.123 370.197ZM260.206 227.929L259.937 227.884C250.313 226.285 239.848 226.584 231.053 231.224C230.98 231.262 231.013 231.383 231.095 231.379L233.926 231.266C242.888 230.915 251.823 230.707 260.635 232.813L261.537 233.03C264.711 233.804 268.025 234.752 270.574 236.848C273.01 238.851 274.223 241.942 275.39 244.787L275.546 245.163C276.73 247.973 278.228 250.638 280.822 252.395C284.182 254.671 288.223 254.392 292.076 254.701C298.859 255.246 304.406 260.163 307.165 266.179C308.836 269.822 309.549 273.906 309.69 277.889C309.762 279.918 309.773 282.025 309.502 284.04C309.416 284.684 308.62 287.031 308.214 286.974C307.311 286.849 306.486 287.32 306.205 288.041C303.976 285.888 301.683 283.796 299.316 281.78C293.416 276.756 287.061 272.202 280.369 268.289C275.261 265.302 269.874 262.343 264.295 260.106C264.737 260.097 265.173 260.185 265.594 260.404C265.779 260.501 265.963 260.269 265.817 260.116C264.06 258.267 261.955 258.004 259.833 258.497C259.38 258.353 258.927 258.213 258.472 258.081C258.246 258.015 258.133 258.327 258.318 258.447L258.839 258.78V258.78C256.524 259.556 254.251 261.08 252.452 262.283C247.283 265.737 242.734 269.96 238.122 274.104L237.283 274.855C233.224 278.479 229.061 282.002 224.449 284.909C222.035 286.431 219.499 287.839 216.839 288.886C214.558 289.785 210.843 290.351 209.775 292.762C208.825 293.916 209.222 295.388 210.334 296.165C212.21 298.229 215.963 296.895 218.198 296.035C220.893 294.999 223.504 293.753 225.993 292.291C230.827 289.454 235.285 285.925 239.436 282.172C243.773 278.252 247.863 274.087 252.081 270.044C253.908 268.292 255.693 266.499 257.523 264.75L258.442 263.879C259.377 263.003 260.707 261.638 262.13 260.811C264.811 262.41 267.533 263.943 270.189 265.584C273.897 267.873 277.496 270.328 281.04 272.863C287.861 277.744 294.325 283.211 300.326 289.071C311.333 299.817 320.71 312.088 328.901 325.081L329.523 326.071C334.178 333.508 338.58 341.185 341.701 349.403C345.136 358.446 346.806 367.955 347.713 377.554C348.614 387.085 348.918 396.663 349.924 406.184C350.956 415.95 352.99 425.499 355.303 435.031L355.854 437.291C357.947 445.827 360.107 454.364 361.183 463.101C361.758 467.769 362.103 472.5 362.025 477.205C361.947 481.938 361.203 486.566 360.603 491.249C360.373 493.043 362.138 494.54 363.718 494.778C365.535 495.05 367.096 493.891 367.66 492.204C369.421 486.943 369.741 481.127 369.685 475.605C369.63 469.999 368.914 464.429 367.908 458.92C365.927 448.083 362.872 437.47 360.316 426.762C358.063 417.325 356.551 407.871 355.736 398.202C354.89 388.172 354.383 378.107 352.84 368.149C351.317 358.318 348.45 348.927 344.127 339.963C340.192 331.801 335.285 324.118 330.142 316.672C323.895 307.63 317.035 299.025 309.366 291.186C310.055 291.156 310.762 290.933 311.412 290.528C313.399 289.289 314.325 286.864 314.609 284.65C315.275 279.471 315.114 274.064 313.782 269.001C311.634 260.832 306.057 253.574 297.975 250.63C295.895 249.872 293.683 249.595 291.479 249.541C289.387 249.489 287.102 249.761 285.083 249.098C281.87 248.042 280.493 244.258 279.287 241.39L279.231 241.258C277.684 237.603 275.827 234.47 272.477 232.187C268.902 229.752 264.424 228.644 260.206 227.929V227.929ZM168.762 242.385C165.87 241.381 162.254 242.292 159.426 243.168C156.275 244.145 153.363 245.944 150.867 248.081C148.234 250.334 146.057 253.116 144.519 256.224L144.372 256.523C142.968 259.407 141.368 263.365 142.077 266.532C142.097 266.622 142.12 266.708 142.146 266.792C136.408 269.617 131.109 273.155 126.495 277.639C121.121 282.86 116.571 288.801 112.721 295.22C97.429 320.713 94.7375 351.33 92.9314 380.403L92.481 387.775C91.5003 403.693 90.3526 419.573 87.3714 435.271L87.1538 436.405C83.9671 452.841 79.4054 469.402 79.8675 486.263C80.0062 491.315 87.4723 491.281 87.6887 486.263C88.5036 467.378 92.9108 449.143 95.8952 430.553C101.146 397.846 98.5152 364.128 105.956 331.748C108.875 319.042 113.398 306.716 119.857 295.374C123.048 289.77 126.698 284.356 130.974 279.522C134.653 275.363 138.477 271.36 142.776 267.863C144.15 269.239 146.894 268.538 147.612 266.532C148.104 265.153 147.961 263.541 148.277 262.097C148.57 260.757 148.975 259.428 149.514 258.166C150.589 255.651 152.166 253.236 153.987 251.2C155.953 249 158.214 247.172 160.744 245.662C163.29 244.142 166.076 243.688 168.762 242.578C168.852 242.54 168.861 242.419 168.762 242.385ZM157.526 417.18C157.522 417.048 157.365 416.985 157.269 417.074C156.255 418.007 155.642 419.346 154.896 420.493C154.035 421.817 153.132 423.113 152.184 424.376C150.285 426.906 148.171 429.29 146.041 431.626C144.059 433.799 141.947 435.88 139.757 437.841C137.383 439.967 134.723 441.863 132.567 444.217C128.067 449.128 127.34 455.869 126.39 462.198L126.286 462.883C125.707 466.639 125.189 470.405 124.721 474.177C124.493 476.011 124.267 477.848 124.081 479.687L124.025 480.27C123.859 482.07 123.815 483.897 124.849 485.47C125.956 487.154 128.472 487.744 129.969 486.13C132.539 483.357 132.057 478.432 132.392 474.865C132.668 471.916 132.982 468.97 133.332 466.029L133.511 464.558C133.924 461.212 134.26 457.799 135.026 454.511C135.701 451.615 136.987 449.43 139.096 447.332C141.222 445.219 143.431 443.247 145.392 440.971C147.473 438.557 149.35 435.97 151.042 433.269C152.488 430.958 153.648 428.444 154.71 425.933L154.886 425.515C155.913 423.066 157.606 419.878 157.526 417.18ZM120.409 311.994C120.386 311.652 119.881 311.647 119.874 311.994C119.81 314.931 119.749 317.869 119.688 320.807C119.197 344.48 119.5 368.209 117.125 391.801C116.004 402.924 113.942 413.884 111.555 424.798C110.333 430.383 109.052 435.955 107.835 441.54C106.648 446.984 105.376 452.454 104.434 457.948C103.51 463.348 102.681 468.789 102.31 474.259L102.264 474.972C102.104 477.621 101.34 481.518 102.798 483.866C104.379 486.41 107.406 486.456 109.099 484.027C110.69 481.748 110.294 477.692 110.575 474.972C110.861 472.201 111.163 469.428 111.506 466.663C112.175 461.27 113.057 455.889 113.974 450.533C115.883 439.378 118.654 428.364 120.698 417.228C122.794 405.816 124.283 394.323 124.346 382.704C124.408 370.987 123.168 359.292 122.542 347.6C121.906 335.726 121.183 323.86 120.409 311.994ZM232.239 238.362C231.604 236.222 229.36 234.884 227.172 235.485C225.167 236.036 223.511 238.47 224.295 240.552C225.151 242.825 226.646 244.762 227.907 246.828C229.071 248.736 230.769 250.239 231.956 252.113L230.648 253.522C229.995 254.225 229.339 254.924 228.676 255.611L226.396 257.972C224.62 259.807 222.834 261.633 220.997 263.404C215.595 268.615 210.107 273.654 204.058 278.116C202.681 279.132 201.293 280.141 199.866 281.087L199.334 281.439C198.355 282.08 197.263 282.71 196.08 282.602C193.207 282.338 190.611 279.286 188.636 277.387L188.533 277.288C183.64 272.632 179.109 267.542 175.148 262.069C174.268 260.853 173.417 259.616 172.587 258.365C174.503 256.128 174.045 251.761 174.151 249.048C174.225 247.14 174.231 245.232 174.241 243.323L174.247 242.938C174.27 241.702 174.326 240.517 173.524 239.5C173.477 239.442 173.38 239.443 173.321 239.474C172.222 240.05 171.884 241.013 171.415 242.094L171.366 242.207C170.796 243.504 170.25 244.813 169.697 246.118C169.119 247.484 168.588 248.871 168.05 250.253C167.8 250.896 167.561 251.542 167.328 252.191C167.186 252.606 167.038 253.018 166.887 253.43L166.852 253.462C166.652 253.631 166.483 253.81 166.337 253.995C165.724 254.301 165.237 254.86 165.008 255.681C164.511 257.467 165.54 258.924 166.458 260.342C170.187 266.103 174.438 271.593 179.164 276.573C181.511 279.047 183.98 281.41 186.55 283.651L187 284.041C189.309 286.025 191.816 287.905 194.899 288.369C198.508 288.912 201.445 287.117 204.208 285.05L204.483 284.842C207.102 282.86 209.669 280.808 212.155 278.661C217.224 274.284 222.047 269.585 226.327 264.43C230.49 259.415 234.605 253.808 237.171 247.774C237.328 247.406 236.916 247.022 236.594 247.329C235.341 248.522 234.135 249.78 232.943 251.054C232.91 249.179 233.256 247.287 233.063 245.4C232.828 243.105 232.896 240.571 232.239 238.362Z" fill="black"/>
<path fill-rule="evenodd" clip-rule="evenodd" d="M148.88 132.825C160.61 116.174 190.089 114.299 208.72 114.404C245.513 114.097 253.217 156.477 255.138 186.175C259.063 186.844 262.879 188.215 265.469 191.305C268.622 195.069 269.711 201.528 266.755 205.737C264.791 208.532 261.691 209.466 258.448 209.622C247.707 208.594 245.505 218.188 240.215 225.382C226.641 243.759 203.125 249.72 181.557 249.811C174.231 250.007 165.406 250.558 160.714 243.65C145.897 217.912 145.574 183.775 144.66 154.607C144.535 147.14 144.567 139.235 148.88 132.825V132.825Z" fill="#EDB98A"/>
<path fill-rule="evenodd" clip-rule="evenodd" d="M123.561 147.269C123.412 147.551 123.303 147.863 123.242 148.203C123.049 149.281 123.445 150.106 123.966 150.907C123.897 151.465 123.859 152.006 123.83 152.482C123.664 155.155 124.275 158.818 126.626 159.909C126.663 159.953 126.7 159.997 126.739 160.041C126.921 160.336 127.197 160.592 127.561 160.779C127.652 160.842 127.743 160.902 127.836 160.954C127.86 160.974 127.885 160.993 127.911 161.011C127.93 161.025 127.949 161.039 127.967 161.053C127.918 161.001 127.871 160.948 127.822 160.895C129.123 161.415 130.379 161.522 131.72 161.364C132.549 161.664 133.379 161.889 134.081 162.062C136.269 162.604 139.091 163.037 141.224 162.114C141.845 161.845 142.361 161.489 142.748 161.064C142.716 162.719 142.668 164.373 142.596 166.027C142.45 170.209 142.457 174.387 142.489 178.572C142.525 183.282 142.657 187.995 142.909 192.701C143.027 195.065 143.215 197.425 143.468 199.778C143.681 202.07 143.93 204.359 144.218 206.641C144.898 211.332 146.018 216.06 147.385 220.594C147.979 222.562 148.63 224.555 149.37 226.502C149.683 227.397 150.014 228.281 150.373 229.158C152.269 233.753 154.631 238.188 157.823 242.017C159.566 244.106 161.49 245.985 163.639 247.564C165.365 248.912 167.232 250.053 169.285 250.951C173.697 252.884 178.62 253.319 183.391 253.247C185.211 253.223 187.14 252.9 188.945 252.599L189.055 252.581C190.464 252.349 191.89 252.039 193.302 251.675C194.555 251.383 195.793 251.044 197.013 250.648C198.482 250.26 199.891 249.7 201.232 248.976L203.609 248.081C204.601 247.707 205.565 247.261 206.501 246.752L209.084 245.543C210.155 245.026 211.197 244.459 212.215 243.835C212.321 243.778 212.442 243.682 212.489 243.575C212.598 243.514 212.709 243.454 212.82 243.394C212.974 243.311 213.129 243.227 213.282 243.14C213.325 243.119 213.293 242.994 213.236 242.873C213.282 242.777 213.275 242.67 213.147 242.573C213.051 242.498 212.898 242.52 212.738 242.57C212.752 242.559 212.762 242.548 212.773 242.538C212.829 242.507 212.885 242.477 212.941 242.447C213.061 242.383 213.18 242.318 213.3 242.252C213.478 242.156 213.506 241.907 213.339 241.775C213.293 241.739 213.239 241.721 213.186 241.718C213.188 241.718 213.189 241.717 213.191 241.716C213.193 241.715 213.195 241.714 213.197 241.714C213.229 241.693 213.204 241.593 213.157 241.482C213.246 241.368 213.275 241.229 213.118 241.108C212.904 240.939 212.423 241.216 212.198 241.345C212.181 241.355 212.165 241.364 212.151 241.372C212.011 241.45 211.87 241.525 211.729 241.599C211.644 241.645 211.559 241.69 211.475 241.736C211.46 241.703 211.432 241.675 211.386 241.646C211.716 241.472 212.043 241.294 212.37 241.116L212.371 241.115C212.574 241.008 212.837 240.784 212.57 240.573C212.357 240.402 211.806 240.694 211.542 240.844C211.51 240.819 211.475 240.809 211.432 240.801C211.546 240.737 211.667 240.677 211.781 240.609C212.101 240.431 211.884 239.875 211.553 240.06C211.533 240.072 211.514 240.084 211.494 240.096C211.475 240.107 211.455 240.119 211.436 240.131C211.209 240.111 210.896 240.287 210.734 240.378L210.71 240.391C209.596 241.094 208.436 241.707 207.234 242.235C206.423 242.62 205.608 243.001 204.79 243.372C203.986 243.771 203.157 244.117 202.307 244.409C200.169 245.244 198.009 246.021 195.828 246.741C192.772 247.579 189.61 248.253 186.436 248.516C186.024 248.548 185.611 248.577 185.198 248.591C184.749 248.588 184.299 248.585 183.85 248.582C183.396 248.58 182.943 248.577 182.491 248.573C180.894 248.408 179.296 248.245 177.701 248.083L177.233 248.035C176.621 247.949 176.023 247.843 175.433 247.718C175.123 247.643 174.814 247.564 174.508 247.475C174.401 247.461 174.294 247.44 174.188 247.422C173.437 247.222 172.7 246.983 171.964 246.705C171.502 246.516 171.043 246.317 170.587 246.106C169.082 245.404 167.602 244.477 166.208 243.415C165.336 242.545 164.465 241.676 163.593 240.807C162.718 239.934 161.843 239.062 160.967 238.188L159.37 236.006C157.307 233.051 155.674 229.757 154.318 226.395L152.162 220.17C151.938 219.421 151.725 218.673 151.522 217.921C151.113 216.238 150.704 214.555 150.295 212.876C150.16 212.259 150.028 211.646 149.9 211.033C149.114 207.214 148.68 203.339 148.306 199.464C147.623 192.412 147.438 185.339 147.388 178.259C147.356 174.027 147.392 169.795 147.477 165.567C147.527 163.117 147.562 160.666 147.598 158.216L147.598 158.208C147.644 155.606 147.694 153 147.762 150.397C147.765 150.34 147.744 150.29 147.715 150.248C147.723 149.941 147.726 149.634 147.73 149.324C147.733 149.121 147.655 149.032 147.541 149.014C147.562 147.157 147.577 145.303 147.58 143.449C147.58 143.328 147.523 143.249 147.449 143.203V142.732C147.758 141.442 148.178 140.176 148.722 138.971C148.907 138.536 149.114 138.112 149.341 137.698C149.622 137.078 149.989 136.515 150.437 135.998C150.811 135.367 151.27 134.807 151.803 134.308C151.912 134.229 152.021 134.151 152.13 134.073C152.24 133.994 152.349 133.916 152.458 133.837C152.639 133.741 152.906 133.574 153.141 133.381C153.352 133.251 153.563 133.12 153.774 132.989C153.985 132.858 154.196 132.727 154.407 132.597C154.653 132.468 154.493 132.147 154.318 132.062V132.051C154.357 132.033 154.4 132.012 154.446 131.973C154.959 131.488 155.492 131.032 156.047 130.604C156.147 130.643 156.264 130.629 156.353 130.554C156.681 130.247 157.015 129.951 157.357 129.666C158.121 129.163 158.922 128.704 159.758 128.297C161.099 127.663 162.472 127.117 163.881 126.654C164.155 126.563 164.431 126.482 164.705 126.4L164.795 126.374C164.961 126.366 165.127 126.357 165.293 126.349C165.56 126.336 165.827 126.322 166.094 126.311C182.215 125.602 198.377 125.9 214.461 127.2C218.424 127.52 222.381 127.902 226.332 128.345C227.077 128.428 227.853 128.493 228.645 128.559C231.549 128.802 234.66 129.063 237.171 130.316C237.306 130.384 237.435 130.456 237.561 130.53C237.344 131.92 236.824 133.283 236.319 134.606C236.242 134.807 236.166 135.007 236.091 135.207C235.215 137.537 234.43 139.912 234.508 142.435C234.562 144.195 234.94 145.887 235.483 147.541C235.762 149.898 236.495 152.175 237.274 154.412C241.104 165.419 243.189 176.689 242.975 188.373C242.969 188.686 243.041 188.959 243.165 189.191L243.159 189.237C243.091 189.733 243.023 190.228 242.943 190.723C242.623 192.692 245.214 193.671 246.108 192.366C246.168 192.425 246.252 192.466 246.328 192.473C246.556 192.494 246.93 192.12 247.036 191.949C247.175 191.692 247.321 191.442 247.477 191.204C247.499 191.193 247.517 191.186 247.534 191.179C247.488 191.276 247.44 191.374 247.393 191.472C247.343 191.574 247.294 191.675 247.246 191.774C247.09 192.088 247.691 192.241 247.869 191.952C248.029 191.699 248.189 191.457 248.349 191.225C248.442 191.293 248.545 191.311 248.612 191.2C249.185 190.252 249.847 189.439 250.573 188.747C251.715 187.813 252.963 187.246 254.383 186.915C255.5 186.754 256.645 186.747 257.752 186.876C259.022 187.025 260.36 187.343 261.509 187.924C262.444 188.569 263.383 189.214 264.323 189.86C264.554 190.102 264.775 190.355 264.981 190.619C265.632 191.464 266.155 192.366 266.585 193.325C266.603 193.385 266.621 193.446 266.639 193.503C266.902 194.309 267.073 195.136 267.147 195.984C267.153 196.521 267.157 197.057 267.162 197.592C267.166 198.128 267.171 198.664 267.176 199.2C267.034 200.594 266.678 201.949 266.134 203.236C265.877 203.995 265.475 204.673 264.931 205.272C264.639 205.778 264.308 206.238 263.938 206.665C263.188 207.165 262.37 207.589 261.498 207.924C261.285 207.981 261.071 208.038 260.854 208.081C259.733 208.512 258.574 208.744 257.375 208.776C255.859 208.879 254.376 208.747 252.924 208.38C252.028 208.22 251.16 207.96 250.32 207.6C249.516 207.193 248.758 206.705 248.05 206.134C247.972 206.084 247.855 206.113 247.727 206.177C247.699 206.157 247.672 206.137 247.645 206.118C247.516 206.024 247.387 205.931 247.26 205.828C247.189 205.778 247.125 205.838 247.093 205.903L247.051 205.87C246.77 205.678 245.998 206.28 246.346 206.637C246.197 206.73 246.047 206.84 245.912 206.954C245.293 206.979 244.044 208.12 244.279 208.298C244.628 208.601 244.994 208.879 245.368 209.143C245.037 209.389 244.603 209.771 244.806 209.924C245.169 210.27 245.564 210.569 245.983 210.826C246.268 211.043 246.56 211.25 246.866 211.439C247.196 211.635 247.534 211.803 247.883 211.96C247.275 213.14 246.695 214.33 246.154 215.543C245.795 216.402 245.379 217.232 244.898 218.031C244.286 219.247 243.553 220.388 242.696 221.45C241.999 222.626 241.181 223.707 240.245 224.694C239.089 226.013 237.847 227.254 236.527 228.402C236.001 228.776 235.463 229.14 234.905 229.475C233.478 230.552 231.959 231.475 230.348 232.245C230.159 232.349 230.01 232.577 230.23 232.755C230.237 232.759 230.245 232.759 230.252 232.766C229.725 233.065 229.195 233.361 228.661 233.653L228.644 233.663C228.428 233.78 228.03 233.996 228.341 234.249C228.548 234.42 229.184 234.113 229.565 233.914C229.512 233.942 229.455 233.974 229.398 234.006C229.392 234.009 229.386 234.013 229.378 234.017C229.22 234.102 228.624 234.423 229.021 234.63C229.231 234.666 229.43 234.63 229.622 234.527C229.821 234.452 230.02 234.37 230.216 234.284C230.209 234.349 230.245 234.409 230.348 234.459C230.43 234.473 230.508 234.473 230.586 234.466C230.152 234.712 229.718 234.955 229.28 235.194C229.152 235.261 228.548 235.596 228.946 235.803C229.142 235.842 229.33 235.81 229.512 235.71C229.843 235.586 230.17 235.44 230.486 235.279C230.524 235.258 230.561 235.237 230.599 235.217C230.636 235.196 230.673 235.176 230.711 235.154C230.767 235.154 230.824 235.147 230.881 235.136C230.533 235.325 230.18 235.507 229.825 235.686C229.615 235.8 229.263 236.031 229.565 236.267C229.775 236.427 230.341 236.138 230.675 235.949C230.687 235.964 230.701 235.979 230.717 235.995C230.729 236.007 230.742 236.019 230.757 236.031C230.975 236.197 231.494 235.897 231.755 235.746C231.792 235.725 231.824 235.706 231.849 235.693C233.614 234.744 235.318 233.764 236.958 232.641C237.961 231.996 238.939 231.318 239.896 230.58C241.728 229.161 243.393 227.511 244.92 225.771C245.962 224.58 246.528 223.91 247.538 222.466C249.16 220.142 250.384 217.717 251.562 215.147C251.579 215.108 251.544 215.008 251.49 214.908C251.732 214.313 251.967 213.71 252.202 213.086C252.814 213.168 253.429 213.225 254.038 213.261C255.471 213.343 256.862 213.215 258.211 212.919C259.844 212.708 261.459 212.245 262.889 211.518C263.746 211.086 264.572 210.626 265.354 210.113C266.055 209.739 266.731 209.311 267.379 208.812C270.136 206.701 271.634 203.425 272 200.024C272.281 198.526 272.342 196.986 272.174 195.5C272.053 194.419 271.811 193.35 271.459 192.319C270.808 190.034 269.595 187.92 267.838 186.319C267.542 186.016 267.233 185.728 266.902 185.457C265.924 184.654 264.814 184.009 263.633 183.539C263.405 183.428 263.174 183.325 262.942 183.228L263.223 182.58C263.323 182.608 263.668 182.551 263.711 182.43C263.781 182.239 263.848 182.046 263.915 181.854C263.957 181.733 263.999 181.612 264.042 181.492C264.106 181.531 264.188 181.553 264.276 181.556V181.916C264.273 182.02 264.469 182.662 264.575 182.326C264.643 182.139 264.706 181.949 264.77 181.759C264.81 181.638 264.85 181.517 264.892 181.396C264.981 181.339 265.048 181.271 265.073 181.193C265.084 181.161 265.095 181.129 265.109 181.096C265.112 181.095 265.117 181.094 265.121 181.093C265.126 181.092 265.13 181.091 265.134 181.089V181.2C265.13 181.268 265.308 181.781 265.34 181.681C265.956 179.984 266.457 178.252 266.849 176.49C267.115 175.521 267.325 174.54 267.485 173.546C267.66 172.651 267.813 171.752 267.944 170.847L267.976 170.622C267.978 170.613 267.98 170.605 267.982 170.597C267.983 170.589 267.985 170.581 267.987 170.572C267.998 170.476 268.008 170.376 268.023 170.28C268.165 169.257 268.282 168.23 268.371 167.196C268.56 165.071 268.634 162.936 268.613 160.804C268.642 160.815 268.67 160.829 268.697 160.843C268.714 160.851 268.731 160.86 268.748 160.868C269.673 161.262 270.649 161.585 271.643 161.841C273.352 164.317 276.081 165.992 279.352 166.168C280.459 166.228 281.62 166.093 282.696 165.78C282.807 165.805 282.923 165.826 283.042 165.842C283.604 165.915 284.056 165.795 284.524 165.67C284.786 165.6 285.053 165.529 285.347 165.49C285.453 165.476 285.558 165.462 285.662 165.449C286.837 165.298 287.84 165.168 288.62 164.467C288.882 164.473 289.132 164.435 289.37 164.364C291.621 164.904 294.013 163.712 294.805 161.214C296.155 160.421 297.23 159.245 297.954 157.88C299.347 156.09 300.461 153.896 301.152 151.591C301.156 151.582 301.16 151.573 301.165 151.565C301.171 151.552 301.178 151.539 301.184 151.525C301.535 150.764 301.702 149.947 301.716 149.128C302.089 146.794 301.99 144.457 301.281 142.404C301.311 141.29 301.05 140.13 300.572 139.077C299.993 137.8 299.109 136.333 297.962 135.481C297.959 134.173 297.398 132.732 296.663 131.756C295.195 129.807 293.067 128.776 290.764 128.627C289.593 125.618 286.044 124.916 282.983 125.917C281.712 124.615 279.849 123.993 277.991 124.215C276.419 124.402 275.076 125.155 273.963 126.193C273.67 126.277 273.378 126.364 273.086 126.455C272.113 126.027 270.977 125.93 269.938 126.199C268.136 126.664 266.961 128.032 266.148 129.6C265.889 129.779 265.636 129.964 265.389 130.157C265.117 130.279 264.871 130.442 264.647 130.633C264.322 130.807 264.046 131.093 263.877 131.507C263.418 131.981 262.991 132.483 262.614 133.021C262.331 132.365 262.039 131.714 261.738 131.068C261.247 131.216 260.654 131.024 260.407 130.367L260.344 130.2C258.766 126.004 255.957 118.532 253.308 115.065C256.441 117.203 260.267 118.33 264.067 118.216C264.23 118.211 264.394 118.205 264.559 118.196C266.602 118.549 268.677 118.581 270.582 118.199C271.865 117.732 273.115 117.176 274.327 116.547C274.621 116.393 274.913 116.232 275.204 116.07C275.295 115.993 275.382 115.909 275.468 115.826C275.502 115.793 275.536 115.76 275.57 115.728C275.821 115.746 276.083 115.726 276.362 115.652C277.41 115.374 278.381 114.675 278.989 113.777C279.102 113.61 279.193 113.437 279.274 113.264C279.934 112.617 280.506 111.884 280.926 111.028C281.42 110.026 281.723 108.899 281.755 107.773C281.961 106.668 281.947 105.53 281.563 104.475C281.536 104.403 281.506 104.333 281.476 104.262C281.459 104.22 281.441 104.179 281.424 104.136C281.415 104.107 281.408 104.077 281.4 104.048C281.389 104.004 281.378 103.961 281.364 103.919C281.251 103.543 281.108 103.208 280.935 102.89C280.87 102.564 280.765 102.241 280.616 101.926C280.599 101.774 280.579 101.622 280.554 101.47C281.685 99.3327 281.284 96.5377 279.592 94.8004C279.826 93.6774 279.588 92.4866 278.906 91.4902C278.405 90.7579 277.708 90.18 276.92 89.7789C276.838 89.7372 276.62 89.6656 276.359 89.5832C276.068 89.3247 275.76 89.0802 275.423 88.8648C275.343 86.7757 273.262 85.5706 271.46 84.5272C271.373 84.4768 271.287 84.4268 271.201 84.3771C270.614 84.0357 270.189 83.5451 269.763 83.0543C269.315 82.539 268.868 82.0234 268.233 81.6797C267.123 81.0791 265.759 80.941 264.478 80.8113C264.195 80.7827 263.916 80.7545 263.645 80.7218C260.114 80.2954 256.353 79.966 252.804 80.3513C250.833 80.5652 249.201 81.5189 248.526 83.0811C246.831 83.2819 245.32 84.5075 244.125 85.7682C242.633 87.3415 241.362 89.0163 240.924 91.0838C240.633 91.2417 240.368 91.4349 240.128 91.6531C240.137 93.107 240.326 94.5633 240.727 95.9355C240.609 96.7559 240.856 97.5391 241.273 98.2493C241.209 98.9217 241.255 99.5837 241.395 100.244C240.584 101.686 241.343 103.865 242.479 105.295L242.488 106.101C242.42 106.066 242.355 106.024 242.293 105.972C239.025 103.185 235.698 102.417 232.106 101.587C230.031 101.108 227.867 100.608 225.574 99.6871C219.926 98.5944 214.16 97.8988 208.374 97.6675C208.407 97.6626 208.439 97.6583 208.472 97.654C208.516 97.6483 208.56 97.6425 208.603 97.6354C211.519 97.1569 214.32 95.9551 216.728 94.2285C217.366 94.0667 217.97 93.7783 218.511 93.2959C219.037 92.8275 219.401 92.287 219.61 91.7073C219.705 91.605 219.8 91.5019 219.893 91.3971C221.701 90.9522 223.077 89.3846 222.847 87.324C223.992 85.966 224.413 84.2894 224.025 82.5435C224.665 81.4608 224.721 80.0957 224.244 78.9524C225.249 77.7288 225.327 75.9919 224.539 74.6076C225.259 73.5826 225.418 72.2243 224.53 71.0104C224.111 70.4371 223.53 70.0756 222.897 69.9009C222.719 69.2403 222.356 68.6267 221.785 68.1529C221.491 67.9094 221.184 67.7287 220.87 67.5939C220.752 66.9119 220.367 66.2652 219.627 65.7565C219.291 65.5258 218.948 65.3768 218.606 65.2941C218.283 64.4919 217.719 63.7885 216.925 63.3318C215.966 62.781 214.852 62.7079 213.836 62.9967C212.51 60.9881 209.6 60.2095 207.582 61.6994C205.902 60.6577 203.789 60.8773 202.279 62.1439C200.454 61.0626 198.186 61.499 196.754 63.0067C194.46 61.7504 191.432 62.6784 190.203 65.0588C187.888 64.8014 185.706 66.3201 185.089 68.5184C184.989 68.6 184.889 68.684 184.79 68.7679L184.764 68.79C183.377 68.8567 182.059 69.4014 181.282 70.6942C180.893 71.3398 180.714 72.0985 180.74 72.8418C179.911 73.291 179.241 74.0279 178.954 74.983C178.685 75.8785 178.786 76.7645 179.14 77.5363C177.985 78.7674 177.68 80.6861 178.498 82.2323C178.16 82.8141 177.983 83.5018 178.011 84.2166C178.052 85.2751 178.542 86.1283 179.208 86.8566C178.371 88.3718 178.697 90.3155 180.059 91.3779C180.841 94.1572 182.821 96.0065 185.855 97.1409C187.379 97.7106 188.973 98.1495 190.598 98.4717C184.096 99.3484 177.7 100.889 171.556 103.187C171.222 103.312 170.938 103.263 170.722 103.117C170.663 103.148 170.603 103.179 170.544 103.209C170.468 103.248 170.392 103.286 170.317 103.327C168.623 104.258 166.966 105.266 165.35 106.347C165.35 106.168 165.347 105.99 165.34 105.808C165.371 104.341 165.217 102.896 164.828 101.504C165.337 100.809 165.718 100.017 165.925 99.2001C166.442 97.163 165.458 94.2642 163.692 93.5683C163.073 91.8478 161.665 90.6028 159.94 90.113C159.803 89.9893 159.657 89.8691 159.495 89.7575C159.131 89.5073 158.734 89.3365 158.326 89.2374C158.113 88.3051 157.594 87.447 156.733 86.8448C155.518 85.9946 154.081 85.9022 152.819 86.366C152.579 86.2851 152.335 86.2149 152.09 86.1539C150.057 84.4206 146.89 84.5482 145.102 86.5764C143.875 86.0142 142.428 85.9892 141.172 86.7457C140.166 87.3511 139.54 88.3272 139.296 89.3985C137.392 89.457 135.651 90.7226 135.102 92.6114C133.348 92.8103 131.914 94.1858 131.609 95.917C130.49 96.0731 129.457 96.6001 128.828 97.6479C128.538 98.1323 128.38 98.6625 128.339 99.1933C127.773 99.4653 127.266 99.8771 126.883 100.415C126.212 101.358 126.082 102.458 126.329 103.494C126.306 103.541 126.282 103.587 126.258 103.634C126.223 103.701 126.189 103.768 126.156 103.837C125.974 104.226 125.827 104.644 125.697 105.068C125.107 105.92 124.834 106.962 124.889 108.009C124.763 108.452 124.642 108.895 124.541 109.341C124.143 111.092 123.993 112.956 124.267 114.739C124.403 115.602 124.598 116.45 124.876 117.274C124.904 117.431 124.95 117.577 125.004 117.716C125.157 118.365 125.352 119.003 125.601 119.627C126.199 120.422 126.825 121.195 127.483 121.944C128.038 122.778 128.672 123.548 129.387 124.254C129.903 124.764 130.468 125.238 131.069 125.666C132.263 126.625 133.599 127.372 135.023 127.859C135.278 127.805 135.534 127.763 135.79 127.722C137.408 128.615 139.954 128.716 141.51 128.71C143.226 128.704 144.797 128.269 146.103 127.449C145.952 127.751 145.8 128.053 145.649 128.356C145.659 128.362 145.67 128.368 145.68 128.374C145.708 128.389 145.736 128.405 145.76 128.423C146.043 127.954 146.358 127.538 146.729 127.238C147.236 126.829 148.054 126.792 148.405 127.455C148.412 127.466 148.418 127.478 148.424 127.49C148.611 127.843 148.585 128.182 148.442 128.459C148.39 128.534 148.338 128.61 148.286 128.685C148.281 128.691 148.275 128.697 148.27 128.704C148.257 128.719 148.244 128.735 148.229 128.75L148.238 128.751C147.753 129.142 147.275 130.102 146.821 131.035C146.515 131.58 146.223 132.133 145.949 132.696C145.79 132.932 145.506 133.139 145.205 133.199C145.264 133.648 145.057 134.113 144.719 134.343C144.63 134.164 144.521 133.98 144.382 133.79C142.853 131.709 139.849 130.811 137.587 131.762C137.136 131.685 136.683 131.622 136.225 131.586C134.732 131.488 133.218 131.605 131.743 131.915C131.285 132.19 130.847 132.5 130.44 132.853C130.095 133.153 129.775 133.467 129.476 133.791C129.244 133.965 129.017 134.149 128.794 134.34C127.89 134.828 127.226 135.762 126.668 136.693C126.225 137.32 125.838 137.986 125.504 138.692C123.953 141.352 122.163 144.654 123.561 147.269ZM247.961 198.665C247.392 199.325 246.948 200.059 246.627 200.869C246.499 201.129 246.656 201.286 246.919 201.239C247.036 201.222 247.197 201.136 247.36 201.022C247.348 201.052 247.334 201.081 247.321 201.109C247.308 201.138 247.294 201.166 247.282 201.197C247.143 201.471 247.261 201.667 247.577 201.564C247.595 201.553 247.613 201.542 247.627 201.532C247.463 201.824 247.314 202.124 247.186 202.437C247.047 202.715 247.172 202.908 247.485 202.801C247.648 202.708 247.805 202.601 247.954 202.484C247.936 202.524 247.917 202.565 247.899 202.605C247.849 202.713 247.799 202.821 247.755 202.933C247.613 203.214 247.776 203.361 248.054 203.296C248.292 203.165 248.513 203.008 248.719 202.826C248.751 202.801 248.78 202.772 248.808 202.747C248.716 202.979 248.89 203.122 249.121 203.075C249.449 203.011 250.064 202.459 250.213 202.166C250.219 202.157 250.223 202.148 250.228 202.14C250.232 202.131 250.237 202.122 250.242 202.113C250.416 201.995 250.605 201.831 250.747 201.674C250.861 201.838 251.081 201.96 251.181 201.76C251.48 200.943 251.946 200.245 252.583 199.656C252.946 199.125 253.387 198.673 253.903 198.298C254.18 198.063 254.468 197.838 254.764 197.624C255.287 197.385 255.831 197.204 256.4 197.082C256.465 197.062 256.53 197.047 256.596 197.031C256.646 197.019 256.696 197.007 256.745 196.993L256.785 196.986C257.024 196.942 257.26 196.899 257.499 196.865C258.527 196.722 259.559 196.697 260.591 196.79C260.776 196.797 260.954 196.655 261.032 196.491C261.263 196.501 261.491 196.512 261.722 196.533C262.103 196.548 262.021 196.009 261.733 195.956C261.37 195.888 261.007 195.838 260.651 195.795C260.658 195.763 260.662 195.728 260.655 195.699C261.306 195.667 261.953 195.681 262.608 195.749C262.893 195.763 262.555 195.236 262.398 195.207C262.361 195.2 262.324 195.194 262.287 195.189C262.252 195.184 262.217 195.178 262.181 195.172C262.188 195.161 262.192 195.154 262.195 195.143H262.213C262.604 195.161 262.871 194.537 262.402 194.451C262.345 194.441 262.29 194.433 262.235 194.424C262.175 194.415 262.116 194.406 262.057 194.394C262.078 194.334 262.082 194.28 262.06 194.23C262.263 194.227 262.462 194.227 262.665 194.227C262.612 194.223 262.565 194.111 262.517 193.993C262.464 193.866 262.409 193.733 262.341 193.724C262.29 193.717 262.237 193.71 262.185 193.703C262.132 193.696 262.08 193.688 262.028 193.681C262.021 193.549 261.822 193.243 261.736 193.225C261.06 193.111 260.399 193.033 259.744 193.008C259.68 192.858 259.588 192.658 259.499 192.658C258.755 192.647 258.04 192.655 257.329 192.729C257.3 192.708 257.272 192.697 257.247 192.701C257.206 192.711 257.166 192.72 257.127 192.73C257.054 192.747 256.983 192.764 256.909 192.783C256.514 192.84 256.119 192.922 255.717 193.04C254.767 193.321 253.817 193.767 252.995 194.32C252.22 194.84 251.448 195.382 250.772 196.031C250.534 196.234 250.309 196.455 250.096 196.683C249.751 196.968 249.416 197.261 249.096 197.549C248.705 197.91 248.324 198.28 247.961 198.665Z" fill="black"/>
<path fill-rule="evenodd" clip-rule="evenodd" d="M172.525 222.836C175.152 223.597 177.971 223.665 180.648 222.879C183.076 222.167 185.569 220.599 187.356 218.524C188.944 216.68 189.972 214.44 189.931 212.049C189.927 211.776 189.829 211.548 189.679 211.371C189.517 211.181 189.291 211.05 189.049 210.993C188.801 210.935 188.538 210.955 188.314 211.057C188.111 211.149 187.937 211.306 187.828 211.534C187.554 211.895 187.28 212.25 187.006 212.596C184.797 215.323 182.659 217.361 179.338 218.091C177.537 218.488 175.737 218.312 174.086 217.707C172.319 217.059 170.722 215.92 169.47 214.463C168.904 213.804 168.236 213.535 167.583 213.531C166.843 213.526 166.111 213.87 165.56 214.419C165.018 214.96 164.656 215.694 164.623 216.462C164.594 217.136 164.814 217.84 165.399 218.468C167.326 220.538 169.823 222.054 172.525 222.836ZM172.607 188.685C169.914 190.322 165.812 194.138 168.709 198.195C172.118 201.772 177.026 197.67 179.445 195.815C181.687 194.378 184.207 198.075 182.126 199.754C164.649 212.693 157.556 189.113 171.245 186.761C172.752 186.502 173.312 188.179 172.607 188.685ZM197.79 181.485C198.656 180.932 199.673 180.742 200.801 181.255C201.683 181.656 203.229 182.992 204.305 184.749C205.041 185.951 205.563 187.361 205.455 188.829C205.429 189.171 205.555 189.422 205.754 189.608C205.911 189.755 206.138 189.863 206.404 189.896C206.63 189.925 206.884 189.899 207.089 189.835C207.481 189.713 207.688 189.459 207.766 189.252C208.52 187.251 208.195 185.018 207.351 183.004C206.211 180.285 204.142 178.008 202.786 177.274C200.466 176.017 197.729 175.959 195.406 177.24C193.428 178.329 192.191 180.089 190.961 181.882C190.7 182.263 190.44 182.642 190.172 183.013C189.635 183.758 189.581 184.497 189.789 185.13C190.02 185.832 190.608 186.425 191.343 186.735C192.023 187.021 192.811 187.061 193.509 186.767C194.099 186.518 194.64 186.034 194.982 185.211C195.559 183.826 196.52 182.298 197.79 181.485V181.485ZM153.845 184.567C154.437 184.876 154.901 184.969 155.558 184.772C155.922 184.663 156.281 184.453 156.562 184.172C156.841 183.893 157.042 183.547 157.12 183.162C157.313 182.213 157.832 181.324 158.572 180.745C159.205 180.25 160.003 179.988 160.889 180.136C161.844 180.295 162.755 180.908 163.382 181.631C163.591 181.872 163.756 182.147 163.921 182.42C164.23 182.93 164.53 183.404 164.956 183.779C165.118 183.921 165.361 184.02 165.597 184.02C165.692 184.02 165.79 184.004 165.882 183.975C166.833 183.021 167.016 182.296 166.986 181.578C166.954 180.825 166.657 180.062 166.177 179.351C165.051 177.682 162.914 176.313 161.471 176.003C159.496 175.579 157.534 176.088 155.962 177.191C154.343 178.326 153.144 180.089 152.77 182.075C152.68 182.553 152.719 183.07 152.901 183.517C153.079 183.955 153.389 184.33 153.845 184.567ZM193.434 163.689C194.619 164.844 196.022 165.023 197.442 165.182C198.23 165.271 198.86 165.343 199.479 165.483C201.182 165.867 202.865 166.446 204.401 167.28C206.006 168.151 207.756 169.203 209.014 170.549C209.314 170.87 209.596 171.206 209.878 171.543C210.136 171.85 210.384 172.146 210.645 172.431C210.946 172.759 211.231 173.102 211.515 173.445C211.69 173.733 211.725 173.805 211.76 173.879C211.813 173.99 211.875 174.114 211.946 174.248C212.042 174.43 212.156 174.631 212.274 174.812C212.472 175.144 212.578 175.235 212.669 175.276C212.821 175.343 212.965 175.377 213.105 175.359C213.236 175.342 213.359 175.279 213.481 175.176C214.09 174.662 214.269 173.818 214.251 172.922C214.223 171.563 213.722 170.058 213.259 169.133C212.185 166.983 210.694 164.748 208.902 163.144C206.857 161.312 204.62 159.926 202.05 158.971C200.453 158.377 198.604 157.832 196.865 157.9C195.612 157.95 194.417 158.322 193.43 159.252C192.823 159.823 192.532 160.634 192.532 161.445C192.532 162.273 192.835 163.105 193.434 163.689ZM151.434 174.265C151.509 174.388 151.614 174.473 151.73 174.525C151.851 174.578 151.987 174.594 152.118 174.572C152.247 174.55 152.371 174.491 152.469 174.401C152.563 174.315 152.634 174.201 152.666 174.06C153.453 170.604 154.981 168.032 158.243 166.374C159.847 165.558 161.692 165.04 163.439 164.626C163.946 164.506 164.483 164.428 165.023 164.35C166.715 164.102 168.42 163.819 169.524 162.451C170.189 161.627 170.468 160.573 170.31 159.609C170.161 158.701 169.631 157.869 168.667 157.37C166.267 156.129 163.284 157.347 160.86 158.385C160.68 158.462 160.504 158.537 160.331 158.61C157.961 159.61 155.799 160.931 154.022 162.82C152.612 164.318 151.305 166.533 150.779 168.812C150.342 170.708 150.444 172.643 151.434 174.265Z" fill="black"/>
</svg>
