<svg width="200" height="201" viewBox="0 0 200 201" fill="none" xmlns="http://www.w3.org/2000/svg">
<g clip-path="url(#clip0_41_7332)">
<path d="M98.1059 160.788C98.1423 161.007 98.1379 161.23 98.093 161.448C98.0352 161.819 97.7848 161.7 97.575 161.7C97.4427 161.698 97.3107 161.685 97.1804 161.661L96.9674 161.588L96.1373 161.18C95.5232 160.875 94.934 160.522 94.3751 160.125L92.6553 158.958C91.853 158.36 91.0906 157.71 90.3731 157.012C89.5791 156.346 88.9013 155.565 88.1322 154.86C82.5507 149.65 77.9476 143.482 74.5409 136.648C73.019 133.534 71.7926 130.284 70.8778 126.941C69.6652 122.667 69.1037 118.28 67.5048 114.095C66.9824 112.805 65.0283 113.262 63.2829 114.788C62.2726 115.614 61.4909 116.685 61.0126 117.899C60.5342 119.113 60.3751 120.429 60.5506 121.722C61.5131 126.541 62.9314 131.257 64.7866 135.808C66.691 140.397 69.1288 144.747 72.0499 148.767C75.5642 153.52 78.86 158.891 83.5182 163.108C86.0796 165.437 88.8971 167.469 91.9167 169.163L93.3318 169.911C93.8694 170.228 94.4264 170.511 94.9993 170.758C96.0527 171.183 97.1373 171.525 98.2434 171.783C99.2804 172.079 100.34 172.289 101.411 172.411C102.45 172.123 103.353 171.477 103.962 170.587C104.804 169.468 105.465 168.225 105.922 166.901C106.179 166.213 106.406 165.512 106.623 164.8C106.84 164.087 107.078 163.282 107.179 162.893C107.645 160.947 108.028 159.087 108.535 157.144C109.924 151.388 111.003 145.579 112.722 140.086C114.05 135.868 115.622 131.73 117.432 127.695C117.793 126.808 118.232 125.97 118.583 125.072C119.89 121.73 119.834 120.497 118.525 118.994C118.265 118.628 117.981 118.281 117.674 117.955C116.612 117.031 114.828 117.883 113.12 120.199C110.636 123.728 108.474 127.473 106.662 131.389C105.754 133.355 104.906 135.347 104.07 137.331C103.234 139.314 102.717 141.455 102.094 143.511C101.192 146.579 100.392 149.677 99.7002 152.745L98.6314 157.285L98.0767 159.495L97.8191 160.508L98.1059 160.788Z" fill="#1A1A1A"/>
<path d="M83.9868 70.7561C83.6292 73.8356 83.1999 76.8974 82.9368 79.9758C82.6737 83.0541 82.3877 86.1511 82.3022 89.2366C82.246 91.4964 81.7537 93.7129 81.8221 95.9851C81.8312 103.965 82.6051 111.927 84.1331 119.759C84.4856 121.493 84.6793 123.243 85.0225 124.966C85.3657 126.688 85.6746 128.439 85.9763 130.157C86.1279 131.273 86.4497 132.365 86.7061 133.376C86.9122 134.498 87.184 135.607 87.5201 136.697C88.3215 138.837 89.357 140.881 90.6077 142.793C91.4178 144.037 92.6072 143.253 93.6827 141.608C95.0153 139.705 95.6677 137.409 95.5348 135.09C95.4824 134.56 95.4622 134.023 95.3776 133.501L95.0574 131.97L94.4306 128.876C94.113 126.789 93.7404 124.728 93.3377 122.654C92.935 120.579 92.7577 118.454 92.3778 116.36C91.9979 114.267 91.8132 112.109 91.4281 109.963C91.2422 108.663 91.1373 107.354 91.1141 106.041C91.0455 104.723 90.9996 103.387 91.0047 102.066L91.3736 94.1105C91.7194 88.2925 92.0402 82.3043 92.9136 76.4547C93.3362 72.8259 94.0173 69.2331 94.6985 65.6404L96.5991 57.5748C97.3465 54.9011 98.0524 52.2232 99.0013 49.6324C99.7452 47.6295 100.63 45.6826 101.525 43.7471C102.419 41.8116 103.432 39.9507 104.193 37.9915C104.51 37.1209 104.936 36.3136 105.253 35.4431C106.413 32.202 106.201 30.849 104.671 29.3549C104.345 28.9813 103.99 28.6341 103.61 28.3163C102.4 27.3994 100.595 28.1539 98.792 30.2616C97.5036 31.8329 96.1394 33.4282 94.9726 35.1479C93.8059 36.8677 92.9175 38.7409 91.971 40.5663C91.0245 42.3918 90.426 44.4091 89.6956 46.3818C88.9653 48.3546 88.4104 50.3552 87.7912 52.3704C86.0968 58.3865 84.7287 64.4898 83.6929 70.6536L83.9868 70.7561Z" fill="#1A1A1A"/>
</g>
<defs>
<clipPath id="clip0_41_7332">
<rect width="141.693" height="141.693" fill="white" transform="matrix(0.633924 0.773396 0.773396 -0.633924 0.390137 90.6311)"/>
</clipPath>
</defs>
</svg>
