<svg width="693" height="425" viewBox="0 0 693 425" fill="none" xmlns="http://www.w3.org/2000/svg">
<path d="M446.955 419.595C432.318 418.055 417.609 416.508 403.062 415.44C403.062 415.431 403.063 415.421 403.064 415.411C403.275 412.104 400.766 409.252 397.459 409.041C387.295 408.39 377.181 408.003 367.21 408.049C357.081 408.095 346.904 408.508 336.732 409.141C333.425 409.347 330.911 412.195 331.117 415.502C331.117 415.51 331.118 415.518 331.118 415.527C316.982 416.52 302.806 417.891 288.706 419.255C286.8 419.439 284.895 419.623 282.992 419.807C282.677 416.51 279.751 414.092 276.454 414.404C256.06 416.335 236.089 418.005 216.762 418.271C213.464 418.316 210.824 421.014 210.844 424.307C194.298 424.277 178.204 423.132 162.785 420.146C163.459 416.947 161.444 413.788 158.245 413.06C148.721 410.893 139.529 407.956 130.71 404.072C122.866 400.617 115.5 396.876 108.586 392.881C105.741 391.237 102.108 392.19 100.431 395.004C88.8688 387.893 78.5707 380.055 69.4258 371.646C71.6777 369.274 71.6157 365.525 69.2701 363.229C57.0358 351.253 47.0811 338.186 39.0804 324.473C37.426 321.638 33.8047 320.663 30.9545 322.268C24.6543 310.664 19.6577 298.665 15.7881 286.522C18.9235 285.571 20.7211 282.273 19.8089 279.116C17.4926 271.099 15.6631 263.027 14.2692 254.975C12.7545 246.225 11.2985 237.3 10.0838 228.284C9.64294 225.013 6.64325 222.714 3.37366 223.134C1.66357 209.082 0.617554 194.821 0.921326 180.746C4.19336 180.863 6.9632 178.33 7.12744 175.05C8.01959 157.236 11.3091 140.079 18.3483 124.305C19.6777 121.326 18.3817 117.841 15.4537 116.445C21.5786 104.423 29.9748 93.1611 41.2568 83.0162C43.3711 85.4845 47.0809 85.8239 49.61 83.7558C55.925 78.5922 63.13 73.7348 71.3402 69.2495C81.8932 63.4844 93.1966 59.1755 105.15 56.0486C108.324 55.2182 110.237 51.9955 109.46 48.8199C129.308 44.3047 150.594 42.7795 172.77 43.0251C172.71 46.3197 175.321 49.0497 178.62 49.1315C202.711 49.7291 227.865 52.2858 253.513 55.2604C256.803 55.6419 259.78 53.2859 260.164 49.9972C264.308 50.4854 268.459 50.9805 272.612 51.476C289.584 53.5009 306.609 55.532 323.483 57.1162C323.483 57.1227 323.482 57.1292 323.482 57.1357C323.193 60.4368 325.635 63.3469 328.936 63.6356C341.741 64.7553 354.486 65.5911 367.071 65.9408C378.612 66.2614 390.41 66.1272 402.326 65.7253C405.638 65.6136 408.232 62.8383 408.121 59.5264C408.12 59.5193 408.12 59.5121 408.12 59.505C423.798 58.8663 439.723 57.8152 455.61 56.7665C459.017 56.5416 462.422 56.3169 465.822 56.0963C466.034 59.4007 468.883 61.9095 472.188 61.7009C496.042 60.1955 519.388 59.0315 541.405 59.5941C544.703 59.6784 547.447 57.0853 547.555 53.7937C567.985 54.624 587.252 57.0643 604.585 62.2444C603.589 65.3458 605.254 68.6881 608.349 69.7513C619.168 73.4678 629.003 78.3701 637.704 84.7396C644.454 89.6809 649.537 94.8176 653.307 100.075C655.179 102.685 658.759 103.345 661.43 101.624C667.583 112.358 669.577 123.889 668.978 135.938C665.762 135.668 662.892 138 662.519 141.229C660.904 155.216 656.017 170.079 650.253 185.705C649.109 188.808 650.691 192.251 653.788 193.404C653.174 195.041 652.556 196.679 651.938 198.318C648.334 207.873 644.719 217.459 641.715 226.964C641.69 226.957 641.665 226.95 641.64 226.942C638.456 226.023 635.13 227.859 634.211 231.043C631.884 239.106 630.038 247.226 629.09 255.299C627.446 269.301 628.543 283.797 629.988 297.803C630.328 301.099 633.276 303.495 636.573 303.155C636.579 303.154 636.585 303.154 636.591 303.153C636.67 303.883 636.75 304.614 636.83 305.344C639.411 329.042 641.97 352.533 633.884 372.935C630.982 371.622 627.531 372.811 626.069 375.679C621.131 385.366 613.016 394.378 599.738 402.214C591.722 406.944 583.018 410.486 573.709 413.066C570.558 413.94 568.694 417.172 569.497 420.325C554.698 423.753 538.755 425.017 522.093 425C522.126 421.71 519.5 419.002 516.204 418.941C497.293 418.592 477.457 416.734 457.163 414.63C453.868 414.289 450.921 416.682 450.577 419.975C449.37 419.849 448.163 419.722 446.955 419.595Z" fill="#DB79E2" stroke="#1A1A1A" stroke-width="12" stroke-linecap="round" stroke-dasharray="62 62"/>
<mask id="path-2-outside-1_41_7359" maskUnits="userSpaceOnUse" x="152.911" y="166" width="364" height="145" fill="black">
<rect fill="white" x="152.911" y="166" width="364" height="145"/>
<path d="M172.038 182.76C172.038 178.28 173.451 174.693 176.278 172C179.131 169.307 182.771 167.96 187.198 167.96C191.678 167.96 195.345 169.307 198.198 172C201.051 174.693 202.478 178.28 202.478 182.76C202.478 187.16 201.038 190.76 198.158 193.56C195.305 196.333 191.651 197.72 187.198 197.72C182.798 197.72 179.171 196.333 176.318 193.56C173.465 190.76 172.038 187.16 172.038 182.76ZM177.518 182.76C177.518 185.8 178.425 188.307 180.238 190.28C182.051 192.227 184.385 193.2 187.238 193.2C190.118 193.2 192.465 192.227 194.278 190.28C196.091 188.307 196.998 185.8 196.998 182.76C196.998 179.8 196.091 177.333 194.278 175.36C192.491 173.387 190.145 172.4 187.238 172.4C184.358 172.4 182.011 173.387 180.198 175.36C178.411 177.333 177.518 179.8 177.518 182.76ZM212.852 197V173.08H204.172V168.68H226.572V173.08H217.892V197H212.852ZM230.867 197V168.68H253.947V197H248.907V173.08H235.907V197H230.867ZM261.203 197V168.68H270.443C277.563 168.68 281.123 171.413 281.123 176.88C281.123 179.813 280.109 181.947 278.083 183.28C276.056 184.613 273.403 185.28 270.123 185.28H266.243V197H261.203ZM266.243 181.04H269.763C273.949 181.04 276.043 179.653 276.043 176.88C276.043 175.36 275.483 174.32 274.363 173.76C273.269 173.2 271.789 172.92 269.923 172.92H266.243V181.04ZM280.794 197L293.114 168.68H297.474L309.674 197H303.914L301.274 190.52H288.994L286.434 197H280.794ZM290.714 186.2H299.514L295.154 174.68L290.714 186.2ZM313.476 197V168.68H324.516C326.916 168.68 328.956 169.267 330.636 170.44C332.343 171.613 333.196 173.4 333.196 175.8C333.196 177.347 332.756 178.653 331.876 179.72C330.996 180.787 329.796 181.547 328.276 182V182.08C330.116 182.32 331.596 183.027 332.716 184.2C333.836 185.373 334.396 186.893 334.396 188.76C334.396 190.227 334.089 191.52 333.476 192.64C332.889 193.733 332.076 194.587 331.036 195.2C329.996 195.813 328.863 196.267 327.636 196.56C326.409 196.853 325.089 197 323.676 197H313.476ZM318.516 172.84V180.2H322.996C324.676 180.2 325.956 179.867 326.836 179.2C327.716 178.533 328.156 177.587 328.156 176.36C328.156 175.107 327.703 174.213 326.796 173.68C325.889 173.12 324.476 172.84 322.556 172.84H318.516ZM318.516 184.52V192.76H323.036C327.249 192.76 329.356 191.347 329.356 188.52C329.356 187.08 328.863 186.053 327.876 185.44C326.889 184.827 325.343 184.52 323.236 184.52H318.516ZM340.374 197V168.68H345.414V179.92H349.614C352.814 179.92 355.388 180.627 357.334 182.04C359.308 183.453 360.294 185.587 360.294 188.44C360.294 191.267 359.308 193.4 357.334 194.84C355.388 196.28 352.841 197 349.694 197H340.374ZM345.414 192.76H349.214C353.214 192.76 355.214 191.333 355.214 188.48C355.214 187.067 354.694 186 353.654 185.28C352.614 184.533 351.134 184.16 349.214 184.16H345.414V192.76Z"/>
<path d="M388.468 197.72V194.28C384.654 194.227 381.508 193.12 379.028 190.96C376.548 188.773 375.308 185.92 375.308 182.4C375.308 178.667 376.481 175.787 378.828 173.76C381.201 171.733 384.414 170.653 388.468 170.52V167.96H393.668V170.52C397.721 170.653 400.921 171.733 403.268 173.76C405.641 175.787 406.828 178.667 406.828 182.4C406.828 185.92 405.588 188.773 403.108 190.96C400.628 193.12 397.481 194.227 393.668 194.28V197.72H388.468ZM388.468 189.84V174.92C385.881 175.107 383.948 175.867 382.668 177.2C381.388 178.533 380.748 180.28 380.748 182.44C380.748 186.867 383.321 189.333 388.468 189.84ZM393.668 189.84C398.814 189.333 401.388 186.867 401.388 182.44C401.388 180.28 400.748 178.533 399.468 177.2C398.188 175.867 396.254 175.107 393.668 174.92V189.84ZM411.194 182.76C411.194 178.28 412.607 174.693 415.434 172C418.287 169.307 421.927 167.96 426.354 167.96C430.834 167.96 434.501 169.307 437.354 172C440.207 174.693 441.634 178.28 441.634 182.76C441.634 187.16 440.194 190.76 437.314 193.56C434.461 196.333 430.807 197.72 426.354 197.72C421.954 197.72 418.327 196.333 415.474 193.56C412.621 190.76 411.194 187.16 411.194 182.76ZM416.674 182.76C416.674 185.8 417.581 188.307 419.394 190.28C421.207 192.227 423.541 193.2 426.394 193.2C429.274 193.2 431.621 192.227 433.434 190.28C435.247 188.307 436.154 185.8 436.154 182.76C436.154 179.8 435.247 177.333 433.434 175.36C431.647 173.387 429.301 172.4 426.394 172.4C423.514 172.4 421.167 173.387 419.354 175.36C417.567 177.333 416.674 179.8 416.674 182.76ZM452.009 197V173.08H443.329V168.68H465.729V173.08H457.049V197H452.009ZM467.452 182.76C467.452 178.28 468.865 174.693 471.692 172C474.545 169.307 478.185 167.96 482.612 167.96C487.092 167.96 490.759 169.307 493.612 172C496.465 174.693 497.892 178.28 497.892 182.76C497.892 187.16 496.452 190.76 493.572 193.56C490.719 196.333 487.065 197.72 482.612 197.72C478.212 197.72 474.585 196.333 471.732 193.56C468.879 190.76 467.452 187.16 467.452 182.76ZM472.932 182.76C472.932 185.8 473.839 188.307 475.652 190.28C477.465 192.227 479.799 193.2 482.652 193.2C485.532 193.2 487.879 192.227 489.692 190.28C491.505 188.307 492.412 185.8 492.412 182.76C492.412 179.8 491.505 177.333 489.692 175.36C487.905 173.387 485.559 172.4 482.652 172.4C479.772 172.4 477.425 173.387 475.612 175.36C473.825 177.333 472.932 179.8 472.932 182.76ZM180.127 228.28L176.287 231.32C175.594 230.36 174.647 229.64 173.447 229.16C172.274 228.653 171.074 228.4 169.847 228.4C166.967 228.4 164.607 229.387 162.767 231.36C160.954 233.333 160.047 235.8 160.047 238.76C160.047 241.853 160.914 244.373 162.647 246.32C164.407 248.24 166.74 249.2 169.647 249.2C172.634 249.2 174.927 248.107 176.527 245.92L180.567 248.76C177.927 252.067 174.274 253.72 169.607 253.72C165.18 253.72 161.554 252.333 158.727 249.56C155.9 246.76 154.487 243.16 154.487 238.76C154.487 234.307 155.927 230.733 158.807 228.04C161.714 225.32 165.394 223.96 169.847 223.96C171.82 223.96 173.754 224.333 175.647 225.08C177.567 225.8 179.06 226.867 180.127 228.28ZM191.2 253V229.08H182.52V224.68H204.92V229.08H196.24V253H191.2ZM212.403 253.4C211.016 253.4 209.816 253.28 208.803 253.04L209.443 248.56C210.216 248.8 211.003 248.92 211.803 248.92C212.843 248.92 213.67 248.667 214.283 248.16C214.923 247.653 215.55 246.8 216.163 245.6L217.043 243.92L206.163 224.68H212.003L219.883 239.24L227.323 224.68H232.963L221.203 246.48C219.923 248.88 218.67 250.64 217.443 251.76C216.243 252.853 214.563 253.4 212.403 253.4ZM231.756 259.44V248.52H234.156C237.036 245.24 238.476 239.72 238.476 231.96V224.68H258.276V248.52H261.436V259.44H256.916V253H236.276V259.44H231.756ZM239.836 248.52H253.236V229.08H243.356V232.48C243.356 239.787 242.183 245.133 239.836 248.52ZM266.449 253V224.68H285.209V229.08H271.489V236.28H284.489V240.52H271.489V248.52H285.929V253H266.449ZM291.863 253V224.68H296.903V236.12H310.143V224.68H315.183V253H310.143V240.44H296.903V253H291.863ZM337.833 253V241.92C335.726 242.507 333.58 242.8 331.393 242.8C328.22 242.8 325.873 242.16 324.353 240.88C322.833 239.573 322.073 237.547 322.073 234.8V224.68H327.113V233.64C327.113 235.293 327.526 236.507 328.353 237.28C329.18 238.053 330.526 238.44 332.393 238.44C334.766 238.44 336.58 238.187 337.833 237.68V224.68H342.873V253H337.833ZM350.113 253V224.68H368.873V229.08H355.153V236.28H368.153V240.52H355.153V248.52H369.593V253H350.113ZM399.807 228.28L395.967 231.32C395.273 230.36 394.327 229.64 393.127 229.16C391.953 228.653 390.753 228.4 389.527 228.4C386.647 228.4 384.287 229.387 382.447 231.36C380.633 233.333 379.727 235.8 379.727 238.76C379.727 241.853 380.593 244.373 382.327 246.32C384.087 248.24 386.42 249.2 389.327 249.2C392.313 249.2 394.607 248.107 396.207 245.92L400.247 248.76C397.607 252.067 393.953 253.72 389.287 253.72C384.86 253.72 381.233 252.333 378.407 249.56C375.58 246.76 374.167 243.16 374.167 238.76C374.167 234.307 375.607 230.733 378.487 228.04C381.393 225.32 385.073 223.96 389.527 223.96C391.5 223.96 393.433 224.333 395.327 225.08C397.247 225.8 398.74 226.867 399.807 228.28ZM404.378 253V224.68H409.418V236.92H409.538L421.378 224.68H428.178L414.938 237.76L429.058 253H421.978L409.538 238.8H409.418V253H404.378ZM429.995 238.76C429.995 234.28 431.408 230.693 434.235 228C437.088 225.307 440.728 223.96 445.155 223.96C449.635 223.96 453.302 225.307 456.155 228C459.008 230.693 460.435 234.28 460.435 238.76C460.435 243.16 458.995 246.76 456.115 249.56C453.262 252.333 449.608 253.72 445.155 253.72C440.755 253.72 437.128 252.333 434.275 249.56C431.422 246.76 429.995 243.16 429.995 238.76ZM435.475 238.76C435.475 241.8 436.382 244.307 438.195 246.28C440.008 248.227 442.342 249.2 445.195 249.2C448.075 249.2 450.422 248.227 452.235 246.28C454.048 244.307 454.955 241.8 454.955 238.76C454.955 235.8 454.048 233.333 452.235 231.36C450.448 229.387 448.102 228.4 445.195 228.4C442.315 228.4 439.968 229.387 438.155 231.36C436.368 233.333 435.475 235.8 435.475 238.76ZM466.3 253V224.68H483.3V229.08H471.34V253H466.3ZM485.003 238.76C485.003 234.28 486.416 230.693 489.243 228C492.096 225.307 495.736 223.96 500.163 223.96C504.643 223.96 508.309 225.307 511.163 228C514.016 230.693 515.443 234.28 515.443 238.76C515.443 243.16 514.003 246.76 511.123 249.56C508.269 252.333 504.616 253.72 500.163 253.72C495.763 253.72 492.136 252.333 489.283 249.56C486.429 246.76 485.003 243.16 485.003 238.76ZM490.483 238.76C490.483 241.8 491.389 244.307 493.203 246.28C495.016 248.227 497.349 249.2 500.203 249.2C503.083 249.2 505.429 248.227 507.243 246.28C509.056 244.307 509.963 241.8 509.963 238.76C509.963 235.8 509.056 233.333 507.243 231.36C505.456 229.387 503.109 228.4 500.203 228.4C497.323 228.4 494.976 229.387 493.163 231.36C491.376 233.333 490.483 235.8 490.483 238.76ZM256.39 309V280.68H274.95V284.92H261.43V292.2H266.43C269.577 292.2 272.11 292.893 274.03 294.28C275.95 295.667 276.91 297.773 276.91 300.6C276.91 303.373 275.95 305.467 274.03 306.88C272.11 308.293 269.59 309 266.47 309H256.39ZM261.43 304.76H265.91C269.857 304.76 271.83 303.373 271.83 300.6C271.83 299.24 271.31 298.213 270.27 297.52C269.257 296.8 267.803 296.44 265.91 296.44H261.43V304.76ZM282.859 309V280.68H287.899V301.4H288.019L301.299 280.68H306.739V309H301.699V288.44H301.619L288.379 309H282.859ZM314.496 309.28C313.136 309.28 312.016 309.147 311.136 308.88L311.656 304.44C312.216 304.627 312.789 304.72 313.376 304.72C315.376 304.72 316.816 303.547 317.696 301.2C318.603 298.853 319.056 294.707 319.056 288.76V280.68H338.536V309H333.496V285.08H323.896V289.44C323.896 296.4 323.163 301.453 321.696 304.6C320.256 307.72 317.856 309.28 314.496 309.28ZM345.757 309V280.68H364.517V285.08H350.797V292.28H363.797V296.52H350.797V304.52H365.237V309H345.757ZM376.891 309V285.08H368.211V280.68H390.611V285.08H381.931V309H376.891ZM389.083 309L401.403 280.68H405.763L417.963 309H412.203L409.563 302.52H397.283L394.723 309H389.083ZM399.003 298.2H407.803L403.443 286.68L399.003 298.2Z"/>
</mask>
<path d="M172.038 182.76C172.038 178.28 173.451 174.693 176.278 172C179.131 169.307 182.771 167.96 187.198 167.96C191.678 167.96 195.345 169.307 198.198 172C201.051 174.693 202.478 178.28 202.478 182.76C202.478 187.16 201.038 190.76 198.158 193.56C195.305 196.333 191.651 197.72 187.198 197.72C182.798 197.72 179.171 196.333 176.318 193.56C173.465 190.76 172.038 187.16 172.038 182.76ZM177.518 182.76C177.518 185.8 178.425 188.307 180.238 190.28C182.051 192.227 184.385 193.2 187.238 193.2C190.118 193.2 192.465 192.227 194.278 190.28C196.091 188.307 196.998 185.8 196.998 182.76C196.998 179.8 196.091 177.333 194.278 175.36C192.491 173.387 190.145 172.4 187.238 172.4C184.358 172.4 182.011 173.387 180.198 175.36C178.411 177.333 177.518 179.8 177.518 182.76ZM212.852 197V173.08H204.172V168.68H226.572V173.08H217.892V197H212.852ZM230.867 197V168.68H253.947V197H248.907V173.08H235.907V197H230.867ZM261.203 197V168.68H270.443C277.563 168.68 281.123 171.413 281.123 176.88C281.123 179.813 280.109 181.947 278.083 183.28C276.056 184.613 273.403 185.28 270.123 185.28H266.243V197H261.203ZM266.243 181.04H269.763C273.949 181.04 276.043 179.653 276.043 176.88C276.043 175.36 275.483 174.32 274.363 173.76C273.269 173.2 271.789 172.92 269.923 172.92H266.243V181.04ZM280.794 197L293.114 168.68H297.474L309.674 197H303.914L301.274 190.52H288.994L286.434 197H280.794ZM290.714 186.2H299.514L295.154 174.68L290.714 186.2ZM313.476 197V168.68H324.516C326.916 168.68 328.956 169.267 330.636 170.44C332.343 171.613 333.196 173.4 333.196 175.8C333.196 177.347 332.756 178.653 331.876 179.72C330.996 180.787 329.796 181.547 328.276 182V182.08C330.116 182.32 331.596 183.027 332.716 184.2C333.836 185.373 334.396 186.893 334.396 188.76C334.396 190.227 334.089 191.52 333.476 192.64C332.889 193.733 332.076 194.587 331.036 195.2C329.996 195.813 328.863 196.267 327.636 196.56C326.409 196.853 325.089 197 323.676 197H313.476ZM318.516 172.84V180.2H322.996C324.676 180.2 325.956 179.867 326.836 179.2C327.716 178.533 328.156 177.587 328.156 176.36C328.156 175.107 327.703 174.213 326.796 173.68C325.889 173.12 324.476 172.84 322.556 172.84H318.516ZM318.516 184.52V192.76H323.036C327.249 192.76 329.356 191.347 329.356 188.52C329.356 187.08 328.863 186.053 327.876 185.44C326.889 184.827 325.343 184.52 323.236 184.52H318.516ZM340.374 197V168.68H345.414V179.92H349.614C352.814 179.92 355.388 180.627 357.334 182.04C359.308 183.453 360.294 185.587 360.294 188.44C360.294 191.267 359.308 193.4 357.334 194.84C355.388 196.28 352.841 197 349.694 197H340.374ZM345.414 192.76H349.214C353.214 192.76 355.214 191.333 355.214 188.48C355.214 187.067 354.694 186 353.654 185.28C352.614 184.533 351.134 184.16 349.214 184.16H345.414V192.76Z" fill="#1A1A1A"/>
<path d="M388.468 197.72V194.28C384.654 194.227 381.508 193.12 379.028 190.96C376.548 188.773 375.308 185.92 375.308 182.4C375.308 178.667 376.481 175.787 378.828 173.76C381.201 171.733 384.414 170.653 388.468 170.52V167.96H393.668V170.52C397.721 170.653 400.921 171.733 403.268 173.76C405.641 175.787 406.828 178.667 406.828 182.4C406.828 185.92 405.588 188.773 403.108 190.96C400.628 193.12 397.481 194.227 393.668 194.28V197.72H388.468ZM388.468 189.84V174.92C385.881 175.107 383.948 175.867 382.668 177.2C381.388 178.533 380.748 180.28 380.748 182.44C380.748 186.867 383.321 189.333 388.468 189.84ZM393.668 189.84C398.814 189.333 401.388 186.867 401.388 182.44C401.388 180.28 400.748 178.533 399.468 177.2C398.188 175.867 396.254 175.107 393.668 174.92V189.84ZM411.194 182.76C411.194 178.28 412.607 174.693 415.434 172C418.287 169.307 421.927 167.96 426.354 167.96C430.834 167.96 434.501 169.307 437.354 172C440.207 174.693 441.634 178.28 441.634 182.76C441.634 187.16 440.194 190.76 437.314 193.56C434.461 196.333 430.807 197.72 426.354 197.72C421.954 197.72 418.327 196.333 415.474 193.56C412.621 190.76 411.194 187.16 411.194 182.76ZM416.674 182.76C416.674 185.8 417.581 188.307 419.394 190.28C421.207 192.227 423.541 193.2 426.394 193.2C429.274 193.2 431.621 192.227 433.434 190.28C435.247 188.307 436.154 185.8 436.154 182.76C436.154 179.8 435.247 177.333 433.434 175.36C431.647 173.387 429.301 172.4 426.394 172.4C423.514 172.4 421.167 173.387 419.354 175.36C417.567 177.333 416.674 179.8 416.674 182.76ZM452.009 197V173.08H443.329V168.68H465.729V173.08H457.049V197H452.009ZM467.452 182.76C467.452 178.28 468.865 174.693 471.692 172C474.545 169.307 478.185 167.96 482.612 167.96C487.092 167.96 490.759 169.307 493.612 172C496.465 174.693 497.892 178.28 497.892 182.76C497.892 187.16 496.452 190.76 493.572 193.56C490.719 196.333 487.065 197.72 482.612 197.72C478.212 197.72 474.585 196.333 471.732 193.56C468.879 190.76 467.452 187.16 467.452 182.76ZM472.932 182.76C472.932 185.8 473.839 188.307 475.652 190.28C477.465 192.227 479.799 193.2 482.652 193.2C485.532 193.2 487.879 192.227 489.692 190.28C491.505 188.307 492.412 185.8 492.412 182.76C492.412 179.8 491.505 177.333 489.692 175.36C487.905 173.387 485.559 172.4 482.652 172.4C479.772 172.4 477.425 173.387 475.612 175.36C473.825 177.333 472.932 179.8 472.932 182.76ZM180.127 228.28L176.287 231.32C175.594 230.36 174.647 229.64 173.447 229.16C172.274 228.653 171.074 228.4 169.847 228.4C166.967 228.4 164.607 229.387 162.767 231.36C160.954 233.333 160.047 235.8 160.047 238.76C160.047 241.853 160.914 244.373 162.647 246.32C164.407 248.24 166.74 249.2 169.647 249.2C172.634 249.2 174.927 248.107 176.527 245.92L180.567 248.76C177.927 252.067 174.274 253.72 169.607 253.72C165.18 253.72 161.554 252.333 158.727 249.56C155.9 246.76 154.487 243.16 154.487 238.76C154.487 234.307 155.927 230.733 158.807 228.04C161.714 225.32 165.394 223.96 169.847 223.96C171.82 223.96 173.754 224.333 175.647 225.08C177.567 225.8 179.06 226.867 180.127 228.28ZM191.2 253V229.08H182.52V224.68H204.92V229.08H196.24V253H191.2ZM212.403 253.4C211.016 253.4 209.816 253.28 208.803 253.04L209.443 248.56C210.216 248.8 211.003 248.92 211.803 248.92C212.843 248.92 213.67 248.667 214.283 248.16C214.923 247.653 215.55 246.8 216.163 245.6L217.043 243.92L206.163 224.68H212.003L219.883 239.24L227.323 224.68H232.963L221.203 246.48C219.923 248.88 218.67 250.64 217.443 251.76C216.243 252.853 214.563 253.4 212.403 253.4ZM231.756 259.44V248.52H234.156C237.036 245.24 238.476 239.72 238.476 231.96V224.68H258.276V248.52H261.436V259.44H256.916V253H236.276V259.44H231.756ZM239.836 248.52H253.236V229.08H243.356V232.48C243.356 239.787 242.183 245.133 239.836 248.52ZM266.449 253V224.68H285.209V229.08H271.489V236.28H284.489V240.52H271.489V248.52H285.929V253H266.449ZM291.863 253V224.68H296.903V236.12H310.143V224.68H315.183V253H310.143V240.44H296.903V253H291.863ZM337.833 253V241.92C335.726 242.507 333.58 242.8 331.393 242.8C328.22 242.8 325.873 242.16 324.353 240.88C322.833 239.573 322.073 237.547 322.073 234.8V224.68H327.113V233.64C327.113 235.293 327.526 236.507 328.353 237.28C329.18 238.053 330.526 238.44 332.393 238.44C334.766 238.44 336.58 238.187 337.833 237.68V224.68H342.873V253H337.833ZM350.113 253V224.68H368.873V229.08H355.153V236.28H368.153V240.52H355.153V248.52H369.593V253H350.113ZM399.807 228.28L395.967 231.32C395.273 230.36 394.327 229.64 393.127 229.16C391.953 228.653 390.753 228.4 389.527 228.4C386.647 228.4 384.287 229.387 382.447 231.36C380.633 233.333 379.727 235.8 379.727 238.76C379.727 241.853 380.593 244.373 382.327 246.32C384.087 248.24 386.42 249.2 389.327 249.2C392.313 249.2 394.607 248.107 396.207 245.92L400.247 248.76C397.607 252.067 393.953 253.72 389.287 253.72C384.86 253.72 381.233 252.333 378.407 249.56C375.58 246.76 374.167 243.16 374.167 238.76C374.167 234.307 375.607 230.733 378.487 228.04C381.393 225.32 385.073 223.96 389.527 223.96C391.5 223.96 393.433 224.333 395.327 225.08C397.247 225.8 398.74 226.867 399.807 228.28ZM404.378 253V224.68H409.418V236.92H409.538L421.378 224.68H428.178L414.938 237.76L429.058 253H421.978L409.538 238.8H409.418V253H404.378ZM429.995 238.76C429.995 234.28 431.408 230.693 434.235 228C437.088 225.307 440.728 223.96 445.155 223.96C449.635 223.96 453.302 225.307 456.155 228C459.008 230.693 460.435 234.28 460.435 238.76C460.435 243.16 458.995 246.76 456.115 249.56C453.262 252.333 449.608 253.72 445.155 253.72C440.755 253.72 437.128 252.333 434.275 249.56C431.422 246.76 429.995 243.16 429.995 238.76ZM435.475 238.76C435.475 241.8 436.382 244.307 438.195 246.28C440.008 248.227 442.342 249.2 445.195 249.2C448.075 249.2 450.422 248.227 452.235 246.28C454.048 244.307 454.955 241.8 454.955 238.76C454.955 235.8 454.048 233.333 452.235 231.36C450.448 229.387 448.102 228.4 445.195 228.4C442.315 228.4 439.968 229.387 438.155 231.36C436.368 233.333 435.475 235.8 435.475 238.76ZM466.3 253V224.68H483.3V229.08H471.34V253H466.3ZM485.003 238.76C485.003 234.28 486.416 230.693 489.243 228C492.096 225.307 495.736 223.96 500.163 223.96C504.643 223.96 508.309 225.307 511.163 228C514.016 230.693 515.443 234.28 515.443 238.76C515.443 243.16 514.003 246.76 511.123 249.56C508.269 252.333 504.616 253.72 500.163 253.72C495.763 253.72 492.136 252.333 489.283 249.56C486.429 246.76 485.003 243.16 485.003 238.76ZM490.483 238.76C490.483 241.8 491.389 244.307 493.203 246.28C495.016 248.227 497.349 249.2 500.203 249.2C503.083 249.2 505.429 248.227 507.243 246.28C509.056 244.307 509.963 241.8 509.963 238.76C509.963 235.8 509.056 233.333 507.243 231.36C505.456 229.387 503.109 228.4 500.203 228.4C497.323 228.4 494.976 229.387 493.163 231.36C491.376 233.333 490.483 235.8 490.483 238.76ZM256.39 309V280.68H274.95V284.92H261.43V292.2H266.43C269.577 292.2 272.11 292.893 274.03 294.28C275.95 295.667 276.91 297.773 276.91 300.6C276.91 303.373 275.95 305.467 274.03 306.88C272.11 308.293 269.59 309 266.47 309H256.39ZM261.43 304.76H265.91C269.857 304.76 271.83 303.373 271.83 300.6C271.83 299.24 271.31 298.213 270.27 297.52C269.257 296.8 267.803 296.44 265.91 296.44H261.43V304.76ZM282.859 309V280.68H287.899V301.4H288.019L301.299 280.68H306.739V309H301.699V288.44H301.619L288.379 309H282.859ZM314.496 309.28C313.136 309.28 312.016 309.147 311.136 308.88L311.656 304.44C312.216 304.627 312.789 304.72 313.376 304.72C315.376 304.72 316.816 303.547 317.696 301.2C318.603 298.853 319.056 294.707 319.056 288.76V280.68H338.536V309H333.496V285.08H323.896V289.44C323.896 296.4 323.163 301.453 321.696 304.6C320.256 307.72 317.856 309.28 314.496 309.28ZM345.757 309V280.68H364.517V285.08H350.797V292.28H363.797V296.52H350.797V304.52H365.237V309H345.757ZM376.891 309V285.08H368.211V280.68H390.611V285.08H381.931V309H376.891ZM389.083 309L401.403 280.68H405.763L417.963 309H412.203L409.563 302.52H397.283L394.723 309H389.083ZM399.003 298.2H407.803L403.443 286.68L399.003 298.2Z" fill="#DDFF53"/>
<path d="M176.278 172L175.591 171.273L175.588 171.276L176.278 172ZM198.198 172L197.511 172.727L198.198 172ZM198.158 193.56L198.855 194.277L198.855 194.277L198.158 193.56ZM176.318 193.56L175.617 194.274L175.621 194.277L176.318 193.56ZM180.238 190.28L179.502 190.957L179.506 190.962L180.238 190.28ZM194.278 190.28L195.01 190.962L195.014 190.957L194.278 190.28ZM194.278 175.36L193.537 176.031L193.542 176.037L194.278 175.36ZM180.198 175.36L179.462 174.683L179.457 174.689L180.198 175.36ZM173.038 182.76C173.038 178.509 174.369 175.2 176.968 172.724L175.588 171.276C172.533 174.187 171.038 178.051 171.038 182.76H173.038ZM176.964 172.727C179.608 170.232 182.991 168.96 187.198 168.96V166.96C182.551 166.96 178.655 168.381 175.591 171.273L176.964 172.727ZM187.198 168.96C191.462 168.96 194.87 170.234 197.511 172.727L198.884 171.273C195.819 168.379 191.894 166.96 187.198 166.96V168.96ZM197.511 172.727C200.136 175.204 201.478 178.512 201.478 182.76H203.478C203.478 178.048 201.967 174.183 198.884 171.273L197.511 172.727ZM201.478 182.76C201.478 186.918 200.128 190.25 197.461 192.843L198.855 194.277C201.948 191.27 203.478 187.402 203.478 182.76H201.478ZM197.461 192.843C194.817 195.413 191.425 196.72 187.198 196.72V198.72C191.878 198.72 195.792 197.254 198.855 194.277L197.461 192.843ZM187.198 196.72C183.028 196.72 179.661 195.415 177.015 192.843L175.621 194.277C178.681 197.252 182.568 198.72 187.198 198.72V196.72ZM177.018 192.846C174.377 190.254 173.038 186.921 173.038 182.76H171.038C171.038 187.399 172.552 191.266 175.617 194.274L177.018 192.846ZM176.518 182.76C176.518 186.014 177.496 188.774 179.502 190.957L180.974 189.603C179.353 187.84 178.518 185.586 178.518 182.76H176.518ZM179.506 190.962C181.523 193.127 184.13 194.2 187.238 194.2V192.2C184.64 192.2 182.579 191.326 180.97 189.598L179.506 190.962ZM187.238 194.2C190.37 194.2 192.99 193.129 195.01 190.962L193.546 189.598C191.939 191.324 189.866 192.2 187.238 192.2V194.2ZM195.014 190.957C197.02 188.774 197.998 186.014 197.998 182.76H195.998C195.998 185.586 195.162 187.84 193.542 189.603L195.014 190.957ZM197.998 182.76C197.998 179.578 197.015 176.861 195.014 174.683L193.542 176.037C195.167 177.806 195.998 180.022 195.998 182.76H197.998ZM195.019 174.689C193.024 172.486 190.398 171.4 187.238 171.4V173.4C189.891 173.4 191.958 174.288 193.537 176.031L195.019 174.689ZM187.238 171.4C184.101 171.4 181.48 172.487 179.462 174.683L180.934 176.037C182.543 174.286 184.614 173.4 187.238 173.4V171.4ZM179.457 174.689C177.484 176.867 176.518 179.582 176.518 182.76H178.518C178.518 180.018 179.338 177.8 180.939 176.031L179.457 174.689ZM212.852 197H211.852V198H212.852V197ZM212.852 173.08H213.852V172.08H212.852V173.08ZM204.172 173.08H203.172V174.08H204.172V173.08ZM204.172 168.68V167.68H203.172V168.68H204.172ZM226.572 168.68H227.572V167.68H226.572V168.68ZM226.572 173.08V174.08H227.572V173.08H226.572ZM217.892 173.08V172.08H216.892V173.08H217.892ZM217.892 197V198H218.892V197H217.892ZM213.852 197V173.08H211.852V197H213.852ZM212.852 172.08H204.172V174.08H212.852V172.08ZM205.172 173.08V168.68H203.172V173.08H205.172ZM204.172 169.68H226.572V167.68H204.172V169.68ZM225.572 168.68V173.08H227.572V168.68H225.572ZM226.572 172.08H217.892V174.08H226.572V172.08ZM216.892 173.08V197H218.892V173.08H216.892ZM217.892 196H212.852V198H217.892V196ZM230.867 197H229.867V198H230.867V197ZM230.867 168.68V167.68H229.867V168.68H230.867ZM253.947 168.68H254.947V167.68H253.947V168.68ZM253.947 197V198H254.947V197H253.947ZM248.907 197H247.907V198H248.907V197ZM248.907 173.08H249.907V172.08H248.907V173.08ZM235.907 173.08V172.08H234.907V173.08H235.907ZM235.907 197V198H236.907V197H235.907ZM231.867 197V168.68H229.867V197H231.867ZM230.867 169.68H253.947V167.68H230.867V169.68ZM252.947 168.68V197H254.947V168.68H252.947ZM253.947 196H248.907V198H253.947V196ZM249.907 197V173.08H247.907V197H249.907ZM248.907 172.08H235.907V174.08H248.907V172.08ZM234.907 173.08V197H236.907V173.08H234.907ZM235.907 196H230.867V198H235.907V196ZM261.203 197H260.203V198H261.203V197ZM261.203 168.68V167.68H260.203V168.68H261.203ZM278.083 183.28L277.533 182.445L278.083 183.28ZM266.243 185.28V184.28H265.243V185.28H266.243ZM266.243 197V198H267.243V197H266.243ZM266.243 181.04H265.243V182.04H266.243V181.04ZM274.363 173.76L273.907 174.65L273.915 174.654L274.363 173.76ZM266.243 172.92V171.92H265.243V172.92H266.243ZM262.203 197V168.68H260.203V197H262.203ZM261.203 169.68H270.443V167.68H261.203V169.68ZM270.443 169.68C273.903 169.68 276.314 170.349 277.844 171.523C279.323 172.659 280.123 174.382 280.123 176.88H282.123C282.123 173.911 281.142 171.534 279.062 169.937C277.031 168.378 274.102 167.68 270.443 167.68V169.68ZM280.123 176.88C280.123 179.558 279.217 181.337 277.533 182.445L278.632 184.115C281.001 182.557 282.123 180.069 282.123 176.88H280.123ZM277.533 182.445C275.718 183.639 273.274 184.28 270.123 184.28V186.28C273.531 186.28 276.394 185.588 278.632 184.115L277.533 182.445ZM270.123 184.28H266.243V186.28H270.123V184.28ZM265.243 185.28V197H267.243V185.28H265.243ZM266.243 196H261.203V198H266.243V196ZM266.243 182.04H269.763V180.04H266.243V182.04ZM269.763 182.04C271.935 182.04 273.738 181.686 275.025 180.834C276.384 179.933 277.043 178.561 277.043 176.88H275.043C275.043 177.973 274.655 178.68 273.92 179.166C273.114 179.701 271.777 180.04 269.763 180.04V182.04ZM277.043 176.88C277.043 176.001 276.881 175.187 276.503 174.486C276.119 173.773 275.542 173.232 274.81 172.866L273.915 174.654C274.303 174.848 274.566 175.107 274.742 175.434C274.924 175.773 275.043 176.239 275.043 176.88H277.043ZM274.818 172.87C273.53 172.21 271.873 171.92 269.923 171.92V173.92C271.706 173.92 273.009 174.19 273.907 174.65L274.818 172.87ZM269.923 171.92H266.243V173.92H269.923V171.92ZM265.243 172.92V181.04H267.243V172.92H265.243ZM280.794 197L279.877 196.601L279.268 198H280.794V197ZM293.114 168.68V167.68H292.458L292.197 168.281L293.114 168.68ZM297.474 168.68L298.392 168.284L298.132 167.68H297.474V168.68ZM309.674 197V198H311.193L310.592 196.604L309.674 197ZM303.914 197L302.988 197.377L303.241 198H303.914V197ZM301.274 190.52L302.2 190.143L301.946 189.52H301.274V190.52ZM288.994 190.52V189.52H288.314L288.064 190.153L288.994 190.52ZM286.434 197V198H287.114L287.364 197.367L286.434 197ZM290.714 186.2L289.781 185.84L289.257 187.2H290.714V186.2ZM299.514 186.2V187.2H300.962L300.449 185.846L299.514 186.2ZM295.154 174.68L296.089 174.326L295.162 171.877L294.221 174.32L295.154 174.68ZM281.711 197.399L294.031 169.079L292.197 168.281L279.877 196.601L281.711 197.399ZM293.114 169.68H297.474V167.68H293.114V169.68ZM296.555 169.076L308.755 197.396L310.592 196.604L298.392 168.284L296.555 169.076ZM309.674 196H303.914V198H309.674V196ZM304.84 196.623L302.2 190.143L300.348 190.897L302.988 197.377L304.84 196.623ZM301.274 189.52H288.994V191.52H301.274V189.52ZM288.064 190.153L285.504 196.633L287.364 197.367L289.924 190.887L288.064 190.153ZM286.434 196H280.794V198H286.434V196ZM290.714 187.2H299.514V185.2H290.714V187.2ZM300.449 185.846L296.089 174.326L294.219 175.034L298.579 186.554L300.449 185.846ZM294.221 174.32L289.781 185.84L291.647 186.56L296.087 175.04L294.221 174.32ZM313.476 197H312.476V198H313.476V197ZM313.476 168.68V167.68H312.476V168.68H313.476ZM330.636 170.44L330.063 171.26L330.069 171.264L330.636 170.44ZM331.876 179.72L332.647 180.356L331.876 179.72ZM328.276 182L327.99 181.042L327.276 181.255V182H328.276ZM328.276 182.08H327.276V182.958L328.147 183.072L328.276 182.08ZM333.476 192.64L332.599 192.16L332.595 192.167L333.476 192.64ZM331.036 195.2L330.528 194.339L331.036 195.2ZM318.516 172.84V171.84H317.516V172.84H318.516ZM318.516 180.2H317.516V181.2H318.516V180.2ZM326.836 179.2L327.44 179.997L326.836 179.2ZM326.796 173.68L326.271 174.531L326.28 174.536L326.289 174.542L326.796 173.68ZM318.516 184.52V183.52H317.516V184.52H318.516ZM318.516 192.76H317.516V193.76H318.516V192.76ZM314.476 197V168.68H312.476V197H314.476ZM313.476 169.68H324.516V167.68H313.476V169.68ZM324.516 169.68C326.747 169.68 328.579 170.223 330.063 171.26L331.209 169.62C329.333 168.31 327.085 167.68 324.516 167.68V169.68ZM330.069 171.264C331.459 172.219 332.196 173.669 332.196 175.8H334.196C334.196 173.131 333.227 171.008 331.203 169.616L330.069 171.264ZM332.196 175.8C332.196 177.144 331.819 178.217 331.105 179.084L332.647 180.356C333.693 179.089 334.196 177.55 334.196 175.8H332.196ZM331.105 179.084C330.369 179.976 329.349 180.637 327.99 181.042L328.562 182.958C330.243 182.457 331.623 181.598 332.647 180.356L331.105 179.084ZM327.276 182V182.08H329.276V182H327.276ZM328.147 183.072C329.794 183.287 331.053 183.906 331.993 184.89L333.439 183.51C332.139 182.147 330.438 181.353 328.405 181.088L328.147 183.072ZM331.993 184.89C332.908 185.85 333.396 187.109 333.396 188.76H335.396C335.396 186.678 334.764 184.897 333.439 183.51L331.993 184.89ZM333.396 188.76C333.396 190.084 333.12 191.208 332.599 192.16L334.353 193.12C335.058 191.832 335.396 190.369 335.396 188.76H333.396ZM332.595 192.167C332.092 193.104 331.406 193.821 330.528 194.339L331.544 196.061C332.746 195.352 333.687 194.363 334.357 193.113L332.595 192.167ZM330.528 194.339C329.578 194.899 328.538 195.316 327.403 195.587L327.869 197.533C329.188 197.217 330.414 196.727 331.544 196.061L330.528 194.339ZM327.403 195.587C326.261 195.861 325.02 196 323.676 196V198C325.158 198 326.557 197.846 327.869 197.533L327.403 195.587ZM323.676 196H313.476V198H323.676V196ZM317.516 172.84V180.2H319.516V172.84H317.516ZM318.516 181.2H322.996V179.2H318.516V181.2ZM322.996 181.2C324.786 181.2 326.316 180.848 327.44 179.997L326.232 178.403C325.596 178.885 324.566 179.2 322.996 179.2V181.2ZM327.44 179.997C328.6 179.118 329.156 177.86 329.156 176.36H327.156C327.156 177.314 326.832 177.948 326.232 178.403L327.44 179.997ZM329.156 176.36C329.156 174.832 328.578 173.568 327.303 172.818L326.289 174.542C326.827 174.858 327.156 175.381 327.156 176.36H329.156ZM327.322 172.829C326.175 172.121 324.533 171.84 322.556 171.84V173.84C324.419 173.84 325.604 174.119 326.271 174.531L327.322 172.829ZM322.556 171.84H318.516V173.84H322.556V171.84ZM317.516 184.52V192.76H319.516V184.52H317.516ZM318.516 193.76H323.036V191.76H318.516V193.76ZM323.036 193.76C325.223 193.76 327.039 193.399 328.333 192.53C329.698 191.614 330.356 190.222 330.356 188.52H328.356C328.356 189.645 327.96 190.372 327.219 190.87C326.407 191.414 325.062 191.76 323.036 191.76V193.76ZM330.356 188.52C330.356 186.83 329.757 185.432 328.404 184.591L327.348 186.289C327.968 186.675 328.356 187.33 328.356 188.52H330.356ZM328.404 184.591C327.176 183.827 325.399 183.52 323.236 183.52V185.52C325.287 185.52 326.603 185.826 327.348 186.289L328.404 184.591ZM323.236 183.52H318.516V185.52H323.236V183.52ZM340.374 197H339.374V198H340.374V197ZM340.374 168.68V167.68H339.374V168.68H340.374ZM345.414 168.68H346.414V167.68H345.414V168.68ZM345.414 179.92H344.414V180.92H345.414V179.92ZM357.334 182.04L356.747 182.849L356.752 182.853L357.334 182.04ZM357.334 194.84L356.745 194.032L356.74 194.036L357.334 194.84ZM345.414 192.76H344.414V193.76H345.414V192.76ZM353.654 185.28L353.071 186.092L353.078 186.097L353.085 186.102L353.654 185.28ZM345.414 184.16V183.16H344.414V184.16H345.414ZM341.374 197V168.68H339.374V197H341.374ZM340.374 169.68H345.414V167.68H340.374V169.68ZM344.414 168.68V179.92H346.414V168.68H344.414ZM345.414 180.92H349.614V178.92H345.414V180.92ZM349.614 180.92C352.672 180.92 355.02 181.595 356.747 182.849L357.922 181.231C355.756 179.658 352.956 178.92 349.614 178.92V180.92ZM356.752 182.853C358.415 184.044 359.294 185.845 359.294 188.44H361.294C361.294 185.329 360.201 182.863 357.917 181.227L356.752 182.853ZM359.294 188.44C359.294 191.005 358.417 192.812 356.745 194.032L357.924 195.648C360.198 193.988 361.294 191.529 361.294 188.44H359.294ZM356.74 194.036C355.01 195.315 352.691 196 349.694 196V198C352.991 198 355.765 197.245 357.929 195.644L356.74 194.036ZM349.694 196H340.374V198H349.694V196ZM345.414 193.76H349.214V191.76H345.414V193.76ZM349.214 193.76C351.303 193.76 353.049 193.393 354.295 192.504C355.603 191.571 356.214 190.17 356.214 188.48H354.214C354.214 189.643 353.825 190.382 353.134 190.876C352.38 191.414 351.126 191.76 349.214 191.76V193.76ZM356.214 188.48C356.214 186.783 355.568 185.389 354.224 184.458L353.085 186.102C353.821 186.611 354.214 187.35 354.214 188.48H356.214ZM354.238 184.468C352.962 183.552 351.245 183.16 349.214 183.16V185.16C351.024 185.16 352.267 185.515 353.071 186.092L354.238 184.468ZM349.214 183.16H345.414V185.16H349.214V183.16ZM344.414 184.16V192.76H346.414V184.16H344.414ZM388.468 197.72H387.468V198.72H388.468V197.72ZM388.468 194.28H389.468V193.294L388.482 193.28L388.468 194.28ZM379.028 190.96L378.366 191.71L378.371 191.714L379.028 190.96ZM378.828 173.76L378.178 173L378.174 173.003L378.828 173.76ZM388.468 170.52L388.5 171.519L389.468 171.488V170.52H388.468ZM388.468 167.96V166.96H387.468V167.96H388.468ZM393.668 167.96H394.668V166.96H393.668V167.96ZM393.668 170.52H392.668V171.488L393.635 171.519L393.668 170.52ZM403.268 173.76L402.614 174.517L402.618 174.52L403.268 173.76ZM403.108 190.96L403.764 191.714L403.769 191.71L403.108 190.96ZM393.668 194.28L393.654 193.28L392.668 193.294V194.28H393.668ZM393.668 197.72V198.72H394.668V197.72H393.668ZM388.468 189.84L388.37 190.835L389.468 190.943V189.84H388.468ZM388.468 174.92H389.468V173.845L388.396 173.923L388.468 174.92ZM382.668 177.2L381.946 176.507L382.668 177.2ZM393.668 189.84H392.668V190.943L393.766 190.835L393.668 189.84ZM399.468 177.2L400.189 176.507L399.468 177.2ZM393.668 174.92L393.74 173.923L392.668 173.845V174.92H393.668ZM389.468 197.72V194.28H387.468V197.72H389.468ZM388.482 193.28C384.865 193.23 381.958 192.186 379.684 190.206L378.371 191.714C381.057 194.054 384.444 195.224 388.454 195.28L388.482 193.28ZM379.689 190.21C377.439 188.227 376.308 185.654 376.308 182.4H374.308C374.308 186.186 375.656 189.32 378.366 191.71L379.689 190.21ZM376.308 182.4C376.308 178.892 377.399 176.315 379.481 174.517L378.174 173.003C375.563 175.258 374.308 178.441 374.308 182.4H376.308ZM379.477 174.52C381.632 172.68 384.605 171.648 388.5 171.519L388.435 169.521C384.223 169.659 380.77 170.787 378.178 173L379.477 174.52ZM389.468 170.52V167.96H387.468V170.52H389.468ZM388.468 168.96H393.668V166.96H388.468V168.96ZM392.668 167.96V170.52H394.668V167.96H392.668ZM393.635 171.519C397.53 171.648 400.487 172.68 402.614 174.517L403.921 173.003C401.354 170.786 397.911 169.659 393.7 169.521L393.635 171.519ZM402.618 174.52C404.725 176.32 405.828 178.896 405.828 182.4H407.828C407.828 178.437 406.557 175.254 403.917 173L402.618 174.52ZM405.828 182.4C405.828 185.654 404.696 188.227 402.446 190.21L403.769 191.71C406.479 189.32 407.828 186.186 407.828 182.4H405.828ZM402.451 190.206C400.177 192.186 397.27 193.23 393.654 193.28L393.682 195.28C397.692 195.224 401.078 194.054 403.764 191.714L402.451 190.206ZM392.668 194.28V197.72H394.668V194.28H392.668ZM393.668 196.72H388.468V198.72H393.668V196.72ZM389.468 189.84V174.92H387.468V189.84H389.468ZM388.396 173.923C385.662 174.12 383.456 174.935 381.946 176.507L383.389 177.893C384.439 176.798 386.1 176.093 388.54 175.917L388.396 173.923ZM381.946 176.507C380.457 178.058 379.748 180.069 379.748 182.44H381.748C381.748 180.491 382.318 179.008 383.389 177.893L381.946 176.507ZM379.748 182.44C379.748 184.856 380.457 186.866 381.986 188.332C383.493 189.777 385.671 190.569 388.37 190.835L388.566 188.845C386.118 188.604 384.436 187.91 383.37 186.888C382.325 185.887 381.748 184.451 381.748 182.44H379.748ZM393.766 190.835C396.465 190.569 398.642 189.777 400.15 188.332C401.679 186.866 402.388 184.856 402.388 182.44H400.388C400.388 184.451 399.81 185.887 398.766 186.888C397.699 187.91 396.017 188.604 393.57 188.845L393.766 190.835ZM402.388 182.44C402.388 180.069 401.678 178.058 400.189 176.507L398.746 177.893C399.818 179.008 400.388 180.491 400.388 182.44H402.388ZM400.189 176.507C398.679 174.935 396.474 174.12 393.74 173.923L393.596 175.917C396.035 176.093 397.696 176.798 398.746 177.893L400.189 176.507ZM392.668 174.92V189.84H394.668V174.92H392.668ZM415.434 172L414.748 171.273L414.744 171.276L415.434 172ZM437.354 172L436.668 172.727L437.354 172ZM437.314 193.56L438.011 194.277L438.011 194.277L437.314 193.56ZM415.474 193.56L414.774 194.274L414.777 194.277L415.474 193.56ZM419.394 190.28L418.658 190.957L418.662 190.962L419.394 190.28ZM433.434 190.28L434.166 190.962L434.17 190.957L433.434 190.28ZM433.434 175.36L432.693 176.031L432.698 176.037L433.434 175.36ZM419.354 175.36L418.618 174.683L418.613 174.689L419.354 175.36ZM412.194 182.76C412.194 178.509 413.525 175.2 416.124 172.724L414.744 171.276C411.69 174.187 410.194 178.051 410.194 182.76H412.194ZM416.121 172.727C418.764 170.232 422.147 168.96 426.354 168.96V166.96C421.708 166.96 417.811 168.381 414.748 171.273L416.121 172.727ZM426.354 168.96C430.618 168.96 434.027 170.234 436.668 172.727L438.041 171.273C434.975 168.379 431.05 166.96 426.354 166.96V168.96ZM436.668 172.727C439.292 175.204 440.634 178.512 440.634 182.76H442.634C442.634 178.048 441.123 174.183 438.041 171.273L436.668 172.727ZM440.634 182.76C440.634 186.918 439.284 190.25 436.617 192.843L438.011 194.277C441.104 191.27 442.634 187.402 442.634 182.76H440.634ZM436.617 192.843C433.973 195.413 430.581 196.72 426.354 196.72V198.72C431.034 198.72 434.948 197.254 438.011 194.277L436.617 192.843ZM426.354 196.72C422.184 196.72 418.817 195.415 416.171 192.843L414.777 194.277C417.838 197.252 421.724 198.72 426.354 198.72V196.72ZM416.175 192.846C413.533 190.254 412.194 186.921 412.194 182.76H410.194C410.194 187.399 411.709 191.266 414.774 194.274L416.175 192.846ZM415.674 182.76C415.674 186.014 416.652 188.774 418.658 190.957L420.13 189.603C418.51 187.84 417.674 185.586 417.674 182.76H415.674ZM418.662 190.962C420.68 193.127 423.286 194.2 426.394 194.2V192.2C423.796 192.2 421.735 191.326 420.126 189.598L418.662 190.962ZM426.394 194.2C429.526 194.2 432.147 193.129 434.166 190.962L432.702 189.598C431.095 191.324 429.022 192.2 426.394 192.2V194.2ZM434.17 190.957C436.176 188.774 437.154 186.014 437.154 182.76H435.154C435.154 185.586 434.319 187.84 432.698 189.603L434.17 190.957ZM437.154 182.76C437.154 179.578 436.172 176.861 434.17 174.683L432.698 176.037C434.323 177.806 435.154 180.022 435.154 182.76H437.154ZM434.175 174.689C432.181 172.486 429.554 171.4 426.394 171.4V173.4C429.047 173.4 431.114 174.288 432.693 176.031L434.175 174.689ZM426.394 171.4C423.258 171.4 420.636 172.487 418.618 174.683L420.09 176.037C421.699 174.286 423.771 173.4 426.394 173.4V171.4ZM418.613 174.689C416.641 176.867 415.674 179.582 415.674 182.76H417.674C417.674 180.018 418.494 177.8 420.095 176.031L418.613 174.689ZM452.009 197H451.009V198H452.009V197ZM452.009 173.08H453.009V172.08H452.009V173.08ZM443.329 173.08H442.329V174.08H443.329V173.08ZM443.329 168.68V167.68H442.329V168.68H443.329ZM465.729 168.68H466.729V167.68H465.729V168.68ZM465.729 173.08V174.08H466.729V173.08H465.729ZM457.049 173.08V172.08H456.049V173.08H457.049ZM457.049 197V198H458.049V197H457.049ZM453.009 197V173.08H451.009V197H453.009ZM452.009 172.08H443.329V174.08H452.009V172.08ZM444.329 173.08V168.68H442.329V173.08H444.329ZM443.329 169.68H465.729V167.68H443.329V169.68ZM464.729 168.68V173.08H466.729V168.68H464.729ZM465.729 172.08H457.049V174.08H465.729V172.08ZM456.049 173.08V197H458.049V173.08H456.049ZM457.049 196H452.009V198H457.049V196ZM471.692 172L471.006 171.273L471.002 171.276L471.692 172ZM493.612 172L492.926 172.727L493.612 172ZM493.572 193.56L494.269 194.277L494.269 194.277L493.572 193.56ZM471.732 193.56L471.032 194.274L471.035 194.277L471.732 193.56ZM475.652 190.28L474.916 190.957L474.92 190.962L475.652 190.28ZM489.692 190.28L490.424 190.962L490.428 190.957L489.692 190.28ZM489.692 175.36L488.951 176.031L488.956 176.037L489.692 175.36ZM475.612 175.36L474.876 174.683L474.871 174.689L475.612 175.36ZM468.452 182.76C468.452 178.509 469.783 175.2 472.382 172.724L471.002 171.276C467.948 174.187 466.452 178.051 466.452 182.76H468.452ZM472.378 172.727C475.022 170.232 478.405 168.96 482.612 168.96V166.96C477.965 166.96 474.069 168.381 471.006 171.273L472.378 172.727ZM482.612 168.96C486.876 168.96 490.284 170.234 492.926 172.727L494.298 171.273C491.233 168.379 487.308 166.96 482.612 166.96V168.96ZM492.926 172.727C495.55 175.204 496.892 178.512 496.892 182.76H498.892C498.892 178.048 497.381 174.183 494.298 171.273L492.926 172.727ZM496.892 182.76C496.892 186.918 495.542 190.25 492.875 192.843L494.269 194.277C497.362 191.27 498.892 187.402 498.892 182.76H496.892ZM492.875 192.843C490.231 195.413 486.839 196.72 482.612 196.72V198.72C487.292 198.72 491.206 197.254 494.269 194.277L492.875 192.843ZM482.612 196.72C478.442 196.72 475.075 195.415 472.429 192.843L471.035 194.277C474.095 197.252 477.982 198.72 482.612 198.72V196.72ZM472.432 192.846C469.791 190.254 468.452 186.921 468.452 182.76H466.452C466.452 187.399 467.966 191.266 471.032 194.274L472.432 192.846ZM471.932 182.76C471.932 186.014 472.91 188.774 474.916 190.957L476.388 189.603C474.768 187.84 473.932 185.586 473.932 182.76H471.932ZM474.92 190.962C476.938 193.127 479.544 194.2 482.652 194.2V192.2C480.054 192.2 477.993 191.326 476.384 189.598L474.92 190.962ZM482.652 194.2C485.784 194.2 488.404 193.129 490.424 190.962L488.96 189.598C487.353 191.324 485.28 192.2 482.652 192.2V194.2ZM490.428 190.957C492.434 188.774 493.412 186.014 493.412 182.76H491.412C491.412 185.586 490.576 187.84 488.956 189.603L490.428 190.957ZM493.412 182.76C493.412 179.578 492.429 176.861 490.428 174.683L488.956 176.037C490.581 177.806 491.412 180.022 491.412 182.76H493.412ZM490.433 174.689C488.438 172.486 485.812 171.4 482.652 171.4V173.4C485.305 173.4 487.372 174.288 488.951 176.031L490.433 174.689ZM482.652 171.4C479.516 171.4 476.894 172.487 474.876 174.683L476.348 176.037C477.957 174.286 480.028 173.4 482.652 173.4V171.4ZM474.871 174.689C472.898 176.867 471.932 179.582 471.932 182.76H473.932C473.932 180.018 474.752 177.8 476.353 176.031L474.871 174.689ZM180.127 228.28L180.748 229.064L181.514 228.458L180.925 227.678L180.127 228.28ZM176.287 231.32L175.476 231.905L176.088 232.753L176.908 232.104L176.287 231.32ZM173.447 229.16L173.051 230.078L173.063 230.083L173.076 230.088L173.447 229.16ZM162.767 231.36L162.036 230.678L162.031 230.683L162.767 231.36ZM162.647 246.32L161.9 246.985L161.905 246.99L161.91 246.996L162.647 246.32ZM176.527 245.92L177.102 245.102L176.299 244.538L175.72 245.329L176.527 245.92ZM180.567 248.76L181.349 249.384L182.012 248.553L181.142 247.942L180.567 248.76ZM158.727 249.56L158.023 250.27L158.027 250.274L158.727 249.56ZM158.807 228.04L159.49 228.77L159.49 228.77L158.807 228.04ZM175.647 225.08L175.28 226.01L175.288 226.013L175.296 226.016L175.647 225.08ZM179.506 227.496L175.666 230.536L176.908 232.104L180.748 229.064L179.506 227.496ZM177.098 230.735C176.283 229.607 175.178 228.775 173.818 228.232L173.076 230.088C174.116 230.505 174.904 231.113 175.476 231.905L177.098 230.735ZM173.844 228.242C172.55 227.684 171.216 227.4 169.847 227.4V229.4C170.932 229.4 171.997 229.623 173.051 230.078L173.844 228.242ZM169.847 227.4C166.711 227.4 164.079 228.487 162.036 230.678L163.498 232.042C165.136 230.286 167.223 229.4 169.847 229.4V227.4ZM162.031 230.683C160.03 232.861 159.047 235.578 159.047 238.76H161.047C161.047 236.022 161.878 233.806 163.503 232.037L162.031 230.683ZM159.047 238.76C159.047 242.05 159.974 244.822 161.9 246.985L163.394 245.655C161.853 243.925 161.047 241.656 161.047 238.76H159.047ZM161.91 246.996C163.882 249.148 166.496 250.2 169.647 250.2V248.2C166.985 248.2 164.932 247.332 163.384 245.644L161.91 246.996ZM169.647 250.2C172.915 250.2 175.525 248.984 177.334 246.511L175.72 245.329C174.33 247.23 172.353 248.2 169.647 248.2V250.2ZM175.952 246.738L179.992 249.578L181.142 247.942L177.102 245.102L175.952 246.738ZM179.786 248.136C177.357 251.179 174.005 252.72 169.607 252.72V254.72C174.542 254.72 178.498 252.955 181.349 249.384L179.786 248.136ZM169.607 252.72C165.409 252.72 162.044 251.414 159.427 248.846L158.027 250.274C161.063 253.253 164.952 254.72 169.607 254.72V252.72ZM159.431 248.85C156.815 246.258 155.487 242.924 155.487 238.76H153.487C153.487 243.396 154.986 247.262 158.023 250.27L159.431 248.85ZM155.487 238.76C155.487 234.544 156.839 231.249 159.49 228.77L158.124 227.31C155.015 230.217 153.487 234.069 153.487 238.76H155.487ZM159.49 228.77C162.189 226.245 165.615 224.96 169.847 224.96V222.96C165.173 222.96 161.238 224.395 158.124 227.31L159.49 228.77ZM169.847 224.96C171.691 224.96 173.5 225.308 175.28 226.01L176.014 224.15C174.008 223.358 171.95 222.96 169.847 222.96V224.96ZM175.296 226.016C177.067 226.68 178.394 227.643 179.329 228.882L180.925 227.678C179.727 226.09 178.067 224.92 175.998 224.144L175.296 226.016ZM191.2 253H190.2V254H191.2V253ZM191.2 229.08H192.2V228.08H191.2V229.08ZM182.52 229.08H181.52V230.08H182.52V229.08ZM182.52 224.68V223.68H181.52V224.68H182.52ZM204.92 224.68H205.92V223.68H204.92V224.68ZM204.92 229.08V230.08H205.92V229.08H204.92ZM196.24 229.08V228.08H195.24V229.08H196.24ZM196.24 253V254H197.24V253H196.24ZM192.2 253V229.08H190.2V253H192.2ZM191.2 228.08H182.52V230.08H191.2V228.08ZM183.52 229.08V224.68H181.52V229.08H183.52ZM182.52 225.68H204.92V223.68H182.52V225.68ZM203.92 224.68V229.08H205.92V224.68H203.92ZM204.92 228.08H196.24V230.08H204.92V228.08ZM195.24 229.08V253H197.24V229.08H195.24ZM196.24 252H191.2V254H196.24V252ZM208.803 253.04L207.813 252.899L207.684 253.803L208.573 254.013L208.803 253.04ZM209.443 248.56L209.739 247.605L208.619 247.257L208.453 248.419L209.443 248.56ZM214.283 248.16L213.662 247.376L213.654 247.382L213.646 247.389L214.283 248.16ZM216.163 245.6L215.277 245.136L215.273 245.145L216.163 245.6ZM217.043 243.92L217.929 244.384L218.182 243.902L217.913 243.428L217.043 243.92ZM206.163 224.68V223.68H204.449L205.293 225.172L206.163 224.68ZM212.003 224.68L212.882 224.204L212.599 223.68H212.003V224.68ZM219.883 239.24L219.004 239.716L219.908 241.388L220.774 239.695L219.883 239.24ZM227.323 224.68V223.68H226.711L226.433 224.225L227.323 224.68ZM232.963 224.68L233.843 225.155L234.639 223.68H232.963V224.68ZM221.203 246.48L220.323 246.005L220.321 246.009L221.203 246.48ZM217.443 251.76L218.117 252.499L218.117 252.498L217.443 251.76ZM212.403 252.4C211.07 252.4 209.951 252.284 209.034 252.067L208.573 254.013C209.682 254.276 210.963 254.4 212.403 254.4V252.4ZM209.793 253.181L210.433 248.701L208.453 248.419L207.813 252.899L209.793 253.181ZM209.147 249.515C210.015 249.784 210.901 249.92 211.803 249.92V247.92C211.105 247.92 210.418 247.816 209.739 247.605L209.147 249.515ZM211.803 249.92C213.003 249.92 214.079 249.626 214.92 248.931L213.646 247.389C213.261 247.707 212.683 247.92 211.803 247.92V249.92ZM214.904 248.944C215.706 248.309 216.412 247.31 217.053 246.055L215.273 245.145C214.687 246.29 214.14 246.998 213.662 247.376L214.904 248.944ZM217.049 246.064L217.929 244.384L216.157 243.456L215.277 245.136L217.049 246.064ZM217.913 243.428L207.033 224.188L205.293 225.172L216.173 244.412L217.913 243.428ZM206.163 225.68H212.003V223.68H206.163V225.68ZM211.124 225.156L219.004 239.716L220.762 238.764L212.882 224.204L211.124 225.156ZM220.774 239.695L228.214 225.135L226.433 224.225L218.993 238.785L220.774 239.695ZM227.323 225.68H232.963V223.68H227.323V225.68ZM232.083 224.205L220.323 246.005L222.083 246.955L233.843 225.155L232.083 224.205ZM220.321 246.009C219.065 248.365 217.875 250.012 216.769 251.022L218.117 252.498C219.465 251.268 220.781 249.395 222.085 246.951L220.321 246.009ZM216.77 251.021C215.808 251.897 214.398 252.4 212.403 252.4V254.4C214.728 254.4 216.678 253.809 218.117 252.499L216.77 251.021ZM231.756 259.44H230.756V260.44H231.756V259.44ZM231.756 248.52V247.52H230.756V248.52H231.756ZM234.156 248.52V249.52H234.609L234.907 249.18L234.156 248.52ZM238.476 224.68V223.68H237.476V224.68H238.476ZM258.276 224.68H259.276V223.68H258.276V224.68ZM258.276 248.52H257.276V249.52H258.276V248.52ZM261.436 248.52H262.436V247.52H261.436V248.52ZM261.436 259.44V260.44H262.436V259.44H261.436ZM256.916 259.44H255.916V260.44H256.916V259.44ZM256.916 253H257.916V252H256.916V253ZM236.276 253V252H235.276V253H236.276ZM236.276 259.44V260.44H237.276V259.44H236.276ZM239.836 248.52L239.014 247.95L237.926 249.52H239.836V248.52ZM253.236 248.52V249.52H254.236V248.52H253.236ZM253.236 229.08H254.236V228.08H253.236V229.08ZM243.356 229.08V228.08H242.356V229.08H243.356ZM232.756 259.44V248.52H230.756V259.44H232.756ZM231.756 249.52H234.156V247.52H231.756V249.52ZM234.907 249.18C238.032 245.621 239.476 239.792 239.476 231.96H237.476C237.476 239.648 236.039 244.859 233.404 247.86L234.907 249.18ZM239.476 231.96V224.68H237.476V231.96H239.476ZM238.476 225.68H258.276V223.68H238.476V225.68ZM257.276 224.68V248.52H259.276V224.68H257.276ZM258.276 249.52H261.436V247.52H258.276V249.52ZM260.436 248.52V259.44H262.436V248.52H260.436ZM261.436 258.44H256.916V260.44H261.436V258.44ZM257.916 259.44V253H255.916V259.44H257.916ZM256.916 252H236.276V254H256.916V252ZM235.276 253V259.44H237.276V253H235.276ZM236.276 258.44H231.756V260.44H236.276V258.44ZM239.836 249.52H253.236V247.52H239.836V249.52ZM254.236 248.52V229.08H252.236V248.52H254.236ZM253.236 228.08H243.356V230.08H253.236V228.08ZM242.356 229.08V232.48H244.356V229.08H242.356ZM242.356 232.48C242.356 239.721 241.185 244.817 239.014 247.95L240.658 249.09C243.18 245.45 244.356 239.852 244.356 232.48H242.356ZM266.449 253H265.449V254H266.449V253ZM266.449 224.68V223.68H265.449V224.68H266.449ZM285.209 224.68H286.209V223.68H285.209V224.68ZM285.209 229.08V230.08H286.209V229.08H285.209ZM271.489 229.08V228.08H270.489V229.08H271.489ZM271.489 236.28H270.489V237.28H271.489V236.28ZM284.489 236.28H285.489V235.28H284.489V236.28ZM284.489 240.52V241.52H285.489V240.52H284.489ZM271.489 240.52V239.52H270.489V240.52H271.489ZM271.489 248.52H270.489V249.52H271.489V248.52ZM285.929 248.52H286.929V247.52H285.929V248.52ZM285.929 253V254H286.929V253H285.929ZM267.449 253V224.68H265.449V253H267.449ZM266.449 225.68H285.209V223.68H266.449V225.68ZM284.209 224.68V229.08H286.209V224.68H284.209ZM285.209 228.08H271.489V230.08H285.209V228.08ZM270.489 229.08V236.28H272.489V229.08H270.489ZM271.489 237.28H284.489V235.28H271.489V237.28ZM283.489 236.28V240.52H285.489V236.28H283.489ZM284.489 239.52H271.489V241.52H284.489V239.52ZM270.489 240.52V248.52H272.489V240.52H270.489ZM271.489 249.52H285.929V247.52H271.489V249.52ZM284.929 248.52V253H286.929V248.52H284.929ZM285.929 252H266.449V254H285.929V252ZM291.863 253H290.863V254H291.863V253ZM291.863 224.68V223.68H290.863V224.68H291.863ZM296.903 224.68H297.903V223.68H296.903V224.68ZM296.903 236.12H295.903V237.12H296.903V236.12ZM310.143 236.12V237.12H311.143V236.12H310.143ZM310.143 224.68V223.68H309.143V224.68H310.143ZM315.183 224.68H316.183V223.68H315.183V224.68ZM315.183 253V254H316.183V253H315.183ZM310.143 253H309.143V254H310.143V253ZM310.143 240.44H311.143V239.44H310.143V240.44ZM296.903 240.44V239.44H295.903V240.44H296.903ZM296.903 253V254H297.903V253H296.903ZM292.863 253V224.68H290.863V253H292.863ZM291.863 225.68H296.903V223.68H291.863V225.68ZM295.903 224.68V236.12H297.903V224.68H295.903ZM296.903 237.12H310.143V235.12H296.903V237.12ZM311.143 236.12V224.68H309.143V236.12H311.143ZM310.143 225.68H315.183V223.68H310.143V225.68ZM314.183 224.68V253H316.183V224.68H314.183ZM315.183 252H310.143V254H315.183V252ZM311.143 253V240.44H309.143V253H311.143ZM310.143 239.44H296.903V241.44H310.143V239.44ZM295.903 240.44V253H297.903V240.44H295.903ZM296.903 252H291.863V254H296.903V252ZM337.833 253H336.833V254H337.833V253ZM337.833 241.92H338.833V240.603L337.565 240.957L337.833 241.92ZM324.353 240.88L323.701 241.638L323.709 241.645L324.353 240.88ZM322.073 224.68V223.68H321.073V224.68H322.073ZM327.113 224.68H328.113V223.68H327.113V224.68ZM328.353 237.28L327.67 238.01L328.353 237.28ZM337.833 237.68L338.208 238.607L338.833 238.354V237.68H337.833ZM337.833 224.68V223.68H336.833V224.68H337.833ZM342.873 224.68H343.873V223.68H342.873V224.68ZM342.873 253V254H343.873V253H342.873ZM338.833 253V241.92H336.833V253H338.833ZM337.565 240.957C335.545 241.519 333.489 241.8 331.393 241.8V243.8C333.67 243.8 335.907 243.494 338.101 242.883L337.565 240.957ZM331.393 241.8C328.323 241.8 326.257 241.176 324.997 240.115L323.709 241.645C325.49 243.144 328.116 243.8 331.393 243.8V241.8ZM325.005 240.122C323.779 239.068 323.073 237.368 323.073 234.8H321.073C321.073 237.725 321.887 240.079 323.701 241.638L325.005 240.122ZM323.073 234.8V224.68H321.073V234.8H323.073ZM322.073 225.68H327.113V223.68H322.073V225.68ZM326.113 224.68V233.64H328.113V224.68H326.113ZM326.113 233.64C326.113 235.441 326.563 236.975 327.67 238.01L329.036 236.55C328.49 236.038 328.113 235.145 328.113 233.64H326.113ZM327.67 238.01C328.77 239.04 330.428 239.44 332.393 239.44V237.44C330.625 237.44 329.589 237.067 329.036 236.55L327.67 238.01ZM332.393 239.44C334.813 239.44 336.778 239.185 338.208 238.607L337.458 236.753C336.382 237.188 334.72 237.44 332.393 237.44V239.44ZM338.833 237.68V224.68H336.833V237.68H338.833ZM337.833 225.68H342.873V223.68H337.833V225.68ZM341.873 224.68V253H343.873V224.68H341.873ZM342.873 252H337.833V254H342.873V252ZM350.113 253H349.113V254H350.113V253ZM350.113 224.68V223.68H349.113V224.68H350.113ZM368.873 224.68H369.873V223.68H368.873V224.68ZM368.873 229.08V230.08H369.873V229.08H368.873ZM355.153 229.08V228.08H354.153V229.08H355.153ZM355.153 236.28H354.153V237.28H355.153V236.28ZM368.153 236.28H369.153V235.28H368.153V236.28ZM368.153 240.52V241.52H369.153V240.52H368.153ZM355.153 240.52V239.52H354.153V240.52H355.153ZM355.153 248.52H354.153V249.52H355.153V248.52ZM369.593 248.52H370.593V247.52H369.593V248.52ZM369.593 253V254H370.593V253H369.593ZM351.113 253V224.68H349.113V253H351.113ZM350.113 225.68H368.873V223.68H350.113V225.68ZM367.873 224.68V229.08H369.873V224.68H367.873ZM368.873 228.08H355.153V230.08H368.873V228.08ZM354.153 229.08V236.28H356.153V229.08H354.153ZM355.153 237.28H368.153V235.28H355.153V237.28ZM367.153 236.28V240.52H369.153V236.28H367.153ZM368.153 239.52H355.153V241.52H368.153V239.52ZM354.153 240.52V248.52H356.153V240.52H354.153ZM355.153 249.52H369.593V247.52H355.153V249.52ZM368.593 248.52V253H370.593V248.52H368.593ZM369.593 252H350.113V254H369.593V252ZM399.807 228.28L400.427 229.064L401.194 228.458L400.605 227.678L399.807 228.28ZM395.967 231.32L395.156 231.905L395.768 232.753L396.587 232.104L395.967 231.32ZM393.127 229.16L392.73 230.078L392.743 230.083L392.755 230.088L393.127 229.16ZM382.447 231.36L381.715 230.678L381.71 230.683L382.447 231.36ZM382.327 246.32L381.58 246.985L381.585 246.99L381.59 246.996L382.327 246.32ZM396.207 245.92L396.782 245.102L395.979 244.538L395.4 245.329L396.207 245.92ZM400.247 248.76L401.028 249.384L401.691 248.553L400.822 247.942L400.247 248.76ZM378.407 249.56L377.703 250.27L377.706 250.274L378.407 249.56ZM378.487 228.04L379.17 228.77L379.17 228.77L378.487 228.04ZM395.327 225.08L394.96 226.01L394.968 226.013L394.976 226.016L395.327 225.08ZM399.186 227.496L395.346 230.536L396.587 232.104L400.427 229.064L399.186 227.496ZM396.777 230.735C395.963 229.607 394.857 228.775 393.498 228.232L392.755 230.088C393.796 230.505 394.584 231.113 395.156 231.905L396.777 230.735ZM393.523 228.242C392.23 227.684 390.896 227.4 389.527 227.4V229.4C390.611 229.4 391.677 229.623 392.73 230.078L393.523 228.242ZM389.527 227.4C386.39 227.4 383.758 228.487 381.715 230.678L383.178 232.042C384.815 230.286 386.903 229.4 389.527 229.4V227.4ZM381.71 230.683C379.709 232.861 378.727 235.578 378.727 238.76H380.727C380.727 236.022 381.558 233.806 383.183 232.037L381.71 230.683ZM378.727 238.76C378.727 242.05 379.654 244.822 381.58 246.985L383.074 245.655C381.533 243.925 380.727 241.656 380.727 238.76H378.727ZM381.59 246.996C383.562 249.148 386.176 250.2 389.327 250.2V248.2C386.664 248.2 384.611 247.332 383.064 245.644L381.59 246.996ZM389.327 250.2C392.595 250.2 395.204 248.984 397.014 246.511L395.4 245.329C394.009 247.23 392.032 248.2 389.327 248.2V250.2ZM395.632 246.738L399.672 249.578L400.822 247.942L396.782 245.102L395.632 246.738ZM399.465 248.136C397.036 251.179 393.685 252.72 389.287 252.72V254.72C394.222 254.72 398.177 252.955 401.028 249.384L399.465 248.136ZM389.287 252.72C385.088 252.72 381.724 251.414 379.107 248.846L377.706 250.274C380.743 253.253 384.632 254.72 389.287 254.72V252.72ZM379.111 248.85C376.494 246.258 375.167 242.924 375.167 238.76H373.167C373.167 243.396 374.666 247.262 377.703 250.27L379.111 248.85ZM375.167 238.76C375.167 234.544 376.519 231.249 379.17 228.77L377.804 227.31C374.694 230.217 373.167 234.069 373.167 238.76H375.167ZM379.17 228.77C381.869 226.245 385.295 224.96 389.527 224.96V222.96C384.852 222.96 380.918 224.395 377.803 227.31L379.17 228.77ZM389.527 224.96C391.371 224.96 393.18 225.308 394.96 226.01L395.694 224.15C393.687 223.358 391.63 222.96 389.527 222.96V224.96ZM394.976 226.016C396.747 226.68 398.073 227.643 399.009 228.882L400.605 227.678C399.407 226.09 397.747 224.92 395.678 224.144L394.976 226.016ZM404.378 253H403.378V254H404.378V253ZM404.378 224.68V223.68H403.378V224.68H404.378ZM409.418 224.68H410.418V223.68H409.418V224.68ZM409.418 236.92H408.418V237.92H409.418V236.92ZM409.538 236.92V237.92H409.962L410.257 237.615L409.538 236.92ZM421.378 224.68V223.68H420.954L420.66 223.985L421.378 224.68ZM428.178 224.68L428.881 225.391L430.613 223.68H428.178V224.68ZM414.938 237.76L414.236 237.049L413.547 237.729L414.205 238.44L414.938 237.76ZM429.058 253V254H431.348L429.792 252.32L429.058 253ZM421.978 253L421.226 253.659L421.525 254H421.978V253ZM409.538 238.8L410.291 238.141L409.992 237.8H409.538V238.8ZM409.418 238.8V237.8H408.418V238.8H409.418ZM409.418 253V254H410.418V253H409.418ZM405.378 253V224.68H403.378V253H405.378ZM404.378 225.68H409.418V223.68H404.378V225.68ZM408.418 224.68V236.92H410.418V224.68H408.418ZM409.418 237.92H409.538V235.92H409.418V237.92ZM410.257 237.615L422.097 225.375L420.66 223.985L408.82 236.225L410.257 237.615ZM421.378 225.68H428.178V223.68H421.378V225.68ZM427.476 223.969L414.236 237.049L415.641 238.471L428.881 225.391L427.476 223.969ZM414.205 238.44L428.325 253.68L429.792 252.32L415.672 237.08L414.205 238.44ZM429.058 252H421.978V254H429.058V252ZM422.731 252.341L410.291 238.141L408.786 239.459L421.226 253.659L422.731 252.341ZM409.538 237.8H409.418V239.8H409.538V237.8ZM408.418 238.8V253H410.418V238.8H408.418ZM409.418 252H404.378V254H409.418V252ZM434.235 228L433.548 227.273L433.545 227.276L434.235 228ZM456.155 228L455.469 228.727L456.155 228ZM456.115 249.56L456.812 250.277L456.812 250.277L456.115 249.56ZM434.275 249.56L433.575 250.274L433.578 250.277L434.275 249.56ZM438.195 246.28L437.459 246.957L437.463 246.962L438.195 246.28ZM452.235 246.28L452.967 246.962L452.971 246.957L452.235 246.28ZM452.235 231.36L451.494 232.031L451.499 232.037L452.235 231.36ZM438.155 231.36L437.419 230.683L437.414 230.689L438.155 231.36ZM430.995 238.76C430.995 234.509 432.326 231.2 434.925 228.724L433.545 227.276C430.491 230.187 428.995 234.051 428.995 238.76H430.995ZM434.921 228.727C437.565 226.232 440.948 224.96 445.155 224.96V222.96C440.508 222.96 436.612 224.381 433.548 227.273L434.921 228.727ZM445.155 224.96C449.419 224.96 452.827 226.234 455.469 228.727L456.841 227.273C453.776 224.379 449.851 222.96 445.155 222.96V224.96ZM455.469 228.727C458.093 231.204 459.435 234.512 459.435 238.76H461.435C461.435 234.048 459.924 230.183 456.841 227.273L455.469 228.727ZM459.435 238.76C459.435 242.918 458.085 246.25 455.418 248.843L456.812 250.277C459.905 247.27 461.435 243.402 461.435 238.76H459.435ZM455.418 248.843C452.774 251.413 449.382 252.72 445.155 252.72V254.72C449.835 254.72 453.749 253.254 456.812 250.277L455.418 248.843ZM445.155 252.72C440.985 252.72 437.618 251.415 434.972 248.843L433.578 250.277C436.638 253.252 440.525 254.72 445.155 254.72V252.72ZM434.975 248.846C432.334 246.254 430.995 242.921 430.995 238.76H428.995C428.995 243.399 430.509 247.266 433.575 250.274L434.975 248.846ZM434.475 238.76C434.475 242.014 435.453 244.774 437.459 246.957L438.931 245.603C437.31 243.84 436.475 241.586 436.475 238.76H434.475ZM437.463 246.962C439.481 249.127 442.087 250.2 445.195 250.2V248.2C442.597 248.2 440.536 247.326 438.927 245.598L437.463 246.962ZM445.195 250.2C448.327 250.2 450.947 249.129 452.967 246.962L451.503 245.598C449.896 247.324 447.823 248.2 445.195 248.2V250.2ZM452.971 246.957C454.977 244.774 455.955 242.014 455.955 238.76H453.955C453.955 241.586 453.119 243.84 451.499 245.603L452.971 246.957ZM455.955 238.76C455.955 235.578 454.972 232.861 452.971 230.683L451.499 232.037C453.124 233.806 453.955 236.022 453.955 238.76H455.955ZM452.976 230.689C450.981 228.486 448.355 227.4 445.195 227.4V229.4C447.848 229.4 449.915 230.288 451.494 232.031L452.976 230.689ZM445.195 227.4C442.058 227.4 439.437 228.487 437.419 230.683L438.891 232.037C440.5 230.286 442.571 229.4 445.195 229.4V227.4ZM437.414 230.689C435.441 232.867 434.475 235.582 434.475 238.76H436.475C436.475 236.018 437.295 233.8 438.896 232.031L437.414 230.689ZM466.3 253H465.3V254H466.3V253ZM466.3 224.68V223.68H465.3V224.68H466.3ZM483.3 224.68H484.3V223.68H483.3V224.68ZM483.3 229.08V230.08H484.3V229.08H483.3ZM471.34 229.08V228.08H470.34V229.08H471.34ZM471.34 253V254H472.34V253H471.34ZM467.3 253V224.68H465.3V253H467.3ZM466.3 225.68H483.3V223.68H466.3V225.68ZM482.3 224.68V229.08H484.3V224.68H482.3ZM483.3 228.08H471.34V230.08H483.3V228.08ZM470.34 229.08V253H472.34V229.08H470.34ZM471.34 252H466.3V254H471.34V252ZM489.243 228L488.556 227.273L488.553 227.276L489.243 228ZM511.163 228L510.476 228.727L511.163 228ZM511.123 249.56L511.82 250.277L511.82 250.277L511.123 249.56ZM489.283 249.56L488.582 250.274L488.586 250.277L489.283 249.56ZM493.203 246.28L492.466 246.957L492.471 246.962L493.203 246.28ZM507.243 246.28L507.974 246.962L507.979 246.957L507.243 246.28ZM507.243 231.36L506.501 232.031L506.506 232.037L507.243 231.36ZM493.163 231.36L492.426 230.683L492.421 230.689L493.163 231.36ZM486.003 238.76C486.003 234.509 487.334 231.2 489.933 228.724L488.553 227.276C485.498 230.187 484.003 234.051 484.003 238.76H486.003ZM489.929 228.727C492.573 226.232 495.956 224.96 500.163 224.96V222.96C495.516 222.96 491.619 224.381 488.556 227.273L489.929 228.727ZM500.163 224.96C504.426 224.96 507.835 226.234 510.476 228.727L511.849 227.273C508.784 224.379 504.859 222.96 500.163 222.96V224.96ZM510.476 228.727C513.1 231.204 514.443 234.512 514.443 238.76H516.443C516.443 234.048 514.932 230.183 511.849 227.273L510.476 228.727ZM514.443 238.76C514.443 242.918 513.092 246.25 510.426 248.843L511.82 250.277C514.913 247.27 516.443 243.402 516.443 238.76H514.443ZM510.426 248.843C507.782 251.413 504.39 252.72 500.163 252.72V254.72C504.843 254.72 508.757 253.254 511.82 250.277L510.426 248.843ZM500.163 252.72C495.993 252.72 492.626 251.415 489.98 248.843L488.586 250.277C491.646 253.252 495.533 254.72 500.163 254.72V252.72ZM489.983 248.846C487.342 246.254 486.003 242.921 486.003 238.76H484.003C484.003 243.399 485.517 247.266 488.582 250.274L489.983 248.846ZM489.483 238.76C489.483 242.014 490.461 244.774 492.466 246.957L493.939 245.603C492.318 243.84 491.483 241.586 491.483 238.76H489.483ZM492.471 246.962C494.488 249.127 497.094 250.2 500.203 250.2V248.2C497.604 248.2 495.544 247.326 493.934 245.598L492.471 246.962ZM500.203 250.2C503.335 250.2 505.955 249.129 507.974 246.962L506.511 245.598C504.904 247.324 502.831 248.2 500.203 248.2V250.2ZM507.979 246.957C509.985 244.774 510.963 242.014 510.963 238.76H508.963C508.963 241.586 508.127 243.84 506.506 245.603L507.979 246.957ZM510.963 238.76C510.963 235.578 509.98 232.861 507.979 230.683L506.506 232.037C508.132 233.806 508.963 236.022 508.963 238.76H510.963ZM507.984 230.689C505.989 228.486 503.363 227.4 500.203 227.4V229.4C502.856 229.4 504.923 230.288 506.501 232.031L507.984 230.689ZM500.203 227.4C497.066 227.4 494.444 228.487 492.426 230.683L493.899 232.037C495.508 230.286 497.579 229.4 500.203 229.4V227.4ZM492.421 230.689C490.449 232.867 489.483 235.582 489.483 238.76H491.483C491.483 236.018 492.303 233.8 493.904 232.031L492.421 230.689ZM256.39 309H255.39V310H256.39V309ZM256.39 280.68V279.68H255.39V280.68H256.39ZM274.95 280.68H275.95V279.68H274.95V280.68ZM274.95 284.92V285.92H275.95V284.92H274.95ZM261.43 284.92V283.92H260.43V284.92H261.43ZM261.43 292.2H260.43V293.2H261.43V292.2ZM274.03 294.28L274.616 293.469L274.03 294.28ZM274.03 306.88L274.623 307.685L274.03 306.88ZM261.43 304.76H260.43V305.76H261.43V304.76ZM270.27 297.52L269.691 298.335L269.703 298.344L269.715 298.352L270.27 297.52ZM261.43 296.44V295.44H260.43V296.44H261.43ZM257.39 309V280.68H255.39V309H257.39ZM256.39 281.68H274.95V279.68H256.39V281.68ZM273.95 280.68V284.92H275.95V280.68H273.95ZM274.95 283.92H261.43V285.92H274.95V283.92ZM260.43 284.92V292.2H262.43V284.92H260.43ZM261.43 293.2H266.43V291.2H261.43V293.2ZM266.43 293.2C269.435 293.2 271.743 293.862 273.445 295.091L274.616 293.469C272.477 291.925 269.719 291.2 266.43 291.2V293.2ZM273.445 295.091C275.052 296.252 275.91 298.024 275.91 300.6H277.91C277.91 297.523 276.848 295.082 274.616 293.469L273.445 295.091ZM275.91 300.6C275.91 303.115 275.057 304.882 273.437 306.075L274.623 307.685C276.843 306.051 277.91 303.632 277.91 300.6H275.91ZM273.437 306.075C271.735 307.327 269.442 308 266.47 308V310C269.738 310 272.485 309.259 274.623 307.685L273.437 306.075ZM266.47 308H256.39V310H266.47V308ZM261.43 305.76H265.91V303.76H261.43V305.76ZM265.91 305.76C267.97 305.76 269.693 305.404 270.925 304.538C272.221 303.627 272.83 302.256 272.83 300.6H270.83C270.83 301.717 270.452 302.426 269.775 302.902C269.033 303.423 267.797 303.76 265.91 303.76V305.76ZM272.83 300.6C272.83 298.94 272.171 297.585 270.825 296.688L269.715 298.352C270.449 298.841 270.83 299.54 270.83 300.6H272.83ZM270.849 296.705C269.599 295.817 267.909 295.44 265.91 295.44V297.44C267.698 297.44 268.914 297.783 269.691 298.335L270.849 296.705ZM265.91 295.44H261.43V297.44H265.91V295.44ZM260.43 296.44V304.76H262.43V296.44H260.43ZM282.859 309H281.859V310H282.859V309ZM282.859 280.68V279.68H281.859V280.68H282.859ZM287.899 280.68H288.899V279.68H287.899V280.68ZM287.899 301.4H286.899V302.4H287.899V301.4ZM288.019 301.4V302.4H288.566L288.861 301.94L288.019 301.4ZM301.299 280.68V279.68H300.752L300.457 280.14L301.299 280.68ZM306.739 280.68H307.739V279.68H306.739V280.68ZM306.739 309V310H307.739V309H306.739ZM301.699 309H300.699V310H301.699V309ZM301.699 288.44H302.699V287.44H301.699V288.44ZM301.619 288.44V287.44H301.073L300.778 287.899L301.619 288.44ZM288.379 309V310H288.924L289.22 309.541L288.379 309ZM283.859 309V280.68H281.859V309H283.859ZM282.859 281.68H287.899V279.68H282.859V281.68ZM286.899 280.68V301.4H288.899V280.68H286.899ZM287.899 302.4H288.019V300.4H287.899V302.4ZM288.861 301.94L302.141 281.22L300.457 280.14L287.177 300.86L288.861 301.94ZM301.299 281.68H306.739V279.68H301.299V281.68ZM305.739 280.68V309H307.739V280.68H305.739ZM306.739 308H301.699V310H306.739V308ZM302.699 309V288.44H300.699V309H302.699ZM301.699 287.44H301.619V289.44H301.699V287.44ZM300.778 287.899L287.538 308.459L289.22 309.541L302.46 288.981L300.778 287.899ZM288.379 308H282.859V310H288.379V308ZM311.136 308.88L310.143 308.764L310.045 309.594L310.846 309.837L311.136 308.88ZM311.656 304.44L311.972 303.491L310.806 303.103L310.663 304.324L311.656 304.44ZM317.696 301.2L316.763 300.84L316.76 300.849L317.696 301.2ZM319.056 280.68V279.68H318.056V280.68H319.056ZM338.536 280.68H339.536V279.68H338.536V280.68ZM338.536 309V310H339.536V309H338.536ZM333.496 309H332.496V310H333.496V309ZM333.496 285.08H334.496V284.08H333.496V285.08ZM323.896 285.08V284.08H322.896V285.08H323.896ZM321.696 304.6L320.79 304.178L320.788 304.181L321.696 304.6ZM314.496 308.28C313.192 308.28 312.179 308.151 311.426 307.923L310.846 309.837C311.853 310.142 313.08 310.28 314.496 310.28V308.28ZM312.129 308.996L312.649 304.556L310.663 304.324L310.143 308.764L312.129 308.996ZM311.34 305.389C312.001 305.609 312.681 305.72 313.376 305.72V303.72C312.897 303.72 312.431 303.644 311.972 303.491L311.34 305.389ZM313.376 305.72C314.587 305.72 315.675 305.359 316.588 304.615C317.485 303.884 318.151 302.834 318.632 301.551L316.76 300.849C316.361 301.912 315.867 302.622 315.324 303.065C314.797 303.495 314.165 303.72 313.376 303.72V305.72ZM318.629 301.56C319.609 299.023 320.056 294.707 320.056 288.76H318.056C318.056 294.706 317.596 298.684 316.763 300.84L318.629 301.56ZM320.056 288.76V280.68H318.056V288.76H320.056ZM319.056 281.68H338.536V279.68H319.056V281.68ZM337.536 280.68V309H339.536V280.68H337.536ZM338.536 308H333.496V310H338.536V308ZM334.496 309V285.08H332.496V309H334.496ZM333.496 284.08H323.896V286.08H333.496V284.08ZM322.896 285.08V289.44H324.896V285.08H322.896ZM322.896 289.44C322.896 296.372 322.159 301.239 320.79 304.178L322.602 305.022C324.166 301.667 324.896 296.428 324.896 289.44H322.896ZM320.788 304.181C320.131 305.604 319.284 306.613 318.271 307.272C317.26 307.929 316.017 308.28 314.496 308.28V310.28C316.335 310.28 317.972 309.851 319.361 308.948C320.748 308.047 321.821 306.716 322.604 305.019L320.788 304.181ZM345.757 309H344.757V310H345.757V309ZM345.757 280.68V279.68H344.757V280.68H345.757ZM364.517 280.68H365.517V279.68H364.517V280.68ZM364.517 285.08V286.08H365.517V285.08H364.517ZM350.797 285.08V284.08H349.797V285.08H350.797ZM350.797 292.28H349.797V293.28H350.797V292.28ZM363.797 292.28H364.797V291.28H363.797V292.28ZM363.797 296.52V297.52H364.797V296.52H363.797ZM350.797 296.52V295.52H349.797V296.52H350.797ZM350.797 304.52H349.797V305.52H350.797V304.52ZM365.237 304.52H366.237V303.52H365.237V304.52ZM365.237 309V310H366.237V309H365.237ZM346.757 309V280.68H344.757V309H346.757ZM345.757 281.68H364.517V279.68H345.757V281.68ZM363.517 280.68V285.08H365.517V280.68H363.517ZM364.517 284.08H350.797V286.08H364.517V284.08ZM349.797 285.08V292.28H351.797V285.08H349.797ZM350.797 293.28H363.797V291.28H350.797V293.28ZM362.797 292.28V296.52H364.797V292.28H362.797ZM363.797 295.52H350.797V297.52H363.797V295.52ZM349.797 296.52V304.52H351.797V296.52H349.797ZM350.797 305.52H365.237V303.52H350.797V305.52ZM364.237 304.52V309H366.237V304.52H364.237ZM365.237 308H345.757V310H365.237V308ZM376.891 309H375.891V310H376.891V309ZM376.891 285.08H377.891V284.08H376.891V285.08ZM368.211 285.08H367.211V286.08H368.211V285.08ZM368.211 280.68V279.68H367.211V280.68H368.211ZM390.611 280.68H391.611V279.68H390.611V280.68ZM390.611 285.08V286.08H391.611V285.08H390.611ZM381.931 285.08V284.08H380.931V285.08H381.931ZM381.931 309V310H382.931V309H381.931ZM377.891 309V285.08H375.891V309H377.891ZM376.891 284.08H368.211V286.08H376.891V284.08ZM369.211 285.08V280.68H367.211V285.08H369.211ZM368.211 281.68H390.611V279.68H368.211V281.68ZM389.611 280.68V285.08H391.611V280.68H389.611ZM390.611 284.08H381.931V286.08H390.611V284.08ZM380.931 285.08V309H382.931V285.08H380.931ZM381.931 308H376.891V310H381.931V308ZM389.083 309L388.166 308.601L387.557 310H389.083V309ZM401.403 280.68V279.68H400.747L400.486 280.281L401.403 280.68ZM405.763 280.68L406.681 280.284L406.421 279.68H405.763V280.68ZM417.963 309V310H419.483L418.881 308.604L417.963 309ZM412.203 309L411.277 309.377L411.53 310H412.203V309ZM409.563 302.52L410.489 302.143L410.235 301.52H409.563V302.52ZM397.283 302.52V301.52H396.603L396.353 302.153L397.283 302.52ZM394.723 309V310H395.403L395.653 309.367L394.723 309ZM399.003 298.2L398.07 297.84L397.546 299.2H399.003V298.2ZM407.803 298.2V299.2H409.251L408.738 297.846L407.803 298.2ZM403.443 286.68L404.378 286.326L403.451 283.877L402.51 286.32L403.443 286.68ZM390 309.399L402.32 281.079L400.486 280.281L388.166 308.601L390 309.399ZM401.403 281.68H405.763V279.68H401.403V281.68ZM404.844 281.076L417.044 309.396L418.881 308.604L406.681 280.284L404.844 281.076ZM417.963 308H412.203V310H417.963V308ZM413.129 308.623L410.489 302.143L408.637 302.897L411.277 309.377L413.129 308.623ZM409.563 301.52H397.283V303.52H409.563V301.52ZM396.353 302.153L393.793 308.633L395.653 309.367L398.213 302.887L396.353 302.153ZM394.723 308H389.083V310H394.723V308ZM399.003 299.2H407.803V297.2H399.003V299.2ZM408.738 297.846L404.378 286.326L402.508 287.034L406.868 298.554L408.738 297.846ZM402.51 286.32L398.07 297.84L399.936 298.56L404.376 287.04L402.51 286.32Z" fill="#1A1A1A" mask="url(#path-2-outside-1_41_7359)"/>
<rect width="254.201" height="86" rx="43" transform="matrix(0.948337 0.317266 -0.331738 0.943371 451.798 0)" fill="#1A1A1A"/>
<path d="M477.152 69.3818C472.979 67.9858 469.987 65.5228 468.176 61.9928C466.374 58.4376 466.203 54.5846 467.662 50.4338C469.14 46.2326 471.708 43.3102 475.366 41.6664C479.059 40.0059 482.992 39.8737 487.165 41.2696C489.112 41.9211 490.872 42.9036 492.445 44.2171C494.053 45.5139 495.183 46.9606 495.837 48.5571L489.898 51.4622C489.599 50.4626 489.028 49.5966 488.183 48.8641C487.372 48.1149 486.423 47.5585 485.336 47.1947C483.085 46.4417 480.952 46.5997 478.937 47.6687C476.956 48.721 475.549 50.4295 474.718 52.7942C473.869 55.2093 473.882 57.421 474.759 59.4293C475.644 61.4125 477.212 62.7806 479.463 63.5335C481.967 64.3711 484.182 64.1 486.108 62.7202L489.136 68.4567C485.547 70.5455 481.552 70.8539 477.152 69.3818ZM497.312 75.3251L504.77 54.1181L497.183 51.58L499.121 46.0707L520.781 53.317L518.843 58.8263L511.257 56.2882L503.799 77.4952L497.312 75.3251ZM519.146 83.1356C517.452 82.5688 516.076 81.9398 515.019 81.2487L517.686 76.1946C518.474 76.7675 519.235 77.1766 519.968 77.4219C521.056 77.7857 521.97 77.7965 522.712 77.4544C523.463 77.0871 524.393 76.3719 525.502 75.3089L525.695 75.1205L521.796 53.6568L529.269 56.1569L531.28 70.4519L541.484 60.2432L548.767 62.6799L532.027 78.3352C531.022 79.2642 530.214 79.9923 529.605 80.5194C528.996 81.0466 528.233 81.6069 527.318 82.2004C526.428 82.8024 525.609 83.2031 524.86 83.4026C524.112 83.602 523.246 83.692 522.264 83.6727C521.273 83.6784 520.233 83.4994 519.146 83.1356ZM535.93 94.613L539.871 83.4058L542.223 84.1926C545.704 82.0112 548.607 77.6124 550.934 70.9962L553.322 64.2039L573.655 71.0061L566.197 92.2131L569.156 93.203L565.215 104.41L559.525 102.507L561.529 96.8086L543.624 90.8187L541.62 96.5166L535.93 94.613ZM549.241 86.5404L559.711 90.043L565.244 74.3075L557.657 71.7694L556.901 73.9203C554.769 79.983 552.216 84.1897 549.241 86.5404ZM571.684 100.206L581.079 73.4898L599.135 79.5305L597.211 85.0021L585.414 81.0553L583.649 86.074L594.801 89.8051L592.983 94.9748L581.831 91.2437L579.88 96.7907L592.36 100.966L590.423 106.475L571.684 100.206ZM595.674 108.232L605.069 81.5156L611.555 83.6857L607.999 93.7987L618.469 97.3013L622.025 87.1883L628.512 89.3584L619.117 116.075L612.63 113.905L616.558 102.735L606.088 99.2325L602.161 110.402L595.674 108.232ZM630.598 119.916L638.056 98.7088L630.469 96.1707L632.406 90.6614L654.066 97.9078L652.129 103.417L644.542 100.879L637.085 122.086L630.598 119.916Z" fill="#DDFF53"/>
</svg>
