<svg width="729" height="526" viewBox="0 0 729 526" fill="none" xmlns="http://www.w3.org/2000/svg">
<path d="M251.263 53.0563C265.362 54.7689 279.531 56.4899 293.545 57.6857C293.544 57.697 293.544 57.7084 293.543 57.7198C293.298 61.0244 295.778 63.9019 299.083 64.1469C309.003 64.8822 318.882 65.3216 328.627 65.2699C338.507 65.2174 348.429 64.7514 358.34 64.0377C361.645 63.7997 364.131 60.9274 363.893 57.6222C363.893 57.6126 363.892 57.6029 363.891 57.5932C377.519 56.4822 391.184 54.9555 404.776 53.4371C406.632 53.2298 408.486 53.0226 410.339 52.8167C410.702 56.1076 413.663 58.4829 416.955 58.1232C436.783 55.9563 456.164 54.0912 474.904 53.8118C478.199 53.7627 480.834 51.0664 480.814 47.7779C496.774 47.837 512.296 49.1417 527.17 52.4927C526.392 55.66 528.292 58.8798 531.458 59.7202C540.515 62.1248 549.265 65.3685 557.67 69.6439C565.724 73.7405 573.261 78.2001 580.31 82.9782C583.029 84.8212 586.719 84.1334 588.594 81.4495C600.357 89.9302 610.755 99.3146 619.914 109.394C617.459 111.558 617.189 115.3 619.324 117.795C630.942 131.371 640.385 146.162 647.956 161.673C649.399 164.628 652.946 165.867 655.91 164.467C661.783 177.331 666.438 190.609 670.038 204.03C666.857 204.845 664.918 208.073 665.703 211.27C667.819 219.9 669.504 228.582 670.802 237.242C672.24 246.833 673.625 256.623 674.79 266.517C675.176 269.799 678.142 272.149 681.422 271.778C683.114 287.472 684.185 303.412 683.974 319.159C680.691 319.079 677.948 321.657 677.833 324.947C677.143 344.689 674.248 363.797 667.889 381.462C666.781 384.54 668.344 387.931 671.385 389.096C665.543 403.422 657.321 416.843 646.026 428.896C643.707 426.618 639.981 426.599 637.639 428.878C631.188 435.155 623.762 441.029 615.226 446.415C605.202 452.74 594.491 457.487 583.184 460.955C580.053 461.916 578.277 465.207 579.176 468.343C559.986 473.451 539.404 475.211 517.956 474.98C518.02 471.689 515.417 468.958 512.121 468.868C488.74 468.231 464.302 465.374 439.341 462.034C436.059 461.595 433.042 463.898 432.6 467.179C428.534 466.626 424.463 466.065 420.389 465.503C404.027 463.249 387.614 460.987 371.345 459.217C371.345 459.209 371.346 459.202 371.347 459.194C371.681 455.897 369.278 452.954 365.982 452.621C353.5 451.358 341.068 450.414 328.788 450.02C317.5 449.658 305.965 449.812 294.323 450.269C291.012 450.399 288.433 453.189 288.563 456.5C288.563 456.508 288.563 456.517 288.564 456.525C273.475 457.242 258.153 458.41 242.866 459.576C239.438 459.837 236.011 460.098 232.589 460.354C232.345 457.053 229.473 454.572 226.17 454.812C202.895 456.503 180.166 457.791 158.767 457.103C155.473 456.997 152.714 459.567 152.58 462.853C132.839 461.858 114.237 459.042 97.5147 453.147C98.6665 450.109 97.1863 446.691 94.1595 445.463C84.0693 441.368 74.8557 436.009 66.6573 429.077C59.7589 423.244 54.6151 417.133 50.8529 410.818C49.2021 408.048 45.6695 407.09 42.8573 408.605C36.9219 396.283 35.1648 383.036 35.9681 369.198C39.2051 369.469 42.0829 367.107 42.4316 363.86C44.1228 348.111 48.9102 331.463 54.4577 314.124C55.466 310.973 53.7328 307.601 50.5858 306.586C51.1926 304.718 51.8031 302.849 52.4138 300.978C56.0122 289.958 59.6225 278.901 62.5863 267.944C62.6068 267.949 62.6273 267.954 62.6478 267.959C65.8636 268.759 69.1187 266.8 69.9182 263.584C72.1263 254.703 73.8677 245.793 74.766 236.959C76.316 221.716 75.3295 205.909 73.9656 190.488C73.6737 187.187 70.7612 184.748 67.4604 185.04C67.4548 185.04 67.4492 185.041 67.4437 185.041C67.3199 183.716 67.1949 182.39 67.0699 181.065C64.619 155.078 62.1891 129.313 69.4408 106.799C72.4556 107.898 75.8251 106.424 77.0482 103.428C81.8551 91.6525 89.9697 80.9026 103.473 71.6987C111.065 66.5234 119.279 62.6337 128.041 59.7794C131.144 58.7686 132.861 55.4694 131.933 52.3603C146.214 48.482 161.603 47.0214 177.69 47.0002C177.658 50.2855 180.279 52.9906 183.572 53.0554C201.92 53.4164 221.19 55.4902 240.952 57.8539C244.24 58.2472 247.225 55.9017 247.621 52.6143C248.835 52.7613 250.049 52.9088 251.263 53.0563Z" fill="#DB79E2" stroke="#1A1A1A" stroke-width="12" stroke-linecap="round" stroke-dasharray="62 62"/>
<mask id="path-2-outside-1_635_6259" maskUnits="userSpaceOnUse" x="196.534" y="165" width="330" height="207" fill="black">
<rect fill="white" x="196.534" y="165" width="330" height="207"/>
<path d="M199.4 181.76C199.4 177.28 200.814 173.693 203.64 171C206.494 168.307 210.134 166.96 214.56 166.96C219.04 166.96 222.707 168.307 225.56 171C228.414 173.693 229.84 177.28 229.84 181.76C229.84 186.16 228.4 189.76 225.52 192.56C222.667 195.333 219.014 196.72 214.56 196.72C210.16 196.72 206.534 195.333 203.68 192.56C200.827 189.76 199.4 186.16 199.4 181.76ZM204.88 181.76C204.88 184.8 205.787 187.307 207.6 189.28C209.414 191.227 211.747 192.2 214.6 192.2C217.48 192.2 219.827 191.227 221.64 189.28C223.454 187.307 224.36 184.8 224.36 181.76C224.36 178.8 223.454 176.333 221.64 174.36C219.854 172.387 217.507 171.4 214.6 171.4C211.72 171.4 209.374 172.387 207.56 174.36C205.774 176.333 204.88 178.8 204.88 181.76ZM240.215 196V172.08H231.535V167.68H253.935V172.08H245.255V196H240.215ZM258.229 196V167.68H281.309V196H276.269V172.08H263.269V196H258.229ZM288.565 196V167.68H297.805C304.925 167.68 308.485 170.413 308.485 175.88C308.485 178.813 307.472 180.947 305.445 182.28C303.418 183.613 300.765 184.28 297.485 184.28H293.605V196H288.565ZM293.605 180.04H297.125C301.312 180.04 303.405 178.653 303.405 175.88C303.405 174.36 302.845 173.32 301.725 172.76C300.632 172.2 299.152 171.92 297.285 171.92H293.605V180.04ZM308.156 196L320.476 167.68H324.836L337.036 196H331.276L328.636 189.52H316.356L313.796 196H308.156ZM318.076 185.2H326.876L322.516 173.68L318.076 185.2ZM340.838 196V167.68H351.878C354.278 167.68 356.318 168.267 357.998 169.44C359.705 170.613 360.558 172.4 360.558 174.8C360.558 176.347 360.118 177.653 359.238 178.72C358.358 179.787 357.158 180.547 355.638 181V181.08C357.478 181.32 358.958 182.027 360.078 183.2C361.198 184.373 361.758 185.893 361.758 187.76C361.758 189.227 361.452 190.52 360.838 191.64C360.252 192.733 359.438 193.587 358.398 194.2C357.358 194.813 356.225 195.267 354.998 195.56C353.772 195.853 352.452 196 351.038 196H340.838ZM345.878 171.84V179.2H350.358C352.038 179.2 353.318 178.867 354.198 178.2C355.078 177.533 355.518 176.587 355.518 175.36C355.518 174.107 355.065 173.213 354.158 172.68C353.252 172.12 351.838 171.84 349.918 171.84H345.878ZM345.878 183.52V191.76H350.398C354.612 191.76 356.718 190.347 356.718 187.52C356.718 186.08 356.225 185.053 355.238 184.44C354.252 183.827 352.705 183.52 350.598 183.52H345.878ZM367.737 196V167.68H372.777V178.92H376.977C380.177 178.92 382.75 179.627 384.697 181.04C386.67 182.453 387.657 184.587 387.657 187.44C387.657 190.267 386.67 192.4 384.697 193.84C382.75 195.28 380.203 196 377.057 196H367.737ZM372.777 191.76H376.577C380.577 191.76 382.577 190.333 382.577 187.48C382.577 186.067 382.057 185 381.017 184.28C379.977 183.533 378.497 183.16 376.577 183.16H372.777V191.76ZM498.556 227.28L494.716 230.32C494.023 229.36 493.076 228.64 491.876 228.16C490.703 227.653 489.503 227.4 488.276 227.4C485.396 227.4 483.036 228.387 481.196 230.36C479.383 232.333 478.476 234.8 478.476 237.76C478.476 240.853 479.343 243.373 481.076 245.32C482.836 247.24 485.169 248.2 488.076 248.2C491.063 248.2 493.356 247.107 494.956 244.92L498.996 247.76C496.356 251.067 492.703 252.72 488.036 252.72C483.609 252.72 479.983 251.333 477.156 248.56C474.329 245.76 472.916 242.16 472.916 237.76C472.916 233.307 474.356 229.733 477.236 227.04C480.143 224.32 483.823 222.96 488.276 222.96C490.249 222.96 492.183 223.333 494.076 224.08C495.996 224.8 497.489 225.867 498.556 227.28ZM198.309 308L210.629 279.68H214.989L227.189 308H221.429L218.789 301.52H206.509L203.949 308H198.309ZM208.229 297.2H217.029L212.669 285.68L208.229 297.2ZM230.991 308V279.68H236.031V291.92H236.151L247.991 279.68H254.791L241.551 292.76L255.671 308H248.591L236.151 293.8H236.031V308H230.991ZM265.289 308V284.08H256.609V279.68H279.009V284.08H270.329V308H265.289ZM286.492 308.4C285.105 308.4 283.905 308.28 282.892 308.04L283.532 303.56C284.305 303.8 285.092 303.92 285.892 303.92C286.932 303.92 287.759 303.667 288.372 303.16C289.012 302.653 289.639 301.8 290.252 300.6L291.132 298.92L280.252 279.68H286.092L293.972 294.24L301.412 279.68H307.052L295.292 301.48C294.012 303.88 292.759 305.64 291.532 306.76C290.332 307.853 288.652 308.4 286.492 308.4ZM304.144 308L316.464 279.68H320.824L333.024 308H327.264L324.624 301.52H312.344L309.784 308H304.144ZM314.064 297.2H322.864L318.504 285.68L314.064 297.2ZM337.815 308.28C336.455 308.28 335.335 308.147 334.455 307.88L334.975 303.44C335.535 303.627 336.109 303.72 336.695 303.72C338.695 303.72 340.135 302.547 341.015 300.2C341.922 297.853 342.375 293.707 342.375 287.76V279.68H361.855V308H356.815V284.08H347.215V288.44C347.215 295.4 346.482 300.453 345.015 303.6C343.575 306.72 341.175 308.28 337.815 308.28ZM369.077 308V279.68H374.117V290.92H378.317C381.517 290.92 384.09 291.627 386.037 293.04C388.01 294.453 388.997 296.587 388.997 299.44C388.997 302.267 388.01 304.4 386.037 305.84C384.09 307.28 381.543 308 378.397 308H369.077ZM374.117 303.76H377.917C381.917 303.76 383.917 302.333 383.917 299.48C383.917 298.067 383.397 297 382.357 296.28C381.317 295.533 379.837 295.16 377.917 295.16H374.117V303.76ZM394.53 308V279.68H399.57V291.12H412.81V279.68H417.85V308H412.81V295.44H399.57V308H394.53ZM448.94 308V279.68H453.98V308H448.94ZM425.1 308V279.68H430.14V290.92H434.34C437.54 290.92 440.113 291.627 442.06 293.04C444.033 294.453 445.02 296.587 445.02 299.44C445.02 302.267 444.033 304.4 442.06 305.84C440.113 307.28 437.567 308 434.42 308H425.1ZM430.14 303.76H433.94C437.94 303.76 439.94 302.333 439.94 299.48C439.94 298.067 439.42 297 438.38 296.28C437.34 295.533 435.86 295.16 433.94 295.16H430.14V303.76ZM461.217 308V279.68H469.097L476.457 299.8H476.577L483.857 279.68H491.777V308H486.777V285.24H486.697L478.097 308H474.577L466.097 285.24H466.017V308H461.217ZM499.014 308V279.68H504.054V300.4H504.174L517.454 279.68H522.894V308H517.854V287.44H517.774L504.534 308H499.014ZM240.65 349.76C240.65 345.28 242.064 341.693 244.89 339C247.744 336.307 251.384 334.96 255.81 334.96C260.29 334.96 263.957 336.307 266.81 339C269.664 341.693 271.09 345.28 271.09 349.76C271.09 354.16 269.65 357.76 266.77 360.56C263.917 363.333 260.264 364.72 255.81 364.72C251.41 364.72 247.784 363.333 244.93 360.56C242.077 357.76 240.65 354.16 240.65 349.76ZM246.13 349.76C246.13 352.8 247.037 355.307 248.85 357.28C250.664 359.227 252.997 360.2 255.85 360.2C258.73 360.2 261.077 359.227 262.89 357.28C264.704 355.307 265.61 352.8 265.61 349.76C265.61 346.8 264.704 344.333 262.89 342.36C261.104 340.387 258.757 339.4 255.85 339.4C252.97 339.4 250.624 340.387 248.81 342.36C247.024 344.333 246.13 346.8 246.13 349.76ZM298.636 370.44V364H276.956V335.68H281.996V359.52H294.996V335.68H300.036V359.52H303.156V370.44H298.636ZM308.151 364V335.68H326.911V340.08H313.191V347.28H326.191V351.52H313.191V359.52H327.631V364H308.151ZM333.565 364V335.68H338.605V347.12H351.845V335.68H356.885V364H351.845V351.44H338.605V364H333.565ZM364.135 364V335.68H369.175V347.92H369.295L381.135 335.68H387.935L374.695 348.76L388.815 364H381.735L369.295 349.8H369.175V364H364.135ZM389.273 364L401.593 335.68H405.953L418.153 364H412.393L409.753 357.52H397.473L394.913 364H389.273ZM399.193 353.2H407.993L403.633 341.68L399.193 353.2ZM421.956 364V335.68H429.836L437.196 355.8H437.316L444.596 335.68H452.516V364H447.516V341.24H447.436L438.836 364H435.316L426.836 341.24H426.756V364H421.956ZM459.752 364V335.68H464.792V356.4H464.912L478.192 335.68H483.632V364H478.592V343.44H478.512L465.272 364H459.752Z"/>
<path d="M415.83 196.72V193.28C412.017 193.227 408.87 192.12 406.39 189.96C403.91 187.773 402.67 184.92 402.67 181.4C402.67 177.667 403.843 174.787 406.19 172.76C408.563 170.733 411.777 169.653 415.83 169.52V166.96H421.03V169.52C425.083 169.653 428.283 170.733 430.63 172.76C433.003 174.787 434.19 177.667 434.19 181.4C434.19 184.92 432.95 187.773 430.47 189.96C427.99 192.12 424.843 193.227 421.03 193.28V196.72H415.83ZM415.83 188.84V173.92C413.243 174.107 411.31 174.867 410.03 176.2C408.75 177.533 408.11 179.28 408.11 181.44C408.11 185.867 410.683 188.333 415.83 188.84ZM421.03 188.84C426.177 188.333 428.75 185.867 428.75 181.44C428.75 179.28 428.11 177.533 426.83 176.2C425.55 174.867 423.617 174.107 421.03 173.92V188.84ZM438.557 181.76C438.557 177.28 439.97 173.693 442.797 171C445.65 168.307 449.29 166.96 453.717 166.96C458.197 166.96 461.863 168.307 464.717 171C467.57 173.693 468.997 177.28 468.997 181.76C468.997 186.16 467.557 189.76 464.677 192.56C461.823 195.333 458.17 196.72 453.717 196.72C449.317 196.72 445.69 195.333 442.837 192.56C439.983 189.76 438.557 186.16 438.557 181.76ZM444.037 181.76C444.037 184.8 444.943 187.307 446.757 189.28C448.57 191.227 450.903 192.2 453.757 192.2C456.637 192.2 458.983 191.227 460.797 189.28C462.61 187.307 463.517 184.8 463.517 181.76C463.517 178.8 462.61 176.333 460.797 174.36C459.01 172.387 456.663 171.4 453.757 171.4C450.877 171.4 448.53 172.387 446.717 174.36C444.93 176.333 444.037 178.8 444.037 181.76ZM479.371 196V172.08H470.691V167.68H493.091V172.08H484.411V196H479.371ZM494.814 181.76C494.814 177.28 496.228 173.693 499.054 171C501.908 168.307 505.548 166.96 509.974 166.96C514.454 166.96 518.121 168.307 520.974 171C523.828 173.693 525.254 177.28 525.254 181.76C525.254 186.16 523.814 189.76 520.934 192.56C518.081 195.333 514.428 196.72 509.974 196.72C505.574 196.72 501.948 195.333 499.094 192.56C496.241 189.76 494.814 186.16 494.814 181.76ZM500.294 181.76C500.294 184.8 501.201 187.307 503.014 189.28C504.828 191.227 507.161 192.2 510.014 192.2C512.894 192.2 515.241 191.227 517.054 189.28C518.868 187.307 519.774 184.8 519.774 181.76C519.774 178.8 518.868 176.333 517.054 174.36C515.268 172.387 512.921 171.4 510.014 171.4C507.134 171.4 504.788 172.387 502.974 174.36C501.188 176.333 500.294 178.8 500.294 181.76ZM226.192 258.44V247.52H228.592C231.472 244.24 232.912 238.72 232.912 230.96V223.68H252.712V247.52H255.872V258.44H251.352V252H230.712V258.44H226.192ZM234.272 247.52H247.672V228.08H237.792V231.48C237.792 238.787 236.619 244.133 234.272 247.52ZM260.885 252V223.68H265.925V235.12H279.165V223.68H284.205V252H279.165V239.44H265.925V252H260.885ZM291.456 252V223.68H310.216V228.08H296.496V235.28H309.496V239.52H296.496V247.52H310.936V252H291.456ZM316.87 252V223.68H327.91C330.31 223.68 332.35 224.267 334.03 225.44C335.736 226.613 336.59 228.4 336.59 230.8C336.59 232.347 336.15 233.653 335.27 234.72C334.39 235.787 333.19 236.547 331.67 237V237.08C333.51 237.32 334.99 238.027 336.11 239.2C337.23 240.373 337.79 241.893 337.79 243.76C337.79 245.227 337.483 246.52 336.87 247.64C336.283 248.733 335.47 249.587 334.43 250.2C333.39 250.813 332.256 251.267 331.03 251.56C329.803 251.853 328.483 252 327.07 252H316.87ZM321.91 227.84V235.2H326.39C328.07 235.2 329.35 234.867 330.23 234.2C331.11 233.533 331.55 232.587 331.55 231.36C331.55 230.107 331.096 229.213 330.19 228.68C329.283 228.12 327.87 227.84 325.95 227.84H321.91ZM321.91 239.52V247.76H326.43C330.643 247.76 332.75 246.347 332.75 243.52C332.75 242.08 332.256 241.053 331.27 240.44C330.283 239.827 328.736 239.52 326.63 239.52H321.91ZM343.768 252V223.68H348.808V235.12H362.048V223.68H367.088V252H362.048V239.44H348.808V252H343.768ZM374.338 252V223.68H379.378V244.4H379.498L392.778 223.68H398.218V252H393.178V231.44H393.098L379.858 252H374.338ZM405.456 252V223.68H410.496V235.92H410.616L422.456 223.68H429.256L416.016 236.76L430.136 252H423.056L410.616 237.8H410.496V252H405.456ZM430.594 252L442.914 223.68H447.274L459.474 252H453.714L451.074 245.52H438.794L436.234 252H430.594ZM440.514 241.2H449.314L444.954 229.68L440.514 241.2Z"/>
</mask>
<path d="M199.4 181.76C199.4 177.28 200.814 173.693 203.64 171C206.494 168.307 210.134 166.96 214.56 166.96C219.04 166.96 222.707 168.307 225.56 171C228.414 173.693 229.84 177.28 229.84 181.76C229.84 186.16 228.4 189.76 225.52 192.56C222.667 195.333 219.014 196.72 214.56 196.72C210.16 196.72 206.534 195.333 203.68 192.56C200.827 189.76 199.4 186.16 199.4 181.76ZM204.88 181.76C204.88 184.8 205.787 187.307 207.6 189.28C209.414 191.227 211.747 192.2 214.6 192.2C217.48 192.2 219.827 191.227 221.64 189.28C223.454 187.307 224.36 184.8 224.36 181.76C224.36 178.8 223.454 176.333 221.64 174.36C219.854 172.387 217.507 171.4 214.6 171.4C211.72 171.4 209.374 172.387 207.56 174.36C205.774 176.333 204.88 178.8 204.88 181.76ZM240.215 196V172.08H231.535V167.68H253.935V172.08H245.255V196H240.215ZM258.229 196V167.68H281.309V196H276.269V172.08H263.269V196H258.229ZM288.565 196V167.68H297.805C304.925 167.68 308.485 170.413 308.485 175.88C308.485 178.813 307.472 180.947 305.445 182.28C303.418 183.613 300.765 184.28 297.485 184.28H293.605V196H288.565ZM293.605 180.04H297.125C301.312 180.04 303.405 178.653 303.405 175.88C303.405 174.36 302.845 173.32 301.725 172.76C300.632 172.2 299.152 171.92 297.285 171.92H293.605V180.04ZM308.156 196L320.476 167.68H324.836L337.036 196H331.276L328.636 189.52H316.356L313.796 196H308.156ZM318.076 185.2H326.876L322.516 173.68L318.076 185.2ZM340.838 196V167.68H351.878C354.278 167.68 356.318 168.267 357.998 169.44C359.705 170.613 360.558 172.4 360.558 174.8C360.558 176.347 360.118 177.653 359.238 178.72C358.358 179.787 357.158 180.547 355.638 181V181.08C357.478 181.32 358.958 182.027 360.078 183.2C361.198 184.373 361.758 185.893 361.758 187.76C361.758 189.227 361.452 190.52 360.838 191.64C360.252 192.733 359.438 193.587 358.398 194.2C357.358 194.813 356.225 195.267 354.998 195.56C353.772 195.853 352.452 196 351.038 196H340.838ZM345.878 171.84V179.2H350.358C352.038 179.2 353.318 178.867 354.198 178.2C355.078 177.533 355.518 176.587 355.518 175.36C355.518 174.107 355.065 173.213 354.158 172.68C353.252 172.12 351.838 171.84 349.918 171.84H345.878ZM345.878 183.52V191.76H350.398C354.612 191.76 356.718 190.347 356.718 187.52C356.718 186.08 356.225 185.053 355.238 184.44C354.252 183.827 352.705 183.52 350.598 183.52H345.878ZM367.737 196V167.68H372.777V178.92H376.977C380.177 178.92 382.75 179.627 384.697 181.04C386.67 182.453 387.657 184.587 387.657 187.44C387.657 190.267 386.67 192.4 384.697 193.84C382.75 195.28 380.203 196 377.057 196H367.737ZM372.777 191.76H376.577C380.577 191.76 382.577 190.333 382.577 187.48C382.577 186.067 382.057 185 381.017 184.28C379.977 183.533 378.497 183.16 376.577 183.16H372.777V191.76ZM498.556 227.28L494.716 230.32C494.023 229.36 493.076 228.64 491.876 228.16C490.703 227.653 489.503 227.4 488.276 227.4C485.396 227.4 483.036 228.387 481.196 230.36C479.383 232.333 478.476 234.8 478.476 237.76C478.476 240.853 479.343 243.373 481.076 245.32C482.836 247.24 485.169 248.2 488.076 248.2C491.063 248.2 493.356 247.107 494.956 244.92L498.996 247.76C496.356 251.067 492.703 252.72 488.036 252.72C483.609 252.72 479.983 251.333 477.156 248.56C474.329 245.76 472.916 242.16 472.916 237.76C472.916 233.307 474.356 229.733 477.236 227.04C480.143 224.32 483.823 222.96 488.276 222.96C490.249 222.96 492.183 223.333 494.076 224.08C495.996 224.8 497.489 225.867 498.556 227.28ZM198.309 308L210.629 279.68H214.989L227.189 308H221.429L218.789 301.52H206.509L203.949 308H198.309ZM208.229 297.2H217.029L212.669 285.68L208.229 297.2ZM230.991 308V279.68H236.031V291.92H236.151L247.991 279.68H254.791L241.551 292.76L255.671 308H248.591L236.151 293.8H236.031V308H230.991ZM265.289 308V284.08H256.609V279.68H279.009V284.08H270.329V308H265.289ZM286.492 308.4C285.105 308.4 283.905 308.28 282.892 308.04L283.532 303.56C284.305 303.8 285.092 303.92 285.892 303.92C286.932 303.92 287.759 303.667 288.372 303.16C289.012 302.653 289.639 301.8 290.252 300.6L291.132 298.92L280.252 279.68H286.092L293.972 294.24L301.412 279.68H307.052L295.292 301.48C294.012 303.88 292.759 305.64 291.532 306.76C290.332 307.853 288.652 308.4 286.492 308.4ZM304.144 308L316.464 279.68H320.824L333.024 308H327.264L324.624 301.52H312.344L309.784 308H304.144ZM314.064 297.2H322.864L318.504 285.68L314.064 297.2ZM337.815 308.28C336.455 308.28 335.335 308.147 334.455 307.88L334.975 303.44C335.535 303.627 336.109 303.72 336.695 303.72C338.695 303.72 340.135 302.547 341.015 300.2C341.922 297.853 342.375 293.707 342.375 287.76V279.68H361.855V308H356.815V284.08H347.215V288.44C347.215 295.4 346.482 300.453 345.015 303.6C343.575 306.72 341.175 308.28 337.815 308.28ZM369.077 308V279.68H374.117V290.92H378.317C381.517 290.92 384.09 291.627 386.037 293.04C388.01 294.453 388.997 296.587 388.997 299.44C388.997 302.267 388.01 304.4 386.037 305.84C384.09 307.28 381.543 308 378.397 308H369.077ZM374.117 303.76H377.917C381.917 303.76 383.917 302.333 383.917 299.48C383.917 298.067 383.397 297 382.357 296.28C381.317 295.533 379.837 295.16 377.917 295.16H374.117V303.76ZM394.53 308V279.68H399.57V291.12H412.81V279.68H417.85V308H412.81V295.44H399.57V308H394.53ZM448.94 308V279.68H453.98V308H448.94ZM425.1 308V279.68H430.14V290.92H434.34C437.54 290.92 440.113 291.627 442.06 293.04C444.033 294.453 445.02 296.587 445.02 299.44C445.02 302.267 444.033 304.4 442.06 305.84C440.113 307.28 437.567 308 434.42 308H425.1ZM430.14 303.76H433.94C437.94 303.76 439.94 302.333 439.94 299.48C439.94 298.067 439.42 297 438.38 296.28C437.34 295.533 435.86 295.16 433.94 295.16H430.14V303.76ZM461.217 308V279.68H469.097L476.457 299.8H476.577L483.857 279.68H491.777V308H486.777V285.24H486.697L478.097 308H474.577L466.097 285.24H466.017V308H461.217ZM499.014 308V279.68H504.054V300.4H504.174L517.454 279.68H522.894V308H517.854V287.44H517.774L504.534 308H499.014ZM240.65 349.76C240.65 345.28 242.064 341.693 244.89 339C247.744 336.307 251.384 334.96 255.81 334.96C260.29 334.96 263.957 336.307 266.81 339C269.664 341.693 271.09 345.28 271.09 349.76C271.09 354.16 269.65 357.76 266.77 360.56C263.917 363.333 260.264 364.72 255.81 364.72C251.41 364.72 247.784 363.333 244.93 360.56C242.077 357.76 240.65 354.16 240.65 349.76ZM246.13 349.76C246.13 352.8 247.037 355.307 248.85 357.28C250.664 359.227 252.997 360.2 255.85 360.2C258.73 360.2 261.077 359.227 262.89 357.28C264.704 355.307 265.61 352.8 265.61 349.76C265.61 346.8 264.704 344.333 262.89 342.36C261.104 340.387 258.757 339.4 255.85 339.4C252.97 339.4 250.624 340.387 248.81 342.36C247.024 344.333 246.13 346.8 246.13 349.76ZM298.636 370.44V364H276.956V335.68H281.996V359.52H294.996V335.68H300.036V359.52H303.156V370.44H298.636ZM308.151 364V335.68H326.911V340.08H313.191V347.28H326.191V351.52H313.191V359.52H327.631V364H308.151ZM333.565 364V335.68H338.605V347.12H351.845V335.68H356.885V364H351.845V351.44H338.605V364H333.565ZM364.135 364V335.68H369.175V347.92H369.295L381.135 335.68H387.935L374.695 348.76L388.815 364H381.735L369.295 349.8H369.175V364H364.135ZM389.273 364L401.593 335.68H405.953L418.153 364H412.393L409.753 357.52H397.473L394.913 364H389.273ZM399.193 353.2H407.993L403.633 341.68L399.193 353.2ZM421.956 364V335.68H429.836L437.196 355.8H437.316L444.596 335.68H452.516V364H447.516V341.24H447.436L438.836 364H435.316L426.836 341.24H426.756V364H421.956ZM459.752 364V335.68H464.792V356.4H464.912L478.192 335.68H483.632V364H478.592V343.44H478.512L465.272 364H459.752Z" fill="#1A1A1A"/>
<path d="M415.83 196.72V193.28C412.017 193.227 408.87 192.12 406.39 189.96C403.91 187.773 402.67 184.92 402.67 181.4C402.67 177.667 403.843 174.787 406.19 172.76C408.563 170.733 411.777 169.653 415.83 169.52V166.96H421.03V169.52C425.083 169.653 428.283 170.733 430.63 172.76C433.003 174.787 434.19 177.667 434.19 181.4C434.19 184.92 432.95 187.773 430.47 189.96C427.99 192.12 424.843 193.227 421.03 193.28V196.72H415.83ZM415.83 188.84V173.92C413.243 174.107 411.31 174.867 410.03 176.2C408.75 177.533 408.11 179.28 408.11 181.44C408.11 185.867 410.683 188.333 415.83 188.84ZM421.03 188.84C426.177 188.333 428.75 185.867 428.75 181.44C428.75 179.28 428.11 177.533 426.83 176.2C425.55 174.867 423.617 174.107 421.03 173.92V188.84ZM438.557 181.76C438.557 177.28 439.97 173.693 442.797 171C445.65 168.307 449.29 166.96 453.717 166.96C458.197 166.96 461.863 168.307 464.717 171C467.57 173.693 468.997 177.28 468.997 181.76C468.997 186.16 467.557 189.76 464.677 192.56C461.823 195.333 458.17 196.72 453.717 196.72C449.317 196.72 445.69 195.333 442.837 192.56C439.983 189.76 438.557 186.16 438.557 181.76ZM444.037 181.76C444.037 184.8 444.943 187.307 446.757 189.28C448.57 191.227 450.903 192.2 453.757 192.2C456.637 192.2 458.983 191.227 460.797 189.28C462.61 187.307 463.517 184.8 463.517 181.76C463.517 178.8 462.61 176.333 460.797 174.36C459.01 172.387 456.663 171.4 453.757 171.4C450.877 171.4 448.53 172.387 446.717 174.36C444.93 176.333 444.037 178.8 444.037 181.76ZM479.371 196V172.08H470.691V167.68H493.091V172.08H484.411V196H479.371ZM494.814 181.76C494.814 177.28 496.228 173.693 499.054 171C501.908 168.307 505.548 166.96 509.974 166.96C514.454 166.96 518.121 168.307 520.974 171C523.828 173.693 525.254 177.28 525.254 181.76C525.254 186.16 523.814 189.76 520.934 192.56C518.081 195.333 514.428 196.72 509.974 196.72C505.574 196.72 501.948 195.333 499.094 192.56C496.241 189.76 494.814 186.16 494.814 181.76ZM500.294 181.76C500.294 184.8 501.201 187.307 503.014 189.28C504.828 191.227 507.161 192.2 510.014 192.2C512.894 192.2 515.241 191.227 517.054 189.28C518.868 187.307 519.774 184.8 519.774 181.76C519.774 178.8 518.868 176.333 517.054 174.36C515.268 172.387 512.921 171.4 510.014 171.4C507.134 171.4 504.788 172.387 502.974 174.36C501.188 176.333 500.294 178.8 500.294 181.76ZM226.192 258.44V247.52H228.592C231.472 244.24 232.912 238.72 232.912 230.96V223.68H252.712V247.52H255.872V258.44H251.352V252H230.712V258.44H226.192ZM234.272 247.52H247.672V228.08H237.792V231.48C237.792 238.787 236.619 244.133 234.272 247.52ZM260.885 252V223.68H265.925V235.12H279.165V223.68H284.205V252H279.165V239.44H265.925V252H260.885ZM291.456 252V223.68H310.216V228.08H296.496V235.28H309.496V239.52H296.496V247.52H310.936V252H291.456ZM316.87 252V223.68H327.91C330.31 223.68 332.35 224.267 334.03 225.44C335.736 226.613 336.59 228.4 336.59 230.8C336.59 232.347 336.15 233.653 335.27 234.72C334.39 235.787 333.19 236.547 331.67 237V237.08C333.51 237.32 334.99 238.027 336.11 239.2C337.23 240.373 337.79 241.893 337.79 243.76C337.79 245.227 337.483 246.52 336.87 247.64C336.283 248.733 335.47 249.587 334.43 250.2C333.39 250.813 332.256 251.267 331.03 251.56C329.803 251.853 328.483 252 327.07 252H316.87ZM321.91 227.84V235.2H326.39C328.07 235.2 329.35 234.867 330.23 234.2C331.11 233.533 331.55 232.587 331.55 231.36C331.55 230.107 331.096 229.213 330.19 228.68C329.283 228.12 327.87 227.84 325.95 227.84H321.91ZM321.91 239.52V247.76H326.43C330.643 247.76 332.75 246.347 332.75 243.52C332.75 242.08 332.256 241.053 331.27 240.44C330.283 239.827 328.736 239.52 326.63 239.52H321.91ZM343.768 252V223.68H348.808V235.12H362.048V223.68H367.088V252H362.048V239.44H348.808V252H343.768ZM374.338 252V223.68H379.378V244.4H379.498L392.778 223.68H398.218V252H393.178V231.44H393.098L379.858 252H374.338ZM405.456 252V223.68H410.496V235.92H410.616L422.456 223.68H429.256L416.016 236.76L430.136 252H423.056L410.616 237.8H410.496V252H405.456ZM430.594 252L442.914 223.68H447.274L459.474 252H453.714L451.074 245.52H438.794L436.234 252H430.594ZM440.514 241.2H449.314L444.954 229.68L440.514 241.2Z" fill="#DDFF53"/>
<path d="M203.64 171L202.954 170.273L202.95 170.276L203.64 171ZM225.56 171L224.874 171.727L225.56 171ZM225.52 192.56L226.217 193.277L226.217 193.277L225.52 192.56ZM203.68 192.56L202.98 193.274L202.983 193.277L203.68 192.56ZM207.6 189.28L206.864 189.957L206.869 189.962L207.6 189.28ZM221.64 189.28L222.372 189.962L222.377 189.957L221.64 189.28ZM221.64 174.36L220.899 175.031L220.904 175.037L221.64 174.36ZM207.56 174.36L206.824 173.683L206.819 173.689L207.56 174.36ZM200.4 181.76C200.4 177.509 201.731 174.2 204.33 171.724L202.95 170.276C199.896 173.187 198.4 177.051 198.4 181.76H200.4ZM204.327 171.727C206.97 169.232 210.353 167.96 214.56 167.96V165.96C209.914 165.96 206.017 167.381 202.954 170.273L204.327 171.727ZM214.56 167.96C218.824 167.96 222.233 169.234 224.874 171.727L226.247 170.273C223.181 167.379 219.257 165.96 214.56 165.96V167.96ZM224.874 171.727C227.498 174.204 228.84 177.512 228.84 181.76H230.84C230.84 177.048 229.329 173.183 226.247 170.273L224.874 171.727ZM228.84 181.76C228.84 185.918 227.49 189.25 224.823 191.843L226.217 193.277C229.311 190.27 230.84 186.402 230.84 181.76H228.84ZM224.823 191.843C222.179 194.413 218.787 195.72 214.56 195.72V197.72C219.24 197.72 223.154 196.254 226.217 193.277L224.823 191.843ZM214.56 195.72C210.39 195.72 207.023 194.415 204.377 191.843L202.983 193.277C206.044 196.252 209.93 197.72 214.56 197.72V195.72ZM204.381 191.846C201.739 189.254 200.4 185.921 200.4 181.76H198.4C198.4 186.399 199.915 190.266 202.98 193.274L204.381 191.846ZM203.88 181.76C203.88 185.014 204.858 187.774 206.864 189.957L208.337 188.603C206.716 186.84 205.88 184.586 205.88 181.76H203.88ZM206.869 189.962C208.886 192.127 211.492 193.2 214.6 193.2V191.2C212.002 191.2 209.941 190.326 208.332 188.598L206.869 189.962ZM214.6 193.2C217.732 193.2 220.353 192.129 222.372 189.962L220.909 188.598C219.301 190.324 217.228 191.2 214.6 191.2V193.2ZM222.377 189.957C224.382 187.774 225.36 185.014 225.36 181.76H223.36C223.36 184.586 222.525 186.84 220.904 188.603L222.377 189.957ZM225.36 181.76C225.36 178.578 224.378 175.861 222.377 173.683L220.904 175.037C222.529 176.806 223.36 179.022 223.36 181.76H225.36ZM222.382 173.689C220.387 171.486 217.76 170.4 214.6 170.4V172.4C217.254 172.4 219.321 173.288 220.899 175.031L222.382 173.689ZM214.6 170.4C211.464 170.4 208.842 171.487 206.824 173.683L208.297 175.037C209.905 173.286 211.977 172.4 214.6 172.4V170.4ZM206.819 173.689C204.847 175.867 203.88 178.582 203.88 181.76H205.88C205.88 179.018 206.7 176.8 208.302 175.031L206.819 173.689ZM240.215 196H239.215V197H240.215V196ZM240.215 172.08H241.215V171.08H240.215V172.08ZM231.535 172.08H230.535V173.08H231.535V172.08ZM231.535 167.68V166.68H230.535V167.68H231.535ZM253.935 167.68H254.935V166.68H253.935V167.68ZM253.935 172.08V173.08H254.935V172.08H253.935ZM245.255 172.08V171.08H244.255V172.08H245.255ZM245.255 196V197H246.255V196H245.255ZM241.215 196V172.08H239.215V196H241.215ZM240.215 171.08H231.535V173.08H240.215V171.08ZM232.535 172.08V167.68H230.535V172.08H232.535ZM231.535 168.68H253.935V166.68H231.535V168.68ZM252.935 167.68V172.08H254.935V167.68H252.935ZM253.935 171.08H245.255V173.08H253.935V171.08ZM244.255 172.08V196H246.255V172.08H244.255ZM245.255 195H240.215V197H245.255V195ZM258.229 196H257.229V197H258.229V196ZM258.229 167.68V166.68H257.229V167.68H258.229ZM281.309 167.68H282.309V166.68H281.309V167.68ZM281.309 196V197H282.309V196H281.309ZM276.269 196H275.269V197H276.269V196ZM276.269 172.08H277.269V171.08H276.269V172.08ZM263.269 172.08V171.08H262.269V172.08H263.269ZM263.269 196V197H264.269V196H263.269ZM259.229 196V167.68H257.229V196H259.229ZM258.229 168.68H281.309V166.68H258.229V168.68ZM280.309 167.68V196H282.309V167.68H280.309ZM281.309 195H276.269V197H281.309V195ZM277.269 196V172.08H275.269V196H277.269ZM276.269 171.08H263.269V173.08H276.269V171.08ZM262.269 172.08V196H264.269V172.08H262.269ZM263.269 195H258.229V197H263.269V195ZM288.565 196H287.565V197H288.565V196ZM288.565 167.68V166.68H287.565V167.68H288.565ZM305.445 182.28L304.895 181.445L305.445 182.28ZM293.605 184.28V183.28H292.605V184.28H293.605ZM293.605 196V197H294.605V196H293.605ZM293.605 180.04H292.605V181.04H293.605V180.04ZM301.725 172.76L301.269 173.65L301.278 173.654L301.725 172.76ZM293.605 171.92V170.92H292.605V171.92H293.605ZM289.565 196V167.68H287.565V196H289.565ZM288.565 168.68H297.805V166.68H288.565V168.68ZM297.805 168.68C301.265 168.68 303.677 169.349 305.206 170.523C306.685 171.659 307.485 173.382 307.485 175.88H309.485C309.485 172.911 308.505 170.534 306.424 168.937C304.393 167.378 301.465 166.68 297.805 166.68V168.68ZM307.485 175.88C307.485 178.558 306.579 180.337 304.895 181.445L305.995 183.115C308.364 181.557 309.485 179.069 309.485 175.88H307.485ZM304.895 181.445C303.08 182.639 300.637 183.28 297.485 183.28V185.28C300.893 185.28 303.757 184.588 305.995 183.115L304.895 181.445ZM297.485 183.28H293.605V185.28H297.485V183.28ZM292.605 184.28V196H294.605V184.28H292.605ZM293.605 195H288.565V197H293.605V195ZM293.605 181.04H297.125V179.04H293.605V181.04ZM297.125 181.04C299.297 181.04 301.1 180.686 302.387 179.834C303.746 178.933 304.405 177.561 304.405 175.88H302.405C302.405 176.973 302.017 177.68 301.283 178.166C300.476 178.701 299.14 179.04 297.125 179.04V181.04ZM304.405 175.88C304.405 175.001 304.243 174.187 303.865 173.486C303.482 172.773 302.905 172.232 302.172 171.866L301.278 173.654C301.665 173.848 301.928 174.107 302.104 174.434C302.287 174.773 302.405 175.239 302.405 175.88H304.405ZM302.181 171.87C300.892 171.21 299.235 170.92 297.285 170.92V172.92C299.068 172.92 300.371 173.19 301.269 173.65L302.181 171.87ZM297.285 170.92H293.605V172.92H297.285V170.92ZM292.605 171.92V180.04H294.605V171.92H292.605ZM308.156 196L307.239 195.601L306.631 197H308.156V196ZM320.476 167.68V166.68H319.821L319.559 167.281L320.476 167.68ZM324.836 167.68L325.755 167.284L325.494 166.68H324.836V167.68ZM337.036 196V197H338.556L337.955 195.604L337.036 196ZM331.276 196L330.35 196.377L330.604 197H331.276V196ZM328.636 189.52L329.562 189.143L329.309 188.52H328.636V189.52ZM316.356 189.52V188.52H315.676L315.426 189.153L316.356 189.52ZM313.796 196V197H314.476L314.726 196.367L313.796 196ZM318.076 185.2L317.143 184.84L316.619 186.2H318.076V185.2ZM326.876 185.2V186.2H328.324L327.811 184.846L326.876 185.2ZM322.516 173.68L323.451 173.326L322.525 170.877L321.583 173.32L322.516 173.68ZM309.073 196.399L321.393 168.079L319.559 167.281L307.239 195.601L309.073 196.399ZM320.476 168.68H324.836V166.68H320.476V168.68ZM323.918 168.076L336.118 196.396L337.955 195.604L325.755 167.284L323.918 168.076ZM337.036 195H331.276V197H337.036V195ZM332.202 195.623L329.562 189.143L327.71 189.897L330.35 196.377L332.202 195.623ZM328.636 188.52H316.356V190.52H328.636V188.52ZM315.426 189.153L312.866 195.633L314.726 196.367L317.286 189.887L315.426 189.153ZM313.796 195H308.156V197H313.796V195ZM318.076 186.2H326.876V184.2H318.076V186.2ZM327.811 184.846L323.451 173.326L321.581 174.034L325.941 185.554L327.811 184.846ZM321.583 173.32L317.143 184.84L319.009 185.56L323.449 174.04L321.583 173.32ZM340.838 196H339.838V197H340.838V196ZM340.838 167.68V166.68H339.838V167.68H340.838ZM357.998 169.44L357.426 170.26L357.432 170.264L357.998 169.44ZM359.238 178.72L360.01 179.356L359.238 178.72ZM355.638 181L355.353 180.042L354.638 180.255V181H355.638ZM355.638 181.08H354.638V181.958L355.509 182.072L355.638 181.08ZM360.838 191.64L359.961 191.16L359.957 191.167L360.838 191.64ZM358.398 194.2L357.89 193.339L358.398 194.2ZM345.878 171.84V170.84H344.878V171.84H345.878ZM345.878 179.2H344.878V180.2H345.878V179.2ZM354.198 178.2L354.802 178.997L354.198 178.2ZM354.158 172.68L353.633 173.531L353.642 173.536L353.651 173.542L354.158 172.68ZM345.878 183.52V182.52H344.878V183.52H345.878ZM345.878 191.76H344.878V192.76H345.878V191.76ZM341.838 196V167.68H339.838V196H341.838ZM340.838 168.68H351.878V166.68H340.838V168.68ZM351.878 168.68C354.11 168.68 355.941 169.223 357.426 170.26L358.571 168.62C356.696 167.31 354.447 166.68 351.878 166.68V168.68ZM357.432 170.264C358.821 171.219 359.558 172.669 359.558 174.8H361.558C361.558 172.131 360.589 170.008 358.565 168.616L357.432 170.264ZM359.558 174.8C359.558 176.144 359.182 177.217 358.467 178.084L360.01 179.356C361.055 178.089 361.558 176.55 361.558 174.8H359.558ZM358.467 178.084C357.731 178.976 356.711 179.637 355.353 180.042L355.924 181.958C357.606 181.457 358.986 180.598 360.01 179.356L358.467 178.084ZM354.638 181V181.08H356.638V181H354.638ZM355.509 182.072C357.157 182.287 358.415 182.906 359.355 183.89L360.802 182.51C359.502 181.147 357.8 180.353 355.768 180.088L355.509 182.072ZM359.355 183.89C360.271 184.85 360.758 186.109 360.758 187.76H362.758C362.758 185.678 362.126 183.897 360.802 182.51L359.355 183.89ZM360.758 187.76C360.758 189.084 360.483 190.208 359.961 191.16L361.715 192.12C362.421 190.832 362.758 189.369 362.758 187.76H360.758ZM359.957 191.167C359.455 192.104 358.768 192.821 357.89 193.339L358.906 195.061C360.108 194.352 361.049 193.363 361.72 192.113L359.957 191.167ZM357.89 193.339C356.94 193.899 355.9 194.316 354.766 194.587L355.231 196.533C356.55 196.217 357.777 195.727 358.906 195.061L357.89 193.339ZM354.766 194.587C353.624 194.861 352.383 195 351.038 195V197C352.521 197 353.92 196.846 355.231 196.533L354.766 194.587ZM351.038 195H340.838V197H351.038V195ZM344.878 171.84V179.2H346.878V171.84H344.878ZM345.878 180.2H350.358V178.2H345.878V180.2ZM350.358 180.2C352.149 180.2 353.679 179.848 354.802 178.997L353.595 177.403C352.958 177.885 351.928 178.2 350.358 178.2V180.2ZM354.802 178.997C355.962 178.118 356.518 176.86 356.518 175.36H354.518C354.518 176.314 354.195 176.948 353.595 177.403L354.802 178.997ZM356.518 175.36C356.518 173.832 355.941 172.568 354.665 171.818L353.651 173.542C354.189 173.858 354.518 174.381 354.518 175.36H356.518ZM354.684 171.829C353.537 171.121 351.896 170.84 349.918 170.84V172.84C351.781 172.84 352.966 173.119 353.633 173.531L354.684 171.829ZM349.918 170.84H345.878V172.84H349.918V170.84ZM344.878 183.52V191.76H346.878V183.52H344.878ZM345.878 192.76H350.398V190.76H345.878V192.76ZM350.398 192.76C352.585 192.76 354.401 192.399 355.696 191.53C357.061 190.614 357.718 189.222 357.718 187.52H355.718C355.718 188.645 355.323 189.372 354.581 189.87C353.769 190.414 352.425 190.76 350.398 190.76V192.76ZM357.718 187.52C357.718 185.83 357.119 184.432 355.766 183.591L354.71 185.289C355.331 185.675 355.718 186.33 355.718 187.52H357.718ZM355.766 183.591C354.538 182.827 352.761 182.52 350.598 182.52V184.52C352.649 184.52 353.965 184.826 354.71 185.289L355.766 183.591ZM350.598 182.52H345.878V184.52H350.598V182.52ZM367.737 196H366.737V197H367.737V196ZM367.737 167.68V166.68H366.737V167.68H367.737ZM372.777 167.68H373.777V166.68H372.777V167.68ZM372.777 178.92H371.777V179.92H372.777V178.92ZM384.697 181.04L384.109 181.849L384.115 181.853L384.697 181.04ZM384.697 193.84L384.107 193.032L384.102 193.036L384.697 193.84ZM372.777 191.76H371.777V192.76H372.777V191.76ZM381.017 184.28L380.434 185.092L380.441 185.097L380.448 185.102L381.017 184.28ZM372.777 183.16V182.16H371.777V183.16H372.777ZM368.737 196V167.68H366.737V196H368.737ZM367.737 168.68H372.777V166.68H367.737V168.68ZM371.777 167.68V178.92H373.777V167.68H371.777ZM372.777 179.92H376.977V177.92H372.777V179.92ZM376.977 179.92C380.035 179.92 382.382 180.595 384.109 181.849L385.284 180.231C383.118 178.658 380.319 177.92 376.977 177.92V179.92ZM384.115 181.853C385.777 183.044 386.657 184.845 386.657 187.44H388.657C388.657 184.329 387.563 181.863 385.279 180.227L384.115 181.853ZM386.657 187.44C386.657 190.005 385.78 191.812 384.107 193.032L385.286 194.648C387.561 192.988 388.657 190.529 388.657 187.44H386.657ZM384.102 193.036C382.373 194.315 380.054 195 377.057 195V197C380.353 197 383.127 196.245 385.292 194.644L384.102 193.036ZM377.057 195H367.737V197H377.057V195ZM372.777 192.76H376.577V190.76H372.777V192.76ZM376.577 192.76C378.665 192.76 380.411 192.393 381.658 191.504C382.966 190.571 383.577 189.17 383.577 187.48H381.577C381.577 188.643 381.188 189.382 380.496 189.876C379.742 190.414 378.488 190.76 376.577 190.76V192.76ZM383.577 187.48C383.577 185.783 382.931 184.389 381.586 183.458L380.448 185.102C381.183 185.611 381.577 186.35 381.577 187.48H383.577ZM381.6 183.468C380.324 182.552 378.607 182.16 376.577 182.16V184.16C378.386 184.16 379.629 184.515 380.434 185.092L381.6 183.468ZM376.577 182.16H372.777V184.16H376.577V182.16ZM371.777 183.16V191.76H373.777V183.16H371.777ZM415.83 196.72H414.83V197.72H415.83V196.72ZM415.83 193.28H416.83V192.294L415.844 192.28L415.83 193.28ZM406.39 189.96L405.729 190.71L405.733 190.714L406.39 189.96ZM406.19 172.76L405.541 172L405.536 172.003L406.19 172.76ZM415.83 169.52L415.863 170.519L416.83 170.488V169.52H415.83ZM415.83 166.96V165.96H414.83V166.96H415.83ZM421.03 166.96H422.03V165.96H421.03V166.96ZM421.03 169.52H420.03V170.488L420.997 170.519L421.03 169.52ZM430.63 172.76L429.976 173.517L429.981 173.52L430.63 172.76ZM430.47 189.96L431.127 190.714L431.131 190.71L430.47 189.96ZM421.03 193.28L421.016 192.28L420.03 192.294V193.28H421.03ZM421.03 196.72V197.72H422.03V196.72H421.03ZM415.83 188.84L415.732 189.835L416.83 189.943V188.84H415.83ZM415.83 173.92H416.83V172.845L415.758 172.923L415.83 173.92ZM410.03 176.2L409.309 175.507L410.03 176.2ZM421.03 188.84H420.03V189.943L421.128 189.835L421.03 188.84ZM426.83 176.2L427.551 175.507L426.83 176.2ZM421.03 173.92L421.102 172.923L420.03 172.845V173.92H421.03ZM416.83 196.72V193.28H414.83V196.72H416.83ZM415.844 192.28C412.227 192.23 409.32 191.186 407.047 189.206L405.733 190.714C408.42 193.054 411.806 194.224 415.816 194.28L415.844 192.28ZM407.051 189.21C404.802 187.227 403.67 184.654 403.67 181.4H401.67C401.67 185.186 403.018 188.32 405.729 190.71L407.051 189.21ZM403.67 181.4C403.67 177.892 404.762 175.315 406.844 173.517L405.536 172.003C402.925 174.258 401.67 177.441 401.67 181.4H403.67ZM406.839 173.52C408.994 171.68 411.968 170.648 415.863 170.519L415.797 168.521C411.586 168.659 408.132 169.787 405.541 172L406.839 173.52ZM416.83 169.52V166.96H414.83V169.52H416.83ZM415.83 167.96H421.03V165.96H415.83V167.96ZM420.03 166.96V169.52H422.03V166.96H420.03ZM420.997 170.519C424.893 170.648 427.85 171.68 429.976 173.517L431.284 172.003C428.717 169.786 425.274 168.659 421.063 168.521L420.997 170.519ZM429.981 173.52C432.087 175.32 433.19 177.896 433.19 181.4H435.19C435.19 177.437 433.919 174.254 431.279 172L429.981 173.52ZM433.19 181.4C433.19 184.654 432.058 187.227 429.809 189.21L431.131 190.71C433.842 188.32 435.19 185.186 435.19 181.4H433.19ZM429.813 189.206C427.54 191.186 424.633 192.23 421.016 192.28L421.044 194.28C425.054 194.224 428.44 193.054 431.127 190.714L429.813 189.206ZM420.03 193.28V196.72H422.03V193.28H420.03ZM421.03 195.72H415.83V197.72H421.03V195.72ZM416.83 188.84V173.92H414.83V188.84H416.83ZM415.758 172.923C413.024 173.12 410.818 173.935 409.309 175.507L410.751 176.893C411.802 175.798 413.463 175.093 415.902 174.917L415.758 172.923ZM409.309 175.507C407.82 177.058 407.11 179.069 407.11 181.44H409.11C409.11 179.491 409.68 178.008 410.751 176.893L409.309 175.507ZM407.11 181.44C407.11 183.856 407.819 185.866 409.348 187.332C410.855 188.777 413.033 189.569 415.732 189.835L415.928 187.845C413.48 187.604 411.798 186.91 410.732 185.888C409.688 184.887 409.11 183.451 409.11 181.44H407.11ZM421.128 189.835C423.827 189.569 426.005 188.777 427.512 187.332C429.041 185.866 429.75 183.856 429.75 181.44H427.75C427.75 183.451 427.172 184.887 426.128 185.888C425.062 186.91 423.38 187.604 420.932 187.845L421.128 189.835ZM429.75 181.44C429.75 179.069 429.04 177.058 427.551 175.507L426.109 176.893C427.18 178.008 427.75 179.491 427.75 181.44H429.75ZM427.551 175.507C426.042 173.935 423.836 173.12 421.102 172.923L420.958 174.917C423.397 175.093 425.058 175.798 426.109 176.893L427.551 175.507ZM420.03 173.92V188.84H422.03V173.92H420.03ZM442.797 171L442.11 170.273L442.107 170.276L442.797 171ZM464.717 171L464.03 171.727L464.717 171ZM464.677 192.56L465.374 193.277L465.374 193.277L464.677 192.56ZM442.837 192.56L442.136 193.274L442.14 193.277L442.837 192.56ZM446.757 189.28L446.02 189.957L446.025 189.962L446.757 189.28ZM460.797 189.28L461.528 189.962L461.533 189.957L460.797 189.28ZM460.797 174.36L460.055 175.031L460.06 175.037L460.797 174.36ZM446.717 174.36L445.98 173.683L445.975 173.689L446.717 174.36ZM439.557 181.76C439.557 177.509 440.888 174.2 443.486 171.724L442.107 170.276C439.052 173.187 437.557 177.051 437.557 181.76H439.557ZM443.483 171.727C446.126 169.232 449.51 167.96 453.717 167.96V165.96C449.07 165.96 445.173 167.381 442.11 170.273L443.483 171.727ZM453.717 167.96C457.98 167.96 461.389 169.234 464.03 171.727L465.403 170.273C462.337 167.379 458.413 165.96 453.717 165.96V167.96ZM464.03 171.727C466.654 174.204 467.997 177.512 467.997 181.76H469.997C469.997 177.048 468.486 173.183 465.403 170.273L464.03 171.727ZM467.997 181.76C467.997 185.918 466.646 189.25 463.979 191.843L465.374 193.277C468.467 190.27 469.997 186.402 469.997 181.76H467.997ZM463.98 191.843C461.336 194.413 457.943 195.72 453.717 195.72V197.72C458.396 197.72 462.311 196.254 465.374 193.277L463.98 191.843ZM453.717 195.72C449.547 195.72 446.18 194.415 443.533 191.843L442.14 193.277C445.2 196.252 449.086 197.72 453.717 197.72V195.72ZM443.537 191.846C440.895 189.254 439.557 185.921 439.557 181.76H437.557C437.557 186.399 439.071 190.266 442.136 193.274L443.537 191.846ZM443.036 181.76C443.036 185.014 444.014 187.774 446.02 189.957L447.493 188.603C445.872 186.84 445.036 184.586 445.036 181.76H443.036ZM446.025 189.962C448.042 192.127 450.648 193.2 453.757 193.2V191.2C451.158 191.2 449.098 190.326 447.488 188.598L446.025 189.962ZM453.757 193.2C456.888 193.2 459.509 192.129 461.528 189.962L460.065 188.598C458.457 190.324 456.385 191.2 453.757 191.2V193.2ZM461.533 189.957C463.539 187.774 464.517 185.014 464.517 181.76H462.517C462.517 184.586 461.681 186.84 460.06 188.603L461.533 189.957ZM464.517 181.76C464.517 178.578 463.534 175.861 461.533 173.683L460.06 175.037C461.686 176.806 462.517 179.022 462.517 181.76H464.517ZM461.538 173.689C459.543 171.486 456.917 170.4 453.757 170.4V172.4C456.41 172.4 458.477 173.288 460.055 175.031L461.538 173.689ZM453.757 170.4C450.62 170.4 447.998 171.487 445.98 173.683L447.453 175.037C449.062 173.286 451.133 172.4 453.757 172.4V170.4ZM445.975 173.689C444.003 175.867 443.036 178.582 443.036 181.76H445.036C445.036 179.018 445.857 176.8 447.458 175.031L445.975 173.689ZM479.371 196H478.371V197H479.371V196ZM479.371 172.08H480.371V171.08H479.371V172.08ZM470.691 172.08H469.691V173.08H470.691V172.08ZM470.691 167.68V166.68H469.691V167.68H470.691ZM493.091 167.68H494.091V166.68H493.091V167.68ZM493.091 172.08V173.08H494.091V172.08H493.091ZM484.411 172.08V171.08H483.411V172.08H484.411ZM484.411 196V197H485.411V196H484.411ZM480.371 196V172.08H478.371V196H480.371ZM479.371 171.08H470.691V173.08H479.371V171.08ZM471.691 172.08V167.68H469.691V172.08H471.691ZM470.691 168.68H493.091V166.68H470.691V168.68ZM492.091 167.68V172.08H494.091V167.68H492.091ZM493.091 171.08H484.411V173.08H493.091V171.08ZM483.411 172.08V196H485.411V172.08H483.411ZM484.411 195H479.371V197H484.411V195ZM499.054 171L498.368 170.273L498.365 170.276L499.054 171ZM520.974 171L520.288 171.727L520.974 171ZM520.934 192.56L521.631 193.277L521.631 193.277L520.934 192.56ZM499.094 192.56L498.394 193.274L498.397 193.277L499.094 192.56ZM503.014 189.28L502.278 189.957L502.283 189.962L503.014 189.28ZM517.054 189.28L517.786 189.962L517.791 189.957L517.054 189.28ZM517.054 174.36L516.313 175.031L516.318 175.037L517.054 174.36ZM502.974 174.36L502.238 173.683L502.233 173.689L502.974 174.36ZM495.814 181.76C495.814 177.509 497.145 174.2 499.744 171.724L498.365 170.276C495.31 173.187 493.814 177.051 493.814 181.76H495.814ZM499.741 171.727C502.384 169.232 505.768 167.96 509.974 167.96V165.96C505.328 165.96 501.431 167.381 498.368 170.273L499.741 171.727ZM509.974 167.96C514.238 167.96 517.647 169.234 520.288 171.727L521.661 170.273C518.595 167.379 514.671 165.96 509.974 165.96V167.96ZM520.288 171.727C522.912 174.204 524.254 177.512 524.254 181.76H526.254C526.254 177.048 524.743 173.183 521.661 170.273L520.288 171.727ZM524.254 181.76C524.254 185.918 522.904 189.25 520.237 191.843L521.631 193.277C524.725 190.27 526.254 186.402 526.254 181.76H524.254ZM520.237 191.843C517.594 194.413 514.201 195.72 509.974 195.72V197.72C514.654 197.72 518.568 196.254 521.631 193.277L520.237 191.843ZM509.974 195.72C505.805 195.72 502.437 194.415 499.791 191.843L498.397 193.277C501.458 196.252 505.344 197.72 509.974 197.72V195.72ZM499.795 191.846C497.153 189.254 495.814 185.921 495.814 181.76H493.814C493.814 186.399 495.329 190.266 498.394 193.274L499.795 191.846ZM499.294 181.76C499.294 185.014 500.272 187.774 502.278 189.957L503.751 188.603C502.13 186.84 501.294 184.586 501.294 181.76H499.294ZM502.283 189.962C504.3 192.127 506.906 193.2 510.014 193.2V191.2C507.416 191.2 505.355 190.326 503.746 188.598L502.283 189.962ZM510.014 193.2C513.146 193.2 515.767 192.129 517.786 189.962L516.323 188.598C514.715 190.324 512.642 191.2 510.014 191.2V193.2ZM517.791 189.957C519.797 187.774 520.774 185.014 520.774 181.76H518.774C518.774 184.586 517.939 186.84 516.318 188.603L517.791 189.957ZM520.774 181.76C520.774 178.578 519.792 175.861 517.791 173.683L516.318 175.037C517.943 176.806 518.774 179.022 518.774 181.76H520.774ZM517.796 173.689C515.801 171.486 513.174 170.4 510.014 170.4V172.4C512.668 172.4 514.735 173.288 516.313 175.031L517.796 173.689ZM510.014 170.4C506.878 170.4 504.256 171.487 502.238 173.683L503.711 175.037C505.319 173.286 507.391 172.4 510.014 172.4V170.4ZM502.233 173.689C500.261 175.867 499.294 178.582 499.294 181.76H501.294C501.294 179.018 502.115 176.8 503.716 175.031L502.233 173.689ZM226.192 258.44H225.192V259.44H226.192V258.44ZM226.192 247.52V246.52H225.192V247.52H226.192ZM228.592 247.52V248.52H229.045L229.344 248.18L228.592 247.52ZM232.912 223.68V222.68H231.912V223.68H232.912ZM252.712 223.68H253.712V222.68H252.712V223.68ZM252.712 247.52H251.712V248.52H252.712V247.52ZM255.872 247.52H256.872V246.52H255.872V247.52ZM255.872 258.44V259.44H256.872V258.44H255.872ZM251.352 258.44H250.352V259.44H251.352V258.44ZM251.352 252H252.352V251H251.352V252ZM230.712 252V251H229.712V252H230.712ZM230.712 258.44V259.44H231.712V258.44H230.712ZM234.272 247.52L233.45 246.95L232.363 248.52H234.272V247.52ZM247.672 247.52V248.52H248.672V247.52H247.672ZM247.672 228.08H248.672V227.08H247.672V228.08ZM237.792 228.08V227.08H236.792V228.08H237.792ZM227.192 258.44V247.52H225.192V258.44H227.192ZM226.192 248.52H228.592V246.52H226.192V248.52ZM229.344 248.18C232.469 244.621 233.912 238.792 233.912 230.96H231.912C231.912 238.648 230.476 243.859 227.841 246.86L229.344 248.18ZM233.912 230.96V223.68H231.912V230.96H233.912ZM232.912 224.68H252.712V222.68H232.912V224.68ZM251.712 223.68V247.52H253.712V223.68H251.712ZM252.712 248.52H255.872V246.52H252.712V248.52ZM254.872 247.52V258.44H256.872V247.52H254.872ZM255.872 257.44H251.352V259.44H255.872V257.44ZM252.352 258.44V252H250.352V258.44H252.352ZM251.352 251H230.712V253H251.352V251ZM229.712 252V258.44H231.712V252H229.712ZM230.712 257.44H226.192V259.44H230.712V257.44ZM234.272 248.52H247.672V246.52H234.272V248.52ZM248.672 247.52V228.08H246.672V247.52H248.672ZM247.672 227.08H237.792V229.08H247.672V227.08ZM236.792 228.08V231.48H238.792V228.08H236.792ZM236.792 231.48C236.792 238.721 235.622 243.817 233.45 246.95L235.094 248.09C237.616 244.45 238.792 238.852 238.792 231.48H236.792ZM260.885 252H259.885V253H260.885V252ZM260.885 223.68V222.68H259.885V223.68H260.885ZM265.925 223.68H266.925V222.68H265.925V223.68ZM265.925 235.12H264.925V236.12H265.925V235.12ZM279.165 235.12V236.12H280.165V235.12H279.165ZM279.165 223.68V222.68H278.165V223.68H279.165ZM284.205 223.68H285.205V222.68H284.205V223.68ZM284.205 252V253H285.205V252H284.205ZM279.165 252H278.165V253H279.165V252ZM279.165 239.44H280.165V238.44H279.165V239.44ZM265.925 239.44V238.44H264.925V239.44H265.925ZM265.925 252V253H266.925V252H265.925ZM261.885 252V223.68H259.885V252H261.885ZM260.885 224.68H265.925V222.68H260.885V224.68ZM264.925 223.68V235.12H266.925V223.68H264.925ZM265.925 236.12H279.165V234.12H265.925V236.12ZM280.165 235.12V223.68H278.165V235.12H280.165ZM279.165 224.68H284.205V222.68H279.165V224.68ZM283.205 223.68V252H285.205V223.68H283.205ZM284.205 251H279.165V253H284.205V251ZM280.165 252V239.44H278.165V252H280.165ZM279.165 238.44H265.925V240.44H279.165V238.44ZM264.925 239.44V252H266.925V239.44H264.925ZM265.925 251H260.885V253H265.925V251ZM291.456 252H290.456V253H291.456V252ZM291.456 223.68V222.68H290.456V223.68H291.456ZM310.216 223.68H311.216V222.68H310.216V223.68ZM310.216 228.08V229.08H311.216V228.08H310.216ZM296.496 228.08V227.08H295.496V228.08H296.496ZM296.496 235.28H295.496V236.28H296.496V235.28ZM309.496 235.28H310.496V234.28H309.496V235.28ZM309.496 239.52V240.52H310.496V239.52H309.496ZM296.496 239.52V238.52H295.496V239.52H296.496ZM296.496 247.52H295.496V248.52H296.496V247.52ZM310.936 247.52H311.936V246.52H310.936V247.52ZM310.936 252V253H311.936V252H310.936ZM292.456 252V223.68H290.456V252H292.456ZM291.456 224.68H310.216V222.68H291.456V224.68ZM309.216 223.68V228.08H311.216V223.68H309.216ZM310.216 227.08H296.496V229.08H310.216V227.08ZM295.496 228.08V235.28H297.496V228.08H295.496ZM296.496 236.28H309.496V234.28H296.496V236.28ZM308.496 235.28V239.52H310.496V235.28H308.496ZM309.496 238.52H296.496V240.52H309.496V238.52ZM295.496 239.52V247.52H297.496V239.52H295.496ZM296.496 248.52H310.936V246.52H296.496V248.52ZM309.936 247.52V252H311.936V247.52H309.936ZM310.936 251H291.456V253H310.936V251ZM316.87 252H315.87V253H316.87V252ZM316.87 223.68V222.68H315.87V223.68H316.87ZM334.03 225.44L333.457 226.26L333.463 226.264L334.03 225.44ZM335.27 234.72L336.041 235.356L335.27 234.72ZM331.67 237L331.384 236.042L330.67 236.255V237H331.67ZM331.67 237.08H330.67V237.958L331.54 238.072L331.67 237.08ZM336.87 247.64L335.993 247.16L335.988 247.167L336.87 247.64ZM334.43 250.2L333.922 249.339L334.43 250.2ZM321.91 227.84V226.84H320.91V227.84H321.91ZM321.91 235.2H320.91V236.2H321.91V235.2ZM330.23 234.2L330.833 234.997L330.23 234.2ZM330.19 228.68L329.664 229.531L329.673 229.536L329.683 229.542L330.19 228.68ZM321.91 239.52V238.52H320.91V239.52H321.91ZM321.91 247.76H320.91V248.76H321.91V247.76ZM317.87 252V223.68H315.87V252H317.87ZM316.87 224.68H327.91V222.68H316.87V224.68ZM327.91 224.68C330.141 224.68 331.972 225.223 333.457 226.26L334.602 224.62C332.727 223.31 330.478 222.68 327.91 222.68V224.68ZM333.463 226.264C334.852 227.219 335.59 228.669 335.59 230.8H337.59C337.59 228.131 336.62 226.008 334.596 224.616L333.463 226.264ZM335.59 230.8C335.59 232.144 335.213 233.217 334.498 234.084L336.041 235.356C337.086 234.089 337.59 232.55 337.59 230.8H335.59ZM334.498 234.084C333.762 234.976 332.742 235.637 331.384 236.042L331.955 237.958C333.637 237.457 335.017 236.598 336.041 235.356L334.498 234.084ZM330.67 237V237.08H332.67V237H330.67ZM331.54 238.072C333.188 238.287 334.446 238.906 335.386 239.89L336.833 238.51C335.533 237.147 333.831 236.353 331.799 236.088L331.54 238.072ZM335.386 239.89C336.302 240.85 336.79 242.109 336.79 243.76H338.79C338.79 241.678 338.157 239.897 336.833 238.51L335.386 239.89ZM336.79 243.76C336.79 245.084 336.514 246.208 335.993 247.16L337.747 248.12C338.452 246.832 338.79 245.369 338.79 243.76H336.79ZM335.988 247.167C335.486 248.104 334.8 248.821 333.922 249.339L334.938 251.061C336.14 250.352 337.08 249.363 337.751 248.113L335.988 247.167ZM333.922 249.339C332.971 249.899 331.931 250.316 330.797 250.587L331.262 252.533C332.581 252.217 333.808 251.727 334.938 251.061L333.922 249.339ZM330.797 250.587C329.655 250.861 328.414 251 327.07 251V253C328.552 253 329.951 252.846 331.262 252.533L330.797 250.587ZM327.07 251H316.87V253H327.07V251ZM320.91 227.84V235.2H322.91V227.84H320.91ZM321.91 236.2H326.39V234.2H321.91V236.2ZM326.39 236.2C328.18 236.2 329.71 235.848 330.833 234.997L329.626 233.403C328.989 233.885 327.959 234.2 326.39 234.2V236.2ZM330.833 234.997C331.993 234.118 332.55 232.86 332.55 231.36H330.55C330.55 232.314 330.226 232.948 329.626 233.403L330.833 234.997ZM332.55 231.36C332.55 229.832 331.972 228.568 330.697 227.818L329.683 229.542C330.221 229.858 330.55 230.381 330.55 231.36H332.55ZM330.715 227.829C329.569 227.121 327.927 226.84 325.95 226.84V228.84C327.812 228.84 328.997 229.119 329.664 229.531L330.715 227.829ZM325.95 226.84H321.91V228.84H325.95V226.84ZM320.91 239.52V247.76H322.91V239.52H320.91ZM321.91 248.76H326.43V246.76H321.91V248.76ZM326.43 248.76C328.617 248.76 330.432 248.399 331.727 247.53C333.092 246.614 333.75 245.222 333.75 243.52H331.75C331.75 244.645 331.354 245.372 330.613 245.87C329.8 246.414 328.456 246.76 326.43 246.76V248.76ZM333.75 243.52C333.75 241.83 333.151 240.432 331.798 239.591L330.742 241.289C331.362 241.675 331.75 242.33 331.75 243.52H333.75ZM331.798 239.591C330.57 238.827 328.792 238.52 326.63 238.52V240.52C328.68 240.52 329.996 240.826 330.742 241.289L331.798 239.591ZM326.63 238.52H321.91V240.52H326.63V238.52ZM343.768 252H342.768V253H343.768V252ZM343.768 223.68V222.68H342.768V223.68H343.768ZM348.808 223.68H349.808V222.68H348.808V223.68ZM348.808 235.12H347.808V236.12H348.808V235.12ZM362.048 235.12V236.12H363.048V235.12H362.048ZM362.048 223.68V222.68H361.048V223.68H362.048ZM367.088 223.68H368.088V222.68H367.088V223.68ZM367.088 252V253H368.088V252H367.088ZM362.048 252H361.048V253H362.048V252ZM362.048 239.44H363.048V238.44H362.048V239.44ZM348.808 239.44V238.44H347.808V239.44H348.808ZM348.808 252V253H349.808V252H348.808ZM344.768 252V223.68H342.768V252H344.768ZM343.768 224.68H348.808V222.68H343.768V224.68ZM347.808 223.68V235.12H349.808V223.68H347.808ZM348.808 236.12H362.048V234.12H348.808V236.12ZM363.048 235.12V223.68H361.048V235.12H363.048ZM362.048 224.68H367.088V222.68H362.048V224.68ZM366.088 223.68V252H368.088V223.68H366.088ZM367.088 251H362.048V253H367.088V251ZM363.048 252V239.44H361.048V252H363.048ZM362.048 238.44H348.808V240.44H362.048V238.44ZM347.808 239.44V252H349.808V239.44H347.808ZM348.808 251H343.768V253H348.808V251ZM374.338 252H373.338V253H374.338V252ZM374.338 223.68V222.68H373.338V223.68H374.338ZM379.378 223.68H380.378V222.68H379.378V223.68ZM379.378 244.4H378.378V245.4H379.378V244.4ZM379.498 244.4V245.4H380.045L380.34 244.94L379.498 244.4ZM392.778 223.68V222.68H392.232L391.936 223.14L392.778 223.68ZM398.218 223.68H399.218V222.68H398.218V223.68ZM398.218 252V253H399.218V252H398.218ZM393.178 252H392.178V253H393.178V252ZM393.178 231.44H394.178V230.44H393.178V231.44ZM393.098 231.44V230.44H392.553L392.258 230.899L393.098 231.44ZM379.858 252V253H380.404L380.699 252.541L379.858 252ZM375.338 252V223.68H373.338V252H375.338ZM374.338 224.68H379.378V222.68H374.338V224.68ZM378.378 223.68V244.4H380.378V223.68H378.378ZM379.378 245.4H379.498V243.4H379.378V245.4ZM380.34 244.94L393.62 224.22L391.936 223.14L378.656 243.86L380.34 244.94ZM392.778 224.68H398.218V222.68H392.778V224.68ZM397.218 223.68V252H399.218V223.68H397.218ZM398.218 251H393.178V253H398.218V251ZM394.178 252V231.44H392.178V252H394.178ZM393.178 230.44H393.098V232.44H393.178V230.44ZM392.258 230.899L379.018 251.459L380.699 252.541L393.939 231.981L392.258 230.899ZM379.858 251H374.338V253H379.858V251ZM405.456 252H404.456V253H405.456V252ZM405.456 223.68V222.68H404.456V223.68H405.456ZM410.496 223.68H411.496V222.68H410.496V223.68ZM410.496 235.92H409.496V236.92H410.496V235.92ZM410.616 235.92V236.92H411.04L411.334 236.615L410.616 235.92ZM422.456 223.68V222.68H422.032L421.737 222.985L422.456 223.68ZM429.256 223.68L429.958 224.391L431.691 222.68H429.256V223.68ZM416.016 236.76L415.313 236.049L414.624 236.729L415.282 237.44L416.016 236.76ZM430.136 252V253H432.425L430.869 251.32L430.136 252ZM423.056 252L422.303 252.659L422.602 253H423.056V252ZM410.616 237.8L411.368 237.141L411.069 236.8H410.616V237.8ZM410.496 237.8V236.8H409.496V237.8H410.496ZM410.496 252V253H411.496V252H410.496ZM406.456 252V223.68H404.456V252H406.456ZM405.456 224.68H410.496V222.68H405.456V224.68ZM409.496 223.68V235.92H411.496V223.68H409.496ZM410.496 236.92H410.616V234.92H410.496V236.92ZM411.334 236.615L423.174 224.375L421.737 222.985L409.897 235.225L411.334 236.615ZM422.456 224.68H429.256V222.68H422.456V224.68ZM428.553 222.969L415.313 236.049L416.718 237.471L429.958 224.391L428.553 222.969ZM415.282 237.44L429.402 252.68L430.869 251.32L416.749 236.08L415.282 237.44ZM430.136 251H423.056V253H430.136V251ZM423.808 251.341L411.368 237.141L409.863 238.459L422.303 252.659L423.808 251.341ZM410.616 236.8H410.496V238.8H410.616V236.8ZM409.496 237.8V252H411.496V237.8H409.496ZM410.496 251H405.456V253H410.496V251ZM430.594 252L429.677 251.601L429.068 253H430.594V252ZM442.914 223.68V222.68H442.258L441.997 223.281L442.914 223.68ZM447.274 223.68L448.192 223.284L447.932 222.68H447.274V223.68ZM459.474 252V253H460.993L460.392 251.604L459.474 252ZM453.714 252L452.788 252.377L453.041 253H453.714V252ZM451.074 245.52L452 245.143L451.746 244.52H451.074V245.52ZM438.794 245.52V244.52H438.114L437.864 245.153L438.794 245.52ZM436.234 252V253H436.914L437.164 252.367L436.234 252ZM440.514 241.2L439.581 240.84L439.057 242.2H440.514V241.2ZM449.314 241.2V242.2H450.761L450.249 240.846L449.314 241.2ZM444.954 229.68L445.889 229.326L444.962 226.877L444.021 229.32L444.954 229.68ZM431.511 252.399L443.831 224.079L441.997 223.281L429.677 251.601L431.511 252.399ZM442.914 224.68H447.274V222.68H442.914V224.68ZM446.355 224.076L458.555 252.396L460.392 251.604L448.192 223.284L446.355 224.076ZM459.474 251H453.714V253H459.474V251ZM454.64 251.623L452 245.143L450.148 245.897L452.788 252.377L454.64 251.623ZM451.074 244.52H438.794V246.52H451.074V244.52ZM437.864 245.153L435.304 251.633L437.164 252.367L439.724 245.887L437.864 245.153ZM436.234 251H430.594V253H436.234V251ZM440.514 242.2H449.314V240.2H440.514V242.2ZM450.249 240.846L445.889 229.326L444.018 230.034L448.378 241.554L450.249 240.846ZM444.021 229.32L439.581 240.84L441.447 241.56L445.887 230.04L444.021 229.32ZM498.556 227.28L499.177 228.064L499.943 227.458L499.354 226.678L498.556 227.28ZM494.716 230.32L493.905 230.905L494.517 231.753L495.337 231.104L494.716 230.32ZM491.876 228.16L491.479 229.078L491.492 229.083L491.504 229.088L491.876 228.16ZM481.196 230.36L480.464 229.678L480.46 229.683L481.196 230.36ZM481.076 245.32L480.329 245.985L480.334 245.99L480.339 245.996L481.076 245.32ZM494.956 244.92L495.531 244.102L494.728 243.538L494.149 244.329L494.956 244.92ZM498.996 247.76L499.777 248.384L500.441 247.553L499.571 246.942L498.996 247.76ZM477.156 248.56L476.452 249.27L476.456 249.274L477.156 248.56ZM477.236 227.04L477.919 227.77L477.919 227.77L477.236 227.04ZM494.076 224.08L493.709 225.01L493.717 225.013L493.725 225.016L494.076 224.08ZM497.935 226.496L494.095 229.536L495.337 231.104L499.177 228.064L497.935 226.496ZM495.527 229.735C494.712 228.607 493.607 227.775 492.247 227.232L491.504 229.088C492.545 229.505 493.333 230.113 493.905 230.905L495.527 229.735ZM492.272 227.242C490.979 226.684 489.645 226.4 488.276 226.4V228.4C489.36 228.4 490.426 228.623 491.479 229.078L492.272 227.242ZM488.276 226.4C485.139 226.4 482.507 227.487 480.465 229.678L481.927 231.042C483.564 229.286 485.652 228.4 488.276 228.4V226.4ZM480.46 229.683C478.458 231.861 477.476 234.578 477.476 237.76H479.476C479.476 235.022 480.307 232.806 481.932 231.037L480.46 229.683ZM477.476 237.76C477.476 241.05 478.403 243.822 480.329 245.985L481.823 244.655C480.282 242.925 479.476 240.656 479.476 237.76H477.476ZM480.339 245.996C482.311 248.148 484.925 249.2 488.076 249.2V247.2C485.413 247.2 483.361 246.332 481.813 244.644L480.339 245.996ZM488.076 249.2C491.344 249.2 493.953 247.984 495.763 245.511L494.149 244.329C492.758 246.23 490.781 247.2 488.076 247.2V249.2ZM494.381 245.738L498.421 248.578L499.571 246.942L495.531 244.102L494.381 245.738ZM498.214 247.136C495.785 250.179 492.434 251.72 488.036 251.72V253.72C492.971 253.72 496.926 251.955 499.777 248.384L498.214 247.136ZM488.036 251.72C483.837 251.72 480.473 250.414 477.856 247.846L476.456 249.274C479.492 252.253 483.381 253.72 488.036 253.72V251.72ZM477.86 247.85C475.244 245.258 473.916 241.924 473.916 237.76H471.916C471.916 242.396 473.415 246.262 476.452 249.27L477.86 247.85ZM473.916 237.76C473.916 233.544 475.268 230.249 477.919 227.77L476.553 226.31C473.444 229.217 471.916 233.069 471.916 237.76H473.916ZM477.919 227.77C480.618 225.245 484.044 223.96 488.276 223.96V221.96C483.601 221.96 479.667 223.395 476.553 226.31L477.919 227.77ZM488.276 223.96C490.12 223.96 491.929 224.308 493.709 225.01L494.443 223.15C492.436 222.358 490.379 221.96 488.276 221.96V223.96ZM493.725 225.016C495.496 225.68 496.822 226.643 497.758 227.882L499.354 226.678C498.156 225.09 496.496 223.92 494.427 223.144L493.725 225.016ZM198.309 308L197.392 307.601L196.783 309H198.309V308ZM210.629 279.68V278.68H209.973L209.712 279.281L210.629 279.68ZM214.989 279.68L215.907 279.284L215.647 278.68H214.989V279.68ZM227.189 308V309H228.708L228.107 307.604L227.189 308ZM221.429 308L220.502 308.377L220.756 309H221.429V308ZM218.789 301.52L219.715 301.143L219.461 300.52H218.789V301.52ZM206.509 301.52V300.52H205.828L205.578 301.153L206.509 301.52ZM203.949 308V309H204.629L204.879 308.367L203.949 308ZM208.229 297.2L207.295 296.84L206.771 298.2H208.229V297.2ZM217.029 297.2V298.2H218.476L217.964 296.846L217.029 297.2ZM212.669 285.68L213.604 285.326L212.677 282.877L211.735 285.32L212.669 285.68ZM199.226 308.399L211.546 280.079L209.712 279.281L197.392 307.601L199.226 308.399ZM210.629 280.68H214.989V278.68H210.629V280.68ZM214.07 280.076L226.27 308.396L228.107 307.604L215.907 279.284L214.07 280.076ZM227.189 307H221.429V309H227.189V307ZM222.355 307.623L219.715 301.143L217.862 301.897L220.502 308.377L222.355 307.623ZM218.789 300.52H206.509V302.52H218.789V300.52ZM205.578 301.153L203.018 307.633L204.879 308.367L207.439 301.887L205.578 301.153ZM203.949 307H198.309V309H203.949V307ZM208.229 298.2H217.029V296.2H208.229V298.2ZM217.964 296.846L213.604 285.326L211.733 286.034L216.093 297.554L217.964 296.846ZM211.735 285.32L207.295 296.84L209.162 297.56L213.602 286.04L211.735 285.32ZM230.991 308H229.991V309H230.991V308ZM230.991 279.68V278.68H229.991V279.68H230.991ZM236.031 279.68H237.031V278.68H236.031V279.68ZM236.031 291.92H235.031V292.92H236.031V291.92ZM236.151 291.92V292.92H236.575L236.869 292.615L236.151 291.92ZM247.991 279.68V278.68H247.567L247.272 278.985L247.991 279.68ZM254.791 279.68L255.494 280.391L257.226 278.68H254.791V279.68ZM241.551 292.76L240.848 292.049L240.159 292.729L240.817 293.44L241.551 292.76ZM255.671 308V309H257.96L256.404 307.32L255.671 308ZM248.591 308L247.839 308.659L248.137 309H248.591V308ZM236.151 293.8L236.903 293.141L236.604 292.8H236.151V293.8ZM236.031 293.8V292.8H235.031V293.8H236.031ZM236.031 308V309H237.031V308H236.031ZM231.991 308V279.68H229.991V308H231.991ZM230.991 280.68H236.031V278.68H230.991V280.68ZM235.031 279.68V291.92H237.031V279.68H235.031ZM236.031 292.92H236.151V290.92H236.031V292.92ZM236.869 292.615L248.709 280.375L247.272 278.985L235.432 291.225L236.869 292.615ZM247.991 280.68H254.791V278.68H247.991V280.68ZM254.088 278.969L240.848 292.049L242.254 293.471L255.494 280.391L254.088 278.969ZM240.817 293.44L254.937 308.68L256.404 307.32L242.284 292.08L240.817 293.44ZM255.671 307H248.591V309H255.671V307ZM249.343 307.341L236.903 293.141L235.399 294.459L247.839 308.659L249.343 307.341ZM236.151 292.8H236.031V294.8H236.151V292.8ZM235.031 293.8V308H237.031V293.8H235.031ZM236.031 307H230.991V309H236.031V307ZM265.289 308H264.289V309H265.289V308ZM265.289 284.08H266.289V283.08H265.289V284.08ZM256.609 284.08H255.609V285.08H256.609V284.08ZM256.609 279.68V278.68H255.609V279.68H256.609ZM279.009 279.68H280.009V278.68H279.009V279.68ZM279.009 284.08V285.08H280.009V284.08H279.009ZM270.329 284.08V283.08H269.329V284.08H270.329ZM270.329 308V309H271.329V308H270.329ZM266.289 308V284.08H264.289V308H266.289ZM265.289 283.08H256.609V285.08H265.289V283.08ZM257.609 284.08V279.68H255.609V284.08H257.609ZM256.609 280.68H279.009V278.68H256.609V280.68ZM278.009 279.68V284.08H280.009V279.68H278.009ZM279.009 283.08H270.329V285.08H279.009V283.08ZM269.329 284.08V308H271.329V284.08H269.329ZM270.329 307H265.289V309H270.329V307ZM282.892 308.04L281.902 307.899L281.773 308.803L282.662 309.013L282.892 308.04ZM283.532 303.56L283.828 302.605L282.708 302.257L282.542 303.419L283.532 303.56ZM288.372 303.16L287.751 302.376L287.743 302.382L287.735 302.389L288.372 303.16ZM290.252 300.6L289.366 300.136L289.362 300.145L290.252 300.6ZM291.132 298.92L292.018 299.384L292.27 298.902L292.002 298.428L291.132 298.92ZM280.252 279.68V278.68H278.538L279.382 280.172L280.252 279.68ZM286.092 279.68L286.971 279.204L286.688 278.68H286.092V279.68ZM293.972 294.24L293.093 294.716L293.997 296.388L294.862 294.695L293.972 294.24ZM301.412 279.68V278.68H300.8L300.521 279.225L301.412 279.68ZM307.052 279.68L307.932 280.155L308.728 278.68H307.052V279.68ZM295.292 301.48L294.412 301.005L294.41 301.009L295.292 301.48ZM291.532 306.76L292.205 307.499L292.206 307.498L291.532 306.76ZM286.492 307.4C285.159 307.4 284.04 307.284 283.122 307.067L282.662 309.013C283.771 309.276 285.052 309.4 286.492 309.4V307.4ZM283.882 308.181L284.522 303.701L282.542 303.419L281.902 307.899L283.882 308.181ZM283.236 304.515C284.104 304.784 284.99 304.92 285.892 304.92V302.92C285.194 302.92 284.507 302.816 283.828 302.605L283.236 304.515ZM285.892 304.92C287.092 304.92 288.168 304.626 289.009 303.931L287.735 302.389C287.35 302.707 286.772 302.92 285.892 302.92V304.92ZM288.993 303.944C289.795 303.309 290.501 302.31 291.142 301.055L289.362 300.145C288.776 301.29 288.229 301.998 287.751 302.376L288.993 303.944ZM291.138 301.064L292.018 299.384L290.246 298.456L289.366 300.136L291.138 301.064ZM292.002 298.428L281.122 279.188L279.382 280.172L290.262 299.412L292.002 298.428ZM280.252 280.68H286.092V278.68H280.252V280.68ZM285.213 280.156L293.093 294.716L294.851 293.764L286.971 279.204L285.213 280.156ZM294.862 294.695L302.302 280.135L300.521 279.225L293.081 293.785L294.862 294.695ZM301.412 280.68H307.052V278.68H301.412V280.68ZM306.172 279.205L294.412 301.005L296.172 301.955L307.932 280.155L306.172 279.205ZM294.41 301.009C293.154 303.365 291.964 305.012 290.858 306.022L292.206 307.498C293.554 306.268 294.87 304.395 296.174 301.951L294.41 301.009ZM290.858 306.021C289.897 306.897 288.487 307.4 286.492 307.4V309.4C288.817 309.4 290.767 308.809 292.205 307.499L290.858 306.021ZM304.144 308L303.227 307.601L302.619 309H304.144V308ZM316.464 279.68V278.68H315.809L315.547 279.281L316.464 279.68ZM320.824 279.68L321.743 279.284L321.483 278.68H320.824V279.68ZM333.024 308V309H334.544L333.943 307.604L333.024 308ZM327.264 308L326.338 308.377L326.592 309H327.264V308ZM324.624 301.52L325.551 301.143L325.297 300.52H324.624V301.52ZM312.344 301.52V300.52H311.664L311.414 301.153L312.344 301.52ZM309.784 308V309H310.465L310.715 308.367L309.784 308ZM314.064 297.2L313.131 296.84L312.607 298.2H314.064V297.2ZM322.864 297.2V298.2H324.312L323.8 296.846L322.864 297.2ZM318.504 285.68L319.44 285.326L318.513 282.877L317.571 285.32L318.504 285.68ZM305.061 308.399L317.381 280.079L315.547 279.281L303.227 307.601L305.061 308.399ZM316.464 280.68H320.824V278.68H316.464V280.68ZM319.906 280.076L332.106 308.396L333.943 307.604L321.743 279.284L319.906 280.076ZM333.024 307H327.264V309H333.024V307ZM328.191 307.623L325.551 301.143L323.698 301.897L326.338 308.377L328.191 307.623ZM324.624 300.52H312.344V302.52H324.624V300.52ZM311.414 301.153L308.854 307.633L310.715 308.367L313.275 301.887L311.414 301.153ZM309.784 307H304.144V309H309.784V307ZM314.064 298.2H322.864V296.2H314.064V298.2ZM323.8 296.846L319.44 285.326L317.569 286.034L321.929 297.554L323.8 296.846ZM317.571 285.32L313.131 296.84L314.998 297.56L319.438 286.04L317.571 285.32ZM334.455 307.88L333.462 307.764L333.365 308.594L334.165 308.837L334.455 307.88ZM334.975 303.44L335.292 302.491L334.125 302.103L333.982 303.324L334.975 303.44ZM341.015 300.2L340.083 299.84L340.079 299.849L341.015 300.2ZM342.375 279.68V278.68H341.375V279.68H342.375ZM361.855 279.68H362.855V278.68H361.855V279.68ZM361.855 308V309H362.855V308H361.855ZM356.815 308H355.815V309H356.815V308ZM356.815 284.08H357.815V283.08H356.815V284.08ZM347.215 284.08V283.08H346.215V284.08H347.215ZM345.015 303.6L344.109 303.178L344.107 303.181L345.015 303.6ZM337.815 307.28C336.511 307.28 335.498 307.151 334.745 306.923L334.165 308.837C335.173 309.142 336.399 309.28 337.815 309.28V307.28ZM335.449 307.996L335.969 303.556L333.982 303.324L333.462 307.764L335.449 307.996ZM334.659 304.389C335.321 304.609 336.001 304.72 336.695 304.72V302.72C336.217 302.72 335.75 302.644 335.292 302.491L334.659 304.389ZM336.695 304.72C337.907 304.72 338.995 304.359 339.907 303.615C340.804 302.884 341.47 301.834 341.952 300.551L340.079 299.849C339.68 300.912 339.187 301.622 338.644 302.065C338.116 302.495 337.484 302.72 336.695 302.72V304.72ZM341.948 300.56C342.929 298.023 343.375 293.707 343.375 287.76H341.375C341.375 293.706 340.915 297.684 340.083 299.84L341.948 300.56ZM343.375 287.76V279.68H341.375V287.76H343.375ZM342.375 280.68H361.855V278.68H342.375V280.68ZM360.855 279.68V308H362.855V279.68H360.855ZM361.855 307H356.815V309H361.855V307ZM357.815 308V284.08H355.815V308H357.815ZM356.815 283.08H347.215V285.08H356.815V283.08ZM346.215 284.08V288.44H348.215V284.08H346.215ZM346.215 288.44C346.215 295.372 345.479 300.239 344.109 303.178L345.922 304.022C347.486 300.667 348.215 295.428 348.215 288.44H346.215ZM344.107 303.181C343.451 304.604 342.603 305.613 341.59 306.272C340.579 306.929 339.336 307.28 337.815 307.28V309.28C339.655 309.28 341.292 308.851 342.68 307.948C344.068 307.047 345.14 305.716 345.923 304.019L344.107 303.181ZM369.077 308H368.077V309H369.077V308ZM369.077 279.68V278.68H368.077V279.68H369.077ZM374.117 279.68H375.117V278.68H374.117V279.68ZM374.117 290.92H373.117V291.92H374.117V290.92ZM386.037 293.04L385.449 293.849L385.454 293.853L386.037 293.04ZM386.037 305.84L385.447 305.032L385.442 305.036L386.037 305.84ZM374.117 303.76H373.117V304.76H374.117V303.76ZM382.357 296.28L381.773 297.092L381.78 297.097L381.787 297.102L382.357 296.28ZM374.117 295.16V294.16H373.117V295.16H374.117ZM370.077 308V279.68H368.077V308H370.077ZM369.077 280.68H374.117V278.68H369.077V280.68ZM373.117 279.68V290.92H375.117V279.68H373.117ZM374.117 291.92H378.317V289.92H374.117V291.92ZM378.317 291.92C381.375 291.92 383.722 292.595 385.449 293.849L386.624 292.231C384.458 290.658 381.659 289.92 378.317 289.92V291.92ZM385.454 293.853C387.117 295.044 387.997 296.845 387.997 299.44H389.997C389.997 296.329 388.903 293.863 386.619 292.227L385.454 293.853ZM387.997 299.44C387.997 302.005 387.119 303.812 385.447 305.032L386.626 306.648C388.901 304.988 389.997 302.529 389.997 299.44H387.997ZM385.442 305.036C383.713 306.315 381.393 307 378.397 307V309C381.693 309 384.467 308.245 386.631 306.644L385.442 305.036ZM378.397 307H369.077V309H378.397V307ZM374.117 304.76H377.917V302.76H374.117V304.76ZM377.917 304.76C380.005 304.76 381.751 304.393 382.997 303.504C384.306 302.571 384.917 301.17 384.917 299.48H382.917C382.917 300.643 382.528 301.382 381.836 301.876C381.082 302.414 379.828 302.76 377.917 302.76V304.76ZM384.917 299.48C384.917 297.783 384.271 296.389 382.926 295.458L381.787 297.102C382.523 297.611 382.917 298.35 382.917 299.48H384.917ZM382.94 295.468C381.664 294.552 379.947 294.16 377.917 294.16V296.16C379.726 296.16 380.969 296.515 381.773 297.092L382.94 295.468ZM377.917 294.16H374.117V296.16H377.917V294.16ZM373.117 295.16V303.76H375.117V295.16H373.117ZM394.53 308H393.53V309H394.53V308ZM394.53 279.68V278.68H393.53V279.68H394.53ZM399.57 279.68H400.57V278.68H399.57V279.68ZM399.57 291.12H398.57V292.12H399.57V291.12ZM412.81 291.12V292.12H413.81V291.12H412.81ZM412.81 279.68V278.68H411.81V279.68H412.81ZM417.85 279.68H418.85V278.68H417.85V279.68ZM417.85 308V309H418.85V308H417.85ZM412.81 308H411.81V309H412.81V308ZM412.81 295.44H413.81V294.44H412.81V295.44ZM399.57 295.44V294.44H398.57V295.44H399.57ZM399.57 308V309H400.57V308H399.57ZM395.53 308V279.68H393.53V308H395.53ZM394.53 280.68H399.57V278.68H394.53V280.68ZM398.57 279.68V291.12H400.57V279.68H398.57ZM399.57 292.12H412.81V290.12H399.57V292.12ZM413.81 291.12V279.68H411.81V291.12H413.81ZM412.81 280.68H417.85V278.68H412.81V280.68ZM416.85 279.68V308H418.85V279.68H416.85ZM417.85 307H412.81V309H417.85V307ZM413.81 308V295.44H411.81V308H413.81ZM412.81 294.44H399.57V296.44H412.81V294.44ZM398.57 295.44V308H400.57V295.44H398.57ZM399.57 307H394.53V309H399.57V307ZM448.94 308H447.94V309H448.94V308ZM448.94 279.68V278.68H447.94V279.68H448.94ZM453.98 279.68H454.98V278.68H453.98V279.68ZM453.98 308V309H454.98V308H453.98ZM425.1 308H424.1V309H425.1V308ZM425.1 279.68V278.68H424.1V279.68H425.1ZM430.14 279.68H431.14V278.68H430.14V279.68ZM430.14 290.92H429.14V291.92H430.14V290.92ZM442.06 293.04L441.473 293.849L441.478 293.853L442.06 293.04ZM442.06 305.84L441.471 305.032L441.465 305.036L442.06 305.84ZM430.14 303.76H429.14V304.76H430.14V303.76ZM438.38 296.28L437.797 297.092L437.804 297.097L437.811 297.102L438.38 296.28ZM430.14 295.16V294.16H429.14V295.16H430.14ZM449.94 308V279.68H447.94V308H449.94ZM448.94 280.68H453.98V278.68H448.94V280.68ZM452.98 279.68V308H454.98V279.68H452.98ZM453.98 307H448.94V309H453.98V307ZM426.1 308V279.68H424.1V308H426.1ZM425.1 280.68H430.14V278.68H425.1V280.68ZM429.14 279.68V290.92H431.14V279.68H429.14ZM430.14 291.92H434.34V289.92H430.14V291.92ZM434.34 291.92C437.398 291.92 439.745 292.595 441.473 293.849L442.648 292.231C440.482 290.658 437.682 289.92 434.34 289.92V291.92ZM441.478 293.853C443.141 295.044 444.02 296.845 444.02 299.44H446.02C446.02 296.329 444.926 293.863 442.642 292.227L441.478 293.853ZM444.02 299.44C444.02 302.005 443.143 303.812 441.471 305.032L442.65 306.648C444.924 304.988 446.02 302.529 446.02 299.44H444.02ZM441.465 305.036C439.736 306.315 437.417 307 434.42 307V309C437.717 309 440.491 308.245 442.655 306.644L441.465 305.036ZM434.42 307H425.1V309H434.42V307ZM430.14 304.76H433.94V302.76H430.14V304.76ZM433.94 304.76C436.029 304.76 437.775 304.393 439.021 303.504C440.329 302.571 440.94 301.17 440.94 299.48H438.94C438.94 300.643 438.551 301.382 437.859 301.876C437.105 302.414 435.851 302.76 433.94 302.76V304.76ZM440.94 299.48C440.94 297.783 440.294 296.389 438.949 295.458L437.811 297.102C438.546 297.611 438.94 298.35 438.94 299.48H440.94ZM438.963 295.468C437.688 294.552 435.97 294.16 433.94 294.16V296.16C435.75 296.16 436.993 296.515 437.797 297.092L438.963 295.468ZM433.94 294.16H430.14V296.16H433.94V294.16ZM429.14 295.16V303.76H431.14V295.16H429.14ZM461.217 308H460.217V309H461.217V308ZM461.217 279.68V278.68H460.217V279.68H461.217ZM469.097 279.68L470.036 279.336L469.796 278.68H469.097V279.68ZM476.457 299.8L475.518 300.144L475.758 300.8H476.457V299.8ZM476.577 299.8V300.8H477.279L477.518 300.14L476.577 299.8ZM483.857 279.68V278.68H483.156L482.917 279.34L483.857 279.68ZM491.777 279.68H492.777V278.68H491.777V279.68ZM491.777 308V309H492.777V308H491.777ZM486.777 308H485.777V309H486.777V308ZM486.777 285.24H487.777V284.24H486.777V285.24ZM486.697 285.24V284.24H486.006L485.762 284.887L486.697 285.24ZM478.097 308V309H478.788L479.033 308.353L478.097 308ZM474.577 308L473.64 308.349L473.883 309H474.577V308ZM466.097 285.24L467.034 284.891L466.792 284.24H466.097V285.24ZM466.017 285.24V284.24H465.017V285.24H466.017ZM466.017 308V309H467.017V308H466.017ZM462.217 308V279.68H460.217V308H462.217ZM461.217 280.68H469.097V278.68H461.217V280.68ZM468.158 280.024L475.518 300.144L477.396 299.456L470.036 279.336L468.158 280.024ZM476.457 300.8H476.577V298.8H476.457V300.8ZM477.518 300.14L484.798 280.02L482.917 279.34L475.637 299.46L477.518 300.14ZM483.857 280.68H491.777V278.68H483.857V280.68ZM490.777 279.68V308H492.777V279.68H490.777ZM491.777 307H486.777V309H491.777V307ZM487.777 308V285.24H485.777V308H487.777ZM486.777 284.24H486.697V286.24H486.777V284.24ZM485.762 284.887L477.162 307.647L479.033 308.353L487.633 285.593L485.762 284.887ZM478.097 307H474.577V309H478.097V307ZM475.514 307.651L467.034 284.891L465.16 285.589L473.64 308.349L475.514 307.651ZM466.097 284.24H466.017V286.24H466.097V284.24ZM465.017 285.24V308H467.017V285.24H465.017ZM466.017 307H461.217V309H466.017V307ZM499.014 308H498.014V309H499.014V308ZM499.014 279.68V278.68H498.014V279.68H499.014ZM504.054 279.68H505.054V278.68H504.054V279.68ZM504.054 300.4H503.054V301.4H504.054V300.4ZM504.174 300.4V301.4H504.721L505.016 300.94L504.174 300.4ZM517.454 279.68V278.68H516.907L516.612 279.14L517.454 279.68ZM522.894 279.68H523.894V278.68H522.894V279.68ZM522.894 308V309H523.894V308H522.894ZM517.854 308H516.854V309H517.854V308ZM517.854 287.44H518.854V286.44H517.854V287.44ZM517.774 287.44V286.44H517.229L516.933 286.899L517.774 287.44ZM504.534 308V309H505.08L505.375 308.541L504.534 308ZM500.014 308V279.68H498.014V308H500.014ZM499.014 280.68H504.054V278.68H499.014V280.68ZM503.054 279.68V300.4H505.054V279.68H503.054ZM504.054 301.4H504.174V299.4H504.054V301.4ZM505.016 300.94L518.296 280.22L516.612 279.14L503.332 299.86L505.016 300.94ZM517.454 280.68H522.894V278.68H517.454V280.68ZM521.894 279.68V308H523.894V279.68H521.894ZM522.894 307H517.854V309H522.894V307ZM518.854 308V287.44H516.854V308H518.854ZM517.854 286.44H517.774V288.44H517.854V286.44ZM516.933 286.899L503.693 307.459L505.375 308.541L518.615 287.981L516.933 286.899ZM504.534 307H499.014V309H504.534V307ZM244.89 339L244.204 338.273L244.2 338.276L244.89 339ZM266.81 339L266.124 339.727L266.81 339ZM266.77 360.56L267.467 361.277L267.467 361.277L266.77 360.56ZM244.93 360.56L244.23 361.274L244.233 361.277L244.93 360.56ZM248.85 357.28L248.114 357.957L248.119 357.962L248.85 357.28ZM262.89 357.28L263.622 357.962L263.627 357.957L262.89 357.28ZM262.89 342.36L262.149 343.031L262.154 343.037L262.89 342.36ZM248.81 342.36L248.074 341.683L248.069 341.689L248.81 342.36ZM241.65 349.76C241.65 345.509 242.981 342.2 245.58 339.724L244.2 338.276C241.146 341.186 239.65 345.051 239.65 349.76H241.65ZM245.577 339.727C248.22 337.232 251.603 335.96 255.81 335.96V333.96C251.164 333.96 247.267 335.381 244.204 338.273L245.577 339.727ZM255.81 335.96C260.074 335.96 263.483 337.234 266.124 339.727L267.497 338.273C264.431 335.379 260.507 333.96 255.81 333.96V335.96ZM266.124 339.727C268.748 342.204 270.09 345.512 270.09 349.76H272.09C272.09 345.048 270.579 341.183 267.497 338.273L266.124 339.727ZM270.09 349.76C270.09 353.918 268.74 357.25 266.073 359.843L267.467 361.277C270.561 358.27 272.09 354.402 272.09 349.76H270.09ZM266.073 359.843C263.429 362.413 260.037 363.72 255.81 363.72V365.72C260.49 365.72 264.404 364.254 267.467 361.277L266.073 359.843ZM255.81 363.72C251.64 363.72 248.273 362.415 245.627 359.843L244.233 361.277C247.294 364.252 251.18 365.72 255.81 365.72V363.72ZM245.631 359.846C242.989 357.254 241.65 353.921 241.65 349.76H239.65C239.65 354.399 241.165 358.266 244.23 361.274L245.631 359.846ZM245.13 349.76C245.13 353.014 246.108 355.774 248.114 357.957L249.587 356.603C247.966 354.84 247.13 352.586 247.13 349.76H245.13ZM248.119 357.962C250.136 360.127 252.742 361.2 255.85 361.2V359.2C253.252 359.2 251.191 358.326 249.582 356.598L248.119 357.962ZM255.85 361.2C258.982 361.2 261.603 360.129 263.622 357.962L262.159 356.598C260.551 358.324 258.478 359.2 255.85 359.2V361.2ZM263.627 357.957C265.632 355.774 266.61 353.014 266.61 349.76H264.61C264.61 352.586 263.775 354.84 262.154 356.603L263.627 357.957ZM266.61 349.76C266.61 346.578 265.628 343.861 263.627 341.683L262.154 343.037C263.779 344.806 264.61 347.022 264.61 349.76H266.61ZM263.632 341.689C261.637 339.486 259.01 338.4 255.85 338.4V340.4C258.504 340.4 260.571 341.288 262.149 343.031L263.632 341.689ZM255.85 338.4C252.714 338.4 250.092 339.487 248.074 341.683L249.547 343.037C251.155 341.286 253.227 340.4 255.85 340.4V338.4ZM248.069 341.689C246.097 343.867 245.13 346.582 245.13 349.76H247.13C247.13 347.018 247.95 344.8 249.552 343.031L248.069 341.689ZM298.636 370.44H297.636V371.44H298.636V370.44ZM298.636 364H299.636V363H298.636V364ZM276.956 364H275.956V365H276.956V364ZM276.956 335.68V334.68H275.956V335.68H276.956ZM281.996 335.68H282.996V334.68H281.996V335.68ZM281.996 359.52H280.996V360.52H281.996V359.52ZM294.996 359.52V360.52H295.996V359.52H294.996ZM294.996 335.68V334.68H293.996V335.68H294.996ZM300.036 335.68H301.036V334.68H300.036V335.68ZM300.036 359.52H299.036V360.52H300.036V359.52ZM303.156 359.52H304.156V358.52H303.156V359.52ZM303.156 370.44V371.44H304.156V370.44H303.156ZM299.636 370.44V364H297.636V370.44H299.636ZM298.636 363H276.956V365H298.636V363ZM277.956 364V335.68H275.956V364H277.956ZM276.956 336.68H281.996V334.68H276.956V336.68ZM280.996 335.68V359.52H282.996V335.68H280.996ZM281.996 360.52H294.996V358.52H281.996V360.52ZM295.996 359.52V335.68H293.996V359.52H295.996ZM294.996 336.68H300.036V334.68H294.996V336.68ZM299.036 335.68V359.52H301.036V335.68H299.036ZM300.036 360.52H303.156V358.52H300.036V360.52ZM302.156 359.52V370.44H304.156V359.52H302.156ZM303.156 369.44H298.636V371.44H303.156V369.44ZM308.151 364H307.151V365H308.151V364ZM308.151 335.68V334.68H307.151V335.68H308.151ZM326.911 335.68H327.911V334.68H326.911V335.68ZM326.911 340.08V341.08H327.911V340.08H326.911ZM313.191 340.08V339.08H312.191V340.08H313.191ZM313.191 347.28H312.191V348.28H313.191V347.28ZM326.191 347.28H327.191V346.28H326.191V347.28ZM326.191 351.52V352.52H327.191V351.52H326.191ZM313.191 351.52V350.52H312.191V351.52H313.191ZM313.191 359.52H312.191V360.52H313.191V359.52ZM327.631 359.52H328.631V358.52H327.631V359.52ZM327.631 364V365H328.631V364H327.631ZM309.151 364V335.68H307.151V364H309.151ZM308.151 336.68H326.911V334.68H308.151V336.68ZM325.911 335.68V340.08H327.911V335.68H325.911ZM326.911 339.08H313.191V341.08H326.911V339.08ZM312.191 340.08V347.28H314.191V340.08H312.191ZM313.191 348.28H326.191V346.28H313.191V348.28ZM325.191 347.28V351.52H327.191V347.28H325.191ZM326.191 350.52H313.191V352.52H326.191V350.52ZM312.191 351.52V359.52H314.191V351.52H312.191ZM313.191 360.52H327.631V358.52H313.191V360.52ZM326.631 359.52V364H328.631V359.52H326.631ZM327.631 363H308.151V365H327.631V363ZM333.565 364H332.565V365H333.565V364ZM333.565 335.68V334.68H332.565V335.68H333.565ZM338.605 335.68H339.605V334.68H338.605V335.68ZM338.605 347.12H337.605V348.12H338.605V347.12ZM351.845 347.12V348.12H352.845V347.12H351.845ZM351.845 335.68V334.68H350.845V335.68H351.845ZM356.885 335.68H357.885V334.68H356.885V335.68ZM356.885 364V365H357.885V364H356.885ZM351.845 364H350.845V365H351.845V364ZM351.845 351.44H352.845V350.44H351.845V351.44ZM338.605 351.44V350.44H337.605V351.44H338.605ZM338.605 364V365H339.605V364H338.605ZM334.565 364V335.68H332.565V364H334.565ZM333.565 336.68H338.605V334.68H333.565V336.68ZM337.605 335.68V347.12H339.605V335.68H337.605ZM338.605 348.12H351.845V346.12H338.605V348.12ZM352.845 347.12V335.68H350.845V347.12H352.845ZM351.845 336.68H356.885V334.68H351.845V336.68ZM355.885 335.68V364H357.885V335.68H355.885ZM356.885 363H351.845V365H356.885V363ZM352.845 364V351.44H350.845V364H352.845ZM351.845 350.44H338.605V352.44H351.845V350.44ZM337.605 351.44V364H339.605V351.44H337.605ZM338.605 363H333.565V365H338.605V363ZM364.135 364H363.135V365H364.135V364ZM364.135 335.68V334.68H363.135V335.68H364.135ZM369.175 335.68H370.175V334.68H369.175V335.68ZM369.175 347.92H368.175V348.92H369.175V347.92ZM369.295 347.92V348.92H369.719L370.014 348.615L369.295 347.92ZM381.135 335.68V334.68H380.711L380.417 334.985L381.135 335.68ZM387.935 335.68L388.638 336.391L390.37 334.68H387.935V335.68ZM374.695 348.76L373.992 348.049L373.304 348.729L373.962 349.44L374.695 348.76ZM388.815 364V365H391.105L389.549 363.32L388.815 364ZM381.735 364L380.983 364.659L381.282 365H381.735V364ZM369.295 349.8L370.047 349.141L369.749 348.8H369.295V349.8ZM369.175 349.8V348.8H368.175V349.8H369.175ZM369.175 364V365H370.175V364H369.175ZM365.135 364V335.68H363.135V364H365.135ZM364.135 336.68H369.175V334.68H364.135V336.68ZM368.175 335.68V347.92H370.175V335.68H368.175ZM369.175 348.92H369.295V346.92H369.175V348.92ZM370.014 348.615L381.854 336.375L380.417 334.985L368.577 347.225L370.014 348.615ZM381.135 336.68H387.935V334.68H381.135V336.68ZM387.232 334.969L373.992 348.049L375.398 349.471L388.638 336.391L387.232 334.969ZM373.962 349.44L388.082 364.68L389.549 363.32L375.429 348.08L373.962 349.44ZM388.815 363H381.735V365H388.815V363ZM382.487 363.341L370.047 349.141L368.543 350.459L380.983 364.659L382.487 363.341ZM369.295 348.8H369.175V350.8H369.295V348.8ZM368.175 349.8V364H370.175V349.8H368.175ZM369.175 363H364.135V365H369.175V363ZM389.273 364L388.356 363.601L387.748 365H389.273V364ZM401.593 335.68V334.68H400.938L400.676 335.281L401.593 335.68ZM405.953 335.68L406.872 335.284L406.611 334.68H405.953V335.68ZM418.153 364V365H419.673L419.072 363.604L418.153 364ZM412.393 364L411.467 364.377L411.721 365H412.393V364ZM409.753 357.52L410.679 357.143L410.426 356.52H409.753V357.52ZM397.473 357.52V356.52H396.793L396.543 357.153L397.473 357.52ZM394.913 364V365H395.594L395.843 364.367L394.913 364ZM399.193 353.2L398.26 352.84L397.736 354.2H399.193V353.2ZM407.993 353.2V354.2H409.441L408.929 352.846L407.993 353.2ZM403.633 341.68L404.569 341.326L403.642 338.877L402.7 341.32L403.633 341.68ZM390.19 364.399L402.51 336.079L400.676 335.281L388.356 363.601L390.19 364.399ZM401.593 336.68H405.953V334.68H401.593V336.68ZM405.035 336.076L417.235 364.396L419.072 363.604L406.872 335.284L405.035 336.076ZM418.153 363H412.393V365H418.153V363ZM413.319 363.623L410.679 357.143L408.827 357.897L411.467 364.377L413.319 363.623ZM409.753 356.52H397.473V358.52H409.753V356.52ZM396.543 357.153L393.983 363.633L395.843 364.367L398.403 357.887L396.543 357.153ZM394.913 363H389.273V365H394.913V363ZM399.193 354.2H407.993V352.2H399.193V354.2ZM408.929 352.846L404.569 341.326L402.698 342.034L407.058 353.554L408.929 352.846ZM402.7 341.32L398.26 352.84L400.126 353.56L404.566 342.04L402.7 341.32ZM421.956 364H420.956V365H421.956V364ZM421.956 335.68V334.68H420.956V335.68H421.956ZM429.836 335.68L430.775 335.336L430.535 334.68H429.836V335.68ZM437.196 355.8L436.256 356.144L436.497 356.8H437.196V355.8ZM437.316 355.8V356.8H438.017L438.256 356.14L437.316 355.8ZM444.596 335.68V334.68H443.894L443.655 335.34L444.596 335.68ZM452.516 335.68H453.516V334.68H452.516V335.68ZM452.516 364V365H453.516V364H452.516ZM447.516 364H446.516V365H447.516V364ZM447.516 341.24H448.516V340.24H447.516V341.24ZM447.436 341.24V340.24H446.744L446.5 340.887L447.436 341.24ZM438.836 364V365H439.527L439.771 364.353L438.836 364ZM435.316 364L434.379 364.349L434.621 365H435.316V364ZM426.836 341.24L427.773 340.891L427.53 340.24H426.836V341.24ZM426.756 341.24V340.24H425.756V341.24H426.756ZM426.756 364V365H427.756V364H426.756ZM422.956 364V335.68H420.956V364H422.956ZM421.956 336.68H429.836V334.68H421.956V336.68ZM428.896 336.024L436.256 356.144L438.135 355.456L430.775 335.336L428.896 336.024ZM437.196 356.8H437.316V354.8H437.196V356.8ZM438.256 356.14L445.536 336.02L443.655 335.34L436.375 355.46L438.256 356.14ZM444.596 336.68H452.516V334.68H444.596V336.68ZM451.516 335.68V364H453.516V335.68H451.516ZM452.516 363H447.516V365H452.516V363ZM448.516 364V341.24H446.516V364H448.516ZM447.516 340.24H447.436V342.24H447.516V340.24ZM446.5 340.887L437.9 363.647L439.771 364.353L448.371 341.593L446.5 340.887ZM438.836 363H435.316V365H438.836V363ZM436.253 363.651L427.773 340.891L425.898 341.589L434.379 364.349L436.253 363.651ZM426.836 340.24H426.756V342.24H426.836V340.24ZM425.756 341.24V364H427.756V341.24H425.756ZM426.756 363H421.956V365H426.756V363ZM459.752 364H458.752V365H459.752V364ZM459.752 335.68V334.68H458.752V335.68H459.752ZM464.792 335.68H465.792V334.68H464.792V335.68ZM464.792 356.4H463.792V357.4H464.792V356.4ZM464.912 356.4V357.4H465.459L465.754 356.94L464.912 356.4ZM478.192 335.68V334.68H477.646L477.351 335.14L478.192 335.68ZM483.632 335.68H484.632V334.68H483.632V335.68ZM483.632 364V365H484.632V364H483.632ZM478.592 364H477.592V365H478.592V364ZM478.592 343.44H479.592V342.44H478.592V343.44ZM478.512 343.44V342.44H477.967L477.672 342.899L478.512 343.44ZM465.272 364V365H465.818L466.113 364.541L465.272 364ZM460.752 364V335.68H458.752V364H460.752ZM459.752 336.68H464.792V334.68H459.752V336.68ZM463.792 335.68V356.4H465.792V335.68H463.792ZM464.792 357.4H464.912V355.4H464.792V357.4ZM465.754 356.94L479.034 336.22L477.351 335.14L464.071 355.86L465.754 356.94ZM478.192 336.68H483.632V334.68H478.192V336.68ZM482.632 335.68V364H484.632V335.68H482.632ZM483.632 363H478.592V365H483.632V363ZM479.592 364V343.44H477.592V364H479.592ZM478.592 342.44H478.512V344.44H478.592V342.44ZM477.672 342.899L464.432 363.459L466.113 364.541L479.353 343.981L477.672 342.899ZM465.272 363H459.752V365H465.272V363Z" fill="#1A1A1A" mask="url(#path-2-outside-1_635_6259)"/>
<rect x="0.601172" y="0.378655" width="318" height="85" rx="42.5" transform="matrix(0.976219 -0.216788 0.226126 0.974098 -0.0713271 69.2954)" fill="#1A1A1A"/>
<rect x="0.601172" y="0.378655" width="318" height="85" rx="42.5" transform="matrix(0.976219 -0.216788 0.226126 0.974098 -0.0713271 69.2954)" stroke="#1A1A1A"/>
<path d="M45.0263 117.542L38.6224 89.9558L45.2998 88.473L50.3831 110.371L59.0909 108.437L54.0076 86.5393L60.685 85.0564L65.7683 106.954L74.4761 105.02L69.3928 83.1227L76.0702 81.6399L82.4741 109.226L45.0263 117.542ZM89.1697 107.739L82.7658 80.153L89.326 78.6962L91.931 89.9178L92.0481 89.8918L99.3225 76.4763L107.679 74.6205L98.7177 89.9676L114.786 102.051L106.078 103.985L92.8593 93.563L92.7812 93.5804L95.7299 106.283L89.1697 107.739ZM130.261 99.3929C125.913 100.358 122.007 99.8053 118.543 97.734C115.072 95.6366 112.833 92.419 111.826 88.081C110.813 83.717 111.408 79.9111 113.61 76.6632C115.839 73.4095 119.14 71.297 123.513 70.3258C127.913 69.3488 131.823 69.8599 135.243 71.8591C138.69 73.8526 140.92 77.0313 141.933 81.3953C142.94 85.7332 142.341 89.581 140.137 92.9386C137.926 96.2703 134.634 98.4217 130.261 99.3929ZM122.588 92.1648C124.445 93.4458 126.533 93.829 128.85 93.3145C131.167 92.8 132.88 91.5727 133.99 89.6327C135.1 87.6927 135.366 85.4758 134.787 82.9821C134.22 80.5404 133.011 78.692 131.159 77.437C129.307 76.182 127.223 75.8117 124.906 76.3262C122.589 76.8408 120.873 78.055 119.757 79.9691C118.667 81.8774 118.405 84.0524 118.972 86.4941C119.551 88.9878 120.756 90.878 122.588 92.1648ZM151.084 94.2769C149.496 94.6296 148.188 94.77 147.158 94.6981L146.42 89.0438C146.983 89.1101 147.551 89.0796 148.124 88.9524C149.191 88.7154 149.975 88.1999 150.475 87.406C151.001 86.6063 151.242 85.2279 151.199 83.2709C151.175 81.2822 150.789 78.6773 150.041 75.4563L147.78 65.7153L168.866 61.0327L175.27 88.6192L168.593 90.102L163.501 68.1653L155.496 69.943L156.382 73.7614C157.92 80.3853 158.262 85.2806 157.41 88.4472C156.551 91.588 154.443 93.5312 151.084 94.2769ZM181.941 87.1378L175.537 59.5514L182.214 58.0686L184.566 68.1992L188.081 67.4187C191.257 66.7135 194.01 66.8396 196.34 67.7972C198.67 68.7547 200.182 70.7271 200.875 73.7144C201.556 76.6496 201.051 79.0701 199.358 80.9756C197.665 82.8812 195.27 84.178 192.172 84.8659L181.941 87.1378ZM187.388 80.3559L190.395 79.6882C193.493 79.0003 194.77 77.4874 194.228 75.1496C193.691 72.8377 191.874 72.0257 188.776 72.7137L185.769 73.3814L187.388 80.3559ZM207.895 81.3743L201.491 53.7879L208.168 52.3051L210.592 62.7474L221.37 60.3541L218.946 49.9117L225.623 48.4289L232.027 76.0154L225.349 77.4982L222.672 65.9649L211.895 68.3582L214.572 79.8915L207.895 81.3743ZM238.691 74.5354L232.287 46.9489L238.887 45.4834L243.102 63.6406L243.258 63.6059L249.664 43.0901L256.693 41.5292L263.097 69.1157L256.498 70.5812L252.382 52.8526L252.265 52.8786L245.837 72.9485L238.691 74.5354ZM269.793 67.6287L263.389 40.0422L269.949 38.5854L272.554 49.807L272.671 49.781L279.946 36.3655L288.302 34.5098L279.341 49.8568L295.409 61.9402L286.701 63.8739L273.483 53.4523L273.405 53.4696L276.353 66.1718L269.793 67.6287Z" fill="#DDFF53"/>
<path fill-rule="evenodd" clip-rule="evenodd" d="M728.045 468.431C730.434 482.371 724.786 493.44 715.945 503.303C706.54 513.78 681.39 523.991 679.67 524.858C677.949 525.726 674.508 525.726 672.519 525.726C670.531 525.726 669.347 525.726 667.874 525.572C666.4 525.418 635.355 514.065 622.865 501.703C605.139 484.147 602.163 457.801 615.153 436.343C624.451 420.979 637.115 410.151 654.753 406.096C662.834 404.211 671.023 403.071 679.148 406.359C681.146 407.17 683.34 407.718 685.469 407.915C708.408 410.019 728.045 433.866 727.828 458.568C727.784 461.856 727.48 465.231 728.045 468.431ZM719.16 464.201C721.702 477.615 717.64 489.1 708.408 498.459C697.959 509.068 685.882 516.498 670.089 516.366C636.832 516.125 608.658 480.048 618.803 449.867C623.799 435.05 633.704 424.047 647.02 416.2C655.861 411.006 665.397 413.987 674.651 414.206C687.619 414.513 698.654 420.694 707.778 428.957C712.709 433.428 715.207 441.165 717.444 447.894C719.16 452.957 718.661 458.743 719.16 464.201Z" fill="#1A1A1A"/>
<path d="M708.408 498.459C717.64 489.1 721.702 477.615 719.16 464.201C718.661 458.743 719.16 452.957 717.444 447.894C715.207 441.165 712.709 433.428 707.778 428.957C698.654 420.694 687.619 414.513 674.651 414.206C665.397 413.987 655.861 411.006 647.02 416.2C633.704 424.047 623.799 435.05 618.803 449.867C608.658 480.048 636.832 516.125 670.089 516.366C685.882 516.498 697.959 509.068 708.408 498.459Z" fill="#DDFF53"/>
<path d="M673.334 453.381L673.385 451.215V450.132V449.464C673.459 449.222 673.517 448.975 673.557 448.726C673.683 447.925 673.761 447.117 673.79 446.307C673.806 446.041 673.778 445.774 673.709 445.517C673.712 445.494 673.712 445.47 673.709 445.446C673.709 445.446 673.658 445.497 673.648 445.517L673.577 445.699C673.549 445.786 673.508 445.868 673.456 445.942C673.223 446.296 672.808 446.863 671.998 447.966L669.529 451.134C668.952 451.924 668.264 452.622 667.616 453.361L666.604 454.454L665.592 455.466C663.138 457.966 660.424 460.195 657.495 462.116C655.559 463.281 653.498 464.225 651.352 464.929C650.275 465.284 649.166 465.534 648.042 465.678C646.91 465.769 645.773 465.769 644.641 465.678C643.234 465.536 643.447 464.848 644.449 463.856C644.702 463.603 644.996 463.33 645.33 463.047C645.664 462.763 646.018 462.409 646.402 462.085C646.787 461.761 647.192 461.417 647.617 461.073C648.06 460.784 648.527 460.533 649.014 460.324C650.751 459.534 652.409 458.579 653.963 457.47C654.732 456.913 655.531 456.387 656.321 455.851C657.11 455.314 657.859 454.687 658.588 454.039C660.096 452.721 661.523 451.311 662.859 449.819C663.507 449.059 664.235 448.361 664.883 447.551L665.845 446.388L666.331 445.801L666.462 445.639L666.644 445.335L667.019 444.707C667.596 443.746 668.173 442.764 668.749 441.793L669.579 440.345C669.863 439.87 670.146 439.192 670.43 438.635L672.099 435.082L672.929 433.291L673.031 433.068V432.957L673.182 432.815L673.486 432.552L675.753 430.528L676.978 429.516C676.998 429.507 677.021 429.502 677.044 429.502C677.066 429.502 677.089 429.507 677.109 429.516C677.192 429.532 677.27 429.57 677.332 429.627C677.423 429.7 677.508 429.782 677.585 429.87C677.731 430.041 677.863 430.224 677.98 430.417C678.223 430.822 678.455 431.257 678.698 431.732C679.351 433.126 679.739 434.63 679.842 436.165C680.044 438.19 680.125 440.548 680.206 442.815L680.308 446.236V447.956V449.586C680.247 453.199 680.196 456.812 680.136 460.415C680.075 465.881 679.862 471.366 679.923 476.791C679.923 481.001 680.399 485.141 680.591 489.331C680.591 490.252 680.743 491.163 680.743 492.094C680.743 495.555 680.176 496.669 678.273 497.286C677.848 497.452 677.412 497.587 676.968 497.691C675.5 497.903 674.417 496.476 674.093 493.997C673.232 486.367 672.86 478.689 672.98 471.012C672.98 465.192 673.051 459.353 673.081 453.523L673.334 453.381Z" fill="#1A1A1A"/>
</svg>
