<svg width="143" height="142" viewBox="0 0 143 142" fill="none" xmlns="http://www.w3.org/2000/svg">
<path d="M96.9059 93.6858C102.605 88.5987 107.435 82.6163 111.208 75.9741C111.858 74.749 112.566 73.5535 113.245 72.358C113.924 71.1403 114.53 69.8836 115.06 68.5942C116.754 64.0874 117.981 59.4185 118.721 54.661C119.496 49.995 119.802 45.2631 119.636 40.536C119.553 36.3741 119.193 32.2224 118.558 28.1083C118.187 25.4686 117.569 22.8694 116.713 20.3447C115.77 17.8453 114.542 15.463 113.053 13.2452C112.123 11.8726 111.695 12.3744 111.474 13.9537C111.34 14.9666 111.271 15.9872 111.267 17.009C111.121 18.3333 111.121 19.6697 111.267 20.9941C111.267 21.6288 111.356 22.2487 111.444 22.8538C111.533 23.459 111.695 24.0493 111.769 24.6693C111.902 25.8943 112.094 27.0899 112.212 28.3149C112.33 29.54 112.404 30.7503 112.463 31.9753C112.522 33.2004 112.551 34.4254 112.463 35.6505C112.463 38.1006 112.359 40.5507 112.182 43.0304C112.005 45.51 111.99 47.9749 111.754 50.4102C111.45 53.4263 110.801 56.3977 109.821 59.2661C108.816 62.1149 107.628 64.8956 106.264 67.5906C103.214 73.5465 99.1825 78.9456 94.3377 83.5606C92.8379 84.9969 91.2664 86.3566 89.6294 87.6343C88.8028 88.269 88.0058 88.9479 87.1497 89.5383L84.6111 91.3242C79.319 94.7917 73.5101 97.3972 67.4012 99.0436C62.7195 100.122 57.9137 100.564 53.1138 100.357C52.0806 100.446 51.0622 100.224 50.0142 100.254C48.9663 100.283 48.2431 100.342 47.5789 100.401C46.9739 100.499 46.39 100.699 45.852 100.992C44.9618 101.467 44.2286 102.19 43.7414 103.073C43.4752 103.464 43.2288 103.868 43.0034 104.283C42.7082 104.947 43.0034 105.597 43.6528 106.32C44.6623 107.292 45.8434 108.067 47.1361 108.608C48.3316 108.933 49.5419 109.154 50.7818 109.42L52.6562 109.774L54.5455 109.966C55.8141 110.113 57.0914 110.173 58.3683 110.143C59.6376 110.143 60.9217 110.01 62.2205 109.907C63.5194 109.803 64.774 109.567 66.0728 109.39C67.3453 109.184 68.6064 108.913 69.8513 108.578C71.1207 108.283 72.3605 107.855 73.6151 107.486C74.8696 107.117 76.0504 106.542 77.2755 106.01C84.4615 103.033 91.1315 98.9381 97.0388 93.8777L96.9059 93.6858Z" fill="#1A1A1A"/>
<path d="M32.5386 108.578C31.6451 107.626 30.9657 106.494 30.546 105.257C30.2548 104.276 30.3499 103.219 30.8117 102.305C31.4008 101.397 32.1221 100.581 32.9519 99.8848C34.5854 98.1873 36.4484 96.7267 38.4868 95.5455C40.686 94.158 43.0033 92.8592 45.3501 91.6489C47.4562 90.62 49.637 89.7516 51.8739 89.0512L56.0951 87.708C57.4096 87.2855 58.7005 86.7928 59.9622 86.2321C60.4197 85.9516 60.8183 84.6233 59.7851 83.2801C59.1901 82.5374 58.4243 81.9496 57.5531 81.5667C56.6819 81.1837 55.731 81.0171 54.7815 81.0809C53.1556 81.3271 51.5444 81.6622 49.9551 82.0846C48.4102 82.5569 46.89 83.0882 45.3943 83.6786C42.3815 84.8506 39.4857 86.3034 36.7451 88.018C35.092 89.0512 33.3209 89.9663 31.4759 90.9699C30.4587 91.4976 29.473 92.0841 28.524 92.7264C28.0493 93.0622 27.5959 93.427 27.1661 93.8186C26.7118 94.199 26.2919 94.6188 25.9115 95.0731C23.9621 97.1666 22.6779 99.7915 22.2215 102.615C21.879 105.441 22.4533 108.303 23.8599 110.778C25.3271 113.345 27.2185 115.646 29.4538 117.582C32.5888 120.259 35.9244 122.691 39.4314 124.858C42.0439 126.57 44.4349 128.578 47.0917 130.275C47.6666 130.666 48.274 131.007 48.9072 131.294C51.2982 132.297 52.3609 132.002 53.586 130.246C53.88 129.863 54.1511 129.464 54.3978 129.05C54.7338 128.334 54.8174 127.526 54.6352 126.757C54.4529 125.988 54.0155 125.303 53.3941 124.814C52.4709 123.863 51.4847 122.976 50.4422 122.157C49.3942 121.375 48.3168 120.681 47.2393 119.884C45.0844 118.408 42.8114 117.006 40.7745 115.53C37.7929 113.591 35.104 111.235 32.7895 108.534L32.5386 108.578Z" fill="#1A1A1A"/>
</svg>
