<svg width="84" height="85" viewBox="0 0 84 85" fill="none" xmlns="http://www.w3.org/2000/svg">
<g clip-path="url(#clip0_41_6242)">
<path d="M43.0619 67.7433C43.0465 67.8359 43.0483 67.9306 43.0673 68.0226C43.0918 68.18 43.1978 68.1295 43.2867 68.1296C43.3427 68.1285 43.3986 68.123 43.4538 68.113L43.544 68.0819L43.8955 67.9094C44.1555 67.7801 44.405 67.6306 44.6417 67.4624L45.3699 66.9683C45.7097 66.715 46.0325 66.4397 46.3363 66.1442C46.6725 65.8622 46.9595 65.5317 47.2852 65.233C49.6487 63.0267 51.5979 60.415 53.0405 57.5214C53.6849 56.2027 54.2042 54.8264 54.5916 53.4107C55.105 51.6011 55.3428 49.7434 56.0199 47.9709C56.2411 47.425 57.0685 47.6183 57.8076 48.2645C58.2354 48.6142 58.5664 49.0677 58.769 49.5818C58.9716 50.0959 59.0389 50.6533 58.9646 51.2009C58.5571 53.2414 57.9565 55.2385 57.1709 57.1653C56.3645 59.1088 55.3322 60.9507 54.0953 62.6529C52.6071 64.6656 51.2115 66.9401 49.239 68.7255C48.1544 69.712 46.9613 70.5722 45.6827 71.2896L45.0835 71.6065C44.8558 71.7407 44.62 71.8604 44.3774 71.9652C43.9313 72.1449 43.472 72.2899 43.0036 72.3989C42.5645 72.5242 42.1159 72.6132 41.6622 72.6651C41.2224 72.5429 40.8398 72.2694 40.5819 71.8928C40.2255 71.419 39.9456 70.8923 39.7522 70.3318C39.6434 70.0406 39.5474 69.7437 39.4553 69.4419C39.3632 69.1402 39.2628 68.7993 39.2199 68.6348C39.0227 67.8105 38.8603 67.0228 38.6455 66.2003C38.0575 63.7627 37.6006 61.3032 36.8727 58.9772C36.3105 57.1908 35.6446 55.4388 34.8782 53.7301C34.7255 53.3544 34.5394 52.9998 34.3907 52.6193C33.8374 51.2041 33.8612 50.6821 34.4154 50.0454C34.5254 49.8908 34.6459 49.7439 34.7759 49.6056C35.2257 49.2146 35.9809 49.575 36.7042 50.5558C37.7562 52.05 38.6714 53.6359 39.4388 55.2943C39.8233 56.1267 40.1823 56.9704 40.5364 57.8102C40.8905 58.65 41.1091 59.5565 41.3731 60.4275C41.755 61.7264 42.0937 63.0385 42.3868 64.3373L42.8393 66.2598L43.0742 67.1958L43.1833 67.6247L43.0619 67.7433Z" fill="#1A1A1A"/>
<path d="M49.0408 29.6193C49.1923 30.9233 49.3741 32.2199 49.4855 33.5234C49.5969 34.8269 49.718 36.1383 49.7542 37.4449C49.778 38.4018 49.9865 39.3404 49.9575 40.3025C49.9536 43.6818 49.6259 47.0529 48.9789 50.3697C48.8296 51.1039 48.7476 51.8448 48.6023 52.5743C48.457 53.3037 48.3262 54.045 48.1984 54.7726C48.1342 55.2453 47.9979 55.7074 47.8894 56.1356C47.8021 56.6108 47.687 57.0804 47.5447 57.542C47.2053 58.4479 46.7668 59.3136 46.2372 60.1231C45.8942 60.65 45.3905 60.318 44.9351 59.6215C44.3709 58.8158 44.0946 57.8434 44.1509 56.8614C44.1731 56.6371 44.1816 56.4098 44.2174 56.1886L44.353 55.5401L44.6185 54.2303C44.7529 53.3466 44.9107 52.4738 45.0812 51.5953C45.2517 50.7169 45.3269 49.8168 45.4877 48.9304C45.6486 48.044 45.7268 47.1303 45.8898 46.2214C45.9686 45.6711 46.013 45.1165 46.0228 44.5606C46.0519 44.0026 46.0713 43.4367 46.0691 42.8773L45.9129 39.5087C45.7665 37.0451 45.6307 34.5094 45.2608 32.0324C45.0819 30.4958 44.7934 28.9744 44.505 27.4531L43.7002 24.0377C43.3837 22.9055 43.0848 21.7716 42.683 20.6745C42.368 19.8264 41.9932 19.002 41.6144 18.1824C41.2356 17.3628 40.8067 16.5748 40.4846 15.7452C40.3504 15.3765 40.17 15.0347 40.0357 14.6661C39.5444 13.2936 39.6342 12.7207 40.2821 12.088C40.4201 11.9298 40.5703 11.7828 40.7315 11.6482C41.2437 11.26 42.0081 11.5794 42.7716 12.4719C43.3172 13.1373 43.8948 13.8128 44.3889 14.5411C44.883 15.2693 45.2592 16.0625 45.66 16.8355C46.0608 17.6085 46.3142 18.4627 46.6235 19.298C46.9327 20.1334 47.1677 20.9806 47.4299 21.8339C48.1474 24.3814 48.7267 26.9659 49.1653 29.5759L49.0408 29.6193Z" fill="#1A1A1A"/>
</g>
<defs>
<clipPath id="clip0_41_6242">
<rect width="60" height="60" fill="white" transform="translate(84.4395 38.0354) rotate(129.34)"/>
</clipPath>
</defs>
</svg>
