<svg width="143" height="200" viewBox="0 0 143 200" fill="none" xmlns="http://www.w3.org/2000/svg">
<path fill-rule="evenodd" clip-rule="evenodd" d="M115.426 176.718C118.114 176.596 117.033 172.186 116.84 170.566C114.712 164.65 115.212 158.196 114.375 151.996C113.854 146.207 113.184 140.437 112.62 134.653C111.514 122.912 103.565 99.0106 94.4948 95.1667C93.3523 90.464 88.633 86.0742 82.6621 86.0742C78.5897 81.5524 73.688 78.3701 67.4009 79.0127C64.8028 79.1236 62.2832 81.7083 59.7937 82.2074C58.3998 82.3877 46.0296 81.9237 43.5517 83.3041C41.8257 84.1354 40.2675 85.6716 40.775 87.6274C41.5848 89.9969 39.0683 87.433 33.8188 89.962C23.1145 95.9925 29.511 104.06 29.7944 104.31C23.1145 113.028 17.2759 120.1 14.5744 130.756C12.8236 138.667 13.0207 146.834 11.5538 154.786C11.0358 157.543 10.2412 160.206 9.38142 162.884C8.44955 166.388 7.99644 175.121 7.4828 175.199C6.54718 175.417 8.02354 177.219 9.01493 177.221C36.5014 181.498 64.4209 177.398 92.0551 176.728C99.8428 176.474 107.639 176.416 115.426 176.718Z" fill="#DB79E2"/>
<path fill-rule="evenodd" clip-rule="evenodd" d="M59.8283 89.8842C59.8283 92.6281 69.9857 102.824 73.4911 102.151C75.828 101.703 79.3589 98.7785 84.0837 93.3779V89.8842L83.0633 86.0809C88.8436 86.272 93.378 90.5699 94.4948 95.1668C103.475 98.9723 111.354 122.436 112.585 134.297L112.62 134.653C113.184 140.437 113.854 146.207 114.375 151.996C115.212 158.196 114.712 164.651 116.84 170.566L116.853 170.667C117.075 172.361 118.06 176.599 115.426 176.718C107.639 176.416 99.8428 176.474 92.0551 176.728C64.4209 177.398 36.5014 181.498 9.01493 177.221C8.02354 177.22 6.54718 175.418 7.4828 175.2C7.99644 175.122 8.44955 166.388 9.38142 162.884L9.55831 162.33C10.3495 159.839 11.0715 157.353 11.5538 154.786C13.0207 146.834 12.8236 138.668 14.5744 130.756C17.2759 120.101 23.1145 113.028 29.7944 104.31C29.511 104.06 23.1145 95.9926 33.8188 89.9622C39.0683 87.4331 41.5848 89.997 40.775 87.6275C40.2675 85.6717 41.8257 84.1355 43.5517 83.3042C46.0296 81.9238 58.3998 82.3879 59.7937 82.2076C60.4413 82.0777 61.0909 81.8068 61.7433 81.475L61.6301 81.8285C60.4289 85.6049 59.8283 88.2901 59.8283 89.8842Z" fill="#DB79E2"/>
<path fill-rule="evenodd" clip-rule="evenodd" d="M73.7664 105.079C73.7792 104.961 73.9489 104.962 73.962 105.079L74.1561 106.837C74.3922 108.983 74.6195 111.125 74.7843 113.281C74.9897 115.97 75.1271 118.658 75.1933 121.352C75.4242 130.737 75.4701 140.128 75.4896 149.515C76.843 149.427 78.1966 149.342 79.5508 149.26C80.4696 149.205 81.3885 149.151 82.3074 149.099L84.6506 148.966L85.6153 148.91C86.2672 148.872 87.0078 148.718 87.4636 149.26C87.6461 149.477 87.7376 149.759 87.5675 150.016C87.1752 150.61 86.5725 150.589 85.8909 150.615C85.2477 150.639 84.6046 150.663 83.9615 150.686C82.5833 150.736 81.2052 150.784 79.8266 150.82C78.3799 150.858 76.9338 150.889 75.4876 150.912C75.473 154.875 75.2982 158.833 75.1092 162.792L75.0236 164.573C74.7923 169.391 74.5435 174.212 74.1901 179.024C74.161 179.417 73.567 179.417 73.5382 179.024C73.1401 173.606 72.8776 168.176 72.6172 162.751C72.4283 158.817 72.3184 154.882 72.2661 150.947C72.0749 150.948 71.8838 150.951 71.6927 150.952C66.2646 150.974 60.838 150.996 55.4099 150.948C55.419 150.958 55.4279 150.968 55.4339 150.982C55.8266 151.851 55.864 152.961 55.8544 153.895C55.8435 154.965 55.6898 156.023 55.4269 157.064C54.4851 160.794 52.0559 164.134 49.2892 166.896L49.1988 166.986C48.5462 167.633 47.7976 168.283 47.3969 169.107C46.9876 169.948 46.8455 170.932 46.6435 171.836L46.6199 171.94L45.8302 175.361C45.5793 176.448 45.5081 178.033 44.591 178.817C43.7353 179.549 42.6018 179.166 42.1991 178.224C41.8847 177.489 42.1979 176.682 42.3841 175.947L43.8433 170.194C44.083 169.255 44.345 168.311 44.8625 167.468C45.3925 166.605 46.1696 165.979 46.9625 165.339C48.4639 164.126 49.8422 162.738 51.0079 161.235C52.1732 159.733 53.169 158.077 53.8673 156.335C54.217 155.463 54.5035 154.558 54.7012 153.645C54.8891 152.778 54.8874 151.881 55.0884 151.024C55.1021 150.965 55.1554 150.924 55.2165 150.906C55.202 150.868 55.2241 150.816 55.2811 150.813L59.7204 150.545C63.6664 150.306 67.6123 150.062 71.5549 149.782L72.2515 149.735C72.1974 144.484 72.2433 139.233 72.3444 133.98C72.4371 129.164 72.439 124.346 72.5917 119.53C72.6677 117.14 72.8314 114.755 73.0136 112.37C73.2 109.93 73.4983 107.511 73.7664 105.079ZM32.0839 133.007C32.0366 132.74 32.3953 132.574 32.5607 132.818C34.451 135.613 35.3624 138.649 35.7466 141.92C36.0859 144.806 35.9859 147.734 35.8169 150.628C35.6367 153.715 35.4264 156.801 35.2137 159.886L34.887 164.617L34.0671 176.477C34.0084 177.326 33.8031 178.097 33.0244 178.492C32.9258 178.569 32.823 178.638 32.7033 178.698C32.2825 178.909 31.7245 178.802 31.4813 178.397L31.5788 178.458C31.6638 178.508 31.5684 178.438 31.2925 178.248L31.0584 177.964C30.8883 177.724 30.7797 177.488 30.736 177.203C30.6682 176.76 30.7561 176.274 30.787 175.829L31.3244 168.052C31.7423 162.006 32.2304 155.961 32.5982 149.912C32.7696 147.093 32.8896 144.271 32.8084 141.447C32.7275 138.638 32.5749 135.782 32.0839 133.007ZM48.4366 80.945L48.5415 80.9285C52.2961 80.3435 56.3788 80.4529 59.8101 82.1506C59.8385 82.1646 59.8256 82.2088 59.7937 82.2075L58.6893 82.1661C55.1928 82.0377 51.7072 81.9617 48.2693 82.7322L47.9174 82.8118C46.6793 83.0951 45.3864 83.4418 44.3919 84.2088C43.4414 84.942 42.9681 86.073 42.513 87.1142L42.4522 87.2516C41.9904 88.28 41.406 89.2553 40.3939 89.8983C39.0831 90.7311 37.5065 90.6291 36.0035 90.7422C33.357 90.9416 31.1932 92.7407 30.1167 94.9423C29.4648 96.2754 29.1868 97.77 29.1317 99.2277C29.1035 99.9699 29.0994 100.741 29.2049 101.478C29.2385 101.714 29.5492 102.573 29.7077 102.552C30.0597 102.507 30.3815 102.679 30.4913 102.943C31.3608 102.155 32.2554 101.389 33.1788 100.652C35.4805 98.813 37.9597 97.1466 40.5706 95.7146C42.5632 94.6216 44.6651 93.5388 46.8416 92.7201C46.6692 92.7167 46.4991 92.7488 46.3345 92.8291C46.2625 92.8644 46.1908 92.7796 46.2477 92.7235C46.9333 92.0469 47.7544 91.9506 48.5823 92.1311C48.7589 92.0784 48.9357 92.0274 49.1131 91.979C49.2015 91.9548 49.2454 92.069 49.1734 92.1131L48.97 92.2349C49.8731 92.5187 50.7598 93.0764 51.4617 93.5166C53.4782 94.7806 55.253 96.326 57.0522 97.8424L57.3794 98.1173C58.9631 99.4437 60.5871 100.733 62.3864 101.797C63.3283 102.354 64.3176 102.869 65.3553 103.252C66.2453 103.581 67.6944 103.788 68.1113 104.67C68.4818 105.092 68.327 105.631 67.893 105.915C67.1612 106.671 65.6972 106.183 64.8251 105.868C63.7738 105.489 62.7553 105.033 61.7839 104.498C59.898 103.46 58.1592 102.168 56.5394 100.795C54.8477 99.3603 53.252 97.8364 51.6067 96.3568C50.8937 95.7157 50.1973 95.0595 49.4833 94.4194L49.1247 94.1008C48.7603 93.7803 48.2411 93.2806 47.686 92.9782C46.6402 93.5633 45.5783 94.1243 44.542 94.7245C43.0954 95.5624 41.6913 96.4606 40.309 97.3885C37.6477 99.1746 35.1258 101.175 32.7846 103.319C28.4908 107.252 24.8326 111.742 21.6369 116.497L21.3942 116.86C19.5782 119.581 17.8608 122.39 16.6432 125.398C15.3034 128.707 14.6518 132.187 14.2978 135.7C13.9465 139.187 13.828 142.692 13.4353 146.176C13.0327 149.75 12.2393 153.245 11.337 156.733L11.1217 157.56C10.3052 160.683 9.46248 163.807 9.04276 167.005C8.81869 168.713 8.68392 170.444 8.71438 172.166C8.74498 173.898 9.03511 175.592 9.26919 177.305C9.3589 177.962 8.67015 178.51 8.05387 178.597C7.34509 178.697 6.73618 178.272 6.51587 177.655C5.82907 175.73 5.70431 173.601 5.72587 171.581C5.74757 169.529 6.02671 167.491 6.41949 165.475C7.19196 161.509 8.38405 157.625 9.38129 153.707C10.2602 150.253 10.85 146.794 11.168 143.256C11.498 139.585 11.6957 135.902 12.2978 132.258C12.8921 128.66 14.0103 125.224 15.6967 121.943C17.2322 118.956 19.1463 116.145 21.153 113.42C23.5899 110.111 26.2663 106.962 29.258 104.093C28.9893 104.082 28.7133 104.001 28.4599 103.853C27.6847 103.399 27.3236 102.512 27.2126 101.702C26.9528 99.8065 27.0155 97.8279 27.5352 95.9749C28.3734 92.9857 30.549 90.3298 33.702 89.2523C34.5136 88.9749 35.3763 88.8737 36.2364 88.8537C37.0526 88.8347 37.944 88.9345 38.7315 88.6918C39.9849 88.3053 40.5222 86.9206 40.9929 85.8709L41.0145 85.8227C41.618 84.485 42.3424 83.3385 43.6495 82.5033C45.044 81.612 46.7913 81.2067 48.4366 80.945ZM84.1115 86.235C85.2397 85.8679 86.6503 86.2011 87.7537 86.5217C88.9829 86.8792 90.1188 87.5375 91.0927 88.3194C92.1201 89.1439 92.9692 90.1621 93.5691 91.2994L93.6264 91.409C94.1743 92.4641 94.7983 93.9124 94.5221 95.0715C94.5142 95.1044 94.5051 95.1361 94.4948 95.1668C96.7334 96.2004 98.8007 97.4951 100.601 99.1361C102.697 101.047 104.472 103.221 105.974 105.57C111.94 114.899 112.99 126.103 113.695 136.742L113.871 139.44C114.253 145.265 114.701 151.076 115.864 156.821L115.949 157.235C117.192 163.25 118.972 169.311 118.792 175.481C118.737 177.329 115.825 177.317 115.74 175.481C115.422 168.57 113.703 161.897 112.539 155.094C110.49 143.125 111.517 130.786 108.614 118.937C107.475 114.287 105.71 109.777 103.19 105.626C101.946 103.575 100.522 101.594 98.8535 99.8252C97.4182 98.3031 95.9266 96.8382 94.2493 95.5587C93.7133 96.0623 92.6425 95.8056 92.3627 95.0715C92.1704 94.567 92.2265 93.9772 92.1031 93.4487C91.9887 92.9583 91.8308 92.472 91.6205 92.0102C91.2013 91.0898 90.586 90.2059 89.8757 89.4609C89.1084 88.6557 88.2264 87.9867 87.2396 87.4343C86.246 86.8782 85.1593 86.7121 84.1115 86.3057C84.0761 86.292 84.0728 86.2476 84.1115 86.235ZM88.4949 150.2C88.4966 150.152 88.5576 150.129 88.5952 150.161C88.9907 150.503 89.2298 150.993 89.5209 151.413C89.8567 151.897 90.2093 152.371 90.5789 152.834C91.3197 153.759 92.1443 154.632 92.9755 155.487C93.7485 156.282 94.5725 157.043 95.4272 157.761C96.3532 158.539 97.3909 159.233 98.2322 160.094C99.9877 161.892 100.271 164.358 100.642 166.674L100.682 166.925C100.908 168.3 101.111 169.678 101.293 171.058C101.382 171.729 101.47 172.401 101.543 173.074L101.565 173.288C101.629 173.947 101.647 174.615 101.243 175.191C100.811 175.807 99.8295 176.023 99.2457 175.432C98.2428 174.417 98.4308 172.615 98.3004 171.31C98.1926 170.231 98.0703 169.153 97.9334 168.076L97.8638 167.538C97.7024 166.314 97.5714 165.065 97.2728 163.861C97.0095 162.802 96.5078 162.002 95.6847 161.234C94.8555 160.461 93.9939 159.739 93.2285 158.906C92.4167 158.023 91.6844 157.076 91.0246 156.088C90.4602 155.242 90.0079 154.322 89.5934 153.403L89.5247 153.25C89.1241 152.354 88.4636 151.188 88.4949 150.2ZM102.975 111.708C102.984 111.583 103.181 111.581 103.184 111.708C103.209 112.783 103.233 113.858 103.257 114.933C103.448 123.596 103.33 132.28 104.257 140.913C104.694 144.984 105.498 148.994 106.429 152.988C106.906 155.032 107.406 157.071 107.881 159.115C108.344 161.107 108.84 163.108 109.207 165.119C109.568 167.095 109.891 169.086 110.036 171.088L110.054 171.349C110.117 172.318 110.415 173.744 109.846 174.604C109.229 175.535 108.048 175.551 107.387 174.663C106.767 173.828 106.921 172.344 106.812 171.349C106.7 170.335 106.582 169.32 106.449 168.308C106.187 166.335 105.844 164.366 105.486 162.406C104.741 158.324 103.66 154.293 102.862 150.218C102.045 146.042 101.464 141.836 101.439 137.584C101.415 133.296 101.899 129.017 102.143 124.738C102.391 120.393 102.673 116.05 102.975 111.708ZM59.3472 84.7629C59.5952 83.9798 60.4703 83.4901 61.324 83.7101C62.1064 83.9118 62.7523 84.8025 62.4465 85.5645C62.1127 86.3961 61.5293 87.1051 61.0375 87.8609C60.5833 88.5593 59.9207 89.1092 59.4579 89.7952L59.9679 90.3108C60.223 90.568 60.4788 90.8237 60.7375 91.075L61.6269 91.9392C62.3196 92.6107 63.0166 93.2787 63.7333 93.9271C65.8407 95.8338 67.9815 97.6779 70.3416 99.3107C70.8789 99.6823 71.4203 100.052 71.9769 100.398L72.1845 100.527C72.5664 100.761 72.9924 100.992 73.4537 100.952C74.5747 100.856 75.5875 99.7389 76.3578 99.0439L76.3982 99.0077C78.3071 97.304 80.0747 95.4412 81.6201 93.4383C81.9632 92.9933 82.2955 92.5408 82.619 92.0828C81.8718 91.2642 82.0503 89.6661 82.0091 88.6733C81.98 87.9752 81.9778 87.277 81.9738 86.5783L81.9717 86.4374C81.9626 85.9853 81.9409 85.5516 82.2538 85.1795C82.272 85.158 82.3097 85.1586 82.3329 85.17C82.7614 85.3806 82.8934 85.7332 83.0762 86.1288L83.0954 86.1698C83.3179 86.6446 83.531 87.1238 83.7466 87.6013C83.9723 88.1012 84.1792 88.6085 84.389 89.1144C84.4866 89.3498 84.5798 89.586 84.6709 89.8236C84.7264 89.9753 84.7838 90.1263 84.8428 90.277L84.8567 90.2886C84.9346 90.3505 85.0007 90.416 85.0576 90.4836C85.2966 90.5958 85.4866 90.8002 85.5758 91.1006C85.7698 91.7543 85.3683 92.2874 85.0101 92.8062C83.5553 94.9145 81.8969 96.9235 80.0534 98.746C79.1377 99.6514 78.1746 100.516 77.1718 101.336L76.9964 101.479C76.0956 102.205 75.1176 102.893 73.9145 103.063C72.5066 103.261 71.3608 102.605 70.2831 101.848L70.1755 101.772C69.1538 101.047 68.1527 100.296 67.1827 99.5101C65.2051 97.9085 63.3237 96.1889 61.654 94.3023C60.0297 92.4672 58.4243 90.4152 57.4231 88.2072C57.3621 88.0727 57.5226 87.9319 57.6483 88.0442C58.1373 88.4809 58.6079 88.9413 59.0728 89.4075C59.0858 88.7212 58.9507 88.0289 59.0258 87.3383C59.1175 86.4987 59.091 85.5713 59.3472 84.7629Z" fill="#DB79E2"/>
<path fill-rule="evenodd" clip-rule="evenodd" d="M91.8679 46.1423C87.2914 40.049 75.7909 39.3626 68.5225 39.4012C54.1687 39.2889 51.1631 54.7977 50.4135 65.6652C48.8825 65.91 47.3936 66.4118 46.3834 67.5427C45.1532 68.9199 44.7283 71.2838 45.8816 72.824C46.6476 73.8468 47.8572 74.1886 49.1225 74.2455C53.3126 73.8696 54.1719 77.3805 56.2356 80.013C61.5313 86.7378 70.7053 88.9193 79.1196 88.9527C81.9776 89.0242 85.4205 89.2258 87.2508 86.6981C93.0317 77.2792 93.1576 64.7872 93.5139 54.1133C93.5629 51.3806 93.5505 48.4878 91.8679 46.1423Z" fill="#DB79E2"/>
<path fill-rule="evenodd" clip-rule="evenodd" d="M101.745 51.4279C101.803 51.5311 101.846 51.6454 101.87 51.7697C101.945 52.1643 101.79 52.4661 101.587 52.7591C101.614 52.9634 101.629 53.1615 101.64 53.3356C101.705 54.3136 101.467 55.6541 100.549 56.0533C100.535 56.0695 100.521 56.0855 100.505 56.1016C100.435 56.2099 100.327 56.3036 100.185 56.3719C100.149 56.395 100.114 56.4169 100.078 56.4357C100.068 56.4433 100.058 56.4501 100.048 56.4568C100.041 56.4618 100.033 56.4668 100.026 56.4721C100.037 56.4612 100.048 56.45 100.059 56.4388C100.067 56.4306 100.075 56.4224 100.083 56.4143C99.5755 56.6045 99.0854 56.6438 98.5623 56.586C98.239 56.6959 97.9149 56.7779 97.6413 56.8415C96.7876 57.0396 95.6867 57.1983 94.8547 56.8604C94.6122 56.762 94.4111 56.6317 94.26 56.4763C94.2724 57.0816 94.2913 57.6869 94.3192 58.2922C94.3761 59.8225 94.3734 61.3516 94.3609 62.8832C94.347 64.6066 94.2956 66.3313 94.1971 68.0535C94.1513 68.9184 94.0777 69.7821 93.9792 70.6431C93.8959 71.482 93.7988 72.3196 93.6863 73.1546C93.4212 74.8715 92.9841 76.6014 92.4511 78.2609C92.2193 78.981 91.9653 79.7103 91.6766 80.4227C91.5545 80.7501 91.4254 81.0737 91.2853 81.3946C90.5455 83.0763 89.6239 84.6992 88.379 86.1004C87.6989 86.8649 86.948 87.5525 86.1097 88.1304C85.4366 88.6236 84.7079 89.0411 83.9071 89.3698C82.1861 90.0769 80.2652 90.2361 78.4041 90.21C77.6941 90.2011 76.9415 90.0831 76.2376 89.9728L76.1945 89.966C75.6449 89.8812 75.0883 89.7677 74.5373 89.6347C74.0488 89.5277 73.5658 89.4037 73.0897 89.2589C72.5165 89.1167 71.9669 88.9119 71.4437 88.6471L70.5166 88.3196C70.1293 88.1826 69.7532 88.0195 69.3882 87.833L68.3806 87.3907C67.9628 87.2015 67.5561 86.9941 67.1592 86.7658C67.1176 86.7449 67.0704 86.7097 67.0523 86.6705C67.0094 86.6482 66.9663 86.6263 66.9231 86.6044C66.8629 86.5739 66.8026 86.5433 66.7428 86.5114C66.7262 86.5035 66.7387 86.4579 66.7609 86.4135C66.7428 86.3783 66.7456 86.3392 66.7956 86.3039C66.833 86.2765 66.8927 86.2844 66.9552 86.3026C66.9496 86.2987 66.9455 86.2948 66.9413 86.2909C66.8719 86.2557 66.8039 86.2217 66.7359 86.1865C66.6665 86.1513 66.6554 86.06 66.7206 86.0117C66.7387 85.9987 66.7595 85.9921 66.7803 85.9908C66.7796 85.9908 66.779 85.9905 66.7783 85.9902C66.7776 85.9899 66.7769 85.9895 66.7761 85.9895C66.7636 85.9817 66.7734 85.9452 66.7914 85.9047C66.7567 85.863 66.7456 85.8121 66.8067 85.7677C66.8904 85.706 67.0781 85.8071 67.1657 85.8544C67.1725 85.858 67.1787 85.8614 67.1842 85.8643C67.2387 85.8927 67.2937 85.9202 67.3486 85.9476C67.3818 85.9641 67.4149 85.9806 67.4479 85.9974C67.4534 85.9856 67.4645 85.9752 67.4826 85.9647C67.3536 85.9009 67.2261 85.8357 67.0985 85.7705L67.0981 85.7703C67.019 85.7312 66.9163 85.649 67.0204 85.572C67.1037 85.5094 67.3188 85.6164 67.4215 85.6712C67.434 85.6621 67.4479 85.6581 67.4645 85.6555C67.4467 85.6461 67.4283 85.6368 67.4099 85.6275C67.3826 85.6138 67.3551 85.5999 67.3285 85.5851C67.2036 85.5199 67.2883 85.3163 67.4174 85.3842C67.4326 85.3933 67.4479 85.4011 67.4632 85.4103C67.5515 85.4028 67.6737 85.4673 67.7369 85.5006L67.7463 85.5055C68.1807 85.7625 68.6332 85.9869 69.1023 86.18C69.4187 86.3209 69.7365 86.4605 70.0558 86.5962C70.3694 86.7423 70.6928 86.8688 71.0245 86.9758C71.8587 87.2811 72.7011 87.5655 73.5519 87.8291C74.7441 88.1357 75.978 88.3822 77.216 88.4788C77.377 88.4905 77.538 88.5009 77.699 88.5062C77.8747 88.5049 78.0505 88.5039 78.2261 88.5029C78.4027 88.5019 78.5791 88.5009 78.7552 88.4996C79.3765 88.4392 79.9977 88.3799 80.6179 88.3206L80.8065 88.3026C81.0452 88.2713 81.2784 88.2322 81.5088 88.1865C81.6296 88.1591 81.7503 88.1304 81.8697 88.0978C81.8974 88.0943 81.9251 88.0897 81.9529 88.0851C81.9668 88.0827 81.9807 88.0804 81.9946 88.0782C82.2874 88.0052 82.5747 87.9178 82.862 87.816C83.0424 87.7469 83.2215 87.6738 83.3991 87.5968C83.9862 87.3398 84.5636 87.0006 85.1077 86.6118C85.4494 86.2919 85.7911 85.9724 86.1328 85.6528C86.4726 85.335 86.8123 85.0173 87.1521 84.6992L87.7752 83.9008C88.5802 82.8193 89.2173 81.6138 89.7461 80.3835L90.5871 78.1056C90.6746 77.8317 90.7578 77.5577 90.837 77.2824C90.9966 76.6666 91.1562 76.0508 91.3158 75.4364C91.3685 75.2107 91.4199 74.9863 91.4698 74.7619C91.7766 73.3646 91.9459 71.9465 92.0916 70.5283C92.3581 67.9478 92.4303 65.3594 92.4497 62.7684C92.4622 61.2198 92.4483 59.6712 92.415 58.1239C92.3956 57.2269 92.3817 56.33 92.3678 55.433L92.3678 55.4311C92.3498 54.4788 92.3303 53.5251 92.304 52.5727C92.3026 52.5518 92.3109 52.5336 92.322 52.5179C92.3192 52.4057 92.3179 52.2935 92.3165 52.18C92.3151 52.1056 92.3456 52.073 92.39 52.0665C92.3817 51.3868 92.3762 50.7084 92.3748 50.03C92.3748 49.9856 92.397 49.9569 92.4261 49.94V49.7677C92.3054 49.2955 92.1416 48.8323 91.9292 48.3914C91.8571 48.2322 91.7766 48.0769 91.6877 47.9256C91.5781 47.6986 91.4351 47.4925 91.2603 47.3033C91.1145 47.0724 90.9355 46.8675 90.7273 46.6849C90.685 46.6562 90.6423 46.6275 90.5996 46.5988C90.5569 46.5701 90.5143 46.5414 90.4719 46.5127C90.4012 46.4775 90.2971 46.4161 90.2055 46.3457C90.1229 46.2981 90.0407 46.2502 89.9585 46.2023C89.8763 46.1543 89.794 46.1063 89.7114 46.0587C89.6156 46.0117 89.6781 45.8943 89.7461 45.863V45.8591C89.7308 45.8525 89.7141 45.8447 89.6961 45.8304C89.4962 45.6529 89.288 45.4859 89.0715 45.3294C89.0327 45.3437 88.9869 45.3385 88.9522 45.3111C88.8245 45.1989 88.694 45.0906 88.5608 44.9863C88.2624 44.8023 87.9501 44.634 87.6239 44.4853C87.1007 44.2531 86.565 44.0535 86.0154 43.8839C85.9085 43.8508 85.801 43.8209 85.6939 43.7912L85.6588 43.7814C85.594 43.7785 85.5293 43.7755 85.4646 43.7724C85.3604 43.7675 85.2563 43.7626 85.1521 43.7583C78.863 43.499 72.5575 43.6079 66.2827 44.0837C64.7369 44.201 63.193 44.3407 61.6517 44.5026C61.3611 44.5332 61.0581 44.557 60.7492 44.5812C59.6162 44.6701 58.4026 44.7654 57.423 45.2242C57.3703 45.249 57.32 45.2752 57.271 45.3022C57.3555 45.8112 57.5583 46.3097 57.7554 46.794C57.7853 46.8676 57.8151 46.9409 57.8444 47.0138C58.1862 47.8665 58.4925 48.7356 58.4621 49.6591C58.4408 50.303 58.2935 50.9222 58.0814 51.5273C57.9728 52.39 57.6867 53.2233 57.383 54.042C55.8887 58.0699 55.0752 62.1938 55.1588 66.4695C55.161 66.584 55.133 66.684 55.0847 66.769L55.0871 66.786C55.1136 66.9673 55.1402 67.1487 55.1714 67.3295C55.296 68.0501 54.2852 68.4084 53.9364 67.9308C53.913 67.9526 53.8805 67.9676 53.8505 67.97C53.7617 67.9778 53.616 67.8408 53.5743 67.7782C53.5202 67.6842 53.4633 67.5929 53.4022 67.5055C53.3939 67.5016 53.387 67.499 53.38 67.4964C53.3983 67.532 53.4169 67.5679 53.4354 67.6036C53.4547 67.641 53.474 67.6782 53.4924 67.7142C53.5535 67.8291 53.319 67.8852 53.2496 67.7795C53.1871 67.6869 53.1246 67.5981 53.0622 67.5133C53.0261 67.5381 52.9859 67.5446 52.9595 67.5042C52.736 67.1572 52.4779 66.8597 52.1947 66.6066C51.7492 66.2648 51.2621 66.0574 50.7083 65.936C50.2725 65.8773 49.8256 65.8747 49.3939 65.9217C48.8985 65.9765 48.3766 66.0926 47.9283 66.3052C47.5633 66.5414 47.1969 66.7775 46.8305 67.0137C46.7403 67.1024 46.6542 67.195 46.5737 67.2915C46.3197 67.6007 46.1157 67.9308 45.9478 68.2818C45.9408 68.3039 45.9339 68.3261 45.9269 68.347C45.8242 68.6418 45.7576 68.9445 45.7285 69.255C45.7264 69.4514 45.7246 69.6474 45.7229 69.8434C45.7212 70.0394 45.7194 70.2355 45.7174 70.4318C45.7729 70.9419 45.9117 71.4377 46.124 71.9086C46.224 72.1865 46.3808 72.4344 46.5931 72.6536C46.7069 72.8388 46.836 73.0071 46.9804 73.1637C47.2732 73.3463 47.5924 73.5016 47.9325 73.6242C48.0157 73.6451 48.099 73.666 48.1837 73.6816C48.6209 73.8395 49.0733 73.9243 49.5411 73.936C50.1323 73.9739 50.7111 73.9256 51.2773 73.7912C51.6271 73.7325 51.9657 73.6373 52.2933 73.5055C52.607 73.3568 52.9026 73.178 53.1788 72.9693C53.2093 72.951 53.2551 72.9615 53.3051 72.985C53.3157 72.9777 53.3264 72.9704 53.337 72.9632C53.3874 72.9289 53.4376 72.8948 53.4869 72.8571C53.5146 72.8388 53.5396 72.861 53.5521 72.8845L53.5688 72.8728C53.6784 72.8023 53.9796 73.0228 53.8436 73.1533C53.9019 73.1872 53.9602 73.2276 54.0129 73.2694C54.2544 73.2785 54.7416 73.696 54.65 73.7612C54.5139 73.8721 54.371 73.9739 54.2253 74.0704C54.3543 74.1604 54.5237 74.3 54.4445 74.3561C54.303 74.4827 54.1489 74.5923 53.9851 74.6862C53.8741 74.7658 53.7603 74.8415 53.6409 74.9106C53.5119 74.9824 53.38 75.0437 53.244 75.1011C53.4813 75.5329 53.7076 75.9687 53.9185 76.4122C54.0587 76.7266 54.2211 77.0306 54.4085 77.3229C54.6472 77.7677 54.9331 78.1852 55.2676 78.574C55.5396 79.0045 55.8588 79.3998 56.2238 79.7612C56.6749 80.2439 57.1593 80.6979 57.6742 81.118C57.8796 81.255 58.0892 81.3881 58.3071 81.5107C58.8637 81.9047 59.4563 82.2426 60.085 82.5244C60.1586 82.5623 60.2169 82.6458 60.1308 82.711C60.128 82.7123 60.1253 82.7123 60.1225 82.7149C60.3279 82.8245 60.5347 82.9328 60.7429 83.0398L60.7498 83.0433C60.8338 83.086 60.9893 83.165 60.8678 83.2576C60.7873 83.3202 60.5389 83.208 60.3904 83.135C60.4112 83.1454 60.4334 83.1572 60.4556 83.1689C60.4577 83.17 60.4603 83.1713 60.4632 83.1728C60.5248 83.2038 60.7576 83.3213 60.6027 83.3972C60.5208 83.4103 60.4431 83.3972 60.3682 83.3594C60.2904 83.332 60.2127 83.302 60.1364 83.2707C60.1391 83.2942 60.1253 83.3163 60.085 83.3346C60.0531 83.3398 60.0226 83.3398 59.992 83.3372C60.1614 83.4272 60.3307 83.5159 60.5014 83.6034C60.5514 83.6281 60.7873 83.7508 60.6319 83.8264C60.5555 83.8408 60.482 83.8291 60.4112 83.7925C60.2821 83.7469 60.1544 83.6934 60.0309 83.6347C60.0163 83.6268 60.0017 83.6193 59.9872 83.6118C59.9726 83.6043 59.958 83.5968 59.9434 83.589C59.9212 83.589 59.899 83.5864 59.8768 83.5825C60.0128 83.6516 60.1502 83.7182 60.289 83.7834C60.3709 83.8251 60.5083 83.9099 60.3904 83.996C60.3085 84.0548 60.0878 83.9491 59.9573 83.8799C59.949 83.8891 59.9393 83.8995 59.9254 83.9099C59.8403 83.9705 59.638 83.8609 59.536 83.8056C59.5215 83.7977 59.5091 83.791 59.4993 83.786C58.8109 83.439 58.1461 83.0802 57.5063 82.6692C57.1149 82.4331 56.7332 82.1852 56.3599 81.9152C55.6451 81.3959 54.9955 80.7919 54.4001 80.1552C53.9935 79.7195 53.7728 79.4742 53.3786 78.9458C52.7457 78.0952 52.2683 77.2081 51.8089 76.2674C51.802 76.2531 51.8158 76.2165 51.8367 76.18C51.7423 75.9621 51.6507 75.7416 51.5591 75.5133C51.3204 75.5433 51.0802 75.5642 50.8429 75.5773C50.2836 75.6073 49.7409 75.5603 49.2149 75.452C48.5778 75.375 47.9477 75.2054 47.3898 74.9393C47.0553 74.7814 46.7333 74.6131 46.428 74.4253C46.1546 74.2883 45.8909 74.1317 45.6383 73.9491C44.5626 73.1767 43.9783 71.9778 43.8354 70.7332C43.7257 70.1852 43.7021 69.6216 43.7673 69.0776C43.8145 68.6823 43.9089 68.2909 44.0463 67.9139C44.3003 67.0776 44.7736 66.3039 45.4592 65.7182C45.5744 65.6073 45.6952 65.5016 45.8242 65.4024C46.2059 65.1089 46.6389 64.8728 47.0997 64.7006C47.1885 64.6601 47.2788 64.6223 47.369 64.587L47.2593 64.3496C47.2205 64.36 47.0858 64.3392 47.0692 64.2948C47.0419 64.2252 47.0157 64.1545 46.9896 64.0841C46.9731 64.0398 46.9567 63.9955 46.9401 63.9517C46.9151 63.966 46.8832 63.9739 46.8485 63.9752V64.1069C46.8499 64.1448 46.7736 64.3796 46.7319 64.257C46.7056 64.1884 46.6809 64.1189 46.6561 64.0493C46.6404 64.005 46.6246 63.9606 46.6084 63.9165C46.5737 63.8956 46.5473 63.8708 46.5376 63.8421L46.5376 63.842C46.5334 63.8303 46.5293 63.8186 46.5237 63.8069C46.5224 63.8062 46.5206 63.8059 46.5189 63.8056C46.5171 63.8052 46.5154 63.8049 46.514 63.8043V63.8447C46.5154 63.8695 46.446 64.0574 46.4335 64.0208C46.1934 63.3998 45.9977 62.7658 45.8451 62.1213C45.741 61.7664 45.6591 61.4077 45.5966 61.0437C45.5286 60.7162 45.4689 60.3874 45.4176 60.0561L45.4051 59.9739L45.4009 59.9556C45.3968 59.9204 45.3926 59.8839 45.387 59.8486C45.3315 59.4742 45.2857 59.0985 45.251 58.7201C45.1775 57.9426 45.1483 57.1611 45.1566 56.3809C45.1454 56.385 45.1346 56.3901 45.1238 56.3952C45.1173 56.3983 45.1107 56.4015 45.1039 56.4044C44.7433 56.5487 44.3623 56.6666 43.9747 56.7606C43.3078 57.6665 42.2431 58.2795 40.9672 58.344C40.5352 58.3659 40.0822 58.3165 39.6627 58.2018C39.6192 58.2112 39.5742 58.2188 39.5276 58.2245C39.3085 58.2514 39.1321 58.2073 38.9496 58.1617C38.8473 58.1361 38.7431 58.1101 38.6283 58.0957C38.5869 58.0906 38.546 58.0856 38.5056 58.0807C38.047 58.0254 37.6559 57.9781 37.3516 57.7214C37.2493 57.7236 37.1516 57.7097 37.0587 57.6836C36.1806 57.8815 35.2475 57.4452 34.9387 56.5309C34.412 56.2408 33.9923 55.8104 33.7101 55.311C33.1666 54.6561 32.7321 53.8531 32.4625 53.0094C32.4609 53.0062 32.4591 53.0031 32.4574 52.9999C32.4548 52.9952 32.4522 52.9904 32.4498 52.9855C32.3131 52.7068 32.248 52.4079 32.2424 52.1081C32.097 51.2541 32.1353 50.3991 32.4119 49.6475C32.4002 49.24 32.5021 48.8154 32.6886 48.4301C32.9147 47.9629 33.2595 47.4258 33.7068 47.1143C33.7079 46.6355 33.9268 46.1084 34.2137 45.7512C34.7862 45.0377 35.6164 44.6605 36.515 44.606C36.9719 43.505 38.3563 43.2478 39.5505 43.6143C40.0465 43.1379 40.7731 42.9103 41.4983 42.9914C42.1114 43.0598 42.6355 43.3355 43.0694 43.7154C43.1837 43.7461 43.2977 43.778 43.4115 43.8113C43.7914 43.6546 44.2345 43.6191 44.6399 43.7174C45.3426 43.8876 45.8011 44.3881 46.1182 44.9621C46.2194 45.0276 46.3182 45.0952 46.4146 45.1658C46.5205 45.2104 46.6167 45.27 46.704 45.3402C46.8309 45.4037 46.9386 45.5082 47.0042 45.6598C47.1833 45.8334 47.3498 46.0169 47.4972 46.2138C47.6076 45.9739 47.7214 45.7356 47.8389 45.4991C48.0303 45.5533 48.2617 45.4832 48.358 45.2429L48.3825 45.1817C48.9981 43.6461 50.0941 40.912 51.1277 39.643C49.9052 40.4254 48.4127 40.8378 46.9301 40.7963C46.8667 40.7945 46.8027 40.792 46.7382 40.7887C45.9412 40.9179 45.1317 40.9299 44.3884 40.7898C43.888 40.619 43.4002 40.4155 42.9277 40.1852C42.8127 40.1291 42.6988 40.0702 42.5853 40.0107C42.5497 39.9825 42.516 39.952 42.4823 39.9215C42.4691 39.9094 42.4558 39.8974 42.4424 39.8855C42.3447 39.8922 42.2425 39.885 42.1336 39.8579C41.7246 39.7563 41.3461 39.5004 41.1088 39.1717C41.0647 39.1105 41.0291 39.0475 40.9975 38.9839C40.74 38.7473 40.517 38.4792 40.3531 38.1657C40.1602 37.7991 40.0422 37.3868 40.0297 36.9745C39.9492 36.5701 39.9548 36.1539 40.1047 35.7677C40.1151 35.7414 40.1267 35.7157 40.1384 35.6897C40.1452 35.6745 40.1521 35.6592 40.1588 35.6438C40.1622 35.6331 40.1651 35.6222 40.1681 35.6113C40.1723 35.5955 40.1766 35.5796 40.1824 35.5642C40.2262 35.4266 40.282 35.3039 40.3498 35.1878C40.3749 35.0685 40.416 34.9501 40.474 34.8349C40.4805 34.7792 40.4885 34.7235 40.4981 34.6681C40.057 33.8859 40.2133 32.8631 40.8736 32.2274C40.7822 31.8164 40.8752 31.3807 41.1413 31.016C41.3367 30.748 41.6083 30.5366 41.916 30.3898C41.9481 30.3745 42.033 30.3483 42.1346 30.3182C42.2484 30.2236 42.3685 30.1341 42.4999 30.0553C42.5312 29.2908 43.343 28.8498 44.0459 28.468C44.0799 28.4495 44.1136 28.4312 44.1469 28.413C44.3759 28.2881 44.542 28.1086 44.7082 27.929C44.8827 27.7404 45.0573 27.5517 45.3049 27.4259C45.738 27.2061 46.2702 27.1556 46.7698 27.1082C46.8802 27.0977 46.989 27.0873 47.0947 27.0754C48.4725 26.9193 49.9397 26.7988 51.3244 26.9398C52.0931 27.0181 52.7298 27.3671 52.9931 27.9388C53.6544 28.0122 54.2439 28.4608 54.7102 28.9221C55.2923 29.4978 55.7879 30.1107 55.9588 30.8673C56.0726 30.9251 56.176 30.9958 56.2694 31.0756C56.2659 31.6077 56.1921 32.1406 56.0358 32.6428C56.0817 32.943 55.9855 33.2296 55.8229 33.4895C55.8477 33.7355 55.83 33.9778 55.7751 34.2193C56.0916 34.747 55.7954 35.5445 55.3521 36.0678L55.3488 36.3629C55.3751 36.35 55.4008 36.3347 55.4248 36.3156C56.6999 35.2956 57.9975 35.0145 59.3992 34.7108C60.2086 34.5355 61.0527 34.3526 61.9472 34.0156C64.1509 33.6158 66.4002 33.3612 68.6574 33.2765C68.6447 33.2748 68.632 33.2732 68.6193 33.2716C68.6022 33.2695 68.5851 33.2674 68.5681 33.2648C67.4305 33.0897 66.338 32.6499 65.3984 32.0181C65.1496 31.9589 64.9138 31.8533 64.7027 31.6768C64.4976 31.5054 64.3556 31.3076 64.274 31.0955C64.2368 31.058 64.2 31.0203 64.1638 30.982C63.4585 30.8191 62.9214 30.2455 63.0113 29.4914C62.5647 28.9945 62.4003 28.3809 62.5515 27.742C62.3019 27.3458 62.2801 26.8463 62.4664 26.4279C62.0742 25.9801 62.0436 25.3445 62.3512 24.8379C62.0704 24.4628 62.0084 23.9658 62.3548 23.5216C62.5183 23.3118 62.7448 23.1795 62.9916 23.1156C63.0613 22.8738 63.203 22.6493 63.4256 22.4759C63.5401 22.3868 63.66 22.3206 63.7825 22.2713C63.8286 22.0218 63.9787 21.7851 64.2673 21.5989C64.3984 21.5145 64.5324 21.46 64.6657 21.4297C64.7918 21.1362 65.012 20.8788 65.3216 20.7116C65.6955 20.5101 66.1303 20.4833 66.5266 20.589C67.044 19.854 68.1793 19.569 68.9664 20.1143C69.6218 19.733 70.4462 19.8134 71.0352 20.2769C71.7475 19.8812 72.632 20.0409 73.1906 20.5927C74.0857 20.1329 75.2671 20.4725 75.7463 21.3436C76.6496 21.2494 77.5008 21.8052 77.7416 22.6096C77.7808 22.6395 77.8195 22.6702 77.8581 22.7009L77.8683 22.709C78.4095 22.7334 78.9237 22.9328 79.2269 23.4058C79.3785 23.6421 79.4485 23.9197 79.4382 24.1917C79.7617 24.3561 80.023 24.6258 80.1351 24.9753C80.24 25.303 80.2004 25.6272 80.0625 25.9097C80.513 26.3602 80.6321 27.0623 80.3128 27.6281C80.445 27.8411 80.5137 28.0927 80.5028 28.3543C80.4869 28.7416 80.2958 29.0538 80.0358 29.3204C80.3627 29.8749 80.2353 30.5861 79.704 30.9749C79.3988 31.992 78.6263 32.6687 77.4426 33.0839C76.8482 33.2923 76.2263 33.4529 75.5924 33.5709C78.1288 33.8917 80.6242 34.4555 83.0211 35.2962C83.1515 35.342 83.2622 35.3242 83.3467 35.2708C83.3697 35.2823 83.3929 35.2933 83.4161 35.3044C83.4457 35.3185 83.4754 35.3327 83.5046 35.3476C84.1653 35.6882 84.812 36.0574 85.4421 36.4527C85.4421 36.3874 85.4435 36.3222 85.4463 36.2557C85.4341 35.7188 85.4942 35.19 85.6459 34.6803C85.4474 34.4261 85.2989 34.1362 85.2181 33.8374C85.0165 33.0919 85.4001 32.0311 86.0892 31.7765C86.3307 31.1469 86.8799 30.6913 87.553 30.512C87.6065 30.4668 87.6632 30.4228 87.7266 30.382C87.8684 30.2904 88.0234 30.2279 88.1827 30.1916C88.2656 29.8505 88.4681 29.5364 88.8039 29.3161C89.2779 29.0049 89.8385 28.9711 90.3309 29.1409C90.4246 29.1112 90.5197 29.0855 90.6156 29.0632C91.4084 28.4289 92.644 28.4756 93.3416 29.2178C93.8204 29.0121 94.3847 29.003 94.8749 29.2798C95.2672 29.5013 95.5113 29.8585 95.6068 30.2506C96.3493 30.272 97.0286 30.7351 97.2427 31.4263C97.927 31.4991 98.4867 32.0024 98.6055 32.636C99.042 32.6931 99.4452 32.8859 99.6904 33.2694C99.8038 33.4467 99.8653 33.6407 99.8813 33.8349C100.102 33.9345 100.3 34.0852 100.449 34.282C100.711 34.627 100.762 35.0297 100.665 35.4087C100.674 35.4259 100.684 35.4429 100.693 35.4599C100.707 35.4845 100.72 35.5091 100.733 35.5342C100.804 35.6767 100.861 35.8294 100.912 35.9846C101.142 36.2965 101.249 36.6779 101.227 37.0609C101.276 37.2229 101.324 37.3854 101.363 37.5486C101.518 38.1891 101.577 38.8715 101.47 39.5238C101.417 39.8395 101.341 40.15 101.232 40.4514C101.221 40.5088 101.203 40.5623 101.182 40.6131C101.123 40.8506 101.046 41.0841 100.949 41.3124C100.716 41.6034 100.472 41.8865 100.215 42.1604C99.9986 42.4657 99.7515 42.7475 99.4725 43.0058C99.2713 43.1924 99.0506 43.3659 98.8161 43.5225C98.3504 43.8733 97.8294 44.1469 97.2735 44.3248C97.1743 44.3052 97.0745 44.29 96.9746 44.275C96.3434 44.6017 95.3502 44.6386 94.7428 44.6364C94.0736 44.634 93.4607 44.4751 92.951 44.1749C93.0101 44.2854 93.0691 44.3961 93.1281 44.5069C93.1241 44.5091 93.1201 44.5112 93.116 44.5133C93.1051 44.5189 93.0941 44.5246 93.0848 44.5313C92.9746 44.3598 92.8517 44.2074 92.7068 44.0978C92.509 43.9479 92.19 43.9345 92.0529 44.177C92.0505 44.1811 92.0482 44.1853 92.0458 44.1895L92.0457 44.1898C91.9725 44.3191 91.9828 44.4431 92.0386 44.5444C92.0459 44.5543 92.0533 44.5642 92.0606 44.5742C92.0736 44.5919 92.0866 44.6096 92.0995 44.6274C92.1016 44.6296 92.1036 44.6318 92.1056 44.6341C92.1107 44.6398 92.1159 44.6456 92.1216 44.6508L92.118 44.6512C92.3074 44.7946 92.494 45.1458 92.6708 45.4872C92.7904 45.6867 92.9043 45.8891 93.011 46.0949C93.0733 46.1813 93.1839 46.2571 93.3016 46.2792C93.2786 46.4435 93.3591 46.6135 93.4912 46.6978C93.5259 46.6321 93.5681 46.5647 93.6224 46.4953C94.2189 45.7337 95.3908 45.4051 96.2734 45.7531C96.4494 45.7252 96.6262 45.7021 96.8047 45.6889C97.3873 45.6528 97.9779 45.6959 98.5533 45.8092C98.7319 45.9099 98.9027 46.0233 99.0617 46.1526C99.1963 46.2622 99.3213 46.377 99.4378 46.4957C99.5281 46.5593 99.6167 46.6266 99.7038 46.6968C100.057 46.8751 100.316 47.2172 100.533 47.5577C100.706 47.7872 100.857 48.031 100.987 48.2893C101.593 49.2626 102.291 50.4709 101.745 51.4279ZM53.2134 70.2361C53.4355 70.4775 53.609 70.7462 53.7339 71.0424C53.7839 71.1376 53.7228 71.195 53.6201 71.1781C53.5743 71.1715 53.5118 71.1402 53.448 71.0985C53.4528 71.1096 53.458 71.12 53.4633 71.1304C53.4685 71.1409 53.4737 71.1513 53.4785 71.1624C53.5326 71.2629 53.4868 71.3346 53.3633 71.2968C53.3564 71.2929 53.3494 71.289 53.3439 71.285C53.4077 71.392 53.466 71.5016 53.516 71.6164C53.5701 71.7182 53.5215 71.7886 53.3994 71.7495C53.3356 71.7156 53.2745 71.6764 53.2162 71.6334C53.2234 71.6483 53.2306 71.6631 53.2379 71.6778C53.2573 71.7174 53.2767 71.7569 53.2939 71.7978C53.3494 71.9008 53.2856 71.9543 53.1773 71.9308C53.0844 71.8826 52.9983 71.8252 52.9178 71.7586C52.9096 71.7526 52.902 71.7461 52.8946 71.7397C52.8907 71.7363 52.8869 71.7331 52.8831 71.7299C52.9192 71.8147 52.8512 71.8669 52.761 71.8499C52.6333 71.8265 52.3932 71.6242 52.3349 71.5173C52.3328 71.514 52.3311 71.5107 52.3293 71.5075C52.3276 71.5042 52.3259 71.501 52.3238 71.4977C52.2558 71.4546 52.1822 71.3946 52.1267 71.3372C52.0823 71.3972 51.9962 71.4416 51.9574 71.3685C51.8408 71.0698 51.659 70.8141 51.4105 70.5988C51.269 70.4044 51.0969 70.2387 50.8956 70.1017C50.7874 70.0156 50.6749 69.9334 50.5597 69.8552C50.3557 69.7678 50.1434 69.7012 49.9213 69.6569C49.8961 69.6495 49.8705 69.6437 49.8449 69.638C49.8254 69.6337 49.8059 69.6293 49.7867 69.6242L49.7706 69.6215C49.6776 69.6054 49.5856 69.5896 49.4924 69.5773C49.0913 69.5251 48.6888 69.516 48.2863 69.5499C48.2142 69.5525 48.1448 69.5003 48.1142 69.4403C48.024 69.4442 47.9352 69.4481 47.845 69.4559C47.6965 69.4612 47.7284 69.2642 47.8408 69.2446C47.9824 69.2198 48.124 69.2015 48.2628 69.1859C48.26 69.1741 48.2586 69.1611 48.2614 69.1507C48.0074 69.1389 47.7548 69.1441 47.4994 69.1689C47.3884 69.1741 47.5202 68.9811 47.5813 68.9706C47.609 68.9654 47.6368 68.9628 47.6659 68.9576C47.6632 68.9537 47.6618 68.9511 47.6604 68.9471H47.6535C47.5008 68.9537 47.3967 68.7254 47.5799 68.694C47.6019 68.6903 47.6235 68.6871 47.645 68.684C47.6683 68.6806 47.6914 68.6772 47.7145 68.6732C47.7062 68.651 47.7048 68.6314 47.7131 68.6132C47.634 68.6119 47.5563 68.6119 47.4772 68.6119C47.4979 68.6106 47.5161 68.5694 47.5351 68.5263C47.5555 68.4799 47.5769 68.4313 47.6035 68.4279L47.7256 68.4122C47.7284 68.364 47.8061 68.2518 47.8394 68.2453C48.1031 68.2035 48.3613 68.1748 48.6167 68.1657C48.6417 68.1109 48.6777 68.0378 48.7124 68.0378C49.0025 68.0339 49.2815 68.0365 49.5591 68.0639C49.5702 68.0561 49.5813 68.0522 49.591 68.0535C49.607 68.0571 49.6226 68.0606 49.6379 68.0641C49.6663 68.0705 49.694 68.0767 49.7228 68.0835C49.8769 68.1043 50.0309 68.1344 50.1878 68.1774C50.5584 68.2805 50.9289 68.4436 51.2495 68.6458C51.5521 68.8362 51.8533 69.0346 52.117 69.272C52.21 69.3464 52.2974 69.4272 52.3807 69.5107C52.5153 69.6151 52.6458 69.7221 52.7707 69.8278C52.9234 69.9595 53.0719 70.0952 53.2134 70.2361Z" fill="#DB79E2"/>
<path fill-rule="evenodd" clip-rule="evenodd" d="M72.067 69.0151C75.7541 69.0151 78.7431 66.5618 78.7431 63.5356C78.7431 60.5094 75.7541 58.0562 72.067 58.0562C68.3799 58.0562 64.3896 60.4099 64.3896 63.4361C64.3896 64.7201 65.4681 66.964 66.3694 67.8981C67.5922 69.1654 69.9444 69.0151 72.067 69.0151Z" fill="#DB79E2"/>
<path fill-rule="evenodd" clip-rule="evenodd" d="M87.9581 67.9664C90.7806 67.9664 93.0687 65.7479 93.0687 63.0113C93.0687 60.2746 90.7806 58.0562 87.9581 58.0562C85.1356 58.0562 82.0811 60.1846 82.0811 62.9213C82.0811 64.0824 82.9066 66.1115 83.5965 66.9562C84.5326 68.1023 86.3333 67.9664 87.9581 67.9664Z" fill="#DB79E2"/>
<path fill-rule="evenodd" clip-rule="evenodd" d="M71.9736 72.4189C72.0028 72.3936 72.049 72.3847 72.0842 72.4054C72.686 72.7624 72.7572 73.9628 72.764 74.6561C73.013 74.7169 73.2589 74.786 73.4914 74.8343C73.9852 74.9368 74.4818 75.0261 74.9774 75.1204L75.3488 75.1923C76.5902 75.4377 77.8549 75.6193 79.12 75.7102C80.3479 75.7984 81.6113 75.8306 82.8357 75.6823C83.3614 75.6185 83.8841 75.512 84.3922 75.37C84.9928 75.2019 85.4711 74.9234 86.0296 74.6794C87.428 74.0685 88.5999 75.8588 87.2541 76.6444C86.0989 77.3186 84.5228 77.5616 83.1892 77.666C81.8262 77.7726 80.4685 77.6555 79.1219 77.4533C77.6661 77.2345 76.2402 76.8986 74.8595 76.4114C74.2757 76.2055 73.7107 75.9558 73.1591 75.6828L73.009 75.6078C72.9173 75.5616 72.8217 75.5148 72.7256 75.4673C72.6223 76.3319 72.3245 77.167 71.9647 77.9697L71.9562 77.9556C71.7594 78.5889 71.0484 78.9807 70.341 78.7009C69.5107 78.3729 69.4477 77.5115 69.9308 76.9002L69.9538 76.8717C70.5218 76.1863 70.8778 75.3359 71.1871 74.5253C71.3458 74.1098 71.4927 73.6842 71.6201 73.2592C71.7123 72.9517 71.7156 72.6424 71.9736 72.4189ZM93.3692 65.534C92.8771 66.9291 91.8038 68.0035 90.3086 68.4758C88.8268 68.944 87.1787 68.7734 85.664 68.5202C85.3327 68.4648 84.9968 68.4037 84.6616 68.3324C84.9359 68.4918 85.1783 68.7162 85.4102 68.9534C85.7531 69.3042 86.0641 69.6739 86.1584 70.1129C86.2521 70.5486 86.1046 70.88 85.8356 71.1301C85.4219 71.5149 84.7545 71.7222 84.1891 71.8367C82.9233 72.0934 81.6552 72.0535 80.3955 71.7904C80.0739 71.7232 79.8558 71.5614 79.7333 71.3505C79.5846 71.0941 79.5724 70.7754 79.6578 70.4851C79.743 70.1949 79.9273 69.9274 80.1948 69.7794C80.415 69.6575 80.6903 69.6241 81.0029 69.7216C81.6302 69.9174 82.253 70.0471 82.9156 70.0621C83.196 70.0682 83.4783 70.0604 83.7583 70.0363C83.9167 70.0226 84.0747 70.0037 84.2318 69.9801C84.1392 69.8645 84.0494 69.7468 83.9616 69.6279C83.8578 69.4873 83.7567 69.3449 83.6602 69.2002C83.3812 68.781 83.1488 68.3501 82.9447 67.8953C82.8792 67.7496 82.8185 67.6033 82.7602 67.4564C82.7518 67.4353 82.7434 67.4141 82.735 67.3929C82.7171 67.3788 82.6992 67.3645 82.6815 67.3502C82.2821 67.0261 81.9473 66.6269 81.7105 66.1325C81.0694 64.7931 81.1738 63.1307 81.5628 61.74C81.8746 60.6253 82.5628 59.5943 83.472 58.8938C83.6308 58.6488 83.7356 58.5002 83.864 58.375C84.3866 57.8651 85.1157 57.5211 85.8273 57.3119C87.4165 56.8445 89.1473 57.1798 90.4945 58.0699C91.7384 58.8917 92.7122 60.1242 93.2384 61.4949C93.7367 62.7931 93.8339 64.217 93.3692 65.534ZM71.7221 57.0556C73.6122 57.0405 75.5351 57.5639 77.0688 58.6114C78.5362 59.6137 79.6881 61.0936 79.6867 62.8562C79.6853 64.5725 78.7072 66.2599 77.6225 67.5887C76.405 69.0804 74.8139 69.7996 72.8133 69.8162C71.7734 69.8249 70.7258 69.7385 69.6934 69.6199L69.1395 69.5544C68.3767 69.4621 67.606 69.3528 66.883 69.107C63.4415 67.9361 63.3349 63.7106 64.6095 61.0097C65.5937 58.9243 68.0845 56.8907 70.5683 57.1348C70.9426 57.0856 71.3269 57.0589 71.7221 57.0556ZM74.9143 59.0427C72.5475 58.0462 69.6718 58.3446 67.3759 59.408C66.4664 60.3387 65.8017 61.5117 65.5327 62.5885C65.2455 63.738 65.2875 64.9763 65.7194 66.0904C66.2467 67.4505 67.545 67.7874 68.9456 67.9964L69.4894 68.0765L69.7175 68.1089C71.0937 68.3014 72.5982 68.4512 73.9208 68.2102C75.3947 67.9413 76.3308 66.8244 77.0675 65.6793L77.1019 65.6256C77.867 64.4257 78.5075 62.9665 77.8658 61.5917C77.3202 60.4231 76.1283 59.5538 74.9143 59.0427ZM88.884 59.3899C88.0718 58.9677 87.1453 58.891 86.2683 59.1736C85.8909 59.2951 85.5648 59.4922 85.2487 59.713L85.1226 59.8025C84.7338 60.0825 84.3707 60.2243 84.079 60.6023L84.0414 60.653C83.8942 60.8592 83.6368 60.9416 83.4023 60.9142C83.129 61.6209 83.0162 62.3852 83.0139 63.1376L83.0141 63.2373L83.0155 63.339C83.033 64.2283 83.1985 65.3162 83.9444 65.9123C84.6248 66.4558 85.6551 66.5863 86.5749 66.662L87.2838 66.7174L87.4722 66.7308C88.4417 66.794 89.5041 66.7725 90.3166 66.2341C91.0242 65.7652 91.3581 64.9694 91.4446 64.1836C91.6492 62.3273 90.6475 60.3064 88.884 59.3899ZM71.2038 59.5614C72.5072 58.9372 74.0728 59.0937 75.1769 59.8759C75.0788 59.8939 74.9823 59.9169 74.8861 59.9622C74.6356 60.08 74.4801 60.3159 74.4208 60.5669C74.3541 60.8506 74.5108 61.1192 74.8094 61.2087C75.0692 61.2865 75.3773 61.3221 75.6186 61.174C75.7451 61.0965 75.8334 60.9944 75.8914 60.8658L75.8996 60.8468L75.9098 60.833L75.9136 60.8265C75.9145 60.824 75.91 60.8287 75.9028 60.8393C75.9101 60.8232 75.917 60.8072 75.9238 60.7909C75.9339 60.7714 75.9437 60.7519 75.9516 60.7316C75.9656 60.7203 75.9784 60.7076 75.9914 60.695C76.1919 60.9845 76.3494 61.3114 76.4494 61.6751C77.0911 64.0098 74.4596 66.4326 72.1087 66.675C71.2202 66.7666 70.41 66.5682 69.7377 66.177C69.7438 66.1693 69.7506 66.1624 69.7562 66.1543C70.0263 66.1999 70.3487 66.0865 70.4468 65.8039C70.697 65.0831 70.4404 64.2399 69.6031 64.0044C69.0643 63.8528 68.5129 64.0204 68.1278 64.3658C67.8366 63.6972 67.7324 62.9444 67.8702 62.1905C68.0647 61.1268 68.7487 60.1683 69.8132 59.7258C70.3316 59.5101 70.7783 59.4648 71.2038 59.5614ZM84.9296 61.0018L84.9693 60.9432C85.372 60.3618 86.1419 59.6486 86.9398 59.8447C87.0519 59.8723 87.1618 59.9166 87.2608 59.9741C87.6992 59.9183 88.1582 60.0117 88.5351 60.2292L88.5248 60.2536C88.5232 60.2577 88.5217 60.2618 88.5206 60.2661C88.4863 60.4075 88.5063 60.5383 88.5767 60.6682C88.653 60.809 88.7619 60.9424 88.9094 61.0232C89.0105 61.0785 89.1294 61.1076 89.246 61.1054C89.4169 61.1025 89.5674 61.0319 89.6909 60.9242C89.7581 60.8657 89.8049 60.78 89.8308 60.6918C89.8917 60.7466 89.9508 60.8077 90.0072 60.8769C90.9322 62.018 90.8044 63.8515 89.7191 64.8686C89.6753 64.9096 89.6287 64.9466 89.5827 64.9844C89.1421 65.5534 88.4629 65.9396 87.6472 66.0177C86.8919 66.0901 86.1367 65.8806 85.5576 65.4511C85.6042 65.4279 85.6477 65.3978 85.6853 65.3578C85.7841 65.2528 85.8655 65.1492 85.9256 65.021C85.9407 64.9887 85.9553 64.9562 85.9691 64.9234L85.9892 64.8739C85.9926 64.8649 86.0235 64.7814 86.0153 64.7961L86.0134 64.7995L86.0243 64.7754C86.128 64.5327 86.0861 64.2553 85.8401 64.1031L85.8129 64.0873C85.7325 64.0433 85.633 64.0225 85.5321 64.0223C85.2809 63.7338 84.9071 63.6677 84.5562 63.752L84.5438 63.6588C84.542 63.6433 84.5404 63.6277 84.5392 63.6121C84.2673 62.7666 84.3984 61.8057 84.9296 61.0018ZM72.8575 52.4891L72.9478 52.4759C73.6305 52.3834 74.0947 52.4899 74.5385 53.0372C74.7501 53.298 74.6848 53.6918 74.5385 53.9584C74.0659 54.8195 72.7657 54.6415 71.8901 54.8125C71.0351 54.9794 70.1822 55.2065 69.3822 55.5371C68.5659 55.8745 67.7997 56.2736 67.0526 56.7293C66.3768 57.1417 65.7638 57.7615 64.9917 58.0014C64.957 58.0122 64.9151 57.983 64.9173 57.9484C64.9723 57.1248 65.7057 56.3688 66.2737 55.7822C66.9307 55.104 67.7298 54.5017 68.5619 54.0229C69.4206 53.529 70.3489 53.1223 71.3099 52.8387C71.8161 52.6893 72.3339 52.5706 72.8575 52.4891ZM83.2578 53.6074C84.1173 52.4284 86.2541 52.6545 87.5149 52.9695C89.0957 53.3643 90.8087 54.1629 91.9172 55.3188C92.9101 56.3543 91.4245 57.6996 90.3079 56.8283L90.01 56.5965L89.8193 56.4496C88.9621 55.7929 88.1132 55.1985 87.0687 54.7607C85.8439 54.2476 84.6028 53.9976 83.3084 53.7241C83.2575 53.7135 83.2276 53.6487 83.2578 53.6074Z" fill="#DB79E2"/>
<path fill-rule="evenodd" clip-rule="evenodd" d="M111.153 175.037C113.619 174.918 112.628 170.604 112.451 169.02C110.498 163.234 110.957 156.921 110.189 150.856C109.711 145.195 109.096 139.551 108.579 133.894C107.564 122.41 100.271 99.0323 91.9496 95.2726C90.9013 90.673 86.5715 86.3793 81.0935 86.3793C77.3572 81.9566 72.8601 78.8441 67.0919 79.4725C64.7083 79.581 62.3966 82.1091 60.1126 82.5973C58.8338 82.7737 47.4846 82.3198 45.2112 83.67C43.6276 84.4831 42.198 85.9856 42.6637 87.8985C43.4066 90.2161 41.0978 87.7084 36.2816 90.182C26.4608 96.0803 32.3293 103.971 32.5894 104.215C26.4608 112.742 21.1041 119.66 18.6256 130.082C17.0193 137.82 17.2001 145.808 15.8543 153.586C15.3791 156.283 14.6501 158.887 13.8612 161.506C13.0063 164.933 12.5906 173.476 12.1193 173.552C11.2609 173.765 12.6154 175.528 13.525 175.529C38.7428 179.712 64.3579 175.702 89.7112 175.047C96.8561 174.799 104.009 174.741 111.153 175.037Z" fill="#EDB98A"/>
<path fill-rule="evenodd" clip-rule="evenodd" d="M60.1443 90.1057C60.1443 92.7895 69.4633 102.762 72.6794 102.104C74.8234 101.666 78.0629 98.8051 82.3978 93.5229V90.1057L81.4615 86.3857C86.7648 86.5727 90.9249 90.7764 91.9496 95.2726C100.188 98.9947 107.418 121.944 108.547 133.546L108.579 133.894C109.096 139.551 109.711 145.195 110.189 150.856C110.957 156.921 110.498 163.234 112.451 169.02L112.462 169.118C112.666 170.775 113.57 174.92 111.153 175.037C104.009 174.741 96.8561 174.799 89.7112 175.047C64.3579 175.702 38.7428 179.712 13.525 175.529C12.6154 175.528 11.2609 173.765 12.1193 173.552C12.5906 173.476 13.0063 164.933 13.8612 161.506L14.0235 160.964C14.7494 158.527 15.4119 156.097 15.8543 153.586C17.2001 145.808 17.0193 137.82 18.6256 130.082C21.1041 119.66 26.4608 112.742 32.5894 104.215C32.3293 103.971 26.4608 96.0803 36.2816 90.182C41.0978 87.7083 43.4066 90.216 42.6637 87.8985C42.198 85.9856 43.6276 84.483 45.2112 83.6699C47.4846 82.3197 58.8338 82.7736 60.1126 82.5973C60.7067 82.4703 61.3027 82.2053 61.9013 81.8807L61.7974 82.2265C60.6953 85.9201 60.1443 88.5466 60.1443 90.1057Z" fill="#78E185"/>
<path fill-rule="evenodd" clip-rule="evenodd" d="M72.9321 104.968C72.9438 104.853 73.0995 104.853 73.1115 104.968L73.2895 106.687C73.5062 108.786 73.7147 110.881 73.8659 112.99C74.0544 115.62 74.1804 118.249 74.2412 120.884C74.453 130.064 74.4951 139.248 74.513 148.43C75.7547 148.344 76.9965 148.261 78.239 148.181C79.082 148.127 79.925 148.074 80.7681 148.023L82.9179 147.893V147.893L83.803 147.838C84.4011 147.801 85.0806 147.651 85.4987 148.181C85.6661 148.393 85.7501 148.668 85.594 148.92C85.2341 149.501 84.6812 149.481 84.0558 149.506C83.4657 149.53 82.8757 149.553 82.2856 149.576C81.0212 149.625 79.7569 149.671 78.4921 149.707C77.1647 149.744 75.838 149.774 74.5112 149.797C74.4978 153.673 74.3374 157.544 74.164 161.416L74.0855 163.158C73.8733 167.87 73.645 172.586 73.3208 177.292C73.2941 177.677 72.7491 177.677 72.7227 177.292C72.3575 171.993 72.1166 166.682 71.8777 161.376C71.7044 157.528 71.6036 153.68 71.5556 149.831C71.3801 149.832 71.2048 149.834 71.0295 149.835C66.0495 149.857 61.0707 149.879 56.0907 149.832C56.099 149.842 56.1071 149.851 56.1126 149.864C56.473 150.715 56.5073 151.801 56.4985 152.714C56.4884 153.761 56.3474 154.795 56.1062 155.814C55.2422 159.462 53.0135 162.729 50.4751 165.43L50.3922 165.518C49.7935 166.151 49.1066 166.787 48.739 167.592C48.3635 168.415 48.2331 169.378 48.0478 170.262L48.0262 170.363L47.3016 173.71C47.0714 174.773 47.0061 176.323 46.1647 177.09C45.3797 177.806 44.3397 177.432 43.9703 176.511C43.6817 175.791 43.9691 175.002 44.14 174.283L45.4787 168.656C45.6987 167.738 45.939 166.814 46.4138 165.99C46.9001 165.146 47.613 164.533 48.3405 163.907C49.718 162.721 50.9825 161.363 52.052 159.893C53.121 158.424 54.0347 156.804 54.6754 155.101C54.9962 154.248 55.2591 153.362 55.4404 152.469C55.6128 151.622 55.6113 150.744 55.7956 149.906C55.8083 149.848 55.8572 149.808 55.9132 149.791C55.8999 149.753 55.9202 149.703 55.9725 149.699L60.0453 149.438C63.6657 149.204 67.2859 148.965 70.903 148.691L71.5422 148.645V148.645C71.4926 143.509 71.5347 138.373 71.6274 133.236C71.7124 128.525 71.7142 123.812 71.8543 119.102C71.924 116.764 72.0742 114.432 72.2413 112.099C72.4123 109.713 72.6861 107.347 72.9321 104.968ZM34.6899 132.284C34.6465 132.022 34.9756 131.86 35.1274 132.099C36.8616 134.833 37.6978 137.802 38.0503 141.001C38.3616 143.824 38.2699 146.688 38.1148 149.519C37.9495 152.538 37.7565 155.556 37.5614 158.574L37.2617 163.201V163.201L36.5094 174.802C36.4556 175.631 36.2673 176.386 35.5528 176.772C35.4623 176.847 35.368 176.915 35.2582 176.974C34.8722 177.18 34.3602 177.076 34.137 176.68L34.2265 176.739C34.3045 176.788 34.2169 176.719 33.9639 176.533L33.7491 176.255V176.255C33.593 176.021 33.4934 175.79 33.4533 175.511C33.391 175.078 33.4717 174.603 33.5 174.168L33.9931 166.561V166.561C34.3765 160.647 34.8243 154.735 35.1618 148.819C35.319 146.061 35.4291 143.301 35.3546 140.539C35.2804 137.791 35.1404 134.998 34.6899 132.284ZM49.6929 81.3624L49.7891 81.3462C53.2338 80.7741 56.9795 80.8811 60.1277 82.5416C60.1537 82.5553 60.1418 82.5986 60.1126 82.5973L59.0993 82.5568C55.8915 82.4312 52.6936 82.3568 49.5394 83.1105L49.2165 83.1883C48.0806 83.4654 46.8944 83.8045 45.9821 84.5547C45.11 85.2719 44.6758 86.3781 44.2582 87.3965L44.2024 87.5309C43.7788 88.5367 43.2426 89.4906 42.3141 90.1196C41.1114 90.9341 39.665 90.8343 38.286 90.9449C35.8579 91.14 33.8728 92.8997 32.8851 95.053C32.287 96.3569 32.0319 97.8187 31.9814 99.2446C31.9555 99.9705 31.9518 100.725 32.0485 101.446C32.0794 101.676 32.3645 102.517 32.5098 102.496C32.8328 102.452 33.128 102.62 33.2287 102.878C34.0265 102.107 34.8473 101.359 35.6944 100.637C37.8062 98.8389 40.0807 97.209 42.4761 95.8085C44.3043 94.7394 46.2327 93.6803 48.2296 92.8795C48.0713 92.8762 47.9153 92.9076 47.7643 92.9861C47.6982 93.0207 47.6325 92.9377 47.6847 92.8829C48.3137 92.2211 49.067 92.1269 49.8265 92.3034C49.9886 92.2519 50.1508 92.202 50.3136 92.1546C50.3946 92.131 50.435 92.2427 50.3689 92.2858L50.1823 92.405V92.405C51.0108 92.6825 51.8243 93.228 52.4683 93.6586C54.3183 94.8949 55.9467 96.4064 57.5974 97.8896L57.8975 98.1584C59.3505 99.4558 60.8405 100.716 62.4913 101.757C63.3555 102.302 64.2631 102.806 65.2152 103.181C66.0317 103.502 67.3612 103.705 67.7436 104.568C68.0836 104.981 67.9416 105.508 67.5434 105.786C66.872 106.525 65.5288 106.047 64.7287 105.74C63.7642 105.368 62.8297 104.922 61.9385 104.399C60.2083 103.384 58.613 102.121 57.1269 100.777C55.5749 99.3742 54.1109 97.8837 52.6013 96.4365C51.9472 95.8095 51.3083 95.1677 50.6532 94.5416L50.3242 94.23C49.9899 93.9165 49.5135 93.4277 49.0043 93.1319C48.0448 93.7043 47.0705 94.253 46.1197 94.8401C44.7925 95.6595 43.5044 96.5381 42.2361 97.4456C39.7945 99.1927 37.4808 101.149 35.3328 103.247C31.3934 107.093 28.0371 111.485 25.1052 116.136L24.8825 116.49C23.2164 119.152 21.6408 121.9 20.5236 124.841C19.2944 128.078 18.6966 131.482 18.3718 134.917C18.0495 138.328 17.9408 141.757 17.5806 145.165C17.2111 148.66 16.4833 152.078 15.6554 155.49L15.4579 156.298C14.7088 159.354 13.9356 162.409 13.5505 165.537C13.345 167.207 13.2213 168.901 13.2493 170.585C13.2773 172.279 13.5435 173.935 13.7583 175.611C13.8406 176.254 13.2087 176.789 12.6433 176.875C11.993 176.972 11.4343 176.557 11.2322 175.953C10.6021 174.07 10.4876 171.989 10.5074 170.012C10.5273 168.006 10.7834 166.012 11.1438 164.04C11.8525 160.161 12.9462 156.363 13.8611 152.53C14.6675 149.152 15.2086 145.768 15.5003 142.308C15.8031 138.717 15.9845 135.115 16.5369 131.551C17.0821 128.032 18.1081 124.671 19.6553 121.462C21.064 118.541 22.8201 115.791 24.6612 113.126C26.897 109.889 29.3525 106.81 32.0973 104.004C31.8507 103.993 31.5976 103.913 31.3651 103.768C30.6538 103.325 30.3225 102.457 30.2207 101.664C29.9823 99.8106 30.0399 97.8754 30.5166 96.063C31.2857 93.1393 33.2817 90.5416 36.1745 89.4877C36.9191 89.2164 37.7106 89.1174 38.4997 89.0978C39.2485 89.0792 40.0663 89.1768 40.7888 88.9395C41.9388 88.5615 42.4318 87.207 42.8635 86.1804L42.8834 86.1332C43.4371 84.8249 44.1017 83.7035 45.3009 82.8866C46.5804 82.0148 48.1834 81.6184 49.6929 81.3624V81.3624ZM82.4232 86.5365C83.4584 86.1774 84.7525 86.5033 85.7648 86.817C86.8926 87.1666 87.9347 87.8105 88.8282 88.5752C89.7709 89.3817 90.5499 90.3775 91.1002 91.49L91.1529 91.5972C91.6556 92.6291 92.228 94.0458 91.9746 95.1794C91.9673 95.2116 91.959 95.2426 91.9496 95.2726C94.0034 96.2836 95.9001 97.5499 97.5518 99.155C99.4751 101.024 101.104 103.15 102.482 105.448C107.955 114.572 108.918 125.531 109.565 135.937L109.726 138.576C110.077 144.273 110.488 149.957 111.555 155.576L111.633 155.981C112.773 161.864 114.406 167.792 114.241 173.827C114.191 175.635 111.519 175.623 111.441 173.827C111.15 167.067 109.572 160.541 108.504 153.887C106.625 142.18 107.566 130.111 104.903 118.522C103.858 113.974 102.239 109.562 99.9274 105.503C98.7855 103.497 97.4789 101.559 95.9485 99.829C94.6317 98.3402 93.2631 96.9074 91.7244 95.6559C91.2326 96.1485 90.2501 95.8975 89.9934 95.1794C89.817 94.686 89.8685 94.1091 89.7553 93.5921C89.6503 93.1125 89.5054 92.6369 89.3125 92.1852C88.9279 91.2849 88.3634 90.4204 87.7117 89.6918C87.0077 88.9042 86.1986 88.2498 85.2932 87.7096C84.3816 87.1656 83.3846 87.0031 82.4232 86.6057C82.3908 86.5923 82.3878 86.5489 82.4232 86.5365ZM86.4449 149.1C86.4464 149.053 86.5024 149.031 86.5369 149.062C86.8998 149.396 87.1191 149.876 87.3862 150.286C87.6942 150.76 88.0177 151.224 88.3569 151.676C89.0365 152.581 89.7931 153.435 90.5557 154.271C91.2649 155.049 92.0208 155.793 92.8049 156.496C93.6545 157.256 94.6066 157.935 95.3785 158.778C96.9891 160.536 97.2493 162.948 97.5891 165.214L97.6264 165.459C97.8336 166.803 98.0193 168.151 98.1867 169.501C98.2681 170.158 98.3492 170.815 98.4156 171.473L98.4359 171.682C98.495 172.326 98.511 172.98 98.1409 173.543C97.7447 174.146 96.8439 174.357 96.3083 173.779C95.3882 172.787 95.5607 171.024 95.441 169.747C95.3421 168.692 95.2299 167.637 95.1044 166.585L95.0405 166.058C94.8924 164.861 94.7722 163.639 94.4983 162.462C94.2567 161.426 93.7964 160.643 93.0413 159.893C92.2805 159.136 91.49 158.43 90.7878 157.616C90.0429 156.752 89.3711 155.826 88.7657 154.859C88.248 154.032 87.8329 153.132 87.4527 152.233L87.3897 152.084C87.0222 151.207 86.4162 150.066 86.4449 149.1ZM99.7301 111.451C99.7381 111.329 99.9188 111.327 99.9215 111.451C99.9443 112.503 99.9663 113.554 99.9881 114.606C100.164 123.079 100.055 131.572 100.906 140.016C101.307 143.998 102.045 147.921 102.899 151.827C103.336 153.826 103.795 155.82 104.231 157.82C104.655 159.768 105.111 161.726 105.448 163.692C105.779 165.625 106.075 167.573 106.208 169.53L106.225 169.786C106.282 170.734 106.555 172.129 106.033 172.969C105.467 173.88 104.384 173.896 103.778 173.027C103.209 172.211 103.35 170.759 103.25 169.786C103.147 168.794 103.039 167.801 102.917 166.812C102.677 164.881 102.362 162.955 102.033 161.038C101.35 157.046 100.358 153.103 99.6265 149.117C98.8764 145.033 98.3433 140.919 98.3208 136.761C98.2985 132.567 98.7424 128.381 98.9665 124.196C99.1942 119.946 99.4529 115.699 99.7301 111.451ZM59.703 85.0967C59.9305 84.3307 60.7334 83.8518 61.5166 84.0669C62.2344 84.2642 62.827 85.1354 62.5464 85.8807C62.2402 86.6941 61.705 87.3876 61.2538 88.1268C60.837 88.8099 60.2291 89.3477 59.8046 90.0187L60.2724 90.523C60.5065 90.7746 60.7412 91.0247 60.9785 91.2705L61.7945 92.1157C62.43 92.7726 63.0695 93.4259 63.727 94.06C65.6605 95.925 67.6246 97.7287 69.7899 99.3258C70.2828 99.6892 70.7796 100.051 71.2903 100.389L71.4807 100.515C71.831 100.745 72.2219 100.97 72.6452 100.931C73.6736 100.837 74.6029 99.7445 75.3096 99.0647L75.3466 99.0293C77.0979 97.363 78.7197 95.541 80.1375 93.582C80.4523 93.1468 80.7571 92.7041 81.054 92.2562C80.3685 91.4555 80.5322 89.8925 80.4944 88.9214C80.4677 88.2386 80.4657 87.5556 80.462 86.8723L80.4601 86.7345C80.4518 86.2922 80.4318 85.8681 80.7189 85.5041C80.7356 85.4831 80.7702 85.4837 80.7915 85.4948C81.1846 85.7008 81.3057 86.0457 81.4735 86.4326L81.491 86.4728C81.6952 86.9371 81.8907 87.4058 82.0884 87.8729C82.2955 88.3618 82.4854 88.858 82.6778 89.3528C82.7674 89.583 82.8529 89.8141 82.9365 90.0465C82.9874 90.1949 83.0401 90.3425 83.0942 90.4899L83.107 90.5013C83.1784 90.5619 83.2391 90.6259 83.2912 90.692C83.5106 90.8018 83.6849 91.0017 83.7667 91.2955C83.9447 91.9349 83.5763 92.4563 83.2477 92.9638C81.913 95.0259 80.3914 96.9909 78.7002 98.7734C77.86 99.659 76.9763 100.505 76.0563 101.307L75.8955 101.446C75.069 102.157 74.1717 102.829 73.0679 102.995C71.7762 103.19 70.725 102.547 69.7362 101.807L69.6375 101.733C68.7001 101.024 67.7816 100.289 66.8917 99.5208C65.0773 97.9543 63.3512 96.2723 61.8193 94.427C60.3291 92.6321 58.8562 90.6252 57.9377 88.4655C57.8817 88.3339 58.0289 88.1962 58.1443 88.3061C58.593 88.7332 59.0246 89.1835 59.4512 89.6396C59.4631 88.9682 59.3392 88.2912 59.4081 87.6156C59.4922 86.7945 59.4679 85.8873 59.703 85.0967Z" fill="black"/>
<path fill-rule="evenodd" clip-rule="evenodd" d="M89.5394 47.3224C85.3407 41.3626 74.7894 40.6912 68.121 40.729C54.9518 40.6191 52.1944 55.7881 51.5066 66.4175C50.102 66.657 48.736 67.1477 47.8091 68.2539C46.6805 69.6009 46.2906 71.913 47.3487 73.4195C48.0516 74.4198 49.1613 74.7541 50.3221 74.8098C54.1664 74.4421 54.9548 77.8761 56.8482 80.451C61.7067 87.0284 70.1236 89.1621 77.8433 89.1948C80.4654 89.2647 83.6241 89.4619 85.3034 86.9896C90.6071 77.777 90.7227 65.5587 91.0496 55.1187C91.0946 52.4459 91.0832 49.6164 89.5394 47.3224V47.3224Z" fill="#EDB98A"/>
<path fill-rule="evenodd" clip-rule="evenodd" d="M98.6014 52.4921C98.6546 52.593 98.6939 52.7048 98.7157 52.8264C98.7849 53.2124 98.6429 53.5075 98.4566 53.7942C98.481 53.994 98.4947 54.1877 98.5052 54.358C98.5646 55.3146 98.3458 56.6257 97.5042 57.0162C97.4911 57.032 97.4778 57.0477 97.4639 57.0634C97.3989 57.1693 97.2999 57.2609 97.1696 57.3278C97.1373 57.3504 97.1045 57.3718 97.0714 57.3902C97.0628 57.3976 97.0536 57.4042 97.0444 57.4109C97.0376 57.4157 97.0308 57.4206 97.0243 57.4258C97.0345 57.4151 97.0444 57.4041 97.0543 57.3932C97.0616 57.3852 97.0689 57.3772 97.0763 57.3693C96.6107 57.5553 96.1611 57.5937 95.6812 57.5372C95.3845 57.6446 95.0872 57.7249 94.8362 57.787C94.0529 57.9809 93.0429 58.136 92.2795 57.8055C92.0571 57.7093 91.8726 57.5818 91.7339 57.4299C91.7454 58.022 91.7627 58.6139 91.7883 59.206C91.8405 60.7028 91.8379 62.1983 91.8265 63.6964C91.8137 65.3821 91.7666 67.069 91.6762 68.7534C91.6342 69.5994 91.5667 70.4441 91.4763 71.2863C91.3999 72.1068 91.3108 72.9261 91.2076 73.7427C90.9644 75.422 90.5633 77.1141 90.0743 78.7372C89.8617 79.4416 89.6287 80.1549 89.3638 80.8516C89.2517 81.1719 89.1333 81.4883 89.0047 81.8022C88.326 83.4471 87.4805 85.0345 86.3383 86.405C85.7144 87.1527 85.0255 87.8252 84.2564 88.3905C83.6388 88.8728 82.9703 89.2812 82.2356 89.6027C80.6566 90.2943 78.8943 90.45 77.1867 90.4245C76.5354 90.4158 75.8449 90.3004 75.1992 90.1925L75.1595 90.1859C74.6553 90.1029 74.1447 89.9919 73.6391 89.8618C73.1909 89.7571 72.7478 89.6359 72.311 89.4943C71.7851 89.3552 71.2809 89.1548 70.8008 88.8958L69.9502 88.5755C69.595 88.4415 69.2499 88.282 68.915 88.0995L67.9905 87.667C67.6073 87.4819 67.2342 87.279 66.87 87.0557C66.8318 87.0353 66.7885 87.0009 66.7719 86.9626C66.7326 86.9408 66.693 86.9194 66.6534 86.8979C66.5982 86.8681 66.5429 86.8381 66.488 86.8069C66.4727 86.7992 66.4841 86.7546 66.5045 86.7112C66.488 86.6768 66.4905 86.6385 66.5364 86.604C66.5707 86.5772 66.6255 86.5849 66.6828 86.6027C66.6777 86.5989 66.6739 86.5951 66.6701 86.5913C66.6064 86.5568 66.544 86.5236 66.4816 86.4892C66.4179 86.4547 66.4077 86.3654 66.4676 86.3182C66.4841 86.3054 66.5033 86.299 66.5224 86.2978C66.5211 86.2978 66.5198 86.2965 66.5185 86.2965C66.5071 86.2888 66.516 86.2531 66.5325 86.2135C66.5007 86.1727 66.4905 86.1229 66.5465 86.0796C66.6233 86.0192 66.7955 86.1181 66.8759 86.1643C66.8822 86.1679 66.8878 86.1711 66.8929 86.174C66.9429 86.2018 66.9933 86.2286 67.0437 86.2554C67.0742 86.2716 67.1046 86.2878 67.1348 86.3041C67.1399 86.2927 67.1501 86.2824 67.1667 86.2722C67.0482 86.2097 66.9311 86.1459 66.8139 86.0821C66.7414 86.0438 66.6471 85.9634 66.7426 85.8882C66.819 85.8269 67.0164 85.9315 67.1106 85.9851C67.1221 85.9762 67.1348 85.9724 67.1501 85.9698C67.1337 85.9606 67.1169 85.9515 67.1 85.9425C67.075 85.929 67.0497 85.9154 67.0253 85.9009C66.9107 85.8371 66.9884 85.638 67.1068 85.7044C67.1138 85.7089 67.1208 85.713 67.1279 85.7172C67.1348 85.7213 67.1418 85.7255 67.1488 85.7299C67.2299 85.7226 67.342 85.7857 67.4 85.8182L67.4086 85.8231C67.8072 86.0745 68.2223 86.2939 68.6527 86.4828C68.943 86.6206 69.2346 86.7571 69.5275 86.8898C69.8152 87.0328 70.1119 87.1565 70.4163 87.2612C71.1816 87.5598 71.9545 87.838 72.7351 88.0957C73.8289 88.3956 74.9609 88.6368 76.0967 88.7312C76.2444 88.7427 76.3921 88.7529 76.5398 88.758C76.7006 88.7567 76.8614 88.7558 77.022 88.7548C77.1845 88.7538 77.3468 88.7529 77.5089 88.7516C78.0816 88.6922 78.6543 88.6339 79.226 88.5757L79.3909 88.5589C79.6099 88.5283 79.8238 88.49 80.0352 88.4454C80.146 88.4186 80.2568 88.3905 80.3663 88.3586C80.4045 88.3535 80.4427 88.3458 80.4809 88.3394C80.7496 88.268 81.0131 88.1825 81.2767 88.083C81.4423 88.0153 81.6065 87.9439 81.7695 87.8686C82.3081 87.6172 82.8379 87.2854 83.337 86.9052C83.6496 86.5932 83.9622 86.2815 84.2748 85.9698C84.5874 85.6581 84.9001 85.3465 85.2127 85.0345L85.7844 84.2535C86.5229 83.1957 87.1074 82.0166 87.5926 80.8133L88.3642 78.5853C88.4444 78.3174 88.5208 78.0494 88.5934 77.7801C88.7399 77.1779 88.8863 76.5756 89.0327 75.9745C89.0811 75.7538 89.1282 75.5343 89.1741 75.3148C89.4555 73.9482 89.6108 72.5611 89.7445 71.174C89.989 68.65 90.0552 66.1183 90.0731 63.5841C90.0845 62.0694 90.0718 60.5548 90.0412 59.0414C90.0234 58.1635 90.0107 57.2855 89.9979 56.4076C89.9814 55.4761 89.9636 54.5433 89.9394 53.6118C89.9381 53.5914 89.9457 53.5735 89.9559 53.5582C89.9534 53.4485 89.9521 53.3387 89.9508 53.2277C89.9495 53.155 89.9776 53.1231 90.0183 53.1167C90.0107 52.4519 90.0056 51.7883 90.0043 51.1248C90.0043 51.0814 90.0247 51.0533 90.0514 51.0367V50.8683C89.9406 50.4064 89.7904 49.9534 89.5956 49.5221C89.5293 49.3664 89.4555 49.2145 89.374 49.0665C89.2734 48.8445 89.1422 48.6429 88.9818 48.4578C88.8481 48.232 88.6838 48.0316 88.4928 47.853C88.454 47.8249 88.4148 47.7969 88.3757 47.7688C88.3365 47.7407 88.2974 47.7126 88.2585 47.6846C88.1936 47.6501 88.0981 47.5901 88.014 47.5212C87.9383 47.4747 87.8629 47.4278 87.7875 47.3809C87.712 47.334 87.6365 47.2871 87.5607 47.2405C87.4729 47.1946 87.5302 47.0797 87.5926 47.0491V47.0453C87.5786 47.0389 87.5633 47.0312 87.5467 47.0172C87.3634 46.8436 87.1724 46.6803 86.9737 46.5272C86.9381 46.5412 86.896 46.5361 86.8642 46.5093C86.7471 46.3996 86.6274 46.2937 86.5051 46.1916C86.2313 46.0117 85.9448 45.8471 85.6456 45.7016C85.1656 45.4744 84.674 45.2792 84.1698 45.1133C84.0718 45.081 83.9731 45.0518 83.8749 45.0227L83.8427 45.0132C83.7833 45.0103 83.724 45.0073 83.6647 45.0044C83.569 44.9996 83.4734 44.9947 83.3778 44.9906C77.6078 44.7369 71.8227 44.8434 66.0659 45.3088C64.6476 45.4235 63.2311 45.5602 61.817 45.7186C61.5504 45.7484 61.2725 45.7717 60.989 45.7954C59.9495 45.8824 58.8362 45.9756 57.9374 46.4243C57.889 46.4486 57.8429 46.4742 57.798 46.5006C57.8754 46.9984 58.0615 47.486 58.2423 47.9597C58.2698 48.0317 58.2971 48.1034 58.324 48.1747C58.6376 49.0087 58.9186 49.8588 58.8907 50.762C58.8711 51.3919 58.736 51.9975 58.5415 52.5893C58.4418 53.4332 58.1793 54.2482 57.9007 55.0489C56.5297 58.9886 55.7834 63.0221 55.86 67.2041C55.8621 67.3162 55.8364 67.4139 55.792 67.4971L55.7943 67.5134C55.8186 67.6908 55.843 67.8684 55.8716 68.0453C55.986 68.7501 55.0586 69.1006 54.7386 68.6334C54.7171 68.6547 54.6873 68.6694 54.6598 68.6717C54.5783 68.6794 54.4446 68.5454 54.4064 68.4841C54.3567 68.3923 54.3045 68.3029 54.2485 68.2174C54.2427 68.2146 54.2377 68.2124 54.2328 68.2104C54.2312 68.2098 54.2297 68.2091 54.2281 68.2085C54.2448 68.2433 54.2619 68.2784 54.2788 68.3132C54.2966 68.3499 54.3143 68.3863 54.3312 68.4216C54.3873 68.5339 54.1721 68.5888 54.1084 68.4854C54.0511 68.3948 53.9938 68.308 53.9365 68.2251C53.9034 68.2493 53.8665 68.2557 53.8423 68.2162C53.6373 67.8767 53.4004 67.5858 53.1407 67.3382C52.7319 67.0039 52.285 66.801 51.7769 66.6824C51.3771 66.6249 50.967 66.6224 50.571 66.6683C50.1164 66.7219 49.6377 66.8355 49.2264 67.0435C48.8915 67.2744 48.5553 67.5054 48.2191 67.7364C48.1364 67.8231 48.0574 67.9137 47.9836 68.0082C47.7505 68.3106 47.5634 68.6334 47.4093 68.9767L47.4091 68.9772C47.4028 68.9987 47.3965 69.0202 47.3902 69.0405C47.296 69.3289 47.2348 69.6249 47.2081 69.9286C47.2062 70.1206 47.2046 70.3123 47.203 70.5039C47.2014 70.6957 47.1998 70.8875 47.1979 71.0796C47.2488 71.5786 47.3762 72.0635 47.571 72.5241C47.6627 72.7959 47.8066 73.0384 48.0014 73.2527C48.1058 73.4339 48.2242 73.5985 48.3567 73.7517C48.6253 73.9303 48.9182 74.0822 49.2302 74.2021C49.3066 74.2225 49.383 74.2429 49.4607 74.2583C49.8618 74.4127 50.2769 74.4956 50.706 74.5071C51.2485 74.5441 51.7794 74.4969 52.299 74.3654C52.6199 74.308 52.9306 74.2149 53.2311 74.086C53.5188 73.9405 53.7901 73.7657 54.0435 73.5615C54.0715 73.5437 54.1135 73.5539 54.1593 73.5768C54.1691 73.5697 54.1789 73.5626 54.1887 73.5555C54.2349 73.522 54.281 73.4886 54.3262 73.4518C54.3516 73.4339 54.3745 73.4556 54.386 73.4786L54.4013 73.4671C54.5019 73.3982 54.7782 73.6139 54.6534 73.7415C54.7069 73.7746 54.7604 73.8142 54.8088 73.855C55.0303 73.864 55.4773 74.2723 55.3932 74.3361C55.2684 74.4446 55.1373 74.5441 55.0036 74.6385C55.122 74.7266 55.2773 74.8631 55.2048 74.918C55.0749 75.0417 54.9335 75.1489 54.7833 75.2408C54.6814 75.3187 54.577 75.3927 54.4675 75.4603C54.3491 75.5305 54.2281 75.5905 54.1033 75.6466C54.3211 76.069 54.5286 76.4952 54.7222 76.929C54.8508 77.2365 54.9998 77.5339 55.1717 77.8197C55.3907 78.2548 55.653 78.6632 55.9599 79.0434C56.2094 79.4645 56.5023 79.8512 56.8372 80.2046C57.251 80.6768 57.6954 81.1208 58.1679 81.5317C58.3563 81.6657 58.5486 81.7959 58.7485 81.9158C59.2591 82.3012 59.8029 82.6317 60.3797 82.9073C60.4472 82.9443 60.5007 83.026 60.4217 83.0898C60.4192 83.0911 60.4166 83.0911 60.4141 83.0936C60.6025 83.2008 60.7922 83.3067 60.9833 83.4113L60.9896 83.4148C61.0666 83.4565 61.2093 83.5338 61.0979 83.6244C61.024 83.6857 60.7961 83.576 60.6598 83.5045C60.6789 83.5147 60.6993 83.5262 60.7197 83.5377C60.7216 83.5387 60.724 83.54 60.7267 83.5415C60.7831 83.5718 60.9968 83.6867 60.8546 83.761C60.7795 83.7737 60.7082 83.761 60.6394 83.724C60.5681 83.6972 60.4968 83.6678 60.4268 83.6372C60.4293 83.6602 60.4166 83.6819 60.3797 83.6997C60.3504 83.7048 60.3224 83.7048 60.2944 83.7023C60.4497 83.7903 60.6051 83.8771 60.7617 83.9626C60.8075 83.9868 61.024 84.1068 60.8814 84.1808C60.8114 84.1948 60.7439 84.1834 60.6789 84.1476C60.5605 84.103 60.4434 84.0506 60.33 83.9932C60.3166 83.9856 60.3032 83.9782 60.2898 83.9709C60.2765 83.9635 60.2631 83.9562 60.2498 83.9486C60.2294 83.9486 60.2091 83.946 60.1887 83.9422C60.3135 84.0098 60.4395 84.0749 60.5669 84.1387C60.642 84.1795 60.7681 84.2625 60.6598 84.3467C60.5847 84.4041 60.3822 84.3008 60.2625 84.2331C60.2549 84.2421 60.246 84.2523 60.2332 84.2625C60.1552 84.3217 59.9696 84.2145 59.876 84.1604C59.8627 84.1527 59.8513 84.1461 59.8423 84.1412C59.2107 83.8018 58.6008 83.4509 58.0138 83.049C57.6547 82.818 57.3045 82.5755 56.962 82.3114C56.3062 81.8035 55.7103 81.2127 55.164 80.59C54.7909 80.1638 54.5885 79.9239 54.2268 79.4071C53.6462 78.5751 53.2081 77.7074 52.7867 76.7874C52.7803 76.7733 52.793 76.7376 52.8121 76.7019C52.7255 76.4888 52.6415 76.2731 52.5575 76.0498C52.3384 76.0792 52.1182 76.0996 51.9004 76.1124C51.3872 76.1417 50.8894 76.0958 50.4068 75.9899C49.8223 75.9146 49.2442 75.7487 48.7323 75.4884C48.4254 75.334 48.13 75.1694 47.8499 74.9856C47.599 74.8516 47.3571 74.6985 47.1253 74.5198C46.1385 73.7644 45.6024 72.5917 45.4712 71.3744C45.3706 70.8384 45.349 70.2872 45.4088 69.7551C45.4521 69.3684 45.5387 68.9856 45.6648 68.6168C45.8978 67.7989 46.332 67.0422 46.9611 66.4693C47.0668 66.3608 47.1775 66.2574 47.296 66.1605C47.6461 65.8733 48.0434 65.6424 48.4662 65.4739C48.5477 65.4344 48.6304 65.3974 48.7132 65.3629L48.6126 65.1307C48.577 65.1409 48.4534 65.1205 48.4382 65.0771C48.4131 65.0089 48.3891 64.9398 48.3651 64.871C48.35 64.8276 48.335 64.7844 48.3197 64.7415C48.2968 64.7555 48.2675 64.7632 48.2357 64.7645V64.8933C48.237 64.9303 48.1669 65.16 48.1287 65.0401C48.1046 64.973 48.0819 64.905 48.0592 64.8369C48.0447 64.7936 48.0303 64.7502 48.0154 64.707C47.9836 64.6866 47.9594 64.6624 47.9505 64.6343C47.9481 64.6273 47.9458 64.6204 47.9432 64.6134C47.9415 64.6089 47.9397 64.6044 47.9377 64.5998C47.9352 64.5986 47.9314 64.5986 47.9288 64.5973V64.6369C47.9301 64.6611 47.8664 64.8449 47.855 64.8091C47.6347 64.2017 47.4551 63.5816 47.3151 62.9512C47.2196 62.6041 47.1444 62.2532 47.0871 61.8972C47.0247 61.5769 46.97 61.2553 46.9229 60.9312L46.9114 60.8508L46.9076 60.833L46.9065 60.8236C46.9031 60.7921 46.8995 60.7597 46.8948 60.7283C46.8439 60.3621 46.8019 59.9946 46.7701 59.6245C46.7026 58.864 46.6758 58.0997 46.6835 57.3366C46.6731 57.3406 46.6633 57.3456 46.6533 57.3506C46.6473 57.3536 46.6413 57.3567 46.6351 57.3596C46.3043 57.5007 45.9547 57.616 45.5991 57.7079C44.9872 58.594 44.0104 59.1936 42.8398 59.2567C42.4435 59.2781 42.0278 59.2297 41.643 59.1176C41.603 59.1268 41.5618 59.1342 41.519 59.1398C41.318 59.1661 41.1562 59.123 40.9887 59.0783C40.8949 59.0533 40.7993 59.0278 40.694 59.0138C40.656 59.0088 40.6184 59.0039 40.5813 58.9992C40.1606 58.945 39.8018 58.8988 39.5226 58.6477C39.4288 58.6499 39.3391 58.6362 39.254 58.6107C38.4483 58.8043 37.5922 58.3776 37.3089 57.4833C36.8257 57.1995 36.4406 56.7786 36.1817 56.2901C35.6831 55.6495 35.2844 54.8641 35.0371 54.0389C35.0356 54.0358 35.034 54.0327 35.0324 54.0297C35.03 54.025 35.0276 54.0204 35.0254 54.0155C34.9 53.743 34.8402 53.4506 34.8352 53.1574C34.7017 52.3221 34.7369 51.4858 34.9906 50.7506C34.9799 50.3521 35.0734 49.9368 35.2445 49.56C35.452 49.103 35.7683 48.5777 36.1787 48.2729C36.1797 47.8046 36.3805 47.2891 36.6437 46.9397C37.169 46.2419 37.9307 45.873 38.7551 45.8196C39.1742 44.7428 40.4444 44.4913 41.54 44.8497C41.9951 44.3837 42.6617 44.1611 43.327 44.2404C43.8896 44.3074 44.3704 44.577 44.7685 44.9486C44.8734 44.9786 44.9779 45.0098 45.0824 45.0424C45.4309 44.8891 45.8375 44.8544 46.2094 44.9505C46.8541 45.117 47.2747 45.6065 47.5657 46.168C47.6585 46.232 47.7491 46.2981 47.8376 46.3672C47.9348 46.4108 48.023 46.4691 48.1031 46.5378C48.2195 46.5999 48.3183 46.7021 48.3786 46.8504C48.5428 47.0201 48.6956 47.1997 48.8309 47.3922C48.9321 47.1576 49.0365 46.9245 49.1444 46.6932C49.32 46.7462 49.5322 46.6776 49.6206 46.4426L49.6431 46.3828C50.2079 44.8808 51.2134 42.2066 52.1617 40.9654C51.0401 41.7307 49.6708 42.134 48.3106 42.0934C48.2524 42.0916 48.1937 42.0892 48.1345 42.086C47.4033 42.2124 46.6606 42.2241 45.9787 42.0871C45.5195 41.92 45.072 41.721 44.6385 41.4957C44.533 41.4409 44.4285 41.3832 44.3243 41.325C44.2917 41.2974 44.2608 41.2676 44.2299 41.2377C44.2177 41.226 44.2056 41.2142 44.1933 41.2026C44.1037 41.2091 44.0098 41.2021 43.91 41.1756C43.5347 41.0762 43.1875 40.8259 42.9697 40.5044C42.9292 40.4445 42.8966 40.3829 42.8676 40.3207C42.6314 40.0893 42.4268 39.827 42.2764 39.5204C42.0994 39.1618 41.9912 38.7586 41.9797 38.3554C41.9058 37.9598 41.9109 37.5527 42.0485 37.175C42.0581 37.1493 42.0687 37.1241 42.0794 37.0987C42.0857 37.0838 42.092 37.0689 42.0981 37.0538C42.1012 37.0434 42.1039 37.0327 42.1067 37.022C42.1106 37.0066 42.1145 36.991 42.1198 36.976C42.16 36.8413 42.2112 36.7214 42.2733 36.6078C42.2964 36.4911 42.3341 36.3753 42.3873 36.2627C42.3933 36.2082 42.4007 36.1537 42.4095 36.0995C42.0048 35.3345 42.1482 34.334 42.7539 33.7122C42.6701 33.3103 42.7554 32.8841 42.9995 32.5274C43.1788 32.2653 43.428 32.0585 43.7103 31.9149C43.7397 31.9 43.8177 31.8743 43.9109 31.8449C44.0153 31.7523 44.1254 31.6648 44.246 31.5877C44.2747 30.84 45.0195 30.4086 45.6644 30.0352C45.6956 30.0171 45.7265 29.9992 45.7571 29.9814C45.9672 29.8593 46.1196 29.6837 46.272 29.508C46.4321 29.3235 46.5923 29.139 46.8195 29.016C47.2168 28.801 47.7052 28.7516 48.1635 28.7052C48.2648 28.6949 48.3646 28.6848 48.4616 28.6731C49.7256 28.5205 51.0717 28.4026 52.3421 28.5405C53.0474 28.6171 53.6315 28.9584 53.8731 29.5176C54.4798 29.5894 55.0206 30.0281 55.4485 30.4794C55.9825 31.0425 56.4372 31.642 56.594 32.3819C56.6984 32.4385 56.7933 32.5076 56.879 32.5857C56.8758 33.1061 56.808 33.6274 56.6647 34.1185C56.7068 34.4121 56.6186 34.6925 56.4693 34.9467C56.4921 35.1873 56.4758 35.4243 56.4255 35.6605C56.7159 36.1767 56.4441 36.9567 56.0374 37.4685L56.0344 37.7572C56.0586 37.7445 56.0821 37.7296 56.1041 37.7108C57.274 36.7133 58.4645 36.4383 59.7505 36.1413C60.4931 35.9698 61.2675 35.7909 62.0881 35.4613C64.11 35.0702 66.1736 34.8212 68.2446 34.7384C68.2329 34.7367 68.2213 34.7352 68.2096 34.7336C68.1939 34.7316 68.1782 34.7295 68.1626 34.7269C67.1189 34.5557 66.1165 34.1255 65.2545 33.5075C65.0263 33.4496 64.8099 33.3464 64.6163 33.1737C64.4281 33.0061 64.2978 32.8126 64.2229 32.6051C64.1888 32.5685 64.1551 32.5316 64.1218 32.4941C63.4747 32.3349 62.9819 31.7738 63.0644 31.0362C62.6547 30.5502 62.5039 29.9501 62.6426 29.3252C62.4136 28.9376 62.3936 28.449 62.5645 28.0398C62.2047 27.6019 62.1766 26.9802 62.4588 26.4847C62.2012 26.1178 62.1443 25.6317 62.4621 25.1972C62.6121 24.992 62.8199 24.8626 63.0463 24.8001C63.1103 24.5636 63.2403 24.344 63.4445 24.1744C63.5496 24.0873 63.6596 24.0226 63.772 23.9743C63.8143 23.7302 63.952 23.4987 64.2168 23.3166C64.337 23.2341 64.46 23.1807 64.5823 23.1511C64.698 22.864 64.9 22.6123 65.1841 22.4488C65.5271 22.2517 65.926 22.2255 66.2896 22.3289C66.7643 21.6099 67.8059 21.3312 68.528 21.8645C69.1293 21.4916 69.8857 21.5702 70.4261 22.0236C71.0796 21.6366 71.8911 21.7928 72.4036 22.3324C73.2248 21.8828 74.3087 22.2149 74.7484 23.0669C75.5771 22.9748 76.358 23.5184 76.5789 24.3052C76.6149 24.3344 76.6504 24.3645 76.6858 24.3945L76.6952 24.4024C77.1917 24.4263 77.6634 24.6213 77.9417 25.084C78.0807 25.3151 78.1449 25.5866 78.1355 25.8527C78.4323 26.0134 78.6721 26.2772 78.7748 26.6191C78.8711 26.9396 78.8348 27.2567 78.7082 27.533C79.1216 27.9736 79.2308 28.6604 78.938 29.2138C79.0592 29.422 79.1222 29.6682 79.1123 29.924C79.0976 30.3029 78.9223 30.6082 78.6838 30.8689C78.9837 31.4113 78.8668 32.107 78.3793 32.4872C78.0993 33.482 77.3906 34.1439 76.3046 34.5499C75.7593 34.7539 75.1887 34.9109 74.6071 35.0263C76.9342 35.3401 79.2236 35.8916 81.4226 36.7139C81.5423 36.7587 81.6438 36.7412 81.7214 36.689C81.7425 36.7002 81.7638 36.711 81.7851 36.7219C81.8123 36.7357 81.8395 36.7495 81.8663 36.7641C82.4724 37.0972 83.0658 37.4583 83.6439 37.845C83.6439 37.7812 83.6452 37.7174 83.6477 37.6523C83.6365 37.1272 83.6916 36.61 83.8308 36.1114C83.6487 35.8627 83.5125 35.5792 83.4384 35.287C83.2533 34.5579 83.6053 33.5203 84.2375 33.2712C84.4591 32.6554 84.963 32.2098 85.5805 32.0345C85.6296 31.9902 85.6816 31.9472 85.7398 31.9073C85.8698 31.8177 86.0121 31.7566 86.1583 31.7211C86.2343 31.3874 86.4201 31.0802 86.7282 30.8647C87.1631 30.5604 87.6774 30.5273 88.1292 30.6933C88.2151 30.6644 88.3023 30.6392 88.3903 30.6174C89.1177 29.997 90.2513 30.0427 90.8913 30.7686C91.3306 30.5674 91.8484 30.5585 92.2981 30.8292C92.658 31.0459 92.882 31.3953 92.9696 31.7788C93.6508 31.7997 94.274 32.2527 94.4705 32.9287C95.0982 32.9999 95.6118 33.4922 95.7208 34.1119C96.1212 34.1678 96.4912 34.3564 96.7162 34.7314C96.8202 34.9048 96.8766 35.0946 96.8912 35.2846C97.0937 35.3819 97.2753 35.5293 97.4124 35.7219C97.6526 36.0593 97.6989 36.4532 97.6107 36.8239C97.619 36.8407 97.6275 36.8573 97.6361 36.8739C97.6485 36.898 97.6609 36.922 97.6724 36.9466C97.7378 37.086 97.7902 37.2354 97.837 37.3871C98.0481 37.6922 98.1456 38.0652 98.1263 38.4399C98.1711 38.5983 98.2145 38.7572 98.2505 38.9168C98.3932 39.5434 98.4466 40.2108 98.3486 40.8488C98.3002 41.1576 98.2302 41.4613 98.1309 41.756C98.1207 41.8122 98.1041 41.8645 98.085 41.9143C98.0303 42.1465 97.9602 42.3749 97.8711 42.5982C97.6572 42.8828 97.4331 43.1597 97.1975 43.4277C96.9988 43.7263 96.7722 44.0019 96.5162 44.2545C96.3316 44.437 96.1291 44.6067 95.9139 44.7599C95.4867 45.103 95.0087 45.3706 94.4987 45.5446C94.4077 45.5255 94.3161 45.5106 94.2245 45.4959C93.6453 45.8154 92.7341 45.8515 92.1769 45.8493C91.5629 45.8471 91.0006 45.6916 90.533 45.398C90.5872 45.5061 90.6414 45.6143 90.6955 45.7228C90.6896 45.7262 90.6835 45.7294 90.6775 45.7328C90.6698 45.7371 90.6623 45.7415 90.6558 45.7466C90.5546 45.5788 90.4418 45.4298 90.3089 45.3226C90.1274 45.176 89.8348 45.1628 89.709 45.4001C89.7067 45.4041 89.7046 45.4083 89.7024 45.4126C89.6353 45.539 89.6447 45.6604 89.6959 45.7594C89.7074 45.776 89.7189 45.7927 89.7304 45.8094L89.7518 45.8405C89.7542 45.8433 89.7565 45.8461 89.7589 45.8489C89.7631 45.8539 89.7674 45.8589 89.772 45.8635L89.7687 45.8639C89.9425 46.0041 90.1137 46.3476 90.2759 46.6816C90.3857 46.8767 90.4901 47.0746 90.588 47.276C90.6452 47.3604 90.7467 47.4346 90.8546 47.4562C90.8335 47.6169 90.9074 47.7832 91.0286 47.8656C91.0604 47.8013 91.0991 47.7355 91.1489 47.6676C91.6962 46.9226 92.7714 46.6012 93.5812 46.9416C93.7426 46.9143 93.9048 46.8918 94.0686 46.8789C94.6031 46.8435 95.145 46.8856 95.6729 46.9965C95.8368 47.095 95.9934 47.2059 96.1393 47.3324C96.2628 47.4396 96.3774 47.5519 96.4844 47.668C96.5672 47.7301 96.6485 47.796 96.7284 47.8646C97.0521 48.039 97.2898 48.3736 97.4895 48.7067C97.6479 48.9311 97.7863 49.1696 97.9061 49.4223C98.4613 50.3742 99.1019 51.5561 98.6014 52.4921ZM54.0753 70.8882C54.279 71.1243 54.4382 71.3872 54.5528 71.6768C54.5986 71.77 54.5426 71.8261 54.4484 71.8095C54.4063 71.8032 54.349 71.7725 54.2905 71.7317C54.2949 71.7425 54.2997 71.7527 54.3045 71.7629C54.3092 71.7732 54.314 71.7834 54.3185 71.7942C54.3681 71.8925 54.3261 71.9627 54.2128 71.9257C54.2064 71.9218 54.2001 71.918 54.195 71.9142C54.2535 72.0188 54.307 72.126 54.3529 72.2383C54.4025 72.3378 54.3579 72.4067 54.2459 72.3684C54.1873 72.3353 54.1313 72.297 54.0778 72.2549C54.0844 72.2694 54.091 72.2839 54.0977 72.2983C54.1156 72.3371 54.1333 72.3757 54.1491 72.4157C54.2001 72.5165 54.1415 72.5688 54.0422 72.5458C53.9568 72.4986 53.8779 72.4425 53.804 72.3774C53.7926 72.3684 53.7824 72.3582 53.7722 72.3493C53.8053 72.4322 53.7429 72.4833 53.6601 72.4667C53.543 72.4437 53.3227 72.2459 53.2692 72.1413C53.2654 72.1349 53.2629 72.1285 53.259 72.1222C53.1966 72.0801 53.1292 72.0214 53.0782 71.9652C53.0375 72.0239 52.9585 72.0673 52.9229 71.9958C52.8159 71.7036 52.6491 71.4535 52.4212 71.243C52.2913 71.0528 52.1334 70.8908 51.9488 70.7568C51.8494 70.6726 51.7463 70.5922 51.6406 70.5156C51.4534 70.4301 51.2586 70.365 51.0549 70.3217C51.0318 70.3144 51.0083 70.3088 50.9848 70.3033C50.9669 70.299 50.949 70.2947 50.9313 70.2898L50.9164 70.287C50.8311 70.2714 50.7468 70.2559 50.6614 70.2438C50.2934 70.1928 49.9241 70.1838 49.5549 70.217C49.4886 70.2196 49.425 70.1685 49.397 70.1098C49.3142 70.1137 49.2327 70.1175 49.1499 70.1251C49.0137 70.1303 49.043 69.9376 49.1461 69.9184C49.276 69.8942 49.4059 69.8763 49.5332 69.861C49.5307 69.8495 49.5294 69.8368 49.5319 69.8266C49.2989 69.8151 49.0672 69.8202 48.8329 69.8444C48.731 69.8495 48.852 69.6607 48.908 69.6505C48.9212 69.6478 48.9344 69.6458 48.9478 69.6439C48.9602 69.642 48.9728 69.6402 48.9857 69.6377C48.9842 69.6355 48.9831 69.6337 48.9823 69.6318C48.9816 69.6305 48.9811 69.6291 48.9806 69.6275H48.9742C48.8341 69.6339 48.7386 69.4106 48.9067 69.3799C48.9269 69.3763 48.9467 69.3732 48.9665 69.3701C48.9878 69.3668 49.009 69.3635 49.0302 69.3595C49.0226 69.3378 49.0213 69.3187 49.029 69.3008C48.9564 69.2995 48.8851 69.2995 48.8125 69.2995C48.8315 69.2983 48.8482 69.258 48.8656 69.2158C48.8843 69.1705 48.9039 69.1229 48.9284 69.1196L49.0404 69.1043C49.043 69.0571 49.1143 68.9474 49.1448 68.941C49.3868 68.9001 49.6236 68.8721 49.8579 68.8631C49.8808 68.8095 49.9139 68.7381 49.9458 68.7381C50.2119 68.7343 50.4678 68.7368 50.7225 68.7636C50.7327 68.7559 50.7429 68.7521 50.7518 68.7534C50.7665 68.757 50.7808 68.7604 50.7948 68.7638C50.8209 68.77 50.8463 68.7761 50.8728 68.7827C51.0141 68.8032 51.1555 68.8325 51.2993 68.8746C51.6393 68.9754 51.9793 69.1349 52.2735 69.3327C52.5511 69.519 52.8274 69.713 53.0693 69.9452C53.1546 70.018 53.2348 70.0971 53.3112 70.1787C53.4348 70.2808 53.5545 70.3855 53.6691 70.4888C53.8091 70.6177 53.9454 70.7504 54.0753 70.8882Z" fill="black"/>
<path fill-rule="evenodd" clip-rule="evenodd" d="M81.0762 79.5398C80.1362 79.812 79.1272 79.8364 78.169 79.5552C77.2999 79.3001 76.4075 78.7389 75.7679 77.9961C75.1997 77.3364 74.8317 76.5346 74.8461 75.6787C74.8478 75.581 74.8827 75.4994 74.9365 75.436C74.9944 75.3679 75.0752 75.321 75.1618 75.3007C75.2509 75.2798 75.3451 75.2872 75.4252 75.3237C75.4978 75.3566 75.56 75.4126 75.5989 75.4945C75.6972 75.6236 75.7951 75.7508 75.8934 75.8745C76.6838 76.8505 77.4492 77.5798 78.6377 77.8414C79.2825 77.9834 79.9266 77.9204 80.5175 77.7038C81.15 77.472 81.7219 77.0643 82.1699 76.5427C82.3724 76.3069 82.6115 76.2107 82.8453 76.209C83.1102 76.2072 83.372 76.3303 83.5693 76.5271C83.7632 76.7205 83.893 76.9833 83.9048 77.2582C83.9151 77.4994 83.8364 77.7515 83.627 77.9763C82.9373 78.717 82.0434 79.2596 81.0762 79.5398ZM81.0472 67.3163C82.0108 67.902 83.479 69.2678 82.4424 70.7198C81.2222 72.0001 79.4654 70.5322 78.5997 69.8682C77.797 69.3537 76.8951 70.6771 77.6398 71.2779C83.8955 75.9093 86.4342 67.4694 81.5345 66.6276C80.9951 66.5349 80.7947 67.1351 81.0472 67.3163ZM72.0333 64.739C71.7235 64.541 71.3592 64.473 70.9555 64.6567C70.6399 64.8002 70.0865 65.2785 69.7014 65.9073C69.4379 66.3375 69.2511 66.8421 69.29 67.3678C69.299 67.4899 69.2539 67.5799 69.1828 67.6465C69.1266 67.699 69.0454 67.7376 68.9501 67.7497C68.8691 67.76 68.7785 67.7507 68.7049 67.7277C68.5647 67.684 68.4906 67.5931 68.4626 67.5189C68.193 66.8028 68.3091 66.0036 68.6113 65.2826C69.0192 64.3096 69.7599 63.4946 70.2452 63.2318C71.0756 62.782 72.0552 62.7613 72.8868 63.2196C73.5947 63.6096 74.0373 64.2393 74.4775 64.8811C74.5711 65.0175 74.664 65.153 74.76 65.286C74.9524 65.5527 74.9715 65.8171 74.897 66.0439C74.8145 66.2951 74.604 66.5071 74.3409 66.618C74.0977 66.7205 73.8154 66.735 73.5656 66.6296C73.3545 66.5406 73.1609 66.3671 73.0383 66.0727C72.8319 65.5769 72.4881 65.0299 72.0333 64.739V64.739ZM87.7626 65.8421C87.5505 65.9526 87.3845 65.9859 87.1492 65.9154C87.0191 65.8764 86.8905 65.8015 86.7898 65.7008C86.6901 65.601 86.6181 65.4769 86.5901 65.3393C86.5213 64.9995 86.3354 64.6815 86.0705 64.4742C85.8441 64.297 85.5583 64.2031 85.2414 64.2561C84.8993 64.3132 84.5735 64.5326 84.349 64.7912C84.274 64.8777 84.2152 64.976 84.1561 65.0736C84.0455 65.2562 83.938 65.4259 83.7855 65.56C83.7277 65.611 83.6406 65.6463 83.5562 65.6463C83.5219 65.6463 83.4871 65.6407 83.454 65.6304C83.1135 65.2887 83.0481 65.0295 83.059 64.7724C83.0705 64.5028 83.1768 64.2298 83.3486 63.9751C83.7515 63.3777 84.5165 62.8878 85.0328 62.7769C85.7398 62.625 86.4419 62.8073 87.0048 63.2022C87.5841 63.6085 88.0133 64.2393 88.1471 64.9502C88.1793 65.1214 88.1656 65.3063 88.1004 65.4665C88.0367 65.6231 87.9256 65.7572 87.7626 65.8421ZM73.5925 58.3693C73.1682 58.7827 72.666 58.8467 72.158 58.9037C71.8757 58.9356 71.6504 58.9614 71.4287 59.0114C70.8192 59.149 70.2167 59.3562 69.6671 59.6546C69.0925 59.9666 68.4664 60.3428 68.0159 60.8248C67.9088 60.9395 67.8078 61.0598 67.7067 61.1804C67.6145 61.2904 67.5257 61.3963 67.4321 61.4984C67.3246 61.6157 67.2225 61.7386 67.121 61.8611C67.0582 61.9646 67.0458 61.99 67.0331 62.0165C67.0141 62.0563 66.992 62.1008 66.9667 62.1486C66.9321 62.214 66.8915 62.2856 66.849 62.3506C66.7784 62.4693 66.7405 62.502 66.7077 62.5166C66.6533 62.5408 66.6018 62.5527 66.5518 62.5463C66.5049 62.5402 66.4607 62.5177 66.4171 62.4808C66.1992 62.2968 66.135 61.9947 66.1416 61.6741C66.1516 61.1876 66.331 60.6489 66.4964 60.3178C66.8811 59.5484 67.4145 58.7485 68.056 58.1743C68.7879 57.5188 69.5887 57.0225 70.5085 56.6806C71.0801 56.468 71.7418 56.2729 72.3646 56.2975C72.8128 56.3152 73.2407 56.4485 73.5941 56.7812C73.8111 56.9855 73.9152 57.276 73.9152 57.5663C73.9152 57.8625 73.8071 58.1603 73.5925 58.3693ZM88.6254 62.1547C88.5985 62.1989 88.5611 62.2294 88.5196 62.2477C88.476 62.2669 88.4274 62.2724 88.3807 62.2646C88.3342 62.2567 88.2901 62.2357 88.255 62.2035C88.2215 62.1726 88.1959 62.1317 88.1845 62.0816C87.9028 60.8444 87.3558 59.9239 86.1884 59.3303C85.6141 59.0383 84.9537 58.8528 84.3286 58.7049C84.1469 58.6619 83.955 58.634 83.7616 58.6058C83.1558 58.5173 82.5456 58.416 82.1506 57.9263C81.9126 57.6313 81.8127 57.2541 81.8692 56.9091C81.9224 56.5842 82.1122 56.2863 82.4573 56.1078C83.3164 55.6636 84.384 56.0995 85.2515 56.4708C85.3159 56.4983 85.3791 56.5254 85.4409 56.5515C86.2893 56.9096 87.0631 57.3823 87.6991 58.0583C88.2038 58.5946 88.6714 59.3874 88.8597 60.203C89.0164 60.8816 88.9796 61.5743 88.6254 62.1547Z" fill="black"/>
</svg>
