<svg width="515" height="88" viewBox="0 0 515 88" fill="none" xmlns="http://www.w3.org/2000/svg">
<rect width="515" height="88" rx="44" fill="#1A1A1A"/>
<rect width="515" height="88" rx="44" fill="#F2ECE7"/>
<rect x="18" y="10" width="479" height="68" rx="34" stroke="#1A1A1A" stroke-opacity="0.8" stroke-width="4" stroke-linecap="round" stroke-dasharray="40 40"/>
<path d="M51.744 55L59.68 43.032L52.384 32.344H58.976L63.2 39.384L67.36 32.344H73.728L66.56 43.032L74.752 55H68L63.04 47L58.272 55H51.744ZM88.1313 55.608C84.5686 55.608 81.6246 54.4987 79.2993 52.28C76.9739 50.04 75.8113 47.1387 75.8113 43.576C75.8113 39.992 76.9633 37.1227 79.2673 34.968C81.5926 32.8133 84.5473 31.736 88.1313 31.736C91.7366 31.736 94.6913 32.8133 96.9953 34.968C99.3206 37.1227 100.483 39.992 100.483 43.576C100.483 47.1387 99.3206 50.04 96.9953 52.28C94.6699 54.4987 91.7153 55.608 88.1313 55.608ZM83.4593 48.632C84.6753 49.9547 86.2326 50.616 88.1313 50.616C90.0299 50.616 91.5873 49.9547 92.8033 48.632C94.0193 47.3093 94.6273 45.624 94.6273 43.576C94.6273 41.5707 94.0193 39.9173 92.8033 38.616C91.5873 37.3147 90.0299 36.664 88.1313 36.664C86.2326 36.664 84.6753 37.3147 83.4593 38.616C82.2646 39.9173 81.6673 41.5707 81.6673 43.576C81.6673 45.624 82.2646 47.3093 83.4593 48.632ZM117.406 55V46.616C115.721 47.0853 114.035 47.32 112.35 47.32C109.769 47.32 107.859 46.7973 106.622 45.752C105.406 44.6853 104.798 43 104.798 40.696V32.344H110.206V39.32C110.206 40.6 110.483 41.5067 111.038 42.04C111.614 42.5733 112.553 42.84 113.854 42.84C115.411 42.84 116.595 42.648 117.406 42.264V32.344H122.878V55H117.406ZM131.563 55.384C130.133 55.384 128.928 55.256 127.947 55L128.619 50.488C129.365 50.7227 130.048 50.84 130.667 50.84C131.584 50.84 132.277 50.616 132.747 50.168C133.216 49.6987 133.728 48.92 134.283 47.832L134.379 47.64L125.739 32.344H132.043L137.355 42.68L142.347 32.344H148.491L140.011 48.472C139.499 49.432 139.083 50.1893 138.763 50.744C138.443 51.2987 138.016 51.9173 137.483 52.6C136.971 53.2827 136.459 53.7947 135.947 54.136C135.435 54.4773 134.805 54.7653 134.059 55C133.312 55.256 132.48 55.384 131.563 55.384ZM160.336 55V32.344H169.36C170.32 32.344 171.216 32.44 172.048 32.632C172.901 32.8027 173.723 33.1013 174.512 33.528C175.301 33.9333 175.92 34.5413 176.368 35.352C176.837 36.1413 177.072 37.08 177.072 38.168C177.072 39.384 176.741 40.408 176.08 41.24C175.419 42.072 174.512 42.68 173.36 43.064V43.128C174.725 43.3627 175.835 43.9493 176.688 44.888C177.563 45.8053 178 46.9787 178 48.408C178 49.5813 177.755 50.616 177.264 51.512C176.795 52.3867 176.133 53.0693 175.28 53.56C174.448 54.0507 173.531 54.4133 172.528 54.648C171.547 54.8827 170.491 55 169.36 55H160.336ZM165.616 50.584H168.688C171.248 50.584 172.528 49.688 172.528 47.896C172.528 46.232 171.237 45.4 168.656 45.4H165.616V50.584ZM165.616 41.368H168.56C169.584 41.368 170.373 41.1547 170.928 40.728C171.504 40.3013 171.792 39.6933 171.792 38.904C171.792 37.432 170.629 36.696 168.304 36.696H165.616V41.368ZM191.617 55V32.344L200.641 32.344C201.601 32.344 202.497 32.44 203.329 32.632C204.183 32.8027 205.004 33.1013 205.793 33.528C206.583 33.9333 207.201 34.5413 207.649 35.352C208.119 36.1413 208.353 37.08 208.353 38.168C208.353 39.384 208.023 40.408 207.361 41.24C206.7 42.072 205.793 42.68 204.641 43.064V43.128C206.007 43.3627 207.116 43.9493 207.969 44.888C208.844 45.8053 209.281 46.9787 209.281 48.408C209.281 49.5813 209.036 50.616 208.545 51.512C208.076 52.3867 207.415 53.0693 206.561 53.56C205.729 54.0507 204.812 54.4133 203.809 54.648C202.828 54.8827 201.772 55 200.641 55H191.617ZM196.897 50.584H199.969C202.529 50.584 203.809 49.688 203.809 47.896C203.809 46.232 202.519 45.4 199.937 45.4H196.897V50.584ZM196.897 41.368H199.841C200.865 41.368 201.655 41.1547 202.209 40.728C202.785 40.3013 203.073 39.6933 203.073 38.904C203.073 37.432 201.911 36.696 199.585 36.696H196.897V41.368ZM211.114 55L220.619 32.344H225.931L235.339 55H229.259L227.499 50.552H218.731L217.067 55H211.114ZM220.299 46.168H225.995L223.179 38.392L220.299 46.168ZM238.211 55V32.344H243.683V50.328L250.819 50.328V32.344H256.291V50.328H263.427V32.344H268.899V55L238.211 55ZM299.682 37.016H293.282V55H287.81V37.016H281.41V32.344H299.682V37.016ZM318.988 55H303.18V32.344H318.412V36.984H308.46V41.24H317.868V45.624H308.46V50.328H318.988V55ZM337.889 55H323.617V32.344H329.121V50.232H337.889V55ZM357.269 55H341.461V32.344H356.693V36.984H346.741V41.24H356.149V45.624H346.741V50.328H357.269V55ZM382.027 53.624C379.531 54.9253 376.619 55.576 373.291 55.576C369.643 55.576 366.656 54.4773 364.331 52.28C362.005 50.0613 360.843 47.1813 360.843 43.64C360.843 40.0773 362.005 37.208 364.331 35.032C366.677 32.8347 369.611 31.736 373.131 31.736C374.88 31.736 376.533 32.0133 378.091 32.568C379.648 33.1013 380.907 33.8267 381.867 34.744L378.411 38.68C377.195 37.272 375.499 36.568 373.323 36.568C371.403 36.568 369.813 37.24 368.555 38.584C367.296 39.928 366.667 41.6133 366.667 43.64C366.667 45.7733 367.275 47.5013 368.491 48.824C369.707 50.1253 371.403 50.776 373.579 50.776C374.923 50.776 376.064 50.5733 377.003 50.168V46.04H372.683V41.624H382.027V53.624ZM406.02 55H399.62L394.724 46.008H392.868V55H387.492V32.344H396.132C397.284 32.344 398.351 32.4613 399.332 32.696C400.314 32.9307 401.231 33.304 402.084 33.816C402.938 34.328 403.599 35.0427 404.068 35.96C404.559 36.8773 404.804 37.9547 404.804 39.192C404.804 40.6853 404.388 41.9653 403.556 43.032C402.724 44.0987 401.572 44.856 400.1 45.304L406.02 55ZM399.396 39.288C399.396 37.6027 398.18 36.76 395.748 36.76H392.836V42.04H395.428C398.074 42.04 399.396 41.1227 399.396 39.288ZM431.151 55H425.071L423.311 50.552H414.543L412.879 55H406.927L416.431 32.344L421.743 32.344L431.151 55ZM421.807 46.168L418.991 38.392L416.111 46.168H421.807ZM459.912 55H454.568L454.696 38.968H454.6L448.712 55H444.872L439.144 38.968H439.048L439.176 55H434.024V32.344H441.8L446.952 46.872H447.08L452.008 32.344H459.912V55Z" fill="#1A1A1A"/>
</svg>
