<svg width="18" height="18" viewBox="0 0 18 18" fill="none" xmlns="http://www.w3.org/2000/svg">
<path d="M16.5583 3.35842C15.2167 3.22508 13.875 3.12508 12.525 3.05008V3.04175L12.3417 1.95841C12.2167 1.19175 12.0333 0.041748 10.0833 0.041748H7.89999C5.95832 0.041748 5.77499 1.14175 5.64166 1.95008L5.46666 3.01675C4.69166 3.06675 3.91666 3.11675 3.14166 3.19175L1.44166 3.35842C1.09166 3.39175 0.841656 3.70008 0.874989 4.04175C0.908322 4.38342 1.20832 4.63342 1.55832 4.60008L3.25832 4.43342C7.62499 4.00008 12.025 4.16675 16.4417 4.60842C16.4667 4.60842 16.4833 4.60842 16.5083 4.60842C16.825 4.60842 17.1 4.36675 17.1333 4.04175C17.1583 3.70008 16.9083 3.39175 16.5583 3.35842Z" fill="#1A1A1A"/>
<path opacity="0.3991" d="M15.025 5.7835C14.825 5.57516 14.55 5.4585 14.2667 5.4585H3.73335C3.45002 5.4585 3.16668 5.57516 2.97502 5.7835C2.78335 5.99183 2.67501 6.27516 2.69168 6.56683L3.20835 15.1168C3.30002 16.3835 3.41668 17.9668 6.32502 17.9668H11.675C14.5833 17.9668 14.7 16.3918 14.7917 15.1168L15.3083 6.57516C15.325 6.27516 15.2167 5.99183 15.025 5.7835Z" fill="#1A1A1A"/>
<path fill-rule="evenodd" clip-rule="evenodd" d="M6.98334 13.1667C6.98334 12.8216 7.26316 12.5417 7.60834 12.5417H10.3833C10.7285 12.5417 11.0083 12.8216 11.0083 13.1667C11.0083 13.5119 10.7285 13.7917 10.3833 13.7917H7.60834C7.26316 13.7917 6.98334 13.5119 6.98334 13.1667Z" fill="#1A1A1A"/>
<path fill-rule="evenodd" clip-rule="evenodd" d="M6.29163 9.8335C6.29163 9.48832 6.57145 9.2085 6.91663 9.2085H11.0833C11.4285 9.2085 11.7083 9.48832 11.7083 9.8335C11.7083 10.1787 11.4285 10.4585 11.0833 10.4585H6.91663C6.57145 10.4585 6.29163 10.1787 6.29163 9.8335Z" fill="#1A1A1A"/>
</svg>
